<?xml version="1.0" encoding="utf-8"?>
<!-- Generator: Adobe Illustrator 22.0.0, SVG Export Plug-In . SVG Version: 6.00 Build 0)  -->
<svg version="1.1" id="Layer_1" xmlns="http://www.w3.org/2000/svg" xmlns:xlink="http://www.w3.org/1999/xlink" x="0px" y="0px"
	 viewBox="0 0 115 163" style="enable-background:new 0 0 115 163;" xml:space="preserve">
<style type="text/css">
	.st0{fill:#009632;}
	.st1{fill:#969696;}
	.st2{fill:#DBD7D6;}
	.st3{fill:none;stroke:#009632;stroke-width:0.1735;stroke-linecap:round;stroke-miterlimit:10;}
	.st4{fill:none;stroke:#009632;stroke-width:0.1735;stroke-linecap:round;stroke-miterlimit:10;stroke-dasharray:0.686,1.372;}
	.st5{fill:none;stroke:#009632;stroke-width:0.1735;stroke-linecap:round;stroke-miterlimit:10;stroke-dasharray:0.7062,1.4124;}
	.st6{opacity:0.1;fill:#009632;}
</style>
<path class="st0" d="M48,149.8H2.9v-4.4c0,0,9.4,0,10.3,0c2.3,0,3.3,0.9,4.5,0.9s16.2,0.2,17.5,0.2c1.4,0,3.3-1.1,5-1.1
	c1.8,0,7.8,0,7.8,0V149.8z"/>
<circle class="st1" cx="90.8" cy="34.2" r="0.8"/>
<path class="st1" d="M106.4,65.4v-3.6h8.6v-2.2H99.9c-0.2-0.9-0.6-1.2-1.1-1.2h-6.5V35c0.1-0.2,0.1-0.4,0.2-0.6l0,0
	c0.1-1-0.7-1.9-1.7-2l-2.8-0.3l0.8-9c0.1-0.8-0.6-1.6-1.4-1.7h0l0-0.5c0.1-1.1-0.7-2.1-1.8-2.2h0l-2.7,29.8c1.1,0.1,2.1-0.7,2.2-1.8
	l0-0.5c0.8,0.1,1.6-0.6,1.7-1.4l0.8-9l1.7,0.2v22.4h-5.7c-0.5,0-0.9,0.3-1.1,1.2H36.2v2.2h16.9v3.6h25V148H64.3c-1.6,0-3,1.3-3,3
	l0,0H115l0,0c0-1.6-1.3-3-3-3H89.6V65.4H106.4z"/>
<path class="st2" d="M30,8.9c0.5,0,0.9,0.4,1.2,0.4c0.5,0,1.1-0.4,1.5,0.4c0.1,0.2,0.9,0.4,1.3,0.8c1,1,0.9,2.3-0.1,3.6
	c-0.6,0.8-0.6,1.6-0.4,2.5c0.2,1.1,0.6,2.3-0.3,3.4c-0.1,0.2,0,0.6,0,0.8c0.2,0.5,0.4,0.9,0.6,1.3c0.7,1.2,0.7,1.2-0.4,2.2
	c-0.2,0.2-0.4,0.6-0.5,0.9c0,1-0.3,1.8-0.9,2.5c-0.1,0.2-0.1,0.5-0.2,0.7c-0.1,1.2-0.7,1.6-1.9,1.3c-0.6-0.2-1.1-0.4-1.7-0.6
	c-0.9,1.2-1.7,2.5-1.2,4.1c0.1,0.2,0.2,0.5,0.3,0.7c2.9,3.9,4.6,5.9,6.4,10.3c0.7,1.7,0.6,3.9,0.6,4.6c0,1-0.2,2.1-0.2,3.1
	c-0.2,2-0.4,4-0.5,6c-0.1,2.1,0,4.1,0,6.2c0,2.2-0.1,6.8-0.2,8.9c-0.1,3,0,10.9-1.1,16.5c-0.6,3.2-1.5,6.4-2.2,9.6c-0.2,1-0.6,2-1,3
	c-0.4,1.3-0.7,2.6-1.1,3.9c-0.6,1.8-1.1,3.6-1.9,5.3c-1,2-1.5,4-1.2,6.2c0.4,3-0.2,5.9-0.5,8.9c-0.3,2.7-0.5,5.4-0.6,8.1
	c-0.1,2.2,1,4,2.2,5.8c0.4,0.5,1.2,0.8,1.8,1c2,0.9,4,1.7,6.1,2.5c0.7,0.3,1.4,0.3,2.1,0.5c0.3,0.1,0.8,0.2,0.9,0.5
	c0.1,0.2,0,0.7-0.2,1c-0.4,0.7-1,1-1.9,1c-5.7-0.1-11.3-0.1-17-0.2c-1.1,0-1.9-1.1-1.6-2.4c0.2-1,0.6-2,0.9-3.1
	c0.9-2.4,0.5-4.9,0.1-7.3c-0.7-4.1-1.6-8.1-2.2-12.2c-0.3-2.4,0.3-4.9,0.9-7.2c0.7-2.8,1.4-5.7,2.2-8.5c0.5-2-0.1-3.9-0.2-5.8
	c-0.2-2.6-0.5-5.3-0.6-7.9c-0.1-2.4-0.1-4.8-0.2-7.2c0-0.4-0.2-0.8-0.5-1.1c-2.4-3-3.5-8-1.7-11.9c1.7-3.9,2.4-8.1,2.4-10
	c0.1-5.3-3-9.1-3.4-12.9c-0.3-2.5-0.3-5.3-0.3-7.3c0-3.1,0.8-5.9,3.1-8.2c0.4-0.4,0.7-0.9,1.1-1.3c1.4-1.4,1.5-3.2,1.4-4.9
	c0-0.6-0.6-0.6-0.9-1.2c-0.2-0.3-0.5-1.1-0.5-1.5c0-1.5-0.5-2.8-1.2-4.1c-0.3-0.5-0.4-1.1-0.4-1.7c0-1-0.1-2,0-2.9
	c0.1-0.7,0.1-1.4,0.4-1.9c1.9-4.1,4.9-5.6,9.1-5.2c0.7,0.1,1.5,0.4,2.2,0.4C28.9,9,29.1,8.9,30,8.9z"/>
<path class="st2" d="M59.1,59.6c1.9,0.1,5.1,0.2,5.2-0.2c0.2-0.5-1.3-0.8-2.5-1.1c-1.2-0.4-2.1-1-4-1.4c-1.9-0.4-4.7-0.1-5.1-0.2
	c-11.5-2.1-18.6-2.5-19.8-3.4c-1-2.2-2.4-8.2-5-12.8c-2.9-5.2-5.3-7.3-7.5-6.7c-0.5,0.1-2.1,0.7-2.2,3.5c-0.1,2.8,3,9.9,4.9,13.2
	s4.3,7.6,5.5,8.5c1.2,0.8,10.8,1,22.5,0.7H59.1z"/>
<circle class="st0" cx="23.3" cy="20.2" r="1.9"/>
<circle class="st0" cx="23.3" cy="20.2" r="1.9"/>
<circle class="st0" cx="20.2" cy="38.4" r="1.9"/>
<circle class="st0" cx="21.7" cy="75.6" r="1.9"/>
<circle class="st0" cx="21.7" cy="108.3" r="1.9"/>
<circle class="st0" cx="21.7" cy="142.8" r="1.9"/>
<circle class="st0" cx="30.3" cy="56.3" r="1.9"/>
<line class="st3" x1="23.3" y1="20.2" x2="20.2" y2="38.4"/>
<line class="st3" x1="53.1" y1="58.1" x2="30.3" y2="56.4"/>
<line class="st3" x1="20.2" y1="38.4" x2="30.3" y2="56.4"/>
<line class="st3" x1="20.2" y1="38.4" x2="21.7" y2="75.6"/>
<line class="st3" x1="21.7" y1="75.6" x2="21.7" y2="108.3"/>
<line class="st3" x1="21.7" y1="142.8" x2="21.7" y2="108.3"/>
<g>
	<g>
		<line class="st3" x1="34" y1="19.9" x2="34.3" y2="19.9"/>
		<line class="st4" x1="35.7" y1="19.9" x2="84.4" y2="20.2"/>
		<line class="st3" x1="85.1" y1="20.2" x2="85.4" y2="20.2"/>
	</g>
</g>
<g>
	<g>
		<line class="st3" x1="34.2" y1="20.6" x2="34.6" y2="20.7"/>
		<line class="st5" x1="35.9" y1="21.1" x2="84.4" y2="33.8"/>
		<line class="st3" x1="85.1" y1="33.9" x2="85.5" y2="34"/>
	</g>
</g>
<g>
	<circle class="st6" cx="23.3" cy="20.2" r="20.2"/>
	<circle class="st6" cx="23.3" cy="20.2" r="6.7"/>
</g>
<g>
	<circle class="st6" cx="20.2" cy="38.3" r="20.2"/>
	<circle class="st6" cx="20.2" cy="38.3" r="6.7"/>
</g>
<g>
	<circle class="st6" cx="21.7" cy="75.7" r="20.2"/>
	<circle class="st6" cx="21.7" cy="75.7" r="6.7"/>
</g>
<g>
	<circle class="st6" cx="21.7" cy="108.3" r="20.2"/>
	<circle class="st6" cx="21.7" cy="108.3" r="6.7"/>
</g>
<g>
	<circle class="st6" cx="21.7" cy="142.8" r="20.2"/>
	<circle class="st6" cx="21.7" cy="142.8" r="6.7"/>
</g>
</svg>
