<?xml version="1.0" encoding="utf-8"?>
<!-- Generator: Adobe Illustrator 22.0.0, SVG Export Plug-In . SVG Version: 6.00 Build 0)  -->
<svg version="1.1" id="Layer_1" xmlns="http://www.w3.org/2000/svg" xmlns:xlink="http://www.w3.org/1999/xlink" x="0px" y="0px"
	 viewBox="0 0 544.5 857.1" style="enable-background:new 0 0 544.5 857.1;" xml:space="preserve">
<style type="text/css">
	.st0{fill:#009632;}
	.st1{fill:#969696;}
	.st2{fill:#DBD7D6;}
	.st3{fill:none;stroke:#009632;stroke-width:2;stroke-linecap:round;stroke-miterlimit:10;}
	.st4{opacity:0.1;fill:#009632;enable-background:new    ;}
</style>
<path class="st0" d="M273.2,855.9H15.9v-25.1c0,0,53.6,0,58.8,0c13.1,0,18.8,5.1,25.7,5.1s92.4,1.1,99.8,1.1c8,0,18.8-6.3,28.5-6.3
	c10.3,0,44.5,0,44.5,0V855.9z"/>
<path class="st1" d="M543.9,375.4v-20.5l0,0v-12.6h-37.1c-1.1-5.1-3.4-6.8-6.3-6.8h-37.1V201.9c0.6-1.1,0.6-2.3,1.1-3.4l0,0
	c0.6-5.7-4-10.8-9.7-11.4l-16-1.7l4.6-51.3c0.6-4.6-3.4-9.1-8-9.7l0,0v-2.9c0.6-6.3-4-12-10.3-12.6l0,0l-15.4,170
	c6.3,0.6,12-4,12.6-10.3v-2.9c4.6,0.6,9.1-3.4,9.7-8l4.6-51.3l9.7,1.1v127.8h-32.5c-2.9,0-5.1,1.7-6.3,6.8H210.7v12.6h29.1v20.5
	h142.6v464.4h-78.7c-9.1,0-17.1,7.4-17.1,17.1l0,0h257.3l0,0c0-9.1-7.4-17.1-17.1-17.1h-78.7V375.4H543.9z"/>
<path class="st2" d="M171.2,53c2.9,0,5.1,2.3,6.8,2.3c2.9,0,6.3-2.3,8.6,2.3c0.6,1.1,5.1,2.3,7.4,4.6c5.7,5.7,5.1,13.1-0.6,20.5
	c-3.4,4.6-3.4,9.1-2.3,14.3c1.1,6.3,3.4,13.1-1.7,19.4c-0.6,1.1,0,3.4,0,4.6c1.1,2.9,2.3,5.1,3.4,7.4c4,6.8,4,6.8-2.3,12.6
	c-1.1,1.1-2.3,3.4-2.9,5.1c0,5.7-1.7,10.3-5.1,14.3c-0.6,1.1-0.6,2.9-1.1,4c-0.6,6.8-4,9.1-10.8,7.4c-3.4-1.1-6.3-2.3-9.7-3.4
	c-5.1,6.8-9.7,14.3-6.8,23.4c0.6,1.1,1.1,2.9,1.7,4c16.5,22.3,26.2,33.7,36.5,58.8c4,9.7,3.4,22.3,3.4,26.2c0,5.7-1.1,12-1.1,17.7
	c-1.1,11.4-2.3,22.8-2.9,34.2c-0.6,12,0,23.4,0,35.4c0,12.6-0.6,38.8-1.1,50.8c-0.6,17.1,0,62.2-6.3,94.1
	c-3.4,18.3-8.6,36.5-12.6,54.8c-1.1,5.7-3.4,11.4-5.7,17.1c-2.3,7.4-4,14.8-6.3,22.3c-3.4,10.3-6.3,20.5-10.8,30.2
	c-5.7,11.4-8.6,22.8-6.8,35.4c2.3,17.1-1.1,33.7-2.9,50.8c-1.7,15.4-2.9,30.8-3.4,46.2c-0.6,12.6,5.7,22.8,12.6,33.1
	c2.3,2.9,6.8,4.6,10.3,5.7c11.4,5.1,22.8,9.7,34.8,14.3c4,1.7,8,1.7,12,2.9c1.7,0.6,4.6,1.1,5.1,2.9c0.6,1.1,0,4-1.1,5.7
	c-2.3,4-5.7,5.7-10.8,5.7c-32.5-0.6-64.5-0.6-97-1.1c-6.3,0-10.8-6.3-9.1-13.7c1.1-5.7,3.4-11.4,5.1-17.7c5.1-13.7,2.9-28,0.6-41.6
	c-4-23.4-9.1-46.2-12.6-69.6c-1.7-13.7,1.7-28,5.1-41.1c4-16,8-32.5,12.6-48.5c2.9-11.4-0.6-22.3-1.1-33.1
	c-1.1-14.8-2.9-30.2-3.4-45.1c-0.6-13.7-0.6-27.4-1.1-41.1c0-2.3-1.1-4.6-2.9-6.3C81,463.8,74.7,435.3,85,413
	c9.7-22.3,13.7-46.2,13.7-57.1c0.6-30.2-17.1-51.9-19.4-73.6c-1.7-14.3-1.7-30.2-1.7-41.6c0-17.7,4.6-33.7,17.7-46.8
	c2.3-2.3,4-5.1,6.3-7.4c8-8,8.6-18.3,8-28c0-3.4-3.4-3.4-5.1-6.8c-1.1-1.7-2.9-6.3-2.9-8.6c0-8.6-2.9-16-6.8-23.4
	c-1.7-2.9-2.3-6.3-2.3-9.7c0-5.7-0.6-11.4,0-16.5c0.6-4,0.6-8,2.3-10.8c10.8-23.4,28-31.9,51.9-29.7c4,0.6,8.6,2.3,12.6,2.3
	C164.9,53.6,166,53,171.2,53z"/>
<path class="st2" d="M337.2,342.3c10.8,0.6,29.1,1.1,29.7-1.1c1.1-2.9-7.4-4.6-14.3-6.3c-6.8-2.3-12-5.7-22.8-8s-26.8-0.6-29.1-1.1
	c-65.6-12-106.1-14.3-113-19.4c-5.7-12.6-13.7-46.8-28.5-73c-16.5-29.7-30.2-41.6-42.8-38.2c-2.9,0.6-12,4-12.6,20
	s17.1,56.5,28,75.3s24.5,43.4,31.4,48.5c6.8,4.6,61.6,5.7,128.4,4h45.6L337.2,342.3L337.2,342.3z"/>
<circle class="st0" cx="132.9" cy="117.5" r="10.8"/>
<circle class="st0" cx="132.9" cy="117.5" r="10.8"/>
<circle class="st0" cx="115.2" cy="221.3" r="10.8"/>
<circle class="st0" cx="123.8" cy="433.5" r="10.8"/>
<circle class="st0" cx="123.8" cy="620.1" r="10.8"/>
<circle class="st0" cx="123.8" cy="816.9" r="10.8"/>
<circle class="st0" cx="172.9" cy="323.4" r="10.8"/>
<line class="st3" x1="132.9" y1="117.5" x2="115.2" y2="221.3"/>
<line class="st3" x1="302.9" y1="333.7" x2="172.9" y2="324"/>
<line class="st3" x1="115.2" y1="221.3" x2="172.9" y2="324"/>
<line class="st3" x1="115.2" y1="221.3" x2="123.8" y2="433.5"/>
<line class="st3" x1="123.8" y1="433.5" x2="123.8" y2="620.1"/>
<line class="st3" x1="123.8" y1="816.9" x2="123.8" y2="620.1"/>
<g>
	<circle class="st4" cx="132.9" cy="117.5" r="115.2"/>
	<circle class="st4" cx="132.9" cy="117.5" r="38.2"/>
</g>
<g>
	<circle class="st4" cx="115.2" cy="220.7" r="115.2"/>
	<circle class="st4" cx="115.2" cy="220.7" r="38.2"/>
</g>
<g>
	<circle class="st4" cx="123.8" cy="434.1" r="115.2"/>
	
		<ellipse transform="matrix(3.328092e-02 -0.9994 0.9994 3.328092e-02 -314.2489 543.3013)" class="st4" cx="123.7" cy="434.1" rx="38.2" ry="38.2"/>
</g>
<g>
	<circle class="st4" cx="123.8" cy="620.1" r="115.2"/>
	
		<ellipse transform="matrix(3.328095e-02 -0.9994 0.9994 3.328095e-02 -500.1332 723.1086)" class="st4" cx="123.7" cy="620.1" rx="38.2" ry="38.2"/>
</g>
<path class="st4" d="M238.4,815.9c0-63.6-51.6-115.2-115.2-115.2S8,752.3,8,815.9c0,14,2.5,27.5,7.1,39.9h216.3
	C235.9,843.4,238.4,830,238.4,815.9z M123.2,854.2c-21.1,0-38.2-17.1-38.2-38.2c0-21.1,17.1-38.2,38.2-38.2s38.2,17.1,38.2,38.2
	C161.4,837,144.3,854.2,123.2,854.2z"/>
<ellipse transform="matrix(0.7071 -0.7071 0.7071 0.7071 -541.3644 326.7834)" class="st4" cx="123.8" cy="816.9" rx="38.2" ry="38.2"/>
<ellipse transform="matrix(0.7071 -0.7071 0.7071 0.7071 -541.3644 326.7834)" class="st4" cx="123.8" cy="816.9" rx="38.2" ry="38.2"/>
</svg>
