<?xml version="1.0" encoding="utf-8"?>
<!-- Generator: Adobe Illustrator 22.0.0, SVG Export Plug-In . SVG Version: 6.00 Build 0)  -->
<svg version="1.1" id="Layer_1" xmlns="http://www.w3.org/2000/svg" xmlns:xlink="http://www.w3.org/1999/xlink" x="0px" y="0px"
	 viewBox="0 0 544.5 857.1" style="enable-background:new 0 0 544.5 857.1;" xml:space="preserve">
<style type="text/css">
	.st0{fill:#FFFFFF;}
	.st1{fill:none;stroke:#969696;stroke-width:14.2527;stroke-linecap:round;stroke-miterlimit:10;}
	.st2{fill:#969696;}
	.st3{fill:#DBD7D6;}
	.st4{fill:#009632;}
	.st5{fill:none;stroke:#FFC800;stroke-width:0.9897;stroke-linecap:round;stroke-miterlimit:10;}
	.st6{fill:none;stroke:#FF2832;stroke-width:0.9897;stroke-linecap:round;stroke-miterlimit:10;}
	.st7{fill:none;stroke:#009632;stroke-width:0.9897;stroke-linecap:round;stroke-miterlimit:10;}
	.st8{fill:#FF2832;}
	.st9{opacity:0.1;fill:#FF2832;enable-background:new    ;}
	.st10{opacity:0.2;fill:#FF2832;enable-background:new    ;}
	.st11{fill:#FFC800;}
</style>
<rect x="-0.3" y="0.5" class="st0" width="544.6" height="856.6"/>
<path class="st1" d="M41.8,405c0,0,18.5,222.5,19.5,231.2s3.8,14.9,23.8,16.4"/>
<path class="st2" d="M187.6,811.2h-20.8c-0.4,0-0.8-0.4-0.8-0.8V652.1c0-0.4,0.4-0.8,0.8-0.8h20.8c0.4,0,0.8,0.4,0.8,0.8v158.3
	C188.4,810.9,188,811.2,187.6,811.2z"/>
<path class="st2" d="M181.9,794L64.3,826.3c-0.3,0.1-0.5,0.4-0.4,0.7l4.1,15c0.1,0.3,0.4,0.5,0.7,0.4l117.6-32.3
	c0.3-0.1,0.5-0.4,0.4-0.7l-4.1-15C182.5,794.1,182.2,793.9,181.9,794z"/>
<path class="st2" d="M172.6,794l117.6,32.3c0.3,0.1,0.5,0.4,0.4,0.7l-4.1,15c-0.1,0.3-0.4,0.5-0.7,0.4l-117.6-32.3
	c-0.3-0.1-0.5-0.4-0.4-0.7l4.1-15C171.9,794.1,172.2,793.9,172.6,794z"/>
<path class="st3" d="M224.1,553.9c-8.7-0.3-7.9-27.5-11-39.4c-2.9-11.4-6.3-22.7-8.7-34.2c-2.4-11.2-3.9-22.5-5.8-33.8
	c-1-5.8-1.7-11.7-3-17.4c-1-4.4-3.6-16.2-9.8-24.8c-16.1-21.9-28.7-30.5-50-47.8c-1.1-0.9-1.9-2.2-2.7-3.5
	c-5.3-8.3,2.1-8.1,7.2-15.1c3.4,1.3,6.6,2.8,9.8,3.8c6.5,2.1,10.1-0.5,10.8-7.3c0.1-1.4,0.2-3.2,1-4.2c3.4-4.2,5.1-8.8,5.3-14.2
	c0.1-1.7,1.3-3.8,2.6-4.9c6.5-5.2,6.5-5.1,2.6-12.3c-1.3-2.4-2.5-5-3.4-7.6c-0.5-1.5-0.9-3.8-0.2-4.7c5-6.1,2.7-12.8,1.8-19.3
	c-0.7-5.2-0.9-10.1,2.7-14.4c5.8-7,6.5-14.3,0.6-20.3c-2.2-2.2-6.8-3.6-7.3-4.6c-2.3-4.2-5.5-2-8.4-2.2c-1.5-0.1-3.8-2.6-6.8-2.4
	c-4.9-0.1-6.5,0.5-10.8,0c-4.2-0.5-8.3-2.1-12.5-2.6c-24.1-2.6-41.1,5.9-52.5,29c-1.6,3.2-2.1,7.2-2.5,10.9
	c-0.5,5.5-0.3,11.2-0.3,16.7c0,3.3,0.5,7,2,9.9c3.9,7.4,6.5,14.9,6.7,23.4c0,1.9,1.7,6.5,2.7,8.4c1.8,3.2,5,3.7,5.1,6.9
	c0.3,10-2.5,24-8.4,33.6c-1.7,2.8-2.7,6-4.4,8.8c-9.2,15.7-9.7,32.3-5.4,49.5c2.8,10.8,6.9,26.5,11.9,39.9
	c7.6,20.4,30,36.9,36.9,66.4c2.5,10.7,4.7,34.7,0.9,58.8c-3.9,24.4,5.7,55.2,28,61.9c16.4,4.9,39.9,7.4,76.3,2
	c0,0,108,0.5,116.4,1.8c8.4,1.4,10.9,12.3,11.1,20.1l0.1,9.4c-0.3,14-1,28.3,4,41.4c8.4,22,18.5,43.4,27.7,65.2
	c5.5,13,11.8,22.2,7.3,36.3c-1.8,5.8-3.6,11.6-4.6,17.6c-1.3,7.3,3.4,13.3,9.5,13.2c32.3-0.8,64.6-1.7,97-2.4
	c4.8-0.1,8.3-2,10.4-6.1c0.9-1.7,1.6-4.3,0.9-5.7s-3.4-2-5.3-2.4c-4.1-1-8.4-1.1-12.4-2.5c-11.8-4.1-23.4-8.4-35.1-12.9
	c-3.8-1.4-8.5-2.7-10.6-5.6c-7.1-9.6-17.8-21.8-20.2-34.1c-2.9-15.1-5-30.4-7-45.7c-2.1-16.7-11.6-105.3-13.4-115.8
	c0,0-1-26.2-41.9-33S224.1,553.9,224.1,553.9z"/>
<path class="st3" d="M336.2,513.1c10.7,0.5,29.2,1.1,29.9-1c1-2.9-7.5-4.4-14.4-6.4s-11.9-5.7-22.6-8.1s-26.7-0.5-29.1-1
	c-65.5-12.1-106-14.2-113.1-19.3c-5.9-12.8-13.7-46.7-28.4-73.2c-16.7-29.8-30.2-41.4-42.6-38.3c-2.9,0.7-12,4.1-12.3,19.8
	s17,56.6,27.7,75c10.7,18.5,24.7,43.5,31.6,48.2s61.7,5.4,128.1,4.2L336.2,513.1L336.2,513.1z"/>
<circle class="st4" cx="416.4" cy="816.1" r="10.9"/>
<line class="st5" x1="310.2" y1="504.6" x2="180.3" y2="494.7"/>
<line class="st6" x1="94.2" y1="392.2" x2="180.3" y2="494.7"/>
<line class="st6" x1="94.3" y1="392.1" x2="167.1" y2="594.7"/>
<path class="st7" d="M167,594.8"/>
<path class="st2" d="M75.9,545.7l-6.2,0.5c-4.8,0.4-9.1-3.2-9.5-8L46.8,399.6c-0.4-4.8,3.2-9.1,8-9.5l6.2-0.5c4.8-0.4,9.1,3.2,9.5,8
	L84,536.1C84.4,541,80.8,545.3,75.9,545.7z"/>
<path class="st2" d="M257.3,665.6h-169c-7.8,0-14.3-6.4-14.3-14.3l0,0c0-7.8,6.1-15.1,14.3-14.3c6.6,1.4,10.8,5.3,29.3,5.9
	c12.7,0.4,132.5,4,132.5,4c14,0.6,21.6-3.4,21.6,4.4l0,0C271.6,659.2,265.2,665.6,257.3,665.6z"/>
<line class="st6" x1="167" y1="594.8" x2="370.5" y2="618.6"/>
<line class="st5" x1="416.4" y1="816.1" x2="370.5" y2="618.6"/>
<circle class="st2" cx="277.2" cy="842" r="14.2"/>
<ellipse transform="matrix(3.327795e-02 -0.9994 0.9994 3.327795e-02 -769.9962 887.939)" class="st2" cx="74" cy="842" rx="14.2" ry="14.2"/>
<circle class="st8" cx="94.3" cy="392.1" r="10.9"/>
<path class="st2" d="M543.9,546.5V526l0,0v-12.7h-37.1c-0.9-4.9-3.5-6.9-6.5-6.9H463V373c0.5-1.1,0.8-2.2,0.9-3.4l0,0
	c0.5-5.8-3.8-10.9-9.5-11.4l-16.1-1.5l4.6-51.4c0.4-4.8-3.2-9.1-8-9.6l0,0l0.3-2.9c0.6-6.2-4.1-11.8-10.3-12.4l0,0l-15.4,169.7
	c6.2,0.6,11.8-4.1,12.4-10.3l0.3-2.9l0,0c4.8,0.4,9.1-3.2,9.6-8l4.6-51.4l9.9,0.9v127.9h-32.5c-3,0-5.6,2-6.5,6.9H210.7V526h29.1
	v20.5h142.3v293.1h-78.4c-9.3,0-17,7.6-17,17h257.1c0-9.3-7.6-17-17-17h-78.7V546.5H543.9z"/>
<g>
	<circle class="st9" cx="115.9" cy="286.9" r="115.2"/>
	<circle class="st10" cx="115.9" cy="286.9" r="38.2"/>
</g>
<g>
	<circle class="st9" cx="167" cy="594.5" r="115.2"/>
	<circle class="st10" cx="167" cy="594.5" r="38.2"/>
</g>
<g>
	<circle class="st9" cx="94.3" cy="391.8" r="94"/>
	
		<ellipse transform="matrix(3.327794e-02 -0.9994 0.9994 3.327794e-02 -300.4211 473.0095)" class="st10" cx="94.3" cy="391.8" rx="31.2" ry="31.2"/>
</g>
<circle class="st8" cx="116" cy="286.9" r="10.9"/>
<circle class="st8" cx="167.1" cy="594.7" r="10.9"/>
<line class="st6" x1="115.9" y1="287" x2="94.2" y2="392.2"/>
<circle class="st11" cx="180.2" cy="494.6" r="10.9"/>
<circle class="st11" cx="370.5" cy="618.6" r="10.9"/>
</svg>
