<?xml version="1.0" encoding="utf-8"?>
<!-- Generator: Adobe Illustrator 22.0.0, SVG Export Plug-In . SVG Version: 6.00 Build 0)  -->
<svg version="1.1" id="Layer_1" xmlns="http://www.w3.org/2000/svg" xmlns:xlink="http://www.w3.org/1999/xlink" x="0px" y="0px"
	 viewBox="0 0 91 163" style="enable-background:new 0 0 91 163;" xml:space="preserve">
<style type="text/css">
	.st0{fill:#EFEBEA;}
	.st1{opacity:0.2;fill:#FF2832;}
	.st2{fill:#FF2832;}
	.st3{fill:none;stroke:#FF2832;stroke-miterlimit:10;}
</style>
<path class="st0" d="M91,148.3c-7.1-3.6-12.4-6.9-17.3-9.1c-4.9-2.2-5.4-16.5-5.2-25.1c4.1-2.5,7-5.3,8.6-7.7
	c2.4-3.7,4.2-14.2,5.2-23.7c0.9,0.1,2.1,0,3.9-0.9c4.4-2.2,5.9-15,2.9-20.7c-0.3-0.5-0.6-1-0.9-1.3c1.7-12.9,3.2-34.3-3.2-43.9
	C75.6,1.5,54.7,0.9,47.6,0.3c-9.4-0.8-26.2-0.7-30.4,9.9C-2.6,12.1-0.1,43,2.6,59.7c-0.3,0.3-0.5,0.7-0.8,1.2
	c-3,5.8-1.6,18.5,2.9,20.7c2,1,3.4,1.1,4.3,0.9c0.9,9.6,2.7,20.1,5.2,23.8c1.6,2.4,4.4,5.2,8.4,7.6c0.3,8.6-0.2,23-5.1,25.3
	c-5,2.2-10.3,5.5-17.5,9.1c12.8,9.2,28.5,14.7,45.5,14.7C62.5,163,78.2,157.5,91,148.3z"/>
<circle class="st1" cx="45.5" cy="50.6" r="37"/>
<g>
	<g>
		<path class="st2" d="M44.5,80.8c-1.4,0-2.8-0.8-4.2-1c-1.4-0.2-3,0.2-4.3-0.2c-1.4-0.4-2.5-1.6-3.7-2.2c-1.3-0.6-2.9-0.6-4.1-1.4
			c-1.2-0.8-1.9-2.2-3-3.2c-1.1-0.9-2.6-1.4-3.6-2.5c-0.9-1.1-1.2-2.7-2-3.9c-0.8-1.2-2.1-2.1-2.7-3.4c-0.6-1.3-0.4-2.9-0.8-4.3
			c-0.4-1.4-1.4-2.6-1.6-4c-0.2-1.4,0.4-2.9,0.4-4.3c0-1.4-0.6-2.9-0.4-4.3c0.2-1.4,1.2-2.7,1.6-4c0.4-1.4,0.2-3,0.8-4.3
			c0.6-1.3,1.9-2.2,2.7-3.4c0.8-1.2,1-2.8,2-3.9c0.9-1.1,2.5-1.6,3.6-2.5c1.1-0.9,1.8-2.4,3-3.2c1.2-0.8,2.8-0.8,4.1-1.4
			c1.3-0.6,2.4-1.8,3.7-2.2c1.4-0.4,2.9,0,4.3-0.2c1.4-0.2,2.8-1,4.2-1"/>
	</g>
	<g>
		<path class="st2" d="M46.5,20.1c1.4,0,2.8,0.8,4.2,1c1.4,0.2,3-0.2,4.3,0.2c1.4,0.4,2.5,1.6,3.7,2.2c1.3,0.6,2.9,0.6,4.1,1.4
			c1.2,0.8,1.9,2.2,3,3.2c1.1,0.9,2.6,1.4,3.6,2.5c0.9,1.1,1.2,2.7,2,3.9c0.8,1.2,2.1,2.1,2.7,3.4c0.6,1.3,0.4,2.9,0.8,4.3
			c0.4,1.4,1.4,2.6,1.6,4c0.2,1.4-0.4,2.9-0.4,4.3c0,1.4,0.6,2.9,0.4,4.3c-0.2,1.4-1.2,2.7-1.6,4c-0.4,1.4-0.2,3-0.8,4.3
			c-0.6,1.3-1.9,2.2-2.7,3.4c-0.8,1.2-1,2.8-2,3.9c-0.9,1.1-2.5,1.6-3.6,2.5c-1.1,0.9-1.8,2.4-3,3.2c-1.2,0.8-2.8,0.8-4.1,1.4
			c-1.3,0.6-2.4,1.8-3.7,2.2c-1.4,0.4-2.9,0-4.3,0.2c-1.4,0.2-2.8,1-4.2,1"/>
	</g>
</g>
<path class="st3" d="M47.5,78.3c0,4.9-4,4.9-4,9.7c0,4.9,4,4.9,4,9.7c0,4.9-4,4.9-4,9.7c0,4.9,4,4.9,4,9.7c0,4.9-4,4.9-4,9.8
	c0,4.9,4,4.9,4,9.7c0,4.9-4,4.9-4,9.8c0,4.9,4,4.9,4,9.8"/>
<path class="st3" d="M43.5,78.3c0,4.9,4,4.9,4,9.7c0,4.9-4,4.9-4,9.7c0,4.9,4,4.9,4,9.7c0,4.9-4,4.9-4,9.7c0,4.9,4,4.9,4,9.8
	c0,4.9-4,4.9-4,9.7c0,4.9,4,4.9,4,9.8c0,4.9-4,4.9-4,9.8"/>
</svg>
