<?xml version="1.0" encoding="utf-8"?>
<!-- Generator: Adobe Illustrator 22.0.0, SVG Export Plug-In . SVG Version: 6.00 Build 0)  -->
<svg version="1.1" id="Layer_1" xmlns="http://www.w3.org/2000/svg" xmlns:xlink="http://www.w3.org/1999/xlink" x="0px" y="0px"
	 viewBox="0 0 115 163" style="enable-background:new 0 0 115 163;" xml:space="preserve">
<style type="text/css">
	.st0{fill:#EFEBEA;}
	.st1{opacity:0.2;fill:#009632;enable-background:new    ;}
	.st2{fill:#009632;}
	.st3{fill:none;stroke:#009632;stroke-miterlimit:10;}
	.st4{fill:none;stroke:#FFFFFF;stroke-width:0.3155;stroke-linecap:round;stroke-miterlimit:10;}
	.st5{fill:#FFFFFF;}
</style>
<g>
	<path class="st0" d="M103,148.3c-7.1-3.6-12.4-6.9-17.3-9.1c-4.9-2.2-5.4-16.5-5.2-25.1c4.1-2.5,7-5.3,8.6-7.7
		c2.4-3.7,4.2-14.2,5.2-23.7c0.9,0.1,2.1,0,3.9-0.9c4.4-2.2,5.9-15,2.9-20.7c-0.3-0.5-0.6-1-0.9-1.3c1.7-12.9,3.2-34.3-3.2-43.9
		C87.6,1.5,66.7,0.9,59.6,0.3c-9.4-0.8-26.2-0.7-30.4,9.9C9.4,12.1,11.9,43,14.6,59.7c-0.3,0.3-0.5,0.7-0.8,1.2
		c-3,5.8-1.6,18.5,2.9,20.7c2,1,3.4,1.1,4.3,0.9c0.9,9.6,2.7,20.1,5.2,23.8c1.6,2.4,4.4,5.2,8.4,7.6c0.3,8.6-0.2,23-5.1,25.3
		c-5,2.2-10.3,5.5-17.5,9.1c12.8,9.2,28.5,14.7,45.5,14.7S90.2,157.5,103,148.3z"/>
	<circle class="st1" cx="57.5" cy="50.6" r="37"/>
	<g>
		<g>
			<path class="st2" d="M56.5,80.8c-1.4,0-2.8-0.8-4.2-1s-3,0.2-4.3-0.2c-1.4-0.4-2.5-1.6-3.7-2.2c-1.3-0.6-2.9-0.6-4.1-1.4
				s-1.9-2.2-3-3.2c-1.1-0.9-2.6-1.4-3.6-2.5c-0.9-1.1-1.2-2.7-2-3.9c-0.8-1.2-2.1-2.1-2.7-3.4c-0.6-1.3-0.4-2.9-0.8-4.3
				c-0.4-1.4-1.4-2.6-1.6-4s0.4-2.9,0.4-4.3c0-1.4-0.6-2.9-0.4-4.3c0.2-1.4,1.2-2.7,1.6-4c0.4-1.4,0.2-3,0.8-4.3
				c0.6-1.3,1.9-2.2,2.7-3.4c0.8-1.2,1-2.8,2-3.9c0.9-1.1,2.5-1.6,3.6-2.5c1.1-0.9,1.8-2.4,3-3.2c1.2-0.8,2.8-0.8,4.1-1.4
				c1.3-0.6,2.4-1.8,3.7-2.2c1.4-0.4,2.9,0,4.3-0.2c1.4-0.2,2.8-1,4.2-1"/>
		</g>
		<g>
			<path class="st2" d="M58.5,20.1c1.4,0,2.8,0.8,4.2,1s3-0.2,4.3,0.2c1.4,0.4,2.5,1.6,3.7,2.2c1.3,0.6,2.9,0.6,4.1,1.4
				s1.9,2.2,3,3.2c1.1,0.9,2.6,1.4,3.6,2.5c0.9,1.1,1.2,2.7,2,3.9s2.1,2.1,2.7,3.4c0.6,1.3,0.4,2.9,0.8,4.3c0.4,1.4,1.4,2.6,1.6,4
				s-0.4,2.9-0.4,4.3c0,1.4,0.6,2.9,0.4,4.3c-0.2,1.4-1.2,2.7-1.6,4c-0.4,1.4-0.2,3-0.8,4.3c-0.6,1.3-1.9,2.2-2.7,3.4
				c-0.8,1.2-1,2.8-2,3.9c-0.9,1.1-2.5,1.6-3.6,2.5s-1.8,2.4-3,3.2c-1.2,0.8-2.8,0.8-4.1,1.4c-1.3,0.6-2.4,1.8-3.7,2.2
				c-1.4,0.4-2.9,0-4.3,0.2c-1.4,0.2-2.8,1-4.2,1"/>
		</g>
	</g>
	<path class="st3" d="M59.5,78.3c0,4.9-4,4.9-4,9.7c0,4.9,4,4.9,4,9.7c0,4.9-4,4.9-4,9.7c0,4.9,4,4.9,4,9.7c0,4.9-4,4.9-4,9.8
		c0,4.9,4,4.9,4,9.7c0,4.9-4,4.9-4,9.8"/>
	<path class="st3" d="M55.5,78.3c0,4.9,4,4.9,4,9.7c0,4.9-4,4.9-4,9.7c0,4.9,4,4.9,4,9.7c0,4.9-4,4.9-4,9.7c0,4.9,4,4.9,4,9.8
		c0,4.9-4,4.9-4,9.7c0,4.9,4,4.9,4,9.8"/>
	<g>
		<path class="st2" d="M44.1,153.8l1.2-4.3c0.1,0,0.1,0,0.2,0c0.1,0,0.2,0,0.2,0l0,0l-1.4,4.7c-0.1,0-0.3,0-0.4,0
			c-0.1,0-0.2,0-0.3-0.1c-0.1,0-0.1-0.1-0.1-0.2l-1.4-4.5c0.1-0.1,0.2-0.1,0.3-0.1c0.1,0,0.2,0.1,0.3,0.3l0.8,2.8
			C43.8,152.8,44,153.2,44.1,153.8L44.1,153.8z"/>
		<path class="st2" d="M48.8,154.1c-0.1,0.1-0.1,0.2-0.2,0.3c-0.2-0.1-0.4-0.2-0.4-0.5c-0.4,0.4-0.7,0.5-1.1,0.5
			c-0.2,0-0.3,0-0.5-0.1c-0.1-0.1-0.2-0.1-0.3-0.2c-0.1-0.1-0.2-0.2-0.2-0.3s-0.1-0.2-0.1-0.4s0-0.4,0.1-0.5s0.1-0.3,0.3-0.4
			c0.1-0.1,0.2-0.2,0.4-0.2c0.1,0,0.3-0.1,0.5-0.1c0.4,0,0.6,0,0.9,0.1V152c0-0.5-0.2-0.7-0.6-0.7c-0.3,0-0.7,0.1-1.1,0.3
			c-0.1-0.1-0.2-0.2-0.2-0.4c0.5-0.2,1-0.3,1.4-0.3c0.7,0,1.1,0.4,1.1,1.2v1.4c0,0.2,0,0.3,0,0.4C48.7,154,48.7,154,48.8,154.1z
			 M48.1,153.4v-0.7c-0.1,0-0.2,0-0.3,0s-0.2,0-0.4,0c-0.3,0-0.5,0.1-0.6,0.2c-0.1,0.1-0.2,0.3-0.2,0.5s0,0.4,0.1,0.5
			s0.2,0.2,0.4,0.2s0.3,0,0.5-0.1C47.8,153.7,48,153.6,48.1,153.4z"/>
		<path class="st2" d="M51.8,151.2c0.1-0.2,0.2-0.3,0.4-0.3c0.1,0.1,0.2,0.2,0.2,0.3c-0.1,0.1-0.2,0.4-0.2,0.7v2.2
			c0,0.3,0,0.6-0.1,0.8s-0.1,0.4-0.3,0.6c-0.1,0.1-0.3,0.2-0.4,0.3c-0.2,0.1-0.4,0.1-0.6,0.1c-0.4,0-0.8-0.1-1.2-0.2
			c0-0.2,0.1-0.3,0.1-0.4c0.3,0.1,0.6,0.2,1,0.2c0.2,0,0.3,0,0.5-0.1c0.1-0.1,0.2-0.1,0.3-0.2c0.1-0.1,0.1-0.2,0.2-0.4
			c0-0.1,0-0.3,0-0.5v-0.4c-0.3,0.3-0.6,0.5-1,0.5s-0.7-0.2-0.9-0.5s-0.3-0.8-0.3-1.3c0-0.3,0-0.5,0.1-0.8c0.1-0.2,0.2-0.4,0.3-0.6
			c0.1-0.2,0.3-0.3,0.4-0.3c0.2-0.1,0.3-0.1,0.5-0.1C51.2,150.8,51.5,150.9,51.8,151.2z M51.7,153.4v-1.8c-0.1-0.1-0.3-0.2-0.4-0.3
			c-0.1-0.1-0.3-0.1-0.4-0.1c-0.3,0-0.5,0.1-0.6,0.3c-0.2,0.2-0.2,0.6-0.2,1c0,0.5,0.1,0.8,0.2,1c0.1,0.2,0.3,0.3,0.5,0.3
			s0.4,0,0.5-0.1C51.4,153.7,51.6,153.6,51.7,153.4z"/>
		<path class="st2" d="M53.4,153.3v-1.7c0-0.2,0-0.4-0.1-0.6c0.1-0.1,0.2-0.1,0.3-0.1c0.2,0,0.3,0.1,0.3,0.3v1.9
			c0,0.3,0,0.5,0.1,0.6s0.2,0.2,0.4,0.2s0.4-0.1,0.6-0.2c0.2-0.1,0.4-0.2,0.5-0.4v-2.5h0.1h0.1c0.1,0,0.1,0,0.1,0h0.1v2.5
			c0,0.4,0.1,0.6,0.2,0.7c0,0.1-0.1,0.2-0.2,0.3c-0.2-0.1-0.4-0.2-0.4-0.5c-0.2,0.2-0.3,0.3-0.6,0.4c-0.2,0.1-0.4,0.1-0.7,0.1
			s-0.5-0.1-0.7-0.3C53.5,153.9,53.4,153.6,53.4,153.3z"/>
		<path class="st2" d="M56.9,154.1c0-0.1,0.1-0.3,0.2-0.4c0.2,0.1,0.4,0.2,0.6,0.3c0.2,0,0.3,0.1,0.5,0.1c0.1,0,0.2,0,0.3,0
			s0.2-0.1,0.2-0.1c0.1,0,0.1-0.1,0.1-0.2c0-0.1,0.1-0.1,0.1-0.2c0-0.1,0-0.3-0.1-0.4c-0.1-0.1-0.2-0.2-0.4-0.2l-0.4-0.2
			c-0.3-0.1-0.5-0.3-0.7-0.4c-0.2-0.2-0.2-0.3-0.2-0.6c0-0.1,0-0.3,0.1-0.4c0.1-0.1,0.1-0.2,0.3-0.3c0.1-0.1,0.2-0.1,0.4-0.2
			c0.1,0,0.3-0.1,0.5-0.1c0.3,0,0.7,0.1,1,0.2c0,0.2-0.1,0.3-0.2,0.4c-0.2-0.1-0.3-0.1-0.5-0.2c-0.1,0-0.3,0-0.4,0
			c-0.2,0-0.4,0-0.5,0.1s-0.2,0.2-0.2,0.3s0,0.2,0.1,0.3s0.2,0.2,0.4,0.2l0.4,0.2c0.6,0.2,0.9,0.6,0.9,1c0,0.3-0.1,0.6-0.4,0.7
			c-0.2,0.2-0.6,0.3-1,0.3C57.7,154.4,57.3,154.3,56.9,154.1z"/>
		<path class="st2" d="M62.9,151.9v1.7c0,0.3,0,0.5,0.1,0.6c-0.1,0.1-0.2,0.1-0.3,0.1c-0.2,0-0.3-0.1-0.3-0.3v-1.9
			c0-0.3,0-0.5-0.1-0.6s-0.2-0.2-0.4-0.2s-0.4,0.1-0.6,0.2c-0.2,0.1-0.4,0.2-0.5,0.4v2.5c-0.1,0-0.2,0-0.3,0s-0.2,0-0.3,0V151l0,0
			h0.2c0.1,0,0.2,0,0.2,0.1s0.1,0.2,0.1,0.3v0.1c0.2-0.1,0.3-0.3,0.6-0.4c0.2-0.1,0.4-0.1,0.6-0.1c0.3,0,0.5,0.1,0.7,0.3
			C62.8,151.3,62.9,151.6,62.9,151.9z"/>
		<path class="st2" d="M66.6,152.8h-2.2c0,0.8,0.3,1.2,0.9,1.2c0.3,0,0.7-0.1,1-0.3c0.1,0.1,0.2,0.2,0.2,0.4
			c-0.4,0.3-0.8,0.4-1.3,0.4c-0.2,0-0.5,0-0.6-0.1c-0.2-0.1-0.3-0.2-0.4-0.4s-0.2-0.4-0.2-0.6c-0.1-0.2-0.1-0.5-0.1-0.7
			c0-0.3,0-0.5,0.1-0.7c0.1-0.2,0.2-0.4,0.3-0.6c0.1-0.2,0.3-0.3,0.4-0.4c0.2-0.1,0.4-0.1,0.6-0.1s0.4,0,0.6,0.1s0.3,0.2,0.4,0.3
			c0.1,0.1,0.2,0.3,0.3,0.5s0.1,0.4,0.1,0.6c0,0.1,0,0.2,0,0.2C66.6,152.6,66.6,152.7,66.6,152.8z M64.4,152.4h1.7v-0.1
			c0-0.3-0.1-0.6-0.2-0.8c-0.1-0.2-0.3-0.3-0.6-0.3c-0.3,0-0.5,0.1-0.6,0.3C64.5,151.7,64.4,152,64.4,152.4z"/>
		<path class="st2" d="M67.4,151.1c0-0.1,0.1-0.2,0.2-0.3c0.3,0.1,0.4,0.3,0.5,0.6c0.2-0.4,0.5-0.6,0.9-0.6c0.1,0,0.2,0,0.3,0
			c0,0.2,0,0.4-0.1,0.5c-0.1,0-0.1,0-0.2,0c-0.4,0-0.7,0.2-0.9,0.6v2.3c-0.1,0-0.2,0-0.3,0s-0.2,0-0.3,0v-2.5
			C67.7,151.5,67.6,151.3,67.4,151.1z"/>
		<path class="st2" d="M71.3,153.9l0.9-3c0.1,0,0.1,0,0.2,0c0.1,0,0.2,0,0.3,0l0,0c-0.4,1.3-0.8,2.5-1.1,3.4c-0.1,0-0.2,0-0.3,0
			s-0.2,0-0.3-0.1c0,0-0.1-0.1-0.2-0.3l-1-3.1c0.1-0.1,0.2-0.1,0.3-0.1s0.2,0.1,0.3,0.2l0.6,1.7C71,153.1,71.1,153.5,71.3,153.9
			C71.2,153.9,71.2,153.9,71.3,153.9z"/>
	</g>
	<circle class="st4" cx="45" cy="38.6" r="7.9"/>
	<g>
		<path class="st5" d="M46.2,39.9h-0.6h-1.2h-0.6l-0.5,1.6c-0.1,0-0.2,0-0.3,0s-0.2,0-0.4,0l0,0l2.1-6.1c0.1,0,0.2,0,0.4,0
			s0.3,0,0.4,0l2.1,6.1c-0.1,0.1-0.2,0.1-0.4,0.1c-0.1,0-0.2,0-0.3-0.1c-0.1,0-0.1-0.1-0.2-0.3L46.2,39.9z M44,39.3h0.5h1
			c0,0,0.1,0,0.2,0c0.1,0,0.2,0,0.3,0l-0.6-1.7c-0.2-0.7-0.4-1.2-0.5-1.5l0,0c-0.1,0.4-0.2,0.8-0.3,1.1L44,39.3z"/>
	</g>
	<circle class="st4" cx="45" cy="62.8" r="7.9"/>
	<g>
		<path class="st5" d="M46.5,62.2v-0.7v-2c0.1,0,0.2,0,0.3,0s0.3,0,0.4,0v6.1c-0.1,0-0.2,0-0.4,0c-0.1,0-0.2,0-0.3,0v-2.2v-0.7H46
			h-1.8h-0.5v0.7v2.2c-0.1,0-0.2,0-0.3,0c-0.1,0-0.3,0-0.3,0v-6.1c0.1,0,0.2,0,0.3,0s0.3,0,0.3,0v2v0.7h0.5H46H46.5z"/>
	</g>
	<line class="st4" x1="45" y1="46.5" x2="45" y2="55"/>
	<line class="st4" x1="43.2" y1="46.3" x2="43.2" y2="55.1"/>
	<line class="st4" x1="41.5" y1="45.7" x2="41.5" y2="55.8"/>
	<line class="st4" x1="48.5" y1="45.7" x2="48.5" y2="55.8"/>
	<line class="st4" x1="46.8" y1="46.3" x2="46.8" y2="55.1"/>
	<circle class="st4" cx="69.8" cy="38.6" r="7.9"/>
	<g>
		<path class="st5" d="M71.3,37.3c0-0.2,0-0.4-0.1-0.5c-0.1-0.2-0.1-0.3-0.3-0.5c-0.1-0.1-0.3-0.3-0.5-0.3c-0.2-0.1-0.4-0.1-0.7-0.1
			c-0.5,0-0.9,0.2-1.2,0.7c-0.3,0.5-0.4,1.1-0.4,1.9c0,0.8,0.1,1.5,0.4,1.9s0.7,0.7,1.2,0.7s1.1-0.2,1.6-0.7
			c0.2,0.1,0.3,0.3,0.4,0.4c-0.3,0.3-0.6,0.5-0.9,0.6c-0.4,0.2-0.8,0.2-1.2,0.2s-0.7-0.1-1-0.2c-0.3-0.2-0.5-0.4-0.7-0.7
			c-0.2-0.3-0.3-0.6-0.4-1s-0.1-0.8-0.1-1.2c0-0.5,0.1-1,0.2-1.4s0.3-0.7,0.5-1c0.2-0.3,0.5-0.5,0.7-0.6c0.3-0.1,0.6-0.2,0.9-0.2
			c0.3,0,0.6,0,0.9,0.1c0.3,0.1,0.5,0.2,0.7,0.4c0.2,0.2,0.3,0.3,0.4,0.5s0.2,0.4,0.2,0.6c0,0.3-0.1,0.4-0.4,0.4
			C71.5,37.3,71.4,37.3,71.3,37.3z"/>
	</g>
	<circle class="st4" cx="69.8" cy="62.8" r="7.9"/>
	<g>
		<path class="st5" d="M65.4,65.7L65.4,65.7l-0.1-6.1l0.1-0.1h1.8c0.7,0,1.1,0.1,1.4,0.4c0.3,0.3,0.5,0.7,0.5,1.2
			c0,0.3-0.1,0.6-0.2,0.8c-0.2,0.2-0.4,0.4-0.6,0.5c0.2,0,0.3,0.1,0.5,0.2c0.1,0.1,0.3,0.2,0.4,0.4c0.1,0.1,0.2,0.3,0.3,0.5
			s0.1,0.4,0.1,0.6c0,0.2,0,0.4-0.1,0.6S69,65,68.8,65.2c-0.2,0.2-0.4,0.3-0.6,0.4c-0.3,0.1-0.6,0.1-0.9,0.1H65.4z M66,60.1v2.1h1.1
			c0.2,0,0.4,0,0.6-0.1c0.2-0.1,0.3-0.1,0.4-0.2c0.1-0.1,0.2-0.2,0.2-0.3s0.1-0.3,0.1-0.4c0-0.7-0.4-1-1.2-1c-0.3,0-0.5,0-0.7,0
			C66.2,60.1,66.1,60.1,66,60.1z M66,65.1h1.3c0.3,0,0.5,0,0.6-0.1c0.2-0.1,0.3-0.2,0.4-0.3c0.1-0.1,0.2-0.2,0.2-0.4
			c0-0.1,0.1-0.3,0.1-0.5c0-0.1,0-0.3-0.1-0.4c0-0.1-0.1-0.3-0.2-0.4c-0.1-0.1-0.3-0.2-0.4-0.3c-0.2-0.1-0.4-0.1-0.7-0.1H66V65.1z"
			/>
		<path class="st5" d="M74.1,61.5c0-0.2,0-0.4-0.1-0.5c-0.1-0.2-0.1-0.3-0.3-0.5c-0.1-0.1-0.3-0.3-0.5-0.3C73.1,60,72.9,60,72.6,60
			c-0.5,0-0.9,0.2-1.2,0.7c-0.3,0.5-0.4,1.1-0.4,1.9c0,0.8,0.1,1.5,0.4,1.9c0.3,0.4,0.7,0.7,1.2,0.7s1.1-0.2,1.6-0.7
			c0.2,0.1,0.3,0.3,0.4,0.4c-0.3,0.3-0.6,0.5-0.9,0.6c-0.4,0.2-0.8,0.2-1.2,0.2s-0.7-0.1-1-0.2c-0.3-0.2-0.5-0.4-0.7-0.7
			c-0.2-0.3-0.3-0.6-0.4-1c-0.1-0.4-0.1-0.8-0.1-1.2c0-0.5,0.1-1,0.2-1.4c0.1-0.4,0.3-0.7,0.5-1c0.2-0.3,0.5-0.5,0.7-0.6
			c0.3-0.1,0.6-0.2,0.9-0.2s0.6,0,0.9,0.1s0.5,0.2,0.7,0.4c0.2,0.2,0.3,0.3,0.4,0.5c0.1,0.2,0.2,0.4,0.2,0.6c0,0.3-0.1,0.4-0.4,0.4
			C74.3,61.5,74.2,61.5,74.1,61.5z"/>
	</g>
	<line class="st4" x1="53.8" y1="62.8" x2="61" y2="62.8"/>
	<polyline class="st4" points="54.8,61.7 53.7,62.8 54.8,63.9 	"/>
	<line class="st4" x1="69.8" y1="47.7" x2="69.8" y2="55"/>
	<polyline class="st4" points="70.9,48.7 69.8,47.7 68.7,48.7 	"/>
	<polyline class="st4" points="60,61.7 61,62.8 60,63.9 	"/>
	<path class="st2" d="M56,70.8c0,0,1.6-0.4,2.8,0s-0.4,10-0.4,10h-2L56,70.8z"/>
	<path class="st4" d="M65.3,79.7c0.1-0.4,0.1-0.8,0.1-1.2c0-4.3-3.5-7.9-7.9-7.9s-7.9,3.5-7.9,7.9c0,0.4,0,0.8,0.1,1.1"/>
	<g>
		<path class="st5" d="M53.2,74.2h1.2c0.4,0,0.7,0.1,0.9,0.3c0.2,0.2,0.3,0.5,0.3,0.9c0,0.3-0.1,0.5-0.2,0.7
			c-0.1,0.2-0.3,0.3-0.6,0.4c0.2,0.1,0.3,0.2,0.4,0.5l0.3,0.8c0,0.1,0.1,0.2,0.1,0.3c0,0.1,0.1,0.1,0.1,0.1
			c-0.1,0.1-0.2,0.1-0.3,0.1s-0.1,0-0.2-0.1c0,0-0.1-0.1-0.1-0.2l-0.2-1c-0.1-0.2-0.1-0.3-0.2-0.4c-0.1-0.1-0.2-0.1-0.4-0.1h-0.6
			v1.7c-0.1,0-0.1,0-0.2,0c-0.1,0-0.2,0-0.2,0L53.2,74.2L53.2,74.2z M53.6,74.5v1.6c0.1,0,0.2,0,0.3,0s0.3,0,0.4,0
			c0.2,0,0.3,0,0.4-0.1c0.1,0,0.2-0.1,0.3-0.2s0.1-0.2,0.1-0.2c0-0.1,0-0.2,0-0.3c0-0.1,0-0.2,0-0.3c0-0.1-0.1-0.2-0.1-0.2
			c-0.1-0.1-0.2-0.1-0.3-0.2c-0.1,0-0.2-0.1-0.4-0.1s-0.3,0-0.4,0C53.8,74.5,53.7,74.5,53.6,74.5z"/>
		<path class="st5" d="M57,77.6v0.2c0.1,0,0.3,0,0.4,0H59c0,0.1,0,0.1,0,0.2s-0.1,0.2-0.3,0.2h-1.8c-0.1,0-0.1,0-0.2-0.1
			c0-0.1-0.1-0.1-0.1-0.2v-3.7l0,0h2.2c0,0,0,0.1,0,0.2s0,0.1,0,0.2H57V75v1h0.3h1.2c0,0.1,0,0.1,0,0.2s0,0.1,0,0.2h-1.2
			c-0.1,0-0.3,0-0.3,0V77.6z"/>
		<path class="st5" d="M59.9,74.2H61c0.2,0,0.4,0,0.5,0.1c0.2,0.1,0.3,0.1,0.4,0.2c0.1,0.1,0.2,0.2,0.3,0.4c0.1,0.2,0.1,0.3,0.1,0.5
			c0,0.4-0.1,0.7-0.3,0.9c-0.2,0.2-0.5,0.3-0.9,0.3h-0.7v1.5c-0.1,0-0.1,0-0.2,0c-0.1,0-0.2,0-0.2,0L59.9,74.2L59.9,74.2z
			 M60.3,74.5v1.8c0.1,0,0.2,0,0.3,0s0.3,0,0.4,0c0.1,0,0.3,0,0.4-0.1c0.1,0,0.2-0.1,0.2-0.2c0.1-0.1,0.1-0.2,0.1-0.3
			c0-0.1,0-0.2,0-0.3c0-0.1,0-0.2,0-0.3c0-0.1-0.1-0.2-0.1-0.3c-0.1-0.1-0.1-0.1-0.3-0.2c-0.1,0-0.2-0.1-0.4-0.1s-0.3,0-0.4,0
			C60.5,74.5,60.4,74.5,60.3,74.5z"/>
	</g>
</g>
</svg>
