<?xml version="1.0" encoding="utf-8"?>
<!-- Generator: Adobe Illustrator 22.0.0, SVG Export Plug-In . SVG Version: 6.00 Build 0)  -->
<svg version="1.1" id="Layer_1" xmlns="http://www.w3.org/2000/svg" xmlns:xlink="http://www.w3.org/1999/xlink" x="0px" y="0px"
	 viewBox="0 0 544.5 857.1" style="enable-background:new 0 0 544.5 857.1;" xml:space="preserve">
<style type="text/css">
	.st0{fill:#EFEBEA;}
	.st1{opacity:0.2;fill:#009632;enable-background:new    ;}
	.st2{fill:#009632;}
	.st3{fill:none;stroke:#009632;stroke-width:4;stroke-miterlimit:10;}
	.st4{fill:none;stroke:#FFFFFF;stroke-width:2;stroke-linecap:round;stroke-miterlimit:10;}
	.st5{fill:#FFFFFF;}
</style>
<path class="st0" d="M511.5,779.8c-37.3-18.9-65.2-36.3-91-47.9c-25.8-11.6-28.4-86.8-27.3-132c21.6-13.1,36.8-27.9,45.2-40.5
	c12.6-19.5,22.1-74.7,27.3-124.6c4.7,0.5,11,0,20.5-4.7c23.1-11.6,31-78.9,15.2-108.8c-1.6-2.6-3.2-5.3-4.7-6.8
	c8.9-67.8,16.8-180.4-16.8-230.8C430.5,7.9,320.6,4.7,283.3,1.6c-49.4-4.3-137.8-3.7-159.9,52c-104.1,10-91,172.5-76.8,260.3
	c-1.6,1.6-2.6,3.7-4.2,6.3C26.6,350.7,34,417.5,57.6,429c10.5,5.3,17.9,5.8,22.6,4.7c4.7,50.5,14.2,105.7,27.3,125.1
	c8.4,12.6,23.1,27.3,44.2,40c1.6,45.2-1.1,120.9-26.8,133c-26.3,11.6-54.2,28.9-92,47.9c67.3,48.4,149.9,77.3,239.2,77.3
	S444.2,828.2,511.5,779.8z"/>
<circle class="st1" cx="272.2" cy="266" r="194.6"/>
<g>
	<g>
		<path class="st2" d="M267,424.8c-7.4,0-14.7-4.2-22.1-5.3c-7.4-1.1-15.8,1.1-22.6-1.1c-7.4-2.1-13.1-8.4-19.5-11.6
			c-6.8-3.2-15.2-3.2-21.6-7.4s-10-11.6-15.8-16.8c-5.8-4.7-13.7-7.4-18.9-13.1c-4.7-5.8-6.3-14.2-10.5-20.5
			c-4.2-6.3-11-11-14.2-17.9c-3.2-6.8-2.1-15.2-4.2-22.6s-7.4-13.7-8.4-21c-1.1-7.4,2.1-15.2,2.1-22.6s-3.2-15.2-2.1-22.6
			c1.1-7.4,6.3-14.2,8.4-21c2.1-7.4,1.1-15.8,4.2-22.6c3.2-6.8,10-11.6,14.2-17.9c4.2-6.3,5.3-14.7,10.5-20.5
			c4.7-5.8,13.1-8.4,18.9-13.1s9.5-12.6,15.8-16.8s14.7-4.2,21.6-7.4s12.6-9.5,19.5-11.6c7.4-2.1,15.2,0,22.6-1.1
			c7.4-1.1,14.7-5.3,22.1-5.3"/>
	</g>
	<g>
		<path class="st2" d="M277.5,105.7c7.4,0,14.7,4.2,22.1,5.3s15.8-1.1,22.6,1.1c7.4,2.1,13.1,8.4,19.5,11.6
			c6.8,3.2,15.2,3.2,21.6,7.4c6.3,4.2,10,11.6,15.8,16.8c5.8,4.7,13.7,7.4,18.9,13.1c4.7,5.8,6.3,14.2,10.5,20.5s11,11,14.2,17.9
			c3.2,6.8,2.1,15.2,4.2,22.6c2.1,7.4,7.4,13.7,8.4,21c1.1,7.4-2.1,15.2-2.1,22.6s3.2,15.2,2.1,22.6s-6.3,14.2-8.4,21
			c-2.1,7.4-1.1,15.8-4.2,22.6c-3.2,6.8-10,11.6-14.2,17.9s-5.3,14.7-10.5,20.5c-4.7,5.8-13.1,8.4-18.9,13.1s-9.5,12.6-15.8,16.8
			c-6.3,4.2-14.7,4.2-21.6,7.4c-6.8,3.2-12.6,9.5-19.5,11.6c-7.4,2.1-15.2,0-22.6,1.1s-14.7,5.3-22.1,5.3"/>
	</g>
</g>
<path class="st3" d="M282.8,411.7c0,25.8-21,25.8-21,51c0,25.8,21,25.8,21,51c0,25.8-21,25.8-21,51c0,25.8,21,25.8,21,51
	c0,25.8-21,25.8-21,51.5c0,25.8,21,25.8,21,51c0,25.8-21,25.8-21,51.5"/>
<path class="st3" d="M261.7,411.7c0,25.8,21,25.8,21,51c0,25.8-21,25.8-21,51c0,25.8,21,25.8,21,51c0,25.8-21,25.8-21,51
	c0,25.8,21,25.8,21,51.5c0,25.8-21,25.8-21,51c0,25.8,21,25.8,21,51.5"/>
<path class="st2" d="M264.4,372.3c0,0,8.4-2.1,14.7,0c6.3,2.1-2.1,52.6-2.1,52.6h-10.5L264.4,372.3z"/>
<g>
	<path class="st2" d="M182.9,811.8l8.2-28.6c0.4-0.1,1-0.1,1.5-0.1c0.6,0,1.1,0.1,1.6,0.2l0.2,0.3l-9.6,31.8
		c-0.9,0.1-1.8,0.1-2.6,0.1s-1.3-0.1-1.7-0.4c-0.4-0.2-0.7-0.7-1-1.5l-9.1-30.1c0.8-0.4,1.6-0.6,2.3-0.6c1,0,1.7,0.6,2,1.7l5.6,18.9
		c0.5,1.7,1.2,4.3,2.2,7.8C182.6,811.7,182.7,811.8,182.9,811.8z"/>
	<path class="st2" d="M214.1,813.8c-0.3,0.9-0.9,1.5-1.6,1.8c-1.5-0.6-2.5-1.7-2.9-3.3c-2.4,2.3-4.8,3.5-7.1,3.5
		c-1.2,0-2.2-0.2-3.1-0.6c-0.9-0.4-1.6-0.9-2.2-1.5c-0.6-0.6-1-1.3-1.3-2.2c-0.3-0.8-0.4-1.7-0.4-2.6c0-1.3,0.2-2.4,0.6-3.3
		c0.4-1,1-1.7,1.7-2.4c0.7-0.6,1.6-1.1,2.6-1.4c1-0.3,2.1-0.5,3.2-0.5c2.3,0,4.3,0.1,5.7,0.4v-2.4c0-3.2-1.4-4.8-4.2-4.8
		c-2.2,0-4.7,0.7-7.6,2c-0.8-0.7-1.2-1.6-1.2-2.7c3.4-1.5,6.4-2.2,9.2-2.2c4.8,0,7.3,2.6,7.3,7.8v9.7c0,1.1,0.1,2.1,0.3,2.8
		C213.3,812.8,213.7,813.4,214.1,813.8z M209.4,809.2v-4.7c-0.7-0.1-1.5-0.2-2.3-0.3c-0.8,0-1.7-0.1-2.6-0.1c-1.8,0-3.1,0.4-4.1,1.2
		c-0.9,0.8-1.4,1.9-1.4,3.3c0,1.3,0.3,2.4,1,3.1c0.7,0.8,1.5,1.1,2.7,1.1s2.3-0.3,3.5-1C207.4,811.3,208.5,810.4,209.4,809.2z"/>
	<path class="st2" d="M234,794.2c0.4-1.1,1.3-1.9,2.5-2.3c0.8,0.4,1.3,1,1.5,1.8c-0.9,0.8-1.3,2.5-1.3,5v14.7c0,2.2-0.2,4-0.6,5.6
		c-0.4,1.5-1,2.8-1.7,3.8c-0.8,1-1.7,1.7-2.8,2.1c-1.1,0.4-2.4,0.7-3.9,0.7c-2.9,0-5.6-0.5-8.1-1.6c0-1.1,0.4-2,1-2.7
		c2.1,1,4.2,1.5,6.4,1.5c1.3,0,2.3-0.2,3.1-0.5s1.5-0.8,1.9-1.5c0.5-0.7,0.8-1.4,1-2.4c0.2-0.9,0.3-2,0.3-3.1v-2.7
		c-2,2.1-4.3,3.1-6.8,3.1s-4.5-1.1-5.9-3.2c-1.4-2.1-2.1-5.1-2.1-8.8c0-1.9,0.2-3.6,0.7-5.1s1.1-2.7,1.9-3.8c0.8-1,1.8-1.8,2.8-2.3
		c1.1-0.5,2.2-0.8,3.4-0.8C229.9,791.7,232.1,792.5,234,794.2z M233.4,809.2V797c-0.9-0.8-1.8-1.4-2.8-1.8c-0.9-0.4-1.8-0.6-2.7-0.6
		c-1.7,0-3.1,0.8-4.2,2.3c-1.1,1.5-1.6,3.8-1.6,6.9c0,3,0.5,5.3,1.4,6.7c0.9,1.5,2,2.2,3.3,2.2s2.5-0.3,3.6-1
		C231.7,811.1,232.7,810.3,233.4,809.2z"/>
	<path class="st2" d="M244.7,808.4v-11.7c0-1.7-0.2-3-0.6-4c0.5-0.5,1.3-0.8,2.2-0.8c1.2,0,1.8,0.8,1.8,2.3v13c0,2,0.3,3.3,0.8,4.1
		s1.4,1.2,2.6,1.2c1.3,0,2.5-0.3,3.9-1c1.3-0.7,2.5-1.5,3.4-2.6v-16.7c0.2-0.1,0.4-0.1,0.8-0.1c0.3,0,0.6,0,1,0c0.3,0,0.7,0,1,0
		c0.3,0,0.6,0.1,0.8,0.1v16.5c0,2.5,0.4,4.2,1.3,5c-0.3,0.9-0.8,1.5-1.6,1.8c-1.5-0.5-2.5-1.7-3-3.5c-1.1,1.1-2.3,1.9-3.8,2.6
		c-1.5,0.7-3,1-4.5,1c-2.1,0-3.6-0.7-4.6-2C245.2,812.4,244.7,810.6,244.7,808.4z"/>
	<path class="st2" d="M268.2,813.5c0-1,0.5-1.8,1.4-2.5c1.4,0.8,2.7,1.4,3.8,1.7s2.1,0.5,3,0.5c0.8,0,1.5-0.1,2-0.3
		c0.6-0.2,1.1-0.5,1.5-0.8s0.7-0.7,0.9-1.1c0.2-0.4,0.3-0.8,0.4-1.2c0-0.9-0.3-1.7-0.9-2.4c-0.6-0.6-1.4-1.2-2.6-1.6l-2.6-1
		c-2-0.8-3.5-1.7-4.5-2.7s-1.5-2.3-1.5-3.8c0-1,0.2-1.9,0.6-2.7s1-1.5,1.7-2c0.7-0.6,1.6-1,2.5-1.3c1-0.3,2-0.5,3.2-0.5
		c2.3,0,4.6,0.5,6.9,1.5c0,1.1-0.4,2-1.1,2.7c-1.2-0.5-2.3-0.9-3.3-1.1c-1-0.2-1.9-0.3-2.7-0.3c-1.4,0-2.5,0.3-3.3,1
		c-0.7,0.7-1.1,1.4-1.1,2.3c0,0.9,0.3,1.6,0.8,2.1c0.6,0.5,1.5,1,2.7,1.5l2.8,1.1c3.9,1.5,5.8,3.8,5.8,6.8c0,2.1-0.8,3.7-2.4,4.9
		c-1.6,1.2-3.8,1.7-6.5,1.7C273.3,815.9,270.7,815.1,268.2,813.5z"/>
	<path class="st2" d="M308.5,799.2v11.6c0,1.8,0.2,3.1,0.5,4c-0.5,0.5-1.2,0.8-2.2,0.8c-1.2,0-1.8-0.8-1.8-2.3v-13
		c0-1.9-0.2-3.3-0.7-4.1s-1.4-1.2-2.7-1.2c-1.3,0-2.5,0.3-3.9,1c-1.3,0.7-2.5,1.5-3.4,2.6v16.7c-0.5,0.1-1,0.1-1.7,0.1
		s-1.3,0-1.7-0.1v-22.9l0.3-0.3h1.3c0.8,0,1.3,0.2,1.5,0.6c0.2,0.4,0.4,1,0.4,1.9v0.7c1.1-1,2.3-1.8,3.8-2.4
		c1.4-0.6,2.9-0.9,4.3-0.9c2.1,0,3.6,0.7,4.6,2C308,795.3,308.5,797,308.5,799.2z"/>
	<path class="st2" d="M333,804.8h-14.5c0.2,5.3,2.2,8,6.1,8c2.1,0,4.4-0.7,6.8-2c0.7,0.6,1.1,1.4,1.3,2.4c-2.6,1.8-5.4,2.6-8.6,2.6
		c-1.6,0-3-0.3-4.2-0.9c-1.2-0.6-2.1-1.5-2.8-2.5c-0.7-1.1-1.3-2.4-1.6-3.8c-0.3-1.5-0.5-3.1-0.5-4.8c0-1.8,0.2-3.4,0.6-4.9
		s1-2.7,1.9-3.8c0.8-1.1,1.8-1.9,2.9-2.5s2.4-0.9,3.9-0.9c1.4,0,2.7,0.3,3.9,0.8c1.1,0.5,2.1,1.2,2.9,2.1c0.8,0.9,1.4,2,1.8,3.2
		s0.6,2.6,0.6,4c0,0.6,0,1.1-0.1,1.6C333.1,803.9,333.1,804.4,333,804.8z M318.5,802.2h11.2v-0.6c0-2.2-0.5-3.9-1.4-5.2
		s-2.3-2-4.1-2c-1.8,0-3.2,0.7-4.1,2.1C319.2,797.9,318.6,799.8,318.5,802.2z"/>
	<path class="st2" d="M338.8,793.9c0.2-0.8,0.7-1.5,1.5-2c1.8,0.7,2.9,2,3.4,4.2c1.3-2.8,3.4-4.1,6.3-4.1c0.7,0,1.4,0.1,2.2,0.2
		c0,1.3-0.3,2.4-0.8,3.3c-0.4,0-0.9,0-1.6,0c-2.5,0-4.4,1.4-5.7,4.3v15.6c-0.5,0.1-1,0.1-1.7,0.1s-1.3,0-1.7-0.1v-16.6
		C340.5,796.6,340,795,338.8,793.9z"/>
	<path class="st2" d="M364.4,812.3l6.3-20c0.5-0.1,1-0.2,1.4-0.2s1,0.1,1.8,0.3l0.1,0.1c-2.9,8.9-5.4,16.5-7.7,22.8
		c-0.6,0.2-1.4,0.2-2.3,0.2s-1.5-0.1-1.8-0.4c-0.3-0.3-0.7-0.9-1-1.9l-7-20.7c0.8-0.4,1.5-0.6,2.1-0.6c0.9,0,1.5,0.5,1.7,1.4
		l3.8,11.2c0.9,2.9,1.7,5.4,2.2,7.5C364.1,812.2,364.2,812.3,364.4,812.3z"/>
</g>
<circle class="st4" cx="206.1" cy="202.1" r="41.6"/>
<g>
	<path class="st5" d="M212.6,208.8h-3.3h-6.4h-3.3l-2.8,8.5c-0.4,0.1-0.9,0.1-1.5,0.1s-1.2-0.1-1.9-0.2l-0.1-0.1l10.9-32.3
		c0.5-0.1,1.3-0.1,2.1-0.1c0.9,0,1.5,0,2,0.1l10.9,32.3c-0.5,0.3-1.1,0.5-1.9,0.5c-0.8,0-1.3-0.1-1.6-0.4c-0.3-0.3-0.6-0.8-0.8-1.5
		L212.6,208.8z M200.6,205.7h2.8h5.5c0,0,0.4,0,1.2,0c0.7,0,1.3,0,1.6,0l-3-9c-1.2-3.7-2-6.4-2.4-8H206c-0.6,2.3-1.1,4.2-1.6,5.7
		L200.6,205.7z"/>
</g>
<path class="st4" d="M313.7,419.6c0.3-2,0.5-4.1,0.5-6.2c0-23-18.6-41.6-41.6-41.6S231,390.4,231,413.4c0,2,0.1,4,0.4,6"/>
<g>
	<path class="st5" d="M249.6,390.6l6.2-0.1c2.1,0,3.8,0.5,4.9,1.6c1.2,1.1,1.8,2.6,1.8,4.5c0,1.4-0.4,2.6-1.1,3.6
		c-0.7,1-1.7,1.7-3,2.1c0.8,0.3,1.5,1.1,2.1,2.5l1.6,4.2c0.2,0.6,0.5,1,0.7,1.4c0.2,0.4,0.4,0.6,0.6,0.8c-0.3,0.5-0.9,0.8-1.6,0.8
		c-0.4,0-0.8-0.1-1-0.3c-0.2-0.2-0.5-0.6-0.7-1.2l-1.8-4.7c-0.3-0.9-0.8-1.6-1.2-2.1c-0.5-0.5-1.2-0.7-2.1-0.7h-3.2v8.9
		c-0.4,0.1-0.8,0.1-1.2,0.1c-0.5,0-0.8,0-1.1-0.1V391L249.6,390.6z M251.8,392.4v8.4c0.4,0,1,0,1.6,0s1.4,0,2.2,0
		c0.9,0,1.6-0.1,2.1-0.3c0.6-0.2,1-0.5,1.4-0.9c0.3-0.4,0.6-0.8,0.7-1.3c0.1-0.5,0.2-1,0.2-1.6s-0.1-1.1-0.2-1.6
		c-0.1-0.5-0.4-0.9-0.7-1.3s-0.8-0.7-1.4-0.9c-0.6-0.2-1.3-0.3-2.2-0.3c-0.9,0-1.6,0-2.2,0C252.7,392.4,252.1,392.4,251.8,392.4z"/>
	<path class="st5" d="M270,408.4v1.2c0.7,0,1.3-0.1,1.9-0.1h8.5c0,0.4,0,0.8-0.1,1c-0.1,0.7-0.6,1.1-1.5,1.1H269
		c-0.4,0-0.7-0.1-1-0.4c-0.2-0.3-0.4-0.7-0.4-1.1v-19.3l0.2-0.2h11.9c0,0.2,0.1,0.6,0.1,1s-0.1,0.8-0.2,1.1h-9.7v1.9v5.5h1.9h6.4
		c0.1,0.4,0.1,0.7,0.1,1s0,0.6-0.1,1h-6.4c-0.8,0-1.4,0-1.9,0L270,408.4L270,408.4z"/>
	<path class="st5" d="M285.2,390.6l5.9-0.1c1,0,1.9,0.1,2.8,0.4c0.8,0.3,1.6,0.7,2.1,1.3c0.6,0.6,1,1.3,1.4,2.1
		c0.3,0.8,0.5,1.8,0.5,2.8c0,2.1-0.6,3.8-1.9,4.9c-1.2,1.2-2.9,1.7-4.9,1.7h-3.7v7.9c-0.3,0.1-0.7,0.1-1.2,0.1s-0.9,0-1.2-0.1v-20.9
		L285.2,390.6z M287.4,392.4v9.4c0.4,0,0.9,0,1.6,0c0.6,0,1.4,0,2.2,0c0.8,0,1.4-0.1,2-0.4c0.5-0.3,1-0.6,1.3-1s0.6-0.9,0.7-1.5
		s0.2-1.2,0.2-1.8c0-0.6-0.1-1.1-0.2-1.7s-0.4-1-0.7-1.5c-0.3-0.4-0.8-0.7-1.4-1s-1.3-0.4-2.1-0.4c-0.8,0-1.5,0-2.1,0
		C288.3,392.4,287.8,392.4,287.4,392.4z"/>
</g>
<circle class="st4" cx="206.1" cy="330.2" r="41.6"/>
<g>
	<path class="st5" d="M213.9,327v-3.5v-10.6c0.4-0.1,1-0.1,1.7-0.1s1.4,0,1.9,0.1v32.5c-0.5,0.1-1.2,0.1-1.9,0.1s-1.3,0-1.8-0.1
		v-11.7v-3.5h-2.9h-9.4h-2.9v3.5v11.7c-0.5,0.1-1.1,0.1-1.8,0.1s-1.3,0-1.8-0.1v-32.5c0.5-0.1,1.1-0.1,1.8-0.1s1.3,0,1.8,0.1v10.6
		v3.5h2.9h9.4H213.9z"/>
</g>
<line class="st4" x1="206.1" y1="243.7" x2="206.1" y2="288.6"/>
<line class="st4" x1="196.8" y1="242.6" x2="196.8" y2="289.6"/>
<line class="st4" x1="187.5" y1="239.3" x2="187.5" y2="292.9"/>
<line class="st4" x1="224.7" y1="239.3" x2="224.7" y2="292.9"/>
<line class="st4" x1="215.4" y1="242.6" x2="215.4" y2="289.6"/>
<circle class="st4" cx="337.3" cy="202.1" r="41.6"/>
<g>
	<path class="st5" d="M345.6,195c0-1-0.1-1.9-0.4-2.8c-0.3-0.9-0.7-1.8-1.3-2.5c-0.6-0.7-1.4-1.3-2.4-1.8c-1-0.4-2.1-0.7-3.5-0.7
		c-2.7,0-4.8,1.2-6.3,3.6c-1.5,2.4-2.2,5.8-2.2,10.2s0.8,7.8,2.3,10.2s3.7,3.6,6.5,3.6s5.7-1.3,8.6-3.8c1,0.6,1.6,1.4,2,2.4
		c-1.3,1.4-3,2.5-4.9,3.3c-2,0.8-4,1.3-6.2,1.3c-2.1,0-4-0.4-5.5-1.3c-1.5-0.9-2.8-2.1-3.7-3.6c-1-1.5-1.7-3.3-2.1-5.3
		c-0.5-2-0.7-4.2-0.7-6.5c0-2.8,0.3-5.3,1-7.4c0.6-2.1,1.5-3.9,2.6-5.3c1.1-1.4,2.4-2.5,3.9-3.2s3.1-1.1,4.8-1.1
		c1.7,0,3.3,0.3,4.7,0.8c1.4,0.5,2.6,1.2,3.6,2s1.7,1.8,2.3,2.9c0.5,1.1,0.8,2.2,0.8,3.3c0,1.4-0.7,2.1-2,2.1
		C346.7,195.3,346.2,195.2,345.6,195z"/>
</g>
<circle class="st4" cx="337.3" cy="330.2" r="41.6"/>
<g>
	<path class="st5" d="M314,345.4l-0.3-0.3v-31.9l0.3-0.3l9.3-0.1c3.5,0,6,0.8,7.6,2.3s2.4,3.6,2.4,6.3c0,1.6-0.4,2.9-1.2,4.2
		c-0.8,1.2-2,2.1-3.4,2.6c0.9,0.3,1.7,0.6,2.4,1.1c0.8,0.5,1.4,1.1,2,1.9c0.6,0.7,1,1.6,1.3,2.6s0.5,2,0.5,3.2
		c0,1.1-0.2,2.2-0.6,3.2s-1.1,2-2,2.8s-2,1.5-3.4,2s-3.1,0.7-5,0.7L314,345.4z M317.3,315.7v11.1h5.9c1.2,0,2.2-0.1,3-0.4
		s1.5-0.7,2-1.2s0.8-1.1,1-1.8c0.2-0.7,0.3-1.4,0.3-2.2c0-3.7-2-5.5-6.1-5.5c-1.4,0-2.6,0-3.6,0
		C318.7,315.7,317.9,315.7,317.3,315.7z M317.3,342.6h6.8c1.3,0,2.4-0.2,3.3-0.6s1.6-0.8,2.1-1.4s0.9-1.2,1.1-2s0.3-1.6,0.3-2.4
		c0-0.7-0.1-1.4-0.4-2.2c-0.3-0.8-0.7-1.4-1.2-2.1c-0.6-0.6-1.3-1.1-2.3-1.5c-0.9-0.4-2.1-0.6-3.5-0.6h-6.3v12.8H317.3z"/>
	<path class="st5" d="M360.3,323.2c0-1-0.1-1.9-0.4-2.8s-0.7-1.8-1.3-2.5c-0.6-0.7-1.4-1.3-2.4-1.8c-1-0.4-2.1-0.7-3.5-0.7
		c-2.7,0-4.8,1.2-6.3,3.6s-2.2,5.8-2.2,10.2c0,4.4,0.8,7.8,2.3,10.2c1.5,2.4,3.7,3.6,6.5,3.6s5.7-1.3,8.6-3.8c1,0.6,1.6,1.4,2,2.4
		c-1.3,1.4-3,2.5-4.9,3.3c-2,0.8-4,1.3-6.2,1.3c-2.1,0-4-0.4-5.5-1.3s-2.8-2.1-3.7-3.6c-1-1.5-1.7-3.3-2.1-5.3
		c-0.5-2-0.7-4.2-0.7-6.5c0-2.8,0.3-5.3,1-7.4c0.6-2.1,1.5-3.9,2.6-5.3s2.4-2.5,3.9-3.2s3.1-1.1,4.8-1.1c1.7,0,3.3,0.3,4.7,0.8
		c1.4,0.5,2.6,1.2,3.6,2s1.7,1.8,2.3,2.9c0.5,1.1,0.8,2.2,0.8,3.3c0,1.4-0.7,2.1-2,2.1C361.4,323.4,360.9,323.3,360.3,323.2z"/>
</g>
<line class="st4" x1="252.5" y1="330.2" x2="291" y2="330.2"/>
<polyline class="st4" points="257.9,324.4 252.4,330.2 257.9,336 "/>
<line class="st4" x1="337.5" y1="250.1" x2="337.5" y2="288.6"/>
<polyline class="st4" points="343.3,255.5 337.5,250 331.8,255.5 "/>
<polyline class="st4" points="285.5,324.4 291,330.2 285.5,336 "/>
</svg>
