<?xml version="1.0" encoding="utf-8"?>
<!-- Generator: Adobe Illustrator 22.0.0, SVG Export Plug-In . SVG Version: 6.00 Build 0)  -->
<svg version="1.1" id="Layer_1" xmlns="http://www.w3.org/2000/svg" xmlns:xlink="http://www.w3.org/1999/xlink" x="0px" y="0px"
	 viewBox="0 0 500 800" style="enable-background:new 0 0 500 800;" xml:space="preserve">
<style type="text/css">
	.st0{fill:#EFEBEA;}
	.st1{opacity:0.2;fill:#009632;enable-background:new    ;}
	.st2{fill:#009632;}
	.st3{fill:none;stroke:#009632;stroke-width:4.1643;stroke-miterlimit:10;}
</style>
<g>
	<path class="st0" d="M473.4,727.9c-34.8-17.6-60.9-33.9-84.9-44.7c-24.1-10.8-26.5-81-25.5-123.2c20.2-12.2,34.4-26,42.2-37.8
		c11.8-18.2,20.6-69.7,25.5-116.3c4.4,0.5,10.3,0,19.1-4.4c21.6-10.8,28.9-73.7,14.2-101.6c-1.5-2.4-3-4.9-4.4-6.3
		c8.3-63.3,15.7-168.4-15.7-215.5C397.8,7.4,295.2,4.4,260.4,1.5C214.2-2.5,131.7-2,111.1,50c-97.2,9.3-84.9,161-71.7,243
		c-1.5,1.5-2.4,3.5-3.9,5.9c-14.7,28.5-7.8,90.8,14.2,101.6c9.8,4.9,16.7,5.4,21.1,4.4C75.2,452,84,503.5,96.3,521.6
		c7.8,11.8,21.6,25.5,41.3,37.3c1.5,42.2-1,112.9-25,124.2c-24.6,10.8-50.6,27-85.9,44.7C89.4,773,166.5,800,249.9,800
		S410.6,773.1,473.4,727.9z"/>
	<circle class="st1" cx="250" cy="248.3" r="189.5"/>
	<g>
		<g>
			<path class="st2" d="M245.1,396.5c-6.9,0-13.7-3.9-20.6-4.9c-6.9-1-14.7,1-21.1-1c-6.9-2-12.2-7.8-18.2-10.8
				c-6.3-3-14.2-3-20.2-6.9c-6-3.9-9.3-10.8-14.7-15.7c-5.4-4.4-12.8-6.9-17.6-12.2c-4.4-5.4-5.9-13.3-9.8-19.1
				c-3.9-5.9-10.3-10.3-13.3-16.7c-3-6.3-2-14.2-3.9-21.1c-2-6.9-6.9-12.8-7.8-19.6c-1-6.9,2-14.2,2-21.1c0-6.9-3-14.2-2-21.1
				c1-6.9,5.9-13.3,7.8-19.6c2-6.9,1-14.7,3.9-21.1c3-6.3,9.3-10.8,13.3-16.7c3.9-5.9,4.9-13.7,9.8-19.1c4.4-5.4,12.2-7.8,17.6-12.2
				s8.9-11.8,14.7-15.7s13.7-3.9,20.2-6.9s11.8-8.9,18.2-10.8c6.9-2,14.2,0,21.1-1s13.7-4.9,20.6-4.9"/>
		</g>
		<g>
			<path class="st2" d="M254.9,98.7c6.9,0,13.7,3.9,20.6,4.9c6.9,1,14.7-1,21.1,1c6.9,2,12.2,7.8,18.2,10.8c6.3,3,14.2,3,20.2,6.9
				c5.9,3.9,9.3,10.8,14.7,15.7c5.4,4.4,12.8,6.9,17.6,12.2c4.4,5.4,5.9,13.3,9.8,19.1s10.3,10.3,13.3,16.7c3,6.3,2,14.2,3.9,21.1
				c2,6.9,6.9,12.8,7.8,19.6c1,6.9-2,14.2-2,21.1c0,6.9,3,14.2,2,21.1c-1,6.9-5.9,13.3-7.8,19.6c-2,6.9-1,14.7-3.9,21.1
				c-3,6.3-9.3,10.8-13.3,16.7c-3.9,5.9-4.9,13.7-9.8,19.1c-4.4,5.4-12.2,7.8-17.6,12.2c-5.4,4.4-8.9,11.8-14.7,15.7
				c-5.9,3.9-13.7,3.9-20.2,6.9c-6.3,3-11.8,8.9-18.2,10.8c-6.9,2-14.2,0-21.1,1s-13.7,4.9-20.6,4.9"/>
		</g>
	</g>
	<path class="st3" d="M259.9,384.3c0,30-19.6,30-19.6,59.2c0,30,19.6,30,19.6,59.2c0,30-19.6,30-19.6,59.2c0,30,19.6,30,19.6,59.2
		c0,30-19.6,30-19.6,59.8c0,30,19.6,30,19.6,59.2c0,30-19.6,30-19.6,59.8"/>
	<path class="st3" d="M240.2,384.3c0,30,19.6,30,19.6,59.2c0,30-19.6,30-19.6,59.2c0,30,19.6,30,19.6,59.2c0,30-19.6,30-19.6,59.2
		c0,30,19.6,30,19.6,59.8c0,30-19.6,30-19.6,59.2c0,30,19.6,30,19.6,59.8"/>
</g>
</svg>
