<?xml version="1.0" encoding="utf-8"?>
<!-- Generator: Adobe Illustrator 22.0.0, SVG Export Plug-In . SVG Version: 6.00 Build 0)  -->
<svg version="1.1" id="Layer_1" xmlns="http://www.w3.org/2000/svg" xmlns:xlink="http://www.w3.org/1999/xlink" x="0px" y="0px"
	 viewBox="0 0 275.2 204.2" style="enable-background:new 0 0 275.2 204.2;" xml:space="preserve">
<style type="text/css">
	.st0{fill:url(#SVGID_1_);}
	.st1{fill:url(#SVGID_2_);}
	.st2{enable-background:new    ;}
	.st3{fill:#FFC000;}
	.st4{fill:url(#SVGID_3_);}
	.st5{fill:#FF2832;}
	.st6{fill:url(#SVGID_4_);}
	.st7{fill:#009632;}
</style>
<g>
	
		<linearGradient id="SVGID_1_" gradientUnits="userSpaceOnUse" x1="173.0002" y1="745.6444" x2="173.0002" y2="580.5294" gradientTransform="matrix(1 0 0 1 0 -580.5)">
		<stop  offset="0" style="stop-color:#FFC000;stop-opacity:0.3"/>
		<stop  offset="1" style="stop-color:#FFC000"/>
	</linearGradient>
	<path class="st0" d="M201.4,90.3c-0.1-1.6-0.8-5.1-0.8-5.1l-0.2-1.4l0,0c0,0-0.7-8.4-0.9-12c-0.3-3.6-1.8-7.8-2.5-10.4
		s1.5-8.3-0.5-15.3c-1.2-4.4,0-8.5-2.3-11.6c-2.6-3.3-5.4-3-6.5-3.1l0,0c-1.4-0.3-2.9-0.5-3.9-0.9c-2.3-1-3.8-2-5.2-2.7
		c-1-0.4-1-3.3-1-5c0.8-0.5,1.4-1,1.7-1.5c0.5-0.7,0.8-2.8,1-4.8c0.2,0.1,0.4,0,0.8-0.2c0.9-0.4,1.2-3,0.6-4.1
		c-0.1-0.1-0.1-0.2-0.2-0.3c0.3-2.5,0.7-6.8-0.7-8.7c-1.8-2.8-6.1-2.9-7.4-3.1c-1.8-0.2-5.2-0.1-6.1,2c-3.9,0.4-3.5,6.5-2.9,9.8
		c-0.1,0.1-0.1,0.1-0.1,0.3c-0.6,1.2-0.3,3.7,0.6,4.1c0.4,0.2,0.7,0.3,0.8,0.2c0.2,1.9,0.6,4,1,4.8c0.3,0.5,0.9,1,1.7,1.5
		c0.1,1.7-0.1,4.6-1,5c-1.4,0.6-2.8,1.6-5.2,2.7c-1,0.4-2.5,0.7-3.9,0.9c-1.2,0.1-4-0.2-6.5,3.1c-2.3,3.1-1.2,7.2-2.3,11.6
		c-2,7.1,0.3,12.7-0.5,15.3c-0.7,2.6-2.2,6.8-2.5,10.4s-0.9,12-0.9,12l0,0l-0.2,1.4c0,0-0.7,3.5-0.8,5.1c-0.1,1,0.1,2.7,0.8,4.1
		c1.2,2.5,3.8,4.3,3.8,4.3c0.3,0.4,2.3,0.6,1.2-0.8c-2.1-2.7-2.3-4.6-2.3-4.6s-0.3-2.2,0.4-2.2c0.5-0.1,1,1.1,1.2,1.7
		c0.4,1,0.5,2.7,1.2,2.3c0.3-0.1,0.2-0.5,0.1-1.1c0-0.3,0.1-0.9,0.1-1.2c-0.1-0.3-0.4-1.8-0.6-2.2c-0.1-0.5-0.7-2.2-0.9-2.7
		s-0.4-1.4-0.3-2.2c0.1-0.7,1.2-4.8,1.8-6.1c0.4-0.9,4.5-6.5,5.2-17.5c0.2-2.6,0.8-6.3,1.2-9.8c0.3,1.6,0.6,3.2,0.7,4.4
		c0.1,3.7,1.2,8.9,0.9,11.7c-0.7,6.3-2.3,6.1-2.3,16.5c0,6.8-0.3,19.6,3.3,34.8c0.5,2.2,0.1,5.3-0.3,7.6c-0.5,4.3,0.7,10,3.3,23
		c2.5,12.5-5.2,11-3.8,14c0.6,1.2,7.6,0.8,9.8,0.7c0.7-0.1,1.2-0.6,1.2-1.2c0.1-0.7-0.3-1.4-0.9-3.3c-0.7-2.2-0.4-5.5-0.4-5.5
		s1.4-20.2,1.4-23.1c0-3.3-0.3-5.4-0.5-6.7c-0.2-1.1-0.3-2.2,0-3.3c2-9.1,2-32.3,2-32.3h2.2c0,0,0.1,23.2,2,32.3
		c0.3,1.1,0.2,2.2,0,3.3c-0.3,1.3-0.5,3.5-0.5,6.7c0,2.9,1.4,23.1,1.4,23.1s0.3,3.3-0.4,5.5c-0.6,1.9-0.9,2.7-0.9,3.3
		c0.1,0.7,0.6,1.2,1.2,1.2c2.2,0.1,9.2,0.5,9.8-0.7c1.3-2.9-6.4-1.5-3.8-14c2.7-13,3.8-18.6,3.3-23c-0.3-2.3-0.7-5.3-0.3-7.6
		c3.5-15.1,3.3-27.9,3.3-34.8c0-10.4-1.6-10.2-2.3-16.5c-0.3-2.7,0.8-8,0.9-11.7c0.1-1.2,0.3-2.8,0.7-4.4c0.4,3.5,1,7.2,1.2,9.8
		c0.7,11,5.1,16.9,5.5,17.7c0.4,1,1.6,5.1,1.6,5.9c0,0.7-0.1,1.6-0.3,2.2c-0.1,0.5-0.8,2.2-0.9,2.7c-0.1,0.5-0.5,1.9-0.6,2.2
		s0.1,0.9,0.1,1.2c-0.1,0.7-0.1,1,0.1,1.1c0.7,0.3,0.9-1.3,1.2-2.3c0.2-0.6,0.7-1.7,1.2-1.7c0.6,0.1,0.4,2.2,0.4,2.2
		s-0.3,1.8-2.3,4.6c-1,1.4,0.9,1.2,1.2,0.8c0,0,2.5-1.9,3.8-4.3C201.3,93,201.5,91.4,201.4,90.3z"/>
	
		<linearGradient id="SVGID_2_" gradientUnits="userSpaceOnUse" x1="108.0498" y1="745.3369" x2="108.0498" y2="580.5" gradientTransform="matrix(1 0 0 1 0 -580.5)">
		<stop  offset="0" style="stop-color:#FFC000;stop-opacity:0.3"/>
		<stop  offset="1" style="stop-color:#FFC000"/>
	</linearGradient>
	<path class="st1" d="M121.2,66.8c-1.3-2.3-1.2-6.5-0.8-9.1l1-5.7c0,0,0.8,7.7,2.2,11.7c1.8,5,4.3,13.2,5.5,19.5
		c0.2,0.6,0.3,1.1,0.4,1.5c0.2,1.1-0.2,1.7-0.3,2.2s-0.8,2.2-0.9,2.7c-0.1,0.5-0.5,1.9-0.5,2.2c-0.1,0.3,0.1,0.9,0,1.2
		c0,0.7-0.2,1,0.1,1.1c0.7,0.4,0.9-1.3,1.3-2.4c0.2-0.6,0.7-1.7,1.2-1.7c0.6,0,0.3,2.3,0.3,2.3s0.3,1.2-1.7,4
		c-1.1,1.4,0.9,1.2,1.3,0.9c0,0,2-1.3,3.2-3.8c0.9-1.1,1.2-2.8,1.1-3.9c-0.1-1.6-0.8-5.1-0.8-5.1l-0.2-1.4l0.1,0.1c0,0-0.7-8.5-1-12
		c-0.3-3.6-1.9-8.4-2.6-11c-0.7-2.7-1.1-7.8-1.2-14c-0.2-6.4-0.8-11.4-2-12.9c-1.4-1.8-4-2.3-5-2.6c-0.8-0.2-1.7-0.4-2.6-0.6
		c0,0,0,0,0-0.1c1.2-3,1.2-6.4,0.1-9.5c-0.3-0.9-0.7-1.7-0.9-2.7c-0.3-1.4-0.2-2.8-0.3-4.2c-0.1-2.5-0.3-5.7-1.5-8
		c-1-1.8-2.4-3.7-4.6-3.9c-0.5-0.1-0.7,0.1-1.2-0.2S109.5,0.3,108,0c-4.4-0.7-8.2,1.9-10,5.9c-1.4,2.9-1.4,6.2-1.4,9.5
		c0.1,1.4,0.1,2.7-0.5,3.9c-0.8,1.8-2.7,2.7-3.8,4.3c-0.9,1.2-1.2,2.9-1.2,4.4c-0.1,1,0,2,0.3,3c-0.5,0.3-1.1,0.6-1.5,0.9
		c-0.1,0.1-0.1,0.1-0.3,0.3c-0.1,0.1-0.1,0.1-0.2,0.2l-0.1,0.1C89,32.6,89,32.6,89,32.7c0,0.1-0.1,0.1-0.1,0.1
		c-0.1,0.1-0.1,0.2-0.2,0.3c-1.2,1.5-1.8,6.7-1.9,13.1c-0.1,6.3-0.4,11.4-1.1,14c-0.7,2.7-2.4,7.4-2.5,11c0,0.1,0,0.1,0,0.3v0.1
		c0,0.1,0,0.2,0,0.3V72c0,0.1,0,0.1,0,0.3v0.1c0,0.1,0,0.2,0,0.3v0.1c0,0.1,0,0.2,0,0.3v0.1c0,0.1,0,0.2,0,0.3c0,0.1,0,0.1,0,0.1
		c0,0.1,0,0.2,0,0.3c0,0.1,0,0.3,0,0.3v0.1c0,0.1,0,0.3,0,0.3c0,0.1,0,0.3,0,0.4c0,0.3,0,0.5-0.1,0.7v0.1c0,0.4-0.1,0.7-0.1,1.2
		c0,0.1,0,0.3,0,0.4c-0.2,3.3-0.5,6.4-0.5,6.4l-0.2,1.4c0,0-0.7,3.4-0.8,5.1c-0.1,1,0.2,2.7,0.9,4.1c1.3,2.5,3.2,3.7,3.2,3.7
		c0.3,0.3,2.3,0.5,1.3-0.9c-2.1-2.7-1.8-4-1.8-4s-0.3-2.2,0.3-2.3c0.5,0,1.1,1.1,1.3,1.7c0.4,1.1,0.6,2.7,1.3,2.4
		c0.3-0.1,0.1-0.5,0.1-1.1c-0.1-0.3,0.1-0.9,0-1.2c-0.1-0.3-0.4-1.8-0.5-2.2c-0.1-0.5-0.8-2.2-1-2.7s-0.3-1.4-0.3-2.2s1.3-5,1.5-5.8
		S93.1,67,93.2,62c0.1-2.5,1.1-6.3,1.2-9.9c0.5,2.5,1,5.3,1.4,6.5c0.5,1.7,0.7,5.7-0.7,8.6c-0.1,0.2-0.2,0.3-0.3,0.5
		c-0.4,0.7-0.8,1.4-1.2,2.2c-3.5,6.8-3.8,12.7-3.8,16.9c0,0.7,0.1,1.4,0.1,2.2c0-0.1,0-0.2,0-0.3c0.2,2.5,0.7,6.1,1.7,12
		c-0.1-0.4-0.1-0.6-0.1-0.6c0.8,4.8,2,11,3.5,19.8c0.4,2.2,0.5,4.5,0.3,6.8c-0.4,4.2,0.1,10.2,2.7,23.1c1,5.3,0.6,8.2-0.3,10
		c-1.2,2.5-3.2,2.9-2.5,4.6c1,1.2,6.1,0.8,8.2,0.7c0.6-0.1,1.1-0.1,1.4-0.9c0.3-0.6,0.3-1-0.8-3.5c-0.7-1.5-0.6-4-0.6-4
		s1.6-21.7,1.6-24.8c0-3-0.2-5.2-0.4-6.5c-0.3-1.4-0.3-2.7-0.1-4c0.3-2,0.5-4.8,0.7-7.8c0,0.1,0,0.2,0,0.3
		c1.2-15.6,1.5-25.7,1.5-25.7h1.8l0.1-0.1c0,0,0.6,23.5,2,33.3c0.2,1.3,0.2,2.7,0,4c-0.2,1.4-0.4,3.5-0.4,6.5
		c0,2.9,1.4,23.1,1.4,23.1s0.2,2.3-0.1,4.4c-0.1,0.1-0.1,0.3-0.1,0.4c0,0,0.1-0.3,0.1-0.6c-0.1,0.4-0.1,0.8-0.3,1.2
		c-0.6,1.9-0.9,2.7-0.9,3.3c0.1,0.7,0.6,1.2,1.2,1.2c2.2,0.1,7.8,0.6,8.4-0.7c1.4-2.9-6-2-2.9-14.7c3.1-12.8,3.5-18.9,2.9-23.1
		c-0.3-2.3-0.3-4.6,0.1-6.8c2.8-18.5,5.7-26.7,5.7-33.6C125.7,75.6,121.2,66.8,121.2,66.8z"/>
</g>
<g class="st2">
	<path class="st3" d="M105.3,189.3c0-0.2,0.1-0.4,0.3-0.5c0.3,0.2,0.6,0.3,0.8,0.4c0.2,0.1,0.5,0.1,0.6,0.1c0.2,0,0.3,0,0.4-0.1
		c0.1,0,0.2-0.1,0.3-0.2c0.1-0.1,0.2-0.1,0.2-0.2c0-0.1,0.1-0.2,0.1-0.3c0-0.2-0.1-0.4-0.2-0.5c-0.1-0.1-0.3-0.3-0.5-0.3l-0.6-0.2
		c-0.4-0.2-0.7-0.4-1-0.6c-0.2-0.2-0.3-0.5-0.3-0.8c0-0.2,0-0.4,0.1-0.6c0.1-0.2,0.2-0.3,0.4-0.4c0.2-0.1,0.3-0.2,0.5-0.3
		c0.2-0.1,0.4-0.1,0.7-0.1c0.5,0,1,0.1,1.5,0.3c0,0.2-0.1,0.4-0.2,0.6c-0.3-0.1-0.5-0.2-0.7-0.2c-0.2,0-0.4-0.1-0.6-0.1
		c-0.3,0-0.5,0.1-0.7,0.2c-0.2,0.1-0.2,0.3-0.2,0.5c0,0.2,0.1,0.3,0.2,0.5c0.1,0.1,0.3,0.2,0.6,0.3l0.6,0.2c0.8,0.3,1.2,0.8,1.2,1.5
		c0,0.4-0.2,0.8-0.5,1c-0.3,0.2-0.8,0.4-1.4,0.4C106.4,189.8,105.9,189.7,105.3,189.3z"/>
	<path class="st3" d="M113.7,187.5h-3.1c0,1.1,0.5,1.7,1.3,1.7c0.5,0,0.9-0.1,1.5-0.4c0.1,0.1,0.2,0.3,0.3,0.5
		c-0.5,0.4-1.2,0.6-1.8,0.6c-0.3,0-0.6-0.1-0.9-0.2s-0.4-0.3-0.6-0.5c-0.2-0.2-0.3-0.5-0.3-0.8s-0.1-0.7-0.1-1c0-0.4,0-0.7,0.1-1
		c0.1-0.3,0.2-0.6,0.4-0.8s0.4-0.4,0.6-0.5c0.2-0.1,0.5-0.2,0.8-0.2c0.3,0,0.6,0.1,0.8,0.2c0.2,0.1,0.4,0.3,0.6,0.5
		c0.2,0.2,0.3,0.4,0.4,0.7c0.1,0.3,0.1,0.5,0.1,0.8c0,0.1,0,0.2,0,0.3C113.7,187.3,113.7,187.4,113.7,187.5z M110.6,186.9h2.4v-0.1
		c0-0.5-0.1-0.8-0.3-1.1c-0.2-0.3-0.5-0.4-0.9-0.4c-0.4,0-0.7,0.2-0.9,0.5S110.6,186.4,110.6,186.9z"/>
	<path class="st3" d="M118.9,186.3v2.5c0,0.4,0,0.7,0.1,0.9c-0.1,0.1-0.3,0.2-0.5,0.2c-0.3,0-0.4-0.2-0.4-0.5v-2.8
		c0-0.4-0.1-0.7-0.1-0.9c-0.1-0.2-0.3-0.3-0.6-0.3c-0.3,0-0.5,0.1-0.8,0.2c-0.3,0.1-0.5,0.3-0.7,0.6v3.5c-0.1,0-0.2,0-0.4,0
		s-0.3,0-0.4,0v-4.9l0.1-0.1h0.3c0.2,0,0.3,0,0.3,0.1c0.1,0.1,0.1,0.2,0.1,0.4v0.1c0.2-0.2,0.5-0.4,0.8-0.5s0.6-0.2,0.9-0.2
		c0.4,0,0.8,0.1,1,0.4C118.8,185.4,118.9,185.8,118.9,186.3z"/>
	<path class="st3" d="M120.1,189.3c0-0.2,0.1-0.4,0.3-0.5c0.3,0.2,0.6,0.3,0.8,0.4c0.2,0.1,0.5,0.1,0.6,0.1c0.2,0,0.3,0,0.4-0.1
		c0.1,0,0.2-0.1,0.3-0.2c0.1-0.1,0.2-0.1,0.2-0.2c0-0.1,0.1-0.2,0.1-0.3c0-0.2-0.1-0.4-0.2-0.5c-0.1-0.1-0.3-0.3-0.5-0.3l-0.6-0.2
		c-0.4-0.2-0.7-0.4-1-0.6c-0.2-0.2-0.3-0.5-0.3-0.8c0-0.2,0-0.4,0.1-0.6c0.1-0.2,0.2-0.3,0.4-0.4c0.2-0.1,0.3-0.2,0.5-0.3
		c0.2-0.1,0.4-0.1,0.7-0.1c0.5,0,1,0.1,1.5,0.3c0,0.2-0.1,0.4-0.2,0.6c-0.3-0.1-0.5-0.2-0.7-0.2c-0.2,0-0.4-0.1-0.6-0.1
		c-0.3,0-0.5,0.1-0.7,0.2c-0.2,0.1-0.2,0.3-0.2,0.5c0,0.2,0.1,0.3,0.2,0.5c0.1,0.1,0.3,0.2,0.6,0.3l0.6,0.2c0.8,0.3,1.2,0.8,1.2,1.5
		c0,0.4-0.2,0.8-0.5,1c-0.3,0.2-0.8,0.4-1.4,0.4C121.2,189.8,120.7,189.7,120.1,189.3z"/>
	<path class="st3" d="M125.8,185.5v4.2c-0.1,0-0.2,0-0.4,0c-0.1,0-0.3,0-0.4,0v-3.9c0-0.2,0-0.3-0.1-0.4c-0.1-0.1-0.2-0.1-0.3-0.1
		h-0.1c0-0.1,0-0.2,0-0.3c0-0.1,0-0.2,0-0.3c0.1,0,0.2,0,0.3,0s0.1,0,0.2,0h0.1c0.2,0,0.4,0.1,0.5,0.2S125.8,185.3,125.8,185.5z
		 M124.8,183.1c0.1-0.1,0.3-0.1,0.5-0.1c0.2,0,0.3,0,0.4,0.1c0.1,0.1,0.1,0.2,0.1,0.4s0,0.3-0.1,0.4c-0.1,0.1-0.2,0.1-0.4,0.1
		c-0.2,0-0.3,0-0.4-0.1s-0.1-0.2-0.1-0.4C124.8,183.3,124.8,183.2,124.8,183.1z"/>
	<path class="st3" d="M127.5,189.5v-7l0.1-0.1h0.3c0.2,0,0.3,0,0.3,0.1c0.1,0.1,0.1,0.2,0.1,0.4v2.5c0.4-0.4,0.9-0.6,1.4-0.6
		s1,0.2,1.2,0.7c0.3,0.5,0.4,1.1,0.4,1.9c0,0.4-0.1,0.8-0.2,1.1c-0.1,0.3-0.3,0.6-0.5,0.8c-0.2,0.2-0.4,0.4-0.7,0.5
		c-0.3,0.1-0.5,0.2-0.8,0.2C128.7,189.8,128.1,189.7,127.5,189.5z M128.3,186.1v3c0.3,0.1,0.6,0.2,1,0.2c0.4,0,0.7-0.2,1-0.5
		s0.4-0.8,0.4-1.5c0-0.3,0-0.6-0.1-0.8c-0.1-0.2-0.1-0.4-0.2-0.6c-0.1-0.2-0.2-0.3-0.3-0.3c-0.1-0.1-0.2-0.1-0.4-0.1
		c-0.3,0-0.5,0.1-0.8,0.2C128.6,185.7,128.4,185.9,128.3,186.1z"/>
	<path class="st3" d="M133.9,189.1h0.4c0,0.1,0,0.1,0.1,0.2c0,0.1,0,0.1,0,0.2c0,0,0,0.1,0,0.1s0,0,0,0.1c-0.1,0-0.2,0-0.3,0.1
		s-0.2,0-0.3,0c-0.3,0-0.5-0.1-0.7-0.2c-0.2-0.1-0.3-0.3-0.3-0.7v-6.5l0.1-0.1h0.3c0.2,0,0.3,0,0.3,0.1c0.1,0.1,0.1,0.2,0.1,0.4v5.8
		C133.5,189,133.6,189.1,133.9,189.1z"/>
	<path class="st3" d="M139,187.5h-3.1c0,1.1,0.5,1.7,1.3,1.7c0.5,0,0.9-0.1,1.5-0.4c0.1,0.1,0.2,0.3,0.3,0.5
		c-0.5,0.4-1.2,0.6-1.8,0.6c-0.3,0-0.6-0.1-0.9-0.2s-0.4-0.3-0.6-0.5c-0.2-0.2-0.3-0.5-0.3-0.8s-0.1-0.7-0.1-1c0-0.4,0-0.7,0.1-1
		c0.1-0.3,0.2-0.6,0.4-0.8s0.4-0.4,0.6-0.5c0.2-0.1,0.5-0.2,0.8-0.2c0.3,0,0.6,0.1,0.8,0.2c0.2,0.1,0.4,0.3,0.6,0.5
		c0.2,0.2,0.3,0.4,0.4,0.7c0.1,0.3,0.1,0.5,0.1,0.8c0,0.1,0,0.2,0,0.3C139.1,187.3,139.1,187.4,139,187.5z M135.9,186.9h2.4v-0.1
		c0-0.5-0.1-0.8-0.3-1.1c-0.2-0.3-0.5-0.4-0.9-0.4c-0.4,0-0.7,0.2-0.9,0.5S136,186.4,135.9,186.9z"/>
	<path class="st3" d="M140.3,185.1c0-0.2,0.2-0.3,0.3-0.4c0.4,0.1,0.6,0.4,0.7,0.9c0.3-0.6,0.7-0.9,1.3-0.9c0.1,0,0.3,0,0.5,0
		c0,0.3-0.1,0.5-0.2,0.7c-0.1,0-0.2,0-0.3,0c-0.5,0-0.9,0.3-1.2,0.9v3.3c-0.1,0-0.2,0-0.4,0s-0.3,0-0.4,0v-3.5
		C140.6,185.7,140.5,185.4,140.3,185.1z"/>
	<path class="st3" d="M146.4,189.7L146.4,189.7l-0.1-6.8l0.1-0.1l2,0c0.7,0,1.3,0.2,1.6,0.5c0.3,0.3,0.5,0.8,0.5,1.3
		c0,0.3-0.1,0.6-0.3,0.9s-0.4,0.4-0.7,0.5c0.2,0.1,0.4,0.1,0.5,0.2c0.2,0.1,0.3,0.2,0.4,0.4c0.1,0.2,0.2,0.3,0.3,0.5
		c0.1,0.2,0.1,0.4,0.1,0.7c0,0.2,0,0.5-0.1,0.7c-0.1,0.2-0.2,0.4-0.4,0.6c-0.2,0.2-0.4,0.3-0.7,0.4s-0.6,0.2-1.1,0.2L146.4,189.7z
		 M147.1,183.5v2.3h1.2c0.2,0,0.5,0,0.6-0.1c0.2-0.1,0.3-0.1,0.4-0.3c0.1-0.1,0.2-0.2,0.2-0.4c0-0.1,0.1-0.3,0.1-0.5
		c0-0.8-0.4-1.2-1.3-1.2c-0.3,0-0.6,0-0.8,0S147.3,183.5,147.1,183.5z M147.1,189.1l1.4,0c0.3,0,0.5,0,0.7-0.1s0.3-0.2,0.4-0.3
		c0.1-0.1,0.2-0.3,0.2-0.4c0-0.2,0.1-0.3,0.1-0.5c0-0.1,0-0.3-0.1-0.5s-0.1-0.3-0.3-0.4c-0.1-0.1-0.3-0.2-0.5-0.3
		c-0.2-0.1-0.4-0.1-0.7-0.1h-1.3V189.1z"/>
	<path class="st3" d="M155.8,187.5h-3.1c0,1.1,0.5,1.7,1.3,1.7c0.5,0,0.9-0.1,1.5-0.4c0.1,0.1,0.2,0.3,0.3,0.5
		c-0.5,0.4-1.2,0.6-1.8,0.6c-0.3,0-0.6-0.1-0.9-0.2s-0.4-0.3-0.6-0.5c-0.2-0.2-0.3-0.5-0.3-0.8s-0.1-0.7-0.1-1c0-0.4,0-0.7,0.1-1
		c0.1-0.3,0.2-0.6,0.4-0.8s0.4-0.4,0.6-0.5s0.5-0.2,0.8-0.2c0.3,0,0.6,0.1,0.8,0.2c0.2,0.1,0.4,0.3,0.6,0.5c0.2,0.2,0.3,0.4,0.4,0.7
		c0.1,0.3,0.1,0.5,0.1,0.8c0,0.1,0,0.2,0,0.3C155.8,187.3,155.8,187.4,155.8,187.5z M152.7,186.9h2.4v-0.1c0-0.5-0.1-0.8-0.3-1.1
		c-0.2-0.3-0.5-0.4-0.9-0.4c-0.4,0-0.7,0.2-0.9,0.5S152.7,186.4,152.7,186.9z"/>
	<path class="st3" d="M157,185.1c0-0.2,0.2-0.3,0.3-0.4c0.4,0.1,0.6,0.4,0.7,0.9c0.3-0.6,0.7-0.9,1.3-0.9c0.1,0,0.3,0,0.5,0
		c0,0.3-0.1,0.5-0.2,0.7c-0.1,0-0.2,0-0.3,0c-0.5,0-0.9,0.3-1.2,0.9v3.3c-0.1,0-0.2,0-0.4,0s-0.3,0-0.4,0v-3.5
		C157.4,185.7,157.3,185.4,157,185.1z"/>
	<path class="st3" d="M164.1,187.5H161c0,1.1,0.5,1.7,1.3,1.7c0.5,0,0.9-0.1,1.5-0.4c0.1,0.1,0.2,0.3,0.3,0.5
		c-0.5,0.4-1.2,0.6-1.8,0.6c-0.3,0-0.6-0.1-0.9-0.2s-0.4-0.3-0.6-0.5c-0.2-0.2-0.3-0.5-0.3-0.8s-0.1-0.7-0.1-1c0-0.4,0-0.7,0.1-1
		c0.1-0.3,0.2-0.6,0.4-0.8s0.4-0.4,0.6-0.5s0.5-0.2,0.8-0.2c0.3,0,0.6,0.1,0.8,0.2c0.2,0.1,0.4,0.3,0.6,0.5c0.2,0.2,0.3,0.4,0.4,0.7
		c0.1,0.3,0.1,0.5,0.1,0.8c0,0.1,0,0.2,0,0.3C164.2,187.3,164.2,187.4,164.1,187.5z M161,186.9h2.4v-0.1c0-0.5-0.1-0.8-0.3-1.1
		c-0.2-0.3-0.5-0.4-0.9-0.4c-0.4,0-0.7,0.2-0.9,0.5S161.1,186.4,161,186.9z"/>
	<path class="st3" d="M166.5,185.5v4.2c-0.1,0-0.2,0-0.4,0s-0.3,0-0.4,0v-3.9c0-0.2,0-0.3-0.1-0.4c-0.1-0.1-0.2-0.1-0.3-0.1h-0.1
		c0-0.1,0-0.2,0-0.3c0-0.1,0-0.2,0-0.3c0.1,0,0.2,0,0.3,0s0.1,0,0.2,0h0.1c0.2,0,0.4,0.1,0.5,0.2S166.5,185.3,166.5,185.5z
		 M165.5,183.1c0.1-0.1,0.3-0.1,0.5-0.1c0.2,0,0.3,0,0.4,0.1c0.1,0.1,0.1,0.2,0.1,0.4s0,0.3-0.1,0.4s-0.2,0.1-0.4,0.1
		c-0.2,0-0.3,0-0.4-0.1c-0.1,0-0.1-0.2-0.1-0.4C165.4,183.3,165.4,183.2,165.5,183.1z"/>
	<path class="st3" d="M170.9,186.5v-0.1c0-0.1,0-0.3-0.1-0.4c0-0.1-0.1-0.3-0.2-0.4c-0.1-0.1-0.2-0.2-0.3-0.3s-0.3-0.1-0.5-0.1
		c-0.4,0-0.7,0.2-0.9,0.5c-0.2,0.3-0.3,0.8-0.3,1.5s0.1,1.1,0.3,1.4c0.2,0.3,0.5,0.5,0.9,0.5c0.4,0,0.8-0.2,1.4-0.6
		c0.2,0.1,0.3,0.3,0.4,0.5c-0.5,0.5-1.1,0.7-1.7,0.7c-0.3,0-0.6-0.1-0.8-0.2c-0.2-0.1-0.4-0.3-0.6-0.5c-0.2-0.2-0.3-0.5-0.4-0.8
		c-0.1-0.3-0.1-0.6-0.1-1c0-0.5,0.1-0.9,0.2-1.2c0.1-0.3,0.2-0.6,0.4-0.9c0.2-0.2,0.4-0.4,0.6-0.5c0.2-0.1,0.5-0.2,0.8-0.2
		c0.3,0,0.5,0,0.8,0.1c0.2,0.1,0.4,0.2,0.5,0.3c0.1,0.1,0.3,0.3,0.3,0.5c0.1,0.2,0.1,0.3,0.1,0.5c0,0.3-0.1,0.5-0.4,0.5
		C171.1,186.6,171,186.6,170.9,186.5z"/>
	<path class="st3" d="M176.6,186.3v2.5c0,0.4,0,0.7,0.1,0.9c-0.1,0.1-0.3,0.2-0.5,0.2c-0.3,0-0.4-0.2-0.4-0.5v-2.8
		c0-0.4-0.1-0.7-0.2-0.9c-0.1-0.2-0.3-0.3-0.6-0.3c-0.3,0-0.5,0.1-0.8,0.2c-0.3,0.1-0.5,0.3-0.7,0.6v3.5c-0.1,0-0.2,0-0.4,0
		c-0.1,0-0.3,0-0.4,0v-7.3l0.1-0.1h0.3c0.2,0,0.3,0,0.3,0.1c0.1,0.1,0.1,0.2,0.1,0.4v2.6c0.2-0.2,0.5-0.4,0.8-0.5
		c0.3-0.1,0.6-0.2,0.9-0.2c0.4,0,0.8,0.1,1,0.4C176.5,185.4,176.6,185.8,176.6,186.3z"/>
</g>
<g class="st2">
	<path class="st3" d="M131.4,200.2l0,0.4v1.1c-0.1,0-0.2,0-0.4,0c-0.1,0-0.3,0-0.4,0v-1.1l0-0.4l-0.4,0h-2c-0.1-0.2-0.2-0.4-0.2-0.4
		c0-0.1,0.1-0.3,0.2-0.6l1.7-4c0.1,0,0.2,0,0.4,0c0.1,0,0.3,0.1,0.3,0.1l-1.4,3.2c-0.3,0.6-0.4,0.9-0.5,1l0,0c0.4,0,0.7,0,1.1,0h0.7
		l0-0.4v-1c0-0.4,0.2-0.5,0.5-0.5h0.2l0,0v1.5l0,0.4l0.4,0h0.7c0,0.1,0,0.2,0,0.3c0,0.1,0,0.2-0.1,0.3h-0.6L131.4,200.2z"/>
	<path class="st3" d="M134.3,201.2l-0.1-0.2c-0.1-0.1-0.2-0.2-0.2-0.4c-0.1-0.2-0.1-0.4-0.2-0.6c-0.1-0.2-0.1-0.5-0.1-0.8
		s0-0.6,0-0.9c0-0.5,0.1-1,0.2-1.4c0.1-0.4,0.3-0.8,0.5-1s0.5-0.5,0.8-0.7s0.7-0.2,1.1-0.2c0.6,0,1,0.1,1.3,0.3
		c0,0.3-0.1,0.4-0.3,0.5c-0.3-0.1-0.7-0.2-1-0.2c-0.3,0-0.5,0.1-0.8,0.2s-0.4,0.3-0.5,0.5c-0.1,0.2-0.2,0.5-0.3,0.7
		c-0.1,0.3-0.1,0.6-0.1,0.9c0.4-0.4,1-0.7,1.5-0.7c0.6,0,1,0.2,1.4,0.5c0.3,0.4,0.5,0.9,0.5,1.6c0,0.3,0,0.6-0.1,0.9
		c-0.1,0.3-0.2,0.5-0.4,0.7c-0.2,0.2-0.4,0.4-0.6,0.5s-0.5,0.2-0.8,0.2C135.1,201.8,134.6,201.6,134.3,201.2z M135.7,198.1
		c-0.2,0-0.5,0.1-0.7,0.2s-0.5,0.3-0.6,0.5v0.2c0,0.3,0,0.6,0.1,0.9s0.1,0.5,0.3,0.7s0.3,0.4,0.4,0.5c0.2,0.1,0.4,0.2,0.6,0.2
		c0.4,0,0.7-0.1,0.9-0.4c0.2-0.3,0.3-0.7,0.3-1.2C136.9,198.6,136.5,198.1,135.7,198.1z"/>
	<path class="st3" d="M139,201.7c-0.1-0.1-0.1-0.2-0.1-0.4c0-0.1,0-0.2,0-0.3c0-0.1,0.1-0.1,0.1-0.2s0.1-0.1,0.2-0.1
		c0.1,0,0.2,0,0.2,0c0.1,0,0.2,0,0.2,0c0.1,0,0.1,0,0.2,0.1c0.1,0,0.1,0.1,0.1,0.2c0,0.1,0,0.2,0,0.3c0,0.1,0,0.2,0,0.3
		c0,0.1-0.1,0.1-0.1,0.2c0,0-0.1,0.1-0.2,0.1c-0.1,0-0.2,0-0.3,0C139.3,201.8,139.1,201.7,139,201.7z"/>
</g>
<g class="st2">
	<path class="st3" d="M144.5,200.2l0,0.4v1.1c-0.1,0-0.2,0-0.4,0c-0.1,0-0.3,0-0.4,0v-1.1l0-0.4l-0.4,0h-2c-0.1-0.2-0.2-0.4-0.2-0.4
		c0-0.1,0.1-0.3,0.2-0.6l1.7-4c0.1,0,0.2,0,0.4,0c0.1,0,0.3,0.1,0.3,0.1l-1.4,3.2c-0.3,0.6-0.4,0.9-0.5,1l0,0c0.4,0,0.7,0,1.1,0h0.7
		l0-0.4v-1c0-0.4,0.2-0.5,0.5-0.5h0.2l0,0v1.5l0,0.4l0.4,0h0.7c0,0.1,0,0.2,0,0.3c0,0.1,0,0.2-0.1,0.3h-0.6L144.5,200.2z"/>
</g>
<g class="st2">
	<path class="st3" d="M149.6,195.2c0.3,0.3,0.5,0.9,0.5,1.6c0,0.7-0.1,1.2-0.4,1.5s-0.6,0.5-1.1,0.5c-0.5,0-0.8-0.2-1.1-0.5
		s-0.4-0.8-0.4-1.5c0-0.7,0.1-1.2,0.4-1.5c0.3-0.3,0.6-0.5,1.1-0.5C149,194.8,149.3,194.9,149.6,195.2z M148.5,195.3
		c-0.5,0-0.8,0.5-0.8,1.5c0,1,0.3,1.5,0.8,1.5c0.5,0,0.8-0.5,0.8-1.5C149.4,195.8,149.1,195.3,148.5,195.3z M148.6,201.7l3.8-6.8
		c0.1,0,0.2,0,0.4,0c0.1,0,0.1,0,0.2,0s0.1,0,0.2,0l-3.8,6.8c0,0-0.1,0-0.2,0c-0.1,0-0.1,0-0.2,0s-0.1,0-0.2,0
		S148.6,201.7,148.6,201.7z M154.2,201.4c-0.3,0.3-0.6,0.4-1,0.4c-0.5,0-0.8-0.2-1.1-0.5s-0.4-0.8-0.4-1.5c0-0.7,0.1-1.2,0.4-1.5
		c0.3-0.3,0.6-0.5,1.1-0.5c0.5,0,0.9,0.2,1.1,0.5c0.3,0.3,0.4,0.8,0.4,1.5C154.7,200.6,154.5,201.1,154.2,201.4z M153.2,198.4
		c-0.5,0-0.8,0.5-0.8,1.5c0,1,0.3,1.5,0.8,1.5c0.5,0,0.8-0.5,0.8-1.5C154,198.9,153.7,198.4,153.2,198.4z"/>
</g>
<linearGradient id="SVGID_3_" gradientUnits="userSpaceOnUse" x1="37.2379" y1="40.9556" x2="37.2379" y2="206.0706" gradientTransform="matrix(1 0 0 -1 0 206)">
	<stop  offset="0" style="stop-color:#FF2832;stop-opacity:0.2"/>
	<stop  offset="1" style="stop-color:#FF2832"/>
</linearGradient>
<path class="st4" d="M65.7,90.3c-0.1-1.6-0.8-5.1-0.8-5.1l-0.2-1.4l0,0c0,0-0.7-8.4-0.9-12c-0.3-3.6-1.8-7.8-2.5-10.4
	s1.5-8.3-0.5-15.3c-1.2-4.4,0-8.5-2.3-11.6c-2.6-3.3-5.4-3-6.5-3.1l0,0c-1.4-0.3-2.9-0.5-3.9-0.9c-2.3-1-3.8-2-5.2-2.7
	c-1-0.4-1-3.3-1-5c0.8-0.5,1.4-1,1.7-1.5c0.5-0.7,0.8-2.8,1-4.8c0.2,0.1,0.4,0,0.8-0.2c0.9-0.4,1.2-3,0.6-4.1
	c-0.1-0.1-0.1-0.2-0.2-0.3C46,9.3,46.4,5,45.1,3.1C43.3,0.3,39,0.2,37.7,0c-1.8-0.2-5.2-0.1-6.1,2c-3.9,0.4-3.5,6.5-2.9,9.8
	c-0.1,0.1-0.1,0.1-0.1,0.3c-0.6,1.2-0.3,3.7,0.6,4.1c0.4,0.2,0.7,0.3,0.8,0.2c0.2,1.9,0.6,4,1,4.8c0.3,0.5,0.9,1,1.7,1.5
	c0.1,1.7-0.1,4.6-1,5c-1.4,0.6-2.8,1.6-5.2,2.7c-1,0.4-2.5,0.7-3.9,0.9c-1.2,0.1-4-0.2-6.5,3.1c-2.3,3.1-1.2,7.2-2.3,11.6
	c-2.1,7,0.1,12.7-0.6,15.3c-0.7,2.6-2.2,6.8-2.5,10.4s-0.9,12-0.9,12l0,0l-0.2,1.4c0,0-0.7,3.5-0.8,5.1c-0.1,1,0.1,2.7,0.8,4.1
	c1.2,2.5,3.8,4.3,3.8,4.3c0.3,0.4,2.3,0.6,1.2-0.8c-2.1-2.7-2.3-4.6-2.3-4.6S12,91,12.7,91c0.5-0.1,1,1.1,1.2,1.7
	c0.4,1,0.5,2.7,1.2,2.3c0.3-0.1,0.2-0.5,0.1-1.1c0-0.3,0.1-0.9,0.1-1.2c-0.1-0.3-0.4-1.8-0.6-2.2c-0.1-0.5-0.7-2.2-0.9-2.7
	s-0.4-1.4-0.3-2.2c0.1-0.7,1.2-4.8,1.8-6.1c0.4-0.9,4.5-6.5,5.2-17.5c0.2-2.6,0.8-6.3,1.2-9.8c0.3,1.6,0.6,3.2,0.7,4.4
	c0.1,3.7,1.2,8.9,0.9,11.7c-0.7,6.3-2.3,6.1-2.3,16.5c0,6.8-0.3,19.6,3.3,34.8c0.5,2.2,0.1,5.3-0.3,7.6c-0.5,4.3,0.7,10,3.3,23
	c2.5,12.5-5.2,11-3.8,14c0.6,1.2,7.6,0.8,9.8,0.7c0.7-0.1,1.2-0.6,1.2-1.2c0.1-0.7-0.3-1.4-0.9-3.3c-0.7-2.2-0.4-5.5-0.4-5.5
	s1.4-20.2,1.4-23.1c0-3.3-0.3-5.4-0.5-6.7c-0.2-1.1-0.3-2.2,0-3.3c2-9.1,2-32.3,2-32.3h2.2c0,0,0.1,23.2,2,32.3
	c0.3,1.1,0.2,2.2,0,3.3c-0.3,1.3-0.5,3.5-0.5,6.7c0,2.9,1.4,23.1,1.4,23.1s0.3,3.3-0.4,5.5c-0.6,1.9-0.9,2.7-0.9,3.3
	c0.1,0.7,0.6,1.2,1.2,1.2c2.2,0.1,9.2,0.5,9.8-0.7c1.3-2.9-6.4-1.5-3.8-14c2.7-13,3.8-18.6,3.3-23c-0.3-2.3-0.7-5.3-0.3-7.6
	c3.5-15.1,3.3-27.9,3.3-34.8c0-10.4-1.6-10.2-2.3-16.5c-0.3-2.7,0.8-8,0.9-11.7c0.1-1.2,0.3-2.8,0.7-4.4c0.4,3.5,1,7.2,1.2,9.8
	c0.7,11,5.1,16.9,5.5,17.7c0.4,1,1.6,5.1,1.6,5.9c0.1,0.7-0.1,1.6-0.3,2.2c-0.1,0.5-0.8,2.2-0.9,2.7c-0.1,0.5-0.5,1.9-0.6,2.2
	c-0.1,0.3,0.1,0.9,0.1,1.2c-0.1,0.7-0.1,1,0.1,1.1c0.7,0.3,0.9-1.3,1.2-2.3c0.2-0.6,0.7-1.7,1.2-1.7c0.6,0.1,0.4,2.2,0.4,2.2
	s-0.3,1.8-2.3,4.6c-1,1.4,0.9,1.2,1.2,0.8c0,0,2.5-1.9,3.8-4.3C65.5,93,65.7,91.4,65.7,90.3z"/>
<g class="st2">
	<path class="st5" d="M3.8,187.9l0.4,0.9c0.2,0.4,0.3,0.6,0.5,0.8c-0.1,0.1-0.3,0.2-0.4,0.2c-0.2,0-0.3,0-0.4-0.1
		c-0.1-0.1-0.2-0.2-0.2-0.4l-0.5-1c-0.1-0.3-0.3-0.5-0.4-0.6c-0.1-0.1-0.3-0.2-0.5-0.2s-0.4,0-0.6,0v2.2c-0.1,0-0.2,0-0.4,0
		c-0.1,0-0.3,0-0.4,0v-7.3l0.1-0.1h0.3c0.2,0,0.3,0,0.3,0.1c0.1,0.1,0.1,0.2,0.1,0.4v4l0.4,0c0.1,0,0.2,0,0.2-0.1l1.1-1.6
		c0.1-0.1,0.2-0.2,0.2-0.3c0.1-0.1,0.2-0.1,0.3-0.1c0.1,0,0.2,0,0.4,0l0.1,0.1l-1.3,1.8c-0.1,0.1-0.2,0.2-0.2,0.3
		c0.2,0,0.4,0.1,0.6,0.3C3.5,187.4,3.7,187.6,3.8,187.9z"/>
	<path class="st5" d="M5.5,185.1c0-0.2,0.2-0.3,0.3-0.4c0.4,0.1,0.6,0.4,0.7,0.9c0.3-0.6,0.7-0.9,1.3-0.9c0.1,0,0.3,0,0.5,0
		c0,0.3-0.1,0.5-0.2,0.7c-0.1,0-0.2,0-0.3,0c-0.5,0-0.9,0.3-1.2,0.9v3.3c-0.1,0-0.2,0-0.4,0s-0.3,0-0.4,0v-3.5
		C5.9,185.7,5.8,185.4,5.5,185.1z"/>
	<path class="st5" d="M10.3,185.5v4.2c-0.1,0-0.2,0-0.4,0c-0.1,0-0.3,0-0.4,0v-3.9c0-0.2,0-0.3-0.1-0.4c-0.1-0.1-0.2-0.1-0.3-0.1H9
		c0-0.1,0-0.2,0-0.3c0-0.1,0-0.2,0-0.3c0.1,0,0.2,0,0.3,0s0.1,0,0.2,0h0.1c0.2,0,0.4,0.1,0.5,0.2S10.3,185.3,10.3,185.5z M9.3,183.1
		c0.1-0.1,0.3-0.1,0.5-0.1c0.2,0,0.3,0,0.4,0.1c0.1,0.1,0.1,0.2,0.1,0.4s0,0.3-0.1,0.4c-0.1,0.1-0.2,0.1-0.4,0.1
		c-0.2,0-0.3,0-0.4-0.1s-0.1-0.2-0.1-0.4C9.2,183.3,9.3,183.2,9.3,183.1z"/>
	<path class="st5" d="M14.1,184.8c0,0.1,0,0.2,0,0.3s0,0.2,0,0.3l-1.3,0v3.4c0,0.3,0.1,0.4,0.4,0.4H14c0,0.1,0.1,0.2,0.1,0.3
		c0,0.1,0,0.2,0,0.2c-0.3,0-0.6,0.1-1,0.1c-0.6,0-1-0.3-1-0.8v-3.6l-0.7,0c0-0.1,0-0.2,0-0.3s0-0.2,0-0.3l0.7,0v-1
		c0-0.2,0-0.3,0.1-0.4c0.1-0.1,0.2-0.1,0.3-0.1h0.3l0.1,0.1v1.5L14.1,184.8z"/>
	<path class="st5" d="M16.3,185.5v4.2c-0.1,0-0.2,0-0.4,0c-0.1,0-0.3,0-0.4,0v-3.9c0-0.2,0-0.3-0.1-0.4c-0.1-0.1-0.2-0.1-0.3-0.1H15
		c0-0.1,0-0.2,0-0.3c0-0.1,0-0.2,0-0.3c0.1,0,0.2,0,0.3,0s0.1,0,0.2,0h0.1c0.2,0,0.4,0.1,0.5,0.2S16.3,185.3,16.3,185.5z
		 M15.3,183.1c0.1-0.1,0.3-0.1,0.5-0.1c0.2,0,0.3,0,0.4,0.1c0.1,0.1,0.1,0.2,0.1,0.4s0,0.3-0.1,0.4c-0.1,0.1-0.2,0.1-0.4,0.1
		c-0.2,0-0.3,0-0.4-0.1s-0.1-0.2-0.1-0.4C15.2,183.3,15.3,183.2,15.3,183.1z"/>
	<path class="st5" d="M17.5,189.3c0-0.2,0.1-0.4,0.3-0.5c0.3,0.2,0.6,0.3,0.8,0.4c0.2,0.1,0.5,0.1,0.6,0.1c0.2,0,0.3,0,0.4-0.1
		c0.1,0,0.2-0.1,0.3-0.2c0.1-0.1,0.2-0.1,0.2-0.2c0-0.1,0.1-0.2,0.1-0.3c0-0.2-0.1-0.4-0.2-0.5c-0.1-0.1-0.3-0.3-0.5-0.3l-0.6-0.2
		c-0.4-0.2-0.7-0.4-1-0.6c-0.2-0.2-0.3-0.5-0.3-0.8c0-0.2,0-0.4,0.1-0.6c0.1-0.2,0.2-0.3,0.4-0.4c0.2-0.1,0.3-0.2,0.5-0.3
		c0.2-0.1,0.4-0.1,0.7-0.1c0.5,0,1,0.1,1.5,0.3c0,0.2-0.1,0.4-0.2,0.6c-0.3-0.1-0.5-0.2-0.7-0.2c-0.2,0-0.4-0.1-0.6-0.1
		c-0.3,0-0.5,0.1-0.7,0.2c-0.2,0.1-0.2,0.3-0.2,0.5c0,0.2,0.1,0.3,0.2,0.5c0.1,0.1,0.3,0.2,0.6,0.3l0.6,0.2c0.8,0.3,1.2,0.8,1.2,1.5
		c0,0.4-0.2,0.8-0.5,1c-0.3,0.2-0.8,0.4-1.4,0.4C18.6,189.8,18.1,189.7,17.5,189.3z"/>
	<path class="st5" d="M25,186.5v-0.1c0-0.1,0-0.3-0.1-0.4s-0.1-0.3-0.2-0.4c-0.1-0.1-0.2-0.2-0.3-0.3c-0.1-0.1-0.3-0.1-0.5-0.1
		c-0.4,0-0.7,0.2-0.9,0.5c-0.2,0.3-0.3,0.8-0.3,1.5s0.1,1.1,0.3,1.4s0.5,0.5,0.9,0.5c0.4,0,0.8-0.2,1.4-0.6c0.2,0.1,0.3,0.3,0.4,0.5
		c-0.5,0.5-1.1,0.7-1.7,0.7c-0.3,0-0.6-0.1-0.8-0.2c-0.2-0.1-0.4-0.3-0.6-0.5s-0.3-0.5-0.4-0.8c-0.1-0.3-0.1-0.6-0.1-1
		c0-0.5,0.1-0.9,0.2-1.2c0.1-0.3,0.2-0.6,0.4-0.9c0.2-0.2,0.4-0.4,0.6-0.5c0.2-0.1,0.5-0.2,0.8-0.2c0.3,0,0.5,0,0.8,0.1
		c0.2,0.1,0.4,0.2,0.5,0.3c0.1,0.1,0.3,0.3,0.3,0.5s0.1,0.3,0.1,0.5c0,0.3-0.1,0.5-0.4,0.5C25.3,186.6,25.2,186.6,25,186.5z"/>
	<path class="st5" d="M30.8,186.3v2.5c0,0.4,0,0.7,0.1,0.9c-0.1,0.1-0.3,0.2-0.5,0.2c-0.3,0-0.4-0.2-0.4-0.5v-2.8
		c0-0.4-0.1-0.7-0.2-0.9c-0.1-0.2-0.3-0.3-0.6-0.3c-0.3,0-0.5,0.1-0.8,0.2s-0.5,0.3-0.7,0.6v3.5c-0.1,0-0.2,0-0.4,0
		c-0.1,0-0.3,0-0.4,0v-7.3l0.1-0.1h0.3c0.2,0,0.3,0,0.3,0.1c0.1,0.1,0.1,0.2,0.1,0.4v2.6c0.2-0.2,0.5-0.4,0.8-0.5
		c0.3-0.1,0.6-0.2,0.9-0.2c0.4,0,0.8,0.1,1,0.4C30.7,185.4,30.8,185.8,30.8,186.3z"/>
	<path class="st5" d="M36,187.5h-3.1c0,1.1,0.5,1.7,1.3,1.7c0.5,0,0.9-0.1,1.5-0.4c0.1,0.1,0.2,0.3,0.3,0.5
		c-0.5,0.4-1.2,0.6-1.8,0.6c-0.3,0-0.6-0.1-0.9-0.2s-0.4-0.3-0.6-0.5c-0.2-0.2-0.3-0.5-0.3-0.8s-0.1-0.7-0.1-1c0-0.4,0-0.7,0.1-1
		c0.1-0.3,0.2-0.6,0.4-0.8s0.4-0.4,0.6-0.5c0.2-0.1,0.5-0.2,0.8-0.2c0.3,0,0.6,0.1,0.8,0.2c0.2,0.1,0.4,0.3,0.6,0.5
		c0.2,0.2,0.3,0.4,0.4,0.7c0.1,0.3,0.1,0.5,0.1,0.8c0,0.1,0,0.2,0,0.3C36,187.3,36,187.4,36,187.5z M32.9,186.9h2.4v-0.1
		c0-0.5-0.1-0.8-0.3-1.1c-0.2-0.3-0.5-0.4-0.9-0.4c-0.4,0-0.7,0.2-0.9,0.5S32.9,186.4,32.9,186.9z"/>
	<path class="st5" d="M37.3,185.1c0-0.2,0.2-0.3,0.3-0.4c0.4,0.1,0.6,0.4,0.7,0.9c0.3-0.6,0.7-0.9,1.3-0.9c0.1,0,0.3,0,0.5,0
		c0,0.3-0.1,0.5-0.2,0.7c-0.1,0-0.2,0-0.3,0c-0.5,0-0.9,0.3-1.2,0.9v3.3c-0.1,0-0.2,0-0.4,0s-0.3,0-0.4,0v-3.5
		C37.6,185.7,37.5,185.4,37.3,185.1z"/>
	<path class="st5" d="M43.4,189.7L43.4,189.7l-0.1-6.8l0.1-0.1l2,0c0.7,0,1.3,0.2,1.6,0.5c0.3,0.3,0.5,0.8,0.5,1.3
		c0,0.3-0.1,0.6-0.3,0.9s-0.4,0.4-0.7,0.5c0.2,0.1,0.4,0.1,0.5,0.2c0.2,0.1,0.3,0.2,0.4,0.4c0.1,0.2,0.2,0.3,0.3,0.5
		c0.1,0.2,0.1,0.4,0.1,0.7c0,0.2,0,0.5-0.1,0.7c-0.1,0.2-0.2,0.4-0.4,0.6c-0.2,0.2-0.4,0.3-0.7,0.4c-0.3,0.1-0.6,0.2-1.1,0.2
		L43.4,189.7z M44.1,183.5v2.3h1.2c0.2,0,0.5,0,0.6-0.1c0.2-0.1,0.3-0.1,0.4-0.3c0.1-0.1,0.2-0.2,0.2-0.4s0.1-0.3,0.1-0.5
		c0-0.8-0.4-1.2-1.3-1.2c-0.3,0-0.6,0-0.8,0S44.3,183.5,44.1,183.5z M44.1,189.1l1.4,0c0.3,0,0.5,0,0.7-0.1c0.2-0.1,0.3-0.2,0.4-0.3
		s0.2-0.3,0.2-0.4c0-0.2,0.1-0.3,0.1-0.5c0-0.1,0-0.3-0.1-0.5c-0.1-0.2-0.1-0.3-0.3-0.4c-0.1-0.1-0.3-0.2-0.5-0.3
		c-0.2-0.1-0.4-0.1-0.7-0.1h-1.3V189.1z"/>
	<path class="st5" d="M52.8,187.5h-3.1c0,1.1,0.5,1.7,1.3,1.7c0.5,0,0.9-0.1,1.5-0.4c0.1,0.1,0.2,0.3,0.3,0.5
		c-0.5,0.4-1.2,0.6-1.8,0.6c-0.3,0-0.6-0.1-0.9-0.2s-0.4-0.3-0.6-0.5c-0.2-0.2-0.3-0.5-0.3-0.8s-0.1-0.7-0.1-1c0-0.4,0-0.7,0.1-1
		c0.1-0.3,0.2-0.6,0.4-0.8s0.4-0.4,0.6-0.5c0.2-0.1,0.5-0.2,0.8-0.2c0.3,0,0.6,0.1,0.8,0.2c0.2,0.1,0.4,0.3,0.6,0.5
		c0.2,0.2,0.3,0.4,0.4,0.7c0.1,0.3,0.1,0.5,0.1,0.8c0,0.1,0,0.2,0,0.3C52.8,187.3,52.8,187.4,52.8,187.5z M49.7,186.9h2.4v-0.1
		c0-0.5-0.1-0.8-0.3-1.1c-0.2-0.3-0.5-0.4-0.9-0.4c-0.4,0-0.7,0.2-0.9,0.5S49.7,186.4,49.7,186.9z"/>
	<path class="st5" d="M54,185.1c0-0.2,0.2-0.3,0.3-0.4c0.4,0.1,0.6,0.4,0.7,0.9c0.3-0.6,0.7-0.9,1.3-0.9c0.1,0,0.3,0,0.5,0
		c0,0.3-0.1,0.5-0.2,0.7c-0.1,0-0.2,0-0.3,0c-0.5,0-0.9,0.3-1.2,0.9v3.3c-0.1,0-0.2,0-0.4,0s-0.3,0-0.4,0v-3.5
		C54.4,185.7,54.3,185.4,54,185.1z"/>
	<path class="st5" d="M61.1,187.5H58c0,1.1,0.5,1.7,1.3,1.7c0.5,0,0.9-0.1,1.5-0.4c0.1,0.1,0.2,0.3,0.3,0.5
		c-0.5,0.4-1.2,0.6-1.8,0.6c-0.3,0-0.6-0.1-0.9-0.2s-0.4-0.3-0.6-0.5c-0.2-0.2-0.3-0.5-0.3-0.8s-0.1-0.7-0.1-1c0-0.4,0-0.7,0.1-1
		c0.1-0.3,0.2-0.6,0.4-0.8s0.4-0.4,0.6-0.5c0.2-0.1,0.5-0.2,0.8-0.2c0.3,0,0.6,0.1,0.8,0.2c0.2,0.1,0.4,0.3,0.6,0.5
		c0.2,0.2,0.3,0.4,0.4,0.7c0.1,0.3,0.1,0.5,0.1,0.8c0,0.1,0,0.2,0,0.3C61.1,187.3,61.1,187.4,61.1,187.5z M58,186.9h2.4v-0.1
		c0-0.5-0.1-0.8-0.3-1.1c-0.2-0.3-0.5-0.4-0.9-0.4c-0.4,0-0.7,0.2-0.9,0.5S58,186.4,58,186.9z"/>
	<path class="st5" d="M63.4,185.5v4.2c-0.1,0-0.2,0-0.4,0c-0.1,0-0.3,0-0.4,0v-3.9c0-0.2,0-0.3-0.1-0.4c-0.1-0.1-0.2-0.1-0.3-0.1
		h-0.1c0-0.1,0-0.2,0-0.3c0-0.1,0-0.2,0-0.3c0.1,0,0.2,0,0.3,0s0.1,0,0.2,0h0.1c0.2,0,0.4,0.1,0.5,0.2S63.4,185.3,63.4,185.5z
		 M62.5,183.1c0.1-0.1,0.3-0.1,0.5-0.1c0.2,0,0.3,0,0.4,0.1c0.1,0.1,0.1,0.2,0.1,0.4s0,0.3-0.1,0.4c-0.1,0.1-0.2,0.1-0.4,0.1
		c-0.2,0-0.3,0-0.4-0.1s-0.1-0.2-0.1-0.4C62.4,183.3,62.4,183.2,62.5,183.1z"/>
	<path class="st5" d="M67.9,186.5v-0.1c0-0.1,0-0.3-0.1-0.4s-0.1-0.3-0.2-0.4c-0.1-0.1-0.2-0.2-0.3-0.3c-0.1-0.1-0.3-0.1-0.5-0.1
		c-0.4,0-0.7,0.2-0.9,0.5c-0.2,0.3-0.3,0.8-0.3,1.5s0.1,1.1,0.3,1.4s0.5,0.5,0.9,0.5c0.4,0,0.8-0.2,1.4-0.6c0.2,0.1,0.3,0.3,0.4,0.5
		c-0.5,0.5-1.1,0.7-1.7,0.7c-0.3,0-0.6-0.1-0.8-0.2c-0.2-0.1-0.4-0.3-0.6-0.5s-0.3-0.5-0.4-0.8c-0.1-0.3-0.1-0.6-0.1-1
		c0-0.5,0.1-0.9,0.2-1.2c0.1-0.3,0.2-0.6,0.4-0.9c0.2-0.2,0.4-0.4,0.6-0.5c0.2-0.1,0.5-0.2,0.8-0.2c0.3,0,0.5,0,0.8,0.1
		c0.2,0.1,0.4,0.2,0.5,0.3c0.1,0.1,0.3,0.3,0.3,0.5s0.1,0.3,0.1,0.5c0,0.3-0.1,0.5-0.4,0.5C68.1,186.6,68,186.6,67.9,186.5z"/>
	<path class="st5" d="M73.6,186.3v2.5c0,0.4,0,0.7,0.1,0.9c-0.1,0.1-0.3,0.2-0.5,0.2c-0.3,0-0.4-0.2-0.4-0.5v-2.8
		c0-0.4-0.1-0.7-0.2-0.9c-0.1-0.2-0.3-0.3-0.6-0.3c-0.3,0-0.5,0.1-0.8,0.2s-0.5,0.3-0.7,0.6v3.5c-0.1,0-0.2,0-0.4,0
		c-0.1,0-0.3,0-0.4,0v-7.3l0.1-0.1h0.3c0.2,0,0.3,0,0.3,0.1c0.1,0.1,0.1,0.2,0.1,0.4v2.6c0.2-0.2,0.5-0.4,0.8-0.5
		c0.3-0.1,0.6-0.2,0.9-0.2c0.4,0,0.8,0.1,1,0.4C73.5,185.4,73.6,185.8,73.6,186.3z"/>
</g>
<g class="st2">
	<path class="st5" d="M28.2,201c0,0.2,0,0.4-0.1,0.5c-0.1,0.1-0.2,0.2-0.4,0.2h-3.2c-0.2-0.2-0.4-0.3-0.4-0.5c0-0.3,0.1-0.6,0.3-0.9
		c0.2-0.3,0.6-0.7,1-1l0.9-0.8c0.3-0.3,0.5-0.5,0.7-0.7c0.1-0.2,0.2-0.5,0.2-0.9c0-0.3-0.1-0.6-0.3-0.8s-0.5-0.3-0.8-0.3
		s-0.6,0.1-0.8,0.3c-0.2,0.2-0.4,0.4-0.6,0.7c-0.3,0-0.5-0.1-0.5-0.3c0.1-0.2,0.2-0.4,0.3-0.5c0.1-0.2,0.3-0.3,0.5-0.4
		s0.4-0.2,0.6-0.3s0.4-0.1,0.7-0.1c0.3,0,0.5,0,0.7,0.1c0.2,0.1,0.4,0.2,0.6,0.4c0.2,0.2,0.3,0.3,0.4,0.6c0.1,0.2,0.1,0.5,0.1,0.7
		c0,0.3,0,0.5-0.1,0.7s-0.2,0.4-0.3,0.5c-0.1,0.2-0.2,0.3-0.4,0.5c-0.2,0.1-0.3,0.3-0.5,0.5l-0.8,0.7c-0.7,0.6-1,1-1.1,1.3
		c0.2,0,0.4,0,0.6,0s0.4,0,0.6,0H28.2z"/>
	<path class="st5" d="M29.5,195.2h3.9c0.1,0.2,0.1,0.3,0.1,0.5c0,0.1,0,0.3-0.1,0.4l-0.3,0.4c-0.6,0.8-1,1.6-1.3,2.4
		s-0.5,1.6-0.6,2.5l0,0.3c-0.1,0-0.2,0-0.4,0s-0.3,0-0.4,0l0-0.4c0.2-1.6,0.8-3.1,1.8-4.6l0.1-0.1c0.1-0.1,0.3-0.4,0.5-0.7l0,0
		c-0.2,0-0.7,0.1-1.6,0.1h-1.7c0-0.1,0-0.2,0-0.3C29.5,195.5,29.5,195.4,29.5,195.2z"/>
	<path class="st5" d="M34.8,201.7c-0.1-0.1-0.1-0.2-0.1-0.4c0-0.1,0-0.2,0-0.3c0-0.1,0.1-0.1,0.1-0.2c0.1,0,0.1-0.1,0.2-0.1
		c0.1,0,0.2,0,0.2,0c0.1,0,0.2,0,0.2,0c0.1,0,0.1,0,0.2,0.1c0.1,0,0.1,0.1,0.1,0.2c0,0.1,0,0.2,0,0.3c0,0.1,0,0.2,0,0.3
		s-0.1,0.1-0.1,0.2c0,0-0.1,0.1-0.2,0.1c-0.1,0-0.2,0-0.3,0C35.1,201.8,35,201.7,34.8,201.7z"/>
</g>
<g class="st2">
	<path class="st5" d="M39.2,201.1l0-0.6v-2.8c0,0,0-0.4,0-1.2c-0.4,0.5-0.9,0.9-1.5,1.2c-0.2-0.1-0.3-0.3-0.3-0.5
		c0.5-0.3,0.8-0.6,1.2-0.9s0.5-0.7,0.7-0.9c0.1,0,0.2,0,0.4,0s0.2,0,0.4,0v5.2l0,0.6l0.5,0h0.8c0,0.1,0,0.2,0,0.3c0,0.1,0,0.2,0,0.3
		h-3.5c0-0.1,0-0.2,0-0.3c0-0.1,0-0.2,0-0.3h1L39.2,201.1z"/>
</g>
<g class="st2">
	<path class="st5" d="M45.4,195.2c0.3,0.3,0.5,0.9,0.5,1.6c0,0.7-0.1,1.2-0.4,1.5s-0.6,0.5-1.1,0.5c-0.5,0-0.8-0.2-1.1-0.5
		s-0.4-0.8-0.4-1.5c0-0.7,0.1-1.2,0.4-1.5c0.3-0.3,0.6-0.5,1.1-0.5C44.8,194.8,45.2,194.9,45.4,195.2z M44.4,195.3
		c-0.5,0-0.8,0.5-0.8,1.5c0,1,0.3,1.5,0.8,1.5c0.5,0,0.8-0.5,0.8-1.5C45.2,195.8,44.9,195.3,44.4,195.3z M44.4,201.7l3.8-6.8
		c0.1,0,0.2,0,0.4,0c0.1,0,0.1,0,0.2,0c0.1,0,0.1,0,0.2,0l-3.8,6.8c0,0-0.1,0-0.2,0c-0.1,0-0.1,0-0.2,0s-0.1,0-0.2,0
		C44.5,201.7,44.5,201.7,44.4,201.7z M50,201.4c-0.3,0.3-0.6,0.4-1,0.4c-0.5,0-0.8-0.2-1.1-0.5s-0.4-0.8-0.4-1.5
		c0-0.7,0.1-1.2,0.4-1.5c0.3-0.3,0.6-0.5,1.1-0.5s0.9,0.2,1.1,0.5c0.3,0.3,0.4,0.8,0.4,1.5C50.5,200.6,50.4,201.1,50,201.4z
		 M49,198.4c-0.5,0-0.8,0.5-0.8,1.5c0,1,0.3,1.5,0.8,1.5c0.5,0,0.8-0.5,0.8-1.5C49.8,198.9,49.6,198.4,49,198.4z"/>
</g>
<linearGradient id="SVGID_4_" gradientUnits="userSpaceOnUse" x1="244.0498" y1="745.3369" x2="244.0498" y2="580.5" gradientTransform="matrix(1 0 0 1 0 -580.5)">
	<stop  offset="5.000000e-04" style="stop-color:#009632;stop-opacity:0.3"/>
	<stop  offset="1" style="stop-color:#009632"/>
</linearGradient>
<path class="st6" d="M257.1,66.8c-1.3-2.3-1.2-6.5-0.8-9.1l1-5.7c0,0,0.8,7.7,2.2,11.7c1.8,5,4.3,13.2,5.5,19.5
	c0.2,0.6,0.3,1.1,0.4,1.5c0.2,1.1-0.2,1.7-0.3,2.2c-0.1,0.5-0.8,2.2-0.9,2.7s-0.5,1.9-0.5,2.2c-0.1,0.3,0.1,0.9,0,1.2
	c0,0.7-0.2,1,0.1,1.1c0.7,0.4,0.9-1.3,1.3-2.4c0.2-0.6,0.7-1.7,1.2-1.7c0.6,0,0.3,2.3,0.3,2.3s0.3,1.2-1.7,4
	c-1.1,1.4,0.9,1.2,1.3,0.9c0,0,2-1.3,3.2-3.8c0.9-1.1,1.2-2.8,1.1-3.9c-0.1-1.6-0.8-5.1-0.8-5.1l-0.2-1.4l0.1,0.1c0,0-0.7-8.5-1-12
	c-0.3-3.6-1.9-8.4-2.6-11c-0.7-2.7-1.1-7.8-1.2-14c-0.2-6.4-0.8-11.4-2-12.9c-1.4-1.8-4-2.3-5-2.6c-0.8-0.2-1.7-0.4-2.6-0.6
	c0,0,0,0,0-0.1c1.2-3,1.2-6.4,0.1-9.5c-0.3-0.9-0.7-1.7-0.9-2.7c-0.3-1.4-0.2-2.8-0.3-4.2c-0.1-2.5-0.3-5.7-1.5-8
	c-1-1.8-2.4-3.7-4.6-3.9c-0.5-0.1-0.7,0.1-1.2-0.2s-1.4-1.1-2.9-1.4c-4.4-0.7-8.2,1.9-10,5.9c-1.4,2.9-1.4,6.2-1.4,9.5
	c0.1,1.4,0.1,2.7-0.5,3.9c-0.8,1.8-2.7,2.7-3.8,4.3c-0.9,1.2-1.2,2.9-1.2,4.4c-0.1,1,0,2,0.3,3c-0.5,0.3-1.1,0.6-1.5,0.9
	c-0.1,0.1-0.1,0.1-0.3,0.3c-0.1,0.1-0.1,0.1-0.2,0.2l-0.1,0.1c-0.1,0.1-0.1,0.1-0.1,0.2c0,0.1-0.1,0.1-0.1,0.1
	c-0.1,0.1-0.1,0.2-0.2,0.3c-1.2,1.5-1.8,6.7-1.9,13.1c-0.1,6.3-0.4,11.4-1.1,14c-0.7,2.7-2.4,7.4-2.5,11c0,0.1,0,0.1,0,0.3v0.1
	c0,0.1,0,0.2,0,0.3V72c0,0.1,0,0.1,0,0.3v0.1c0,0.1,0,0.2,0,0.3v0.1c0,0.1,0,0.2,0,0.3v0.1c0,0.1,0,0.2,0,0.3c0,0.1,0,0.1,0,0.1
	c0,0.1,0,0.2,0,0.3c0,0.1,0,0.3,0,0.3v0.1c0,0.1,0,0.3,0,0.3c0,0.1,0,0.3,0,0.4c0,0.3,0,0.5-0.1,0.7v0.1c0,0.4-0.1,0.7-0.1,1.2
	c0,0.1,0,0.3,0,0.4c-0.2,3.3-0.5,6.4-0.5,6.4l-0.2,1.4c0,0-0.7,3.4-0.8,5.1c-0.1,1,0.2,2.7,0.9,4.1c1.3,2.5,3.2,3.7,3.2,3.7
	c0.3,0.3,2.3,0.5,1.3-0.9c-2.1-2.7-1.8-4-1.8-4s-0.3-2.2,0.3-2.3c0.5,0,1.1,1.1,1.3,1.7c0.4,1.1,0.6,2.7,1.3,2.4
	c0.3-0.1,0.1-0.5,0.1-1.1c-0.1-0.3,0.1-0.9,0-1.2c-0.1-0.3-0.4-1.8-0.5-2.2c-0.1-0.5-0.8-2.2-1-2.7s-0.3-1.4-0.3-2.2s1.3-5,1.5-5.8
	s5.3-12.8,5.4-17.8c0.1-2.5,1.1-6.3,1.2-9.9c0.5,2.5,1,5.3,1.4,6.5c0.5,1.7,0.7,5.7-0.7,8.6c-0.1,0.2-0.2,0.3-0.3,0.5
	c-0.4,0.7-0.8,1.4-1.2,2.2c-3.5,6.8-3.8,12.7-3.8,16.9c0,0.7,0.1,1.4,0.1,2.2c0-0.1,0-0.2,0-0.3c0.2,2.5,0.7,6.1,1.7,12
	c-0.1-0.4-0.1-0.6-0.1-0.6c0.8,4.8,2,11,3.5,19.8c0.4,2.2,0.5,4.5,0.3,6.8c-0.4,4.2,0.1,10.2,2.7,23.1c1,5.3,0.6,8.2-0.3,10
	c-1.2,2.5-3.2,2.9-2.5,4.6c1,1.2,6.1,0.8,8.2,0.7c0.6-0.1,1.1-0.1,1.4-0.9c0.3-0.6,0.3-1-0.8-3.5c-0.7-1.5-0.6-4-0.6-4
	s1.6-21.7,1.6-24.8c0-3-0.2-5.2-0.4-6.5c-0.3-1.4-0.3-2.7-0.1-4c0.3-2,0.5-4.8,0.7-7.8c0,0.1,0,0.2,0,0.3
	c1.2-15.6,1.5-25.7,1.5-25.7h1.8l0.1-0.1c0,0,0.6,23.5,2,33.3c0.2,1.3,0.2,2.7,0,4c-0.2,1.4-0.4,3.5-0.4,6.5
	c0,2.9,1.4,23.1,1.4,23.1s0.2,2.3-0.1,4.4c-0.1,0.1-0.1,0.3-0.1,0.4c0,0,0.1-0.3,0.1-0.6c-0.1,0.4-0.1,0.8-0.3,1.2
	c-0.6,1.9-0.9,2.7-0.9,3.3c0.1,0.7,0.6,1.2,1.2,1.2c2.2,0.1,7.8,0.6,8.4-0.7c1.4-2.9-6-2-2.9-14.7c3.1-12.8,3.5-18.9,2.9-23.1
	c-0.3-2.3-0.3-4.6,0.1-6.8c2.8-18.5,5.7-26.7,5.7-33.6C261.6,75.6,257.1,66.8,257.1,66.8z"/>
<g class="st2">
	<path class="st7" d="M216.3,185.2c0.1-0.2,0.3-0.4,0.5-0.5c0.2,0.1,0.3,0.2,0.3,0.4c-0.2,0.2-0.3,0.5-0.3,1.1v3.1
		c0,0.5,0,0.9-0.1,1.2c-0.1,0.3-0.2,0.6-0.4,0.8c-0.2,0.2-0.4,0.4-0.6,0.4c-0.2,0.1-0.5,0.1-0.8,0.1c-0.6,0-1.2-0.1-1.7-0.3
		c0-0.2,0.1-0.4,0.2-0.6c0.4,0.2,0.9,0.3,1.4,0.3c0.3,0,0.5,0,0.7-0.1c0.2-0.1,0.3-0.2,0.4-0.3c0.1-0.1,0.2-0.3,0.2-0.5
		s0.1-0.4,0.1-0.7v-0.6c-0.4,0.4-0.9,0.7-1.5,0.7s-1-0.2-1.2-0.7s-0.4-1.1-0.4-1.9c0-0.4,0.1-0.8,0.2-1.1c0.1-0.3,0.2-0.6,0.4-0.8
		c0.2-0.2,0.4-0.4,0.6-0.5c0.2-0.1,0.5-0.2,0.7-0.2C215.4,184.7,215.9,184.9,216.3,185.2z M216.2,188.4v-2.6
		c-0.2-0.2-0.4-0.3-0.6-0.4s-0.4-0.1-0.6-0.1c-0.4,0-0.7,0.2-0.9,0.5c-0.2,0.3-0.3,0.8-0.3,1.5c0,0.6,0.1,1.1,0.3,1.4
		c0.2,0.3,0.4,0.5,0.7,0.5c0.3,0,0.5-0.1,0.8-0.2S216,188.6,216.2,188.4z"/>
	<path class="st7" d="M218.4,185.1c0-0.2,0.2-0.3,0.3-0.4c0.4,0.1,0.6,0.4,0.7,0.9c0.3-0.6,0.7-0.9,1.3-0.9c0.1,0,0.3,0,0.5,0
		c0,0.3-0.1,0.5-0.2,0.7c-0.1,0-0.2,0-0.3,0c-0.5,0-0.9,0.3-1.2,0.9v3.3c-0.1,0-0.2,0-0.4,0s-0.3,0-0.4,0v-3.5
		C218.7,185.7,218.6,185.4,218.4,185.1z"/>
	<path class="st7" d="M222.1,188.2v-2.5c0-0.4,0-0.6-0.1-0.8c0.1-0.1,0.3-0.2,0.5-0.2c0.3,0,0.4,0.2,0.4,0.5v2.8
		c0,0.4,0.1,0.7,0.2,0.9c0.1,0.2,0.3,0.2,0.6,0.2s0.5-0.1,0.8-0.2c0.3-0.1,0.5-0.3,0.7-0.6v-3.6c0,0,0.1,0,0.2,0c0.1,0,0.1,0,0.2,0
		c0.1,0,0.1,0,0.2,0c0.1,0,0.1,0,0.2,0v3.5c0,0.5,0.1,0.9,0.3,1.1c-0.1,0.2-0.2,0.3-0.3,0.4c-0.3-0.1-0.5-0.4-0.6-0.7
		c-0.2,0.2-0.5,0.4-0.8,0.5s-0.6,0.2-1,0.2c-0.4,0-0.8-0.1-1-0.4C222.2,189.1,222.1,188.7,222.1,188.2z M222.7,183.3
		c0,0,0.1-0.1,0.2-0.1c0.1,0,0.1,0,0.2,0c0.2,0,0.3,0,0.4,0.1c0,0.1,0,0.1,0.1,0.2c0,0.1,0,0.1,0,0.2c0,0.1,0,0.2-0.1,0.3
		c-0.1,0.1-0.2,0.1-0.4,0.1c-0.1,0-0.2,0-0.3,0c-0.1,0-0.1-0.1-0.1-0.1c0,0,0-0.1-0.1-0.1c0-0.1,0-0.1,0-0.2
		C222.6,183.5,222.6,183.4,222.7,183.3z M224.4,183.3c0.1-0.1,0.2-0.1,0.4-0.1c0.2,0,0.3,0,0.4,0.1c0,0.1,0.1,0.2,0.1,0.3
		c0,0.1,0,0.2-0.1,0.3c-0.1,0.1-0.2,0.1-0.4,0.1c-0.1,0-0.2,0-0.3,0s-0.1-0.1-0.1-0.1c0,0,0-0.1-0.1-0.1c0-0.1,0-0.1,0-0.2
		C224.4,183.5,224.4,183.4,224.4,183.3z"/>
	<path class="st7" d="M231.4,186.3v2.5c0,0.4,0,0.7,0.1,0.9c-0.1,0.1-0.3,0.2-0.5,0.2c-0.3,0-0.4-0.2-0.4-0.5v-2.8
		c0-0.4-0.1-0.7-0.2-0.9c-0.1-0.2-0.3-0.3-0.6-0.3c-0.3,0-0.5,0.1-0.8,0.2c-0.3,0.1-0.5,0.3-0.7,0.6v3.5c-0.1,0-0.2,0-0.4,0
		s-0.3,0-0.4,0v-4.9l0.1-0.1h0.3c0.2,0,0.3,0,0.3,0.1c0.1,0.1,0.1,0.2,0.1,0.4v0.1c0.2-0.2,0.5-0.4,0.8-0.5s0.6-0.2,0.9-0.2
		c0.4,0,0.8,0.1,1,0.4C231.3,185.4,231.4,185.8,231.4,186.3z"/>
	<path class="st7" d="M236.6,187.5h-3.1c0,1.1,0.5,1.7,1.3,1.7c0.5,0,0.9-0.1,1.5-0.4c0.1,0.1,0.2,0.3,0.3,0.5
		c-0.5,0.4-1.2,0.6-1.8,0.6c-0.3,0-0.6-0.1-0.9-0.2c-0.2-0.1-0.4-0.3-0.6-0.5c-0.2-0.2-0.3-0.5-0.3-0.8s-0.1-0.7-0.1-1
		c0-0.4,0-0.7,0.1-1s0.2-0.6,0.4-0.8c0.2-0.2,0.4-0.4,0.6-0.5c0.2-0.1,0.5-0.2,0.8-0.2c0.3,0,0.6,0.1,0.8,0.2
		c0.2,0.1,0.4,0.3,0.6,0.5s0.3,0.4,0.4,0.7c0.1,0.3,0.1,0.5,0.1,0.8c0,0.1,0,0.2,0,0.3C236.6,187.3,236.6,187.4,236.6,187.5z
		 M233.5,186.9h2.4v-0.1c0-0.5-0.1-0.8-0.3-1.1s-0.5-0.4-0.9-0.4c-0.4,0-0.7,0.2-0.9,0.5S233.5,186.4,233.5,186.9z"/>
	<path class="st7" d="M237.8,185.1c0-0.2,0.2-0.3,0.3-0.4c0.4,0.1,0.6,0.4,0.7,0.9c0.3-0.6,0.7-0.9,1.3-0.9c0.1,0,0.3,0,0.5,0
		c0,0.3-0.1,0.5-0.2,0.7c-0.1,0-0.2,0-0.3,0c-0.5,0-0.9,0.3-1.2,0.9v3.3c-0.1,0-0.2,0-0.4,0s-0.3,0-0.4,0v-3.5
		C238.2,185.7,238.1,185.4,237.8,185.1z"/>
	<path class="st7" d="M244,189.7L244,189.7l-0.1-6.8l0.1-0.1l2,0c0.7,0,1.3,0.2,1.6,0.5c0.3,0.3,0.5,0.8,0.5,1.3
		c0,0.3-0.1,0.6-0.3,0.9c-0.2,0.3-0.4,0.4-0.7,0.5c0.2,0.1,0.4,0.1,0.5,0.2c0.2,0.1,0.3,0.2,0.4,0.4c0.1,0.2,0.2,0.3,0.3,0.5
		c0.1,0.2,0.1,0.4,0.1,0.7c0,0.2,0,0.5-0.1,0.7c-0.1,0.2-0.2,0.4-0.4,0.6c-0.2,0.2-0.4,0.3-0.7,0.4s-0.6,0.2-1,0.2L244,189.7z
		 M244.7,183.5v2.3h1.2c0.2,0,0.5,0,0.6-0.1c0.2-0.1,0.3-0.1,0.4-0.3c0.1-0.1,0.2-0.2,0.2-0.4c0-0.1,0.1-0.3,0.1-0.5
		c0-0.8-0.4-1.2-1.3-1.2c-0.3,0-0.6,0-0.8,0C245,183.5,244.8,183.5,244.7,183.5z M244.7,189.1l1.4,0c0.3,0,0.5,0,0.7-0.1
		s0.3-0.2,0.4-0.3c0.1-0.1,0.2-0.3,0.2-0.4c0-0.2,0.1-0.3,0.1-0.5c0-0.1,0-0.3-0.1-0.5s-0.1-0.3-0.3-0.4c-0.1-0.1-0.3-0.2-0.5-0.3
		c-0.2-0.1-0.4-0.1-0.7-0.1h-1.3V189.1z"/>
	<path class="st7" d="M253.3,187.5h-3.1c0,1.1,0.5,1.7,1.3,1.7c0.5,0,0.9-0.1,1.5-0.4c0.1,0.1,0.2,0.3,0.3,0.5
		c-0.5,0.4-1.2,0.6-1.8,0.6c-0.3,0-0.6-0.1-0.9-0.2c-0.2-0.1-0.4-0.3-0.6-0.5c-0.2-0.2-0.3-0.5-0.3-0.8s-0.1-0.7-0.1-1
		c0-0.4,0-0.7,0.1-1s0.2-0.6,0.4-0.8c0.2-0.2,0.4-0.4,0.6-0.5c0.2-0.1,0.5-0.2,0.8-0.2c0.3,0,0.6,0.1,0.8,0.2
		c0.2,0.1,0.4,0.3,0.6,0.5s0.3,0.4,0.4,0.7c0.1,0.3,0.1,0.5,0.1,0.8c0,0.1,0,0.2,0,0.3C253.4,187.3,253.4,187.4,253.3,187.5z
		 M250.2,186.9h2.4v-0.1c0-0.5-0.1-0.8-0.3-1.1s-0.5-0.4-0.9-0.4c-0.4,0-0.7,0.2-0.9,0.5S250.3,186.4,250.2,186.9z"/>
	<path class="st7" d="M254.6,185.1c0-0.2,0.2-0.3,0.3-0.4c0.4,0.1,0.6,0.4,0.7,0.9c0.3-0.6,0.7-0.9,1.3-0.9c0.1,0,0.3,0,0.5,0
		c0,0.3-0.1,0.5-0.2,0.7c-0.1,0-0.2,0-0.3,0c-0.5,0-0.9,0.3-1.2,0.9v3.3c-0.1,0-0.2,0-0.4,0s-0.3,0-0.4,0v-3.5
		C254.9,185.7,254.8,185.4,254.6,185.1z"/>
	<path class="st7" d="M261.7,187.5h-3.1c0,1.1,0.5,1.7,1.3,1.7c0.5,0,0.9-0.1,1.5-0.4c0.1,0.1,0.2,0.3,0.3,0.5
		c-0.5,0.4-1.2,0.6-1.8,0.6c-0.3,0-0.6-0.1-0.9-0.2c-0.2-0.1-0.4-0.3-0.6-0.5c-0.2-0.2-0.3-0.5-0.3-0.8s-0.1-0.7-0.1-1
		c0-0.4,0-0.7,0.1-1s0.2-0.6,0.4-0.8c0.2-0.2,0.4-0.4,0.6-0.5c0.2-0.1,0.5-0.2,0.8-0.2c0.3,0,0.6,0.1,0.8,0.2
		c0.2,0.1,0.4,0.3,0.6,0.5s0.3,0.4,0.4,0.7c0.1,0.3,0.1,0.5,0.1,0.8c0,0.1,0,0.2,0,0.3C261.7,187.3,261.7,187.4,261.7,187.5z
		 M258.6,186.9h2.4v-0.1c0-0.5-0.1-0.8-0.3-1.1s-0.5-0.4-0.9-0.4c-0.4,0-0.7,0.2-0.9,0.5S258.6,186.4,258.6,186.9z"/>
	<path class="st7" d="M264,185.5v4.2c-0.1,0-0.2,0-0.4,0c-0.1,0-0.3,0-0.4,0v-3.9c0-0.2,0-0.3-0.1-0.4c-0.1-0.1-0.2-0.1-0.3-0.1
		h-0.1c0-0.1,0-0.2,0-0.3c0-0.1,0-0.2,0-0.3c0.1,0,0.2,0,0.3,0s0.1,0,0.2,0h0.1c0.2,0,0.4,0.1,0.5,0.2
		C264,185.1,264,185.3,264,185.5z M263,183.1c0.1-0.1,0.3-0.1,0.5-0.1c0.2,0,0.3,0,0.4,0.1c0.1,0.1,0.1,0.2,0.1,0.4s0,0.3-0.1,0.4
		c-0.1,0.1-0.2,0.1-0.4,0.1c-0.2,0-0.3,0-0.4-0.1s-0.1-0.2-0.1-0.4C263,183.3,263,183.2,263,183.1z"/>
	<path class="st7" d="M268.4,186.5v-0.1c0-0.1,0-0.3-0.1-0.4s-0.1-0.3-0.2-0.4c-0.1-0.1-0.2-0.2-0.3-0.3c-0.1-0.1-0.3-0.1-0.5-0.1
		c-0.4,0-0.7,0.2-0.9,0.5c-0.2,0.3-0.3,0.8-0.3,1.5s0.1,1.1,0.3,1.4c0.2,0.3,0.5,0.5,0.9,0.5c0.4,0,0.8-0.2,1.4-0.6
		c0.2,0.1,0.3,0.3,0.4,0.5c-0.5,0.5-1.1,0.7-1.7,0.7c-0.3,0-0.6-0.1-0.8-0.2c-0.2-0.1-0.4-0.3-0.6-0.5c-0.2-0.2-0.3-0.5-0.4-0.8
		c-0.1-0.3-0.1-0.6-0.1-1c0-0.5,0.1-0.9,0.2-1.2c0.1-0.3,0.2-0.6,0.4-0.9c0.2-0.2,0.4-0.4,0.6-0.5c0.2-0.1,0.5-0.2,0.8-0.2
		c0.3,0,0.5,0,0.8,0.1c0.2,0.1,0.4,0.2,0.5,0.3c0.1,0.1,0.3,0.3,0.3,0.5s0.1,0.3,0.1,0.5c0,0.3-0.1,0.5-0.4,0.5
		C268.6,186.6,268.5,186.6,268.4,186.5z"/>
	<path class="st7" d="M274.2,186.3v2.5c0,0.4,0,0.7,0.1,0.9c-0.1,0.1-0.3,0.2-0.5,0.2c-0.3,0-0.4-0.2-0.4-0.5v-2.8
		c0-0.4-0.1-0.7-0.2-0.9s-0.3-0.3-0.6-0.3c-0.3,0-0.5,0.1-0.8,0.2c-0.3,0.1-0.5,0.3-0.7,0.6v3.5c-0.1,0-0.2,0-0.4,0
		c-0.1,0-0.3,0-0.4,0v-7.3l0.1-0.1h0.3c0.2,0,0.3,0,0.3,0.1c0.1,0.1,0.1,0.2,0.1,0.4v2.6c0.2-0.2,0.5-0.4,0.8-0.5
		c0.3-0.1,0.6-0.2,0.9-0.2c0.4,0,0.8,0.1,1,0.4S274.2,185.8,274.2,186.3z"/>
</g>
<g class="st2">
	<path class="st7" d="M234.8,201c0,0.2,0,0.4-0.1,0.5c-0.1,0.1-0.2,0.2-0.4,0.2h-3.2c-0.2-0.2-0.3-0.3-0.3-0.5
		c0-0.3,0.1-0.6,0.3-0.9c0.2-0.3,0.6-0.7,1-1l0.9-0.8c0.3-0.3,0.5-0.5,0.7-0.7c0.1-0.2,0.2-0.5,0.2-0.9c0-0.3-0.1-0.6-0.3-0.8
		s-0.5-0.3-0.8-0.3s-0.6,0.1-0.8,0.3c-0.2,0.2-0.4,0.4-0.6,0.7c-0.3,0-0.5-0.1-0.5-0.3c0.1-0.2,0.2-0.4,0.3-0.5s0.3-0.3,0.5-0.4
		c0.2-0.1,0.4-0.2,0.6-0.3c0.2-0.1,0.4-0.1,0.7-0.1c0.3,0,0.5,0,0.7,0.1c0.2,0.1,0.4,0.2,0.6,0.4s0.3,0.3,0.4,0.6
		c0.1,0.2,0.1,0.5,0.1,0.7c0,0.3,0,0.5-0.1,0.7c-0.1,0.2-0.2,0.4-0.3,0.5c-0.1,0.2-0.2,0.3-0.4,0.5c-0.2,0.1-0.3,0.3-0.5,0.5
		l-0.8,0.7c-0.7,0.6-1,1-1.1,1.3c0.2,0,0.4,0,0.6,0s0.4,0,0.6,0H234.8z"/>
	<path class="st7" d="M236.7,201.2l-0.2-0.2c-0.1-0.1-0.2-0.2-0.2-0.4c-0.1-0.2-0.1-0.4-0.2-0.6c-0.1-0.2-0.1-0.5-0.1-0.8
		c0-0.3,0-0.6,0-0.9c0-0.5,0.1-1,0.2-1.4c0.1-0.4,0.3-0.8,0.5-1s0.5-0.5,0.8-0.7c0.3-0.2,0.7-0.2,1.1-0.2c0.6,0,1,0.1,1.3,0.3
		c0,0.3-0.1,0.4-0.3,0.5c-0.3-0.1-0.7-0.2-1-0.2c-0.3,0-0.5,0.1-0.8,0.2c-0.2,0.1-0.4,0.3-0.5,0.5c-0.1,0.2-0.2,0.5-0.3,0.7
		c-0.1,0.3-0.1,0.6-0.1,0.9c0.4-0.4,1-0.7,1.5-0.7c0.6,0,1,0.2,1.4,0.5c0.3,0.4,0.5,0.9,0.5,1.6c0,0.3,0,0.6-0.1,0.9
		c-0.1,0.3-0.2,0.5-0.4,0.7c-0.2,0.2-0.4,0.4-0.6,0.5s-0.5,0.2-0.8,0.2C237.6,201.8,237.1,201.6,236.7,201.2z M238.2,198.1
		c-0.2,0-0.5,0.1-0.7,0.2c-0.3,0.1-0.5,0.3-0.7,0.5v0.2c0,0.3,0,0.6,0.1,0.9s0.1,0.5,0.3,0.7s0.3,0.4,0.4,0.5
		c0.2,0.1,0.4,0.2,0.6,0.2c0.4,0,0.7-0.1,0.9-0.4c0.2-0.3,0.3-0.7,0.3-1.2C239.4,198.6,239,198.1,238.2,198.1z"/>
	<path class="st7" d="M241.4,201.7c-0.1-0.1-0.1-0.2-0.1-0.4c0-0.1,0-0.2,0-0.3s0.1-0.1,0.1-0.2s0.1-0.1,0.2-0.1c0.1,0,0.2,0,0.2,0
		c0.1,0,0.2,0,0.2,0c0.1,0,0.1,0,0.2,0.1c0.1,0,0.1,0.1,0.1,0.2c0,0.1,0,0.2,0,0.3c0,0.1,0,0.2,0,0.3c0,0.1-0.1,0.1-0.1,0.2
		c0,0-0.1,0.1-0.2,0.1c-0.1,0-0.2,0-0.3,0C241.7,201.8,241.6,201.7,241.4,201.7z"/>
</g>
<g class="st2">
	<path class="st7" d="M247.5,195.2c0,0.1,0,0.2,0,0.3c0,0.2-0.1,0.4-0.3,0.4h-1.8c-0.1,0-0.2,0-0.3,0s-0.2,0-0.2,0v0.6l-0.1,1.2
		c0.3-0.2,0.7-0.3,1.1-0.3c0.6,0,1.1,0.2,1.4,0.5s0.5,0.9,0.5,1.6c0,0.3-0.1,0.7-0.2,0.9s-0.3,0.5-0.5,0.7c-0.2,0.2-0.4,0.3-0.7,0.5
		c-0.3,0.1-0.6,0.2-0.9,0.2c-0.7,0-1.2-0.2-1.7-0.6c0-0.2,0.1-0.4,0.3-0.5c0.2,0.2,0.5,0.3,0.7,0.4c0.2,0.1,0.5,0.1,0.7,0.1
		c0.4,0,0.8-0.1,1-0.4s0.4-0.7,0.4-1.2c0-0.3,0-0.5-0.1-0.7c-0.1-0.2-0.2-0.3-0.3-0.5s-0.3-0.2-0.5-0.3c-0.2-0.1-0.4-0.1-0.6-0.1
		c-0.4,0-0.8,0.2-1.2,0.5c-0.1,0-0.3-0.1-0.4-0.2l0.1-3l0.1-0.1H247.5z"/>
</g>
<g class="st2">
	<path class="st7" d="M252,195.2c0.3,0.3,0.5,0.9,0.5,1.6c0,0.7-0.1,1.2-0.4,1.5s-0.6,0.5-1.1,0.5c-0.5,0-0.8-0.2-1.1-0.5
		s-0.4-0.8-0.4-1.5c0-0.7,0.1-1.2,0.4-1.5c0.3-0.3,0.6-0.5,1.1-0.5C251.4,194.8,251.8,194.9,252,195.2z M251,195.3
		c-0.5,0-0.8,0.5-0.8,1.5c0,1,0.3,1.5,0.8,1.5c0.5,0,0.8-0.5,0.8-1.5C251.8,195.8,251.5,195.3,251,195.3z M251.1,201.7l3.8-6.8
		c0.1,0,0.2,0,0.4,0c0.1,0,0.1,0,0.2,0s0.1,0,0.2,0l-3.8,6.8c0,0-0.1,0-0.2,0c-0.1,0-0.1,0-0.2,0s-0.1,0-0.2,0
		S251.1,201.7,251.1,201.7z M256.6,201.4c-0.3,0.3-0.6,0.4-1,0.4c-0.5,0-0.8-0.2-1.1-0.5s-0.4-0.8-0.4-1.5c0-0.7,0.1-1.2,0.4-1.5
		c0.3-0.3,0.6-0.5,1.1-0.5c0.5,0,0.9,0.2,1.1,0.5c0.3,0.3,0.4,0.8,0.4,1.5C257.1,200.6,257,201.1,256.6,201.4z M255.6,198.4
		c-0.5,0-0.8,0.5-0.8,1.5c0,1,0.3,1.5,0.8,1.5c0.5,0,0.8-0.5,0.8-1.5C256.4,198.9,256.2,198.4,255.6,198.4z"/>
</g>
</svg>
