<?xml version="1.0" encoding="utf-8"?>
<!-- Generator: Adobe Illustrator 22.0.0, SVG Export Plug-In . SVG Version: 6.00 Build 0)  -->
<svg version="1.1" id="Layer_1" xmlns="http://www.w3.org/2000/svg" xmlns:xlink="http://www.w3.org/1999/xlink" x="0px" y="0px"
	 viewBox="0 0 360 360" style="enable-background:new 0 0 360 360;" xml:space="preserve">
<style type="text/css">
	.st0{opacity:0.2;}
	.st1{fill:url(#SVGID_1_);}
	.st2{fill:none;stroke:url(#SVGID_2_);stroke-width:0.9576;stroke-miterlimit:10;}
	.st3{fill:url(#SVGID_3_);}
	.st4{fill:url(#SVGID_4_);}
	.st5{fill:none;stroke:url(#SVGID_5_);stroke-width:0.9576;stroke-miterlimit:10;}
	.st6{fill:url(#SVGID_6_);}
	.st7{fill:none;stroke:url(#SVGID_7_);stroke-width:0.9576;stroke-miterlimit:10;}
	.st8{fill:url(#SVGID_8_);}
	.st9{fill:none;stroke:url(#SVGID_9_);stroke-width:0.9576;stroke-miterlimit:10;}
	.st10{fill:url(#SVGID_10_);}
	.st11{fill:none;stroke:url(#SVGID_11_);stroke-width:0.9576;stroke-miterlimit:10;}
	.st12{opacity:0.6;}
	.st13{fill:#006AEA;}
	.st14{fill:none;stroke:#FFFFFF;stroke-width:0.9576;stroke-linecap:round;stroke-linejoin:round;stroke-miterlimit:10;}
	
		.st15{fill:none;stroke:#FFFFFF;stroke-width:0.9576;stroke-linecap:round;stroke-linejoin:round;stroke-miterlimit:10;stroke-dasharray:0.8236,2.4708;}
	.st16{fill:url(#SVGID_12_);}
	.st17{fill:none;stroke:url(#SVGID_13_);stroke-width:0.9576;stroke-miterlimit:10;}
	.st18{fill:none;stroke:#FFFFFF;stroke-width:0.9576;stroke-linejoin:round;stroke-miterlimit:10;}
	.st19{fill:url(#SVGID_14_);}
	.st20{fill:none;stroke:url(#SVGID_15_);stroke-width:0.9576;stroke-miterlimit:10;}
	.st21{fill:url(#SVGID_16_);}
	.st22{fill:none;stroke:url(#SVGID_17_);stroke-width:0.9576;stroke-miterlimit:10;}
	.st23{fill:none;stroke:#FFFFFF;stroke-width:0.9576;stroke-miterlimit:10;}
</style>
<g class="st0">
	
		<linearGradient id="SVGID_1_" gradientUnits="userSpaceOnUse" x1="60.7156" y1="522.05" x2="141.8198" y2="522.05" gradientTransform="matrix(1 0 0 1 0 -432)">
		<stop  offset="0" style="stop-color:#005AFF"/>
		<stop  offset="1" style="stop-color:#005AFF;stop-opacity:0.9"/>
	</linearGradient>
	<path class="st1" d="M137.3,79.6c-1-3.4,0.5-7.7-1.2-10.6c-1.8-3-6.3-3.7-8.8-6c-2.5-2.4-3.4-6.9-6.4-8.5s-7.3,0-10.6-0.8
		c-3.3-0.8-6.3-4.3-9.8-4.2c-3.3,0.1-6.3,3.6-9.6,4.6c-3.4,1-7.7-0.5-10.6,1.2c-3,1.8-3.7,6.3-6,8.8c-2.4,2.5-6.9,3.4-8.5,6.4
		s0,7.3-0.8,10.6c-0.8,3.3-4.3,6.3-4.2,9.8c0.1,3.3,3.6,6.3,4.6,9.6c1,3.4-0.5,7.7,1.2,10.6c1.8,3,6.3,3.7,8.8,6
		c2.5,2.4,3.4,6.9,6.4,8.5s7.3,0,10.6,0.8c3.3,0.8,6.3,4.3,9.8,4.2c3.3-0.1,6.3-3.6,9.6-4.6c3.4-1,7.7,0.5,10.6-1.2
		c3-1.8,3.7-6.3,6-8.8c2.4-2.5,6.9-3.4,8.5-6.4s0-7.3,0.8-10.6c0.8-3.3,4.3-6.3,4.2-9.8C141.8,85.8,138.3,82.9,137.3,79.6z"/>
	
		<linearGradient id="SVGID_2_" gradientUnits="userSpaceOnUse" x1="60.2368" y1="522.05" x2="142.2986" y2="522.05" gradientTransform="matrix(1 0 0 1 0 -432)">
		<stop  offset="0" style="stop-color:#005AFF"/>
		<stop  offset="1" style="stop-color:#005AFF;stop-opacity:0.9"/>
	</linearGradient>
	<path class="st2" d="M137.3,79.6c-1-3.4,0.5-7.7-1.2-10.6c-1.8-3-6.3-3.7-8.8-6c-2.5-2.4-3.4-6.9-6.4-8.5s-7.3,0-10.6-0.8
		c-3.3-0.8-6.3-4.3-9.8-4.2c-3.3,0.1-6.3,3.6-9.6,4.6c-3.4,1-7.7-0.5-10.6,1.2c-3,1.8-3.7,6.3-6,8.8c-2.4,2.5-6.9,3.4-8.5,6.4
		s0,7.3-0.8,10.6c-0.8,3.3-4.3,6.3-4.2,9.8c0.1,3.3,3.6,6.3,4.6,9.6c1,3.4-0.5,7.7,1.2,10.6c1.8,3,6.3,3.7,8.8,6
		c2.5,2.4,3.4,6.9,6.4,8.5s7.3,0,10.6,0.8c3.3,0.8,6.3,4.3,9.8,4.2c3.3-0.1,6.3-3.6,9.6-4.6c3.4-1,7.7,0.5,10.6-1.2
		c3-1.8,3.7-6.3,6-8.8c2.4-2.5,6.9-3.4,8.5-6.4s0-7.3,0.8-10.6c0.8-3.3,4.3-6.3,4.2-9.8C141.8,85.8,138.3,82.9,137.3,79.6z"/>
</g>
<g class="st0">
	
		<linearGradient id="SVGID_3_" gradientUnits="userSpaceOnUse" x1="139.4979" y1="493.05" x2="220.6021" y2="493.05" gradientTransform="matrix(1 0 0 1 0 -432)">
		<stop  offset="0" style="stop-color:#005AFF"/>
		<stop  offset="1" style="stop-color:#005AFF;stop-opacity:0.9"/>
	</linearGradient>
	<path class="st3" d="M216,50.6c-1-3.4,0.5-7.7-1.2-10.6c-1.8-3-6.3-3.7-8.8-6c-2.5-2.4-3.4-6.9-6.4-8.5s-7.3,0-10.6-0.8
		s-6.3-4.3-9.8-4.2c-3.3,0.1-6.3,3.6-9.6,4.6c-3.4,1-7.7-0.5-10.6,1.2c-3,1.8-3.7,6.3-6,8.8c-2.4,2.5-6.9,3.4-8.5,6.4
		s0,7.3-0.8,10.6c-0.8,3.3-4.3,6.3-4.2,9.8c0.1,3.3,3.6,6.3,4.6,9.6c1,3.4-0.5,7.7,1.2,10.6c1.8,3,6.3,3.7,8.8,6
		c2.5,2.4,3.4,6.9,6.4,8.5s7.3,0,10.6,0.8s6.3,4.3,9.8,4.2c3.3-0.1,6.3-3.6,9.6-4.6c3.4-1,7.7,0.5,10.6-1.2c3-1.8,3.7-6.3,6-8.8
		c2.4-2.5,6.9-3.4,8.5-6.4s0-7.3,0.8-10.6c0.8-3.3,4.3-6.3,4.2-9.8C220.5,56.9,217,54,216,50.6z"/>
</g>
<g class="st0">
	
		<linearGradient id="SVGID_4_" gradientUnits="userSpaceOnUse" x1="218.1979" y1="522.05" x2="299.3021" y2="522.05" gradientTransform="matrix(1 0 0 1 0 -432)">
		<stop  offset="0" style="stop-color:#005AFF"/>
		<stop  offset="1" style="stop-color:#005AFF;stop-opacity:0.9"/>
	</linearGradient>
	<path class="st4" d="M294.7,79.6c-1-3.4,0.5-7.7-1.2-10.6c-1.8-3-6.3-3.7-8.8-6c-2.5-2.4-3.4-6.9-6.4-8.5s-7.3,0-10.6-0.8
		c-3.3-0.8-6.3-4.3-9.8-4.2c-3.3,0.1-6.3,3.6-9.6,4.6c-3.4,1-7.7-0.5-10.6,1.2c-3,1.8-3.7,6.3-6,8.8c-2.4,2.5-6.9,3.4-8.5,6.4
		s0,7.3-0.8,10.6c-0.8,3.3-4.3,6.3-4.2,9.8c0.1,3.3,3.6,6.3,4.6,9.6c1,3.4-0.5,7.7,1.2,10.6c1.8,3,6.3,3.7,8.8,6
		c2.5,2.4,3.4,6.9,6.4,8.5s7.3,0,10.6,0.8s6.3,4.3,9.8,4.2c3.3-0.1,6.3-3.6,9.6-4.6c3.4-1,7.7,0.5,10.6-1.2c3-1.8,3.7-6.3,6-8.8
		c2.4-2.5,6.9-3.4,8.5-6.4s0-7.3,0.8-10.6c0.8-3.3,4.3-6.3,4.2-9.8C299.2,85.8,295.7,82.9,294.7,79.6z"/>
	
		<linearGradient id="SVGID_5_" gradientUnits="userSpaceOnUse" x1="217.7191" y1="522.05" x2="299.7809" y2="522.05" gradientTransform="matrix(1 0 0 1 0 -432)">
		<stop  offset="0" style="stop-color:#005AFF"/>
		<stop  offset="1" style="stop-color:#005AFF;stop-opacity:0.9"/>
	</linearGradient>
	<path class="st5" d="M294.7,79.6c-1-3.4,0.5-7.7-1.2-10.6c-1.8-3-6.3-3.7-8.8-6c-2.5-2.4-3.4-6.9-6.4-8.5s-7.3,0-10.6-0.8
		c-3.3-0.8-6.3-4.3-9.8-4.2c-3.3,0.1-6.3,3.6-9.6,4.6c-3.4,1-7.7-0.5-10.6,1.2c-3,1.8-3.7,6.3-6,8.8c-2.4,2.5-6.9,3.4-8.5,6.4
		s0,7.3-0.8,10.6c-0.8,3.3-4.3,6.3-4.2,9.8c0.1,3.3,3.6,6.3,4.6,9.6c1,3.4-0.5,7.7,1.2,10.6c1.8,3,6.3,3.7,8.8,6
		c2.5,2.4,3.4,6.9,6.4,8.5s7.3,0,10.6,0.8s6.3,4.3,9.8,4.2c3.3-0.1,6.3-3.6,9.6-4.6c3.4-1,7.7,0.5,10.6-1.2c3-1.8,3.7-6.3,6-8.8
		c2.4-2.5,6.9-3.4,8.5-6.4s0-7.3,0.8-10.6c0.8-3.3,4.3-6.3,4.2-9.8C299.2,85.8,295.7,82.9,294.7,79.6z"/>
</g>
<g class="st0">
	
		<linearGradient id="SVGID_6_" gradientUnits="userSpaceOnUse" x1="260.3893" y1="594.45" x2="341.4935" y2="594.45" gradientTransform="matrix(1 0 0 1 0 -432)">
		<stop  offset="0" style="stop-color:#005AFF"/>
		<stop  offset="1" style="stop-color:#005AFF;stop-opacity:0.9"/>
	</linearGradient>
	<path class="st6" d="M337,152c-1-3.4,0.5-7.7-1.2-10.6c-1.8-3-6.3-3.7-8.8-6c-2.5-2.4-3.4-6.9-6.4-8.5c-3-1.6-7.3,0-10.6-0.8
		c-3.3-0.8-6.3-4.3-9.8-4.2c-3.3,0.1-6.3,3.6-9.6,4.6c-3.4,1-7.7-0.5-10.6,1.2c-3,1.8-3.7,6.3-6,8.8c-2.4,2.5-6.9,3.4-8.5,6.4
		s0,7.3-0.8,10.6s-4.3,6.3-4.2,9.8c0.1,3.3,3.6,6.3,4.6,9.6c1,3.4-0.5,7.7,1.2,10.6c1.8,3,6.3,3.7,8.8,6c2.5,2.4,3.4,6.9,6.4,8.5
		s7.3,0,10.6,0.8c3.3,0.8,6.3,4.3,9.8,4.2c3.3-0.1,6.3-3.6,9.6-4.6c3.4-1,7.7,0.5,10.6-1.2c3-1.8,3.7-6.3,6-8.8
		c2.4-2.5,6.9-3.4,8.5-6.4s0-7.3,0.8-10.6s4.3-6.3,4.2-9.8C341.5,158.3,337.9,155.4,337,152z"/>
	
		<linearGradient id="SVGID_7_" gradientUnits="userSpaceOnUse" x1="259.9105" y1="594.45" x2="341.9723" y2="594.45" gradientTransform="matrix(1 0 0 1 0 -432)">
		<stop  offset="0" style="stop-color:#005AFF"/>
		<stop  offset="1" style="stop-color:#005AFF;stop-opacity:0.9"/>
	</linearGradient>
	<path class="st7" d="M337,152c-1-3.4,0.5-7.7-1.2-10.6c-1.8-3-6.3-3.7-8.8-6c-2.5-2.4-3.4-6.9-6.4-8.5c-3-1.6-7.3,0-10.6-0.8
		c-3.3-0.8-6.3-4.3-9.8-4.2c-3.3,0.1-6.3,3.6-9.6,4.6c-3.4,1-7.7-0.5-10.6,1.2c-3,1.8-3.7,6.3-6,8.8c-2.4,2.5-6.9,3.4-8.5,6.4
		s0,7.3-0.8,10.6s-4.3,6.3-4.2,9.8c0.1,3.3,3.6,6.3,4.6,9.6c1,3.4-0.5,7.7,1.2,10.6c1.8,3,6.3,3.7,8.8,6c2.5,2.4,3.4,6.9,6.4,8.5
		s7.3,0,10.6,0.8c3.3,0.8,6.3,4.3,9.8,4.2c3.3-0.1,6.3-3.6,9.6-4.6c3.4-1,7.7,0.5,10.6-1.2c3-1.8,3.7-6.3,6-8.8
		c2.4-2.5,6.9-3.4,8.5-6.4s0-7.3,0.8-10.6s4.3-6.3,4.2-9.8C341.5,158.3,337.9,155.4,337,152z"/>
</g>
<g class="st0">
	
		<linearGradient id="SVGID_8_" gradientUnits="userSpaceOnUse" x1="181.2979" y1="730.75" x2="262.4021" y2="730.75" gradientTransform="matrix(1 0 0 1 0 -432)">
		<stop  offset="0" style="stop-color:#005AFF"/>
		<stop  offset="1" style="stop-color:#005AFF;stop-opacity:0.9"/>
	</linearGradient>
	<path class="st8" d="M257.8,288.3c-1-3.4,0.5-7.7-1.2-10.6c-1.8-3-6.3-3.7-8.8-6c-2.5-2.4-3.4-6.9-6.4-8.5s-7.3,0-10.6-0.8
		s-6.3-4.3-9.8-4.2c-3.3,0.1-6.3,3.6-9.6,4.6c-3.4,1-7.7-0.5-10.6,1.2c-3,1.8-3.7,6.3-6,8.8c-2.4,2.5-6.9,3.4-8.5,6.4
		s0,7.3-0.8,10.6c-0.8,3.3-4.3,6.3-4.2,9.8c0.1,3.3,3.6,6.3,4.6,9.6c1,3.4-0.5,7.7,1.2,10.6c1.8,3,6.3,3.7,8.8,6
		c2.5,2.4,3.4,6.9,6.4,8.5s7.3,0,10.6,0.8s6.3,4.3,9.8,4.2c3.3-0.1,6.3-3.6,9.6-4.6c3.4-1,7.7,0.5,10.6-1.2c3-1.8,3.7-6.3,6-8.8
		c2.4-2.5,6.9-3.4,8.5-6.4c1.6-3,0-7.3,0.8-10.6c0.8-3.3,4.3-6.3,4.2-9.8C262.4,294.6,258.8,291.7,257.8,288.3z"/>
	
		<linearGradient id="SVGID_9_" gradientUnits="userSpaceOnUse" x1="180.8191" y1="730.75" x2="262.8809" y2="730.75" gradientTransform="matrix(1 0 0 1 0 -432)">
		<stop  offset="0" style="stop-color:#005AFF"/>
		<stop  offset="1" style="stop-color:#005AFF;stop-opacity:0.9"/>
	</linearGradient>
	<path class="st9" d="M257.8,288.3c-1-3.4,0.5-7.7-1.2-10.6c-1.8-3-6.3-3.7-8.8-6c-2.5-2.4-3.4-6.9-6.4-8.5s-7.3,0-10.6-0.8
		s-6.3-4.3-9.8-4.2c-3.3,0.1-6.3,3.6-9.6,4.6c-3.4,1-7.7-0.5-10.6,1.2c-3,1.8-3.7,6.3-6,8.8c-2.4,2.5-6.9,3.4-8.5,6.4
		s0,7.3-0.8,10.6c-0.8,3.3-4.3,6.3-4.2,9.8c0.1,3.3,3.6,6.3,4.6,9.6c1,3.4-0.5,7.7,1.2,10.6c1.8,3,6.3,3.7,8.8,6
		c2.5,2.4,3.4,6.9,6.4,8.5s7.3,0,10.6,0.8s6.3,4.3,9.8,4.2c3.3-0.1,6.3-3.6,9.6-4.6c3.4-1,7.7,0.5,10.6-1.2c3-1.8,3.7-6.3,6-8.8
		c2.4-2.5,6.9-3.4,8.5-6.4c1.6-3,0-7.3,0.8-10.6c0.8-3.3,4.3-6.3,4.2-9.8C262.4,294.6,258.8,291.7,257.8,288.3z"/>
</g>
<g class="st0">
	
		<linearGradient id="SVGID_10_" gradientUnits="userSpaceOnUse" x1="32.9059" y1="677.25" x2="114.0101" y2="677.25" gradientTransform="matrix(1 0 0 1 0 -432)">
		<stop  offset="0" style="stop-color:#005AFF"/>
		<stop  offset="1" style="stop-color:#005AFF;stop-opacity:0.9"/>
	</linearGradient>
	<path class="st10" d="M109.5,234.8c-1-3.4,0.5-7.7-1.2-10.6c-1.8-3-6.3-3.7-8.8-6c-2.5-2.4-3.4-6.9-6.4-8.5s-7.3,0-10.6-0.8
		c-3.3-0.8-6.3-4.3-9.8-4.2c-3.3,0.1-6.3,3.6-9.6,4.6c-3.4,1-7.7-0.5-10.6,1.2c-3,1.8-3.7,6.3-6,8.8c-2.4,2.5-6.9,3.4-8.5,6.4
		s0,7.3-0.8,10.6s-4.3,6.3-4.2,9.8c0.1,3.3,3.6,6.3,4.6,9.6c1,3.4-0.5,7.7,1.2,10.6c1.8,3,6.3,3.7,8.8,6c2.5,2.4,3.4,6.9,6.4,8.5
		s7.3,0,10.6,0.8c3.3,0.8,6.3,4.3,9.8,4.2c3.3-0.1,6.3-3.6,9.6-4.6c3.4-1,7.7,0.5,10.6-1.2c3-1.8,3.7-6.3,6-8.8
		c2.4-2.5,6.9-3.4,8.5-6.4s0-7.3,0.8-10.6c0.8-3.3,4.3-6.3,4.2-9.8C114,241.1,110.4,238.2,109.5,234.8z"/>
	
		<linearGradient id="SVGID_11_" gradientUnits="userSpaceOnUse" x1="32.4271" y1="677.25" x2="114.4889" y2="677.25" gradientTransform="matrix(1 0 0 1 0 -432)">
		<stop  offset="0" style="stop-color:#005AFF"/>
		<stop  offset="1" style="stop-color:#005AFF;stop-opacity:0.9"/>
	</linearGradient>
	<path class="st11" d="M109.5,234.8c-1-3.4,0.5-7.7-1.2-10.6c-1.8-3-6.3-3.7-8.8-6c-2.5-2.4-3.4-6.9-6.4-8.5s-7.3,0-10.6-0.8
		c-3.3-0.8-6.3-4.3-9.8-4.2c-3.3,0.1-6.3,3.6-9.6,4.6c-3.4,1-7.7-0.5-10.6,1.2c-3,1.8-3.7,6.3-6,8.8c-2.4,2.5-6.9,3.4-8.5,6.4
		s0,7.3-0.8,10.6s-4.3,6.3-4.2,9.8c0.1,3.3,3.6,6.3,4.6,9.6c1,3.4-0.5,7.7,1.2,10.6c1.8,3,6.3,3.7,8.8,6c2.5,2.4,3.4,6.9,6.4,8.5
		s7.3,0,10.6,0.8c3.3,0.8,6.3,4.3,9.8,4.2c3.3-0.1,6.3-3.6,9.6-4.6c3.4-1,7.7,0.5,10.6-1.2c3-1.8,3.7-6.3,6-8.8
		c2.4-2.5,6.9-3.4,8.5-6.4s0-7.3,0.8-10.6c0.8-3.3,4.3-6.3,4.2-9.8C114,241.1,110.4,238.2,109.5,234.8z"/>
</g>
<g class="st12">
	<path class="st13" d="M108.1,245.2c0-3.2,2.4-6.7,1.6-9.7c-0.8-3.1-4.7-4.9-6.2-7.6c-1.6-2.7-1.2-6.9-3.4-9.2
		c-2.2-2.2-6.4-1.9-9.2-3.4c-2.7-1.6-4.5-5.4-7.6-6.2c-3-0.8-6.4,1.6-9.7,1.6c-3.2,0-6.7-2.4-9.7-1.6c-3.1,0.8-4.9,4.7-7.6,6.2
		c-2.7,1.6-6.9,1.2-9.2,3.4c-2.2,2.2-1.9,6.4-3.4,9.2c-1.6,2.7-5.4,4.5-6.2,7.6c-0.8,3,1.6,6.4,1.6,9.7c0,3.2-2.4,6.7-1.6,9.7
		c0.8,3.1,4.7,4.9,6.2,7.6c1.6,2.7,1.2,6.9,3.4,9.2s6.4,1.9,9.2,3.4c2.7,1.6,4.5,5.4,7.6,6.2c3,0.8,6.4-1.6,9.7-1.6
		c3.2,0,6.7,2.4,9.7,1.6c3.1-0.8,4.9-4.7,7.6-6.2c2.7-1.6,6.9-1.2,9.2-3.4c2.2-2.2,1.9-6.4,3.4-9.2c1.6-2.7,5.4-4.5,6.2-7.6
		C110.5,251.9,108.1,248.4,108.1,245.2z"/>
</g>
<g>
	<path class="st14" d="M55.3,238.4c4,2.4,8.2,2.3,12.2-0.2c2.4-1.5,4.8-3.9,7.3-3.5c2.1,0.3,4,2.6,6,3.9c3.6,2.5,7.6,1.9,11.4,0.6"
		/>
	<path class="st14" d="M55.3,246.1c4,2.4,8.2,2.3,12.2-0.2c2.4-1.5,4.8-3.9,7.3-3.5c2.1,0.3,4,2.6,6,3.9c3.6,2.5,7.6,1.9,11.4,0.6"
		/>
	<path class="st15" d="M55.3,253.7c4,2.4,8.2,2.3,12.2-0.2c2.4-1.5,4.8-3.9,7.3-3.5c2.1,0.3,4,2.6,6,3.9c3.6,2.5,7.6,1.9,11.4,0.6"
		/>
</g>
<g>
	<g class="st12">
		<path class="st13" d="M214.4,61c0-3.2,2.4-6.7,1.6-9.7c-0.8-3.1-4.7-4.9-6.2-7.6c-1.6-2.7-1.2-6.9-3.4-9.2
			c-2.2-2.2-6.4-1.9-9.2-3.4c-2.7-1.6-4.5-5.4-7.6-6.2c-3-0.8-6.4,1.6-9.7,1.6c-3.2,0-6.7-2.4-9.7-1.6c-3.1,0.8-4.9,4.7-7.6,6.2
			c-2.7,1.6-6.9,1.2-9.2,3.4c-2.2,2.2-1.9,6.4-3.4,9.2c-1.6,2.7-5.4,4.5-6.2,7.6c-0.8,3,1.6,6.4,1.6,9.7c0,3.2-2.4,6.7-1.6,9.7
			c0.8,3.1,4.7,4.9,6.2,7.6c1.6,2.7,1.2,6.9,3.4,9.2c2.2,2.2,6.4,1.9,9.2,3.4c2.7,1.6,4.5,5.4,7.6,6.2c3,0.8,6.4-1.6,9.7-1.6
			c3.2,0,6.7,2.4,9.7,1.6c3.1-0.8,4.9-4.7,7.6-6.2c2.7-1.6,6.9-1.2,9.2-3.4c2.2-2.2,1.9-6.4,3.4-9.2c1.6-2.7,5.4-4.5,6.2-7.6
			C216.8,67.7,214.4,64.2,214.4,61z"/>
	</g>
	<g>
		<g>
			<path class="st14" d="M171.4,72.2c0,3.5,2.9,6.4,6.4,6.4s6.4-2.9,6.4-6.4c0-4.5,2-6.4,4-8.3c2-1.9,4-3.9,4-8.4
				c0-6.7-5.4-12.1-12.1-12.1S168,48.8,168,55.5"/>
		</g>
	</g>
	<path class="st14" d="M172,65.8c0.7,0.6,1.6,0.9,2.6,0.9c2.2,0,4-1.8,4-4c0-2.2-1.8-4-4-4v-2.5c0-3.3,2.7-6,6-6s6,2.7,6,6"/>
</g>
<g class="st12">
	<path class="st13" d="M335.4,162.4c0-3.2,2.4-6.7,1.6-9.7c-0.8-3.1-4.7-4.9-6.2-7.6c-1.6-2.7-1.2-6.9-3.4-9.2
		c-2.2-2.2-6.4-1.9-9.2-3.4c-2.7-1.6-4.5-5.4-7.6-6.2c-3-0.8-6.4,1.6-9.7,1.6c-3.2,0-6.7-2.4-9.7-1.6c-3.1,0.8-4.9,4.7-7.6,6.2
		c-2.7,1.6-6.9,1.2-9.2,3.4c-2.2,2.2-1.9,6.4-3.4,9.2c-1.6,2.7-5.4,4.5-6.2,7.6c-0.8,3,1.6,6.4,1.6,9.7c0,3.2-2.4,6.7-1.6,9.7
		c0.8,3.1,4.7,4.9,6.2,7.6c1.6,2.7,1.2,6.9,3.4,9.2c2.2,2.2,6.4,1.9,9.2,3.4c2.7,1.6,4.5,5.4,7.6,6.2c3,0.8,6.4-1.6,9.7-1.6
		c3.2,0,6.7,2.4,9.7,1.6c3.1-0.8,4.9-4.7,7.6-6.2c2.7-1.6,6.9-1.2,9.2-3.4c2.2-2.2,1.9-6.4,3.4-9.2c1.6-2.7,5.4-4.5,6.2-7.6
		C337.8,169.1,335.4,165.6,335.4,162.4z"/>
</g>
<path class="st14" d="M309.9,170.1c6.8-3.5,10.1-9.9,10.1-9.9s-7-8.6-15.1-10c-1.3,0.5-2,2.7-3.9,2.7"/>
<path class="st14" d="M301,152.9c-1.9,0-2.6-2.2-3.9-2.7c-8.1,1.5-15.1,10-15.1,10s3.3,6.5,10.1,9.9"/>
<path class="st14" d="M312,160.6v3.3c0,5.9-4.8,10.8-10.8,10.8h-0.4c-5.9,0-10.8-4.8-10.8-10.8v-3.3"/>
<line class="st14" x1="301" y1="167.2" x2="301" y2="161.9"/>
<path class="st14" d="M301,161.6c-1.5,0-2.6-2-4.3-2c-1.7,0-7.9,1.6-14.3,0.6"/>
<path class="st14" d="M301,161.6c1.5,0,2.6-2,4.3-2c1.7,0,7.9,1.6,14.3,0.6"/>
<g class="st0">
	
		<linearGradient id="SVGID_12_" gradientUnits="userSpaceOnUse" x1="18.4979" y1="594.4" x2="99.6021" y2="594.4" gradientTransform="matrix(1 0 0 1 0 -432)">
		<stop  offset="0" style="stop-color:#005AFF"/>
		<stop  offset="1" style="stop-color:#005AFF;stop-opacity:0.9"/>
	</linearGradient>
	<path class="st16" d="M95,151.9c-1-3.4,0.5-7.7-1.2-10.6c-1.8-3-6.3-3.7-8.8-6c-2.5-2.4-3.4-6.9-6.4-8.5s-7.3,0-10.6-0.8
		s-6.3-4.3-9.8-4.2c-3.3,0.1-6.3,3.6-9.6,4.6c-3.4,1-7.7-0.5-10.6,1.2c-3,1.8-3.7,6.3-6,8.8c-2.4,2.5-6.9,3.4-8.5,6.4
		s0,7.3-0.8,10.6c-0.8,3.3-4.3,6.3-4.2,9.8c0.1,3.3,3.6,6.3,4.6,9.6c1,3.4-0.5,7.7,1.2,10.6c1.8,3,6.3,3.7,8.8,6
		c2.5,2.4,3.4,6.9,6.4,8.5s7.3,0,10.6,0.8s6.3,4.3,9.8,4.2c3.3-0.1,6.3-3.6,9.6-4.6c3.4-1,7.7,0.5,10.6-1.2c3-1.8,3.7-6.3,6-8.8
		c2.4-2.5,6.9-3.4,8.5-6.4c1.6-3,0-7.3,0.8-10.6c0.8-3.3,4.3-6.3,4.2-9.8C99.6,158.3,96,155.4,95,151.9z"/>
	
		<linearGradient id="SVGID_13_" gradientUnits="userSpaceOnUse" x1="18.0191" y1="594.4" x2="100.0809" y2="594.4" gradientTransform="matrix(1 0 0 1 0 -432)">
		<stop  offset="0" style="stop-color:#005AFF"/>
		<stop  offset="1" style="stop-color:#005AFF;stop-opacity:0.9"/>
	</linearGradient>
	<path class="st17" d="M95,151.9c-1-3.4,0.5-7.7-1.2-10.6c-1.8-3-6.3-3.7-8.8-6c-2.5-2.4-3.4-6.9-6.4-8.5s-7.3,0-10.6-0.8
		s-6.3-4.3-9.8-4.2c-3.3,0.1-6.3,3.6-9.6,4.6c-3.4,1-7.7-0.5-10.6,1.2c-3,1.8-3.7,6.3-6,8.8c-2.4,2.5-6.9,3.4-8.5,6.4
		s0,7.3-0.8,10.6c-0.8,3.3-4.3,6.3-4.2,9.8c0.1,3.3,3.6,6.3,4.6,9.6c1,3.4-0.5,7.7,1.2,10.6c1.8,3,6.3,3.7,8.8,6
		c2.5,2.4,3.4,6.9,6.4,8.5s7.3,0,10.6,0.8s6.3,4.3,9.8,4.2c3.3-0.1,6.3-3.6,9.6-4.6c3.4-1,7.7,0.5,10.6-1.2c3-1.8,3.7-6.3,6-8.8
		c2.4-2.5,6.9-3.4,8.5-6.4c1.6-3,0-7.3,0.8-10.6c0.8-3.3,4.3-6.3,4.2-9.8C99.6,158.3,96,155.4,95,151.9z"/>
</g>
<g class="st12">
	<path class="st13" d="M93.5,162.4c0-3.2,2.4-6.7,1.6-9.7c-0.8-3.1-4.7-4.9-6.2-7.6c-1.6-2.7-1.2-6.9-3.4-9.2
		c-2.2-2.2-6.4-1.9-9.2-3.4c-2.7-1.6-4.5-5.4-7.6-6.2c-3-0.8-6.4,1.6-9.7,1.6c-3.2,0-6.7-2.4-9.7-1.6c-3.1,0.8-4.9,4.7-7.6,6.2
		c-2.7,1.6-6.9,1.2-9.2,3.4c-2.2,2.2-1.9,6.4-3.4,9.2c-1.6,2.7-5.4,4.5-6.2,7.6c-0.8,3,1.6,6.4,1.6,9.7c0,3.2-2.4,6.7-1.6,9.7
		c0.8,3.1,4.7,4.9,6.2,7.6c1.6,2.7,1.2,6.9,3.4,9.2c2.2,2.2,6.4,1.9,9.2,3.4c2.7,1.6,4.5,5.4,7.6,6.2c3,0.8,6.4-1.6,9.7-1.6
		c3.2,0,6.7,2.4,9.7,1.6c3.1-0.8,4.9-4.7,7.6-6.2c2.7-1.6,6.9-1.2,9.2-3.4c2.2-2.2,1.9-6.4,3.4-9.2c1.6-2.7,5.4-4.5,6.2-7.6
		C95.9,169.1,93.5,165.6,93.5,162.4z"/>
</g>
<path class="st18" d="M69,158.4c-0.2-0.5-0.7-0.8-1.2-0.8h-6.2l5.4-10.8c0.3-0.4,0.3-0.9,0-1.4c-0.2-0.4-0.7-0.7-1.2-0.7h-7
	c-0.5,0-1,0.3-1.2,0.8l-8.5,18c-0.2,0.4-0.2,0.9,0.1,1.3c0.2,0.4,0.7,0.6,1.1,0.6h5.1l-4.9,15.3l18.2-20.9
	C69.1,159.4,69.2,158.9,69,158.4z"/>
<g class="st12">
	<path class="st13" d="M293.2,90.1c0-3.2,2.4-6.7,1.6-9.7c-0.8-3.1-4.7-4.9-6.2-7.6c-1.6-2.7-1.2-6.9-3.4-9.2
		c-2.2-2.2-6.4-1.9-9.2-3.4c-2.7-1.6-4.5-5.4-7.6-6.2c-3-0.8-6.4,1.6-9.7,1.6c-3.2,0-6.7-2.4-9.7-1.6c-3.1,0.8-4.9,4.7-7.6,6.2
		c-2.7,1.6-6.9,1.2-9.2,3.4c-2.2,2.2-1.9,6.4-3.4,9.2c-1.6,2.7-5.4,4.5-6.2,7.6c-0.8,3,1.6,6.4,1.6,9.7c0,3.2-2.4,6.7-1.6,9.7
		c0.8,3.1,4.7,4.9,6.2,7.6c1.6,2.7,1.2,6.9,3.4,9.2c2.2,2.2,6.4,1.9,9.2,3.4c2.7,1.6,4.5,5.4,7.6,6.2c3,0.8,6.4-1.6,9.7-1.6
		c3.2,0,6.7,2.4,9.7,1.6c3.1-0.8,4.9-4.7,7.6-6.2c2.7-1.6,6.9-1.2,9.2-3.4c2.2-2.2,1.9-6.4,3.4-9.2c1.6-2.7,5.4-4.5,6.2-7.6
		C295.6,96.8,293.2,93.3,293.2,90.1z"/>
</g>
<g>
	<path class="st14" d="M259,102.8c-13.4,0-19-12.8-19-12.9c-0.1-0.3-0.1-0.6,0-0.9c0.2-0.4,6.1-11,19-11c12.9,0,18.6,10.5,18.8,11
		c0.1,0.3,0.1,0.6,0,0.8C277.8,90.1,272.2,102.8,259,102.8z"/>
</g>
<circle class="st14" cx="258.9" cy="90.3" r="8.6"/>
<circle class="st14" cx="258.9" cy="90.3" r="2.4"/>
<g class="st0">
	
		<linearGradient id="SVGID_14_" gradientUnits="userSpaceOnUse" x1="245.7542" y1="677.25" x2="326.8584" y2="677.25" gradientTransform="matrix(1 0 0 1 0 -432)">
		<stop  offset="0" style="stop-color:#005AFF"/>
		<stop  offset="1" style="stop-color:#005AFF;stop-opacity:0.9"/>
	</linearGradient>
	<path class="st19" d="M322.3,234.8c-1-3.4,0.5-7.7-1.2-10.6c-1.8-3-6.3-3.7-8.8-6c-2.5-2.4-3.4-6.9-6.4-8.5s-7.3,0-10.6-0.8
		s-6.3-4.3-9.8-4.2c-3.3,0.1-6.3,3.6-9.6,4.6c-3.4,1-7.7-0.5-10.6,1.2c-3,1.8-3.7,6.3-6,8.8c-2.4,2.5-6.9,3.4-8.5,6.4
		c-1.6,3,0,7.3-0.8,10.6c-0.8,3.3-4.3,6.3-4.2,9.8c0.1,3.3,3.6,6.3,4.6,9.6c1,3.4-0.5,7.7,1.2,10.6c1.8,3,6.3,3.7,8.8,6
		c2.5,2.4,3.4,6.9,6.4,8.5s7.3,0,10.6,0.8s6.3,4.3,9.8,4.2c3.3-0.1,6.3-3.6,9.6-4.6c3.4-1,7.7,0.5,10.6-1.2c3-1.8,3.7-6.3,6-8.8
		c2.4-2.5,6.9-3.4,8.5-6.4s0-7.3,0.8-10.6c0.8-3.3,4.3-6.3,4.2-9.8C326.8,241.1,323.2,238.2,322.3,234.8z"/>
	
		<linearGradient id="SVGID_15_" gradientUnits="userSpaceOnUse" x1="245.2754" y1="677.25" x2="327.3372" y2="677.25" gradientTransform="matrix(1 0 0 1 0 -432)">
		<stop  offset="0" style="stop-color:#005AFF"/>
		<stop  offset="1" style="stop-color:#005AFF;stop-opacity:0.9"/>
	</linearGradient>
	<path class="st20" d="M322.3,234.8c-1-3.4,0.5-7.7-1.2-10.6c-1.8-3-6.3-3.7-8.8-6c-2.5-2.4-3.4-6.9-6.4-8.5s-7.3,0-10.6-0.8
		s-6.3-4.3-9.8-4.2c-3.3,0.1-6.3,3.6-9.6,4.6c-3.4,1-7.7-0.5-10.6,1.2c-3,1.8-3.7,6.3-6,8.8c-2.4,2.5-6.9,3.4-8.5,6.4
		c-1.6,3,0,7.3-0.8,10.6c-0.8,3.3-4.3,6.3-4.2,9.8c0.1,3.3,3.6,6.3,4.6,9.6c1,3.4-0.5,7.7,1.2,10.6c1.8,3,6.3,3.7,8.8,6
		c2.5,2.4,3.4,6.9,6.4,8.5s7.3,0,10.6,0.8s6.3,4.3,9.8,4.2c3.3-0.1,6.3-3.6,9.6-4.6c3.4-1,7.7,0.5,10.6-1.2c3-1.8,3.7-6.3,6-8.8
		c2.4-2.5,6.9-3.4,8.5-6.4s0-7.3,0.8-10.6c0.8-3.3,4.3-6.3,4.2-9.8C326.8,241.1,323.2,238.2,322.3,234.8z"/>
</g>
<g class="st12">
	<path class="st13" d="M320.7,245.2c0-3.2,2.4-6.7,1.6-9.7c-0.8-3.1-4.7-4.9-6.2-7.6c-1.6-2.7-1.2-6.9-3.4-9.2
		c-2.2-2.2-6.4-1.9-9.2-3.4c-2.7-1.6-4.5-5.4-7.6-6.2c-3-0.8-6.4,1.6-9.7,1.6c-3.2,0-6.7-2.4-9.7-1.6c-3.1,0.8-4.9,4.7-7.6,6.2
		c-2.7,1.6-6.9,1.2-9.2,3.4c-2.2,2.2-1.9,6.4-3.4,9.2c-1.6,2.7-5.4,4.5-6.2,7.6c-0.8,3,1.6,6.4,1.6,9.7c0,3.2-2.4,6.7-1.6,9.7
		c0.8,3.1,4.7,4.9,6.2,7.6c1.6,2.7,1.2,6.9,3.4,9.2c2.2,2.2,6.4,1.9,9.2,3.4c2.7,1.6,4.5,5.4,7.6,6.2c3,0.8,6.4-1.6,9.7-1.6
		c3.2,0,6.7,2.4,9.7,1.6c3.1-0.8,4.9-4.7,7.6-6.2c2.7-1.6,6.9-1.2,9.2-3.4c2.2-2.2,1.9-6.4,3.4-9.2c1.6-2.7,5.4-4.5,6.2-7.6
		C323.1,251.9,320.7,248.4,320.7,245.2z"/>
</g>
<path class="st14" d="M281.7,226.6c-1.3,0-2.3,1-2.3,2.3v19.2l-5.3-2.7c-0.5-0.3-1.1-0.4-1.7-0.4c-1.2,0-2.2,1-2.2,2.2
	c0,0.6,0.2,1.1,0.6,1.6l10,9.9c2.1,2.1,4.9,3.3,7.9,3.3c5.1,0,9.3-4.2,9.3-9.3v-13.1c0-1.3-1-2.3-2.3-2.3c-1.1,0-2.1,0.8-2.3,1.9
	v-1.1c0-1.3-1-2.3-2.3-2.3c-1.1,0-2.1,0.8-2.3,1.9v-1.1c0-1.3-1-2.3-2.3-2.3c-1.1,0-2.1,0.8-2.3,1.9V229
	C284,227.7,283,226.6,281.7,226.6L281.7,226.6z"/>
<line class="st14" x1="284" y1="236" x2="284" y2="244.4"/>
<line class="st14" x1="288.6" y1="237.7" x2="288.6" y2="244.4"/>
<line class="st14" x1="293.2" y1="238.9" x2="293.2" y2="244.4"/>
<g class="st0">
	
		<linearGradient id="SVGID_16_" gradientUnits="userSpaceOnUse" x1="97.4979" y1="731.15" x2="178.6021" y2="731.15" gradientTransform="matrix(1 0 0 1 0 -432)">
		<stop  offset="0" style="stop-color:#005AFF"/>
		<stop  offset="1" style="stop-color:#005AFF;stop-opacity:0.9"/>
	</linearGradient>
	<path class="st21" d="M174,288.7c-1-3.4,0.5-7.7-1.2-10.6c-1.8-3-6.3-3.7-8.8-6c-2.5-2.4-3.4-6.9-6.4-8.5s-7.3,0-10.6-0.8
		c-3.3-0.8-6.3-4.3-9.8-4.2c-3.3,0.1-6.3,3.6-9.6,4.6c-3.4,1-7.7-0.5-10.6,1.2c-3,1.8-3.7,6.3-6,8.8c-2.4,2.5-6.9,3.4-8.5,6.4
		s0,7.3-0.8,10.6c-0.8,3.3-4.3,6.3-4.2,9.8c0.1,3.3,3.6,6.3,4.6,9.6c1,3.4-0.5,7.7,1.2,10.6c1.8,3,6.3,3.7,8.8,6
		c2.5,2.4,3.4,6.9,6.4,8.5s7.3,0,10.6,0.8c3.3,0.8,6.3,4.3,9.8,4.2c3.3-0.1,6.3-3.6,9.6-4.6c3.4-1,7.7,0.5,10.6-1.2
		c3-1.8,3.7-6.3,6-8.8c2.4-2.5,6.9-3.4,8.5-6.4c1.6-3,0-7.3,0.8-10.6c0.8-3.3,4.3-6.3,4.2-9.8C178.5,295,175,292.1,174,288.7z"/>
	
		<linearGradient id="SVGID_17_" gradientUnits="userSpaceOnUse" x1="97.0191" y1="731.15" x2="179.0809" y2="731.15" gradientTransform="matrix(1 0 0 1 0 -432)">
		<stop  offset="0" style="stop-color:#005AFF"/>
		<stop  offset="1" style="stop-color:#005AFF;stop-opacity:0.9"/>
	</linearGradient>
	<path class="st22" d="M174,288.7c-1-3.4,0.5-7.7-1.2-10.6c-1.8-3-6.3-3.7-8.8-6c-2.5-2.4-3.4-6.9-6.4-8.5s-7.3,0-10.6-0.8
		c-3.3-0.8-6.3-4.3-9.8-4.2c-3.3,0.1-6.3,3.6-9.6,4.6c-3.4,1-7.7-0.5-10.6,1.2c-3,1.8-3.7,6.3-6,8.8c-2.4,2.5-6.9,3.4-8.5,6.4
		s0,7.3-0.8,10.6c-0.8,3.3-4.3,6.3-4.2,9.8c0.1,3.3,3.6,6.3,4.6,9.6c1,3.4-0.5,7.7,1.2,10.6c1.8,3,6.3,3.7,8.8,6
		c2.5,2.4,3.4,6.9,6.4,8.5s7.3,0,10.6,0.8c3.3,0.8,6.3,4.3,9.8,4.2c3.3-0.1,6.3-3.6,9.6-4.6c3.4-1,7.7,0.5,10.6-1.2
		c3-1.8,3.7-6.3,6-8.8c2.4-2.5,6.9-3.4,8.5-6.4c1.6-3,0-7.3,0.8-10.6c0.8-3.3,4.3-6.3,4.2-9.8C178.5,295,175,292.1,174,288.7z"/>
</g>
<g class="st12">
	<path class="st13" d="M172.4,299.1c0-3.2,2.4-6.7,1.6-9.7c-0.8-3.1-4.7-4.9-6.2-7.6c-1.6-2.7-1.2-6.9-3.4-9.2
		c-2.2-2.2-6.4-1.9-9.2-3.4c-2.7-1.6-4.5-5.4-7.6-6.2c-3-0.8-6.4,1.6-9.7,1.6c-3.2,0-6.7-2.4-9.7-1.6c-3.1,0.8-4.9,4.7-7.6,6.2
		c-2.7,1.6-6.9,1.2-9.2,3.4c-2.2,2.2-1.9,6.4-3.4,9.2c-1.6,2.7-5.4,4.5-6.2,7.6c-0.8,3,1.6,6.4,1.6,9.7c0,3.2-2.4,6.7-1.6,9.7
		c0.8,3.1,4.7,4.9,6.2,7.6c1.6,2.7,1.2,6.9,3.4,9.2c2.2,2.2,6.4,1.9,9.2,3.4c2.7,1.6,4.5,5.4,7.6,6.2c3,0.8,6.4-1.6,9.7-1.6
		c3.2,0,6.7,2.4,9.7,1.6c3.1-0.8,4.9-4.7,7.6-6.2c2.7-1.6,6.9-1.2,9.2-3.4c2.2-2.2,1.9-6.4,3.4-9.2c1.6-2.7,5.4-4.5,6.2-7.6
		C174.8,305.8,172.4,302.3,172.4,299.1z"/>
</g>
<path class="st18" d="M138,281.4c-2.3,0-4.2,1.9-4.2,4.2v20.1c-1.8,1.5-2.7,3.7-2.3,6c0.5,3.6,3.8,6.1,7.4,5.6
	c3.3-0.5,5.7-3.3,5.7-6.5c0-2-0.9-3.8-2.4-5.1v-20.1C142.2,283.3,140.3,281.4,138,281.4z"/>
<line class="st14" x1="138" y1="308.4" x2="138" y2="285.9"/>
<path class="st14" d="M138,313.2c-1.3,0-2.4-1.1-2.4-2.4c0-1.3,1.1-2.4,2.4-2.4s2.4,1.1,2.4,2.4S139.3,313.2,138,313.2z"/>
<g class="st12">
	<path class="st13" d="M135.8,90.1c0-3.2,2.4-6.7,1.6-9.7c-0.8-3.1-4.7-4.9-6.2-7.6c-1.6-2.7-1.2-6.9-3.4-9.2
		c-2.2-2.2-6.4-1.9-9.2-3.4c-2.7-1.6-4.5-5.4-7.6-6.2c-3-0.8-6.4,1.6-9.7,1.6c-3.2,0-6.7-2.4-9.7-1.6c-3.1,0.8-4.9,4.7-7.6,6.2
		c-2.7,1.6-6.9,1.2-9.2,3.4c-2.2,2.2-1.9,6.4-3.4,9.2c-1.6,2.7-5.4,4.5-6.2,7.6c-0.8,3,1.6,6.4,1.6,9.7c0,3.2-2.4,6.7-1.6,9.7
		c0.8,3.1,4.7,4.9,6.2,7.6c1.6,2.7,1.2,6.9,3.4,9.2c2.2,2.2,6.4,1.9,9.2,3.4c2.7,1.6,4.5,5.4,7.6,6.2c3,0.8,6.4-1.6,9.7-1.6
		c3.2,0,6.7,2.4,9.7,1.6c3.1-0.8,4.9-4.7,7.6-6.2c2.7-1.6,6.9-1.2,9.2-3.4c2.2-2.2,1.9-6.4,3.4-9.2c1.6-2.7,5.4-4.5,6.2-7.6
		C138.2,96.8,135.8,93.2,135.8,90.1z"/>
</g>
<g>
	<path class="st14" d="M93.1,72.3c0,0,9.8,16.7,12.2,20.1c2.7,3.7,4.1,5.8,5.5,7.8c1.4,1.9,2.5,4.1,1.2,5.7
		c-3.7,3.7-8.9-2.6-13.6,0.6c-1.1,0.8-2.1,1.1-3,1.1h-0.1c-2.8,0-5.1-2.3-5.1-5.1s2.3-5.1,5.1-5.1c1.5,0,2.9,0.7,3.8,1.7"/>
</g>
<g class="st12">
	<path class="st13" d="M256.3,298.7c0-3.2,2.4-6.7,1.6-9.7c-0.8-3.1-4.7-4.9-6.2-7.6c-1.6-2.7-1.2-6.9-3.4-9.2
		c-2.2-2.2-6.4-1.9-9.2-3.4c-2.7-1.6-4.5-5.4-7.6-6.2c-3-0.8-6.4,1.6-9.7,1.6c-3.2,0-6.7-2.4-9.7-1.6c-3.1,0.8-4.9,4.7-7.6,6.2
		c-2.7,1.6-6.9,1.2-9.2,3.4c-2.2,2.2-1.9,6.4-3.4,9.2c-1.6,2.7-5.4,4.5-6.2,7.6c-0.8,3,1.6,6.4,1.6,9.7c0,3.2-2.4,6.7-1.6,9.7
		c0.8,3.1,4.7,4.9,6.2,7.6c1.6,2.7,1.2,6.9,3.4,9.2c2.2,2.2,6.4,1.9,9.2,3.4c2.7,1.6,4.5,5.4,7.6,6.2c3,0.8,6.4-1.6,9.7-1.6
		c3.2,0,6.7,2.4,9.7,1.6c3.1-0.8,4.9-4.7,7.6-6.2c2.7-1.6,6.9-1.2,9.2-3.4c2.2-2.2,1.9-6.4,3.4-9.2c1.6-2.7,5.4-4.5,6.2-7.6
		C258.7,305.4,256.3,301.9,256.3,298.7z"/>
</g>
<path class="st14" d="M222,301.2v4.6v9.9c0,1.3-1.1,2.3-2.3,2.3l0,0c-1.3,0-2.3-1.1-2.3-2.3v-23.4V292h-8.8c-1,0-1.8-0.8-1.8-1.8
	l0,0c0-1,0.8-1.8,1.8-1.8h26.5c1,0,1.8,0.8,1.8,1.8l0,0c0,1-0.8,1.8-1.8,1.8h-8.7c0,0,1.7,11.7-0.5,14.7c-1.2,1.6-3.9,3.6-3.9,3.6"
	/>
<path class="st18" d="M222.1,305.2"/>
<circle class="st23" cx="221.9" cy="281.8" r="3.5"/>
</svg>
