<?xml version="1.0" encoding="utf-8"?>
<!-- Generator: Adobe Illustrator 22.0.0, SVG Export Plug-In . SVG Version: 6.00 Build 0)  -->
<svg version="1.1" id="Layer_1" xmlns="http://www.w3.org/2000/svg" xmlns:xlink="http://www.w3.org/1999/xlink" x="0px" y="0px"
	 viewBox="0 0 1440 780" style="enable-background:new 0 0 1440 780;" xml:space="preserve">
<style type="text/css">
	.st0{fill:#FFFFFF;}
	.st1{fill:#EFEBEA;}
	.st2{opacity:0.2;fill:#FF2832;}
	.st3{fill:none;stroke:#FF2832;stroke-width:1.0406;stroke-miterlimit:10;}
	.st4{fill:#FF2832;}
	.st5{opacity:0.2;fill:#009632;}
	.st6{fill:none;stroke:#009632;stroke-width:1.0406;stroke-miterlimit:10;}
	.st7{fill:#009632;}
	.st8{opacity:0.2;fill:#FFC800;}
	.st9{fill:none;stroke:#FFC800;stroke-width:1.0406;stroke-miterlimit:10;}
	.st10{fill:#FFC800;}
	.st11{opacity:0.1;fill:#FF2832;}
	.st12{opacity:5.000000e-02;fill:#FF2832;}
	.st13{opacity:0.1;fill:#FFC800;}
	.st14{opacity:5.000000e-02;fill:#FFC800;}
</style>
<rect class="st0" width="1440" height="780"/>
<g>
	<path class="st1" d="M441.1,207.2c-0.3-3.5-1.7-11-1.7-11l-0.4-2.9v0c0,0-1.6-18.1-2-25.9c-0.5-7.7-3.8-16.9-5.3-22.5
		c-1.5-5.6,3.3-17.8-1-33c-2.5-9.5,0-18.4-5.1-25c-5.6-7.2-11.6-6.4-14.1-6.8l0,0c-2.9-0.5-6.3-1-8.4-1.9c-5.1-2.2-8.3-4.4-11.2-5.7
		c-2.1-0.9-2.3-7.1-2.2-10.8c1.7-1.1,3-2.3,3.7-3.3c1-1.6,1.8-6.1,2.2-10.2c0.4,0.1,0.9,0,1.7-0.4c1.9-0.9,2.5-6.4,1.2-8.9
		c-0.1-0.2-0.2-0.4-0.4-0.6c0.7-5.5,1.4-14.7-1.4-18.8c-4-6.1-13-6.3-16-6.6c-4-0.4-11.2-0.3-13,4.2c-8.4,0.8-7.4,14.1-6.2,21.2
		c-0.1,0.1-0.2,0.3-0.3,0.5c-1.3,2.5-0.7,7.9,1.2,8.9c0.9,0.4,1.5,0.5,1.8,0.4c0.4,4.1,1.2,8.6,2.2,10.2c0.7,1,1.9,2.2,3.6,3.3
		c0.1,3.7-0.1,9.9-2.2,10.8c-2.9,1.3-6.1,3.5-11.2,5.7c-2.1,0.9-5.5,1.4-8.4,1.9c-2.5,0.3-8.6-0.4-14.1,6.8
		c-5.1,6.6-2.7,15.6-5.1,25c-4.3,15.3,0.5,27.4-1,33c-1.5,5.6-4.8,14.8-5.3,22.5c-0.5,7.7-2,25.9-2,25.9v0l-0.4,2.9
		c0,0-1.4,7.5-1.7,11c-0.2,2.3,0.3,5.8,1.8,8.9c2.7,5.3,8.1,9.3,8.1,9.3c0.7,0.8,4.9,1.2,2.6-1.8c-4.5-5.9-5-9.9-5-9.9
		s-0.6-4.8,0.8-4.8c1.1-0.1,2.3,2.4,2.7,3.6c0.8,2.3,1.1,5.9,2.7,5.1c0.6-0.3,0.4-1,0.3-2.4c0-0.7,0.2-1.9,0.1-2.6
		c-0.1-0.6-0.9-3.8-1.2-4.8c-0.3-1-1.6-4.8-2-5.8c-0.4-1.1-0.8-3.1-0.7-4.6c0.1-1.5,2.7-10.4,3.9-13c0.8-1.9,9.7-13.9,11.3-37.6
		c0.4-5.6,1.8-13.5,2.7-21.1c0.7,3.5,1.3,6.9,1.4,9.5c0.3,7.8,2.6,19.3,1.9,25.2c-1.6,13.6-5.1,13.2-5.1,35.6
		c0,14.8-0.6,42.2,7,74.9c1.1,4.8,0.1,11.4-0.5,16.3c-1.1,9.2,1.6,21.5,7.2,49.4c5.4,26.8-11.1,23.7-8.3,30c1.2,2.6,16.3,1.8,21,1.6
		c1.4-0.1,2.5-1.2,2.6-2.5c0.1-1.4-0.6-3-1.9-7.2c-1.5-4.8-0.9-11.9-0.9-11.9s3-43.6,3-49.8c0-7-0.5-11.7-1-14.5
		c-0.4-2.4-0.6-4.8,0-7.2c4.4-19.6,4.4-69.6,4.4-69.7h4.7c0,0,0.1,50,4.4,69.7c0.5,2.4,0.4,4.8,0,7.2c-0.5,2.8-1,7.5-1,14.5
		c0,6.2,3,49.8,3,49.8s0.6,7.1-0.9,11.9c-1.3,4.1-2,5.7-1.9,7.2c0.1,1.4,1.2,2.5,2.6,2.5c4.7,0.2,19.8,1,21-1.6
		c2.8-6.3-13.7-3.2-8.3-30c5.7-27.9,8.3-40.2,7.2-49.4c-0.6-4.9-1.6-11.5-0.5-16.3c7.6-32.6,7-60.1,7-74.9c0-22.5-3.5-22.1-5.1-35.6
		c-0.7-5.8,1.7-17.3,1.9-25.2c0.1-2.6,0.7-6,1.4-9.5c0.9,7.6,2.3,15.6,2.7,21.1c1.6,23.7,11,36.4,11.8,38.1c0.9,2.2,3.4,11,3.4,12.6
		c0.1,1.5-0.3,3.5-0.7,4.6c-0.3,1-1.7,4.8-2,5.8c-0.3,1-1.1,4.1-1.2,4.8c-0.1,0.7,0.2,1.9,0.1,2.6c-0.1,1.4-0.3,2.1,0.3,2.4
		c1.6,0.7,1.9-2.8,2.7-5.1c0.4-1.2,1.6-3.7,2.7-3.6c1.3,0.1,0.8,4.8,0.8,4.8s-0.5,4-5,9.9c-2.3,3,1.9,2.6,2.6,1.8
		c0,0,5.4-4.1,8.1-9.3C440.9,213,441.3,209.5,441.1,207.2z"/>
	<circle class="st2" cx="379.7" cy="37.9" r="14.7"/>
	<circle class="st2" cx="379.7" cy="168.7" r="14.7"/>
	<g>
		<path class="st3" d="M383.5,46.4c0,9.5-7.3,9.5-7.3,19.1c0,9.5,7.3,9.5,7.3,19.1c0,9.6-7.3,9.6-7.3,19.1c0,9.6,7.3,9.6,7.3,19.1
			c0,9.6-7.3,9.6-7.3,19.1s7.3,9.6,7.3,19.1"/>
	</g>
	<g>
		<path class="st3" d="M376.2,161c0-9.5,7.3-9.5,7.3-19.1c0-9.5-7.3-9.5-7.3-19.1c0-9.6,7.3-9.6,7.3-19.1c0-9.6-7.3-9.6-7.3-19.1
			c0-9.6,7.3-9.6,7.3-19.1s-7.3-9.6-7.3-19.1"/>
	</g>
	<circle class="st4" cx="379.7" cy="37.9" r="9.2"/>
	<circle class="st4" cx="379.7" cy="168.7" r="9.2"/>
</g>
<g>
	<path class="st1" d="M716.6,207.2c-0.3-3.5-1.7-11-1.7-11l-0.4-2.9v0c0,0-1.6-18.1-2-25.9c-0.5-7.7-3.8-16.9-5.3-22.5
		c-1.5-5.6,3.3-17.8-1-33c-2.5-9.5,0-18.4-5.1-25c-5.6-7.2-11.6-6.4-14.1-6.8l0,0c-2.9-0.5-6.3-1-8.4-1.9c-5.1-2.2-8.3-4.4-11.2-5.7
		c-2.1-0.9-2.3-7.1-2.2-10.8c1.7-1.1,3-2.3,3.7-3.3c1-1.6,1.8-6.1,2.2-10.2c0.4,0.1,0.9,0,1.7-0.4c1.9-0.9,2.5-6.4,1.2-8.9
		c-0.1-0.2-0.2-0.4-0.4-0.6c0.7-5.5,1.4-14.7-1.4-18.8c-4-6.1-13-6.3-16-6.6c-4-0.4-11.2-0.3-13,4.2c-8.4,0.8-7.4,14.1-6.2,21.2
		c-0.1,0.1-0.2,0.3-0.3,0.5c-1.3,2.5-0.7,7.9,1.2,8.9c0.9,0.4,1.5,0.5,1.8,0.4c0.4,4.1,1.2,8.6,2.2,10.2c0.7,1,1.9,2.2,3.6,3.3
		c0.1,3.7-0.1,9.9-2.2,10.8c-2.9,1.3-6.1,3.5-11.2,5.7c-2.1,0.9-5.5,1.4-8.4,1.9c-2.5,0.3-8.6-0.4-14.1,6.8
		c-5.1,6.6-2.7,15.6-5.1,25c-4.3,15.3,0.5,27.4-1,33c-1.5,5.6-4.8,14.8-5.3,22.5c-0.5,7.7-2,25.9-2,25.9v0l-0.4,2.9
		c0,0-1.4,7.5-1.7,11c-0.2,2.3,0.3,5.8,1.8,8.9c2.7,5.3,8.1,9.3,8.1,9.3c0.7,0.8,4.9,1.2,2.6-1.8c-4.5-5.9-5-9.9-5-9.9
		s-0.6-4.8,0.8-4.8c1.1-0.1,2.3,2.4,2.7,3.6c0.8,2.3,1.1,5.9,2.7,5.1c0.6-0.3,0.4-1,0.3-2.4c0-0.7,0.2-1.9,0.1-2.6
		c-0.1-0.6-0.9-3.8-1.2-4.8c-0.3-1-1.6-4.8-2-5.8c-0.4-1.1-0.8-3.1-0.7-4.6c0.1-1.5,2.7-10.4,3.9-13c0.8-1.9,9.7-13.9,11.3-37.6
		c0.4-5.6,1.8-13.5,2.7-21.1c0.7,3.5,1.3,6.9,1.4,9.5c0.3,7.8,2.6,19.3,1.9,25.2c-1.6,13.6-5.1,13.2-5.1,35.6
		c0,14.8-0.6,42.2,7,74.9c1.1,4.8,0.1,11.4-0.5,16.3c-1.1,9.2,1.6,21.5,7.2,49.4c5.4,26.8-11.1,23.7-8.3,30c1.2,2.6,16.3,1.8,21,1.6
		c1.4-0.1,2.5-1.2,2.6-2.5c0.1-1.4-0.6-3-1.9-7.2c-1.5-4.8-0.9-11.9-0.9-11.9s3-43.6,3-49.8c0-7-0.5-11.7-1-14.5
		c-0.4-2.4-0.6-4.8,0-7.2c4.4-19.6,4.4-69.6,4.4-69.7h4.7c0,0,0.1,50,4.4,69.7c0.5,2.4,0.4,4.8,0,7.2c-0.5,2.8-1,7.5-1,14.5
		c0,6.2,3,49.8,3,49.8s0.6,7.1-0.9,11.9c-1.3,4.1-2,5.7-1.9,7.2c0.1,1.4,1.2,2.5,2.6,2.5c4.7,0.2,19.8,1,21-1.6
		c2.8-6.3-13.7-3.2-8.3-30c5.7-27.9,8.3-40.2,7.2-49.4c-0.6-4.9-1.6-11.5-0.5-16.3c7.6-32.6,7-60.1,7-74.9c0-22.5-3.5-22.1-5.1-35.6
		c-0.7-5.8,1.7-17.3,1.9-25.2c0.1-2.6,0.7-6,1.4-9.5c0.9,7.6,2.3,15.6,2.7,21.1c1.6,23.7,11,36.4,11.8,38.1c0.9,2.2,3.4,11,3.4,12.6
		c0.1,1.5-0.3,3.5-0.7,4.6c-0.3,1-1.7,4.8-2,5.8c-0.3,1-1.1,4.1-1.2,4.8c-0.1,0.7,0.2,1.9,0.1,2.6c-0.1,1.4-0.3,2.1,0.3,2.4
		c1.6,0.7,1.9-2.8,2.7-5.1c0.4-1.2,1.6-3.7,2.7-3.6c1.3,0.1,0.8,4.8,0.8,4.8s-0.5,4-5,9.9c-2.3,3,1.9,2.6,2.6,1.8
		c0,0,5.4-4.1,8.1-9.3C716.3,213,716.8,209.5,716.6,207.2z"/>
	<circle class="st2" cx="655.2" cy="37.9" r="14.7"/>
	<circle class="st2" cx="655.2" cy="168.7" r="14.7"/>
	<g>
		<path class="st3" d="M658.9,46.4c0,9.5-7.3,9.5-7.3,19.1c0,9.5,7.3,9.5,7.3,19.1c0,9.6-7.3,9.6-7.3,19.1c0,9.6,7.3,9.6,7.3,19.1
			c0,9.6-7.3,9.6-7.3,19.1s7.3,9.6,7.3,19.1"/>
	</g>
	<g>
		<path class="st3" d="M651.7,161c0-9.5,7.3-9.5,7.3-19.1c0-9.5-7.3-9.5-7.3-19.1c0-9.6,7.3-9.6,7.3-19.1c0-9.6-7.3-9.6-7.3-19.1
			c0-9.6,7.3-9.6,7.3-19.1s-7.3-9.6-7.3-19.1"/>
	</g>
	<circle class="st4" cx="655.2" cy="37.9" r="9.2"/>
	<circle class="st4" cx="655.2" cy="168.7" r="9.2"/>
</g>
<g>
	<path class="st1" d="M570.7,206.8c-0.2-3.5-1.4-11-1.4-11l-0.3-3l0.1,0.1c0,0-0.9-18.2-1.1-26c-0.2-7.8-3.5-18.3-4.8-23.9
		c-1.3-5.7-1.7-16.8-1.5-30.2c0.2-13.8-0.8-24.6-3.2-28c-2.8-4-8.4-5.4-10.6-5.9c-1.7-0.5-3.6-1-5.6-1.6c0,0,0,0,0-0.1
		c2.5-6.5,2.5-13.8,0.1-20.4c-0.7-1.9-1.5-3.7-2-5.7c-0.7-3-0.4-6-0.5-9.1c-0.2-5.4-0.6-12.2-3.2-17.1c-2.1-4-5.2-8-10-8.4
		c-1.1-0.1-1.6,0.2-2.5-0.4c-1-0.6-3.1-2.4-6.3-2.9c-9.5-1.5-17.7,4.1-21.6,12.7c-2.9,6.3-3.1,13.4-2.9,20.3c0.1,2.9,0.2,5.8-1,8.4
		c-1.7,3.8-5.9,5.9-8.3,9.3c-1.9,2.7-2.5,6.2-2.7,9.5c-0.1,2.2,0,4.4,0.5,6.5c-1.1,0.5-2.3,1.2-3.3,2.1c0,0,0,0,0,0c0,0,0,0,0,0
		c-0.2,0.1-0.3,0.3-0.5,0.5c0,0,0,0,0,0c-0.1,0.1-0.3,0.3-0.4,0.4c0,0-0.1,0.1-0.1,0.1c-0.1,0.1-0.2,0.2-0.3,0.4
		c0,0.1-0.1,0.1-0.1,0.2c-0.1,0.2-0.3,0.4-0.4,0.5c-2.4,3.4-3.4,14.6-3.2,28.4c0.2,13.5-0.2,24.6-1.5,30.2
		c-1.3,5.7-4.6,16.2-4.8,23.9c0,0.2,0,0.3,0,0.5c0,0,0,0.1,0,0.1c0,0.2,0,0.4,0,0.5c0,0,0,0.1,0,0.1c0,0.2,0,0.3,0,0.5
		c0,0,0,0.1,0,0.1c0,0.2,0,0.4,0,0.6c0,0,0,0.1,0,0.1c0,0.2,0,0.4,0,0.5c0,0,0,0.1,0,0.1c0,0.2,0,0.4,0,0.6c0,0.1,0,0.1,0,0.2
		c0,0.2,0,0.4,0,0.6c0,0,0,0,0,0c0,0.2,0,0.5,0,0.7c0,0,0,0.1,0,0.1c0,0.2,0,0.5,0,0.7c0,0,0,0,0,0c0,0.3,0,0.5,0,0.8c0,0,0,0,0,0
		c0,0.5,0,1-0.1,1.6c0,0,0,0.1,0,0.1c0,0.8-0.1,1.6-0.1,2.5c0,0,0,0,0,0c0,0.3,0,0.5,0,0.8c0,0,0,0,0,0c-0.3,7.1-0.7,13.9-0.7,13.9
		l0,0l-0.3,2.9c0,0-1.2,7.5-1.4,11c-0.1,2.3,0.5,5.8,2.1,8.8c2.9,5.2,7.2,7.8,7.2,7.8c0.7,0.7,4.9,1,2.6-1.9
		c-4.7-5.8-4.1-8.5-4.1-8.5s-0.7-4.8,0.6-4.9c1.1-0.1,2.4,2.3,2.8,3.6c0.9,2.3,1.4,5.8,2.9,5c0.6-0.3,0.3-1,0.2-2.4
		c-0.1-0.7,0.1-1.9,0-2.6c-0.1-0.6-1-3.8-1.3-4.7c-0.3-1-1.8-4.7-2.2-5.7c-0.5-1.1-0.9-3.1-0.9-4.6c0-1.5,2.5-10.9,3-12.7
		c0.4-1.8,10.5-27.9,10.5-38.6c0-5.3,0.4-13.5,0.7-21.2c1,5.3,2.2,11.4,3,14.1c1.1,3.7,1.5,12.3-1.5,18.5c-0.2,0.4-0.4,0.7-0.6,1.1
		c-0.9,1.6-1.8,3.1-2.5,4.7c-7.4,14.6-8.1,27.2-8.1,36.4c0,1.5,0.1,3,0.2,4.8c0,0,0,0,0,0c0-0.2,0-0.4,0-0.5
		c0.4,5.5,1.5,13,3.7,25.9c-0.2-0.8-0.3-1.2-0.3-1.2c1.7,10.2,4.2,23.8,7.6,42.6c0.9,4.8,1.1,9.7,0.7,14.6c-0.8,9,0.2,21.9,5.8,49.9
		c2.3,11.4,1.2,17.7-0.7,21.6c0,0,0,0,0,0c-2.7,5.5-6.9,6.2-5.5,9.9c2.2,2.6,13,1.7,17.7,1.5c1.3-0.1,2.4-0.2,3.1-2
		c0.5-1.3,0.6-2.1-1.7-7.5c-1.4-3.2-1.3-8.6-1.3-8.6s3.4-46.8,3.4-53.5c0-6.5-0.4-11.1-0.9-14.1c-0.5-2.9-0.5-5.8-0.2-8.7
		c0.5-4.3,1-10.2,1.5-16.8c0,0.2,0,0.4,0,0.6c2.7-33.6,3.2-55.3,3.2-55.3l4,0l-0.1,0.1c0,0,1.3,50.6,4.3,71.8c0.4,2.8,0.4,5.7,0,8.5
		c-0.4,2.9-0.9,7.4-0.9,13.9c0,6.2,3,49.9,3,49.9s0.4,5-0.3,9.5c-0.1,0.3-0.1,0.6-0.2,0.9c0,0,0.1-0.5,0.3-1.2
		c-0.1,0.9-0.3,1.8-0.6,2.6c-1.3,4.1-2,5.7-1.9,7.2c0.1,1.4,1.2,2.5,2.6,2.5c4.7,0.2,16.8,1.2,18.1-1.4c2.9-6.3-12.9-4.3-6.2-31.6
		c6.7-27.7,7.4-40.7,6.3-49.9c-0.6-4.9-0.5-9.8,0.2-14.7c6.1-39.8,12.2-57.5,12.2-72.3c0-11.4-0.9-18.8-2.6-24.7c0,0,0,0,0,0
		c-0.1-0.4-0.2-0.8-0.4-1.2c0,0,0,0,0,0c-0.4-1.2-0.8-2.3-1.2-3.4c0,0,0,0,0,0c-0.1-0.4-0.3-0.7-0.4-1.1c0,0,0,0,0,0
		c-0.3-0.7-0.6-1.4-1-2.1c0,0,0,0,0,0c-0.2-0.3-0.3-0.7-0.5-1c0,0,0,0,0-0.1c-0.2-0.3-0.3-0.7-0.5-1c0,0,0,0,0-0.1
		c-0.4-0.7-0.7-1.4-1.1-2.1c0,0,0,0,0-0.1c-0.2-0.3-0.4-0.7-0.6-1c0,0,0-0.1,0-0.1c-0.2-0.3-0.4-0.7-0.6-1c0,0,0-0.1,0-0.1
		c-0.2-0.4-0.4-0.7-0.6-1.1c-2.8-4.9-2.7-14-1.8-19.7c0-0.2,0.1-0.3,0.1-0.5c0,0,0-0.1,0-0.1c0-0.2,0.1-0.3,0.1-0.5c0,0,0-0.1,0-0.1
		c0-0.2,0.1-0.3,0.1-0.5c0,0,0-0.1,0-0.1c0-0.2,0.1-0.4,0.1-0.6c0,0,0-0.1,0-0.1c0-0.2,0.1-0.4,0.1-0.6c0,0,0,0,0-0.1
		c0-0.2,0.1-0.4,0.1-0.7c0,0,0-0.1,0-0.1c0-0.2,0.1-0.5,0.1-0.7c0,0,0,0,0,0c0.1-0.2,0.1-0.5,0.2-0.7c0,0,0-0.1,0-0.1
		c0.1-0.2,0.1-0.5,0.2-0.8c0,0,0-0.1,0-0.1c0.1-0.2,0.1-0.5,0.2-0.7c0,0,0-0.1,0-0.1c0.1-0.3,0.1-0.5,0.2-0.8c0,0,0-0.1,0-0.1
		c0.1-0.3,0.1-0.5,0.2-0.8c0,0,0,0,0,0c0.1-0.3,0.1-0.6,0.2-0.8c0-0.1,0-0.1,0-0.2c0.1-0.3,0.1-0.6,0.2-0.8c0,0,0,0,0-0.1
		c0.1-0.3,0.1-0.5,0.2-0.8c0-0.1,0-0.1,0-0.2c0-0.1,0.1-0.3,0.1-0.4c0,0.3,0,0.6,0,0.9c0,0.1,0,0.1,0,0.2c0,0.4,0,0.8,0.1,1.2
		c0,0,0,0.1,0,0.1c0,0.4,0,0.8,0.1,1.3c0,0,0,0.1,0,0.1c0,0.4,0,0.8,0.1,1.3c0,0.1,0,0.1,0,0.2c0,0.4,0,0.8,0.1,1.2c0,0,0,0.1,0,0.1
		c0,0.4,0,0.8,0.1,1.3c0,0,0,0.1,0,0.1c0,0.4,0,0.9,0,1.3c0,0,0,0,0,0c0,0.4,0,0.8,0,1.2c0,0,0,0.1,0,0.1c0,0.4,0,0.8,0,1.2
		c0,0,0,0.1,0,0.1c0,0.4,0,0.8,0,1.1c0,0.1,0,0.1,0,0.2c0,0.4,0,0.7,0,1.1c0,0.1,0,0.1,0,0.2c0,0.4,0,0.7,0,1c0,0.1,0,0.1,0,0.2
		c0,0.3,0,0.7,0,1c0,0.1,0,0.1,0,0.2c0,0.3,0,0.6,0,1c0,0,0,0.1,0,0.1c0,0.3,0,0.6,0,0.9c0,0,0,0.1,0,0.1c0,0.3,0,0.6,0,0.9
		c0,0.2,0,0.5,0,0.7c0,0,0,0.1,0,0.1c0,0.2,0,0.5,0,0.7c0,0,0,0.1,0,0.1c0,0.3,0,0.5,0.1,0.8c0,0,0,0.1,0,0.1c0,0.3,0.1,0.5,0.1,0.8
		c0,0,0,0.1,0,0.1c0,0.3,0.1,0.6,0.1,0.9c0,0.1,0,0.1,0,0.2c0,0.3,0.1,0.6,0.1,0.9c0,0.1,0,0.1,0,0.2c0.1,0.3,0.1,0.6,0.2,1
		c0,0,0,0,0,0c0.1,0.3,0.1,0.6,0.2,1c0,0.1,0,0.1,0,0.2c0.1,0.3,0.1,0.6,0.2,1c0,0.1,0,0.1,0,0.2c0.1,0.3,0.1,0.7,0.2,1
		c0,0,0,0.1,0,0.1c0.1,0.3,0.2,0.7,0.2,1c0,0,0,0.1,0,0.1c0.1,0.3,0.2,0.7,0.3,1c0,0.1,0,0.1,0.1,0.2c0.1,0.3,0.2,0.7,0.3,1
		c0,0.1,0,0.1,0,0.2c0.1,0.4,0.2,0.7,0.3,1.1c0,0,0,0,0,0.1c0.1,0.4,0.2,0.7,0.3,1.1c0,0.1,0,0.1,0,0.2c0.1,0.4,0.2,0.7,0.3,1.1
		c0,0.1,0,0.1,0.1,0.2c0.1,0.4,0.2,0.7,0.3,1.1c0,0.1,0,0.1,0,0.2c0.1,0.4,0.2,0.7,0.3,1.1c0,0,0,0.1,0,0.1c0.1,0.4,0.2,0.7,0.3,1.1
		c0,0.1,0,0.1,0.1,0.2c0.1,0.3,0.2,0.7,0.3,1c0,0.1,0,0.1,0.1,0.2c0.1,0.4,0.2,0.7,0.3,1.1c0,0,0,0,0,0.1c0.1,0.3,0.2,0.7,0.3,1
		c0,0.1,0,0.1,0,0.2c0.1,0.3,0.2,0.7,0.3,1c0,0.1,0,0.1,0.1,0.2c0.1,0.3,0.2,0.7,0.3,1c0,0,0,0.1,0,0.1c0.1,0.3,0.2,0.6,0.3,1
		c0,0,0,0,0,0.1c0.1,0.3,0.2,0.6,0.3,0.9c0,0.1,0,0.1,0.1,0.2c0.1,0.3,0.2,0.6,0.3,0.9c0,0.1,0,0.1,0.1,0.2c0.1,0.3,0.2,0.6,0.3,0.9
		c0,0,0,0.1,0,0.1c0.1,0.3,0.2,0.5,0.3,0.8c0,0,0,0.1,0,0.1c0.1,0.3,0.2,0.5,0.3,0.8c0,0.1,0,0.1,0.1,0.2c0.1,0.3,0.2,0.5,0.3,0.7
		c0,0,0,0.1,0,0.1c0.1,0.2,0.2,0.5,0.2,0.7c0,0,0,0,0,0c0.8,2.3,1.5,4.7,2.1,7c0,0,0,0,0,0c0.1,0.4,0.2,0.8,0.3,1.2
		c0,0.1,0,0.1,0,0.2c0.1,0.3,0.2,0.6,0.2,1c0,0.1,0.1,0.2,0.1,0.3c0.1,0.3,0.1,0.6,0.2,0.8c0,0.1,0,0.2,0.1,0.3
		c0.1,0.3,0.2,0.7,0.2,1c0,0,0,0,0,0.1l0.4,1.9c0.3,1.3,0.5,2.4,0.7,3.2c0.4,2.4-0.6,3.6-0.9,4.6c-0.3,1-1.9,4.7-2.2,5.7
		c-0.3,1-1.3,4.1-1.3,4.7c-0.1,0.7,0.1,1.9,0,2.6c-0.1,1.4-0.4,2.1,0.2,2.4c1.6,0.8,2-2.8,2.9-5c0.5-1.2,1.7-3.7,2.8-3.6
		c1.3,0.1,0.6,4.9,0.6,4.9s0.6,2.7-4.1,8.5c-2.4,2.9,1.8,2.6,2.6,1.9c0,0,4.3-2.6,7.2-7.8C570.2,212.6,570.8,209,570.7,206.8z"/>
	<circle class="st2" cx="517.6" cy="37.9" r="14.7"/>
	<circle class="st2" cx="517.6" cy="168.8" r="14.7"/>
	<g>
		<path class="st3" d="M521.3,46.4c0,9.5-7.3,9.5-7.3,19.1c0,9.5,7.3,9.5,7.3,19.1c0,9.6-7.3,9.6-7.3,19.1c0,9.6,7.3,9.6,7.3,19.1
			c0,9.6-7.3,9.6-7.3,19.1s7.3,9.6,7.3,19.1"/>
	</g>
	<g>
		<path class="st3" d="M514,161c0-9.5,7.3-9.5,7.3-19.1c0-9.5-7.3-9.5-7.3-19.1c0-9.6,7.3-9.6,7.3-19.1c0-9.6-7.3-9.6-7.3-19.1
			c0-9.6,7.3-9.6,7.3-19.1S514,56,514,46.4"/>
	</g>
	<circle class="st4" cx="517.6" cy="37.9" r="9.2"/>
	<circle class="st4" cx="517.6" cy="168.8" r="9.2"/>
</g>
<g>
	<path class="st1" d="M992.1,207.2c-0.3-3.5-1.7-11-1.7-11l-0.4-2.9v0c0,0-1.6-18.1-2-25.9c-0.5-7.7-3.8-16.9-5.3-22.5
		c-1.5-5.6,3.3-17.8-1-33c-2.5-9.5,0-18.4-5.1-25c-5.6-7.2-11.6-6.4-14.1-6.8l0,0c-2.9-0.5-6.3-1-8.4-1.9c-5.1-2.2-8.3-4.4-11.2-5.7
		c-2.1-0.9-2.3-7.1-2.2-10.8c1.7-1.1,3-2.3,3.7-3.3c1-1.6,1.8-6.1,2.2-10.2c0.4,0.1,0.9,0,1.7-0.4c1.9-0.9,2.5-6.4,1.2-8.9
		c-0.1-0.2-0.2-0.4-0.4-0.6c0.7-5.5,1.4-14.7-1.4-18.8c-4-6.1-13-6.3-16-6.6c-4-0.4-11.2-0.3-13,4.2c-8.4,0.8-7.4,14.1-6.2,21.2
		c-0.1,0.1-0.2,0.3-0.3,0.5c-1.3,2.5-0.7,7.9,1.2,8.9c0.9,0.4,1.5,0.5,1.8,0.4c0.4,4.1,1.2,8.6,2.2,10.2c0.7,1,1.9,2.2,3.6,3.3
		c0.1,3.7-0.1,9.9-2.2,10.8c-2.9,1.3-6.1,3.5-11.2,5.7c-2.1,0.9-5.5,1.4-8.4,1.9c-2.5,0.3-8.6-0.4-14.1,6.8
		c-5.1,6.6-2.7,15.6-5.1,25c-4.3,15.3,0.5,27.4-1,33c-1.5,5.6-4.8,14.8-5.3,22.5c-0.5,7.7-2,25.9-2,25.9v0l-0.4,2.9
		c0,0-1.4,7.5-1.7,11c-0.2,2.3,0.3,5.8,1.8,8.9c2.7,5.3,8.1,9.3,8.1,9.3c0.7,0.8,4.9,1.2,2.6-1.8c-4.5-5.9-5-9.9-5-9.9
		s-0.6-4.8,0.8-4.8c1.1-0.1,2.3,2.4,2.7,3.6c0.8,2.3,1.1,5.9,2.7,5.1c0.6-0.3,0.4-1,0.3-2.4c0-0.7,0.2-1.9,0.1-2.6
		c-0.1-0.6-0.9-3.8-1.2-4.8c-0.3-1-1.6-4.8-2-5.8c-0.4-1.1-0.8-3.1-0.7-4.6c0.1-1.5,2.7-10.4,3.9-13c0.8-1.9,9.7-13.9,11.3-37.6
		c0.4-5.6,1.8-13.5,2.7-21.1c0.7,3.5,1.3,6.9,1.4,9.5c0.3,7.8,2.6,19.3,1.9,25.2c-1.6,13.6-5.1,13.2-5.1,35.6
		c0,14.8-0.6,42.2,7,74.9c1.1,4.8,0.1,11.4-0.5,16.3c-1.1,9.2,1.6,21.5,7.2,49.4c5.4,26.8-11.1,23.7-8.3,30c1.2,2.6,16.3,1.8,21,1.6
		c1.4-0.1,2.5-1.2,2.6-2.5c0.1-1.4-0.6-3-1.9-7.2c-1.5-4.8-0.9-11.9-0.9-11.9s3-43.6,3-49.8c0-7-0.5-11.7-1-14.5
		c-0.4-2.4-0.6-4.8,0-7.2c4.4-19.6,4.4-69.6,4.4-69.7h4.7c0,0,0.1,50,4.4,69.7c0.5,2.4,0.4,4.8,0,7.2c-0.5,2.8-1,7.5-1,14.5
		c0,6.2,3,49.8,3,49.8s0.6,7.1-0.9,11.9c-1.3,4.1-2,5.7-1.9,7.2c0.1,1.4,1.2,2.5,2.6,2.5c4.7,0.2,19.8,1,21-1.6
		c2.8-6.3-13.7-3.2-8.3-30c5.7-27.9,8.3-40.2,7.2-49.4c-0.6-4.9-1.6-11.5-0.5-16.3c7.6-32.6,7-60.1,7-74.9c0-22.5-3.5-22.1-5.1-35.6
		c-0.7-5.8,1.7-17.3,1.9-25.2c0.1-2.6,0.7-6,1.4-9.5c0.9,7.6,2.3,15.6,2.7,21.1c1.6,23.7,11,36.4,11.8,38.1c0.9,2.2,3.4,11,3.4,12.6
		c0.1,1.5-0.3,3.5-0.7,4.6c-0.3,1-1.7,4.8-2,5.8c-0.3,1-1.1,4.1-1.2,4.8c-0.1,0.7,0.2,1.9,0.1,2.6c-0.1,1.4-0.3,2.1,0.3,2.4
		c1.6,0.7,1.9-2.8,2.7-5.1c0.4-1.2,1.6-3.7,2.7-3.6c1.3,0.1,0.8,4.8,0.8,4.8s-0.5,4-5,9.9c-2.3,3,1.9,2.6,2.6,1.8
		c0,0,5.4-4.1,8.1-9.3C991.8,213,992.3,209.5,992.1,207.2z"/>
	<circle class="st5" cx="930.7" cy="37.9" r="14.7"/>
	<circle class="st5" cx="930.7" cy="168.7" r="14.7"/>
	<g>
		<path class="st6" d="M934.4,46.4c0,9.5-7.3,9.5-7.3,19.1c0,9.5,7.3,9.5,7.3,19.1c0,9.6-7.3,9.6-7.3,19.1c0,9.6,7.3,9.6,7.3,19.1
			c0,9.6-7.3,9.6-7.3,19.1s7.3,9.6,7.3,19.1"/>
	</g>
	<g>
		<path class="st6" d="M927.1,161c0-9.5,7.3-9.5,7.3-19.1c0-9.5-7.3-9.5-7.3-19.1c0-9.6,7.3-9.6,7.3-19.1c0-9.6-7.3-9.6-7.3-19.1
			c0-9.6,7.3-9.6,7.3-19.1s-7.3-9.6-7.3-19.1"/>
	</g>
	<circle class="st7" cx="930.7" cy="37.9" r="9.2"/>
	<circle class="st7" cx="930.7" cy="168.7" r="9.2"/>
</g>
<g>
	<path class="st1" d="M846.2,206.8c-0.2-3.5-1.4-11-1.4-11l-0.3-3l0.1,0.1c0,0-0.9-18.2-1.1-26c-0.2-7.8-3.5-18.3-4.8-23.9
		c-1.3-5.7-1.7-16.8-1.5-30.2c0.2-13.8-0.8-24.6-3.2-28c-2.8-4-8.4-5.4-10.6-5.9c-1.7-0.5-3.6-1-5.6-1.6c0,0,0,0,0-0.1
		c2.5-6.5,2.5-13.8,0.1-20.4c-0.7-1.9-1.5-3.7-2-5.7c-0.7-3-0.4-6-0.5-9.1c-0.2-5.4-0.6-12.2-3.2-17.1c-2.1-4-5.2-8-10-8.4
		c-1.1-0.1-1.6,0.2-2.5-0.4c-1-0.6-3.1-2.4-6.3-2.9c-9.5-1.5-17.7,4.1-21.6,12.7c-2.9,6.3-3.1,13.4-2.9,20.3c0.1,2.9,0.2,5.8-1,8.4
		c-1.7,3.8-5.9,5.9-8.3,9.3c-1.9,2.7-2.5,6.2-2.7,9.5c-0.1,2.2,0,4.4,0.5,6.5c-1.1,0.5-2.3,1.2-3.3,2.1c0,0,0,0,0,0c0,0,0,0,0,0
		c-0.2,0.1-0.3,0.3-0.5,0.5c0,0,0,0,0,0c-0.1,0.1-0.3,0.3-0.4,0.4c0,0-0.1,0.1-0.1,0.1c-0.1,0.1-0.2,0.2-0.3,0.4
		c0,0.1-0.1,0.1-0.1,0.2c-0.1,0.2-0.3,0.4-0.4,0.5c-2.4,3.4-3.4,14.6-3.2,28.4c0.2,13.5-0.2,24.6-1.5,30.2
		c-1.3,5.7-4.6,16.2-4.8,23.9c0,0.2,0,0.3,0,0.5c0,0,0,0.1,0,0.1c0,0.2,0,0.4,0,0.5c0,0,0,0.1,0,0.1c0,0.2,0,0.3,0,0.5
		c0,0,0,0.1,0,0.1c0,0.2,0,0.4,0,0.6c0,0,0,0.1,0,0.1c0,0.2,0,0.4,0,0.5c0,0,0,0.1,0,0.1c0,0.2,0,0.4,0,0.6c0,0.1,0,0.1,0,0.2
		c0,0.2,0,0.4,0,0.6c0,0,0,0,0,0c0,0.2,0,0.5,0,0.7c0,0,0,0.1,0,0.1c0,0.2,0,0.5,0,0.7c0,0,0,0,0,0c0,0.3,0,0.5,0,0.8c0,0,0,0,0,0
		c0,0.5,0,1-0.1,1.6c0,0,0,0.1,0,0.1c0,0.8-0.1,1.6-0.1,2.5c0,0,0,0,0,0c0,0.3,0,0.5,0,0.8c0,0,0,0,0,0c-0.3,7.1-0.7,13.9-0.7,13.9
		l0,0l-0.3,2.9c0,0-1.2,7.5-1.4,11c-0.1,2.3,0.5,5.8,2.1,8.8c2.9,5.2,7.2,7.8,7.2,7.8c0.7,0.7,4.9,1,2.6-1.9
		c-4.7-5.8-4.1-8.5-4.1-8.5s-0.7-4.8,0.6-4.9c1.1-0.1,2.4,2.3,2.8,3.6c0.9,2.3,1.4,5.8,2.9,5c0.6-0.3,0.3-1,0.2-2.4
		c-0.1-0.7,0.1-1.9,0-2.6c-0.1-0.6-1-3.8-1.3-4.7c-0.3-1-1.8-4.7-2.2-5.7c-0.5-1.1-0.9-3.1-0.9-4.6c0-1.5,2.5-10.9,3-12.7
		c0.4-1.8,10.5-27.9,10.5-38.6c0-5.3,0.4-13.5,0.7-21.2c1,5.3,2.2,11.4,3,14.1c1.1,3.7,1.5,12.3-1.5,18.5c-0.2,0.4-0.4,0.7-0.6,1.1
		c-0.9,1.6-1.8,3.1-2.5,4.7c-7.4,14.6-8.1,27.2-8.1,36.4c0,1.5,0.1,3,0.2,4.8c0,0,0,0,0,0c0-0.2,0-0.4,0-0.5
		c0.4,5.5,1.5,13,3.7,25.9c-0.2-0.8-0.3-1.2-0.3-1.2c1.7,10.2,4.2,23.8,7.6,42.6c0.9,4.8,1.1,9.7,0.7,14.6c-0.8,9,0.2,21.9,5.8,49.9
		c2.3,11.4,1.2,17.7-0.7,21.6c0,0,0,0,0,0c-2.7,5.5-6.9,6.2-5.5,9.9c2.2,2.6,13,1.7,17.7,1.5c1.3-0.1,2.4-0.2,3.1-2
		c0.5-1.3,0.6-2.1-1.7-7.5c-1.4-3.2-1.3-8.6-1.3-8.6s3.4-46.8,3.4-53.5c0-6.5-0.4-11.1-0.9-14.1c-0.5-2.9-0.5-5.8-0.2-8.7
		c0.5-4.3,1-10.2,1.5-16.8c0,0.2,0,0.4,0,0.6c2.7-33.6,3.2-55.3,3.2-55.3l4,0l-0.1,0.1c0,0,1.3,50.6,4.3,71.8c0.4,2.8,0.4,5.7,0,8.5
		c-0.4,2.9-0.9,7.4-0.9,13.9c0,6.2,3,49.9,3,49.9s0.4,5-0.3,9.5c-0.1,0.3-0.1,0.6-0.2,0.9c0,0,0.1-0.5,0.3-1.2
		c-0.1,0.9-0.3,1.8-0.6,2.6c-1.3,4.1-2,5.7-1.9,7.2c0.1,1.4,1.2,2.5,2.6,2.5c4.7,0.2,16.8,1.2,18.1-1.4c2.9-6.3-12.9-4.3-6.2-31.6
		c6.7-27.7,7.4-40.7,6.3-49.9c-0.6-4.9-0.5-9.8,0.2-14.7c6.1-39.8,12.2-57.5,12.2-72.3c0-11.4-0.9-18.8-2.6-24.7c0,0,0,0,0,0
		c-0.1-0.4-0.2-0.8-0.4-1.2c0,0,0,0,0,0c-0.4-1.2-0.8-2.3-1.2-3.4c0,0,0,0,0,0c-0.1-0.4-0.3-0.7-0.4-1.1c0,0,0,0,0,0
		c-0.3-0.7-0.6-1.4-1-2.1c0,0,0,0,0,0c-0.2-0.3-0.3-0.7-0.5-1c0,0,0,0,0-0.1c-0.2-0.3-0.3-0.7-0.5-1c0,0,0,0,0-0.1
		c-0.4-0.7-0.7-1.4-1.1-2.1c0,0,0,0,0-0.1c-0.2-0.3-0.4-0.7-0.6-1c0,0,0-0.1,0-0.1c-0.2-0.3-0.4-0.7-0.6-1c0,0,0-0.1,0-0.1
		c-0.2-0.4-0.4-0.7-0.6-1.1c-2.8-4.9-2.7-14-1.8-19.7c0-0.2,0.1-0.3,0.1-0.5c0,0,0-0.1,0-0.1c0-0.2,0.1-0.3,0.1-0.5c0,0,0-0.1,0-0.1
		c0-0.2,0.1-0.3,0.1-0.5c0,0,0-0.1,0-0.1c0-0.2,0.1-0.4,0.1-0.6c0,0,0-0.1,0-0.1c0-0.2,0.1-0.4,0.1-0.6c0,0,0,0,0-0.1
		c0-0.2,0.1-0.4,0.1-0.7c0,0,0-0.1,0-0.1c0-0.2,0.1-0.5,0.1-0.7c0,0,0,0,0,0c0.1-0.2,0.1-0.5,0.2-0.7c0,0,0-0.1,0-0.1
		c0.1-0.2,0.1-0.5,0.2-0.8c0,0,0-0.1,0-0.1c0.1-0.2,0.1-0.5,0.2-0.7c0,0,0-0.1,0-0.1c0.1-0.3,0.1-0.5,0.2-0.8c0,0,0-0.1,0-0.1
		c0.1-0.3,0.1-0.5,0.2-0.8c0,0,0,0,0,0c0.1-0.3,0.1-0.6,0.2-0.8c0-0.1,0-0.1,0-0.2c0.1-0.3,0.1-0.6,0.2-0.8c0,0,0,0,0-0.1
		c0.1-0.3,0.1-0.5,0.2-0.8c0-0.1,0-0.1,0-0.2c0-0.1,0.1-0.3,0.1-0.4c0,0.3,0,0.6,0,0.9c0,0.1,0,0.1,0,0.2c0,0.4,0,0.8,0.1,1.2
		c0,0,0,0.1,0,0.1c0,0.4,0,0.8,0.1,1.3c0,0,0,0.1,0,0.1c0,0.4,0,0.8,0.1,1.3c0,0.1,0,0.1,0,0.2c0,0.4,0,0.8,0.1,1.2c0,0,0,0.1,0,0.1
		c0,0.4,0,0.8,0.1,1.3c0,0,0,0.1,0,0.1c0,0.4,0,0.9,0,1.3c0,0,0,0,0,0c0,0.4,0,0.8,0,1.2c0,0,0,0.1,0,0.1c0,0.4,0,0.8,0,1.2
		c0,0,0,0.1,0,0.1c0,0.4,0,0.8,0,1.1c0,0.1,0,0.1,0,0.2c0,0.4,0,0.7,0,1.1c0,0.1,0,0.1,0,0.2c0,0.4,0,0.7,0,1c0,0.1,0,0.1,0,0.2
		c0,0.3,0,0.7,0,1c0,0.1,0,0.1,0,0.2c0,0.3,0,0.6,0,1c0,0,0,0.1,0,0.1c0,0.3,0,0.6,0,0.9c0,0,0,0.1,0,0.1c0,0.3,0,0.6,0,0.9
		c0,0.2,0,0.5,0,0.7c0,0,0,0.1,0,0.1c0,0.2,0,0.5,0,0.7c0,0,0,0.1,0,0.1c0,0.3,0,0.5,0.1,0.8c0,0,0,0.1,0,0.1c0,0.3,0.1,0.5,0.1,0.8
		c0,0,0,0.1,0,0.1c0,0.3,0.1,0.6,0.1,0.9c0,0.1,0,0.1,0,0.2c0,0.3,0.1,0.6,0.1,0.9c0,0.1,0,0.1,0,0.2c0.1,0.3,0.1,0.6,0.2,1
		c0,0,0,0,0,0c0.1,0.3,0.1,0.6,0.2,1c0,0.1,0,0.1,0,0.2c0.1,0.3,0.1,0.6,0.2,1c0,0.1,0,0.1,0,0.2c0.1,0.3,0.1,0.7,0.2,1
		c0,0,0,0.1,0,0.1c0.1,0.3,0.2,0.7,0.2,1c0,0,0,0.1,0,0.1c0.1,0.3,0.2,0.7,0.3,1c0,0.1,0,0.1,0.1,0.2c0.1,0.3,0.2,0.7,0.3,1
		c0,0.1,0,0.1,0,0.2c0.1,0.4,0.2,0.7,0.3,1.1c0,0,0,0,0,0.1c0.1,0.4,0.2,0.7,0.3,1.1c0,0.1,0,0.1,0,0.2c0.1,0.4,0.2,0.7,0.3,1.1
		c0,0.1,0,0.1,0.1,0.2c0.1,0.4,0.2,0.7,0.3,1.1c0,0.1,0,0.1,0,0.2c0.1,0.4,0.2,0.7,0.3,1.1c0,0,0,0.1,0,0.1c0.1,0.4,0.2,0.7,0.3,1.1
		c0,0.1,0,0.1,0.1,0.2c0.1,0.3,0.2,0.7,0.3,1c0,0.1,0,0.1,0.1,0.2c0.1,0.4,0.2,0.7,0.3,1.1c0,0,0,0,0,0.1c0.1,0.3,0.2,0.7,0.3,1
		c0,0.1,0,0.1,0,0.2c0.1,0.3,0.2,0.7,0.3,1c0,0.1,0,0.1,0.1,0.2c0.1,0.3,0.2,0.7,0.3,1c0,0,0,0.1,0,0.1c0.1,0.3,0.2,0.6,0.3,1
		c0,0,0,0,0,0.1c0.1,0.3,0.2,0.6,0.3,0.9c0,0.1,0,0.1,0.1,0.2c0.1,0.3,0.2,0.6,0.3,0.9c0,0.1,0,0.1,0.1,0.2c0.1,0.3,0.2,0.6,0.3,0.9
		c0,0,0,0.1,0,0.1c0.1,0.3,0.2,0.5,0.3,0.8c0,0,0,0.1,0,0.1c0.1,0.3,0.2,0.5,0.3,0.8c0,0.1,0,0.1,0.1,0.2c0.1,0.3,0.2,0.5,0.3,0.7
		c0,0,0,0.1,0,0.1c0.1,0.2,0.2,0.5,0.2,0.7c0,0,0,0,0,0c0.8,2.3,1.5,4.7,2.1,7c0,0,0,0,0,0c0.1,0.4,0.2,0.8,0.3,1.2
		c0,0.1,0,0.1,0,0.2c0.1,0.3,0.2,0.6,0.2,1c0,0.1,0.1,0.2,0.1,0.3c0.1,0.3,0.1,0.6,0.2,0.8c0,0.1,0,0.2,0.1,0.3
		c0.1,0.3,0.2,0.7,0.2,1c0,0,0,0,0,0.1l0.4,1.9c0.3,1.3,0.5,2.4,0.7,3.2c0.4,2.4-0.6,3.6-0.9,4.6c-0.3,1-1.9,4.7-2.2,5.7
		c-0.3,1-1.3,4.1-1.3,4.7c-0.1,0.7,0.1,1.9,0,2.6c-0.1,1.4-0.4,2.1,0.2,2.4c1.6,0.8,2-2.8,2.9-5c0.5-1.2,1.7-3.7,2.8-3.6
		c1.3,0.1,0.6,4.9,0.6,4.9s0.6,2.7-4.1,8.5c-2.4,2.9,1.8,2.6,2.6,1.9c0,0,4.3-2.6,7.2-7.8C845.7,212.6,846.3,209,846.2,206.8z"/>
	<circle class="st5" cx="793" cy="37.9" r="14.7"/>
	<circle class="st5" cx="793" cy="168.8" r="14.7"/>
	<g>
		<path class="st6" d="M796.8,46.4c0,9.5-7.3,9.5-7.3,19.1c0,9.5,7.3,9.5,7.3,19.1c0,9.6-7.3,9.6-7.3,19.1c0,9.6,7.3,9.6,7.3,19.1
			c0,9.6-7.3,9.6-7.3,19.1s7.3,9.6,7.3,19.1"/>
	</g>
	<g>
		<path class="st6" d="M789.5,161c0-9.5,7.3-9.5,7.3-19.1c0-9.5-7.3-9.5-7.3-19.1c0-9.6,7.3-9.6,7.3-19.1c0-9.6-7.3-9.6-7.3-19.1
			c0-9.6,7.3-9.6,7.3-19.1s-7.3-9.6-7.3-19.1"/>
	</g>
	<circle class="st7" cx="793" cy="37.9" r="9.2"/>
	<circle class="st7" cx="793" cy="168.8" r="9.2"/>
</g>
<g>
	<path class="st1" d="M1121.7,206.8c-0.2-3.5-1.4-11-1.4-11l-0.3-3l0.1,0.1c0,0-0.9-18.2-1.1-26c-0.2-7.8-3.5-18.3-4.8-23.9
		c-1.3-5.7-1.7-16.8-1.5-30.2c0.2-13.8-0.8-24.6-3.2-28c-2.8-4-8.4-5.4-10.6-5.9c-1.7-0.5-3.6-1-5.6-1.6c0,0,0,0,0-0.1
		c2.5-6.5,2.5-13.8,0.1-20.4c-0.7-1.9-1.5-3.7-2-5.7c-0.7-3-0.4-6-0.5-9.1c-0.2-5.4-0.6-12.2-3.2-17.1c-2.1-4-5.2-8-10-8.4
		c-1.1-0.1-1.6,0.2-2.5-0.4c-1-0.6-3.1-2.4-6.3-2.9c-9.5-1.5-17.7,4.1-21.6,12.7c-2.9,6.3-3.1,13.4-2.9,20.3c0.1,2.9,0.2,5.8-1,8.4
		c-1.7,3.8-5.9,5.9-8.3,9.3c-1.9,2.7-2.5,6.2-2.7,9.5c-0.1,2.2,0,4.4,0.5,6.5c-1.1,0.5-2.3,1.2-3.3,2.1c0,0,0,0,0,0c0,0,0,0,0,0
		c-0.2,0.1-0.3,0.3-0.5,0.5c0,0,0,0,0,0c-0.1,0.1-0.3,0.3-0.4,0.4c0,0-0.1,0.1-0.1,0.1c-0.1,0.1-0.2,0.2-0.3,0.4
		c0,0.1-0.1,0.1-0.1,0.2c-0.1,0.2-0.3,0.4-0.4,0.5c-2.4,3.4-3.4,14.6-3.2,28.4c0.2,13.5-0.2,24.6-1.5,30.2
		c-1.3,5.7-4.6,16.2-4.8,23.9c0,0.2,0,0.3,0,0.5c0,0,0,0.1,0,0.1c0,0.2,0,0.4,0,0.5c0,0,0,0.1,0,0.1c0,0.2,0,0.3,0,0.5
		c0,0,0,0.1,0,0.1c0,0.2,0,0.4,0,0.6c0,0,0,0.1,0,0.1c0,0.2,0,0.4,0,0.5c0,0,0,0.1,0,0.1c0,0.2,0,0.4,0,0.6c0,0.1,0,0.1,0,0.2
		c0,0.2,0,0.4,0,0.6c0,0,0,0,0,0c0,0.2,0,0.5,0,0.7c0,0,0,0.1,0,0.1c0,0.2,0,0.5,0,0.7c0,0,0,0,0,0c0,0.3,0,0.5,0,0.8c0,0,0,0,0,0
		c0,0.5,0,1-0.1,1.6c0,0,0,0.1,0,0.1c0,0.8-0.1,1.6-0.1,2.5c0,0,0,0,0,0c0,0.3,0,0.5,0,0.8c0,0,0,0,0,0c-0.3,7.1-0.7,13.9-0.7,13.9
		l0,0l-0.3,2.9c0,0-1.2,7.5-1.4,11c-0.1,2.3,0.5,5.8,2.1,8.8c2.9,5.2,7.2,7.8,7.2,7.8c0.7,0.7,4.9,1,2.6-1.9
		c-4.7-5.8-4.1-8.5-4.1-8.5s-0.7-4.8,0.6-4.9c1.1-0.1,2.4,2.3,2.8,3.6c0.9,2.3,1.4,5.8,2.9,5c0.6-0.3,0.3-1,0.2-2.4
		c-0.1-0.7,0.1-1.9,0-2.6c-0.1-0.6-1-3.8-1.3-4.7c-0.3-1-1.8-4.7-2.2-5.7c-0.5-1.1-0.9-3.1-0.9-4.6c0-1.5,2.5-10.9,3-12.7
		c0.4-1.8,10.5-27.9,10.5-38.6c0-5.3,0.4-13.5,0.7-21.2c1,5.3,2.2,11.4,3,14.1c1.1,3.7,1.5,12.3-1.5,18.5c-0.2,0.4-0.4,0.7-0.6,1.1
		c-0.9,1.6-1.8,3.1-2.5,4.7c-7.4,14.6-8.1,27.2-8.1,36.4c0,1.5,0.1,3,0.2,4.8c0,0,0,0,0,0c0-0.2,0-0.4,0-0.5
		c0.4,5.5,1.5,13,3.7,25.9c-0.2-0.8-0.3-1.2-0.3-1.2c1.7,10.2,4.2,23.8,7.6,42.6c0.9,4.8,1.1,9.7,0.7,14.6c-0.8,9,0.2,21.9,5.8,49.9
		c2.3,11.4,1.2,17.7-0.7,21.6c0,0,0,0,0,0c-2.7,5.5-6.9,6.2-5.5,9.9c2.2,2.6,13,1.7,17.7,1.5c1.3-0.1,2.4-0.2,3.1-2
		c0.5-1.3,0.6-2.1-1.7-7.5c-1.4-3.2-1.3-8.6-1.3-8.6s3.4-46.8,3.4-53.5c0-6.5-0.4-11.1-0.9-14.1c-0.5-2.9-0.5-5.8-0.2-8.7
		c0.5-4.3,1-10.2,1.5-16.8c0,0.2,0,0.4,0,0.6c2.7-33.6,3.2-55.3,3.2-55.3l4,0l-0.1,0.1c0,0,1.3,50.6,4.3,71.8c0.4,2.8,0.4,5.7,0,8.5
		c-0.4,2.9-0.9,7.4-0.9,13.9c0,6.2,3,49.9,3,49.9s0.4,5-0.3,9.5c-0.1,0.3-0.1,0.6-0.2,0.9c0,0,0.1-0.5,0.3-1.2
		c-0.1,0.9-0.3,1.8-0.6,2.6c-1.3,4.1-2,5.7-1.9,7.2c0.1,1.4,1.2,2.5,2.6,2.5c4.7,0.2,16.8,1.2,18.1-1.4c2.9-6.3-12.9-4.3-6.2-31.6
		c6.7-27.7,7.4-40.7,6.3-49.9c-0.6-4.9-0.5-9.8,0.2-14.7c6.1-39.8,12.2-57.5,12.2-72.3c0-11.4-0.9-18.8-2.6-24.7c0,0,0,0,0,0
		c-0.1-0.4-0.2-0.8-0.4-1.2c0,0,0,0,0,0c-0.4-1.2-0.8-2.3-1.2-3.4c0,0,0,0,0,0c-0.1-0.4-0.3-0.7-0.4-1.1c0,0,0,0,0,0
		c-0.3-0.7-0.6-1.4-1-2.1c0,0,0,0,0,0c-0.2-0.3-0.3-0.7-0.5-1c0,0,0,0,0-0.1c-0.2-0.3-0.3-0.7-0.5-1c0,0,0,0,0-0.1
		c-0.4-0.7-0.7-1.4-1.1-2.1c0,0,0,0,0-0.1c-0.2-0.3-0.4-0.7-0.6-1c0,0,0-0.1,0-0.1c-0.2-0.3-0.4-0.7-0.6-1c0,0,0-0.1,0-0.1
		c-0.2-0.4-0.4-0.7-0.6-1.1c-2.8-4.9-2.7-14-1.8-19.7c0-0.2,0.1-0.3,0.1-0.5c0,0,0-0.1,0-0.1c0-0.2,0.1-0.3,0.1-0.5c0,0,0-0.1,0-0.1
		c0-0.2,0.1-0.3,0.1-0.5c0,0,0-0.1,0-0.1c0-0.2,0.1-0.4,0.1-0.6c0,0,0-0.1,0-0.1c0-0.2,0.1-0.4,0.1-0.6c0,0,0,0,0-0.1
		c0-0.2,0.1-0.4,0.1-0.7c0,0,0-0.1,0-0.1c0-0.2,0.1-0.5,0.1-0.7c0,0,0,0,0,0c0.1-0.2,0.1-0.5,0.2-0.7c0,0,0-0.1,0-0.1
		c0.1-0.2,0.1-0.5,0.2-0.8c0,0,0-0.1,0-0.1c0.1-0.2,0.1-0.5,0.2-0.7c0,0,0-0.1,0-0.1c0.1-0.3,0.1-0.5,0.2-0.8c0,0,0-0.1,0-0.1
		c0.1-0.3,0.1-0.5,0.2-0.8c0,0,0,0,0,0c0.1-0.3,0.1-0.6,0.2-0.8c0-0.1,0-0.1,0-0.2c0.1-0.3,0.1-0.6,0.2-0.8c0,0,0,0,0-0.1
		c0.1-0.3,0.1-0.5,0.2-0.8c0-0.1,0-0.1,0-0.2c0-0.1,0.1-0.3,0.1-0.4c0,0.3,0,0.6,0,0.9c0,0.1,0,0.1,0,0.2c0,0.4,0,0.8,0.1,1.2
		c0,0,0,0.1,0,0.1c0,0.4,0,0.8,0.1,1.3c0,0,0,0.1,0,0.1c0,0.4,0,0.8,0.1,1.3c0,0.1,0,0.1,0,0.2c0,0.4,0,0.8,0.1,1.2c0,0,0,0.1,0,0.1
		c0,0.4,0,0.8,0.1,1.3c0,0,0,0.1,0,0.1c0,0.4,0,0.9,0,1.3c0,0,0,0,0,0c0,0.4,0,0.8,0,1.2c0,0,0,0.1,0,0.1c0,0.4,0,0.8,0,1.2
		c0,0,0,0.1,0,0.1c0,0.4,0,0.8,0,1.1c0,0.1,0,0.1,0,0.2c0,0.4,0,0.7,0,1.1c0,0.1,0,0.1,0,0.2c0,0.4,0,0.7,0,1c0,0.1,0,0.1,0,0.2
		c0,0.3,0,0.7,0,1c0,0.1,0,0.1,0,0.2c0,0.3,0,0.6,0,1c0,0,0,0.1,0,0.1c0,0.3,0,0.6,0,0.9c0,0,0,0.1,0,0.1c0,0.3,0,0.6,0,0.9
		c0,0.2,0,0.5,0,0.7c0,0,0,0.1,0,0.1c0,0.2,0,0.5,0,0.7c0,0,0,0.1,0,0.1c0,0.3,0,0.5,0.1,0.8c0,0,0,0.1,0,0.1c0,0.3,0.1,0.5,0.1,0.8
		c0,0,0,0.1,0,0.1c0,0.3,0.1,0.6,0.1,0.9c0,0.1,0,0.1,0,0.2c0,0.3,0.1,0.6,0.1,0.9c0,0.1,0,0.1,0,0.2c0.1,0.3,0.1,0.6,0.2,1
		c0,0,0,0,0,0c0.1,0.3,0.1,0.6,0.2,1c0,0.1,0,0.1,0,0.2c0.1,0.3,0.1,0.6,0.2,1c0,0.1,0,0.1,0,0.2c0.1,0.3,0.1,0.7,0.2,1
		c0,0,0,0.1,0,0.1c0.1,0.3,0.2,0.7,0.2,1c0,0,0,0.1,0,0.1c0.1,0.3,0.2,0.7,0.3,1c0,0.1,0,0.1,0.1,0.2c0.1,0.3,0.2,0.7,0.3,1
		c0,0.1,0,0.1,0,0.2c0.1,0.4,0.2,0.7,0.3,1.1c0,0,0,0,0,0.1c0.1,0.4,0.2,0.7,0.3,1.1c0,0.1,0,0.1,0,0.2c0.1,0.4,0.2,0.7,0.3,1.1
		c0,0.1,0,0.1,0.1,0.2c0.1,0.4,0.2,0.7,0.3,1.1c0,0.1,0,0.1,0,0.2c0.1,0.4,0.2,0.7,0.3,1.1c0,0,0,0.1,0,0.1c0.1,0.4,0.2,0.7,0.3,1.1
		c0,0.1,0,0.1,0.1,0.2c0.1,0.3,0.2,0.7,0.3,1c0,0.1,0,0.1,0.1,0.2c0.1,0.4,0.2,0.7,0.3,1.1c0,0,0,0,0,0.1c0.1,0.3,0.2,0.7,0.3,1
		c0,0.1,0,0.1,0,0.2c0.1,0.3,0.2,0.7,0.3,1c0,0.1,0,0.1,0.1,0.2c0.1,0.3,0.2,0.7,0.3,1c0,0,0,0.1,0,0.1c0.1,0.3,0.2,0.6,0.3,1
		c0,0,0,0,0,0.1c0.1,0.3,0.2,0.6,0.3,0.9c0,0.1,0,0.1,0.1,0.2c0.1,0.3,0.2,0.6,0.3,0.9c0,0.1,0,0.1,0.1,0.2c0.1,0.3,0.2,0.6,0.3,0.9
		c0,0,0,0.1,0,0.1c0.1,0.3,0.2,0.5,0.3,0.8c0,0,0,0.1,0,0.1c0.1,0.3,0.2,0.5,0.3,0.8c0,0.1,0,0.1,0.1,0.2c0.1,0.3,0.2,0.5,0.3,0.7
		c0,0,0,0.1,0,0.1c0.1,0.2,0.2,0.5,0.2,0.7c0,0,0,0,0,0c0.8,2.3,1.5,4.7,2.1,7c0,0,0,0,0,0c0.1,0.4,0.2,0.8,0.3,1.2
		c0,0.1,0,0.1,0,0.2c0.1,0.3,0.2,0.6,0.2,1c0,0.1,0.1,0.2,0.1,0.3c0.1,0.3,0.1,0.6,0.2,0.8c0,0.1,0,0.2,0.1,0.3
		c0.1,0.3,0.2,0.7,0.2,1c0,0,0,0,0,0.1l0.4,1.9c0.3,1.3,0.5,2.4,0.7,3.2c0.4,2.4-0.6,3.6-0.9,4.6c-0.3,1-1.9,4.7-2.2,5.7
		c-0.3,1-1.3,4.1-1.3,4.7c-0.1,0.7,0.1,1.9,0,2.6c-0.1,1.4-0.4,2.1,0.2,2.4c1.6,0.8,2-2.8,2.9-5c0.5-1.2,1.7-3.7,2.8-3.6
		c1.3,0.1,0.6,4.9,0.6,4.9s0.6,2.7-4.1,8.5c-2.4,2.9,1.8,2.6,2.6,1.9c0,0,4.3-2.6,7.2-7.8C1121.2,212.6,1121.8,209,1121.7,206.8z"/>
	<circle class="st5" cx="1068.5" cy="37.9" r="14.7"/>
	<circle class="st5" cx="1068.5" cy="168.8" r="14.7"/>
	<g>
		<path class="st6" d="M1072.3,46.4c0,9.5-7.3,9.5-7.3,19.1c0,9.5,7.3,9.5,7.3,19.1c0,9.6-7.3,9.6-7.3,19.1c0,9.6,7.3,9.6,7.3,19.1
			c0,9.6-7.3,9.6-7.3,19.1s7.3,9.6,7.3,19.1"/>
	</g>
	<g>
		<path class="st6" d="M1065,161c0-9.5,7.3-9.5,7.3-19.1c0-9.5-7.3-9.5-7.3-19.1c0-9.6,7.3-9.6,7.3-19.1c0-9.6-7.3-9.6-7.3-19.1
			c0-9.6,7.3-9.6,7.3-19.1s-7.3-9.6-7.3-19.1"/>
	</g>
	<circle class="st7" cx="1068.5" cy="37.9" r="9.2"/>
	<circle class="st7" cx="1068.5" cy="168.8" r="9.2"/>
</g>
<g>
	<path class="st1" d="M441.1,580.6c-0.3-3.5-1.7-11-1.7-11l-0.4-2.9v0c0,0-1.6-18.1-2-25.9c-0.5-7.7-3.8-16.9-5.3-22.5
		s3.3-17.8-1-33c-2.5-9.5,0-18.4-5.1-25c-5.6-7.2-11.6-6.4-14.1-6.8l0,0c-2.9-0.5-6.3-1-8.4-1.9c-5.1-2.2-8.3-4.4-11.2-5.7
		c-2.1-0.9-2.3-7.1-2.2-10.8c1.7-1.1,3-2.3,3.7-3.3c1-1.6,1.8-6.1,2.2-10.2c0.4,0.1,0.9,0,1.7-0.4c1.9-0.9,2.5-6.4,1.2-8.9
		c-0.1-0.2-0.2-0.4-0.4-0.6c0.7-5.5,1.4-14.7-1.4-18.8c-4-6.1-13-6.3-16-6.6c-4-0.4-11.2-0.3-13,4.2c-8.4,0.8-7.4,14.1-6.2,21.2
		c-0.1,0.1-0.2,0.3-0.3,0.5c-1.3,2.5-0.7,7.9,1.2,8.9c0.9,0.4,1.5,0.5,1.8,0.4c0.4,4.1,1.2,8.6,2.2,10.2c0.7,1,1.9,2.2,3.6,3.3
		c0.1,3.7-0.1,9.9-2.2,10.8c-2.9,1.3-6.1,3.5-11.2,5.7c-2.1,0.9-5.5,1.4-8.4,1.9c-2.5,0.3-8.6-0.4-14.1,6.8
		c-5.1,6.6-2.7,15.6-5.1,25c-4.3,15.3,0.5,27.4-1,33c-1.5,5.6-4.8,14.8-5.3,22.5c-0.5,7.7-2,25.9-2,25.9v0l-0.4,2.9
		c0,0-1.4,7.5-1.7,11c-0.2,2.3,0.3,5.8,1.8,8.9c2.7,5.3,8.1,9.3,8.1,9.3c0.7,0.8,4.9,1.2,2.6-1.8c-4.5-5.9-5-9.9-5-9.9
		s-0.6-4.8,0.8-4.8c1.1-0.1,2.3,2.4,2.7,3.6c0.8,2.3,1.1,5.9,2.7,5.1c0.6-0.3,0.4-1,0.3-2.4c0-0.7,0.2-1.9,0.1-2.6
		c-0.1-0.6-0.9-3.8-1.2-4.8c-0.3-1-1.6-4.8-2-5.8c-0.4-1.1-0.8-3.1-0.7-4.6c0.1-1.5,2.7-10.4,3.9-13c0.8-1.9,9.7-13.9,11.3-37.6
		c0.4-5.6,1.8-13.5,2.7-21.1c0.7,3.5,1.3,6.9,1.4,9.5c0.3,7.8,2.6,19.3,1.9,25.2c-1.6,13.6-5.1,13.2-5.1,35.6
		c0,14.8-0.6,42.2,7,74.9c1.1,4.8,0.1,11.4-0.5,16.3c-1.1,9.2,1.6,21.5,7.2,49.4c5.4,26.8-11.1,23.7-8.3,30c1.2,2.6,16.3,1.8,21,1.6
		c1.4-0.1,2.5-1.2,2.6-2.5c0.1-1.4-0.6-3-1.9-7.2c-1.5-4.8-0.9-11.9-0.9-11.9s3-43.6,3-49.8c0-7-0.5-11.7-1-14.5
		c-0.4-2.4-0.6-4.8,0-7.2c4.4-19.6,4.4-69.6,4.4-69.7h4.7c0,0,0.1,50,4.4,69.7c0.5,2.4,0.4,4.8,0,7.2c-0.5,2.8-1,7.5-1,14.5
		c0,6.2,3,49.8,3,49.8s0.6,7.1-0.9,11.9c-1.3,4.1-2,5.7-1.9,7.2c0.1,1.4,1.2,2.5,2.6,2.5c4.7,0.2,19.8,1,21-1.6
		c2.8-6.3-13.7-3.2-8.3-30c5.7-27.9,8.3-40.2,7.2-49.4c-0.6-4.9-1.6-11.5-0.5-16.3c7.6-32.6,7-60.1,7-74.9c0-22.5-3.5-22.1-5.1-35.6
		c-0.7-5.8,1.7-17.3,1.9-25.2c0.1-2.6,0.7-6,1.4-9.5c0.9,7.6,2.3,15.6,2.7,21.1c1.6,23.7,11,36.4,11.8,38.1c0.9,2.2,3.4,11,3.4,12.6
		s-0.3,3.5-0.7,4.6c-0.3,1-1.7,4.8-2,5.8c-0.3,1-1.1,4.1-1.2,4.8c-0.1,0.7,0.2,1.9,0.1,2.6c-0.1,1.4-0.3,2.1,0.3,2.4
		c1.6,0.7,1.9-2.8,2.7-5.1c0.4-1.2,1.6-3.7,2.7-3.6c1.3,0.1,0.8,4.8,0.8,4.8s-0.5,4-5,9.9c-2.3,3,1.9,2.6,2.6,1.8
		c0,0,5.4-4.1,8.1-9.3C440.9,586.4,441.3,582.9,441.1,580.6z"/>
	<circle class="st8" cx="379.7" cy="411.3" r="14.7"/>
	<circle class="st8" cx="379.7" cy="542.1" r="14.7"/>
	<g>
		<path class="st9" d="M383.5,419.8c0,9.5-7.3,9.5-7.3,19.1c0,9.5,7.3,9.5,7.3,19.1c0,9.6-7.3,9.6-7.3,19.1c0,9.6,7.3,9.6,7.3,19.1
			c0,9.6-7.3,9.6-7.3,19.1s7.3,9.6,7.3,19.1"/>
	</g>
	<g>
		<path class="st9" d="M376.2,534.4c0-9.5,7.3-9.5,7.3-19.1c0-9.5-7.3-9.5-7.3-19.1c0-9.6,7.3-9.6,7.3-19.1c0-9.6-7.3-9.6-7.3-19.1
			c0-9.6,7.3-9.6,7.3-19.1c0-9.6-7.3-9.6-7.3-19.1"/>
	</g>
	<circle class="st10" cx="379.7" cy="411.3" r="9.2"/>
	<circle class="st10" cx="379.7" cy="542.1" r="9.2"/>
</g>
<g>
	<path class="st1" d="M716.6,580.6c-0.3-3.5-1.7-11-1.7-11l-0.4-2.9v0c0,0-1.6-18.1-2-25.9c-0.5-7.7-3.8-16.9-5.3-22.5
		c-1.5-5.6,3.3-17.8-1-33c-2.5-9.5,0-18.4-5.1-25c-5.6-7.2-11.6-6.4-14.1-6.8l0,0c-2.9-0.5-6.3-1-8.4-1.9c-5.1-2.2-8.3-4.4-11.2-5.7
		c-2.1-0.9-2.3-7.1-2.2-10.8c1.7-1.1,3-2.3,3.7-3.3c1-1.6,1.8-6.1,2.2-10.2c0.4,0.1,0.9,0,1.7-0.4c1.9-0.9,2.5-6.4,1.2-8.9
		c-0.1-0.2-0.2-0.4-0.4-0.6c0.7-5.5,1.4-14.7-1.4-18.8c-4-6.1-13-6.3-16-6.6c-4-0.4-11.2-0.3-13,4.2c-8.4,0.8-7.4,14.1-6.2,21.2
		c-0.1,0.1-0.2,0.3-0.3,0.5c-1.3,2.5-0.7,7.9,1.2,8.9c0.9,0.4,1.5,0.5,1.8,0.4c0.4,4.1,1.2,8.6,2.2,10.2c0.7,1,1.9,2.2,3.6,3.3
		c0.1,3.7-0.1,9.9-2.2,10.8c-2.9,1.3-6.1,3.5-11.2,5.7c-2.1,0.9-5.5,1.4-8.4,1.9c-2.5,0.3-8.6-0.4-14.1,6.8
		c-5.1,6.6-2.7,15.6-5.1,25c-4.3,15.3,0.5,27.4-1,33c-1.5,5.6-4.8,14.8-5.3,22.5c-0.5,7.7-2,25.9-2,25.9v0l-0.4,2.9
		c0,0-1.4,7.5-1.7,11c-0.2,2.3,0.3,5.8,1.8,8.9c2.7,5.3,8.1,9.3,8.1,9.3c0.7,0.8,4.9,1.2,2.6-1.8c-4.5-5.9-5-9.9-5-9.9
		s-0.6-4.8,0.8-4.8c1.1-0.1,2.3,2.4,2.7,3.6c0.8,2.3,1.1,5.9,2.7,5.1c0.6-0.3,0.4-1,0.3-2.4c0-0.7,0.2-1.9,0.1-2.6
		c-0.1-0.6-0.9-3.8-1.2-4.8c-0.3-1-1.6-4.8-2-5.8c-0.4-1.1-0.8-3.1-0.7-4.6c0.1-1.5,2.7-10.4,3.9-13c0.8-1.9,9.7-13.9,11.3-37.6
		c0.4-5.6,1.8-13.5,2.7-21.1c0.7,3.5,1.3,6.9,1.4,9.5c0.3,7.8,2.6,19.3,1.9,25.2c-1.6,13.6-5.1,13.2-5.1,35.6
		c0,14.8-0.6,42.2,7,74.9c1.1,4.8,0.1,11.4-0.5,16.3c-1.1,9.2,1.6,21.5,7.2,49.4c5.4,26.8-11.1,23.7-8.3,30c1.2,2.6,16.3,1.8,21,1.6
		c1.4-0.1,2.5-1.2,2.6-2.5c0.1-1.4-0.6-3-1.9-7.2c-1.5-4.8-0.9-11.9-0.9-11.9s3-43.6,3-49.8c0-7-0.5-11.7-1-14.5
		c-0.4-2.4-0.6-4.8,0-7.2c4.4-19.6,4.4-69.6,4.4-69.7h4.7c0,0,0.1,50,4.4,69.7c0.5,2.4,0.4,4.8,0,7.2c-0.5,2.8-1,7.5-1,14.5
		c0,6.2,3,49.8,3,49.8s0.6,7.1-0.9,11.9c-1.3,4.1-2,5.7-1.9,7.2c0.1,1.4,1.2,2.5,2.6,2.5c4.7,0.2,19.8,1,21-1.6
		c2.8-6.3-13.7-3.2-8.3-30c5.7-27.9,8.3-40.2,7.2-49.4c-0.6-4.9-1.6-11.5-0.5-16.3c7.6-32.6,7-60.1,7-74.9c0-22.5-3.5-22.1-5.1-35.6
		c-0.7-5.8,1.7-17.3,1.9-25.2c0.1-2.6,0.7-6,1.4-9.5c0.9,7.6,2.3,15.6,2.7,21.1c1.6,23.7,11,36.4,11.8,38.1c0.9,2.2,3.4,11,3.4,12.6
		c0.1,1.5-0.3,3.5-0.7,4.6c-0.3,1-1.7,4.8-2,5.8c-0.3,1-1.1,4.1-1.2,4.8c-0.1,0.7,0.2,1.9,0.1,2.6c-0.1,1.4-0.3,2.1,0.3,2.4
		c1.6,0.7,1.9-2.8,2.7-5.1c0.4-1.2,1.6-3.7,2.7-3.6c1.3,0.1,0.8,4.8,0.8,4.8s-0.5,4-5,9.9c-2.3,3,1.9,2.6,2.6,1.8
		c0,0,5.4-4.1,8.1-9.3C716.3,586.4,716.8,582.9,716.6,580.6z"/>
	<circle class="st8" cx="655.2" cy="411.3" r="14.7"/>
	<circle class="st8" cx="655.2" cy="542.1" r="14.7"/>
	<g>
		<path class="st9" d="M658.9,419.8c0,9.5-7.3,9.5-7.3,19.1c0,9.5,7.3,9.5,7.3,19.1c0,9.6-7.3,9.6-7.3,19.1c0,9.6,7.3,9.6,7.3,19.1
			c0,9.6-7.3,9.6-7.3,19.1s7.3,9.6,7.3,19.1"/>
	</g>
	<g>
		<path class="st9" d="M651.7,534.4c0-9.5,7.3-9.5,7.3-19.1c0-9.5-7.3-9.5-7.3-19.1c0-9.6,7.3-9.6,7.3-19.1c0-9.6-7.3-9.6-7.3-19.1
			c0-9.6,7.3-9.6,7.3-19.1c0-9.6-7.3-9.6-7.3-19.1"/>
	</g>
	<circle class="st10" cx="655.2" cy="411.3" r="9.2"/>
	<circle class="st10" cx="655.2" cy="542.1" r="9.2"/>
</g>
<g>
	<path class="st1" d="M570.7,580.1c-0.2-3.5-1.4-11-1.4-11l-0.3-3l0.1,0.1c0,0-0.9-18.2-1.1-26c-0.2-7.8-3.5-18.3-4.8-23.9
		c-1.3-5.7-1.7-16.8-1.5-30.2c0.2-13.8-0.8-24.6-3.2-28c-2.8-4-8.4-5.4-10.6-5.9c-1.7-0.5-3.6-1-5.6-1.6c0,0,0,0,0-0.1
		c2.5-6.5,2.5-13.8,0.1-20.4c-0.7-1.9-1.5-3.7-2-5.7c-0.7-3-0.4-6-0.5-9.1c-0.2-5.4-0.6-12.2-3.2-17.1c-2.1-4-5.2-8-10-8.4
		c-1.1-0.1-1.6,0.2-2.5-0.4c-1-0.6-3.1-2.4-6.3-2.9c-9.5-1.5-17.7,4.1-21.6,12.7c-2.9,6.3-3.1,13.4-2.9,20.3c0.1,2.9,0.2,5.8-1,8.4
		c-1.7,3.8-5.9,5.9-8.3,9.3c-1.9,2.7-2.5,6.2-2.7,9.5c-0.1,2.2,0,4.4,0.5,6.5c-1.1,0.5-2.3,1.2-3.3,2.1c0,0,0,0,0,0c0,0,0,0,0,0
		c-0.2,0.1-0.3,0.3-0.5,0.5c0,0,0,0,0,0c-0.1,0.1-0.3,0.3-0.4,0.4c0,0-0.1,0.1-0.1,0.1c-0.1,0.1-0.2,0.2-0.3,0.4
		c0,0.1-0.1,0.1-0.1,0.2c-0.1,0.2-0.3,0.4-0.4,0.5c-2.4,3.4-3.4,14.6-3.2,28.4c0.2,13.5-0.2,24.6-1.5,30.2
		c-1.3,5.7-4.6,16.2-4.8,23.9c0,0.2,0,0.3,0,0.5c0,0,0,0.1,0,0.1c0,0.2,0,0.4,0,0.5c0,0,0,0.1,0,0.1c0,0.2,0,0.3,0,0.5
		c0,0,0,0.1,0,0.1c0,0.2,0,0.4,0,0.6c0,0,0,0.1,0,0.1c0,0.2,0,0.4,0,0.5c0,0,0,0.1,0,0.1c0,0.2,0,0.4,0,0.6c0,0.1,0,0.1,0,0.2
		c0,0.2,0,0.4,0,0.6c0,0,0,0,0,0c0,0.2,0,0.5,0,0.7c0,0,0,0.1,0,0.1c0,0.2,0,0.5,0,0.7c0,0,0,0,0,0c0,0.3,0,0.5,0,0.8c0,0,0,0,0,0
		c0,0.5,0,1-0.1,1.6c0,0,0,0.1,0,0.1c0,0.8-0.1,1.6-0.1,2.5c0,0,0,0,0,0c0,0.3,0,0.5,0,0.8c0,0,0,0,0,0c-0.3,7.1-0.7,13.9-0.7,13.9
		l0,0l-0.3,2.9c0,0-1.2,7.5-1.4,11c-0.1,2.3,0.5,5.8,2.1,8.8c2.9,5.2,7.2,7.8,7.2,7.8c0.7,0.7,4.9,1,2.6-1.9
		c-4.7-5.8-4.1-8.5-4.1-8.5s-0.7-4.8,0.6-4.9c1.1-0.1,2.4,2.3,2.8,3.6c0.9,2.3,1.4,5.8,2.9,5c0.6-0.3,0.3-1,0.2-2.4
		c-0.1-0.7,0.1-1.9,0-2.6c-0.1-0.6-1-3.8-1.3-4.7c-0.3-1-1.8-4.7-2.2-5.7c-0.5-1.1-0.9-3.1-0.9-4.6c0-1.5,2.5-10.9,3-12.7
		c0.4-1.8,10.5-27.9,10.5-38.6c0-5.3,0.4-13.5,0.7-21.2c1,5.3,2.2,11.4,3,14.1c1.1,3.7,1.5,12.3-1.5,18.5c-0.2,0.4-0.4,0.7-0.6,1.1
		c-0.9,1.6-1.8,3.1-2.5,4.7c-7.4,14.6-8.1,27.2-8.1,36.4c0,1.5,0.1,3,0.2,4.8c0,0,0,0,0,0c0-0.2,0-0.4,0-0.5
		c0.4,5.5,1.5,13,3.7,25.9c-0.2-0.8-0.3-1.2-0.3-1.2c1.7,10.2,4.2,23.8,7.6,42.6c0.9,4.8,1.1,9.7,0.7,14.6c-0.8,9,0.2,21.9,5.8,49.9
		c2.3,11.4,1.2,17.7-0.7,21.6c0,0,0,0,0,0c-2.7,5.5-6.9,6.2-5.5,9.9c2.2,2.6,13,1.7,17.7,1.5c1.3-0.1,2.4-0.2,3.1-2
		c0.5-1.3,0.6-2.1-1.7-7.5c-1.4-3.2-1.3-8.6-1.3-8.6s3.4-46.8,3.4-53.5c0-6.5-0.4-11.1-0.9-14.1c-0.5-2.9-0.5-5.8-0.2-8.7
		c0.5-4.3,1-10.2,1.5-16.8c0,0.2,0,0.4,0,0.6c2.7-33.6,3.2-55.3,3.2-55.3l4,0l-0.1,0.1c0,0,1.3,50.6,4.3,71.8c0.4,2.8,0.4,5.7,0,8.5
		c-0.4,2.9-0.9,7.4-0.9,13.9c0,6.2,3,49.9,3,49.9s0.4,5-0.3,9.5c-0.1,0.3-0.1,0.6-0.2,0.9c0,0,0.1-0.5,0.3-1.2
		c-0.1,0.9-0.3,1.8-0.6,2.6c-1.3,4.1-2,5.7-1.9,7.2c0.1,1.4,1.2,2.5,2.6,2.5c4.7,0.2,16.8,1.2,18.1-1.4c2.9-6.3-12.9-4.3-6.2-31.6
		c6.7-27.7,7.4-40.7,6.3-49.9c-0.6-4.9-0.5-9.8,0.2-14.7c6.1-39.8,12.2-57.5,12.2-72.3c0-11.4-0.9-18.8-2.6-24.7c0,0,0,0,0,0
		c-0.1-0.4-0.2-0.8-0.4-1.2c0,0,0,0,0,0c-0.4-1.2-0.8-2.3-1.2-3.4c0,0,0,0,0,0c-0.1-0.4-0.3-0.7-0.4-1.1c0,0,0,0,0,0
		c-0.3-0.7-0.6-1.4-1-2.1c0,0,0,0,0,0c-0.2-0.3-0.3-0.7-0.5-1c0,0,0,0,0-0.1c-0.2-0.3-0.3-0.7-0.5-1c0,0,0,0,0-0.1
		c-0.4-0.7-0.7-1.4-1.1-2.1c0,0,0,0,0-0.1c-0.2-0.3-0.4-0.7-0.6-1c0,0,0-0.1,0-0.1c-0.2-0.3-0.4-0.7-0.6-1c0,0,0-0.1,0-0.1
		c-0.2-0.4-0.4-0.7-0.6-1.1c-2.8-4.9-2.7-14-1.8-19.7c0-0.2,0.1-0.3,0.1-0.5c0,0,0-0.1,0-0.1c0-0.2,0.1-0.3,0.1-0.5c0,0,0-0.1,0-0.1
		c0-0.2,0.1-0.3,0.1-0.5c0,0,0-0.1,0-0.1c0-0.2,0.1-0.4,0.1-0.6c0,0,0-0.1,0-0.1c0-0.2,0.1-0.4,0.1-0.6c0,0,0,0,0-0.1
		c0-0.2,0.1-0.4,0.1-0.7c0,0,0-0.1,0-0.1c0-0.2,0.1-0.5,0.1-0.7c0,0,0,0,0,0c0.1-0.2,0.1-0.5,0.2-0.7c0,0,0-0.1,0-0.1
		c0.1-0.2,0.1-0.5,0.2-0.8c0,0,0-0.1,0-0.1c0.1-0.2,0.1-0.5,0.2-0.7c0,0,0-0.1,0-0.1c0.1-0.3,0.1-0.5,0.2-0.8c0,0,0-0.1,0-0.1
		c0.1-0.3,0.1-0.5,0.2-0.8c0,0,0,0,0,0c0.1-0.3,0.1-0.6,0.2-0.8c0-0.1,0-0.1,0-0.2c0.1-0.3,0.1-0.6,0.2-0.8c0,0,0,0,0-0.1
		c0.1-0.3,0.1-0.5,0.2-0.8c0-0.1,0-0.1,0-0.2c0-0.1,0.1-0.3,0.1-0.4c0,0.3,0,0.6,0,0.9c0,0.1,0,0.1,0,0.2c0,0.4,0,0.8,0.1,1.2
		c0,0,0,0.1,0,0.1c0,0.4,0,0.8,0.1,1.3c0,0,0,0.1,0,0.1c0,0.4,0,0.8,0.1,1.3c0,0.1,0,0.1,0,0.2c0,0.4,0,0.8,0.1,1.2c0,0,0,0.1,0,0.1
		c0,0.4,0,0.8,0.1,1.3c0,0,0,0.1,0,0.1c0,0.4,0,0.9,0,1.3c0,0,0,0,0,0c0,0.4,0,0.8,0,1.2c0,0,0,0.1,0,0.1c0,0.4,0,0.8,0,1.2
		c0,0,0,0.1,0,0.1c0,0.4,0,0.8,0,1.1c0,0.1,0,0.1,0,0.2c0,0.4,0,0.7,0,1.1c0,0.1,0,0.1,0,0.2c0,0.4,0,0.7,0,1c0,0.1,0,0.1,0,0.2
		c0,0.3,0,0.7,0,1c0,0.1,0,0.1,0,0.2c0,0.3,0,0.6,0,1c0,0,0,0.1,0,0.1c0,0.3,0,0.6,0,0.9c0,0,0,0.1,0,0.1c0,0.3,0,0.6,0,0.9
		c0,0.2,0,0.5,0,0.7c0,0,0,0.1,0,0.1c0,0.2,0,0.5,0,0.7c0,0,0,0.1,0,0.1c0,0.3,0,0.5,0.1,0.8c0,0,0,0.1,0,0.1c0,0.3,0.1,0.5,0.1,0.8
		c0,0,0,0.1,0,0.1c0,0.3,0.1,0.6,0.1,0.9c0,0.1,0,0.1,0,0.2c0,0.3,0.1,0.6,0.1,0.9c0,0.1,0,0.1,0,0.2c0.1,0.3,0.1,0.6,0.2,1
		c0,0,0,0,0,0c0.1,0.3,0.1,0.6,0.2,1c0,0.1,0,0.1,0,0.2c0.1,0.3,0.1,0.6,0.2,1c0,0.1,0,0.1,0,0.2c0.1,0.3,0.1,0.7,0.2,1
		c0,0,0,0.1,0,0.1c0.1,0.3,0.2,0.7,0.2,1c0,0,0,0.1,0,0.1c0.1,0.3,0.2,0.7,0.3,1c0,0.1,0,0.1,0.1,0.2c0.1,0.3,0.2,0.7,0.3,1
		c0,0.1,0,0.1,0,0.2c0.1,0.4,0.2,0.7,0.3,1.1c0,0,0,0,0,0.1c0.1,0.4,0.2,0.7,0.3,1.1c0,0.1,0,0.1,0,0.2c0.1,0.4,0.2,0.7,0.3,1.1
		c0,0.1,0,0.1,0.1,0.2c0.1,0.4,0.2,0.7,0.3,1.1c0,0.1,0,0.1,0,0.2c0.1,0.4,0.2,0.7,0.3,1.1c0,0,0,0.1,0,0.1c0.1,0.4,0.2,0.7,0.3,1.1
		c0,0.1,0,0.1,0.1,0.2c0.1,0.3,0.2,0.7,0.3,1c0,0.1,0,0.1,0.1,0.2c0.1,0.4,0.2,0.7,0.3,1.1c0,0,0,0,0,0.1c0.1,0.3,0.2,0.7,0.3,1
		c0,0.1,0,0.1,0,0.2c0.1,0.3,0.2,0.7,0.3,1c0,0.1,0,0.1,0.1,0.2c0.1,0.3,0.2,0.7,0.3,1c0,0,0,0.1,0,0.1c0.1,0.3,0.2,0.6,0.3,1
		c0,0,0,0,0,0.1c0.1,0.3,0.2,0.6,0.3,0.9c0,0.1,0,0.1,0.1,0.2c0.1,0.3,0.2,0.6,0.3,0.9c0,0.1,0,0.1,0.1,0.2c0.1,0.3,0.2,0.6,0.3,0.9
		c0,0,0,0.1,0,0.1c0.1,0.3,0.2,0.5,0.3,0.8c0,0,0,0.1,0,0.1c0.1,0.3,0.2,0.5,0.3,0.8c0,0.1,0,0.1,0.1,0.2c0.1,0.3,0.2,0.5,0.3,0.7
		c0,0,0,0.1,0,0.1c0.1,0.2,0.2,0.5,0.2,0.7c0,0,0,0,0,0c0.8,2.3,1.5,4.7,2.1,7c0,0,0,0,0,0c0.1,0.4,0.2,0.8,0.3,1.2
		c0,0.1,0,0.1,0,0.2c0.1,0.3,0.2,0.6,0.2,1c0,0.1,0.1,0.2,0.1,0.3c0.1,0.3,0.1,0.6,0.2,0.8c0,0.1,0,0.2,0.1,0.3
		c0.1,0.3,0.2,0.7,0.2,1c0,0,0,0,0,0.1l0.4,1.9c0.3,1.3,0.5,2.4,0.7,3.2c0.4,2.4-0.6,3.6-0.9,4.6c-0.3,1-1.9,4.7-2.2,5.7
		s-1.3,4.1-1.3,4.7c-0.1,0.7,0.1,1.9,0,2.6c-0.1,1.4-0.4,2.1,0.2,2.4c1.6,0.8,2-2.8,2.9-5c0.5-1.2,1.7-3.7,2.8-3.6
		c1.3,0.1,0.6,4.9,0.6,4.9s0.6,2.7-4.1,8.5c-2.4,2.9,1.8,2.6,2.6,1.9c0,0,4.3-2.6,7.2-7.8C570.2,586,570.8,582.4,570.7,580.1z"/>
	<circle class="st8" cx="517.6" cy="411.3" r="14.7"/>
	<circle class="st8" cx="517.6" cy="542.2" r="14.7"/>
	<g>
		<path class="st9" d="M521.3,419.8c0,9.5-7.3,9.5-7.3,19.1c0,9.5,7.3,9.5,7.3,19.1c0,9.6-7.3,9.6-7.3,19.1c0,9.6,7.3,9.6,7.3,19.1
			c0,9.6-7.3,9.6-7.3,19.1c0,9.6,7.3,9.6,7.3,19.1"/>
	</g>
	<g>
		<path class="st9" d="M514,534.4c0-9.5,7.3-9.5,7.3-19.1c0-9.5-7.3-9.5-7.3-19.1c0-9.6,7.3-9.6,7.3-19.1c0-9.6-7.3-9.6-7.3-19.1
			c0-9.6,7.3-9.6,7.3-19.1s-7.3-9.6-7.3-19.1"/>
	</g>
	<circle class="st10" cx="517.6" cy="411.3" r="9.2"/>
	<circle class="st10" cx="517.6" cy="542.2" r="9.2"/>
</g>
<g>
	<path class="st1" d="M992.1,580.6c-0.3-3.5-1.7-11-1.7-11l-0.4-2.9v0c0,0-1.6-18.1-2-25.9c-0.5-7.7-3.8-16.9-5.3-22.5
		c-1.5-5.6,3.3-17.8-1-33c-2.5-9.5,0-18.4-5.1-25c-5.6-7.2-11.6-6.4-14.1-6.8l0,0c-2.9-0.5-6.3-1-8.4-1.9c-5.1-2.2-8.3-4.4-11.2-5.7
		c-2.1-0.9-2.3-7.1-2.2-10.8c1.7-1.1,3-2.3,3.7-3.3c1-1.6,1.8-6.1,2.2-10.2c0.4,0.1,0.9,0,1.7-0.4c1.9-0.9,2.5-6.4,1.2-8.9
		c-0.1-0.2-0.2-0.4-0.4-0.6c0.7-5.5,1.4-14.7-1.4-18.8c-4-6.1-13-6.3-16-6.6c-4-0.4-11.2-0.3-13,4.2c-8.4,0.8-7.4,14.1-6.2,21.2
		c-0.1,0.1-0.2,0.3-0.3,0.5c-1.3,2.5-0.7,7.9,1.2,8.9c0.9,0.4,1.5,0.5,1.8,0.4c0.4,4.1,1.2,8.6,2.2,10.2c0.7,1,1.9,2.2,3.6,3.3
		c0.1,3.7-0.1,9.9-2.2,10.8c-2.9,1.3-6.1,3.5-11.2,5.7c-2.1,0.9-5.5,1.4-8.4,1.9c-2.5,0.3-8.6-0.4-14.1,6.8
		c-5.1,6.6-2.7,15.6-5.1,25c-4.3,15.3,0.5,27.4-1,33c-1.5,5.6-4.8,14.8-5.3,22.5c-0.5,7.7-2,25.9-2,25.9v0l-0.4,2.9
		c0,0-1.4,7.5-1.7,11c-0.2,2.3,0.3,5.8,1.8,8.9c2.7,5.3,8.1,9.3,8.1,9.3c0.7,0.8,4.9,1.2,2.6-1.8c-4.5-5.9-5-9.9-5-9.9
		s-0.6-4.8,0.8-4.8c1.1-0.1,2.3,2.4,2.7,3.6c0.8,2.3,1.1,5.9,2.7,5.1c0.6-0.3,0.4-1,0.3-2.4c0-0.7,0.2-1.9,0.1-2.6
		c-0.1-0.6-0.9-3.8-1.2-4.8c-0.3-1-1.6-4.8-2-5.8c-0.4-1.1-0.8-3.1-0.7-4.6c0.1-1.5,2.7-10.4,3.9-13c0.8-1.9,9.7-13.9,11.3-37.6
		c0.4-5.6,1.8-13.5,2.7-21.1c0.7,3.5,1.3,6.9,1.4,9.5c0.3,7.8,2.6,19.3,1.9,25.2c-1.6,13.6-5.1,13.2-5.1,35.6
		c0,14.8-0.6,42.2,7,74.9c1.1,4.8,0.1,11.4-0.5,16.3c-1.1,9.2,1.6,21.5,7.2,49.4c5.4,26.8-11.1,23.7-8.3,30c1.2,2.6,16.3,1.8,21,1.6
		c1.4-0.1,2.5-1.2,2.6-2.5c0.1-1.4-0.6-3-1.9-7.2c-1.5-4.8-0.9-11.9-0.9-11.9s3-43.6,3-49.8c0-7-0.5-11.7-1-14.5
		c-0.4-2.4-0.6-4.8,0-7.2c4.4-19.6,4.4-69.6,4.4-69.7h4.7c0,0,0.1,50,4.4,69.7c0.5,2.4,0.4,4.8,0,7.2c-0.5,2.8-1,7.5-1,14.5
		c0,6.2,3,49.8,3,49.8s0.6,7.1-0.9,11.9c-1.3,4.1-2,5.7-1.9,7.2c0.1,1.4,1.2,2.5,2.6,2.5c4.7,0.2,19.8,1,21-1.6
		c2.8-6.3-13.7-3.2-8.3-30c5.7-27.9,8.3-40.2,7.2-49.4c-0.6-4.9-1.6-11.5-0.5-16.3c7.6-32.6,7-60.1,7-74.9c0-22.5-3.5-22.1-5.1-35.6
		c-0.7-5.8,1.7-17.3,1.9-25.2c0.1-2.6,0.7-6,1.4-9.5c0.9,7.6,2.3,15.6,2.7,21.1c1.6,23.7,11,36.4,11.8,38.1c0.9,2.2,3.4,11,3.4,12.6
		c0.1,1.5-0.3,3.5-0.7,4.6c-0.3,1-1.7,4.8-2,5.8c-0.3,1-1.1,4.1-1.2,4.8c-0.1,0.7,0.2,1.9,0.1,2.6c-0.1,1.4-0.3,2.1,0.3,2.4
		c1.6,0.7,1.9-2.8,2.7-5.1c0.4-1.2,1.6-3.7,2.7-3.6c1.3,0.1,0.8,4.8,0.8,4.8s-0.5,4-5,9.9c-2.3,3,1.9,2.6,2.6,1.8
		c0,0,5.4-4.1,8.1-9.3C991.8,586.4,992.3,582.9,992.1,580.6z"/>
	<circle class="st8" cx="930.7" cy="411.3" r="14.7"/>
	<circle class="st8" cx="930.7" cy="542.1" r="14.7"/>
	<g>
		<path class="st9" d="M934.4,419.8c0,9.5-7.3,9.5-7.3,19.1c0,9.5,7.3,9.5,7.3,19.1c0,9.6-7.3,9.6-7.3,19.1c0,9.6,7.3,9.6,7.3,19.1
			c0,9.6-7.3,9.6-7.3,19.1s7.3,9.6,7.3,19.1"/>
	</g>
	<g>
		<path class="st9" d="M927.1,534.4c0-9.5,7.3-9.5,7.3-19.1c0-9.5-7.3-9.5-7.3-19.1c0-9.6,7.3-9.6,7.3-19.1c0-9.6-7.3-9.6-7.3-19.1
			c0-9.6,7.3-9.6,7.3-19.1c0-9.6-7.3-9.6-7.3-19.1"/>
	</g>
	<circle class="st10" cx="930.7" cy="411.3" r="9.2"/>
	<circle class="st10" cx="930.7" cy="542.1" r="9.2"/>
</g>
<g>
	<path class="st1" d="M846.2,580.1c-0.2-3.5-1.4-11-1.4-11l-0.3-3l0.1,0.1c0,0-0.9-18.2-1.1-26c-0.2-7.8-3.5-18.3-4.8-23.9
		c-1.3-5.7-1.7-16.8-1.5-30.2c0.2-13.8-0.8-24.6-3.2-28c-2.8-4-8.4-5.4-10.6-5.9c-1.7-0.5-3.6-1-5.6-1.6c0,0,0,0,0-0.1
		c2.5-6.5,2.5-13.8,0.1-20.4c-0.7-1.9-1.5-3.7-2-5.7c-0.7-3-0.4-6-0.5-9.1c-0.2-5.4-0.6-12.2-3.2-17.1c-2.1-4-5.2-8-10-8.4
		c-1.1-0.1-1.6,0.2-2.5-0.4c-1-0.6-3.1-2.4-6.3-2.9c-9.5-1.5-17.7,4.1-21.6,12.7c-2.9,6.3-3.1,13.4-2.9,20.3c0.1,2.9,0.2,5.8-1,8.4
		c-1.7,3.8-5.9,5.9-8.3,9.3c-1.9,2.7-2.5,6.2-2.7,9.5c-0.1,2.2,0,4.4,0.5,6.5c-1.1,0.5-2.3,1.2-3.3,2.1c0,0,0,0,0,0c0,0,0,0,0,0
		c-0.2,0.1-0.3,0.3-0.5,0.5c0,0,0,0,0,0c-0.1,0.1-0.3,0.3-0.4,0.4c0,0-0.1,0.1-0.1,0.1c-0.1,0.1-0.2,0.2-0.3,0.4
		c0,0.1-0.1,0.1-0.1,0.2c-0.1,0.2-0.3,0.4-0.4,0.5c-2.4,3.4-3.4,14.6-3.2,28.4c0.2,13.5-0.2,24.6-1.5,30.2
		c-1.3,5.7-4.6,16.2-4.8,23.9c0,0.2,0,0.3,0,0.5c0,0,0,0.1,0,0.1c0,0.2,0,0.4,0,0.5c0,0,0,0.1,0,0.1c0,0.2,0,0.3,0,0.5
		c0,0,0,0.1,0,0.1c0,0.2,0,0.4,0,0.6c0,0,0,0.1,0,0.1c0,0.2,0,0.4,0,0.5c0,0,0,0.1,0,0.1c0,0.2,0,0.4,0,0.6c0,0.1,0,0.1,0,0.2
		c0,0.2,0,0.4,0,0.6c0,0,0,0,0,0c0,0.2,0,0.5,0,0.7c0,0,0,0.1,0,0.1c0,0.2,0,0.5,0,0.7c0,0,0,0,0,0c0,0.3,0,0.5,0,0.8c0,0,0,0,0,0
		c0,0.5,0,1-0.1,1.6c0,0,0,0.1,0,0.1c0,0.8-0.1,1.6-0.1,2.5c0,0,0,0,0,0c0,0.3,0,0.5,0,0.8c0,0,0,0,0,0c-0.3,7.1-0.7,13.9-0.7,13.9
		l0,0l-0.3,2.9c0,0-1.2,7.5-1.4,11c-0.1,2.3,0.5,5.8,2.1,8.8c2.9,5.2,7.2,7.8,7.2,7.8c0.7,0.7,4.9,1,2.6-1.9
		c-4.7-5.8-4.1-8.5-4.1-8.5s-0.7-4.8,0.6-4.9c1.1-0.1,2.4,2.3,2.8,3.6c0.9,2.3,1.4,5.8,2.9,5c0.6-0.3,0.3-1,0.2-2.4
		c-0.1-0.7,0.1-1.9,0-2.6c-0.1-0.6-1-3.8-1.3-4.7c-0.3-1-1.8-4.7-2.2-5.7c-0.5-1.1-0.9-3.1-0.9-4.6c0-1.5,2.5-10.9,3-12.7
		c0.4-1.8,10.5-27.9,10.5-38.6c0-5.3,0.4-13.5,0.7-21.2c1,5.3,2.2,11.4,3,14.1c1.1,3.7,1.5,12.3-1.5,18.5c-0.2,0.4-0.4,0.7-0.6,1.1
		c-0.9,1.6-1.8,3.1-2.5,4.7c-7.4,14.6-8.1,27.2-8.1,36.4c0,1.5,0.1,3,0.2,4.8c0,0,0,0,0,0c0-0.2,0-0.4,0-0.5
		c0.4,5.5,1.5,13,3.7,25.9c-0.2-0.8-0.3-1.2-0.3-1.2c1.7,10.2,4.2,23.8,7.6,42.6c0.9,4.8,1.1,9.7,0.7,14.6c-0.8,9,0.2,21.9,5.8,49.9
		c2.3,11.4,1.2,17.7-0.7,21.6c0,0,0,0,0,0c-2.7,5.5-6.9,6.2-5.5,9.9c2.2,2.6,13,1.7,17.7,1.5c1.3-0.1,2.4-0.2,3.1-2
		c0.5-1.3,0.6-2.1-1.7-7.5c-1.4-3.2-1.3-8.6-1.3-8.6s3.4-46.8,3.4-53.5c0-6.5-0.4-11.1-0.9-14.1c-0.5-2.9-0.5-5.8-0.2-8.7
		c0.5-4.3,1-10.2,1.5-16.8c0,0.2,0,0.4,0,0.6c2.7-33.6,3.2-55.3,3.2-55.3l4,0l-0.1,0.1c0,0,1.3,50.6,4.3,71.8c0.4,2.8,0.4,5.7,0,8.5
		c-0.4,2.9-0.9,7.4-0.9,13.9c0,6.2,3,49.9,3,49.9s0.4,5-0.3,9.5c-0.1,0.3-0.1,0.6-0.2,0.9c0,0,0.1-0.5,0.3-1.2
		c-0.1,0.9-0.3,1.8-0.6,2.6c-1.3,4.1-2,5.7-1.9,7.2c0.1,1.4,1.2,2.5,2.6,2.5c4.7,0.2,16.8,1.2,18.1-1.4c2.9-6.3-12.9-4.3-6.2-31.6
		c6.7-27.7,7.4-40.7,6.3-49.9c-0.6-4.9-0.5-9.8,0.2-14.7c6.1-39.8,12.2-57.5,12.2-72.3c0-11.4-0.9-18.8-2.6-24.7c0,0,0,0,0,0
		c-0.1-0.4-0.2-0.8-0.4-1.2c0,0,0,0,0,0c-0.4-1.2-0.8-2.3-1.2-3.4c0,0,0,0,0,0c-0.1-0.4-0.3-0.7-0.4-1.1c0,0,0,0,0,0
		c-0.3-0.7-0.6-1.4-1-2.1c0,0,0,0,0,0c-0.2-0.3-0.3-0.7-0.5-1c0,0,0,0,0-0.1c-0.2-0.3-0.3-0.7-0.5-1c0,0,0,0,0-0.1
		c-0.4-0.7-0.7-1.4-1.1-2.1c0,0,0,0,0-0.1c-0.2-0.3-0.4-0.7-0.6-1c0,0,0-0.1,0-0.1c-0.2-0.3-0.4-0.7-0.6-1c0,0,0-0.1,0-0.1
		c-0.2-0.4-0.4-0.7-0.6-1.1c-2.8-4.9-2.7-14-1.8-19.7c0-0.2,0.1-0.3,0.1-0.5c0,0,0-0.1,0-0.1c0-0.2,0.1-0.3,0.1-0.5c0,0,0-0.1,0-0.1
		c0-0.2,0.1-0.3,0.1-0.5c0,0,0-0.1,0-0.1c0-0.2,0.1-0.4,0.1-0.6c0,0,0-0.1,0-0.1c0-0.2,0.1-0.4,0.1-0.6c0,0,0,0,0-0.1
		c0-0.2,0.1-0.4,0.1-0.7c0,0,0-0.1,0-0.1c0-0.2,0.1-0.5,0.1-0.7c0,0,0,0,0,0c0.1-0.2,0.1-0.5,0.2-0.7c0,0,0-0.1,0-0.1
		c0.1-0.2,0.1-0.5,0.2-0.8c0,0,0-0.1,0-0.1c0.1-0.2,0.1-0.5,0.2-0.7c0,0,0-0.1,0-0.1c0.1-0.3,0.1-0.5,0.2-0.8c0,0,0-0.1,0-0.1
		c0.1-0.3,0.1-0.5,0.2-0.8c0,0,0,0,0,0c0.1-0.3,0.1-0.6,0.2-0.8c0-0.1,0-0.1,0-0.2c0.1-0.3,0.1-0.6,0.2-0.8c0,0,0,0,0-0.1
		c0.1-0.3,0.1-0.5,0.2-0.8c0-0.1,0-0.1,0-0.2c0-0.1,0.1-0.3,0.1-0.4c0,0.3,0,0.6,0,0.9c0,0.1,0,0.1,0,0.2c0,0.4,0,0.8,0.1,1.2
		c0,0,0,0.1,0,0.1c0,0.4,0,0.8,0.1,1.3c0,0,0,0.1,0,0.1c0,0.4,0,0.8,0.1,1.3c0,0.1,0,0.1,0,0.2c0,0.4,0,0.8,0.1,1.2c0,0,0,0.1,0,0.1
		c0,0.4,0,0.8,0.1,1.3c0,0,0,0.1,0,0.1c0,0.4,0,0.9,0,1.3c0,0,0,0,0,0c0,0.4,0,0.8,0,1.2c0,0,0,0.1,0,0.1c0,0.4,0,0.8,0,1.2
		c0,0,0,0.1,0,0.1c0,0.4,0,0.8,0,1.1c0,0.1,0,0.1,0,0.2c0,0.4,0,0.7,0,1.1c0,0.1,0,0.1,0,0.2c0,0.4,0,0.7,0,1c0,0.1,0,0.1,0,0.2
		c0,0.3,0,0.7,0,1c0,0.1,0,0.1,0,0.2c0,0.3,0,0.6,0,1c0,0,0,0.1,0,0.1c0,0.3,0,0.6,0,0.9c0,0,0,0.1,0,0.1c0,0.3,0,0.6,0,0.9
		c0,0.2,0,0.5,0,0.7c0,0,0,0.1,0,0.1c0,0.2,0,0.5,0,0.7c0,0,0,0.1,0,0.1c0,0.3,0,0.5,0.1,0.8c0,0,0,0.1,0,0.1c0,0.3,0.1,0.5,0.1,0.8
		c0,0,0,0.1,0,0.1c0,0.3,0.1,0.6,0.1,0.9c0,0.1,0,0.1,0,0.2c0,0.3,0.1,0.6,0.1,0.9c0,0.1,0,0.1,0,0.2c0.1,0.3,0.1,0.6,0.2,1
		c0,0,0,0,0,0c0.1,0.3,0.1,0.6,0.2,1c0,0.1,0,0.1,0,0.2c0.1,0.3,0.1,0.6,0.2,1c0,0.1,0,0.1,0,0.2c0.1,0.3,0.1,0.7,0.2,1
		c0,0,0,0.1,0,0.1c0.1,0.3,0.2,0.7,0.2,1c0,0,0,0.1,0,0.1c0.1,0.3,0.2,0.7,0.3,1c0,0.1,0,0.1,0.1,0.2c0.1,0.3,0.2,0.7,0.3,1
		c0,0.1,0,0.1,0,0.2c0.1,0.4,0.2,0.7,0.3,1.1c0,0,0,0,0,0.1c0.1,0.4,0.2,0.7,0.3,1.1c0,0.1,0,0.1,0,0.2c0.1,0.4,0.2,0.7,0.3,1.1
		c0,0.1,0,0.1,0.1,0.2c0.1,0.4,0.2,0.7,0.3,1.1c0,0.1,0,0.1,0,0.2c0.1,0.4,0.2,0.7,0.3,1.1c0,0,0,0.1,0,0.1c0.1,0.4,0.2,0.7,0.3,1.1
		c0,0.1,0,0.1,0.1,0.2c0.1,0.3,0.2,0.7,0.3,1c0,0.1,0,0.1,0.1,0.2c0.1,0.4,0.2,0.7,0.3,1.1c0,0,0,0,0,0.1c0.1,0.3,0.2,0.7,0.3,1
		c0,0.1,0,0.1,0,0.2c0.1,0.3,0.2,0.7,0.3,1c0,0.1,0,0.1,0.1,0.2c0.1,0.3,0.2,0.7,0.3,1c0,0,0,0.1,0,0.1c0.1,0.3,0.2,0.6,0.3,1
		c0,0,0,0,0,0.1c0.1,0.3,0.2,0.6,0.3,0.9c0,0.1,0,0.1,0.1,0.2c0.1,0.3,0.2,0.6,0.3,0.9c0,0.1,0,0.1,0.1,0.2c0.1,0.3,0.2,0.6,0.3,0.9
		c0,0,0,0.1,0,0.1c0.1,0.3,0.2,0.5,0.3,0.8c0,0,0,0.1,0,0.1c0.1,0.3,0.2,0.5,0.3,0.8c0,0.1,0,0.1,0.1,0.2c0.1,0.3,0.2,0.5,0.3,0.7
		c0,0,0,0.1,0,0.1c0.1,0.2,0.2,0.5,0.2,0.7c0,0,0,0,0,0c0.8,2.3,1.5,4.7,2.1,7c0,0,0,0,0,0c0.1,0.4,0.2,0.8,0.3,1.2
		c0,0.1,0,0.1,0,0.2c0.1,0.3,0.2,0.6,0.2,1c0,0.1,0.1,0.2,0.1,0.3c0.1,0.3,0.1,0.6,0.2,0.8c0,0.1,0,0.2,0.1,0.3
		c0.1,0.3,0.2,0.7,0.2,1c0,0,0,0,0,0.1l0.4,1.9c0.3,1.3,0.5,2.4,0.7,3.2c0.4,2.4-0.6,3.6-0.9,4.6c-0.3,1-1.9,4.7-2.2,5.7
		c-0.3,1-1.3,4.1-1.3,4.7c-0.1,0.7,0.1,1.9,0,2.6c-0.1,1.4-0.4,2.1,0.2,2.4c1.6,0.8,2-2.8,2.9-5c0.5-1.2,1.7-3.7,2.8-3.6
		c1.3,0.1,0.6,4.9,0.6,4.9s0.6,2.7-4.1,8.5c-2.4,2.9,1.8,2.6,2.6,1.9c0,0,4.3-2.6,7.2-7.8C845.7,586,846.3,582.4,846.2,580.1z"/>
	<circle class="st8" cx="793" cy="411.3" r="14.7"/>
	<circle class="st8" cx="793" cy="542.2" r="14.7"/>
	<g>
		<path class="st9" d="M796.8,419.8c0,9.5-7.3,9.5-7.3,19.1c0,9.5,7.3,9.5,7.3,19.1c0,9.6-7.3,9.6-7.3,19.1c0,9.6,7.3,9.6,7.3,19.1
			c0,9.6-7.3,9.6-7.3,19.1c0,9.6,7.3,9.6,7.3,19.1"/>
	</g>
	<g>
		<path class="st9" d="M789.5,534.4c0-9.5,7.3-9.5,7.3-19.1c0-9.5-7.3-9.5-7.3-19.1c0-9.6,7.3-9.6,7.3-19.1c0-9.6-7.3-9.6-7.3-19.1
			c0-9.6,7.3-9.6,7.3-19.1s-7.3-9.6-7.3-19.1"/>
	</g>
	<circle class="st10" cx="793" cy="411.3" r="9.2"/>
	<circle class="st10" cx="793" cy="542.2" r="9.2"/>
</g>
<g>
	<path class="st1" d="M1121.7,580.1c-0.2-3.5-1.4-11-1.4-11l-0.3-3l0.1,0.1c0,0-0.9-18.2-1.1-26c-0.2-7.8-3.5-18.3-4.8-23.9
		c-1.3-5.7-1.7-16.8-1.5-30.2c0.2-13.8-0.8-24.6-3.2-28c-2.8-4-8.4-5.4-10.6-5.9c-1.7-0.5-3.6-1-5.6-1.6c0,0,0,0,0-0.1
		c2.5-6.5,2.5-13.8,0.1-20.4c-0.7-1.9-1.5-3.7-2-5.7c-0.7-3-0.4-6-0.5-9.1c-0.2-5.4-0.6-12.2-3.2-17.1c-2.1-4-5.2-8-10-8.4
		c-1.1-0.1-1.6,0.2-2.5-0.4c-1-0.6-3.1-2.4-6.3-2.9c-9.5-1.5-17.7,4.1-21.6,12.7c-2.9,6.3-3.1,13.4-2.9,20.3c0.1,2.9,0.2,5.8-1,8.4
		c-1.7,3.8-5.9,5.9-8.3,9.3c-1.9,2.7-2.5,6.2-2.7,9.5c-0.1,2.2,0,4.4,0.5,6.5c-1.1,0.5-2.3,1.2-3.3,2.1c0,0,0,0,0,0c0,0,0,0,0,0
		c-0.2,0.1-0.3,0.3-0.5,0.5c0,0,0,0,0,0c-0.1,0.1-0.3,0.3-0.4,0.4c0,0-0.1,0.1-0.1,0.1c-0.1,0.1-0.2,0.2-0.3,0.4
		c0,0.1-0.1,0.1-0.1,0.2c-0.1,0.2-0.3,0.4-0.4,0.5c-2.4,3.4-3.4,14.6-3.2,28.4c0.2,13.5-0.2,24.6-1.5,30.2
		c-1.3,5.7-4.6,16.2-4.8,23.9c0,0.2,0,0.3,0,0.5c0,0,0,0.1,0,0.1c0,0.2,0,0.4,0,0.5c0,0,0,0.1,0,0.1c0,0.2,0,0.3,0,0.5
		c0,0,0,0.1,0,0.1c0,0.2,0,0.4,0,0.6c0,0,0,0.1,0,0.1c0,0.2,0,0.4,0,0.5c0,0,0,0.1,0,0.1c0,0.2,0,0.4,0,0.6c0,0.1,0,0.1,0,0.2
		c0,0.2,0,0.4,0,0.6c0,0,0,0,0,0c0,0.2,0,0.5,0,0.7c0,0,0,0.1,0,0.1c0,0.2,0,0.5,0,0.7c0,0,0,0,0,0c0,0.3,0,0.5,0,0.8c0,0,0,0,0,0
		c0,0.5,0,1-0.1,1.6c0,0,0,0.1,0,0.1c0,0.8-0.1,1.6-0.1,2.5c0,0,0,0,0,0c0,0.3,0,0.5,0,0.8c0,0,0,0,0,0c-0.3,7.1-0.7,13.9-0.7,13.9
		l0,0l-0.3,2.9c0,0-1.2,7.5-1.4,11c-0.1,2.3,0.5,5.8,2.1,8.8c2.9,5.2,7.2,7.8,7.2,7.8c0.7,0.7,4.9,1,2.6-1.9
		c-4.7-5.8-4.1-8.5-4.1-8.5s-0.7-4.8,0.6-4.9c1.1-0.1,2.4,2.3,2.8,3.6c0.9,2.3,1.4,5.8,2.9,5c0.6-0.3,0.3-1,0.2-2.4
		c-0.1-0.7,0.1-1.9,0-2.6c-0.1-0.6-1-3.8-1.3-4.7s-1.8-4.7-2.2-5.7c-0.5-1.1-0.9-3.1-0.9-4.6c0-1.5,2.5-10.9,3-12.7
		c0.4-1.8,10.5-27.9,10.5-38.6c0-5.3,0.4-13.5,0.7-21.2c1,5.3,2.2,11.4,3,14.1c1.1,3.7,1.5,12.3-1.5,18.5c-0.2,0.4-0.4,0.7-0.6,1.1
		c-0.9,1.6-1.8,3.1-2.5,4.7c-7.4,14.6-8.1,27.2-8.1,36.4c0,1.5,0.1,3,0.2,4.8c0,0,0,0,0,0c0-0.2,0-0.4,0-0.5
		c0.4,5.5,1.5,13,3.7,25.9c-0.2-0.8-0.3-1.2-0.3-1.2c1.7,10.2,4.2,23.8,7.6,42.6c0.9,4.8,1.1,9.7,0.7,14.6c-0.8,9,0.2,21.9,5.8,49.9
		c2.3,11.4,1.2,17.7-0.7,21.6c0,0,0,0,0,0c-2.7,5.5-6.9,6.2-5.5,9.9c2.2,2.6,13,1.7,17.7,1.5c1.3-0.1,2.4-0.2,3.1-2
		c0.5-1.3,0.6-2.1-1.7-7.5c-1.4-3.2-1.3-8.6-1.3-8.6s3.4-46.8,3.4-53.5c0-6.5-0.4-11.1-0.9-14.1c-0.5-2.9-0.5-5.8-0.2-8.7
		c0.5-4.3,1-10.2,1.5-16.8c0,0.2,0,0.4,0,0.6c2.7-33.6,3.2-55.3,3.2-55.3l4,0l-0.1,0.1c0,0,1.3,50.6,4.3,71.8c0.4,2.8,0.4,5.7,0,8.5
		c-0.4,2.9-0.9,7.4-0.9,13.9c0,6.2,3,49.9,3,49.9s0.4,5-0.3,9.5c-0.1,0.3-0.1,0.6-0.2,0.9c0,0,0.1-0.5,0.3-1.2
		c-0.1,0.9-0.3,1.8-0.6,2.6c-1.3,4.1-2,5.7-1.9,7.2c0.1,1.4,1.2,2.5,2.6,2.5c4.7,0.2,16.8,1.2,18.1-1.4c2.9-6.3-12.9-4.3-6.2-31.6
		c6.7-27.7,7.4-40.7,6.3-49.9c-0.6-4.9-0.5-9.8,0.2-14.7c6.1-39.8,12.2-57.5,12.2-72.3c0-11.4-0.9-18.8-2.6-24.7c0,0,0,0,0,0
		c-0.1-0.4-0.2-0.8-0.4-1.2c0,0,0,0,0,0c-0.4-1.2-0.8-2.3-1.2-3.4c0,0,0,0,0,0c-0.1-0.4-0.3-0.7-0.4-1.1c0,0,0,0,0,0
		c-0.3-0.7-0.6-1.4-1-2.1c0,0,0,0,0,0c-0.2-0.3-0.3-0.7-0.5-1c0,0,0,0,0-0.1c-0.2-0.3-0.3-0.7-0.5-1c0,0,0,0,0-0.1
		c-0.4-0.7-0.7-1.4-1.1-2.1c0,0,0,0,0-0.1c-0.2-0.3-0.4-0.7-0.6-1c0,0,0-0.1,0-0.1c-0.2-0.3-0.4-0.7-0.6-1c0,0,0-0.1,0-0.1
		c-0.2-0.4-0.4-0.7-0.6-1.1c-2.8-4.9-2.7-14-1.8-19.7c0-0.2,0.1-0.3,0.1-0.5c0,0,0-0.1,0-0.1c0-0.2,0.1-0.3,0.1-0.5c0,0,0-0.1,0-0.1
		c0-0.2,0.1-0.3,0.1-0.5c0,0,0-0.1,0-0.1c0-0.2,0.1-0.4,0.1-0.6c0,0,0-0.1,0-0.1c0-0.2,0.1-0.4,0.1-0.6c0,0,0,0,0-0.1
		c0-0.2,0.1-0.4,0.1-0.7c0,0,0-0.1,0-0.1c0-0.2,0.1-0.5,0.1-0.7c0,0,0,0,0,0c0.1-0.2,0.1-0.5,0.2-0.7c0,0,0-0.1,0-0.1
		c0.1-0.2,0.1-0.5,0.2-0.8c0,0,0-0.1,0-0.1c0.1-0.2,0.1-0.5,0.2-0.7c0,0,0-0.1,0-0.1c0.1-0.3,0.1-0.5,0.2-0.8c0,0,0-0.1,0-0.1
		c0.1-0.3,0.1-0.5,0.2-0.8c0,0,0,0,0,0c0.1-0.3,0.1-0.6,0.2-0.8c0-0.1,0-0.1,0-0.2c0.1-0.3,0.1-0.6,0.2-0.8c0,0,0,0,0-0.1
		c0.1-0.3,0.1-0.5,0.2-0.8c0-0.1,0-0.1,0-0.2c0-0.1,0.1-0.3,0.1-0.4c0,0.3,0,0.6,0,0.9c0,0.1,0,0.1,0,0.2c0,0.4,0,0.8,0.1,1.2
		c0,0,0,0.1,0,0.1c0,0.4,0,0.8,0.1,1.3c0,0,0,0.1,0,0.1c0,0.4,0,0.8,0.1,1.3c0,0.1,0,0.1,0,0.2c0,0.4,0,0.8,0.1,1.2c0,0,0,0.1,0,0.1
		c0,0.4,0,0.8,0.1,1.3c0,0,0,0.1,0,0.1c0,0.4,0,0.9,0,1.3c0,0,0,0,0,0c0,0.4,0,0.8,0,1.2c0,0,0,0.1,0,0.1c0,0.4,0,0.8,0,1.2
		c0,0,0,0.1,0,0.1c0,0.4,0,0.8,0,1.1c0,0.1,0,0.1,0,0.2c0,0.4,0,0.7,0,1.1c0,0.1,0,0.1,0,0.2c0,0.4,0,0.7,0,1c0,0.1,0,0.1,0,0.2
		c0,0.3,0,0.7,0,1c0,0.1,0,0.1,0,0.2c0,0.3,0,0.6,0,1c0,0,0,0.1,0,0.1c0,0.3,0,0.6,0,0.9c0,0,0,0.1,0,0.1c0,0.3,0,0.6,0,0.9
		c0,0.2,0,0.5,0,0.7c0,0,0,0.1,0,0.1c0,0.2,0,0.5,0,0.7c0,0,0,0.1,0,0.1c0,0.3,0,0.5,0.1,0.8c0,0,0,0.1,0,0.1c0,0.3,0.1,0.5,0.1,0.8
		c0,0,0,0.1,0,0.1c0,0.3,0.1,0.6,0.1,0.9c0,0.1,0,0.1,0,0.2c0,0.3,0.1,0.6,0.1,0.9c0,0.1,0,0.1,0,0.2c0.1,0.3,0.1,0.6,0.2,1
		c0,0,0,0,0,0c0.1,0.3,0.1,0.6,0.2,1c0,0.1,0,0.1,0,0.2c0.1,0.3,0.1,0.6,0.2,1c0,0.1,0,0.1,0,0.2c0.1,0.3,0.1,0.7,0.2,1
		c0,0,0,0.1,0,0.1c0.1,0.3,0.2,0.7,0.2,1c0,0,0,0.1,0,0.1c0.1,0.3,0.2,0.7,0.3,1c0,0.1,0,0.1,0.1,0.2c0.1,0.3,0.2,0.7,0.3,1
		c0,0.1,0,0.1,0,0.2c0.1,0.4,0.2,0.7,0.3,1.1c0,0,0,0,0,0.1c0.1,0.4,0.2,0.7,0.3,1.1c0,0.1,0,0.1,0,0.2c0.1,0.4,0.2,0.7,0.3,1.1
		c0,0.1,0,0.1,0.1,0.2c0.1,0.4,0.2,0.7,0.3,1.1c0,0.1,0,0.1,0,0.2c0.1,0.4,0.2,0.7,0.3,1.1c0,0,0,0.1,0,0.1c0.1,0.4,0.2,0.7,0.3,1.1
		c0,0.1,0,0.1,0.1,0.2c0.1,0.3,0.2,0.7,0.3,1c0,0.1,0,0.1,0.1,0.2c0.1,0.4,0.2,0.7,0.3,1.1c0,0,0,0,0,0.1c0.1,0.3,0.2,0.7,0.3,1
		c0,0.1,0,0.1,0,0.2c0.1,0.3,0.2,0.7,0.3,1c0,0.1,0,0.1,0.1,0.2c0.1,0.3,0.2,0.7,0.3,1c0,0,0,0.1,0,0.1c0.1,0.3,0.2,0.6,0.3,1
		c0,0,0,0,0,0.1c0.1,0.3,0.2,0.6,0.3,0.9c0,0.1,0,0.1,0.1,0.2c0.1,0.3,0.2,0.6,0.3,0.9c0,0.1,0,0.1,0.1,0.2c0.1,0.3,0.2,0.6,0.3,0.9
		c0,0,0,0.1,0,0.1c0.1,0.3,0.2,0.5,0.3,0.8c0,0,0,0.1,0,0.1c0.1,0.3,0.2,0.5,0.3,0.8c0,0.1,0,0.1,0.1,0.2c0.1,0.3,0.2,0.5,0.3,0.7
		c0,0,0,0.1,0,0.1c0.1,0.2,0.2,0.5,0.2,0.7c0,0,0,0,0,0c0.8,2.3,1.5,4.7,2.1,7c0,0,0,0,0,0c0.1,0.4,0.2,0.8,0.3,1.2
		c0,0.1,0,0.1,0,0.2c0.1,0.3,0.2,0.6,0.2,1c0,0.1,0.1,0.2,0.1,0.3c0.1,0.3,0.1,0.6,0.2,0.8c0,0.1,0,0.2,0.1,0.3
		c0.1,0.3,0.2,0.7,0.2,1c0,0,0,0,0,0.1l0.4,1.9c0.3,1.3,0.5,2.4,0.7,3.2c0.4,2.4-0.6,3.6-0.9,4.6c-0.3,1-1.9,4.7-2.2,5.7
		s-1.3,4.1-1.3,4.7c-0.1,0.7,0.1,1.9,0,2.6c-0.1,1.4-0.4,2.1,0.2,2.4c1.6,0.8,2-2.8,2.9-5c0.5-1.2,1.7-3.7,2.8-3.6
		c1.3,0.1,0.6,4.9,0.6,4.9s0.6,2.7-4.1,8.5c-2.4,2.9,1.8,2.6,2.6,1.9c0,0,4.3-2.6,7.2-7.8C1121.2,586,1121.8,582.4,1121.7,580.1z"/>
	<circle class="st8" cx="1068.5" cy="411.3" r="14.7"/>
	<circle class="st8" cx="1068.5" cy="542.2" r="14.7"/>
	<g>
		<path class="st9" d="M1072.3,419.8c0,9.5-7.3,9.5-7.3,19.1c0,9.5,7.3,9.5,7.3,19.1c0,9.6-7.3,9.6-7.3,19.1c0,9.6,7.3,9.6,7.3,19.1
			c0,9.6-7.3,9.6-7.3,19.1c0,9.6,7.3,9.6,7.3,19.1"/>
	</g>
	<g>
		<path class="st9" d="M1065,534.4c0-9.5,7.3-9.5,7.3-19.1c0-9.5-7.3-9.5-7.3-19.1c0-9.6,7.3-9.6,7.3-19.1c0-9.6-7.3-9.6-7.3-19.1
			c0-9.6,7.3-9.6,7.3-19.1s-7.3-9.6-7.3-19.1"/>
	</g>
	<circle class="st10" cx="1068.5" cy="411.3" r="9.2"/>
	<circle class="st10" cx="1068.5" cy="542.2" r="9.2"/>
</g>
<circle class="st11" cx="254.1" cy="146.7" r="116.4"/>
<circle class="st12" cx="361.2" cy="148.7" r="147"/>
<circle class="st2" cx="140.7" cy="148" r="91.9"/>
<circle class="st4" cx="140.7" cy="148" r="73.5"/>
<g>
	<path class="st0" d="M91.4,135.5l7.4-0.1c2.4,0,4.4,0.6,5.8,1.8c1.4,1.2,2.1,3,2.1,5.2c0,1.5-0.4,2.9-1.2,4
		c-0.8,1.1-1.9,1.9-3.2,2.3c1.1,0.4,1.9,1.4,2.5,2.9l1.5,4c0.4,1.2,1,2,1.6,2.5c-0.5,0.8-1.3,1.1-2.5,1.1c-0.6,0-1.1-0.2-1.5-0.5
		c-0.3-0.3-0.7-0.9-1-1.7l-1.7-4.7c-0.3-0.9-0.8-1.6-1.3-2.1c-0.5-0.5-1.2-0.7-2.2-0.7h-2.8v9.5c-0.5,0.1-1.1,0.1-1.8,0.1
		c-0.7,0-1.3,0-1.8-0.1v-23.4L91.4,135.5z M94.9,138.3v8.4c1.8,0,3.1-0.1,3.8-0.1c1.5,0,2.6-0.4,3.3-1.2c0.6-0.8,1-1.8,1-3
		c0-2.8-1.4-4.2-4.2-4.2C96.9,138.3,95.6,138.3,94.9,138.3z"/>
	<path class="st0" d="M115.6,154.4l0,1.8c0.7-0.1,1.5-0.1,2.3-0.1h9c0,0.6,0,1.1-0.1,1.4c-0.2,1.2-1,1.7-2.4,1.7h-10.3
		c-0.6,0-1.2-0.2-1.5-0.6s-0.6-1-0.6-1.7v-21.2l0.2-0.2h13.9c0.1,0.4,0.1,0.9,0.1,1.5c0,0.6-0.1,1.2-0.3,1.6h-10.4l0,2.2v4.8l2.1,0
		h6.5c0.1,0.4,0.2,0.9,0.2,1.5c0,0.6-0.1,1.1-0.2,1.5h-6.5c-0.9,0-1.6,0-2.1,0V154.4z"/>
	<path class="st0" d="M133.6,157.6c-2.5-2.1-3.7-5.5-3.7-10.2c0-1.9,0.2-3.6,0.6-5.1c0.4-1.5,1-2.8,1.9-3.9c0.8-1.1,1.8-1.9,3-2.5
		c1.2-0.6,2.6-0.9,4.1-0.9c1.5,0,2.9,0.3,4.1,0.8c1.2,0.6,2.2,1.4,3,2.4c0.8,1.1,1.4,2.4,1.8,3.9c0.4,1.5,0.6,3.2,0.6,5.1
		c0,1.9-0.2,3.6-0.6,5.1c-0.4,1.5-1,2.8-1.8,3.9c-0.8,1.1-1.8,1.9-3,2.4c-1.2,0.6-2.6,0.8-4.1,0.8
		C137.1,159.6,135.1,158.9,133.6,157.6z M134.8,141.2c-0.4,1-0.7,1.9-0.8,2.9c-0.2,1-0.2,2-0.2,3.1c0,1.2,0.1,2.3,0.2,3.5
		c0.2,1.1,0.5,2.2,0.9,3.1c0.4,0.9,1,1.6,1.8,2.2s1.7,0.8,2.9,0.8c1.3,0,2.3-0.3,3-1c0.7-0.6,1.3-1.4,1.7-2.4c0.4-0.9,0.7-2,0.8-3
		c0.1-1.1,0.2-2.1,0.2-3c0-0.9-0.1-1.9-0.2-3c-0.1-1.1-0.4-2.1-0.8-3c-0.4-0.9-1-1.7-1.7-2.3c-0.8-0.6-1.8-0.9-3.1-0.9
		c-1.2,0-2.2,0.3-3,0.8C135.8,139.4,135.2,140.2,134.8,141.2z"/>
	<path class="st0" d="M154.3,135.5l7.4-0.1c2.4,0,4.4,0.6,5.8,1.8c1.4,1.2,2.1,3,2.1,5.2c0,1.5-0.4,2.9-1.2,4
		c-0.8,1.1-1.9,1.9-3.2,2.3c1.1,0.4,1.9,1.4,2.5,2.9l1.5,4c0.4,1.2,1,2,1.6,2.5c-0.5,0.8-1.3,1.1-2.5,1.1c-0.6,0-1.1-0.2-1.5-0.5
		c-0.3-0.3-0.7-0.9-1-1.7l-1.7-4.7c-0.3-0.9-0.8-1.6-1.3-2.1c-0.5-0.5-1.2-0.7-2.2-0.7h-2.8v9.5c-0.5,0.1-1.1,0.1-1.8,0.1
		c-0.7,0-1.3,0-1.8-0.1v-23.4L154.3,135.5z M157.7,138.3v8.4c1.8,0,3.1-0.1,3.8-0.1c1.5,0,2.6-0.4,3.3-1.2c0.6-0.8,1-1.8,1-3
		c0-2.8-1.4-4.2-4.2-4.2C159.8,138.3,158.5,138.3,157.7,138.3z"/>
	<path class="st0" d="M183.2,146.8l5.3,0c1.8,0,2.6,0.8,2.6,2.4v9c-2.6,1-5.4,1.5-8.5,1.5c-1.7,0-3.2-0.3-4.5-1s-2.3-1.5-3.1-2.7
		c-1.5-2.2-2.2-5.1-2.2-8.5c0-2.1,0.3-4,0.9-5.6c0.6-1.6,1.4-2.9,2.4-3.9c2-1.9,4.3-2.9,7-2.9c3.1,0,5.8,0.8,8.1,2.5
		c-0.2,1.2-0.8,2.1-1.8,2.8c-1.9-1.4-4-2.1-6.3-2.1c-1.9,0-3.5,0.7-4.6,2.2c-1.2,1.5-1.8,3.8-1.8,7.1c0,6,2.2,9,6.6,9
		c1.6,0,3.1-0.2,4.4-0.6v-3.9c0-1,0-1.8,0.1-2.2h-3c-1.2,0-1.7-0.5-1.7-1.6C183,147.8,183.1,147.3,183.2,146.8z"/>
</g>
<circle class="st11" cx="1175.9" cy="543.1" r="153.1"/>
<circle class="st12" cx="1049.9" cy="594.4" r="183.8"/>
<circle class="st2" cx="1317.5" cy="485.2" r="122.5"/>
<circle class="st4" cx="1317.1" cy="485.4" r="104.1"/>
<g>
	<path class="st0" d="M1289.3,452.3l-1.8,0h-4.1l-1.8,0l-1.6,5.1c-0.3,0.1-0.8,0.1-1.4,0.1s-1.1-0.1-1.6-0.2l-0.1-0.2l6.8-20.5
		c0.4-0.1,1-0.1,1.8-0.1c0.8,0,1.4,0,1.8,0.1l6.8,20.5c-0.4,0.3-1,0.4-1.6,0.4c-0.7,0-1.1-0.1-1.4-0.4c-0.3-0.2-0.5-0.7-0.7-1.3
		L1289.3,452.3z M1282.4,449.7l1.5,0h3c0.8,0,1.3,0,1.5,0l-1.4-4.4c-0.7-2.3-1.2-4.1-1.6-5.5h-0.2c-0.2,1.1-0.6,2.6-1.2,4.4
		L1282.4,449.7z"/>
	<path class="st0" d="M1309.1,447v7c0,1.2,0.2,2.1,0.5,2.8c-0.5,0.4-1.1,0.7-1.8,0.7c-0.7,0-1.2-0.2-1.4-0.5
		c-0.3-0.3-0.4-0.8-0.4-1.5v-7.7c0-1-0.1-1.8-0.4-2.2c-0.3-0.4-0.7-0.7-1.4-0.7c-0.7,0-1.3,0.2-2,0.5c-0.7,0.3-1.3,0.8-1.8,1.4v10.5
		c-0.3,0.1-0.9,0.1-1.5,0.1c-0.3,0-0.6,0-0.9,0c-0.3,0-0.5-0.1-0.7-0.1v-14.9l0.2-0.2h1.2c1.1,0,1.7,0.6,1.7,1.9
		c1.5-1.4,3.1-2,4.8-2c1.4,0,2.4,0.4,3,1.3C1308.8,444.3,1309.1,445.5,1309.1,447z"/>
	<path class="st0" d="M1322.6,443.5c0.4-0.7,1.1-1.2,2.1-1.4c0.2,0.2,0.5,0.4,0.7,0.7c0.2,0.3,0.4,0.6,0.4,0.9
		c-0.6,0.5-0.8,1.5-0.8,2.9v9c0,1.6-0.1,2.9-0.4,3.9c-0.3,1.1-0.6,1.9-1.2,2.6c-0.5,0.7-1.2,1.1-2,1.4s-1.8,0.4-2.9,0.4
		c-1.8,0-3.5-0.3-5.2-1c0-1,0.3-1.8,0.8-2.4c1.3,0.6,2.6,0.9,4.1,0.9c1.4,0,2.4-0.4,2.9-1.1s0.8-1.8,0.8-3.1v-1.4
		c-1.2,1.1-2.6,1.6-4.2,1.6c-1.6,0-2.8-0.7-3.7-2.1c-0.9-1.4-1.3-3.3-1.3-5.7c0-1.2,0.2-2.3,0.5-3.3s0.7-1.8,1.3-2.4
		c0.5-0.7,1.2-1.2,1.9-1.5c0.7-0.4,1.4-0.5,2.2-0.5C1320.1,442,1321.5,442.5,1322.6,443.5z M1322,453.2v-7.4c-1-0.9-2-1.4-3-1.4
		c-1,0-1.7,0.5-2.3,1.4s-0.8,2.3-0.8,4c0,1.8,0.3,3.1,0.8,3.9s1.2,1.2,2,1.2C1319.8,455,1321,454.4,1322,453.2z"/>
	<path class="st0" d="M1328.3,456.2c0-0.3,0.1-0.7,0.3-1.2c0.2-0.4,0.4-0.8,0.7-1c1.6,0.9,2.9,1.3,3.9,1.3c1,0,1.8-0.2,2.3-0.5
		c0.5-0.3,0.7-0.8,0.7-1.4c0-0.9-0.6-1.6-1.9-2.1l-1.7-0.6c-2.6-1-3.8-2.4-3.8-4.3c0-1.4,0.5-2.5,1.5-3.3c1-0.8,2.3-1.2,3.9-1.2
		c1.6,0,3.3,0.4,4.9,1.1c0,0.4-0.1,0.8-0.3,1.3c-0.2,0.4-0.4,0.8-0.7,1c-1.4-0.7-2.8-1-4-1c-0.7,0-1.2,0.2-1.6,0.5
		c-0.4,0.3-0.6,0.7-0.6,1.2c0,0.5,0.1,0.9,0.4,1.1c0.3,0.3,0.8,0.5,1.4,0.8l1.8,0.7c2.6,1,3.8,2.5,3.8,4.5c0,1.4-0.5,2.5-1.6,3.3
		c-1.1,0.8-2.5,1.2-4.4,1.2C1331.7,457.7,1329.9,457.2,1328.3,456.2z"/>
	<path class="st0" d="M1350.3,442.3c0.1,0.3,0.2,0.7,0.2,1.2c0,0.4-0.1,0.8-0.2,1.2l-3.7-0.1v9c0,0.9,0.4,1.3,1.2,1.3h2.1
		c0.2,0.4,0.2,0.9,0.2,1.4c0,0.5,0,0.8-0.1,0.9c-1.2,0.1-2.3,0.2-3.4,0.2c-2.1,0-3.2-1-3.2-3.1v-9.7l-2.2,0
		c-0.1-0.3-0.1-0.7-0.1-1.1s0-0.8,0.1-1.2l2.2,0.1v-2.7c0-0.7,0.1-1.2,0.4-1.5s0.7-0.5,1.3-0.5h1.2l0.2,0.2v4.5L1350.3,442.3z"/>
	<path class="st0" d="M1246.6,488.6l-1.8,0h-4.1l-1.8,0l-1.6,5.1c-0.3,0.1-0.8,0.1-1.4,0.1s-1.1-0.1-1.6-0.2l-0.1-0.2l6.8-20.5
		c0.4-0.1,1-0.1,1.8-0.1c0.8,0,1.4,0,1.8,0.1l6.8,20.5c-0.4,0.3-1,0.4-1.6,0.4c-0.7,0-1.1-0.1-1.4-0.4c-0.3-0.2-0.5-0.7-0.7-1.3
		L1246.6,488.6z M1239.7,486l1.5,0h3c0.8,0,1.3,0,1.5,0l-1.4-4.4c-0.7-2.3-1.2-4.1-1.6-5.5h-0.2c-0.2,1.1-0.6,2.6-1.2,4.4
		L1239.7,486z"/>
	<path class="st0" d="M1253.6,480.1c0.2-0.7,0.6-1.3,1.1-1.7c1.4,0.3,2.3,1.2,2.8,2.7c0.8-1.8,2.1-2.7,4-2.7c0.5,0,1,0.1,1.6,0.2
		c0,1.2-0.3,2.2-0.8,3c-0.2-0.1-0.6-0.1-1.2-0.2c-1.4,0-2.5,0.8-3.2,2.3v9.9c-0.4,0.1-0.9,0.1-1.6,0.1c-0.7,0-1.2,0-1.6-0.1v-10.4
		C1254.8,481.8,1254.4,480.8,1253.6,480.1z"/>
	<path class="st0" d="M1265.6,492.8v-21.3l0.2-0.2h1.2c0.6,0,1.1,0.2,1.3,0.5c0.3,0.3,0.4,0.8,0.4,1.5v6.6c1.2-1,2.6-1.5,4.2-1.5
		c1.6,0,2.9,0.7,3.7,2.1c0.9,1.4,1.3,3.3,1.3,5.8c0,1.2-0.2,2.2-0.5,3.1s-0.8,1.7-1.4,2.4c-0.6,0.7-1.3,1.2-2.1,1.5
		c-0.8,0.3-1.7,0.5-2.6,0.5C1269.2,493.8,1267.4,493.5,1265.6,492.8z M1272,481c-1.2,0-2.3,0.6-3.3,1.7v8.4c0.7,0.2,1.6,0.4,2.6,0.4
		c1,0,1.8-0.5,2.5-1.4c0.6-0.9,1-2.3,1-4c0-1.8-0.2-3-0.7-3.8S1272.8,481,1272,481z"/>
	<path class="st0" d="M1292.7,487.1h-8.9c0.1,1.4,0.4,2.5,0.9,3.2c0.5,0.7,1.4,1.1,2.7,1.1c0.6,0,1.3-0.1,2-0.3
		c0.7-0.2,1.4-0.5,2.2-0.9c0.5,0.5,0.8,1.1,1,2c-1.6,1.1-3.5,1.7-5.7,1.7c-1.1,0-2.1-0.2-2.9-0.6c-0.8-0.4-1.4-1-1.9-1.7
		c-0.5-0.7-0.9-1.5-1.1-2.5c-0.2-1-0.3-2-0.3-3.2c0-1.1,0.1-2.1,0.4-3.1c0.3-1,0.7-1.8,1.2-2.5s1.2-1.2,2-1.6
		c0.8-0.4,1.6-0.6,2.6-0.6s1.8,0.2,2.6,0.5c0.8,0.3,1.4,0.8,1.9,1.3c0.5,0.6,0.9,1.3,1.2,2.1c0.3,0.8,0.4,1.7,0.4,2.6
		c0,0.4,0,0.8,0,1.2C1292.8,486.3,1292.7,486.7,1292.7,487.1z M1286.9,480.6c-1.9,0-2.9,1.4-3.1,4.3h6.1v-0.4c0-1.1-0.2-2.1-0.7-2.8
		C1288.6,480.9,1287.9,480.6,1286.9,480.6z"/>
	<path class="st0" d="M1300.3,481.2v12.3c-0.4,0.1-0.9,0.1-1.6,0.1c-0.7,0-1.2,0-1.6-0.1v-11.1c0-0.6-0.1-1-0.3-1.2
		c-0.2-0.2-0.5-0.4-1-0.4h-0.3c-0.1-0.4-0.2-0.8-0.2-1.1c0-0.3,0.1-0.7,0.2-1.1c0.7-0.1,1.3-0.1,1.9-0.1h0.4c0.8,0,1.4,0.2,1.8,0.7
		C1300,479.8,1300.3,480.4,1300.3,481.2z M1296.5,475.8c-0.2-0.4-0.3-0.8-0.3-1.3c0-0.8,0.2-1.3,0.5-1.5c0.3-0.2,0.8-0.2,1.5-0.3
		c0.8,0,1.3,0.1,1.5,0.3s0.3,0.7,0.4,1.4c0,0.7-0.1,1.2-0.4,1.4c-0.2,0.2-0.7,0.3-1.5,0.3C1297.4,476.2,1296.8,476.1,1296.5,475.8z"
		/>
	<path class="st0" d="M1312.1,478.6c0.1,0.3,0.2,0.7,0.2,1.2c0,0.4-0.1,0.8-0.2,1.2l-3.7-0.1v9c0,0.9,0.4,1.3,1.2,1.3h2.1
		c0.2,0.4,0.2,0.9,0.2,1.4c0,0.5,0,0.8-0.1,0.9c-1.2,0.1-2.3,0.2-3.4,0.2c-2.1,0-3.2-1-3.2-3.1v-9.7l-2.2,0
		c-0.1-0.3-0.1-0.7-0.1-1.1s0-0.8,0.1-1.2l2.2,0.1V476c0-0.7,0.1-1.2,0.4-1.5s0.7-0.5,1.3-0.5h1.2l0.2,0.2v4.5L1312.1,478.6z"/>
	<path class="st0" d="M1313.9,492.5c0-0.3,0.1-0.7,0.3-1.2c0.2-0.4,0.4-0.8,0.7-1c1.6,0.9,2.9,1.3,3.9,1.3c1,0,1.8-0.2,2.3-0.5
		c0.5-0.3,0.7-0.8,0.7-1.4c0-0.9-0.6-1.6-1.9-2.1l-1.7-0.6c-2.6-1-3.8-2.4-3.8-4.3c0-1.4,0.5-2.5,1.5-3.3c1-0.8,2.3-1.2,3.9-1.2
		c1.6,0,3.3,0.4,4.9,1.1c0,0.4-0.1,0.8-0.3,1.3c-0.2,0.4-0.4,0.8-0.7,1c-1.4-0.7-2.8-1-4-1c-0.7,0-1.2,0.2-1.6,0.5
		c-0.4,0.3-0.6,0.7-0.6,1.2c0,0.5,0.1,0.9,0.4,1.1c0.3,0.3,0.8,0.5,1.4,0.8l1.8,0.7c2.6,1,3.8,2.5,3.8,4.5c0,1.4-0.5,2.5-1.6,3.3
		c-1.1,0.8-2.5,1.2-4.4,1.2C1317.4,494,1315.6,493.5,1313.9,492.5z"/>
	<path class="st0" d="M1335.1,493.9c-1.1,0-2.3-0.3-3.4-1v5.2c0,0.7-0.1,1.2-0.4,1.5s-0.7,0.5-1.3,0.5h-1.2l-0.2-0.2v-21.2l0.2-0.2
		h1c1,0,1.6,0.5,1.8,1.5c1.2-1.2,2.6-1.8,4.2-1.8c0.8,0,1.5,0.2,2.2,0.5s1.2,0.9,1.6,1.6s0.8,1.5,1,2.5c0.2,1,0.3,2,0.3,3.3
		s-0.2,2.3-0.5,3.3s-0.7,1.8-1.3,2.5c-0.5,0.7-1.2,1.2-1.9,1.5S1335.9,493.9,1335.1,493.9z M1335,480.9c-1.3,0-2.4,0.7-3.3,2v7.4
		c0.5,0.3,1,0.6,1.5,0.8c0.5,0.2,1,0.3,1.4,0.3c0.9,0,1.7-0.5,2.3-1.4c0.6-0.9,0.9-2.3,0.9-4c0-1.8-0.3-3.1-0.8-3.9
		C1336.5,481.3,1335.8,480.9,1335,480.9z"/>
	<path class="st0" d="M1348.8,491.2h1.1c0.2,0.5,0.3,1,0.3,1.3s0,0.7-0.1,0.9c-0.8,0.1-1.7,0.2-2.6,0.2c-2,0-3-1-3-3.1v-19.1
		l0.2-0.2h1.2c0.6,0,1.1,0.2,1.3,0.5c0.3,0.3,0.4,0.8,0.4,1.5v16.5C1347.7,490.8,1348.1,491.2,1348.8,491.2z"/>
	<path class="st0" d="M1365.1,492.2c-0.2,0.7-0.6,1.3-1.2,1.6c-1.2-0.2-2-0.8-2.4-1.9c-1.4,1.4-2.9,2.1-4.4,2.1
		c-0.8,0-1.4-0.1-2-0.4c-0.6-0.2-1.1-0.6-1.5-1c-0.4-0.4-0.7-0.9-0.9-1.4c-0.2-0.5-0.3-1.1-0.3-1.7c0-1.7,0.5-2.9,1.6-3.8
		c1.1-0.8,2.5-1.3,4.2-1.3c0.5,0,1,0,1.5,0s1,0.1,1.4,0.2v-1.2c0-1.8-0.8-2.7-2.5-2.7c-1.1,0-2.7,0.4-4.8,1.2
		c-0.6-0.5-0.9-1.3-0.9-2.3c2.1-0.9,4.1-1.4,6.3-1.4c1.6,0,2.8,0.4,3.7,1.3s1.3,2.1,1.3,3.8v6.2
		C1364.3,490.9,1364.6,491.7,1365.1,492.2z M1357.6,491.5c1.3,0,2.5-0.6,3.6-1.8v-2.9c-0.4,0-0.8-0.1-1.3-0.1c-0.4,0-0.9,0-1.4,0
		c-0.9,0-1.6,0.2-2.2,0.7c-0.5,0.5-0.8,1.1-0.8,1.8c0,0.7,0.2,1.3,0.5,1.7C1356.5,491.3,1357,491.5,1357.6,491.5z"/>
	<path class="st0" d="M1375.9,478.6c0.1,0.3,0.2,0.7,0.2,1.2c0,0.4-0.1,0.8-0.2,1.2l-3.7-0.1v9c0,0.9,0.4,1.3,1.2,1.3h2.1
		c0.2,0.4,0.2,0.9,0.2,1.4c0,0.5,0,0.8-0.1,0.9c-1.2,0.1-2.3,0.2-3.4,0.2c-2.1,0-3.2-1-3.2-3.1v-9.7l-2.2,0
		c-0.1-0.3-0.1-0.7-0.1-1.1s0-0.8,0.1-1.2l2.2,0.1V476c0-0.7,0.1-1.2,0.4-1.5s0.7-0.5,1.3-0.5h1.2l0.2,0.2v4.5L1375.9,478.6z"/>
	<path class="st0" d="M1378.5,490.7l4.9-6.7c0.6-0.8,1.4-1.7,2.4-2.9l-0.1-0.1c-0.8,0.1-2.2,0.2-4,0.2h-3.2c-0.1-0.3-0.1-0.6-0.1-1
		s0.1-0.9,0.2-1.4h10.1c0.3,0.9,0.5,1.5,0.5,1.8c0,0.3-0.1,0.7-0.4,1.1l-4.9,6.7c-0.4,0.6-1.2,1.5-2.3,2.9l0.1,0.1
		c0.9-0.1,1.8-0.1,2.8-0.1h1.5c1.5,0,2.6-0.1,3.2-0.4c0.2,0.5,0.3,0.9,0.3,1.4c0,1-0.7,1.5-2,1.5h-9c-0.3-0.8-0.4-1.4-0.4-1.8
		C1378,491.5,1378.1,491.1,1378.5,490.7z"/>
	<path class="st0" d="M1399,486.9h-7.5c-0.1-0.3-0.2-0.8-0.2-1.3s0-1,0.2-1.3h7.5c0.1,0.4,0.2,0.8,0.2,1.4
		C1399.2,486.1,1399.1,486.5,1399,486.9z"/>
	<path class="st0" d="M1280,527.4l3.6-12.4c0.4-0.1,0.8-0.1,1.3-0.1c0.5,0,1,0.1,1.4,0.2l0.1,0.1c-1.5,5.1-3.1,10-4.7,14.7
		c-0.6,0.1-1.3,0.2-2.1,0.2c-0.8,0-1.3-0.1-1.6-0.3s-0.6-0.7-0.8-1.4l-4.2-13.1c0.7-0.3,1.3-0.5,1.8-0.5c0.9,0,1.5,0.4,1.7,1.3
		l2,6.7c0.4,1.2,0.8,2.7,1.2,4.4C1279.7,527.3,1279.8,527.4,1280,527.4z"/>
	<path class="st0" d="M1299.6,523.4h-8.9c0.1,1.4,0.4,2.5,0.9,3.2c0.5,0.7,1.4,1.1,2.7,1.1c0.6,0,1.3-0.1,2-0.3
		c0.7-0.2,1.4-0.5,2.2-0.9c0.5,0.5,0.8,1.1,1,2c-1.6,1.1-3.5,1.7-5.7,1.7c-1.1,0-2.1-0.2-2.9-0.6c-0.8-0.4-1.4-1-1.9-1.7
		c-0.5-0.7-0.9-1.5-1.1-2.5c-0.2-1-0.3-2-0.3-3.2c0-1.1,0.1-2.1,0.4-3.1c0.3-1,0.7-1.8,1.2-2.5s1.2-1.2,2-1.6
		c0.8-0.4,1.6-0.6,2.6-0.6s1.8,0.2,2.6,0.5c0.8,0.3,1.4,0.8,1.9,1.3c0.5,0.6,0.9,1.3,1.2,2.1c0.3,0.8,0.4,1.7,0.4,2.6
		c0,0.4,0,0.8,0,1.2C1299.7,522.6,1299.7,523,1299.6,523.4z M1293.8,516.9c-1.9,0-2.9,1.4-3.1,4.3h6.1v-0.4c0-1.1-0.2-2.1-0.7-2.8
		C1295.6,517.2,1294.8,516.9,1293.8,516.9z"/>
	<path class="st0" d="M1302.8,516.4c0.2-0.7,0.6-1.3,1.1-1.7c1.4,0.3,2.3,1.2,2.8,2.7c0.8-1.8,2.1-2.7,4-2.7c0.5,0,1,0.1,1.6,0.2
		c0,1.2-0.3,2.2-0.8,3c-0.2-0.1-0.6-0.1-1.2-0.2c-1.4,0-2.5,0.8-3.2,2.3v9.9c-0.4,0.1-0.9,0.1-1.6,0.1c-0.7,0-1.2,0-1.6-0.1v-10.4
		C1303.9,518.1,1303.5,517.1,1302.8,516.4z"/>
	<path class="st0" d="M1319,527.5h1.1c0.2,0.5,0.3,1,0.3,1.3s0,0.7-0.1,0.9c-0.8,0.1-1.7,0.2-2.6,0.2c-2,0-3-1-3-3.1v-19.1l0.2-0.2
		h1.2c0.6,0,1.1,0.2,1.3,0.5c0.3,0.3,0.4,0.8,0.4,1.5v16.5C1317.8,527.1,1318.2,527.5,1319,527.5z"/>
	<path class="st0" d="M1323.2,525.2v-7c0-1.2-0.2-2.1-0.5-2.7c0.5-0.4,1.2-0.7,2-0.7c1.1,0,1.7,0.7,1.7,2v7.7c0,1,0.1,1.8,0.4,2.2
		c0.3,0.4,0.7,0.7,1.4,0.7c0.7,0,1.3-0.2,2-0.5c0.7-0.3,1.3-0.8,1.8-1.3V515c0.6-0.1,1.1-0.1,1.5-0.1s1,0,1.6,0.1v10.7
		c0,1.4,0.3,2.4,0.8,2.9c-0.2,0.7-0.6,1.3-1.2,1.6c-1.3-0.2-2.1-0.9-2.5-2.2c-1.6,1.5-3.3,2.2-5.1,2.2c-1.3,0-2.3-0.5-3-1.4
		C1323.5,527.9,1323.2,526.7,1323.2,525.2z"/>
	<path class="st0" d="M1338.4,528.8c0-0.3,0.1-0.7,0.3-1.2c0.2-0.4,0.4-0.8,0.7-1c1.6,0.9,2.9,1.3,3.9,1.3c1,0,1.8-0.2,2.3-0.5
		c0.5-0.3,0.7-0.8,0.7-1.4c0-0.9-0.6-1.6-1.9-2.1l-1.7-0.6c-2.6-1-3.8-2.4-3.8-4.3c0-1.4,0.5-2.5,1.5-3.3c1-0.8,2.3-1.2,3.9-1.2
		c1.6,0,3.3,0.4,4.9,1.1c0,0.4-0.1,0.8-0.3,1.3c-0.2,0.4-0.4,0.8-0.7,1c-1.4-0.7-2.8-1-4-1c-0.7,0-1.2,0.2-1.6,0.5
		c-0.4,0.3-0.6,0.7-0.6,1.2c0,0.5,0.1,0.9,0.4,1.1c0.3,0.3,0.8,0.5,1.4,0.8l1.8,0.7c2.6,1,3.8,2.5,3.8,4.5c0,1.4-0.5,2.5-1.6,3.3
		c-1.1,0.8-2.5,1.2-4.4,1.2C1341.9,530.3,1340.1,529.8,1338.4,528.8z"/>
	<path class="st0" d="M1360.5,514.9c0.1,0.3,0.2,0.7,0.2,1.2c0,0.4-0.1,0.8-0.2,1.2l-3.7-0.1v9c0,0.9,0.4,1.3,1.2,1.3h2.1
		c0.2,0.4,0.2,0.9,0.2,1.4c0,0.5,0,0.8-0.1,0.9c-1.2,0.1-2.3,0.2-3.4,0.2c-2.1,0-3.2-1-3.2-3.1v-9.7l-2.2,0
		c-0.1-0.3-0.1-0.7-0.1-1.1s0-0.8,0.1-1.2l2.2,0.1v-2.7c0-0.7,0.1-1.2,0.4-1.5s0.7-0.5,1.3-0.5h1.2l0.2,0.2v4.5L1360.5,514.9z"/>
</g>
<circle class="st13" cx="1093.2" cy="184.1" r="116.4"/>
<circle class="st14" cx="977.2" cy="179.7" r="147"/>
<circle class="st8" cx="1211.4" cy="188.6" r="85.8"/>
<circle class="st10" cx="1210.9" cy="189.2" r="67.4"/>
<g>
	<path class="st0" d="M1201.4,168.6c0.3,0.9,0.5,1.8,0.5,2.8c0,2-1,3-3,3h-13.7v3.2l-0.5,6.2c1.9-0.8,3.8-1.2,5.7-1.2
		c4,0,7.2,1.2,9.6,3.6c2.4,2.4,3.6,5.9,3.6,10.5c0,2.2-0.4,4.3-1.2,6.1c-0.8,1.8-1.9,3.4-3.2,4.6c-1.3,1.3-2.9,2.3-4.7,2.9
		c-1.8,0.7-3.7,1-5.7,1c-5,0-9-1.4-12.2-4.1c0.1-0.7,0.5-1.5,1-2.4c0.6-0.9,1.2-1.6,1.8-2c1.6,1.1,3.1,1.9,4.5,2.4
		c1.5,0.5,2.9,0.7,4.1,0.7c2.5,0,4.5-0.8,6.1-2.5c1.6-1.7,2.4-4,2.4-6.9c0-1.5-0.2-2.8-0.6-3.9c-0.4-1.1-1-2-1.8-2.7
		c-0.8-0.7-1.7-1.2-2.6-1.5c-0.9-0.3-1.9-0.5-3-0.5c-1.2,0-2.4,0.2-3.6,0.7c-1.3,0.4-2.5,1.2-3.6,2.2c-0.6-0.1-1.2-0.4-1.8-0.8
		c-0.6-0.5-1.1-0.9-1.4-1.5l0.9-19.5l0.5-0.5H1201.4z"/>
	<path class="st0" d="M1230,187.3l10-0.1c3.3,0,4.9,1.5,4.9,4.5v16.9c-4.8,1.9-10.2,2.8-16,2.8c-3.2,0-6.1-0.6-8.5-1.8
		c-2.4-1.2-4.4-2.9-5.8-5c-2.7-4.2-4.1-9.5-4.1-15.9c0-4,0.5-7.5,1.6-10.6c1.1-3.1,2.5-5.5,4.4-7.3c3.8-3.6,8.1-5.4,13.2-5.4
		c5.9,0,10.9,1.6,15.1,4.7c-0.3,2.2-1.4,3.9-3.3,5.2c-3.5-2.7-7.5-4-11.8-4c-3.6,0-6.5,1.4-8.7,4.2c-2.2,2.8-3.3,7.2-3.3,13.2
		c0,11.3,4.1,16.9,12.4,16.9c3.1,0,5.8-0.4,8.2-1.1v-7.3c0-1.9,0-3.3,0.1-4.1h-5.7c-2.2,0-3.2-1-3.2-3
		C1229.4,189.1,1229.6,188.2,1230,187.3z"/>
</g>
<g>
	<circle class="st8" cx="122.5" cy="468.7" r="122.5"/>
	<circle class="st13" cx="262.7" cy="530.6" r="153.1"/>
	<circle class="st14" cx="384.3" cy="587.3" r="183.8"/>
	<circle class="st10" cx="122.9" cy="468.8" r="104.1"/>
	<g>
		<path class="st0" d="M71.2,452.1l-1.8,0h-4.1l-1.8,0l-1.6,5.1c-0.3,0.1-0.8,0.1-1.4,0.1c-0.6,0-1.1-0.1-1.6-0.2l-0.1-0.2l6.8-20.5
			c0.4-0.1,1-0.1,1.8-0.1s1.4,0,1.8,0.1l6.8,20.5c-0.4,0.3-1,0.4-1.6,0.4s-1.1-0.1-1.4-0.4c-0.3-0.2-0.5-0.7-0.7-1.3L71.2,452.1z
			 M62.9,432c0.2-0.1,0.4-0.2,0.7-0.3c0.3-0.1,0.5-0.1,0.8-0.1c0.5,0,1,0.1,1.3,0.3c0.3,0.2,0.5,0.6,0.5,1.3c0,0.7-0.1,1.1-0.4,1.3
			c-0.2,0.2-0.7,0.3-1.4,0.3c-0.8,0-1.2-0.1-1.4-0.4c-0.2-0.3-0.3-0.7-0.3-1.2C62.6,432.8,62.7,432.4,62.9,432z M64.3,449.5l1.5,0h3
			c0.8,0,1.3,0,1.5,0l-1.4-4.4c-0.7-2.3-1.2-4.1-1.6-5.5h-0.2c-0.2,1.1-0.6,2.6-1.2,4.4L64.3,449.5z M69.3,432
			c0.4-0.2,0.8-0.4,1.4-0.4c0.6,0,1,0.1,1.3,0.2c0.3,0.2,0.5,0.6,0.5,1.4c0,0.7-0.1,1.1-0.3,1.3c-0.2,0.2-0.7,0.3-1.5,0.3
			c-0.7,0-1.2-0.1-1.4-0.3c-0.2-0.2-0.3-0.7-0.3-1.3c0-0.2,0-0.4,0.1-0.7S69.2,432.2,69.3,432z"/>
		<path class="st0" d="M78.3,443.6c0.2-0.7,0.6-1.3,1.1-1.7c1.4,0.3,2.3,1.2,2.8,2.7c0.8-1.8,2.1-2.7,4-2.7c0.5,0,1,0.1,1.6,0.2
			c0,1.2-0.3,2.2-0.8,3c-0.2-0.1-0.6-0.1-1.2-0.2c-1.4,0-2.5,0.8-3.2,2.3v9.9c-0.4,0.1-0.9,0.1-1.6,0.1s-1.2,0-1.6-0.1v-10.4
			C79.4,445.4,79,444.3,78.3,443.6z"/>
		<path class="st0" d="M98.9,443.4c0.4-0.7,1.1-1.2,2.1-1.4c0.2,0.2,0.5,0.4,0.7,0.7c0.2,0.3,0.4,0.6,0.4,0.9
			c-0.6,0.5-0.8,1.5-0.8,2.9v9c0,1.6-0.1,2.9-0.4,3.9c-0.3,1.1-0.6,1.9-1.2,2.6c-0.5,0.7-1.2,1.1-2,1.4s-1.8,0.4-2.9,0.4
			c-1.8,0-3.5-0.3-5.2-1c0-1,0.3-1.8,0.8-2.4c1.3,0.6,2.6,0.9,4.1,0.9c1.4,0,2.4-0.4,2.9-1.1c0.5-0.7,0.8-1.8,0.8-3.1v-1.4
			c-1.2,1.1-2.6,1.6-4.2,1.6c-1.6,0-2.8-0.7-3.7-2.1s-1.3-3.3-1.3-5.7c0-1.2,0.2-2.3,0.5-3.3c0.3-1,0.7-1.8,1.3-2.4
			c0.5-0.7,1.2-1.2,1.9-1.5c0.7-0.4,1.4-0.5,2.2-0.5C96.4,441.8,97.7,442.3,98.9,443.4z M98.2,453v-7.4c-1-0.9-2-1.4-3-1.4
			c-1,0-1.7,0.5-2.3,1.4c-0.6,0.9-0.8,2.3-0.8,4c0,1.8,0.3,3.1,0.8,3.9c0.5,0.8,1.2,1.2,2,1.2C96.1,454.8,97.2,454.2,98.2,453z"/>
		<path class="st0" d="M117,450.7h-8.9c0.1,1.4,0.4,2.5,0.9,3.2c0.5,0.7,1.4,1.1,2.7,1.1c0.6,0,1.3-0.1,2-0.3s1.4-0.5,2.2-0.9
			c0.5,0.5,0.8,1.1,1,2c-1.6,1.1-3.5,1.7-5.7,1.7c-1.1,0-2.1-0.2-2.9-0.6s-1.4-1-1.9-1.7c-0.5-0.7-0.9-1.5-1.1-2.5
			c-0.2-1-0.3-2-0.3-3.2c0-1.1,0.1-2.1,0.4-3.1c0.3-1,0.7-1.8,1.2-2.5c0.5-0.7,1.2-1.2,2-1.6c0.8-0.4,1.6-0.6,2.6-0.6
			c1,0,1.8,0.2,2.6,0.5c0.8,0.3,1.4,0.8,1.9,1.3c0.5,0.6,0.9,1.3,1.2,2.1c0.3,0.8,0.4,1.7,0.4,2.6c0,0.4,0,0.8,0,1.2
			C117.2,449.9,117.1,450.3,117,450.7z M111.2,444.1c-1.9,0-2.9,1.4-3.1,4.3h6.1V448c0-1.1-0.2-2.1-0.7-2.8S112.2,444.1,111.2,444.1
			z"/>
		<path class="st0" d="M120.2,443.6c0.2-0.7,0.6-1.3,1.1-1.7c1.4,0.3,2.3,1.2,2.8,2.7c0.8-1.8,2.1-2.7,4-2.7c0.5,0,1,0.1,1.6,0.2
			c0,1.2-0.3,2.2-0.8,3c-0.2-0.1-0.6-0.1-1.2-0.2c-1.4,0-2.5,0.8-3.2,2.3v9.9c-0.4,0.1-0.9,0.1-1.6,0.1s-1.2,0-1.6-0.1v-10.4
			C121.3,445.4,121,444.3,120.2,443.6z"/>
		<path class="st0" d="M147.1,447.7c0-1-0.1-1.8-0.4-2.2c-0.3-0.5-0.8-0.7-1.4-0.7c-1.1,0-2.2,0.6-3.3,1.8v10.5
			c-0.3,0.1-0.9,0.1-1.5,0.1c-0.3,0-0.6,0-0.9,0c-0.3,0-0.5-0.1-0.7-0.1v-14.9l0.2-0.2h1.2c1.1,0,1.7,0.6,1.7,1.9
			c1.4-1.4,2.9-2.1,4.4-2.1c1.6,0,2.7,0.7,3.3,2.2c1.7-1.5,3.3-2.2,4.8-2.2c1.3,0,2.2,0.4,2.9,1.3c0.7,0.9,1,2,1,3.4v7.3
			c0,1.3,0.2,2.2,0.5,2.8c-0.6,0.4-1.2,0.7-2,0.7c-1.1,0-1.7-0.7-1.7-2v-7.7c0-1-0.1-1.8-0.4-2.2c-0.3-0.4-0.8-0.7-1.4-0.7
			c-1.1,0-2.2,0.6-3.3,1.8v10.5c-0.2,0-0.4,0.1-0.7,0.1c-0.3,0-0.6,0-0.9,0c-0.3,0-0.6,0-0.8,0c-0.3,0-0.5-0.1-0.7-0.1V447.7z"/>
		<path class="st0" d="M166.5,444.8v12.3c-0.4,0.1-0.9,0.1-1.6,0.1c-0.7,0-1.2,0-1.6-0.1v-11.1c0-0.6-0.1-1-0.3-1.2
			c-0.2-0.2-0.5-0.4-1-0.4h-0.3c-0.1-0.4-0.2-0.8-0.2-1.1c0-0.3,0-0.7,0.2-1.1c0.7-0.1,1.3-0.1,1.9-0.1h0.4c0.8,0,1.4,0.2,1.8,0.7
			C166.3,443.3,166.5,444,166.5,444.8z M162.7,439.4c-0.2-0.4-0.3-0.8-0.3-1.3c0-0.8,0.2-1.3,0.5-1.5c0.3-0.2,0.8-0.2,1.5-0.3
			c0.8,0,1.3,0.1,1.5,0.3c0.2,0.2,0.3,0.7,0.4,1.4c0,0.7-0.1,1.2-0.4,1.4c-0.2,0.2-0.7,0.3-1.5,0.3
			C163.6,439.8,163.1,439.6,162.7,439.4z"/>
		<path class="st0" d="M178.4,442.2c0.1,0.3,0.2,0.7,0.2,1.2c0,0.4-0.1,0.8-0.2,1.2l-3.7-0.1v9c0,0.9,0.4,1.3,1.2,1.3h2.1
			c0.2,0.4,0.2,0.9,0.2,1.4c0,0.5,0,0.8-0.1,0.9c-1.2,0.1-2.3,0.2-3.4,0.2c-2.1,0-3.2-1-3.2-3.1v-9.7l-2.2,0
			c-0.1-0.3-0.1-0.7-0.1-1.1s0-0.8,0.1-1.2l2.2,0.1v-2.7c0-0.7,0.1-1.2,0.4-1.5c0.2-0.3,0.7-0.5,1.3-0.5h1.2l0.2,0.2v4.5
			L178.4,442.2z"/>
		<path class="st0" d="M47.1,490.6l4.8-17.8c0.4-0.1,0.9-0.1,1.4-0.1c0.6,0,1,0.1,1.4,0.2l0.2,0.2l-6,20.4c-1,0.1-1.9,0.1-2.5,0.1
			c-0.6,0-1.1-0.1-1.4-0.3c-0.4-0.2-0.6-0.6-0.8-1.3l-5.6-19c0.7-0.3,1.4-0.5,2-0.5c0.9,0,1.4,0.5,1.7,1.6l3.1,10.9
			c0.5,1.7,0.9,3.4,1.3,5.2C46.9,490.5,47,490.6,47.1,490.6z"/>
		<path class="st0" d="M66.1,492.2c-1.1,1.1-2.6,1.7-4.4,1.7c-1,0-2-0.2-2.8-0.6s-1.5-0.9-2-1.6c-0.6-0.7-1-1.5-1.3-2.5
			c-0.3-1-0.4-2-0.4-3.2c0-1.2,0.1-2.2,0.4-3.2c0.3-1,0.7-1.8,1.3-2.5c0.6-0.7,1.2-1.2,2-1.6s1.7-0.6,2.8-0.6s2,0.2,2.8,0.6
			s1.5,0.9,2,1.6c0.6,0.7,1,1.5,1.3,2.5c0.3,1,0.4,2,0.4,3.2C68.3,488.7,67.6,490.7,66.1,492.2z M61.8,480.5c-2.2,0-3.3,1.8-3.3,5.5
			s1.1,5.5,3.3,5.5c2.2,0,3.3-1.8,3.3-5.5S64,480.5,61.8,480.5z"/>
		<path class="st0" d="M71.1,479.9c0.2-0.7,0.6-1.3,1.1-1.7c1.4,0.3,2.3,1.2,2.8,2.7c0.8-1.8,2.1-2.7,4-2.7c0.5,0,1,0.1,1.6,0.2
			c0,1.2-0.3,2.2-0.8,3c-0.2-0.1-0.6-0.1-1.2-0.2c-1.4,0-2.5,0.8-3.2,2.3v9.9c-0.4,0.1-0.9,0.1-1.6,0.1s-1.2,0-1.6-0.1v-10.4
			C72.2,481.7,71.9,480.6,71.1,479.9z"/>
		<path class="st0" d="M91.7,479.7c0.4-0.7,1.1-1.2,2.1-1.4c0.2,0.2,0.5,0.4,0.7,0.7c0.2,0.3,0.4,0.6,0.4,0.9
			c-0.6,0.5-0.8,1.5-0.8,2.9v9c0,1.6-0.1,2.9-0.4,3.9c-0.3,1.1-0.6,1.9-1.2,2.6c-0.5,0.7-1.2,1.1-2,1.4s-1.8,0.4-2.9,0.4
			c-1.8,0-3.5-0.3-5.2-1c0-1,0.3-1.8,0.8-2.4c1.3,0.6,2.6,0.9,4.1,0.9c1.4,0,2.4-0.4,2.9-1.1c0.5-0.7,0.8-1.8,0.8-3.1v-1.4
			c-1.2,1.1-2.6,1.6-4.2,1.6c-1.6,0-2.8-0.7-3.7-2.1s-1.3-3.3-1.3-5.7c0-1.2,0.2-2.3,0.5-3.3c0.3-1,0.7-1.8,1.3-2.4
			c0.5-0.7,1.2-1.2,1.9-1.5c0.7-0.4,1.4-0.5,2.2-0.5C89.2,478.1,90.6,478.6,91.7,479.7z M91.1,489.3v-7.4c-1-0.9-2-1.4-3-1.4
			c-1,0-1.7,0.5-2.3,1.4c-0.6,0.9-0.8,2.3-0.8,4c0,1.8,0.3,3.1,0.8,3.9c0.5,0.8,1.2,1.2,2,1.2C89,491.1,90.1,490.5,91.1,489.3z"/>
		<path class="st0" d="M109.9,487H101c0.1,1.4,0.4,2.5,0.9,3.2c0.5,0.7,1.4,1.1,2.7,1.1c0.6,0,1.3-0.1,2-0.3s1.4-0.5,2.2-0.9
			c0.5,0.5,0.8,1.1,1,2c-1.6,1.1-3.5,1.7-5.7,1.7c-1.1,0-2.1-0.2-2.9-0.6s-1.4-1-1.9-1.7c-0.5-0.7-0.9-1.5-1.1-2.5
			c-0.2-1-0.3-2-0.3-3.2c0-1.1,0.1-2.1,0.4-3.1c0.3-1,0.7-1.8,1.2-2.5c0.5-0.7,1.2-1.2,2-1.6c0.8-0.4,1.6-0.6,2.6-0.6
			c1,0,1.8,0.2,2.6,0.5c0.8,0.3,1.4,0.8,1.9,1.3c0.5,0.6,0.9,1.3,1.2,2.1c0.3,0.8,0.4,1.7,0.4,2.6c0,0.4,0,0.8,0,1.2
			C110,486.2,110,486.6,109.9,487z M104.1,480.4c-1.9,0-2.9,1.4-3.1,4.3h6.1v-0.4c0-1.1-0.2-2.1-0.7-2.8S105.1,480.4,104.1,480.4z"
			/>
		<path class="st0" d="M112.5,492.3c0-0.3,0.1-0.7,0.3-1.2c0.2-0.4,0.4-0.8,0.7-1c1.6,0.9,2.9,1.3,3.9,1.3c1,0,1.8-0.2,2.3-0.5
			c0.5-0.3,0.7-0.8,0.7-1.4c0-0.9-0.6-1.6-1.9-2.1l-1.7-0.6c-2.6-1-3.8-2.4-3.8-4.3c0-1.4,0.5-2.5,1.5-3.3c1-0.8,2.3-1.2,3.9-1.2
			c1.6,0,3.3,0.4,4.9,1.1c0,0.4-0.1,0.8-0.3,1.3s-0.4,0.8-0.7,1c-1.4-0.7-2.8-1-4-1c-0.7,0-1.2,0.2-1.6,0.5
			c-0.4,0.3-0.6,0.7-0.6,1.2c0,0.5,0.1,0.9,0.4,1.1c0.3,0.3,0.8,0.5,1.4,0.8l1.8,0.7c2.6,1,3.8,2.5,3.8,4.5c0,1.4-0.5,2.5-1.6,3.3
			c-1.1,0.8-2.5,1.2-4.4,1.2C115.9,493.8,114.2,493.3,112.5,492.3z"/>
		<path class="st0" d="M138.3,487h-8.9c0.1,1.4,0.4,2.5,0.9,3.2c0.5,0.7,1.4,1.1,2.7,1.1c0.6,0,1.3-0.1,2-0.3s1.4-0.5,2.2-0.9
			c0.5,0.5,0.8,1.1,1,2c-1.6,1.1-3.5,1.7-5.7,1.7c-1.1,0-2.1-0.2-2.9-0.6s-1.4-1-1.9-1.7c-0.5-0.7-0.9-1.5-1.1-2.5
			c-0.2-1-0.3-2-0.3-3.2c0-1.1,0.1-2.1,0.4-3.1c0.3-1,0.7-1.8,1.2-2.5c0.5-0.7,1.2-1.2,2-1.6c0.8-0.4,1.6-0.6,2.6-0.6
			c1,0,1.8,0.2,2.6,0.5c0.8,0.3,1.4,0.8,1.9,1.3c0.5,0.6,0.9,1.3,1.2,2.1c0.3,0.8,0.4,1.7,0.4,2.6c0,0.4,0,0.8,0,1.2
			C138.4,486.2,138.3,486.6,138.3,487z M132.4,480.4c-1.9,0-2.9,1.4-3.1,4.3h6.1v-0.4c0-1.1-0.2-2.1-0.7-2.8
			S133.5,480.4,132.4,480.4z"/>
		<path class="st0" d="M149.7,478.5c0.1,0.3,0.2,0.7,0.2,1.2c0,0.4-0.1,0.8-0.2,1.2l-3.7-0.1v9c0,0.9,0.4,1.3,1.2,1.3h2.1
			c0.2,0.4,0.2,0.9,0.2,1.4c0,0.5,0,0.8-0.1,0.9c-1.2,0.1-2.3,0.2-3.4,0.2c-2.1,0-3.2-1-3.2-3.1v-9.7l-2.2,0
			c-0.1-0.3-0.1-0.7-0.1-1.1s0-0.8,0.1-1.2l2.2,0.1v-2.7c0-0.7,0.1-1.2,0.4-1.5c0.2-0.3,0.7-0.5,1.3-0.5h1.2l0.2,0.2v4.5
			L149.7,478.5z"/>
		<path class="st0" d="M152.2,490.5l4.9-6.7c0.6-0.8,1.4-1.7,2.4-2.9l-0.1-0.1c-0.8,0.1-2.2,0.2-4,0.2h-3.2c-0.1-0.3-0.1-0.6-0.1-1
			s0.1-0.9,0.2-1.4h10.1c0.3,0.9,0.5,1.5,0.5,1.8c0,0.3-0.1,0.7-0.4,1.1l-4.9,6.7c-0.4,0.6-1.2,1.5-2.3,2.9l0.1,0.1
			c0.9-0.1,1.8-0.1,2.8-0.1h1.5c1.5,0,2.6-0.1,3.2-0.4c0.2,0.5,0.3,0.9,0.3,1.4c0,1-0.7,1.5-2,1.5h-9c-0.3-0.8-0.4-1.4-0.4-1.8
			C151.7,491.3,151.9,490.9,152.2,490.5z"/>
		<path class="st0" d="M173.9,478.5c0.1,0.3,0.2,0.7,0.2,1.2c0,0.4-0.1,0.8-0.2,1.2l-3.7-0.1v9c0,0.9,0.4,1.3,1.2,1.3h2.1
			c0.2,0.4,0.2,0.9,0.2,1.4c0,0.5,0,0.8-0.1,0.9c-1.2,0.1-2.3,0.2-3.4,0.2c-2.1,0-3.2-1-3.2-3.1v-9.7l-2.2,0
			c-0.1-0.3-0.1-0.7-0.1-1.1s0-0.8,0.1-1.2l2.2,0.1v-2.7c0-0.7,0.1-1.2,0.4-1.5c0.2-0.3,0.7-0.5,1.3-0.5h1.2l0.2,0.2v4.5
			L173.9,478.5z"/>
		<path class="st0" d="M187.9,487H179c0.1,1.4,0.4,2.5,0.9,3.2c0.5,0.7,1.4,1.1,2.7,1.1c0.6,0,1.3-0.1,2-0.3s1.4-0.5,2.2-0.9
			c0.5,0.5,0.8,1.1,1,2c-1.6,1.1-3.5,1.7-5.7,1.7c-1.1,0-2.1-0.2-2.9-0.6s-1.4-1-1.9-1.7c-0.5-0.7-0.9-1.5-1.1-2.5
			c-0.2-1-0.3-2-0.3-3.2c0-1.1,0.1-2.1,0.4-3.1c0.3-1,0.7-1.8,1.2-2.5c0.5-0.7,1.2-1.2,2-1.6c0.8-0.4,1.6-0.6,2.6-0.6
			c1,0,1.8,0.2,2.6,0.5c0.8,0.3,1.4,0.8,1.9,1.3c0.5,0.6,0.9,1.3,1.2,2.1c0.3,0.8,0.4,1.7,0.4,2.6c0,0.4,0,0.8,0,1.2
			C188.1,486.2,188,486.6,187.9,487z M182.1,480.4c-1.9,0-2.9,1.4-3.1,4.3h6.1v-0.4c0-1.1-0.2-2.1-0.7-2.8S183.2,480.4,182.1,480.4z
			"/>
		<path class="st0" d="M203.9,483.2v7c0,1.2,0.2,2.1,0.5,2.8c-0.5,0.4-1.1,0.7-1.8,0.7c-0.7,0-1.2-0.2-1.4-0.5
			c-0.3-0.3-0.4-0.8-0.4-1.5V484c0-1-0.1-1.8-0.4-2.2c-0.3-0.4-0.7-0.7-1.4-0.7s-1.3,0.2-2,0.5c-0.7,0.3-1.3,0.8-1.8,1.4v10.5
			c-0.3,0.1-0.9,0.1-1.5,0.1c-0.3,0-0.6,0-0.9,0c-0.3,0-0.5-0.1-0.7-0.1v-14.9l0.2-0.2h1.2c1.1,0,1.7,0.6,1.7,1.9
			c1.5-1.4,3.1-2,4.8-2c1.4,0,2.4,0.4,3,1.3S203.9,481.7,203.9,483.2z"/>
	</g>
</g>
</svg>
