<?xml version="1.0" encoding="utf-8"?>
<!-- Generator: Adobe Illustrator 22.0.0, SVG Export Plug-In . SVG Version: 6.00 Build 0)  -->
<svg version="1.1" id="Layer_1" xmlns="http://www.w3.org/2000/svg" xmlns:xlink="http://www.w3.org/1999/xlink" x="0px" y="0px"
	 viewBox="0 0 360 360" style="enable-background:new 0 0 360 360;" xml:space="preserve">
<style type="text/css">
	.st0{opacity:0.1;}
	.st1{fill:#FB3942;}
	.st2{opacity:0.3;}
	.st3{opacity:0.8;}
	.st4{fill:url(#SVGID_1_);}
	.st5{fill:#FFFFFF;}
</style>
<g class="st0">
	<path class="st1" d="M333.7,88.6c0-2.1,5.4-4.3,5.2-6.3c-0.2-2-5.8-3.5-6.1-5.5c-0.3-2,4.7-5,4.2-7s-6.2-2.6-6.8-4.5
		c-0.6-2,3.9-5.7,3.1-7.6c-0.7-1.9-6.5-1.6-7.4-3.4c-0.9-1.8,3-6.2,1.9-7.9c-1-1.8-6.7-0.6-7.9-2.3c-1.1-1.7,2-6.6,0.7-8.1
		c-1.3-1.6-6.7,0.4-8.1-1.1s1-6.8-0.5-8.2c-1.5-1.4-6.6,1.4-8.2,0.1s0-6.9-1.7-8s-6.3,2.4-8.1,1.3c-1.8-1-1-6.8-2.9-7.7
		c-1.8-0.9-5.9,3.3-7.8,2.5c-1.9-0.7-2-6.5-4-7.1c-1.9-0.6-5.3,4.1-7.3,3.7s-3-6.2-5-6.5s-4.6,4.9-6.7,4.7c-2-0.1-3.8-5.7-5.9-5.7
		s-3.9,5.5-5.9,5.7s-4.7-5-6.7-4.7s-3,6-5,6.5s-5.4-4.3-7.3-3.7c-2,0.6-2.1,6.4-4,7.2c-1.9,0.7-5.9-3.4-7.8-2.5
		c-1.8,0.9-1.1,6.6-2.9,7.7c-1.8,1-6.4-2.5-8.1-1.3c-1.7,1.1-0.1,6.7-1.7,8c-1.6,1.3-6.7-1.5-8.2-0.1s0.9,6.7-0.5,8.2
		s-6.8-0.5-8.1,1.1s1.9,6.5,0.7,8.1c-1.1,1.7-6.8,0.5-7.9,2.3c-1,1.8,2.8,6.1,1.9,7.9c-0.9,1.8-6.7,1.5-7.4,3.4s3.7,5.6,3.1,7.6
		c-0.6,1.9-6.4,2.5-6.8,4.5c-0.4,2,4.5,5,4.2,7s-5.9,3.4-6.1,5.5c-0.1,2,5.2,4.3,5.2,6.3s-5.4,4.3-5.2,6.3s5.8,3.5,6.1,5.5
		s-4.7,5-4.2,7s6.2,2.6,6.8,4.5c0.6,2-3.9,5.7-3.1,7.6c0.7,1.9,6.5,1.6,7.4,3.4s-3,6.2-1.9,7.9c1,1.8,6.7,0.6,7.9,2.3
		c1.1,1.7-2,6.6-0.7,8.1c1.3,1.6,6.7-0.4,8.1,1.1c1.4,1.5-1,6.8,0.5,8.2s6.6-1.4,8.2-0.1c1.6,1.3,0,6.9,1.7,8s6.3-2.4,8.1-1.3
		c1.8,1,1,6.8,2.9,7.7c1.8,0.9,5.9-3.3,7.8-2.5c1.9,0.7,2,6.5,4,7.1c1.9,0.6,5.3-4.1,7.3-3.7c2,0.4,3,6.2,5,6.5s4.6-4.9,6.7-4.7
		c2,0.1,3.8,5.7,5.9,5.7c2.1,0,3.9-5.5,5.9-5.7s4.7,5,6.7,4.7s3-6,5-6.5s5.4,4.3,7.3,3.7c2-0.6,2.1-6.4,4-7.2
		c1.9-0.7,5.9,3.4,7.8,2.5c1.8-0.9,1.1-6.6,2.9-7.7c1.8-1,6.4,2.5,8.1,1.3c1.7-1.1,0.1-6.7,1.7-8s6.7,1.5,8.2,0.1s-0.9-6.7,0.5-8.2
		s6.8,0.5,8.1-1.1c1.3-1.6-1.9-6.5-0.7-8.1c1.1-1.7,6.8-0.5,7.9-2.3c1-1.8-2.8-6.1-1.9-7.9s6.7-1.5,7.4-3.4c0.7-1.9-3.7-5.6-3.1-7.6
		c0.6-1.9,6.4-2.5,6.8-4.5s-4.5-5-4.2-7s5.9-3.4,6.1-5.5C339,92.9,333.7,90.6,333.7,88.6z"/>
</g>
<g class="st2">
	<path class="st1" d="M301.2,88.6c0-1.2,5.4-2.7,5.3-3.9c-0.1-1.2-5.6-1.8-5.8-3c-0.2-1.2,4.9-3.4,4.7-4.6c-0.3-1.2-5.8-1-6.2-2.1
		c-0.4-1.2,4.4-4.1,3.9-5.3c-0.4-1.1-5.9-0.1-6.5-1.2c-0.5-1.1,3.7-4.7,3.1-5.8s-5.9,0.8-6.6-0.2s3-5.2,2.2-6.2s-5.7,1.7-6.5,0.8
		s2.1-5.6,1.2-6.4c-0.9-0.8-5.4,2.5-6.3,1.7c-1-0.8,1.3-5.9,0.3-6.6c-1-0.7-4.9,3.3-6,2.6c-1.1-0.6,0.4-6-0.7-6.5s-4.4,4-5.5,3.5
		c-1.1-0.4-0.5-6-1.7-6.3c-1.2-0.4-3.8,4.6-5,4.3s-1.4-5.8-2.6-6s-3,5.1-4.3,5c-1.2-0.1-2.2-5.6-3.5-5.6c-1.2,0-2.3,5.5-3.5,5.6
		s-3.1-5.2-4.3-5s-1.4,5.8-2.6,6c-1.2,0.3-3.8-4.7-5-4.3s-0.5,5.9-1.7,6.3c-1.1,0.4-4.4-4-5.5-3.5s0.4,5.9-0.7,6.5
		c-1.1,0.6-5-3.3-6-2.6s1.2,5.8,0.3,6.6c-1,0.8-5.4-2.6-6.3-1.7c-0.9,0.8,2.1,5.5,1.2,6.4c-0.8,0.9-5.8-1.7-6.5-0.8
		c-0.8,1,2.9,5.2,2.2,6.2s-5.9-0.9-6.6,0.2c-0.6,1.1,3.6,4.7,3.1,5.8s-6,0-6.5,1.2c-0.4,1.1,4.3,4.1,3.9,5.3
		c-0.4,1.2-5.9,0.9-6.2,2.1s4.8,3.4,4.7,4.6c-0.2,1.2-5.7,1.8-5.8,3s5.3,2.6,5.3,3.9c0,1.2-5.4,2.7-5.3,3.9c0.1,1.2,5.6,1.8,5.8,3
		s-4.9,3.4-4.7,4.6c0.3,1.2,5.8,1,6.2,2.1c0.4,1.2-4.4,4.1-3.9,5.3c0.4,1.1,5.9,0.1,6.5,1.2c0.5,1.1-3.7,4.7-3.1,5.8
		c0.6,1.1,5.9-0.8,6.6,0.2c0.7,1-3,5.2-2.2,6.2s5.7-1.7,6.5-0.8c0.8,0.9-2.1,5.6-1.2,6.4c0.9,0.8,5.4-2.5,6.3-1.7
		c1,0.8-1.3,5.9-0.3,6.6s4.9-3.3,6-2.6c1.1,0.6-0.4,6,0.7,6.5c1.1,0.5,4.4-4,5.5-3.5c1.1,0.4,0.5,6,1.7,6.3c1.2,0.4,3.8-4.6,5-4.3
		s1.4,5.8,2.6,6c1.2,0.2,3-5.1,4.3-5c1.2,0.1,2.2,5.6,3.5,5.6c1.2,0,2.3-5.5,3.5-5.6s3.1,5.2,4.3,5c1.2-0.2,1.4-5.8,2.6-6
		c1.2-0.3,3.8,4.7,5,4.3s0.5-5.9,1.7-6.3c1.1-0.4,4.4,4,5.5,3.5s-0.4-5.9,0.7-6.5s5,3.3,6,2.6s-1.2-5.8-0.3-6.6
		c1-0.8,5.4,2.6,6.3,1.7c0.9-0.8-2.1-5.5-1.2-6.4c0.8-0.9,5.8,1.7,6.5,0.8c0.8-1-2.9-5.2-2.2-6.2c0.7-1,5.9,0.9,6.6-0.2
		c0.6-1.1-3.6-4.7-3.1-5.8c0.5-1.1,6,0,6.5-1.2c0.4-1.1-4.3-4.1-3.9-5.3c0.4-1.2,5.9-0.9,6.2-2.1c0.3-1.2-4.8-3.4-4.7-4.6
		c0.2-1.2,5.7-1.8,5.8-3C306.6,91.3,301.2,89.8,301.2,88.6z"/>
</g>
<g class="st3">
	
		<radialGradient id="SVGID_1_" cx="275.3263" cy="260.7698" r="36.2907" gradientTransform="matrix(0.9071 0 0 -0.9071 5.0129 325.1443)" gradientUnits="userSpaceOnUse">
		<stop  offset="0" style="stop-color:#FF2832;stop-opacity:0.2"/>
		<stop  offset="1" style="stop-color:#FF2832"/>
	</radialGradient>
	<path class="st4" d="M282.3,88.6c0-0.8,5.4-1.7,5.4-2.5c-0.1-0.8-5.5-0.9-5.7-1.6c-0.1-0.8,5.1-2.5,4.9-3.2s-5.6-0.1-5.8-0.8
		c-0.2-0.7,4.7-3.2,4.4-3.9c-0.3-0.7-5.6,0.8-5.9,0.1c-0.3-0.7,4.1-3.9,3.7-4.5c-0.4-0.7-5.4,1.6-5.8,1s3.5-4.5,3-5.1
		s-5.1,2.4-5.6,1.8s2.8-4.9,2.2-5.4c-0.6-0.5-4.7,3.1-5.3,2.6c-0.6-0.5,2-5.3,1.4-5.7s-4.2,3.8-4.8,3.4c-0.7-0.4,1.2-5.5,0.5-5.9
		c-0.7-0.3-3.5,4.4-4.2,4.1c-0.7-0.3,0.4-5.7-0.3-5.9c-0.7-0.2-2.9,4.8-3.6,4.7c-0.7-0.2-0.5-5.7-1.2-5.8s-2.1,5.2-2.9,5.2
		c-0.7-0.1-1.3-5.5-2.1-5.5s-1.3,5.5-2.1,5.5c-0.8,0.1-2.1-5.3-2.9-5.2c-0.8,0.1-0.5,5.6-1.2,5.8s-2.9-4.9-3.6-4.7
		c-0.7,0.2,0.4,5.6-0.3,5.9c-0.7,0.3-3.6-4.4-4.2-4.1c-0.7,0.3,1.2,5.5,0.5,5.9s-4.2-3.8-4.8-3.4c-0.6,0.4,2,5.2,1.4,5.7
		s-4.7-3.2-5.3-2.6c-0.6,0.5,2.8,4.9,2.2,5.4c-0.5,0.6-5.1-2.4-5.6-1.8s3.5,4.4,3,5.1c-0.4,0.6-5.4-1.6-5.8-1
		c-0.4,0.7,4.1,3.9,3.7,4.5c-0.3,0.7-5.6-0.8-5.9-0.1c-0.3,0.7,4.6,3.2,4.4,3.9c-0.2,0.7-5.7,0-5.8,0.8c-0.2,0.7,5,2.5,4.9,3.2
		s-5.6,0.9-5.7,1.6c-0.1,0.7,5.4,1.7,5.4,2.5s-5.4,1.7-5.4,2.5c0.1,0.8,5.5,0.9,5.7,1.6c0.1,0.8-5.1,2.5-4.9,3.2
		c0.2,0.7,5.6,0.1,5.8,0.8c0.2,0.7-4.7,3.2-4.4,3.9c0.3,0.7,5.6-0.8,5.9-0.1c0.3,0.7-4.1,3.9-3.7,4.5c0.4,0.7,5.4-1.6,5.8-1
		c0.4,0.6-3.5,4.5-3,5.1s5.1-2.4,5.6-1.8s-2.8,4.9-2.2,5.4s4.7-3.1,5.3-2.6s-2,5.3-1.4,5.7c0.6,0.4,4.2-3.8,4.8-3.4
		c0.7,0.4-1.2,5.5-0.5,5.9c0.7,0.3,3.5-4.4,4.2-4.1s-0.4,5.7,0.3,5.9c0.7,0.2,2.9-4.8,3.6-4.7c0.7,0.2,0.5,5.7,1.2,5.8
		c0.7,0.1,2.1-5.2,2.9-5.2c0.7,0.1,1.3,5.5,2.1,5.5s1.3-5.5,2.1-5.5c0.8-0.1,2.1,5.3,2.9,5.2c0.8-0.1,0.5-5.6,1.2-5.8
		c0.7-0.2,2.9,4.9,3.6,4.7c0.7-0.2-0.4-5.6,0.3-5.9c0.7-0.3,3.6,4.4,4.2,4.1c0.7-0.3-1.2-5.5-0.5-5.9s4.2,3.8,4.8,3.4
		c0.6-0.4-2-5.2-1.4-5.7s4.7,3.2,5.3,2.6c0.6-0.5-2.8-4.9-2.2-5.4c0.5-0.6,5.1,2.4,5.6,1.8s-3.5-4.4-3-5.1c0.4-0.6,5.4,1.6,5.8,1
		c0.4-0.7-4.1-3.9-3.7-4.5c0.3-0.7,5.6,0.8,5.9,0.1c0.3-0.7-4.6-3.2-4.4-3.9c0.2-0.7,5.7,0,5.8-0.8c0.2-0.7-5-2.5-4.9-3.2
		s5.6-0.9,5.7-1.6C287.7,90.3,282.3,89.4,282.3,88.6z"/>
</g>
<g>
	<path class="st5" d="M264.2,88.6c0-0.6,4.8-1.5,4.7-2.1c-0.1-0.6-5-0.1-5.1-0.7c-0.2-0.6,4.2-2.8,4-3.3s-4.8,1.3-5.1,0.8
		c-0.3-0.5,3.2-3.9,2.9-4.3c-0.4-0.4-4.2,2.6-4.7,2.2c-0.4-0.4,2-4.6,1.5-4.9s-3.3,3.7-3.9,3.4c-0.5-0.2,0.6-5,0.1-5.2
		c-0.6-0.2-2.2,4.5-2.7,4.4c-0.6-0.1-0.8-5-1.4-5c-0.6,0-0.8,4.9-1.4,5c-0.6,0.1-2.2-4.6-2.7-4.4c-0.6,0.2,0.6,4.9,0.1,5.2
		c-0.5,0.2-3.4-3.8-3.9-3.4c-0.5,0.3,2,4.6,1.5,4.9c-0.4,0.4-4.3-2.7-4.7-2.2c-0.4,0.4,3.2,3.8,2.9,4.3s-4.9-1.3-5.1-0.8
		c-0.2,0.5,4.1,2.8,4,3.3c-0.2,0.6-5.1,0.1-5.1,0.7c-0.1,0.6,4.7,1.5,4.7,2.1s-4.8,1.5-4.7,2.1s5,0.1,5.1,0.7c0.2,0.6-4.2,2.8-4,3.3
		s4.8-1.3,5.1-0.8s-3.2,3.9-2.9,4.3c0.4,0.4,4.2-2.6,4.7-2.2c0.4,0.4-2,4.6-1.5,4.9s3.3-3.7,3.9-3.4c0.5,0.2-0.6,5-0.1,5.2
		c0.6,0.2,2.2-4.5,2.7-4.4c0.6,0.1,0.8,5,1.4,5c0.6,0,0.8-4.9,1.4-5s2.2,4.6,2.7,4.4c0.6-0.2-0.6-4.9-0.1-5.2
		c0.5-0.2,3.4,3.8,3.9,3.4c0.5-0.3-2-4.6-1.5-4.9c0.4-0.4,4.3,2.7,4.7,2.2c0.4-0.4-3.2-3.8-2.9-4.3c0.3-0.5,4.9,1.3,5.1,0.8
		s-4.1-2.8-4-3.3c0.2-0.6,5.1-0.1,5.1-0.7C269.1,90.1,264.2,89.2,264.2,88.6z"/>
</g>
</svg>
