<?xml version="1.0" encoding="utf-8"?>
<!-- Generator: Adobe Illustrator 22.0.0, SVG Export Plug-In . SVG Version: 6.00 Build 0)  -->
<svg version="1.1" id="Layer_1" xmlns="http://www.w3.org/2000/svg" xmlns:xlink="http://www.w3.org/1999/xlink" x="0px" y="0px"
	 viewBox="0 0 300 304.7" style="enable-background:new 0 0 300 304.7;" xml:space="preserve">
<style type="text/css">
	.st0{fill-rule:evenodd;clip-rule:evenodd;fill:#EFEBEA;}
	.st1{opacity:0.1;fill:#009632;}
	.st2{fill:url(#SVGID_1_);}
	.st3{fill:url(#SVGID_2_);}
	.st4{fill:none;stroke:#009632;stroke-width:0.7;stroke-miterlimit:10;}
</style>
<path class="st0" d="M171.5,216.9c0,1.4,0.7,2.7-5.4,6.8c-5.6,3.8-10.7,24.5-16.9,26.4c-3.5,1.1-2,8.1-2,13.5s-2.1,5.3,0.7,8.1
	c2,2,2.7,1.4,2.7-0.7c0-2,3-8,4.1-12.2c2.7-10.8,30.3-31.3,33.2-35.2c2-2.7,3.4-5.4,2-8.8c-1.4-3.4-15.9-42.1-15.9-42.1
	c-0.1-0.3-0.1-0.5-0.3-0.8c-0.3-0.8-0.5-1.6-0.8-2.3c-0.1-0.3-0.2-0.5-0.3-0.7c-0.2-0.5-0.4-0.9-0.7-1.4c-0.1-0.2-0.2-0.5-0.3-0.7
	v-0.1c-0.1-0.2-0.2-0.5-0.3-0.7V166c-0.3-0.5-0.5-0.9-0.7-1.4v-0.1c-0.1-0.2-0.3-0.5-0.4-0.7v-0.1c-0.1-0.2-0.3-0.5-0.4-0.7V163
	c-0.1-0.3-0.3-0.5-0.4-0.7c-1.9-3.3-1.8-9.5-1.2-13.3c0-0.1,0.1-0.2,0.1-0.3v-0.1c0-0.1,0.1-0.2,0.1-0.3v-0.1c0-0.1,0.1-0.2,0.1-0.3
	v-0.1c0-0.1,0.1-0.3,0.1-0.4v-0.1c0-0.1,0.1-0.3,0.1-0.4v-0.1c0-0.1,0.1-0.3,0.1-0.5v-0.1c0-0.1,0.1-0.3,0.1-0.5
	c0.1-0.1,0.1-0.3,0.1-0.5v-0.1c0.1-0.1,0.1-0.3,0.1-0.5v-0.1c0.1-0.1,0.1-0.3,0.1-0.5v-0.1c0.1-0.2,0.1-0.3,0.1-0.5v-0.1
	c0.1-0.2,0.1-0.3,0.1-0.5c0.1-0.2,0.1-0.4,0.1-0.5v-0.1c0.1-0.2,0.1-0.4,0.1-0.5v-0.1c0.1-0.2,0.1-0.3,0.1-0.5V141
	c0,0,8.3-30,9.4-29.7c-4.9-1.1-7.5-1.6-9-1.9c-1.2-0.3-2.4-0.7-3.8-1.1v-0.1c1.7-4.4,1.7-9.3,0.1-13.8c-0.5-1.3-1-2.5-1.4-3.9
	c-0.5-2-0.3-4.1-0.3-6.2c-0.1-3.7-0.4-8.3-2.2-11.6c-1.4-2.7-3.5-5.4-6.8-5.7c-0.7-0.1-1.1,0.1-1.7-0.3c-0.7-0.4-2.1-1.6-4.3-2
	c-6.4-1-12,2.8-14.6,8.6c-2,4.3-2.1,9.1-2,13.7c0.1,2,0.1,3.9-0.7,5.7c-1.2,2.6-4,4-5.6,6.3c-1.3,1.8-1.7,4.2-1.8,6.4
	c-0.1,1.5,0,3,0.3,4.4c-0.7,0.3-1.6,0.8-2.2,1.4c-0.1,0.1-0.2,0.2-0.3,0.3c-0.1,0.1-0.2,0.2-0.3,0.3l-0.1,0.1
	c-0.1,0.1-0.1,0.1-0.2,0.3c0,0.1-0.1,0.1-0.1,0.1c-0.1,0.1-0.2,0.3-0.3,0.3c-1.6,2.3,3.4-2,3.5,7.4c0,0,3.1,12.3,4.6,19.3
	c0.7,3.6,1.5,7.7,2,9.5c0.7,2.5,1,8.3-1,12.5c-0.1,0.3-0.3,0.5-0.4,0.7c-0.6,1.1-1.2,2.1-1.7,3.2c-5,9.9-5.5,18.4-5.5,24.6
	c0,1,0.1,2,0.1,3.2V193c0.3,3.7,1,8.8,2.5,17.5c-0.1-0.5-0.2-0.8-0.2-0.8c1.2,6.9,2.8,16.1,5.2,28.8c0.6,3.2,0.7,6.6,0.5,9.9
	c-0.5,6.1,0.1,14.8,3.9,33.8c1.6,7.7,0.8,12-0.5,14.6c-1.8,3.7-4.7,4.2-3.7,6.7c1.5,1.8,8.8,1.1,12,1c0.9-0.1,1.6-0.1,2.1-1.4
	c0.3-0.9,0.4-1.4-1.2-5.1c-0.9-2.2-0.9-5.8-0.9-5.8s2.3-31.7,2.3-36.2c0-4.4-0.3-7.5-0.6-9.5c-0.3-2-0.3-3.9-0.1-5.9
	c0.3-2.9,0.7-6.9,1-11.4v0.4c1.8-22.7,2.2-37.4,2.2-37.4h2.7l-0.1,0.1C159.1,197.6,171.5,215.6,171.5,216.9"/>
<path class="st0" d="M131.8,113.6c-0.5-0.7-1.1-1.4-1.8-1.9c-0.1-0.1-0.2-0.2-0.4-0.3c-0.1-0.1-0.2-0.2-0.3-0.2l-0.1-0.1
	c-0.1-0.1-0.2-0.1-0.3-0.1c-0.1,0-0.1-0.1-0.1,0c-0.1,0-0.3-0.1-0.4-0.2c-2.6-1.2-10.1-0.5-19.3,1.3c-9,1.8-16.4,2.8-20.3,2.7
	c-4-0.2-11.3-1.1-16.5-0.3c-0.1,0-0.2,0-0.3,0.1l-0.1,0c-0.1,0-0.3,0-0.3,0.1l-0.1,0c-0.1,0-0.2,0-0.3,0.1l-0.1,0
	c-0.1,0-0.3,0-0.4,0.1l-0.1,0c-0.1,0-0.3,0-0.3,0.1l-0.1,0c-0.1,0-0.3,0-0.4,0.1c-0.1,0-0.1,0-0.1,0c-0.1,0-0.3,0-0.4,0.1
	c-0.1,0-0.3,0.1-0.5,0.1l-0.1,0c-0.1,0-0.3,0.1-0.5,0.1c-0.2,0-0.3,0.1-0.5,0.1c-0.3,0.1-0.7,0.1-1.1,0.1l-0.1,0
	c-0.5,0.1-1.1,0.1-1.7,0.2c-0.2,0-0.3,0.1-0.5,0.1c-4.8,0.7-9.3,1.2-9.3,1.2l-2,0.2c0,0-5.1,0.1-7.5,0.4c-1.5,0.2-3.8,1-5.6,2.4
	c-3.1,2.5-4.3,5.7-4.3,5.7c-0.4,0.5-0.1,3.3,1.6,1.5c3.3-3.8,5.2-3.7,5.2-3.7s3.1-1,3.3-0.2c0.2,0.7-1.2,1.9-2.1,2.3
	c-1.4,0.9-3.7,1.6-3,2.5c0.3,0.4,0.7,0.1,1.6-0.2c0.5-0.2,1.3-0.2,1.7-0.3c0.4-0.1,2.4-1.1,3-1.4c0.6-0.3,2.9-1.8,3.5-2.1
	c0.7-0.5,2-1,3-1.1c1-0.2,7.6,0.3,8.8,0.4c1.2,0,19.8,3.5,27,2.3c3.5-0.6,9-1.4,14.2-2.1c8.3-1.3,21.2-2.6,23.2,2.7"/>
<path class="st0" d="M173.2,127c2-5.4,14.9-4,23.2-2.7c5.2,0.7,10.7,1.5,14.2,2.1c7.1,1.3,25.7-2.2,27-2.3c1.3-0.1,7.8-0.6,8.8-0.4
	c1,0.2,2.3,0.7,3,1.1c0.6,0.4,2.9,1.8,3.5,2.1c0.6,0.3,2.6,1.3,3,1.4c0.5,0.1,1.3,0.2,1.7,0.3c0.9,0.2,1.3,0.5,1.6,0.2
	c0.7-0.9-1.6-1.6-3-2.5c-0.8-0.4-2.3-1.6-2.1-2.3c0.2-0.8,3.3,0.2,3.3,0.2s1.9-0.1,5.2,3.7c1.7,1.9,2-0.9,1.6-1.5
	c0,0-1.2-3.1-4.3-5.7c-1.8-1.4-4.1-2.2-5.6-2.4c-2.4-0.3-7.5-0.4-7.5-0.4l-2-0.2c0,0-4.6-0.6-9.3-1.2c-0.2,0-0.3-0.1-0.5-0.1
	c-0.6-0.1-1.1-0.1-1.7-0.2l-0.1,0c-0.4,0-0.7-0.1-1.1-0.1c-0.2,0-0.3-0.1-0.5-0.1c-0.1,0-0.3-0.1-0.5-0.1l-0.1,0
	c-0.1,0-0.3-0.1-0.5-0.1c-0.1,0-0.3,0-0.4-0.1c-0.1,0-0.1,0-0.1,0c-0.1,0-0.3,0-0.4-0.1l-0.1,0c-0.1,0-0.2,0-0.3-0.1l-0.1,0
	c-0.1,0-0.3,0-0.4-0.1l-0.1,0c-0.1,0-0.2,0-0.3-0.1l-0.1,0c-0.1,0-0.2,0-0.3-0.1l-0.1,0c-0.1,0-0.2,0-0.3-0.1
	c-5.1-0.8-12.5,0.1-16.5,0.3c-3.9,0.2-11.3-0.9-20.3-2.7c-9.2-1.8-16.7-2.5-19.3-1.3c-0.1,0.1-0.2,0.2-0.4,0.2c-0.1,0-0.1,0.1-0.1,0
	c-0.1,0-0.2,0.1-0.3,0.1l-0.1,0.1c-0.1,0.1-0.2,0.2-0.3,0.2c-0.2,0.1-0.3,0.1-0.4,0.3c-0.7,0.6-1.3,1.3-1.8,1.9"/>
<g>
	<g>
		<circle class="st1" cx="149" cy="82.6" r="10.7"/>
		<g>
			<linearGradient id="SVGID_1_" gradientUnits="userSpaceOnUse" x1="149.0182" y1="74.1154" x2="149.0182" y2="91.1073">
				<stop  offset="0" style="stop-color:#009632;stop-opacity:0.2"/>
				<stop  offset="1" style="stop-color:#009632"/>
			</linearGradient>
			<path class="st2" d="M157.1,82.6c0-0.8,0.6-1.6,0.4-2.3c-0.2-0.7-1.1-1.1-1.5-1.8c-0.4-0.6-0.3-1.6-0.8-2.1
				c-0.5-0.5-1.5-0.4-2.1-0.8c-0.6-0.4-1.1-1.3-1.8-1.5c-0.7-0.2-1.5,0.4-2.3,0.4c-0.8,0-1.6-0.6-2.3-0.4c-0.7,0.2-1.1,1.1-1.8,1.5
				c-0.6,0.4-1.6,0.3-2.1,0.8c-0.5,0.5-0.4,1.5-0.8,2.1c-0.4,0.6-1.3,1.1-1.5,1.8c-0.2,0.7,0.4,1.5,0.4,2.3c0,0.8-0.6,1.6-0.4,2.3
				c0.2,0.7,1.1,1.1,1.5,1.8c0.4,0.6,0.3,1.6,0.8,2.1c0.5,0.5,1.5,0.4,2.1,0.8c0.6,0.4,1.1,1.3,1.8,1.5c0.7,0.2,1.5-0.4,2.3-0.4
				c0.8,0,1.6,0.6,2.3,0.4c0.7-0.2,1.1-1.1,1.8-1.5c0.6-0.4,1.6-0.3,2.1-0.8c0.5-0.5,0.4-1.5,0.8-2.1c0.4-0.6,1.3-1.1,1.5-1.8
				C157.7,84.2,157.1,83.4,157.1,82.6z"/>
		</g>
	</g>
	<circle class="st1" cx="149" cy="169.7" r="10.7"/>
	<linearGradient id="SVGID_2_" gradientUnits="userSpaceOnUse" x1="149.0182" y1="178.0769" x2="149.0182" y2="161.2412">
		<stop  offset="0" style="stop-color:#009632;stop-opacity:0.2"/>
		<stop  offset="1" style="stop-color:#009632"/>
	</linearGradient>
	<circle class="st3" cx="149" cy="169.7" r="8.4"/>
	<path class="st4" d="M150.7,90.7c0,5.1-3.3,5.1-3.3,10c0,5.1,3.3,5.1,3.3,10c0,5.1-3.3,5.1-3.3,10c0,5.1,3.3,5.1,3.3,10
		c0,5.1-3.3,5.1-3.3,10.1c0,5.1,3.3,5.1,3.3,10c0,5.1-3.3,5.8-3.3,10.8"/>
	<path class="st4" d="M147.4,90.7c0,5.1,3.3,5.1,3.3,10c0,5.1-3.3,5.1-3.3,10c0,5.1,3.3,5.1,3.3,10c0,5.1-3.3,5.1-3.3,10
		c0,5.1,3.3,5.1,3.3,10.1c0,5.1-3.3,5.1-3.3,10c0,5.1,3.3,5.8,3.3,10.8"/>
</g>
</svg>
