<?xml version="1.0" encoding="utf-8"?>
<!-- Generator: Adobe Illustrator 22.0.0, SVG Export Plug-In . SVG Version: 6.00 Build 0)  -->
<svg version="1.1" id="Layer_1" xmlns="http://www.w3.org/2000/svg" xmlns:xlink="http://www.w3.org/1999/xlink" x="0px" y="0px"
	 viewBox="0 0 382 267" style="enable-background:new 0 0 382 267;" xml:space="preserve">
<style type="text/css">
	.st0{opacity:5.000000e-02;fill:#FFC000;}
	.st1{opacity:0.1;fill:#FFC000;}
	.st2{opacity:5.000000e-02;fill:#009632;}
	.st3{opacity:0.1;fill:#009632;}
</style>
<circle class="st0" cx="44" cy="44.8" r="43.8"/>
<circle class="st1" cx="44" cy="44.8" r="37.6"/>
<circle class="st1" cx="44" cy="44.7" r="31.1"/>
<circle class="st0" cx="44" cy="137.5" r="43.8"/>
<circle class="st1" cx="44" cy="137.5" r="37.6"/>
<circle class="st1" cx="44" cy="137.4" r="31.1"/>
<circle class="st0" cx="142" cy="44.8" r="43.8"/>
<circle class="st1" cx="142" cy="44.8" r="37.6"/>
<circle class="st1" cx="142" cy="44.7" r="31.1"/>
<circle class="st2" cx="142" cy="137.5" r="43.8"/>
<circle class="st3" cx="142" cy="137.5" r="37.6"/>
<circle class="st3" cx="142" cy="137.4" r="31.1"/>
<circle class="st2" cx="338" cy="44.8" r="43.8"/>
<circle class="st3" cx="338" cy="44.8" r="37.6"/>
<circle class="st3" cx="338" cy="44.7" r="31.1"/>
<circle class="st2" cx="338" cy="137.5" r="43.8"/>
<circle class="st3" cx="338" cy="137.5" r="37.6"/>
<circle class="st3" cx="338" cy="137.4" r="31.1"/>
<circle class="st2" cx="240" cy="44.8" r="43.8"/>
<circle class="st3" cx="240" cy="44.8" r="37.6"/>
<circle class="st3" cx="240" cy="44.7" r="31.1"/>
<circle class="st2" cx="240" cy="137.5" r="43.8"/>
<circle class="st3" cx="240" cy="137.5" r="37.6"/>
<circle class="st3" cx="240" cy="137.4" r="31.1"/>
</svg>
