<?xml version="1.0" encoding="utf-8"?>
<!-- Generator: Adobe Illustrator 22.0.0, SVG Export Plug-In . SVG Version: 6.00 Build 0)  -->
<svg version="1.1" id="Layer_1" xmlns="http://www.w3.org/2000/svg" xmlns:xlink="http://www.w3.org/1999/xlink" x="0px" y="0px"
	 viewBox="0 0 154.2 165.6" style="enable-background:new 0 0 154.2 165.6;" xml:space="preserve">
<style type="text/css">
	.st0{fill:#EFEBEA;}
	.st1{opacity:0.2;fill:#BEBEBE;}
	.st2{fill:#BEBEBE;}
	.st3{fill:none;stroke:#BEBEBE;stroke-width:0.6777;stroke-miterlimit:10;}
	.st4{enable-background:new    ;}
	.st5{fill:#009632;}
	.st6{fill:#FF2832;}
	.st7{fill:#FFC800;}
</style>
<path class="st0" d="M107.8,155.5c-4.8-2.4-8.4-4.7-11.7-6.2c-3.3-1.5-3.7-11.2-3.5-17c2.8-1.7,4.7-3.6,5.8-5.2
	c1.6-2.5,2.8-9.6,3.5-16.1c0.6,0.1,1.4,0,2.6-0.6c3-1.5,4-10.2,2-14c-0.2-0.3-0.4-0.7-0.6-0.9c1.2-8.7,2.2-23.2-2.2-29.8
	C97.4,56,83.2,55.6,78.4,55.2c-6.4-0.5-17.8-0.5-20.6,6.7c-13.4,1.3-11.7,22.2-9.9,33.5c-0.2,0.2-0.3,0.5-0.5,0.8
	c-2,3.9-1.1,12.5,2,14c1.4,0.7,2.3,0.7,2.9,0.6c0.6,6.5,1.8,13.6,3.5,16.1c1.1,1.6,3,3.5,5.7,5.2c0.2,5.8-0.1,15.6-3.5,17.1
	c-3.4,1.5-7,3.7-11.9,6.2c8.7,6.2,19.3,10,30.8,10S99.2,161.7,107.8,155.5z"/>
<circle class="st1" cx="77" cy="89.3" r="26.2"/>
<g>
	<g>
		<path class="st2" d="M76.3,109.8c-0.9,0-1.9-0.5-2.8-0.7s-2,0.1-2.9-0.1c-0.9-0.3-1.7-1.1-2.5-1.5c-0.9-0.4-2-0.4-2.8-0.9
			c-0.8-0.5-1.3-1.5-2-2.2c-0.7-0.6-1.8-0.9-2.4-1.7c-0.6-0.7-0.8-1.8-1.4-2.6c-0.5-0.8-1.4-1.4-1.8-2.3c-0.4-0.9-0.3-2-0.5-2.9
			S56.1,93,56,92.1c-0.1-0.9,0.3-2,0.3-2.9c0-0.9-0.4-2-0.3-2.9c0.1-0.9,0.8-1.8,1.1-2.7c0.3-0.9,0.1-2,0.5-2.9
			c0.4-0.9,1.3-1.5,1.8-2.3c0.5-0.8,0.7-1.9,1.4-2.6c0.6-0.7,1.7-1.1,2.4-1.7c0.7-0.6,1.2-1.6,2-2.2c0.8-0.5,1.9-0.5,2.8-0.9
			s1.6-1.2,2.5-1.5c0.9-0.3,2,0,2.9-0.1s1.9-0.7,2.8-0.7"/>
	</g>
	<g>
		<path class="st2" d="M77.7,68.6c0.9,0,1.9,0.5,2.8,0.7c0.9,0.1,2-0.1,2.9,0.1c0.9,0.3,1.7,1.1,2.5,1.5c0.9,0.4,2,0.4,2.8,0.9
			s1.3,1.5,2,2.2c0.7,0.6,1.8,0.9,2.4,1.7c0.6,0.7,0.8,1.8,1.4,2.6c0.5,0.8,1.4,1.4,1.8,2.3s0.3,2,0.5,2.9c0.3,0.9,0.9,1.8,1.1,2.7
			c0.1,0.9-0.3,2-0.3,2.9s0.4,2,0.3,2.9c-0.1,0.9-0.8,1.8-1.1,2.7c-0.3,0.9-0.1,2-0.5,2.9c-0.4,0.9-1.3,1.5-1.8,2.3
			c-0.5,0.8-0.7,1.9-1.4,2.6c-0.6,0.7-1.7,1.1-2.4,1.7c-0.7,0.6-1.2,1.6-2,2.2s-1.9,0.5-2.8,0.9s-1.6,1.2-2.5,1.5
			c-0.9,0.3-2,0-2.9,0.1c-0.9,0.1-1.9,0.7-2.8,0.7"/>
	</g>
</g>
<path class="st3" d="M78.3,108.1c0,4.1-2.7,4.1-2.7,8.2c0,4.1,2.7,4.1,2.7,8.2c0,4.1-2.7,4.1-2.7,8.2c0,4.1,2.7,4.1,2.7,8.2
	c0,4.1-2.7,4.1-2.7,8.3c0,4.1,2.7,4.1,2.7,8.2c0,4.1-2.7,4.1-2.7,8.3"/>
<path class="st3" d="M75.6,108.1c0,4.1,2.7,4.1,2.7,8.2c0,4.1-2.7,4.1-2.7,8.2c0,4.1,2.7,4.1,2.7,8.2c0,4.1-2.7,4.1-2.7,8.2
	c0,4.1,2.7,4.1,2.7,8.3c0,4.1-2.7,4.1-2.7,8.2c0,4.1,2.7,4.1,2.7,8.3"/>
<g class="st4">
	<path class="st5" d="M114.6,74.1c2.1-0.8,4.2,0,5,2.1c0.8,2-0.2,4-2.3,4.8c-2,0.8-4.1,0.1-4.9-2.1
		C111.6,76.8,112.6,74.8,114.6,74.1z M123.2,72.2l1.5-0.7c3-1.6,6.8-1.8,11.4-0.3c4.1,1.4,6.9,2,9.5,1c3-1.1,4.2-3.8,2.9-7.5
		c-0.8-2.1-2.4-4.1-4.1-5.2l3.1-2.8c2.1,1.4,4.3,4.3,5.5,7.4c2.6,6.7-0.4,11.3-4.8,13c-3.9,1.5-7.6,0.4-12-1.1c-4-1.4-6.9-1.3-9.8,0
		l-1.5,0.6L123.2,72.2z"/>
</g>
<g class="st4">
	<path class="st6" d="M81.7,39.5c1-2.3,3.3-3.3,5.5-2.3c2.2,1,3,3.3,2,5.6c-1,2.2-3.2,3.3-5.5,2.2C81.5,44.1,80.8,41.7,81.7,39.5z
		 M87,31.3l0.6-1.7c1.1-3.6,3.9-6.8,8.7-9.2c4.3-2.1,7-3.9,8.2-6.7c1.4-3.2,0.3-6.2-3.6-8c-2.3-1-5.1-1.3-7.2-0.8l0.2-4.6
		c2.7-0.6,6.8,0,10.1,1.4c7.2,3.2,8.5,9.1,6.4,13.9c-1.9,4.3-5.6,6.3-10.2,8.6c-4.2,2.1-6.4,4.4-7.7,7.7l-0.7,1.7L87,31.3z"/>
</g>
<g class="st4">
	<path class="st7" d="M26.3,61.9l-1.4-0.5c-3-1-5.7-3.3-7.7-7.4c-1.8-3.6-3.2-5.9-5.6-6.9c-2.7-1.2-5.3-0.3-6.8,3
		c-0.8,1.9-1.2,4.3-0.7,6.1L0,56c-0.5-2.3,0-5.7,1.2-8.5C4,41.4,9,40.3,13,42.1c3.6,1.6,5.3,4.8,7.2,8.7c1.7,3.6,3.7,5.4,6.5,6.5
		l1.4,0.6L26.3,61.9z M33.2,66.4c-2-0.9-2.8-2.8-1.9-4.7c0.8-1.9,2.8-2.5,4.7-1.7c1.9,0.8,2.8,2.7,1.9,4.6
		C37,66.6,35,67.2,33.2,66.4z"/>
</g>
<g class="st4">
	<path class="st7" d="M114.3,48.6c0.5-0.6,1.3-0.7,1.9-0.2c0.6,0.5,0.6,1.3,0.1,1.9c-0.5,0.6-1.2,0.7-1.9,0.2
		C113.8,49.9,113.8,49.1,114.3,48.6z M116.6,46.5l0.3-0.5c0.6-1,1.8-1.7,3.4-2c1.5-0.3,2.5-0.6,3.1-1.3c0.7-0.9,0.6-1.9-0.4-2.8
		c-0.6-0.5-1.4-0.9-2.1-0.9l0.5-1.4c0.9,0.1,2.1,0.6,3,1.3c1.9,1.6,1.8,3.5,0.8,4.8c-0.9,1.1-2.3,1.4-3.9,1.7
		c-1.5,0.3-2.3,0.8-3,1.7l-0.3,0.4L116.6,46.5z"/>
</g>
<g>
	<path class="st5" d="M51.2,36.9l-0.4-1c-1-2-1.2-4.5-0.1-7.5c0.9-2.7,1.3-4.5,0.7-6.2c-0.7-1.9-2.4-2.8-4.8-1.9
		c-1.4,0.5-2.7,1.5-3.4,2.6l-1.8-2c0.9-1.4,2.8-2.8,4.9-3.6c4.4-1.6,7.4,0.3,8.4,3.2c1,2.6,0.2,5-0.8,7.8c-0.9,2.6-0.9,4.5-0.1,6.4
		l0.4,1L51.2,36.9z M52.3,42.5c-0.5-1.4,0-2.8,1.4-3.3c1.3-0.5,2.6,0.1,3.1,1.5c0.5,1.3,0,2.7-1.4,3.2
		C54.1,44.5,52.8,43.9,52.3,42.5z"/>
</g>
<g class="st4">
	<path class="st6" d="M34.3,88l-0.5,0.2c-1.1,0.4-2.5,0.3-4-0.5c-1.3-0.7-2.3-1.1-3.2-0.8c-1.1,0.2-1.7,1.1-1.4,2.4
		c0.2,0.8,0.6,1.6,1.1,2l-1.2,0.8c-0.7-0.6-1.3-1.7-1.5-2.8c-0.5-2.4,0.7-3.9,2.3-4.2c1.4-0.3,2.7,0.3,4.1,1
		c1.3,0.7,2.3,0.8,3.4,0.5l0.5-0.1L34.3,88z M37.4,87.8c-0.8,0.2-1.5-0.2-1.6-1c-0.2-0.7,0.3-1.4,1.1-1.6c0.7-0.2,1.4,0.2,1.6,1
		C38.6,87,38.1,87.6,37.4,87.8z"/>
</g>
</svg>
