<?xml version="1.0" encoding="utf-8"?>
<!-- Generator: Adobe Illustrator 22.0.0, SVG Export Plug-In . SVG Version: 6.00 Build 0)  -->
<svg version="1.1" id="Layer_1" xmlns="http://www.w3.org/2000/svg" xmlns:xlink="http://www.w3.org/1999/xlink" x="0px" y="0px"
	 viewBox="0 0 360 360" style="enable-background:new 0 0 360 360;" xml:space="preserve">
<style type="text/css">
	.st0{opacity:0.1;}
	.st1{fill:#FB3942;}
	.st2{opacity:0.3;}
	.st3{opacity:0.8;}
	.st4{fill:url(#SVGID_1_);}
	.st5{fill:#FFFFFF;}
</style>
<g class="st0">
	<path class="st1" d="M137.2,170.2c0-1.7,5.4-3.6,5.2-5.3c-0.1-1.7-5.7-2.8-6-4.5s4.8-4.4,4.4-6c-0.4-1.7-6.1-1.9-6.6-3.5
		s4.1-5,3.5-6.6s-6.3-1-7-2.5s3.3-5.6,2.4-7c-0.9-1.5-6.4,0-7.3-1.4c-1-1.4,2.4-6,1.3-7.3c-1.1-1.3-6.3,0.9-7.4-0.3
		c-1.2-1.2,1.5-6.3,0.2-7.4c-1.2-1.2-6.1,1.9-7.4,0.8s0.5-6.4-0.9-7.4s-5.7,2.7-7.2,1.9c-1.5-0.8-0.4-6.4-2-7.2
		c-1.5-0.7-5.3,3.6-6.8,2.9c-1.6-0.6-1.4-6.3-3-6.8s-4.7,4.3-6.3,3.9c-1.6-0.4-2.3-6-4-6.3c-1.7-0.2-4,5-5.7,4.8
		c-1.7-0.1-3.2-5.6-4.9-5.6c-1.7,0-3.2,5.5-4.9,5.6c-1.7,0.1-4-5.1-5.7-4.8c-1.7,0.3-2.4,5.9-4,6.3c-1.7,0.4-4.7-4.4-6.3-3.9
		s-1.4,6.2-3,6.8c-1.6,0.6-5.3-3.7-6.8-2.9c-1.5,0.7-0.5,6.3-2,7.2c-1.5,0.9-5.8-2.8-7.2-1.9c-1.4,1,0.5,6.3-0.9,7.4
		c-1.3,1.1-6.2-2-7.4-0.8s1.4,6.2,0.2,7.4c-1.2,1.2-6.4-1-7.4,0.3c-1.1,1.3,2.3,5.9,1.3,7.3c-1,1.4-6.5-0.1-7.3,1.4s3.2,5.5,2.4,7
		c-0.7,1.5-6.4,0.9-7,2.5s4,5,3.5,6.6s-6.2,1.8-6.6,3.5c-0.4,1.6,4.7,4.3,4.4,6c-0.2,1.7-5.8,2.8-6,4.5c-0.1,1.7,5.2,3.6,5.2,5.3
		s-5.4,3.6-5.2,5.3c0.1,1.7,5.7,2.8,6,4.5s-4.8,4.4-4.4,6c0.4,1.7,6.1,1.9,6.6,3.5s-4.1,5-3.5,6.6s6.3,1,7,2.5s-3.3,5.6-2.4,7
		c0.9,1.5,6.4,0,7.3,1.4c1,1.4-2.4,6-1.3,7.3s6.3-0.9,7.4,0.3c1.2,1.2-1.5,6.3-0.2,7.4c1.2,1.2,6.1-1.9,7.4-0.8
		c1.3,1.1-0.5,6.4,0.9,7.4s5.7-2.7,7.2-1.9s0.4,6.4,2,7.2c1.5,0.7,5.3-3.6,6.8-2.9c1.6,0.6,1.4,6.3,3,6.8s4.7-4.3,6.3-3.9
		c1.6,0.4,2.3,6,4,6.3c1.7,0.2,4-5,5.7-4.8c1.7,0.1,3.2,5.6,4.9,5.6c1.7,0,3.2-5.5,4.9-5.6c1.7-0.1,4,5.1,5.7,4.8s2.4-5.9,4-6.3
		c1.7-0.4,4.7,4.4,6.3,3.9c1.6-0.5,1.4-6.2,3-6.8s5.3,3.7,6.8,2.9c1.5-0.7,0.5-6.3,2-7.2s5.8,2.8,7.2,1.9c1.4-1-0.5-6.3,0.9-7.4
		c1.3-1.1,6.2,2,7.4,0.8c1.2-1.2-1.4-6.2-0.2-7.4c1.2-1.2,6.4,1,7.4-0.3c1.1-1.3-2.3-5.9-1.3-7.3c1-1.4,6.5,0.1,7.3-1.4
		s-3.2-5.5-2.4-7c0.7-1.5,6.4-0.9,7-2.5s-4-5-3.5-6.6s6.2-1.8,6.6-3.5c0.4-1.6-4.7-4.3-4.4-6c0.2-1.7,5.8-2.8,6-4.5
		C142.6,173.8,137.2,171.9,137.2,170.2z"/>
</g>
<g class="st2">
	<path class="st1" d="M118.3,170.2c0-1.2,5.4-2.7,5.3-3.9s-5.6-1.8-5.8-3c-0.2-1.2,4.9-3.4,4.7-4.6c-0.3-1.2-5.8-1-6.2-2.1
		c-0.4-1.2,4.4-4.1,3.9-5.3c-0.4-1.1-5.9-0.1-6.5-1.2c-0.5-1.1,3.7-4.7,3.1-5.8s-5.9,0.8-6.6-0.2s3-5.2,2.2-6.2s-5.7,1.7-6.5,0.8
		s2.1-5.6,1.2-6.4c-0.9-0.8-5.4,2.5-6.3,1.7c-1-0.8,1.3-5.9,0.3-6.6c-1-0.7-4.9,3.3-6,2.6c-1.1-0.6,0.4-6-0.7-6.5s-4.4,4-5.5,3.5
		c-1.1-0.4-0.5-6-1.7-6.3c-1.2-0.4-3.8,4.6-5,4.3c-1.2-0.3-1.4-5.8-2.6-6s-3,5.1-4.3,5c-1.2-0.1-2.2-5.6-3.5-5.6
		c-1.2,0-2.3,5.5-3.5,5.6s-3.1-5.2-4.3-5c-1.2,0.2-1.4,5.8-2.6,6c-1.2,0.3-3.8-4.7-5-4.3c-1.2,0.4-0.5,5.9-1.7,6.3
		c-1.1,0.4-4.4-4-5.5-3.5s0.4,5.9-0.7,6.5c-1.1,0.6-5-3.3-6-2.6s1.2,5.8,0.3,6.6c-1,0.8-5.4-2.6-6.3-1.7c-0.9,0.8,2.1,5.5,1.2,6.4
		c-0.8,0.9-5.8-1.7-6.5-0.8c-0.8,1,2.9,5.2,2.2,6.2s-5.9-0.9-6.6,0.2c-0.6,1.1,3.6,4.7,3.1,5.8s-6,0-6.5,1.2
		c-0.4,1.1,4.3,4.1,3.9,5.3s-5.9,0.9-6.2,2.1c-0.3,1.2,4.8,3.4,4.7,4.6c-0.2,1.2-5.7,1.8-5.8,3c-0.1,1.2,5.3,2.6,5.3,3.9
		c0,1.2-5.4,2.7-5.3,3.9s5.6,1.8,5.8,3c0.2,1.2-4.9,3.4-4.7,4.6c0.3,1.2,5.8,1,6.2,2.1c0.4,1.2-4.4,4.1-3.9,5.3
		c0.4,1.1,5.9,0.1,6.5,1.2c0.5,1.1-3.7,4.7-3.1,5.8s5.9-0.8,6.6,0.2c0.7,1-3,5.2-2.2,6.2s5.7-1.7,6.5-0.8s-2.1,5.6-1.2,6.4
		c0.9,0.8,5.4-2.5,6.3-1.7c1,0.8-1.3,5.9-0.3,6.6c1,0.7,4.9-3.3,6-2.6c1.1,0.6-0.4,6,0.7,6.5c1.1,0.5,4.4-4,5.5-3.5
		c1.1,0.4,0.5,6,1.7,6.3c1.2,0.4,3.8-4.6,5-4.3s1.4,5.8,2.6,6s3-5.1,4.3-5c1.2,0.1,2.2,5.6,3.5,5.6c1.2,0,2.3-5.5,3.5-5.6
		s3.1,5.2,4.3,5c1.2-0.2,1.4-5.8,2.6-6c1.2-0.3,3.8,4.7,5,4.3s0.5-5.9,1.7-6.3c1.1-0.4,4.4,4,5.5,3.5s-0.4-5.9,0.7-6.5s5,3.3,6,2.6
		s-1.2-5.8-0.3-6.6c1-0.8,5.4,2.6,6.3,1.7c0.9-0.8-2.1-5.5-1.2-6.4c0.8-0.9,5.8,1.7,6.5,0.8c0.8-1-2.9-5.2-2.2-6.2
		c0.7-1,5.9,0.9,6.6-0.2c0.6-1.1-3.6-4.7-3.1-5.8s6,0,6.5-1.2c0.4-1.1-4.3-4.1-3.9-5.3s5.9-0.9,6.2-2.1c0.3-1.2-4.8-3.4-4.7-4.6
		c0.2-1.2,5.7-1.8,5.8-3C123.7,172.9,118.3,171.5,118.3,170.2z"/>
</g>
<g class="st3">
	
		<radialGradient id="SVGID_1_" cx="73.779" cy="170.8128" r="36.2652" gradientTransform="matrix(0.9071 0 0 -0.9071 5.0129 325.1443)" gradientUnits="userSpaceOnUse">
		<stop  offset="0" style="stop-color:#FF2832;stop-opacity:0.2"/>
		<stop  offset="1" style="stop-color:#FF2832"/>
	</radialGradient>
	<path class="st4" d="M99.5,170.2c0-0.8,5.4-1.7,5.4-2.5c-0.1-0.8-5.5-0.9-5.7-1.6c-0.1-0.8,5.1-2.5,4.9-3.2s-5.6-0.1-5.8-0.8
		c-0.2-0.7,4.7-3.2,4.4-3.9c-0.3-0.7-5.6,0.8-5.9,0.1s4.1-3.9,3.7-4.5c-0.4-0.7-5.4,1.6-5.8,1s3.5-4.5,3-5.1s-5.1,2.4-5.6,1.8
		c-0.5-0.6,2.8-4.9,2.2-5.4c-0.6-0.5-4.7,3.1-5.3,2.6c-0.6-0.5,2-5.3,1.4-5.7s-4.2,3.8-4.8,3.4c-0.7-0.4,1.2-5.5,0.5-5.9
		c-0.7-0.3-3.5,4.4-4.2,4.1c-0.7-0.3,0.4-5.7-0.3-5.9c-0.7-0.2-2.9,4.8-3.6,4.7c-0.7-0.2-0.5-5.7-1.2-5.8s-2.1,5.2-2.9,5.2
		c-0.7-0.1-1.3-5.5-2.1-5.5c-0.8,0-1.3,5.5-2.1,5.5c-0.8,0.1-2.1-5.3-2.9-5.2s-0.5,5.6-1.2,5.8s-2.9-4.9-3.6-4.7
		c-0.7,0.2,0.4,5.6-0.3,5.9c-0.7,0.3-3.6-4.4-4.2-4.1c-0.7,0.3,1.2,5.5,0.5,5.9s-4.2-3.8-4.8-3.4c-0.6,0.4,2,5.2,1.4,5.7
		s-4.7-3.2-5.3-2.6c-0.6,0.5,2.8,4.9,2.2,5.4c-0.5,0.6-5.1-2.4-5.6-1.8c-0.5,0.6,3.5,4.4,3,5.1c-0.4,0.6-5.4-1.6-5.8-1
		c-0.4,0.7,4.1,3.9,3.7,4.5c-0.3,0.7-5.6-0.8-5.9-0.1c-0.3,0.7,4.6,3.2,4.4,3.9c-0.2,0.7-5.7,0-5.8,0.8c-0.2,0.7,5,2.5,4.9,3.2
		s-5.6,0.9-5.7,1.6c-0.1,0.7,5.4,1.7,5.4,2.5s-5.4,1.7-5.4,2.5c0.1,0.8,5.5,0.9,5.7,1.6c0.1,0.8-5.1,2.5-4.9,3.2
		c0.2,0.7,5.6,0.1,5.8,0.8s-4.7,3.2-4.4,3.9s5.6-0.8,5.9-0.1c0.3,0.7-4.1,3.9-3.7,4.5c0.4,0.7,5.4-1.6,5.8-1c0.4,0.6-3.5,4.5-3,5.1
		s5.1-2.4,5.6-1.8c0.5,0.6-2.8,4.9-2.2,5.4s4.7-3.1,5.3-2.6s-2,5.3-1.4,5.7s4.2-3.8,4.8-3.4c0.7,0.4-1.2,5.5-0.5,5.9
		c0.7,0.3,3.5-4.4,4.2-4.1c0.7,0.3-0.4,5.7,0.3,5.9s2.9-4.8,3.6-4.7c0.7,0.2,0.5,5.7,1.2,5.8s2.1-5.2,2.9-5.2
		c0.7,0.1,1.3,5.5,2.1,5.5c0.8,0,1.3-5.5,2.1-5.5c0.8-0.1,2.1,5.3,2.9,5.2s0.5-5.6,1.2-5.8s2.9,4.9,3.6,4.7s-0.4-5.6,0.3-5.9
		c0.7-0.3,3.6,4.4,4.2,4.1c0.7-0.3-1.2-5.5-0.5-5.9s4.2,3.8,4.8,3.4c0.6-0.4-2-5.2-1.4-5.7s4.7,3.2,5.3,2.6c0.6-0.5-2.8-4.9-2.2-5.4
		c0.5-0.6,5.1,2.4,5.6,1.8c0.5-0.6-3.5-4.4-3-5.1c0.4-0.6,5.4,1.6,5.8,1c0.4-0.7-4.1-3.9-3.7-4.5c0.3-0.7,5.6,0.8,5.9,0.1
		s-4.6-3.2-4.4-3.9s5.7,0,5.8-0.8c0.2-0.7-5-2.5-4.9-3.2s5.6-0.9,5.7-1.6C104.9,171.9,99.5,171,99.5,170.2z"/>
</g>
<g>
	<path class="st5" d="M81.7,170.2c0-0.6,4.8-1.5,4.7-2.1c-0.1-0.6-5-0.1-5.1-0.7c-0.2-0.6,4.2-2.8,4-3.3s-4.8,1.3-5.1,0.8
		c-0.3-0.5,3.2-3.9,2.9-4.3c-0.4-0.4-4.2,2.6-4.7,2.2c-0.4-0.4,2-4.6,1.5-4.9c-0.5-0.3-3.3,3.7-3.9,3.4c-0.5-0.2,0.6-5,0.1-5.2
		c-0.6-0.2-2.2,4.5-2.7,4.4c-0.6-0.1-0.8-5-1.4-5s-0.8,4.9-1.4,5s-2.2-4.6-2.7-4.4c-0.6,0.2,0.6,4.9,0.1,5.2
		c-0.5,0.2-3.4-3.8-3.9-3.4c-0.5,0.3,2,4.6,1.5,4.9c-0.4,0.4-4.3-2.7-4.7-2.2c-0.4,0.4,3.2,3.8,2.9,4.3s-4.9-1.3-5.1-0.8
		c-0.2,0.5,4.1,2.8,4,3.3c-0.2,0.6-5.1,0.1-5.1,0.7c-0.1,0.6,4.7,1.5,4.7,2.1s-4.8,1.5-4.7,2.1s5,0.1,5.1,0.7c0.2,0.6-4.2,2.8-4,3.3
		s4.8-1.3,5.1-0.8s-3.2,3.9-2.9,4.3c0.4,0.4,4.2-2.6,4.7-2.2c0.4,0.4-2,4.6-1.5,4.9c0.5,0.3,3.3-3.7,3.9-3.4c0.5,0.2-0.6,5-0.1,5.2
		c0.6,0.2,2.2-4.5,2.7-4.4c0.6,0.1,0.8,5,1.4,5s0.8-4.9,1.4-5s2.2,4.6,2.7,4.4c0.6-0.2-0.6-4.9-0.1-5.2c0.5-0.2,3.4,3.8,3.9,3.4
		c0.5-0.3-2-4.6-1.5-4.9c0.4-0.4,4.3,2.7,4.7,2.2c0.4-0.4-3.2-3.8-2.9-4.3c0.3-0.5,4.9,1.3,5.1,0.8s-4.1-2.8-4-3.3
		c0.2-0.6,5.1-0.1,5.1-0.7C86.5,171.7,81.7,170.8,81.7,170.2z"/>
</g>
</svg>
