<?xml version="1.0" encoding="utf-8"?>
<!-- Generator: Adobe Illustrator 22.0.0, SVG Export Plug-In . SVG Version: 6.00 Build 0)  -->
<svg version="1.1" id="Layer_1" xmlns="http://www.w3.org/2000/svg" xmlns:xlink="http://www.w3.org/1999/xlink" x="0px" y="0px"
	 viewBox="0 0 360 360" style="enable-background:new 0 0 360 360;" xml:space="preserve">
<style type="text/css">
	.st0{fill:#EFEBEA;}
	.st1{opacity:0.15;fill:#FB3942;}
	.st2{fill:none;stroke:#FF3333;stroke-width:1.3606;stroke-miterlimit:10;}
	.st3{fill:url(#SVGID_1_);}
	.st4{fill:url(#SVGID_2_);}
	.st5{opacity:0.1;}
	.st6{fill:#FB3942;}
	.st7{opacity:0.3;}
	.st8{opacity:0.8;}
	.st9{fill:url(#SVGID_3_);}
	.st10{fill:url(#SVGID_4_);}
	.st11{fill:url(#SVGID_5_);}
	.st12{fill:#FFFFFF;}
</style>
<path class="st0" d="M259.7,331.3c-10.7-5.4-18.8-10.4-26.2-13.8c-7.4-3.3-8.2-25-7.9-38c6.2-3.8,10.6-8,13-11.6
	c3.6-5.6,6.3-21.5,7.9-35.8c1.4,0.1,3.2,0,5.9-1.4c6.6-3.3,8.9-22.7,4.4-31.3c-0.5-0.8-0.9-1.5-1.4-2c2.6-19.5,4.8-51.9-4.8-66.4
	c-14.2-21.7-45.8-22.7-56.6-23.6c-14.2-1.2-39.7-1.1-46,15c-30,2.9-26.2,49.6-22.1,74.9c-0.5,0.5-0.8,1.1-1.2,1.8
	c-4.5,8.8-2.4,28,4.4,31.3c3,1.5,5.1,1.7,6.5,1.4c1.4,14.5,4.1,30.4,7.9,35.9c2.4,3.6,6.6,7.9,12.7,11.5c0.5,13-0.3,34.8-7.7,38.3
	c-7.6,3.3-15.6,8.3-26.5,13.8c19.3,13.9,43.1,22.3,68.8,22.3S240.4,345.2,259.7,331.3z"/>
<circle class="st1" cx="190.9" cy="183.5" r="58.4"/>
<path class="st2" d="M193.9,224c0,9.2-6,9.2-6,18.2c0,9.2,6,9.2,6,18.2c0,9.2-6,9.2-6,18.2c0,9.2,6,9.2,6,18.2c0,9.2-6,9.2-6,18.4
	c0,9.2,6,9.2,6,18.2c0,9.2-6,10.6-6,19.8"/>
<path class="st2" d="M187.9,224c0,9.2,6,9.2,6,18.2c0,9.2-6,9.2-6,18.2c0,9.2,6,9.2,6,18.2c0,9.2-6,9.2-6,18.2c0,9.2,6,9.2,6,18.4
	c0,9.2-6,9.2-6,18.2c0,9.2,6,10.6,6,19.8"/>
<g>
	<g>
		
			<linearGradient id="SVGID_1_" gradientUnits="userSpaceOnUse" x1="27.0983" y1="1360.8977" x2="27.0983" y2="1269.0712" gradientTransform="matrix(-1 0 0 -1 242.1868 1498.2737)">
			<stop  offset="0" style="stop-color:#FF2832;stop-opacity:0.2"/>
			<stop  offset="1" style="stop-color:#FF2832"/>
		</linearGradient>
		<path class="st3" d="M192.4,137.4c2.1,0,4.2,1.2,6.3,1.5c2.1,0.3,4.5-0.3,6.5,0.3c2.1,0.6,3.8,2.4,5.6,3.3c2,0.9,4.4,0.9,6.2,2.1
			c1.8,1.2,2.9,3.3,4.5,4.8c1.7,1.4,3.9,2.1,5.4,3.8c1.4,1.7,1.8,4.1,3,5.9c1.2,1.8,3.2,3.2,4.1,5.1c0.9,2,0.6,4.4,1.2,6.5
			c0.6,2.1,2.1,3.9,2.4,6c0.3,2.1-0.6,4.4-0.6,6.5c0,2.1,0.9,4.4,0.6,6.5c-0.3,2.1-1.8,4.1-2.4,6c-0.6,2.1-0.3,4.5-1.2,6.5
			c-0.9,2-2.9,3.3-4.1,5.1c-1.2,1.8-1.5,4.2-3,5.9c-1.4,1.7-3.8,2.4-5.4,3.8s-2.7,3.6-4.5,4.8s-4.2,1.2-6.2,2.1
			c-2,0.9-3.6,2.7-5.6,3.3c-2.1,0.6-4.4,0-6.5,0.3c-2.1,0.3-4.2,1.5-6.3,1.5"/>
	</g>
	<g>
		
			<linearGradient id="SVGID_2_" gradientUnits="userSpaceOnUse" x1="75.5053" y1="1360.9662" x2="75.5053" y2="1269.1398" gradientTransform="matrix(-1 0 0 -1 242.1868 1498.2737)">
			<stop  offset="0" style="stop-color:#FF2832;stop-opacity:0.2"/>
			<stop  offset="1" style="stop-color:#FF2832"/>
		</linearGradient>
		<path class="st4" d="M189.4,229.1c-2.1,0-4.2-1.2-6.3-1.5c-2.1-0.3-4.5,0.3-6.5-0.3c-2.1-0.6-3.8-2.4-5.6-3.3
			c-2-0.9-4.4-0.9-6.2-2.1c-1.8-1.2-2.9-3.3-4.5-4.8c-1.7-1.4-3.9-2.1-5.4-3.8c-1.4-1.7-1.8-4.1-3-5.9s-3.2-3.2-4.1-5.1
			c-0.9-2-0.6-4.4-1.2-6.5c-0.6-2.1-2.1-3.9-2.4-6c-0.3-2.1,0.6-4.4,0.6-6.5c0-2.1-0.9-4.4-0.6-6.5c0.3-2.1,1.8-4.1,2.4-6
			c0.6-2.1,0.3-4.5,1.2-6.5c0.9-2,2.9-3.3,4.1-5.1c1.2-1.8,1.5-4.2,3-5.9c1.4-1.7,3.8-2.4,5.4-3.8c1.7-1.4,2.7-3.6,4.5-4.8
			c1.8-1.2,4.2-1.2,6.2-2.1c2-0.9,3.6-2.7,5.6-3.3c2.1-0.6,4.4,0,6.5-0.3c2.1-0.3,4.2-1.5,6.3-1.5"/>
	</g>
</g>
<g class="st5">
	<path class="st6" d="M137.2,170.2c0-1.7,5.4-3.6,5.2-5.3c-0.1-1.7-5.7-2.8-6-4.5c-0.3-1.7,4.8-4.4,4.4-6c-0.4-1.7-6.1-1.9-6.6-3.5
		c-0.5-1.6,4.1-5,3.5-6.6c-0.6-1.6-6.3-1-7-2.5c-0.7-1.5,3.3-5.6,2.4-7c-0.9-1.5-6.4,0-7.3-1.4c-1-1.4,2.4-6,1.3-7.3
		c-1.1-1.3-6.3,0.9-7.4-0.3c-1.2-1.2,1.5-6.3,0.2-7.4c-1.2-1.2-6.1,1.9-7.4,0.8c-1.3-1.1,0.5-6.4-0.9-7.4c-1.4-1-5.7,2.7-7.2,1.9
		c-1.5-0.8-0.4-6.4-2-7.2c-1.5-0.7-5.3,3.6-6.8,2.9c-1.6-0.6-1.4-6.3-3-6.8c-1.6-0.5-4.7,4.3-6.3,3.9c-1.6-0.4-2.3-6-4-6.3
		c-1.7-0.2-4,5-5.7,4.8c-1.7-0.1-3.2-5.6-4.9-5.6c-1.7,0-3.2,5.5-4.9,5.6c-1.7,0.1-4-5.1-5.7-4.8c-1.7,0.3-2.4,5.9-4,6.3
		c-1.7,0.4-4.7-4.4-6.3-3.9c-1.6,0.5-1.4,6.2-3,6.8c-1.6,0.6-5.3-3.7-6.8-2.9c-1.5,0.7-0.5,6.3-2,7.2c-1.5,0.9-5.8-2.8-7.2-1.9
		c-1.4,1,0.5,6.3-0.9,7.4c-1.3,1.1-6.2-2-7.4-0.8c-1.2,1.2,1.4,6.2,0.2,7.4c-1.2,1.2-6.4-1-7.4,0.3c-1.1,1.3,2.3,5.9,1.3,7.3
		c-1,1.4-6.5-0.1-7.3,1.4c-0.8,1.5,3.2,5.5,2.4,7c-0.7,1.5-6.4,0.9-7,2.5c-0.6,1.6,4,5,3.5,6.6c-0.5,1.6-6.2,1.8-6.6,3.5
		c-0.4,1.6,4.7,4.3,4.4,6c-0.2,1.7-5.8,2.8-6,4.5c-0.1,1.7,5.2,3.6,5.2,5.3c0,1.7-5.4,3.6-5.2,5.3c0.1,1.7,5.7,2.8,6,4.5
		c0.3,1.7-4.8,4.4-4.4,6c0.4,1.7,6.1,1.9,6.6,3.5c0.5,1.6-4.1,5-3.5,6.6c0.6,1.6,6.3,1,7,2.5c0.7,1.5-3.3,5.6-2.4,7
		c0.9,1.5,6.4,0,7.3,1.4c1,1.4-2.4,6-1.3,7.3c1.1,1.3,6.3-0.9,7.4,0.3c1.2,1.2-1.5,6.3-0.2,7.4c1.2,1.2,6.1-1.9,7.4-0.8
		c1.3,1.1-0.5,6.4,0.9,7.4c1.4,1,5.7-2.7,7.2-1.9c1.5,0.8,0.4,6.4,2,7.2c1.5,0.7,5.3-3.6,6.8-2.9c1.6,0.6,1.4,6.3,3,6.8
		c1.6,0.5,4.7-4.3,6.3-3.9c1.6,0.4,2.3,6,4,6.3c1.7,0.2,4-5,5.7-4.8c1.7,0.1,3.2,5.6,4.9,5.6c1.7,0,3.2-5.5,4.9-5.6
		c1.7-0.1,4,5.1,5.7,4.8c1.7-0.3,2.4-5.9,4-6.3c1.7-0.4,4.7,4.4,6.3,3.9c1.6-0.5,1.4-6.2,3-6.8c1.6-0.6,5.3,3.7,6.8,2.9
		c1.5-0.7,0.5-6.3,2-7.2c1.5-0.9,5.8,2.8,7.2,1.9c1.4-1-0.5-6.3,0.9-7.4c1.3-1.1,6.2,2,7.4,0.8c1.2-1.2-1.4-6.2-0.2-7.4
		c1.2-1.2,6.4,1,7.4-0.3c1.1-1.3-2.3-5.9-1.3-7.3c1-1.4,6.5,0.1,7.3-1.4c0.8-1.5-3.2-5.5-2.4-7c0.7-1.5,6.4-0.9,7-2.5
		c0.6-1.6-4-5-3.5-6.6c0.5-1.6,6.2-1.8,6.6-3.5c0.4-1.6-4.7-4.3-4.4-6c0.2-1.7,5.8-2.8,6-4.5C142.6,173.8,137.2,171.9,137.2,170.2z"
		/>
</g>
<g class="st7">
	<path class="st6" d="M118.3,170.2c0-1.2,5.4-2.7,5.3-3.9c-0.1-1.2-5.6-1.8-5.8-3c-0.2-1.2,4.9-3.4,4.7-4.6c-0.3-1.2-5.8-1-6.2-2.1
		c-0.4-1.2,4.4-4.1,3.9-5.3c-0.4-1.1-5.9-0.1-6.5-1.2c-0.5-1.1,3.7-4.7,3.1-5.8c-0.6-1.1-5.9,0.8-6.6-0.2c-0.7-1,3-5.2,2.2-6.2
		c-0.8-1-5.7,1.7-6.5,0.8c-0.8-0.9,2.1-5.6,1.2-6.4c-0.9-0.8-5.4,2.5-6.3,1.7c-1-0.8,1.3-5.9,0.3-6.6c-1-0.7-4.9,3.3-6,2.6
		c-1.1-0.6,0.4-6-0.7-6.5c-1.1-0.5-4.4,4-5.5,3.5c-1.1-0.4-0.5-6-1.7-6.3c-1.2-0.4-3.8,4.6-5,4.3c-1.2-0.3-1.4-5.8-2.6-6
		c-1.2-0.2-3,5.1-4.3,5c-1.2-0.1-2.2-5.6-3.5-5.6c-1.2,0-2.3,5.5-3.5,5.6c-1.2,0.1-3.1-5.2-4.3-5c-1.2,0.2-1.4,5.8-2.6,6
		c-1.2,0.3-3.8-4.7-5-4.3c-1.2,0.4-0.5,5.9-1.7,6.3c-1.1,0.4-4.4-4-5.5-3.5c-1.1,0.5,0.4,5.9-0.7,6.5c-1.1,0.6-5-3.3-6-2.6
		c-1,0.7,1.2,5.8,0.3,6.6c-1,0.8-5.4-2.6-6.3-1.7c-0.9,0.8,2.1,5.5,1.2,6.4c-0.8,0.9-5.8-1.7-6.5-0.8c-0.8,1,2.9,5.2,2.2,6.2
		c-0.7,1-5.9-0.9-6.6,0.2c-0.6,1.1,3.6,4.7,3.1,5.8c-0.5,1.1-6,0-6.5,1.2c-0.4,1.1,4.3,4.1,3.9,5.3c-0.4,1.2-5.9,0.9-6.2,2.1
		c-0.3,1.2,4.8,3.4,4.7,4.6c-0.2,1.2-5.7,1.8-5.8,3c-0.1,1.2,5.3,2.6,5.3,3.9c0,1.2-5.4,2.7-5.3,3.9c0.1,1.2,5.6,1.8,5.8,3
		c0.2,1.2-4.9,3.4-4.7,4.6c0.3,1.2,5.8,1,6.2,2.1c0.4,1.2-4.4,4.1-3.9,5.3c0.4,1.1,5.9,0.1,6.5,1.2c0.5,1.1-3.7,4.7-3.1,5.8
		c0.6,1.1,5.9-0.8,6.6,0.2c0.7,1-3,5.2-2.2,6.2c0.8,1,5.7-1.7,6.5-0.8c0.8,0.9-2.1,5.6-1.2,6.4c0.9,0.8,5.4-2.5,6.3-1.7
		c1,0.8-1.3,5.9-0.3,6.6c1,0.7,4.9-3.3,6-2.6c1.1,0.6-0.4,6,0.7,6.5c1.1,0.5,4.4-4,5.5-3.5c1.1,0.4,0.5,6,1.7,6.3
		c1.2,0.4,3.8-4.6,5-4.3c1.2,0.3,1.4,5.8,2.6,6c1.2,0.2,3-5.1,4.3-5c1.2,0.1,2.2,5.6,3.5,5.6c1.2,0,2.3-5.5,3.5-5.6
		c1.2-0.1,3.1,5.2,4.3,5c1.2-0.2,1.4-5.8,2.6-6c1.2-0.3,3.8,4.7,5,4.3c1.2-0.4,0.5-5.9,1.7-6.3c1.1-0.4,4.4,4,5.5,3.5
		c1.1-0.5-0.4-5.9,0.7-6.5c1.1-0.6,5,3.3,6,2.6c1-0.7-1.2-5.8-0.3-6.6c1-0.8,5.4,2.6,6.3,1.7c0.9-0.8-2.1-5.5-1.2-6.4
		c0.8-0.9,5.8,1.7,6.5,0.8c0.8-1-2.9-5.2-2.2-6.2c0.7-1,5.9,0.9,6.6-0.2c0.6-1.1-3.6-4.7-3.1-5.8c0.5-1.1,6,0,6.5-1.2
		c0.4-1.1-4.3-4.1-3.9-5.3c0.4-1.2,5.9-0.9,6.2-2.1c0.3-1.2-4.8-3.4-4.7-4.6c0.2-1.2,5.7-1.8,5.8-3
		C123.7,172.9,118.3,171.5,118.3,170.2z"/>
</g>
<g class="st8">
	
		<radialGradient id="SVGID_3_" cx="60.9772" cy="169.2052" r="36.2837" gradientTransform="matrix(0.9071 0 0 0.9071 16.6254 16.7476)" gradientUnits="userSpaceOnUse">
		<stop  offset="0" style="stop-color:#FF2832;stop-opacity:0.2"/>
		<stop  offset="1" style="stop-color:#FF2832"/>
	</radialGradient>
	<path class="st9" d="M99.5,170.2c0-0.8,5.4-1.7,5.4-2.5c-0.1-0.8-5.5-0.9-5.7-1.6c-0.1-0.8,5.1-2.5,4.9-3.2
		c-0.2-0.7-5.6-0.1-5.8-0.8c-0.2-0.7,4.7-3.2,4.4-3.9c-0.3-0.7-5.6,0.8-5.9,0.1c-0.3-0.7,4.1-3.9,3.7-4.5c-0.4-0.7-5.4,1.6-5.8,1
		c-0.4-0.6,3.5-4.5,3-5.1c-0.5-0.6-5.1,2.4-5.6,1.8c-0.5-0.6,2.8-4.9,2.2-5.4c-0.6-0.5-4.7,3.1-5.3,2.6c-0.6-0.5,2-5.3,1.4-5.7
		c-0.6-0.4-4.2,3.8-4.8,3.4c-0.7-0.4,1.2-5.5,0.5-5.9c-0.7-0.3-3.5,4.4-4.2,4.1c-0.7-0.3,0.4-5.7-0.3-5.9c-0.7-0.2-2.9,4.8-3.6,4.7
		c-0.7-0.2-0.5-5.7-1.2-5.8c-0.7-0.1-2.1,5.2-2.9,5.2c-0.7-0.1-1.3-5.5-2.1-5.5c-0.8,0-1.3,5.5-2.1,5.5c-0.8,0.1-2.1-5.3-2.9-5.2
		c-0.8,0.1-0.5,5.6-1.2,5.8c-0.7,0.2-2.9-4.9-3.6-4.7c-0.7,0.2,0.4,5.6-0.3,5.9c-0.7,0.3-3.6-4.4-4.2-4.1c-0.7,0.3,1.2,5.5,0.5,5.9
		c-0.7,0.4-4.2-3.8-4.8-3.4c-0.6,0.4,2,5.2,1.4,5.7c-0.6,0.5-4.7-3.2-5.3-2.6c-0.6,0.5,2.8,4.9,2.2,5.4c-0.5,0.6-5.1-2.4-5.6-1.8
		c-0.5,0.6,3.5,4.4,3,5.1c-0.4,0.6-5.4-1.6-5.8-1c-0.4,0.7,4.1,3.9,3.7,4.5c-0.3,0.7-5.6-0.8-5.9-0.1c-0.3,0.7,4.6,3.2,4.4,3.9
		c-0.2,0.7-5.7,0-5.8,0.8c-0.2,0.7,5,2.5,4.9,3.2c-0.1,0.7-5.6,0.9-5.7,1.6c-0.1,0.7,5.4,1.7,5.4,2.5c0,0.8-5.4,1.7-5.4,2.5
		c0.1,0.8,5.5,0.9,5.7,1.6c0.1,0.8-5.1,2.5-4.9,3.2c0.2,0.7,5.6,0.1,5.8,0.8c0.2,0.7-4.7,3.2-4.4,3.9c0.3,0.7,5.6-0.8,5.9-0.1
		c0.3,0.7-4.1,3.9-3.7,4.5c0.4,0.7,5.4-1.6,5.8-1c0.4,0.6-3.5,4.5-3,5.1c0.5,0.6,5.1-2.4,5.6-1.8c0.5,0.6-2.8,4.9-2.2,5.4
		c0.6,0.5,4.7-3.1,5.3-2.6c0.6,0.5-2,5.3-1.4,5.7c0.6,0.4,4.2-3.8,4.8-3.4c0.7,0.4-1.2,5.5-0.5,5.9c0.7,0.3,3.5-4.4,4.2-4.1
		c0.7,0.3-0.4,5.7,0.3,5.9c0.7,0.2,2.9-4.8,3.6-4.7c0.7,0.2,0.5,5.7,1.2,5.8c0.7,0.1,2.1-5.2,2.9-5.2c0.7,0.1,1.3,5.5,2.1,5.5
		c0.8,0,1.3-5.5,2.1-5.5c0.8-0.1,2.1,5.3,2.9,5.2c0.8-0.1,0.5-5.6,1.2-5.8c0.7-0.2,2.9,4.9,3.6,4.7c0.7-0.2-0.4-5.6,0.3-5.9
		c0.7-0.3,3.6,4.4,4.2,4.1c0.7-0.3-1.2-5.5-0.5-5.9c0.7-0.4,4.2,3.8,4.8,3.4c0.6-0.4-2-5.2-1.4-5.7c0.6-0.5,4.7,3.2,5.3,2.6
		c0.6-0.5-2.8-4.9-2.2-5.4c0.5-0.6,5.1,2.4,5.6,1.8c0.5-0.6-3.5-4.4-3-5.1c0.4-0.6,5.4,1.6,5.8,1c0.4-0.7-4.1-3.9-3.7-4.5
		c0.3-0.7,5.6,0.8,5.9,0.1c0.3-0.7-4.6-3.2-4.4-3.9c0.2-0.7,5.7,0,5.8-0.8c0.2-0.7-5-2.5-4.9-3.2c0.1-0.7,5.6-0.9,5.7-1.6
		C104.9,171.9,99.5,171,99.5,170.2z"/>
</g>
<g class="st5">
	<path class="st6" d="M351.2,263.1c0-1.6,5.4-3.3,5.3-4.9c-0.1-1.6-5.7-2.5-5.9-4.1c-0.2-1.6,4.8-4.1,4.5-5.6
		c-0.3-1.5-6-1.6-6.5-3.1c-0.5-1.5,4.2-4.8,3.6-6.2c-0.6-1.5-6.2-0.7-6.9-2.1c-0.7-1.4,3.4-5.3,2.6-6.7c-0.8-1.4-6.2,0.2-7.1-1.1
		c-0.9-1.3,2.6-5.8,1.6-7c-1-1.2-6.1,1.1-7.2,0c-1.1-1.1,1.7-6.1,0.5-7.2c-1.1-1.1-5.9,2-7.1,1.1c-1.2-1,0.8-6.3-0.5-7.2
		c-1.3-0.9-5.5,2.9-6.9,2.1c-1.3-0.8-0.2-6.3-1.6-7c-1.4-0.7-5,3.7-6.5,3.1c-1.4-0.6-1.1-6.2-2.6-6.7c-1.5-0.5-4.4,4.4-5.9,4
		c-1.5-0.3-2-6-3.6-6.2c-1.5-0.2-3.7,5-5.3,4.9c-1.5-0.1-2.9-5.6-4.5-5.6c-1.6,0-2.9,5.5-4.5,5.6c-1.6,0.1-3.7-5.1-5.3-4.9
		c-1.6,0.2-2.1,5.9-3.6,6.2c-1.5,0.3-4.4-4.5-5.9-4c-1.5,0.5-1.2,6.1-2.6,6.7c-1.5,0.6-5.1-3.8-6.5-3.1c-1.4,0.7-0.2,6.2-1.6,7
		c-1.4,0.8-5.6-3-6.9-2.1c-1.3,0.9,0.7,6.2-0.5,7.2c-1.2,1-6-2.1-7.1-1.1c-1.1,1.1,1.6,6,0.5,7.2c-1.1,1.1-6.2-1.2-7.2,0
		c-1,1.2,2.5,5.7,1.6,7c-0.9,1.3-6.3-0.3-7.1,1.1c-0.8,1.3,3.3,5.3,2.6,6.7c-0.7,1.4-6.3,0.7-6.9,2.1c-0.6,1.4,4,4.7,3.6,6.2
		c-0.5,1.5-6.1,1.6-6.5,3.1c-0.3,1.5,4.7,4.1,4.5,5.6c-0.2,1.5-5.8,2.5-5.9,4.1c-0.1,1.5,5.3,3.3,5.3,4.9c0,1.6-5.4,3.3-5.3,4.9
		c0.1,1.6,5.7,2.5,5.9,4.1c0.2,1.6-4.8,4.1-4.5,5.6c0.3,1.5,6,1.6,6.5,3.1c0.5,1.5-4.2,4.8-3.6,6.2c0.6,1.5,6.2,0.7,6.9,2.1
		c0.7,1.4-3.4,5.3-2.6,6.7c0.8,1.4,6.2-0.2,7.1,1.1c0.9,1.3-2.6,5.8-1.6,7c1,1.2,6.1-1.1,7.2,0c1.1,1.1-1.7,6.1-0.5,7.2
		c1.1,1.1,5.9-2,7.1-1.1c1.2,1-0.8,6.3,0.5,7.2c1.3,0.9,5.5-2.9,6.9-2.1c1.3,0.8,0.2,6.3,1.6,7c1.4,0.7,5-3.7,6.5-3.1
		c1.4,0.6,1.1,6.2,2.6,6.7c1.5,0.5,4.4-4.4,5.9-4c1.5,0.3,2,6,3.6,6.2c1.5,0.2,3.7-5,5.3-4.9c1.5,0.1,2.9,5.6,4.5,5.6
		c1.6,0,2.9-5.5,4.5-5.6c1.6-0.1,3.7,5.1,5.3,4.9c1.6-0.2,2.1-5.9,3.6-6.2c1.5-0.3,4.4,4.5,5.9,4c1.5-0.5,1.2-6.1,2.6-6.7
		c1.5-0.6,5.1,3.8,6.5,3.1c1.4-0.7,0.2-6.2,1.6-7c1.4-0.8,5.6,3,6.9,2.1c1.3-0.9-0.7-6.2,0.5-7.2c1.2-1,6,2.1,7.1,1.1
		c1.1-1.1-1.6-6-0.5-7.2c1.1-1.1,6.2,1.2,7.2,0c1-1.2-2.5-5.7-1.6-7c0.9-1.3,6.3,0.3,7.1-1.1c0.8-1.3-3.3-5.3-2.6-6.7
		c0.7-1.4,6.3-0.7,6.9-2.1c0.6-1.4-4-4.7-3.6-6.2c0.5-1.5,6.1-1.6,6.5-3.1c0.3-1.5-4.7-4.1-4.5-5.6c0.2-1.5,5.8-2.5,5.9-4.1
		C356.6,266.4,351.2,264.6,351.2,263.1z"/>
</g>
<g class="st7">
	<path class="st6" d="M325.4,263.1c0-0.9,5.4-2,5.3-3c-0.1-0.9-5.6-1.2-5.7-2.1c-0.1-0.9,5-2.8,4.8-3.7c-0.2-0.9-5.7-0.4-6-1.3
		c-0.3-0.9,4.6-3.5,4.2-4.4c-0.3-0.9-5.7,0.5-6.1-0.3c-0.4-0.8,4-4.2,3.5-5c-0.5-0.8-5.6,1.3-6.1,0.6c-0.5-0.8,3.3-4.7,2.7-5.4
		c-0.6-0.7-5.3,2.1-5.9,1.5c-0.6-0.7,2.6-5.2,1.9-5.8c-0.7-0.6-4.9,2.9-5.6,2.3c-0.7-0.6,1.8-5.5,1-6c-0.8-0.5-4.4,3.6-5.2,3.1
		c-0.8-0.5,0.9-5.7,0.1-6.1c-0.8-0.4-3.8,4.2-4.7,3.9c-0.9-0.3,0.1-5.8-0.8-6c-0.9-0.3-3.2,4.7-4.1,4.5c-0.9-0.2-0.8-5.7-1.7-5.9
		c-0.9-0.1-2.4,5.2-3.3,5.1c-0.9-0.1-1.6-5.5-2.6-5.5c-0.9,0-1.6,5.5-2.6,5.5c-0.9,0.1-2.4-5.2-3.3-5.1c-0.9,0.1-0.8,5.7-1.7,5.9
		c-0.9,0.2-3.2-4.8-4.1-4.5c-0.9,0.3,0,5.7-0.8,6c-0.9,0.3-3.9-4.3-4.7-3.9c-0.8,0.4,0.9,5.6,0.1,6.1c-0.8,0.5-4.5-3.7-5.2-3.1
		c-0.8,0.5,1.7,5.4,1,6c-0.7,0.6-5-2.9-5.6-2.3c-0.7,0.6,2.5,5.1,1.9,5.8c-0.6,0.7-5.3-2.2-5.9-1.5c-0.6,0.7,3.3,4.7,2.7,5.4
		c-0.5,0.8-5.6-1.4-6.1-0.6c-0.5,0.8,3.9,4.2,3.5,5c-0.4,0.8-5.8-0.5-6.1,0.3c-0.3,0.9,4.5,3.5,4.2,4.4c-0.3,0.9-5.8,0.4-6,1.3
		c-0.2,0.9,5,2.8,4.8,3.7c-0.1,0.9-5.6,1.2-5.7,2.1c-0.1,0.9,5.3,2,5.3,3c0,0.9-5.4,2-5.3,3c0.1,0.9,5.6,1.2,5.7,2.1
		c0.1,0.9-5,2.8-4.8,3.7c0.2,0.9,5.7,0.4,6,1.3c0.3,0.9-4.6,3.5-4.2,4.4c0.3,0.9,5.7-0.5,6.1,0.3c0.4,0.8-4,4.2-3.5,5
		c0.5,0.8,5.6-1.3,6.1-0.6c0.5,0.8-3.3,4.7-2.7,5.4c0.6,0.7,5.3-2.1,5.9-1.5c0.6,0.7-2.6,5.2-1.9,5.8c0.7,0.6,4.9-2.9,5.6-2.3
		c0.7,0.6-1.8,5.5-1,6c0.8,0.5,4.4-3.6,5.2-3.1c0.8,0.5-0.9,5.7-0.1,6.1c0.8,0.4,3.8-4.2,4.7-3.9c0.9,0.3-0.1,5.8,0.8,6
		c0.9,0.3,3.2-4.7,4.1-4.5c0.9,0.2,0.8,5.7,1.7,5.9c0.9,0.1,2.4-5.2,3.3-5.1c0.9,0.1,1.6,5.5,2.6,5.5c0.9,0,1.6-5.5,2.6-5.5
		c0.9-0.1,2.4,5.2,3.3,5.1c0.9-0.1,0.8-5.7,1.7-5.9c0.9-0.2,3.2,4.8,4.1,4.5c0.9-0.3,0-5.7,0.8-6c0.9-0.3,3.9,4.3,4.7,3.9
		c0.8-0.4-0.9-5.6-0.1-6.1c0.8-0.5,4.5,3.7,5.2,3.1c0.8-0.5-1.7-5.4-1-6c0.7-0.6,5,2.9,5.6,2.3c0.7-0.6-2.5-5.1-1.9-5.8
		c0.6-0.7,5.3,2.2,5.9,1.5c0.6-0.7-3.3-4.7-2.7-5.4c0.5-0.8,5.6,1.4,6.1,0.6c0.5-0.8-3.9-4.2-3.5-5c0.4-0.8,5.8,0.5,6.1-0.3
		c0.3-0.9-4.5-3.5-4.2-4.4c0.3-0.9,5.8-0.4,6-1.3c0.2-0.9-5-2.8-4.8-3.7c0.1-0.9,5.6-1.2,5.7-2.1C330.8,265.1,325.4,264,325.4,263.1
		z"/>
</g>
<g class="st8">
	
		<radialGradient id="SVGID_4_" cx="302.8268" cy="271.546" r="27.9617" gradientTransform="matrix(0.9071 0 0 0.9071 16.6254 16.7476)" gradientUnits="userSpaceOnUse">
		<stop  offset="0" style="stop-color:#FF2832;stop-opacity:0.2"/>
		<stop  offset="1" style="stop-color:#FF2832"/>
	</radialGradient>
	<path class="st10" d="M311.3,263.1c0-0.6,5.4-1.3,5.4-1.9c0-0.6-5.5-0.5-5.6-1.1c-0.1-0.6,5.2-2.1,5-2.7c-0.1-0.6-5.5,0.3-5.7-0.2
		c-0.2-0.5,4.8-2.9,4.6-3.4c-0.2-0.5-5.4,1.1-5.7,0.6c-0.2-0.5,4.3-3.6,4-4c-0.3-0.5-5.2,1.9-5.5,1.5c-0.3-0.5,3.7-4.2,3.4-4.6
		c-0.4-0.4-4.8,2.7-5.2,2.3c-0.4-0.4,3.1-4.7,2.6-5c-0.4-0.4-4.4,3.4-4.8,3c-0.4-0.4,2.3-5.1,1.9-5.4c-0.5-0.3-3.8,4-4.3,3.7
		c-0.5-0.3,1.6-5.4,1-5.6c-0.5-0.2-3.2,4.5-3.7,4.3c-0.5-0.2,0.7-5.5,0.2-5.7c-0.5-0.2-2.5,4.9-3,4.8c-0.5-0.1-0.1-5.6-0.7-5.7
		c-0.6-0.1-1.7,5.3-2.3,5.2c-0.6,0-0.9-5.5-1.5-5.5c-0.6,0-0.9,5.5-1.5,5.5c-0.6,0-1.7-5.3-2.3-5.2c-0.6,0.1-0.1,5.5-0.7,5.7
		c-0.6,0.1-2.5-5-3-4.8c-0.5,0.2,0.7,5.5,0.2,5.7c-0.5,0.2-3.2-4.5-3.7-4.3c-0.5,0.2,1.5,5.3,1,5.6c-0.5,0.3-3.9-4-4.3-3.7
		c-0.5,0.3,2.3,5,1.9,5.4c-0.4,0.4-4.4-3.4-4.8-3c-0.4,0.4,3,4.6,2.6,5c-0.4,0.4-4.9-2.7-5.2-2.3c-0.4,0.4,3.7,4.1,3.4,4.6
		c-0.3,0.5-5.2-2-5.5-1.5c-0.3,0.5,4.3,3.5,4,4c-0.2,0.5-5.5-1.2-5.7-0.6c-0.2,0.5,4.7,2.9,4.6,3.4c-0.2,0.5-5.6-0.3-5.7,0.2
		c-0.1,0.5,5.1,2.1,5,2.7c-0.1,0.6-5.6,0.5-5.6,1.1c0,0.6,5.4,1.3,5.4,1.9c0,0.6-5.4,1.3-5.4,1.9c0,0.6,5.5,0.5,5.6,1.1
		c0.1,0.6-5.2,2.1-5,2.7c0.1,0.6,5.5-0.3,5.7,0.2c0.2,0.5-4.8,2.9-4.6,3.4c0.2,0.5,5.4-1.1,5.7-0.6c0.2,0.5-4.3,3.6-4,4
		c0.3,0.5,5.2-1.9,5.5-1.5c0.3,0.5-3.7,4.2-3.4,4.6c0.4,0.4,4.8-2.7,5.2-2.3c0.4,0.4-3.1,4.7-2.6,5c0.4,0.4,4.4-3.4,4.8-3
		c0.4,0.4-2.3,5.1-1.9,5.4c0.5,0.3,3.8-4,4.3-3.7c0.5,0.3-1.6,5.4-1,5.6c0.5,0.2,3.2-4.5,3.7-4.3c0.5,0.2-0.7,5.5-0.2,5.7
		c0.5,0.2,2.5-4.9,3-4.8c0.5,0.1,0.1,5.6,0.7,5.7c0.6,0.1,1.7-5.3,2.3-5.2c0.6,0,0.9,5.5,1.5,5.5c0.6,0,0.9-5.5,1.5-5.5
		c0.6,0,1.7,5.3,2.3,5.2c0.6-0.1,0.1-5.5,0.7-5.7c0.6-0.1,2.5,5,3,4.8c0.5-0.2-0.7-5.5-0.2-5.7c0.5-0.2,3.2,4.5,3.7,4.3
		c0.5-0.2-1.5-5.3-1-5.6c0.5-0.3,3.9,4,4.3,3.7c0.5-0.3-2.3-5-1.9-5.4c0.4-0.4,4.4,3.4,4.8,3c0.4-0.4-3-4.6-2.6-5
		c0.4-0.4,4.9,2.7,5.2,2.3c0.4-0.4-3.7-4.1-3.4-4.6c0.3-0.5,5.2,2,5.5,1.5c0.3-0.5-4.3-3.5-4-4c0.2-0.5,5.5,1.2,5.7,0.6
		c0.2-0.5-4.7-2.9-4.6-3.4c0.2-0.5,5.6,0.3,5.7-0.2c0.1-0.5-5.1-2.1-5-2.7c0.1-0.6,5.6-0.5,5.6-1.1
		C316.7,264.4,311.3,263.6,311.3,263.1z"/>
</g>
<g class="st5">
	<path class="st6" d="M333.7,88.6c0-2.1,5.4-4.3,5.2-6.3c-0.2-2-5.8-3.5-6.1-5.5c-0.3-2,4.7-5,4.2-7c-0.5-2-6.2-2.6-6.8-4.5
		c-0.6-2,3.9-5.7,3.1-7.6c-0.7-1.9-6.5-1.6-7.4-3.4c-0.9-1.8,3-6.2,1.9-7.9c-1-1.8-6.7-0.6-7.9-2.3c-1.1-1.7,2-6.6,0.7-8.1
		c-1.3-1.6-6.7,0.4-8.1-1.1c-1.4-1.5,1-6.8-0.5-8.2c-1.5-1.4-6.6,1.4-8.2,0.1c-1.6-1.3,0-6.9-1.7-8c-1.7-1.1-6.3,2.4-8.1,1.3
		c-1.8-1-1-6.8-2.9-7.7c-1.8-0.9-5.9,3.3-7.8,2.5c-1.9-0.7-2-6.5-4-7.1c-1.9-0.6-5.3,4.1-7.3,3.7c-2-0.4-3-6.2-5-6.5
		c-2-0.3-4.6,4.9-6.7,4.7c-2-0.1-3.8-5.7-5.9-5.7c-2.1,0-3.9,5.5-5.9,5.7c-2,0.2-4.7-5-6.7-4.7c-2,0.3-3,6-5,6.5
		c-2,0.5-5.4-4.3-7.3-3.7c-2,0.6-2.1,6.4-4,7.2c-1.9,0.7-5.9-3.4-7.8-2.5c-1.8,0.9-1.1,6.6-2.9,7.7c-1.8,1-6.4-2.5-8.1-1.3
		c-1.7,1.1-0.1,6.7-1.7,8c-1.6,1.3-6.7-1.5-8.2-0.1c-1.5,1.4,0.9,6.7-0.5,8.2c-1.4,1.5-6.8-0.5-8.1,1.1c-1.3,1.6,1.9,6.5,0.7,8.1
		c-1.1,1.7-6.8,0.5-7.9,2.3c-1,1.8,2.8,6.1,1.9,7.9c-0.9,1.8-6.7,1.5-7.4,3.4c-0.7,1.9,3.7,5.6,3.1,7.6c-0.6,1.9-6.4,2.5-6.8,4.5
		c-0.4,2,4.5,5,4.2,7c-0.3,2-5.9,3.4-6.1,5.5c-0.1,2,5.2,4.3,5.2,6.3s-5.4,4.3-5.2,6.3c0.2,2,5.8,3.5,6.1,5.5c0.3,2-4.7,5-4.2,7
		c0.5,2,6.2,2.6,6.8,4.5c0.6,2-3.9,5.7-3.1,7.6c0.7,1.9,6.5,1.6,7.4,3.4c0.9,1.8-3,6.2-1.9,7.9c1,1.8,6.7,0.6,7.9,2.3
		c1.1,1.7-2,6.6-0.7,8.1c1.3,1.6,6.7-0.4,8.1,1.1c1.4,1.5-1,6.8,0.5,8.2c1.5,1.4,6.6-1.4,8.2-0.1c1.6,1.3,0,6.9,1.7,8
		c1.7,1.1,6.3-2.4,8.1-1.3c1.8,1,1,6.8,2.9,7.7c1.8,0.9,5.9-3.3,7.8-2.5c1.9,0.7,2,6.5,4,7.1c1.9,0.6,5.3-4.1,7.3-3.7
		c2,0.4,3,6.2,5,6.5c2,0.3,4.6-4.9,6.7-4.7c2,0.1,3.8,5.7,5.9,5.7c2.1,0,3.9-5.5,5.9-5.7c2-0.2,4.7,5,6.7,4.7c2-0.3,3-6,5-6.5
		c2-0.5,5.4,4.3,7.3,3.7c2-0.6,2.1-6.4,4-7.2c1.9-0.7,5.9,3.4,7.8,2.5c1.8-0.9,1.1-6.6,2.9-7.7c1.8-1,6.4,2.5,8.1,1.3
		c1.7-1.1,0.1-6.7,1.7-8c1.6-1.3,6.7,1.5,8.2,0.1c1.5-1.4-0.9-6.7,0.5-8.2c1.4-1.5,6.8,0.5,8.1-1.1c1.3-1.6-1.9-6.5-0.7-8.1
		c1.1-1.7,6.8-0.5,7.9-2.3c1-1.8-2.8-6.1-1.9-7.9c0.9-1.8,6.7-1.5,7.4-3.4c0.7-1.9-3.7-5.6-3.1-7.6c0.6-1.9,6.4-2.5,6.8-4.5
		c0.4-2-4.5-5-4.2-7c0.3-2,5.9-3.4,6.1-5.5C339,92.9,333.7,90.6,333.7,88.6z"/>
</g>
<g class="st7">
	<path class="st6" d="M301.2,88.6c0-1.2,5.4-2.7,5.3-3.9c-0.1-1.2-5.6-1.8-5.8-3c-0.2-1.2,4.9-3.4,4.7-4.6c-0.3-1.2-5.8-1-6.2-2.1
		c-0.4-1.2,4.4-4.1,3.9-5.3c-0.4-1.1-5.9-0.1-6.5-1.2c-0.5-1.1,3.7-4.7,3.1-5.8c-0.6-1.1-5.9,0.8-6.6-0.2c-0.7-1,3-5.2,2.2-6.2
		c-0.8-1-5.7,1.7-6.5,0.8c-0.8-0.9,2.1-5.6,1.2-6.4c-0.9-0.8-5.4,2.5-6.3,1.7c-1-0.8,1.3-5.9,0.3-6.6c-1-0.7-4.9,3.3-6,2.6
		c-1.1-0.6,0.4-6-0.7-6.5c-1.1-0.5-4.4,4-5.5,3.5c-1.1-0.4-0.5-6-1.7-6.3c-1.2-0.4-3.8,4.6-5,4.3c-1.2-0.3-1.4-5.8-2.6-6
		c-1.2-0.2-3,5.1-4.3,5c-1.2-0.1-2.2-5.6-3.5-5.6c-1.2,0-2.3,5.5-3.5,5.6c-1.2,0.1-3.1-5.2-4.3-5c-1.2,0.2-1.4,5.8-2.6,6
		c-1.2,0.3-3.8-4.7-5-4.3c-1.2,0.4-0.5,5.9-1.7,6.3c-1.1,0.4-4.4-4-5.5-3.5c-1.1,0.5,0.4,5.9-0.7,6.5c-1.1,0.6-5-3.3-6-2.6
		c-1,0.7,1.2,5.8,0.3,6.6c-1,0.8-5.4-2.6-6.3-1.7c-0.9,0.8,2.1,5.5,1.2,6.4c-0.8,0.9-5.8-1.7-6.5-0.8c-0.8,1,2.9,5.2,2.2,6.2
		c-0.7,1-5.9-0.9-6.6,0.2c-0.6,1.1,3.6,4.7,3.1,5.8c-0.5,1.1-6,0-6.5,1.2c-0.4,1.1,4.3,4.1,3.9,5.3c-0.4,1.2-5.9,0.9-6.2,2.1
		c-0.3,1.2,4.8,3.4,4.7,4.6c-0.2,1.2-5.7,1.8-5.8,3c-0.1,1.2,5.3,2.6,5.3,3.9c0,1.2-5.4,2.7-5.3,3.9c0.1,1.2,5.6,1.8,5.8,3
		c0.2,1.2-4.9,3.4-4.7,4.6c0.3,1.2,5.8,1,6.2,2.1c0.4,1.2-4.4,4.1-3.9,5.3c0.4,1.1,5.9,0.1,6.5,1.2c0.5,1.1-3.7,4.7-3.1,5.8
		c0.6,1.1,5.9-0.8,6.6,0.2c0.7,1-3,5.2-2.2,6.2c0.8,1,5.7-1.7,6.5-0.8c0.8,0.9-2.1,5.6-1.2,6.4c0.9,0.8,5.4-2.5,6.3-1.7
		c1,0.8-1.3,5.9-0.3,6.6c1,0.7,4.9-3.3,6-2.6c1.1,0.6-0.4,6,0.7,6.5c1.1,0.5,4.4-4,5.5-3.5c1.1,0.4,0.5,6,1.7,6.3
		c1.2,0.4,3.8-4.6,5-4.3c1.2,0.3,1.4,5.8,2.6,6c1.2,0.2,3-5.1,4.3-5c1.2,0.1,2.2,5.6,3.5,5.6c1.2,0,2.3-5.5,3.5-5.6
		c1.2-0.1,3.1,5.2,4.3,5c1.2-0.2,1.4-5.8,2.6-6c1.2-0.3,3.8,4.7,5,4.3c1.2-0.4,0.5-5.9,1.7-6.3c1.1-0.4,4.4,4,5.5,3.5
		c1.1-0.5-0.4-5.9,0.7-6.5c1.1-0.6,5,3.3,6,2.6c1-0.7-1.2-5.8-0.3-6.6c1-0.8,5.4,2.6,6.3,1.7c0.9-0.8-2.1-5.5-1.2-6.4
		c0.8-0.9,5.8,1.7,6.5,0.8c0.8-1-2.9-5.2-2.2-6.2c0.7-1,5.9,0.9,6.6-0.2c0.6-1.1-3.6-4.7-3.1-5.8c0.5-1.1,6,0,6.5-1.2
		c0.4-1.1-4.3-4.1-3.9-5.3c0.4-1.2,5.9-0.9,6.2-2.1c0.3-1.2-4.8-3.4-4.7-4.6c0.2-1.2,5.7-1.8,5.8-3
		C306.6,91.3,301.2,89.8,301.2,88.6z"/>
</g>
<g class="st8">
	
		<radialGradient id="SVGID_5_" cx="262.5245" cy="79.2052" r="36.2837" gradientTransform="matrix(0.9071 0 0 0.9071 16.6254 16.7476)" gradientUnits="userSpaceOnUse">
		<stop  offset="0" style="stop-color:#FF2832;stop-opacity:0.2"/>
		<stop  offset="1" style="stop-color:#FF2832"/>
	</radialGradient>
	<path class="st11" d="M282.3,88.6c0-0.8,5.4-1.7,5.4-2.5c-0.1-0.8-5.5-0.9-5.7-1.6c-0.1-0.8,5.1-2.5,4.9-3.2
		c-0.2-0.7-5.6-0.1-5.8-0.8c-0.2-0.7,4.7-3.2,4.4-3.9c-0.3-0.7-5.6,0.8-5.9,0.1c-0.3-0.7,4.1-3.9,3.7-4.5c-0.4-0.7-5.4,1.6-5.8,1
		c-0.4-0.6,3.5-4.5,3-5.1c-0.5-0.6-5.1,2.4-5.6,1.8c-0.5-0.6,2.8-4.9,2.2-5.4c-0.6-0.5-4.7,3.1-5.3,2.6c-0.6-0.5,2-5.3,1.4-5.7
		c-0.6-0.4-4.2,3.8-4.8,3.4c-0.7-0.4,1.2-5.5,0.5-5.9c-0.7-0.3-3.5,4.4-4.2,4.1c-0.7-0.3,0.4-5.7-0.3-5.9c-0.7-0.2-2.9,4.8-3.6,4.7
		c-0.7-0.2-0.5-5.7-1.2-5.8c-0.7-0.1-2.1,5.2-2.9,5.2c-0.7-0.1-1.3-5.5-2.1-5.5c-0.8,0-1.3,5.5-2.1,5.5c-0.8,0.1-2.1-5.3-2.9-5.2
		c-0.8,0.1-0.5,5.6-1.2,5.8c-0.7,0.2-2.9-4.9-3.6-4.7c-0.7,0.2,0.4,5.6-0.3,5.9c-0.7,0.3-3.6-4.4-4.2-4.1c-0.7,0.3,1.2,5.5,0.5,5.9
		c-0.7,0.4-4.2-3.8-4.8-3.4c-0.6,0.4,2,5.2,1.4,5.7c-0.6,0.5-4.7-3.2-5.3-2.6c-0.6,0.5,2.8,4.9,2.2,5.4c-0.5,0.6-5.1-2.4-5.6-1.8
		c-0.5,0.6,3.5,4.4,3,5.1c-0.4,0.6-5.4-1.6-5.8-1c-0.4,0.7,4.1,3.9,3.7,4.5c-0.3,0.7-5.6-0.8-5.9-0.1c-0.3,0.7,4.6,3.2,4.4,3.9
		c-0.2,0.7-5.7,0-5.8,0.8c-0.2,0.7,5,2.5,4.9,3.2c-0.1,0.7-5.6,0.9-5.7,1.6c-0.1,0.7,5.4,1.7,5.4,2.5c0,0.8-5.4,1.7-5.4,2.5
		c0.1,0.8,5.5,0.9,5.7,1.6c0.1,0.8-5.1,2.5-4.9,3.2c0.2,0.7,5.6,0.1,5.8,0.8c0.2,0.7-4.7,3.2-4.4,3.9c0.3,0.7,5.6-0.8,5.9-0.1
		c0.3,0.7-4.1,3.9-3.7,4.5c0.4,0.7,5.4-1.6,5.8-1c0.4,0.6-3.5,4.5-3,5.1c0.5,0.6,5.1-2.4,5.6-1.8c0.5,0.6-2.8,4.9-2.2,5.4
		c0.6,0.5,4.7-3.1,5.3-2.6c0.6,0.5-2,5.3-1.4,5.7c0.6,0.4,4.2-3.8,4.8-3.4c0.7,0.4-1.2,5.5-0.5,5.9c0.7,0.3,3.5-4.4,4.2-4.1
		c0.7,0.3-0.4,5.7,0.3,5.9c0.7,0.2,2.9-4.8,3.6-4.7c0.7,0.2,0.5,5.7,1.2,5.8c0.7,0.1,2.1-5.2,2.9-5.2c0.7,0.1,1.3,5.5,2.1,5.5
		c0.8,0,1.3-5.5,2.1-5.5c0.8-0.1,2.1,5.3,2.9,5.2c0.8-0.1,0.5-5.6,1.2-5.8c0.7-0.2,2.9,4.9,3.6,4.7c0.7-0.2-0.4-5.6,0.3-5.9
		c0.7-0.3,3.6,4.4,4.2,4.1c0.7-0.3-1.2-5.5-0.5-5.9c0.7-0.4,4.2,3.8,4.8,3.4c0.6-0.4-2-5.2-1.4-5.7c0.6-0.5,4.7,3.2,5.3,2.6
		c0.6-0.5-2.8-4.9-2.2-5.4c0.5-0.6,5.1,2.4,5.6,1.8c0.5-0.6-3.5-4.4-3-5.1c0.4-0.6,5.4,1.6,5.8,1c0.4-0.7-4.1-3.9-3.7-4.5
		c0.3-0.7,5.6,0.8,5.9,0.1c0.3-0.7-4.6-3.2-4.4-3.9c0.2-0.7,5.7,0,5.8-0.8c0.2-0.7-5-2.5-4.9-3.2c0.1-0.7,5.6-0.9,5.7-1.6
		C287.7,90.3,282.3,89.4,282.3,88.6z"/>
</g>
<g>
	<path class="st12" d="M81.7,170.2c0-0.6,4.8-1.5,4.7-2.1c-0.1-0.6-5-0.1-5.1-0.7c-0.2-0.6,4.2-2.8,4-3.3c-0.2-0.5-4.8,1.3-5.1,0.8
		c-0.3-0.5,3.2-3.9,2.9-4.3c-0.4-0.4-4.2,2.6-4.7,2.2c-0.4-0.4,2-4.6,1.5-4.9c-0.5-0.3-3.3,3.7-3.9,3.4c-0.5-0.2,0.6-5,0.1-5.2
		c-0.6-0.2-2.2,4.5-2.7,4.4c-0.6-0.1-0.8-5-1.4-5c-0.6,0-0.8,4.9-1.4,5c-0.6,0.1-2.2-4.6-2.7-4.4c-0.6,0.2,0.6,4.9,0.1,5.2
		c-0.5,0.2-3.4-3.8-3.9-3.4c-0.5,0.3,2,4.6,1.5,4.9c-0.4,0.4-4.3-2.7-4.7-2.2c-0.4,0.4,3.2,3.8,2.9,4.3c-0.3,0.5-4.9-1.3-5.1-0.8
		c-0.2,0.5,4.1,2.8,4,3.3c-0.2,0.6-5.1,0.1-5.1,0.7c-0.1,0.6,4.7,1.5,4.7,2.1c0,0.6-4.8,1.5-4.7,2.1c0.1,0.6,5,0.1,5.1,0.7
		c0.2,0.6-4.2,2.8-4,3.3c0.2,0.5,4.8-1.3,5.1-0.8c0.3,0.5-3.2,3.9-2.9,4.3c0.4,0.4,4.2-2.6,4.7-2.2c0.4,0.4-2,4.6-1.5,4.9
		c0.5,0.3,3.3-3.7,3.9-3.4c0.5,0.2-0.6,5-0.1,5.2c0.6,0.2,2.2-4.5,2.7-4.4c0.6,0.1,0.8,5,1.4,5c0.6,0,0.8-4.9,1.4-5
		c0.6-0.1,2.2,4.6,2.7,4.4c0.6-0.2-0.6-4.9-0.1-5.2c0.5-0.2,3.4,3.8,3.9,3.4c0.5-0.3-2-4.6-1.5-4.9c0.4-0.4,4.3,2.7,4.7,2.2
		c0.4-0.4-3.2-3.8-2.9-4.3c0.3-0.5,4.9,1.3,5.1,0.8c0.2-0.5-4.1-2.8-4-3.3c0.2-0.6,5.1-0.1,5.1-0.7
		C86.5,171.7,81.7,170.8,81.7,170.2z"/>
</g>
<g>
	<path class="st12" d="M264.2,88.6c0-0.6,4.8-1.5,4.7-2.1c-0.1-0.6-5-0.1-5.1-0.7c-0.2-0.6,4.2-2.8,4-3.3c-0.2-0.5-4.8,1.3-5.1,0.8
		c-0.3-0.5,3.2-3.9,2.9-4.3c-0.4-0.4-4.2,2.6-4.7,2.2c-0.4-0.4,2-4.6,1.5-4.9c-0.5-0.3-3.3,3.7-3.9,3.4c-0.5-0.2,0.6-5,0.1-5.2
		c-0.6-0.2-2.2,4.5-2.7,4.4c-0.6-0.1-0.8-5-1.4-5c-0.6,0-0.8,4.9-1.4,5c-0.6,0.1-2.2-4.6-2.7-4.4c-0.6,0.2,0.6,4.9,0.1,5.2
		c-0.5,0.2-3.4-3.8-3.9-3.4c-0.5,0.3,2,4.6,1.5,4.9c-0.4,0.4-4.3-2.7-4.7-2.2c-0.4,0.4,3.2,3.8,2.9,4.3c-0.3,0.5-4.9-1.3-5.1-0.8
		c-0.2,0.5,4.1,2.8,4,3.3c-0.2,0.6-5.1,0.1-5.1,0.7c-0.1,0.6,4.7,1.5,4.7,2.1c0,0.6-4.8,1.5-4.7,2.1c0.1,0.6,5,0.1,5.1,0.7
		c0.2,0.6-4.2,2.8-4,3.3c0.2,0.5,4.8-1.3,5.1-0.8c0.3,0.5-3.2,3.9-2.9,4.3c0.4,0.4,4.2-2.6,4.7-2.2c0.4,0.4-2,4.6-1.5,4.9
		c0.5,0.3,3.3-3.7,3.9-3.4c0.5,0.2-0.6,5-0.1,5.2c0.6,0.2,2.2-4.5,2.7-4.4c0.6,0.1,0.8,5,1.4,5c0.6,0,0.8-4.9,1.4-5
		c0.6-0.1,2.2,4.6,2.7,4.4c0.6-0.2-0.6-4.9-0.1-5.2c0.5-0.2,3.4,3.8,3.9,3.4c0.5-0.3-2-4.6-1.5-4.9c0.4-0.4,4.3,2.7,4.7,2.2
		c0.4-0.4-3.2-3.8-2.9-4.3c0.3-0.5,4.9,1.3,5.1,0.8c0.2-0.5-4.1-2.8-4-3.3c0.2-0.6,5.1-0.1,5.1-0.7
		C269.1,90.1,264.2,89.2,264.2,88.6z"/>
</g>
<g>
	<path class="st12" d="M298.2,263.1c0-0.4,3.4-1.1,3.4-1.5c-0.1-0.4-3.5-0.1-3.6-0.5c-0.1-0.4,3-2,2.8-2.4c-0.2-0.4-3.4,0.9-3.6,0.6
		c-0.2-0.3,2.3-2.7,2-3.1c-0.3-0.3-3,1.8-3.3,1.6c-0.3-0.3,1.4-3.3,1.1-3.5c-0.3-0.2-2.4,2.6-2.7,2.4c-0.4-0.2,0.4-3.5,0.1-3.7
		c-0.4-0.1-1.5,3.2-1.9,3.1c-0.4-0.1-0.6-3.5-1-3.5s-0.6,3.5-1,3.5c-0.4,0.1-1.5-3.2-1.9-3.1c-0.4,0.1,0.4,3.5,0,3.7
		c-0.4,0.2-2.4-2.7-2.7-2.4c-0.3,0.2,1.4,3.2,1.1,3.5c-0.3,0.3-3-1.9-3.3-1.6c-0.3,0.3,2.2,2.7,2,3.1c-0.2,0.3-3.4-0.9-3.6-0.6
		c-0.2,0.4,2.9,2,2.8,2.4c-0.1,0.4-3.6,0.1-3.6,0.5c-0.1,0.4,3.4,1.1,3.4,1.5c0,0.4-3.4,1.1-3.4,1.5c0.1,0.4,3.5,0.1,3.6,0.5
		c0.1,0.4-3,2-2.8,2.4c0.2,0.4,3.4-0.9,3.6-0.6c0.2,0.3-2.3,2.7-2,3.1c0.3,0.3,3-1.8,3.3-1.6c0.3,0.3-1.4,3.3-1.1,3.5
		c0.3,0.2,2.4-2.6,2.7-2.4c0.4,0.2-0.4,3.5-0.1,3.7c0.4,0.1,1.5-3.2,1.9-3.1c0.4,0.1,0.6,3.5,1,3.5c0.4,0,0.6-3.5,1-3.5
		c0.4-0.1,1.5,3.2,1.9,3.1c0.4-0.1-0.4-3.5,0-3.7c0.4-0.2,2.4,2.7,2.7,2.4c0.3-0.2-1.4-3.2-1.1-3.5c0.3-0.3,3,1.9,3.3,1.6
		c0.3-0.3-2.2-2.7-2-3.1c0.2-0.3,3.4,0.9,3.6,0.6c0.2-0.4-2.9-2-2.8-2.4c0.1-0.4,3.6-0.1,3.6-0.5
		C301.6,264.1,298.2,263.5,298.2,263.1z"/>
</g>
</svg>
