<?xml version="1.0" encoding="utf-8"?>
<!-- Generator: Adobe Illustrator 22.0.0, SVG Export Plug-In . SVG Version: 6.00 Build 0)  -->
<svg version="1.1" id="Layer_1" xmlns="http://www.w3.org/2000/svg" xmlns:xlink="http://www.w3.org/1999/xlink" x="0px" y="0px"
	 viewBox="0 0 510 360" style="enable-background:new 0 0 510 360;" xml:space="preserve">
<style type="text/css">
	.st0{fill:#EFEBEA;}
	.st1{opacity:0.15;fill:#009632;enable-background:new    ;}
	.st2{fill:url(#SVGID_1_);}
	.st3{fill:url(#SVGID_2_);}
	.st4{fill:none;stroke:#009632;stroke-miterlimit:10;}
	.st5{fill:url(#SVGID_3_);}
	.st6{fill:url(#SVGID_4_);}
	.st7{opacity:0.15;fill:#FFC000;enable-background:new    ;}
	.st8{fill:url(#SVGID_5_);}
	.st9{fill:none;stroke:#FFC000;stroke-miterlimit:10;}
	.st10{fill:url(#SVGID_6_);}
	.st11{fill:url(#SVGID_7_);}
	.st12{fill:url(#SVGID_8_);}
</style>
<path class="st0" d="M383.1,196.6c-0.1-3.4-1.6-10.9-1.6-10.9l-0.4-3l0,0c0,0-1.5-17.9-1.9-25.5c-0.6-7.6-3.9-16.6-5.4-22.1
	s3.1-17.6-1-32.5c-2.5-9.4,0-18.1-4.9-24.6c-5.5-7-11.5-6.4-13.9-6.6l0,0c-3-0.6-6.1-1-8.4-1.9c-4.8-2.2-7.9-4.3-10.9-5.8
	c-2.1-0.9-2.1-7-2.1-10.6c1.6-1,3-2.1,3.6-3.1c1-1.5,1.6-6,2.1-10.2c0.4,0.1,0.9,0,1.6-0.4c1.9-0.9,2.5-6.4,1.3-8.7
	c-0.1-0.1-0.1-0.4-0.4-0.6c0.4-5.5,1.3-14.6-1.5-18.8c-3.9-6-13-6.1-15.8-6.6c-3.9-0.4-11-0.1-13,4.3c-8.4,0.9-7.5,13.9-6.1,20.9
	c-0.1,0.1-0.1,0.1-0.1,0.6c-1.3,2.5-0.6,7.9,1.3,8.7c0.9,0.4,1.5,0.6,1.6,0.4c0.4,4,1.3,8.5,2.1,10.2c0.6,1,1.9,2.1,3.6,3.1
	c0.1,3.6-0.1,9.9-2.1,10.6c-3,1.3-6,3.4-11,5.8c-2.1,0.9-5.4,1.5-8.4,1.9c-2.5,0.1-8.5-0.4-13.9,6.6c-4.9,6.6-2.5,15.4-4.9,24.6
	c-4.5,14.9,0.1,27-1.3,32.5s-4.6,14.5-5.4,22.1c-0.6,7.6-1.9,25.5-1.9,25.5l0,0l-0.4,3c0,0-1.5,7.5-1.6,10.9
	c-0.1,2.1,0.1,5.8,1.6,8.7c2.5,5.4,8.1,9.1,8.1,9.1c0.6,0.9,4.9,1.3,2.5-1.6c-4.5-5.8-4.9-9.9-4.9-9.9s-0.6-4.6,0.9-4.6
	c1-0.1,2.1,2.4,2.5,3.6c0.9,2.1,1,5.8,2.5,4.9c0.6-0.1,0.4-1,0.1-2.4c0-0.6,0.1-1.9,0.1-2.5c-0.1-0.6-0.9-3.9-1.3-4.6
	c-0.1-1-1.5-4.6-1.9-5.8c-0.4-1-0.9-3-0.6-4.6c0.1-1.5,2.5-10.2,3.9-13c0.9-1.9,9.6-13.9,11-37.3c0.4-5.5,1.6-13.4,2.5-20.9
	c0.6,3.4,1.3,6.9,1.5,9.4c0.1,7.9,2.5,19,1.9,24.9c-1.5,13.4-4.9,13-4.9,35.1c0,14.5-0.6,41.8,7,74c1,4.6,0.1,11.3-0.6,16.1
	c-1,9.1,1.5,21.3,7,49c5.4,26.6-11,23.4-8.1,29.9c1.3,2.5,16.1,1.6,20.9,1.5c1.5-0.1,2.5-1.3,2.5-2.5c0.1-1.5-0.6-3-1.9-7
	c-1.5-4.6-0.9-11.6-0.9-11.6s3-43,3-49.1c0-7-0.6-11.5-1-14.3c-0.4-2.4-0.6-4.6,0-7c4.3-19.4,4.3-68.8,4.3-68.8h4.6
	c0,0,0.1,49.4,4.3,68.8c0.6,2.4,0.4,4.6,0,7c-0.6,2.8-1,7.5-1,14.3c0,6.1,3,49.1,3,49.1s0.6,7-0.9,11.6c-1.3,4-1.9,5.8-1.9,7
	c0.1,1.5,1.3,2.5,2.5,2.5c4.6,0.1,19.6,1,20.9-1.5c2.8-6.1-13.6-3.1-8.1-29.9c5.8-27.6,8.1-39.6,7-49c-0.6-4.9-1.5-11.3-0.6-16.1
	c7.5-32.1,7-59.4,7-74c0-22.1-3.4-21.6-4.9-35.1c-0.6-5.8,1.6-17,1.9-24.9c0.1-2.5,0.6-6,1.5-9.4c0.9,7.5,2.1,15.4,2.5,20.9
	c1.5,23.4,10.9,36,11.6,37.6c0.9,2.1,3.4,10.9,3.4,12.5c0.1,1.5-0.1,3.4-0.6,4.6c-0.1,1-1.6,4.6-1.9,5.8c-0.1,1-1,4-1.3,4.6
	c-0.1,0.6,0.1,1.9,0.1,2.5c-0.1,1.5-0.1,2.1,0.1,2.4c1.5,0.6,1.9-2.8,2.5-4.9c0.4-1.3,1.5-3.6,2.5-3.6c1.3,0.1,0.9,4.6,0.9,4.6
	s-0.6,3.9-4.9,9.9c-2.1,3,1.9,2.5,2.5,1.6c0,0,5.4-4,8.1-9.1C382.7,202.4,383.1,199,383.1,196.6z"/>
<path class="st0" d="M480.3,147.3c-2.8-4.9-2.5-13.9-1.6-19.4l2.1-12.1c0,0,1.6,16.4,4.6,24.9c3.9,10.6,9.1,28.1,11.6,41.5
	c0.4,1.3,0.6,2.4,0.9,3.1c0.4,2.4-0.4,3.6-0.6,4.6c-0.1,1-1.6,4.6-1.9,5.8c-0.1,1-1,4-1,4.6c-0.1,0.6,0.1,1.9,0,2.5
	c0,1.5-0.4,2.1,0.1,2.4c1.5,0.9,1.9-2.8,2.8-5.1c0.4-1.3,1.5-3.6,2.5-3.6c1.3,0,0.6,4.9,0.6,4.9s0.6,2.5-3.6,8.5
	c-2.4,3,1.9,2.5,2.8,1.9c0,0,4.3-2.8,6.9-8.1c1.9-2.4,2.5-6,2.4-8.4c-0.1-3.4-1.6-10.9-1.6-10.9l-0.4-3l0.1,0.1
	c0,0-1.5-18.1-2.1-25.5c-0.6-7.6-4-17.9-5.5-23.4c-1.5-5.8-2.4-16.6-2.5-29.9c-0.4-13.6-1.6-24.3-4.3-27.5c-3-3.9-8.5-4.9-10.6-5.5
	c-1.6-0.4-3.6-0.9-5.5-1.3c0,0,0,0,0-0.1c2.5-6.4,2.5-13.6,0.1-20.2c-0.6-1.9-1.5-3.6-1.9-5.8c-0.6-3-0.4-6-0.6-9
	c-0.1-5.4-0.6-12.1-3.1-17c-2.1-3.9-5.1-7.9-9.9-8.4c-1-0.1-1.5,0.1-2.5-0.4c-1-0.6-3-2.4-6.1-3c-9.4-1.5-17.5,4-21.3,12.5
	c-3,6.1-3,13.1-3,20.2c0.1,3,0.1,5.8-1,8.4c-1.6,3.9-5.8,5.8-8.1,9.1c-1.9,2.5-2.5,6.1-2.5,9.4c-0.1,2.1,0,4.3,0.6,6.4
	c-1,0.6-2.4,1.3-3.1,1.9c-0.1,0.1-0.1,0.1-0.6,0.6c-0.1,0.1-0.1,0.1-0.4,0.4l-0.1,0.1c-0.1,0.1-0.1,0.1-0.1,0.4s-0.1,0.1-0.1,0.1
	c-0.1,0.1-0.1,0.4-0.4,0.6c-2.5,3.1-3.9,14.3-4,27.9c-0.1,13.4-0.9,24.3-2.4,29.9c-1.5,5.8-5.1,15.8-5.4,23.4c0,0.1,0,0.1,0,0.6v0.1
	c0,0.1,0,0.4,0,0.6v0.1c0,0.1,0,0.1,0,0.6v0.1c0,0.1,0,0.4,0,0.6v0.1c0,0.1,0,0.4,0,0.6v0.1c0,0.1,0,0.4,0,0.6c0,0.1,0,0.1,0,0.1
	c0,0.1,0,0.4,0,0.6c0,0.1,0,0.6,0,0.6v0.1c0,0.1,0,0.6,0,0.6c0,0.1,0,0.6,0,0.9c0,0.6,0,1-0.1,1.5v0.1c0,0.9-0.1,1.5-0.1,2.5
	c0,0.1,0,0.6,0,0.9c-0.4,7-1,13.6-1,13.6l-0.4,3c0,0-1.5,7.2-1.6,10.9c-0.1,2.1,0.4,5.8,1.9,8.7c2.8,5.4,6.9,7.9,6.9,7.9
	c0.6,0.6,4.9,1,2.8-1.9c-4.5-5.8-3.9-8.5-3.9-8.5s-0.6-4.6,0.6-4.9c1,0,2.4,2.4,2.8,3.6c0.9,2.4,1.3,5.8,2.8,5.1
	c0.6-0.1,0.1-1,0.1-2.4c-0.1-0.6,0.1-1.9,0-2.5c-0.1-0.6-0.9-3.9-1-4.6c-0.1-1-1.6-4.6-2.1-5.8c-0.4-1-0.6-3-0.6-4.6
	s2.8-10.6,3.1-12.4c0.4-1.6,11.3-27.3,11.5-37.9c0.1-5.4,2.4-13.4,2.5-21c1,5.4,2.1,11.3,3,13.9c1,3.6,1.5,12.1-1.5,18.4
	c-0.1,0.4-0.4,0.6-0.6,1c-0.9,1.5-1.6,3-2.5,4.6c-7.5,14.5-8.1,27-8.1,36c0,1.5,0.1,3,0.1,4.6c0-0.1,0-0.4,0-0.6
	c0.4,5.4,1.5,13,3.6,25.5c-0.1-0.9-0.1-1.3-0.1-1.3c1.6,10.2,4.3,23.4,7.5,42.1c0.9,4.6,1,9.6,0.6,14.5c-0.9,9,0.1,21.6,5.8,49.1
	c2.1,11.3,1.3,17.5-0.6,21.3c-2.5,5.4-6.9,6.1-5.4,9.9c2.1,2.5,13,1.6,17.5,1.5c1.3-0.1,2.4-0.1,3-1.9c0.6-1.3,0.6-2.1-1.6-7.5
	c-1.5-3.1-1.3-8.5-1.3-8.5s3.4-46.1,3.4-52.8c0-6.4-0.4-11-0.9-13.9c-0.6-3-0.6-5.8-0.1-8.5c0.6-4.3,1-10.2,1.5-16.6
	c0,0.1,0,0.4,0,0.6c2.5-33.1,3.1-54.8,3.1-54.8h3.9l0.1-0.1c0,0,1.3,50,4.3,70.9c0.4,2.8,0.4,5.8,0,8.5c-0.4,3-0.9,7.5-0.9,13.9
	c0,6.1,3,49.1,3,49.1s0.4,4.9-0.1,9.4c-0.1,0.1-0.1,0.6-0.1,0.9c0,0,0.1-0.6,0.1-1.3c-0.1,0.9-0.1,1.6-0.6,2.5c-1.3,4-1.9,5.8-1.9,7
	c0.1,1.5,1.3,2.5,2.5,2.5c4.6,0.1,16.6,1.3,17.9-1.5c3-6.1-12.8-4.3-6.1-31.3c6.6-27.3,7.5-40.3,6.1-49.1c-0.6-4.9-0.6-9.9,0.1-14.5
	c6-39.4,12.1-56.9,12.1-71.5C489.8,166,480.3,147.3,480.3,147.3z"/>
<circle class="st1" cx="452.8" cy="26.7" r="16.9"/>
<g>
	
		<linearGradient id="SVGID_1_" gradientUnits="userSpaceOnUse" x1="452.6767" y1="405.7476" x2="452.6767" y2="379.0615" gradientTransform="matrix(1 0 0 -1 0 419.1245)">
		<stop  offset="0" style="stop-color:#009632;stop-opacity:0.2"/>
		<stop  offset="1" style="stop-color:#009632"/>
	</linearGradient>
	<path class="st2" d="M465.5,26.7c0-1.2,0.9-2.5,0.6-3.6c-0.3-1.2-1.8-1.8-2.2-2.8c-0.6-1-0.4-2.5-1.3-3.4c-0.7-0.7-2.4-0.7-3.4-1.3
		c-1-0.6-1.6-1.9-2.8-2.2c-1-0.3-2.4,0.6-3.6,0.6c-1.2,0-2.5-0.9-3.6-0.6c-1.2,0.3-1.8,1.8-2.8,2.2c-1,0.6-2.5,0.4-3.4,1.3
		c-0.7,0.7-0.7,2.4-1.3,3.4c-0.6,1-1.9,1.6-2.2,2.8c-0.3,1,0.6,2.4,0.6,3.6c0,1.2-0.9,2.5-0.6,3.6c0.3,1.2,1.8,1.8,2.2,2.8
		c0.6,1,0.4,2.5,1.3,3.4c0.7,0.7,2.4,0.7,3.4,1.3c1,0.6,1.6,1.9,2.8,2.2c1,0.3,2.4-0.6,3.6-0.6c1.2,0,2.5,0.9,3.6,0.6
		c1.2-0.3,1.8-1.8,2.8-2.2c1-0.6,2.5-0.4,3.4-1.3c0.7-0.7,0.7-2.4,1.3-3.4s1.9-1.6,2.2-2.8C466.4,29.3,465.5,27.9,465.5,26.7z"/>
</g>
<circle class="st1" cx="452.8" cy="163.4" r="16.9"/>
<linearGradient id="SVGID_2_" gradientUnits="userSpaceOnUse" x1="452.8259" y1="242.4738" x2="452.8259" y2="268.9147" gradientTransform="matrix(1 0 0 -1 0 419.1245)">
	<stop  offset="0" style="stop-color:#009632;stop-opacity:0.2"/>
	<stop  offset="1" style="stop-color:#009632"/>
</linearGradient>
<circle class="st3" cx="452.8" cy="163.4" r="13.3"/>
<path class="st4" d="M455.5,39.4c0,7.9-5.2,7.9-5.2,15.7c0,7.9,5.2,7.9,5.2,15.7c0,7.9-5.2,7.9-5.2,15.7c0,7.9,5.2,7.9,5.2,15.7
	c0,7.9-5.2,7.9-5.2,15.8c0,7.9,5.2,7.9,5.2,15.7c0,7.9-5.2,9.1-5.2,17"/>
<path class="st4" d="M450.3,39.4c0,7.9,5.2,7.9,5.2,15.7c0,7.9-5.2,7.9-5.2,15.7c0,7.9,5.2,7.9,5.2,15.7c0,7.9-5.2,7.9-5.2,15.7
	c0,7.9,5.2,7.9,5.2,15.8c0,7.9-5.2,7.9-5.2,15.7c0,7.9,5.2,9.1,5.2,17"/>
<circle class="st1" cx="322.3" cy="26.7" r="16.9"/>
<g>
	
		<linearGradient id="SVGID_3_" gradientUnits="userSpaceOnUse" x1="322.1958" y1="405.7476" x2="322.1958" y2="379.0615" gradientTransform="matrix(1 0 0 -1 0 419.1245)">
		<stop  offset="0" style="stop-color:#009632;stop-opacity:0.2"/>
		<stop  offset="1" style="stop-color:#009632"/>
	</linearGradient>
	<path class="st5" d="M335,26.7c0-1.2,0.9-2.5,0.6-3.6c-0.3-1.2-1.8-1.8-2.2-2.8c-0.6-1-0.4-2.5-1.3-3.4c-0.7-0.7-2.4-0.7-3.4-1.3
		c-1-0.6-1.6-1.9-2.8-2.2c-1-0.3-2.4,0.6-3.6,0.6s-2.5-0.9-3.6-0.6c-1.2,0.3-1.8,1.8-2.8,2.2c-1,0.6-2.5,0.4-3.4,1.3
		c-0.7,0.7-0.7,2.4-1.3,3.4c-0.6,1-1.9,1.6-2.2,2.8c-0.3,1,0.6,2.4,0.6,3.6c0,1.2-0.9,2.5-0.6,3.6c0.3,1.2,1.8,1.8,2.2,2.8
		c0.6,1,0.4,2.5,1.3,3.4c0.7,0.7,2.4,0.7,3.4,1.3c1,0.6,1.6,1.9,2.8,2.2c1,0.3,2.4-0.6,3.6-0.6s2.5,0.9,3.6,0.6
		c1.2-0.3,1.8-1.8,2.8-2.2c1-0.6,2.5-0.4,3.4-1.3c0.7-0.7,0.7-2.4,1.3-3.4s1.9-1.6,2.2-2.8C335.9,29.3,335,27.9,335,26.7z"/>
</g>
<circle class="st1" cx="322.3" cy="163.4" r="16.9"/>
<linearGradient id="SVGID_4_" gradientUnits="userSpaceOnUse" x1="322.345" y1="242.4738" x2="322.345" y2="268.9147" gradientTransform="matrix(1 0 0 -1 0 419.1245)">
	<stop  offset="0" style="stop-color:#009632;stop-opacity:0.2"/>
	<stop  offset="1" style="stop-color:#009632"/>
</linearGradient>
<circle class="st6" cx="322.3" cy="163.4" r="13.3"/>
<path class="st4" d="M325,39.4c0,7.9-5.2,7.9-5.2,15.7c0,7.9,5.2,7.9,5.2,15.7c0,7.9-5.2,7.9-5.2,15.7c0,7.9,5.2,7.9,5.2,15.7
	c0,7.9-5.2,7.9-5.2,15.8c0,7.9,5.2,7.9,5.2,15.7c0,7.9-5.2,9.1-5.2,17"/>
<path class="st4" d="M319.8,39.4c0,7.9,5.2,7.9,5.2,15.7c0,7.9-5.2,7.9-5.2,15.7c0,7.9,5.2,7.9,5.2,15.7c0,7.9-5.2,7.9-5.2,15.7
	c0,7.9,5.2,7.9,5.2,15.8c0,7.9-5.2,7.9-5.2,15.7c0,7.9,5.2,9.1,5.2,17"/>
<path class="st0" d="M122.4,196.6c-0.1-3.4-1.6-10.9-1.6-10.9l-0.4-3l0,0c0,0-1.5-17.9-1.9-25.5c-0.6-7.6-3.9-16.6-5.4-22.1
	c-1.5-5.5,3.1-17.6-1-32.5c-2.5-9.4,0-18.1-4.9-24.6c-5.5-7-11.5-6.4-13.9-6.6l0,0c-3-0.6-6.1-1-8.4-1.9c-4.8-2.2-7.9-4.3-10.9-5.8
	c-2.1-0.9-2.1-7-2.1-10.6c1.6-1,3-2.1,3.6-3.1c1-1.5,1.6-6,2.1-10.2c0.4,0.1,0.9,0,1.6-0.4c1.9-0.9,2.5-6.4,1.3-8.7
	c-0.1-0.1-0.1-0.4-0.4-0.6c0.4-5.5,1.3-14.6-1.5-18.8c-3.9-6-13-6.1-15.8-6.6c-3.9-0.4-11-0.1-13,4.3c-8.4,0.9-7.5,13.9-6.1,20.9
	c-0.1,0.1-0.1,0.1-0.1,0.6c-1.3,2.5-0.6,7.9,1.3,8.7c0.9,0.4,1.5,0.6,1.6,0.4c0.4,4,1.3,8.5,2.1,10.2c0.6,1,1.9,2.1,3.6,3.1
	c0.1,3.6-0.1,9.9-2.1,10.6c-3,1.3-6,3.4-11,5.8c-2.1,0.9-5.4,1.5-8.4,1.9c-2.5,0.1-8.5-0.4-13.9,6.6c-4.9,6.6-2.5,15.4-4.9,24.6
	c-4.5,14.9,0.1,27-1.3,32.5S5.8,149.4,5.1,157c-0.6,7.6-1.9,25.5-1.9,25.5l0,0l-0.4,3c0,0-1.5,7.5-1.6,10.9
	c-0.1,2.1,0.1,5.8,1.6,8.7c2.5,5.4,8.1,9.1,8.1,9.1c0.6,0.9,4.9,1.3,2.5-1.6c-4.5-5.8-4.9-9.9-4.9-9.9s-0.6-4.6,0.9-4.6
	c1-0.1,2.1,2.4,2.5,3.6c0.9,2.1,1,5.8,2.5,4.9c0.6-0.1,0.4-1,0.1-2.4c0-0.6,0.1-1.9,0.1-2.5c-0.1-0.6-0.9-3.9-1.3-4.6
	c-0.1-1-1.5-4.6-1.9-5.8c-0.4-1-0.9-3-0.6-4.6c0.1-1.5,2.5-10.2,3.9-13c0.9-1.9,9.6-13.9,11-37.3c0.4-5.5,1.6-13.4,2.5-20.9
	c0.6,3.4,1.3,6.9,1.5,9.4c0.1,7.9,2.5,19,1.9,24.9c-1.5,13.4-4.9,13-4.9,35.1c0,14.5-0.6,41.8,7,74c1,4.6,0.1,11.3-0.6,16.1
	c-1,9.1,1.5,21.3,7,49c5.4,26.6-11,23.4-8.1,29.9c1.3,2.5,16.1,1.6,20.9,1.5c1.5-0.1,2.5-1.3,2.5-2.5c0.1-1.5-0.6-3-1.9-7
	c-1.5-4.6-0.9-11.6-0.9-11.6s3-43,3-49.1c0-7-0.6-11.5-1-14.3c-0.4-2.4-0.6-4.6,0-7c4.3-19.4,4.3-68.8,4.3-68.8h4.6
	c0,0,0.1,49.4,4.3,68.8c0.6,2.4,0.4,4.6,0,7c-0.6,2.8-1,7.5-1,14.3c0,6.1,3,49.1,3,49.1s0.6,7-0.9,11.6c-1.3,4-1.9,5.8-1.9,7
	c0.1,1.5,1.3,2.5,2.5,2.5c4.6,0.1,19.6,1,20.9-1.5c2.8-6.1-13.6-3.1-8.1-29.9c5.8-27.6,8.1-39.6,7-49c-0.6-4.9-1.5-11.3-0.6-16.1
	c7.5-32.1,7-59.4,7-74c0-22.1-3.4-21.6-4.9-35.1c-0.6-5.8,1.6-17,1.9-24.9c0.1-2.5,0.6-6,1.5-9.4c0.9,7.5,2.1,15.4,2.5,20.9
	c1.5,23.4,10.9,36,11.6,37.6c0.9,2.1,3.4,10.9,3.4,12.5c0.1,1.5-0.1,3.4-0.6,4.6c-0.1,1-1.6,4.6-1.9,5.8c-0.1,1-1,4-1.3,4.6
	c-0.1,0.6,0.1,1.9,0.1,2.5c-0.1,1.5-0.1,2.1,0.1,2.4c1.5,0.6,1.9-2.8,2.5-4.9c0.4-1.3,1.5-3.6,2.5-3.6c1.3,0.1,0.9,4.6,0.9,4.6
	s-0.6,3.9-4.9,9.9c-2.1,3,1.9,2.5,2.5,1.6c0,0,5.4-4,8.1-9.1C122,202.4,122.4,199,122.4,196.6z"/>
<path class="st0" d="M219.7,147.3c-2.8-4.9-2.5-13.9-1.6-19.4l2.1-12.1c0,0,1.6,16.4,4.6,24.9c3.9,10.6,9.1,28.1,11.6,41.5
	c0.4,1.3,0.6,2.4,0.9,3.1c0.4,2.4-0.4,3.6-0.6,4.6c-0.1,1-1.6,4.6-1.9,5.8c-0.1,1-1,4-1,4.6c-0.1,0.6,0.1,1.9,0,2.5
	c0,1.5-0.4,2.1,0.1,2.4c1.5,0.9,1.9-2.8,2.8-5.1c0.4-1.3,1.5-3.6,2.5-3.6c1.3,0,0.6,4.9,0.6,4.9s0.6,2.5-3.6,8.5
	c-2.4,3,1.9,2.5,2.8,1.9c0,0,4.3-2.8,6.9-8.1c1.9-2.4,2.5-6,2.4-8.4c-0.1-3.4-1.6-10.9-1.6-10.9l-0.4-3l0.1,0.1
	c0,0-1.5-18.1-2.1-25.5c-0.6-7.6-4-17.9-5.5-23.4c-1.5-5.8-2.4-16.6-2.5-29.9c-0.4-13.6-1.6-24.3-4.3-27.5c-3-3.9-8.5-4.9-10.6-5.5
	c-1.6-0.4-3.6-0.9-5.5-1.3c0,0,0,0,0-0.1c2.5-6.4,2.5-13.6,0.1-20.2c-0.6-1.9-1.5-3.6-1.9-5.8c-0.6-3-0.4-6-0.6-9
	c-0.1-5.4-0.6-12.1-3.1-17c-2.1-3.9-5.1-7.9-9.9-8.4c-1-0.1-1.5,0.1-2.5-0.4s-3-2.4-6.1-3c-9.4-1.5-17.5,4-21.3,12.5
	c-3,6.1-3,13.1-3,20.2c0.1,3,0.1,5.8-1,8.4c-1.6,3.9-5.8,5.8-8.1,9.1c-1.9,2.5-2.5,6.1-2.5,9.4c-0.1,2.1,0,4.3,0.6,6.4
	c-1,0.6-2.4,1.3-3.1,1.9c-0.1,0.1-0.1,0.1-0.6,0.6c-0.1,0.1-0.1,0.1-0.4,0.4L152,74c-0.6,0.1-0.6,0.1-0.6,0.4s-0.1,0.1-0.1,0.1
	c-0.1,0.1-0.1,0.4-0.4,0.6c-2.5,3.1-3.9,14.3-4,27.9c-0.1,13.4-0.9,24.3-2.4,29.9c-1.5,5.8-5.1,15.8-5.4,23.4c0,0.1,0,0.1,0,0.6v0.1
	c0,0.1,0,0.4,0,0.6v0.1c0,0.1,0,0.1,0,0.6v0.1c0,0.1,0,0.4,0,0.6v0.1c0,0.1,0,0.4,0,0.6v0.1c0,0.1,0,0.4,0,0.6c0,0.1,0,0.1,0,0.1
	c0,0.1,0,0.4,0,0.6c0,0.1,0,0.6,0,0.6v0.1c0,0.1,0,0.6,0,0.6c0,0.1,0,0.6,0,0.9c0,0.6,0,1-0.1,1.5v0.1c0,0.9-0.1,1.5-0.1,2.5
	c0,0.1,0,0.6,0,0.9c-0.4,7-1,13.6-1,13.6l-0.4,3c0,0-1.5,7.2-1.6,10.9c-0.1,2.1,0.4,5.8,1.9,8.7c2.8,5.4,6.9,7.9,6.9,7.9
	c0.6,0.6,4.9,1,2.8-1.9c-4.5-5.8-3.9-8.5-3.9-8.5s-0.6-4.6,0.6-4.9c1,0,2.4,2.4,2.8,3.6c0.9,2.4,1.3,5.8,2.8,5.1
	c0.6-0.1,0.1-1,0.1-2.4c-0.1-0.6,0.1-1.9,0-2.5c-0.1-0.6-0.9-3.9-1-4.6c-0.1-1-1.6-4.6-2.1-5.8c-0.4-1-0.6-3-0.6-4.6
	s2.8-10.6,3.1-12.4c0.4-1.6,11.3-27.3,11.5-37.9c0.1-5.4,2.4-13.4,2.5-21c1,5.4,2.1,11.3,3,13.9c1,3.6,1.5,12.1-1.5,18.4
	c-0.1,0.4-0.4,0.6-0.6,1c-0.9,1.5-1.6,3-2.5,4.6c-7.5,14.5-8.1,27-8.1,36c0,1.5,0.1,3,0.1,4.6c0-0.1,0-0.4,0-0.6
	c0.4,5.4,1.5,13,3.6,25.5c-0.1-0.9-0.1-1.3-0.1-1.3c1.6,10.2,4.3,23.4,7.5,42.1c0.9,4.6,1,9.6,0.6,14.5c-0.9,9,0.1,21.6,5.8,49.1
	c2.1,11.3,1.3,17.5-0.6,21.3c-2.5,5.4-6.9,6.1-5.4,9.9c2.1,2.5,13,1.6,17.5,1.5c1.3-0.1,2.4-0.1,3-1.9c0.6-1.3,0.6-2.1-1.6-7.5
	c-1.5-3.1-1.3-8.5-1.3-8.5s3.4-46.1,3.4-52.8c0-6.4-0.4-11-0.9-13.9c-0.6-3-0.6-5.8-0.1-8.5c0.6-4.3,1-10.2,1.5-16.6
	c0,0.1,0,0.4,0,0.6c2.5-33.1,3.1-54.8,3.1-54.8h3.9l0.1-0.1c0,0,1.3,50,4.3,70.9c0.4,2.8,0.4,5.8,0,8.5c-0.4,3-0.9,7.5-0.9,13.9
	c0,6.1,3,49.1,3,49.1s0.4,4.9-0.1,9.4c-0.1,0.1-0.1,0.6-0.1,0.9c0,0,0.1-0.6,0.1-1.3c-0.1,0.9-0.1,1.6-0.6,2.5c-1.3,4-1.9,5.8-1.9,7
	c0.1,1.5,1.3,2.5,2.5,2.5c4.6,0.1,16.6,1.3,17.9-1.5c3-6.1-12.8-4.3-6.1-31.3c6.6-27.3,7.5-40.3,6.1-49.1c-0.6-4.9-0.6-9.9,0.1-14.5
	c6-39.4,12.1-56.9,12.1-71.5C229.2,166,219.7,147.3,219.7,147.3z"/>
<circle class="st7" cx="192" cy="26.7" r="16.9"/>
<g>
	
		<linearGradient id="SVGID_5_" gradientUnits="userSpaceOnUse" x1="191.8297" y1="405.7476" x2="191.8297" y2="379.0615" gradientTransform="matrix(1 0 0 -1 0 419.1245)">
		<stop  offset="0" style="stop-color:#FFC000;stop-opacity:0.3"/>
		<stop  offset="1" style="stop-color:#FFC000"/>
	</linearGradient>
	<path class="st8" d="M204.7,26.7c0-1.2,0.9-2.5,0.6-3.6c-0.3-1.2-1.8-1.8-2.2-2.8c-0.6-1-0.4-2.5-1.3-3.4c-0.7-0.7-2.4-0.7-3.4-1.3
		s-1.6-1.9-2.8-2.2c-1-0.3-2.4,0.6-3.6,0.6s-2.5-0.9-3.6-0.6c-1.2,0.3-1.8,1.8-2.8,2.2c-1,0.6-2.5,0.4-3.4,1.3
		c-0.7,0.7-0.7,2.4-1.3,3.4c-0.6,1-1.9,1.6-2.2,2.8c-0.3,1,0.6,2.4,0.6,3.6c0,1.2-0.9,2.5-0.6,3.6c0.3,1.2,1.8,1.8,2.2,2.8
		c0.6,1,0.4,2.5,1.3,3.4c0.7,0.7,2.4,0.7,3.4,1.3c1,0.6,1.6,1.9,2.8,2.2c1,0.3,2.4-0.6,3.6-0.6c1.2,0,2.5,0.9,3.6,0.6
		c1.2-0.3,1.8-1.8,2.8-2.2c1-0.6,2.5-0.4,3.4-1.3c0.7-0.7,0.7-2.4,1.3-3.4c0.6-1,1.9-1.6,2.2-2.8C205.6,29.3,204.7,27.9,204.7,26.7z
		"/>
</g>
<path class="st4" d="M194.5,39.4c0,7.9-5.2,7.9-5.2,15.7c0,7.9,5.2,7.9,5.2,15.7c0,7.9-5.2,7.9-5.2,15.7c0,7.9,5.2,7.9,5.2,15.7
	c0,7.9-5.2,7.9-5.2,15.8c0,7.9,5.2,7.9,5.2,15.7c0,7.9-5.2,9.1-5.2,17"/>
<path class="st9" d="M189.4,39.4c0,7.9,5.2,7.9,5.2,15.7c0,7.9-5.2,7.9-5.2,15.7c0,7.9,5.2,7.9,5.2,15.7c0,7.9-5.2,7.9-5.2,15.7
	c0,7.9,5.2,7.9,5.2,15.8c0,7.9-5.2,7.9-5.2,15.7c0,7.9,5.2,9.1,5.2,17"/>
<circle class="st7" cx="61.7" cy="26.7" r="16.9"/>
<g>
	
		<linearGradient id="SVGID_6_" gradientUnits="userSpaceOnUse" x1="61.5899" y1="405.7476" x2="61.5899" y2="379.0615" gradientTransform="matrix(1 0 0 -1 0 419.1245)">
		<stop  offset="0" style="stop-color:#FFC000;stop-opacity:0.3"/>
		<stop  offset="1" style="stop-color:#FFC000"/>
	</linearGradient>
	<path class="st10" d="M74.4,26.7c0-1.2,0.9-2.5,0.6-3.6c-0.3-1.2-1.8-1.8-2.2-2.8c-0.6-1-0.4-2.5-1.3-3.4c-0.7-0.7-2.4-0.7-3.4-1.3
		c-1-0.6-1.6-1.9-2.8-2.2c-1-0.3-2.4,0.6-3.6,0.6c-1.2,0-2.5-0.9-3.6-0.6c-1.2,0.3-1.8,1.8-2.8,2.2c-1,0.6-2.5,0.4-3.4,1.3
		c-0.7,0.7-0.7,2.4-1.3,3.4c-0.6,1-1.9,1.6-2.2,2.8c-0.3,1,0.6,2.4,0.6,3.6c0,1.2-0.9,2.5-0.6,3.6c0.3,1.2,1.8,1.8,2.2,2.8
		c0.6,1,0.4,2.5,1.3,3.4c0.7,0.7,2.4,0.7,3.4,1.3c1,0.6,1.6,1.9,2.8,2.2c1,0.3,2.4-0.6,3.6-0.6c1.2,0,2.5,0.9,3.6,0.6
		c1.2-0.3,1.8-1.8,2.8-2.2c1-0.6,2.5-0.4,3.4-1.3c0.7-0.7,0.7-2.4,1.3-3.4s1.9-1.6,2.2-2.8C75.3,29.3,74.4,27.9,74.4,26.7z"/>
</g>
<circle class="st7" cx="61.7" cy="163.4" r="16.9"/>
<linearGradient id="SVGID_7_" gradientUnits="userSpaceOnUse" x1="61.7391" y1="242.4738" x2="61.7391" y2="268.9147" gradientTransform="matrix(1 0 0 -1 0 419.1245)">
	<stop  offset="0" style="stop-color:#FFC000;stop-opacity:0.3"/>
	<stop  offset="1" style="stop-color:#FFC000"/>
</linearGradient>
<circle class="st11" cx="61.7" cy="163.4" r="13.3"/>
<path class="st9" d="M64.3,39.4c0,7.9-5.2,7.9-5.2,15.7c0,7.9,5.2,7.9,5.2,15.7c0,7.9-5.2,7.9-5.2,15.7c0,7.9,5.2,7.9,5.2,15.7
	c0,7.9-5.2,7.9-5.2,15.8c0,7.9,5.2,7.9,5.2,15.7c0,7.9-5.2,9.1-5.2,17"/>
<path class="st9" d="M59.2,39.4c0,7.9,5.2,7.9,5.2,15.7c0,7.9-5.2,7.9-5.2,15.7c0,7.9,5.2,7.9,5.2,15.7c0,7.9-5.2,7.9-5.2,15.7
	c0,7.9,5.2,7.9,5.2,15.8c0,7.9-5.2,7.9-5.2,15.7c0,7.9,5.2,9.1,5.2,17"/>
<circle class="st1" cx="192.1" cy="163.4" r="16.9"/>
<linearGradient id="SVGID_8_" gradientUnits="userSpaceOnUse" x1="192.0536" y1="242.4738" x2="192.0536" y2="268.9147" gradientTransform="matrix(1 0 0 -1 0 419.1245)">
	<stop  offset="0" style="stop-color:#009632;stop-opacity:0.2"/>
	<stop  offset="1" style="stop-color:#009632"/>
</linearGradient>
<circle class="st12" cx="192.1" cy="163.4" r="13.3"/>
</svg>
