<?xml version="1.0" encoding="utf-8"?>
<!-- Generator: Adobe Illustrator 22.0.0, SVG Export Plug-In . SVG Version: 6.00 Build 0)  -->
<svg version="1.1" id="Layer_1" xmlns="http://www.w3.org/2000/svg" xmlns:xlink="http://www.w3.org/1999/xlink" x="0px" y="0px"
	 viewBox="0 0 360 360" style="enable-background:new 0 0 360 360;" xml:space="preserve">
<style type="text/css">
	.st0{opacity:0.1;}
	.st1{fill:#FB3942;}
	.st2{opacity:0.3;}
	.st3{opacity:0.8;}
	.st4{fill:url(#SVGID_1_);}
	.st5{fill:#FFFFFF;}
</style>
<g class="st0">
	<path class="st1" d="M351.2,263.1c0-1.6,5.4-3.3,5.3-4.9s-5.7-2.5-5.9-4.1c-0.2-1.6,4.8-4.1,4.5-5.6s-6-1.6-6.5-3.1
		s4.2-4.8,3.6-6.2c-0.6-1.5-6.2-0.7-6.9-2.1c-0.7-1.4,3.4-5.3,2.6-6.7s-6.2,0.2-7.1-1.1s2.6-5.8,1.6-7s-6.1,1.1-7.2,0
		s1.7-6.1,0.5-7.2c-1.1-1.1-5.9,2-7.1,1.1c-1.2-1,0.8-6.3-0.5-7.2s-5.5,2.9-6.9,2.1c-1.3-0.8-0.2-6.3-1.6-7s-5,3.7-6.5,3.1
		c-1.4-0.6-1.1-6.2-2.6-6.7s-4.4,4.4-5.9,4c-1.5-0.3-2-6-3.6-6.2c-1.5-0.2-3.7,5-5.3,4.9c-1.5-0.1-2.9-5.6-4.5-5.6s-2.9,5.5-4.5,5.6
		s-3.7-5.1-5.3-4.9c-1.6,0.2-2.1,5.9-3.6,6.2s-4.4-4.5-5.9-4s-1.2,6.1-2.6,6.7c-1.5,0.6-5.1-3.8-6.5-3.1s-0.2,6.2-1.6,7
		s-5.6-3-6.9-2.1c-1.3,0.9,0.7,6.2-0.5,7.2s-6-2.1-7.1-1.1c-1.1,1.1,1.6,6,0.5,7.2c-1.1,1.1-6.2-1.2-7.2,0s2.5,5.7,1.6,7
		s-6.3-0.3-7.1,1.1c-0.8,1.3,3.3,5.3,2.6,6.7s-6.3,0.7-6.9,2.1c-0.6,1.4,4,4.7,3.6,6.2c-0.5,1.5-6.1,1.6-6.5,3.1
		c-0.3,1.5,4.7,4.1,4.5,5.6s-5.8,2.5-5.9,4.1c-0.1,1.5,5.3,3.3,5.3,4.9s-5.4,3.3-5.3,4.9c0.1,1.6,5.7,2.5,5.9,4.1s-4.8,4.1-4.5,5.6
		s6,1.6,6.5,3.1s-4.2,4.8-3.6,6.2c0.6,1.5,6.2,0.7,6.9,2.1s-3.4,5.3-2.6,6.7c0.8,1.4,6.2-0.2,7.1,1.1c0.9,1.3-2.6,5.8-1.6,7
		s6.1-1.1,7.2,0c1.1,1.1-1.7,6.1-0.5,7.2c1.1,1.1,5.9-2,7.1-1.1c1.2,1-0.8,6.3,0.5,7.2c1.3,0.9,5.5-2.9,6.9-2.1
		c1.3,0.8,0.2,6.3,1.6,7s5-3.7,6.5-3.1c1.4,0.6,1.1,6.2,2.6,6.7s4.4-4.4,5.9-4c1.5,0.3,2,6,3.6,6.2c1.5,0.2,3.7-5,5.3-4.9
		c1.5,0.1,2.9,5.6,4.5,5.6s2.9-5.5,4.5-5.6s3.7,5.1,5.3,4.9c1.6-0.2,2.1-5.9,3.6-6.2c1.5-0.3,4.4,4.5,5.9,4s1.2-6.1,2.6-6.7
		c1.5-0.6,5.1,3.8,6.5,3.1c1.4-0.7,0.2-6.2,1.6-7s5.6,3,6.9,2.1s-0.7-6.2,0.5-7.2s6,2.1,7.1,1.1c1.1-1.1-1.6-6-0.5-7.2
		c1.1-1.1,6.2,1.2,7.2,0s-2.5-5.7-1.6-7s6.3,0.3,7.1-1.1c0.8-1.3-3.3-5.3-2.6-6.7c0.7-1.4,6.3-0.7,6.9-2.1s-4-4.7-3.6-6.2
		c0.5-1.5,6.1-1.6,6.5-3.1c0.3-1.5-4.7-4.1-4.5-5.6s5.8-2.5,5.9-4.1S351.2,264.6,351.2,263.1z"/>
</g>
<g class="st2">
	<path class="st1" d="M325.4,263.1c0-0.9,5.4-2,5.3-3c-0.1-0.9-5.6-1.2-5.7-2.1s5-2.8,4.8-3.7s-5.7-0.4-6-1.3
		c-0.3-0.9,4.6-3.5,4.2-4.4c-0.3-0.9-5.7,0.5-6.1-0.3s4-4.2,3.5-5s-5.6,1.3-6.1,0.6c-0.5-0.8,3.3-4.7,2.7-5.4
		c-0.6-0.7-5.3,2.1-5.9,1.5c-0.6-0.7,2.6-5.2,1.9-5.8s-4.9,2.9-5.6,2.3c-0.7-0.6,1.8-5.5,1-6s-4.4,3.6-5.2,3.1
		c-0.8-0.5,0.9-5.7,0.1-6.1c-0.8-0.4-3.8,4.2-4.7,3.9c-0.9-0.3,0.1-5.8-0.8-6c-0.9-0.3-3.2,4.7-4.1,4.5s-0.8-5.7-1.7-5.9
		c-0.9-0.1-2.4,5.2-3.3,5.1c-0.9-0.1-1.6-5.5-2.6-5.5c-0.9,0-1.6,5.5-2.6,5.5c-0.9,0.1-2.4-5.2-3.3-5.1c-0.9,0.1-0.8,5.7-1.7,5.9
		c-0.9,0.2-3.2-4.8-4.1-4.5s0,5.7-0.8,6c-0.9,0.3-3.9-4.3-4.7-3.9c-0.8,0.4,0.9,5.6,0.1,6.1s-4.5-3.7-5.2-3.1c-0.8,0.5,1.7,5.4,1,6
		s-5-2.9-5.6-2.3c-0.7,0.6,2.5,5.1,1.9,5.8s-5.3-2.2-5.9-1.5s3.3,4.7,2.7,5.4c-0.5,0.8-5.6-1.4-6.1-0.6c-0.5,0.8,3.9,4.2,3.5,5
		s-5.8-0.5-6.1,0.3c-0.3,0.9,4.5,3.5,4.2,4.4s-5.8,0.4-6,1.3c-0.2,0.9,5,2.8,4.8,3.7c-0.1,0.9-5.6,1.2-5.7,2.1c-0.1,0.9,5.3,2,5.3,3
		c0,0.9-5.4,2-5.3,3c0.1,0.9,5.6,1.2,5.7,2.1s-5,2.8-4.8,3.7c0.2,0.9,5.7,0.4,6,1.3s-4.6,3.5-4.2,4.4c0.3,0.9,5.7-0.5,6.1,0.3
		s-4,4.2-3.5,5s5.6-1.3,6.1-0.6c0.5,0.8-3.3,4.7-2.7,5.4c0.6,0.7,5.3-2.1,5.9-1.5c0.6,0.7-2.6,5.2-1.9,5.8c0.7,0.6,4.9-2.9,5.6-2.3
		s-1.8,5.5-1,6s4.4-3.6,5.2-3.1c0.8,0.5-0.9,5.7-0.1,6.1s3.8-4.2,4.7-3.9c0.9,0.3-0.1,5.8,0.8,6c0.9,0.3,3.2-4.7,4.1-4.5
		s0.8,5.7,1.7,5.9c0.9,0.1,2.4-5.2,3.3-5.1s1.6,5.5,2.6,5.5c0.9,0,1.6-5.5,2.6-5.5c0.9-0.1,2.4,5.2,3.3,5.1s0.8-5.7,1.7-5.9
		c0.9-0.2,3.2,4.8,4.1,4.5s0-5.7,0.8-6c0.9-0.3,3.9,4.3,4.7,3.9c0.8-0.4-0.9-5.6-0.1-6.1s4.5,3.7,5.2,3.1c0.8-0.5-1.7-5.4-1-6
		s5,2.9,5.6,2.3c0.7-0.6-2.5-5.1-1.9-5.8c0.6-0.7,5.3,2.2,5.9,1.5s-3.3-4.7-2.7-5.4c0.5-0.8,5.6,1.4,6.1,0.6s-3.9-4.2-3.5-5
		s5.8,0.5,6.1-0.3c0.3-0.9-4.5-3.5-4.2-4.4s5.8-0.4,6-1.3s-5-2.8-4.8-3.7c0.1-0.9,5.6-1.2,5.7-2.1
		C330.8,265.1,325.4,264,325.4,263.1z"/>
</g>
<g class="st3">
	
		<radialGradient id="SVGID_1_" cx="315.6286" cy="68.3985" r="27.9905" gradientTransform="matrix(0.9071 0 0 -0.9071 5.0129 325.1443)" gradientUnits="userSpaceOnUse">
		<stop  offset="0" style="stop-color:#FF2832;stop-opacity:0.2"/>
		<stop  offset="1" style="stop-color:#FF2832"/>
	</radialGradient>
	<path class="st4" d="M311.3,263.1c0-0.6,5.4-1.3,5.4-1.9s-5.5-0.5-5.6-1.1s5.2-2.1,5-2.7c-0.1-0.6-5.5,0.3-5.7-0.2s4.8-2.9,4.6-3.4
		c-0.2-0.5-5.4,1.1-5.7,0.6c-0.2-0.5,4.3-3.6,4-4c-0.3-0.5-5.2,1.9-5.5,1.5c-0.3-0.5,3.7-4.2,3.4-4.6c-0.4-0.4-4.8,2.7-5.2,2.3
		c-0.4-0.4,3.1-4.7,2.6-5c-0.4-0.4-4.4,3.4-4.8,3s2.3-5.1,1.9-5.4c-0.5-0.3-3.8,4-4.3,3.7s1.6-5.4,1-5.6c-0.5-0.2-3.2,4.5-3.7,4.3
		s0.7-5.5,0.2-5.7s-2.5,4.9-3,4.8c-0.5-0.1-0.1-5.6-0.7-5.7c-0.6-0.1-1.7,5.3-2.3,5.2c-0.6,0-0.9-5.5-1.5-5.5s-0.9,5.5-1.5,5.5
		s-1.7-5.3-2.3-5.2c-0.6,0.1-0.1,5.5-0.7,5.7c-0.6,0.1-2.5-5-3-4.8s0.7,5.5,0.2,5.7s-3.2-4.5-3.7-4.3s1.5,5.3,1,5.6s-3.9-4-4.3-3.7
		c-0.5,0.3,2.3,5,1.9,5.4s-4.4-3.4-4.8-3s3,4.6,2.6,5s-4.9-2.7-5.2-2.3c-0.4,0.4,3.7,4.1,3.4,4.6c-0.3,0.5-5.2-2-5.5-1.5
		s4.3,3.5,4,4c-0.2,0.5-5.5-1.2-5.7-0.6c-0.2,0.5,4.7,2.9,4.6,3.4c-0.2,0.5-5.6-0.3-5.7,0.2s5.1,2.1,5,2.7s-5.6,0.5-5.6,1.1
		s5.4,1.3,5.4,1.9s-5.4,1.3-5.4,1.9s5.5,0.5,5.6,1.1s-5.2,2.1-5,2.7c0.1,0.6,5.5-0.3,5.7,0.2s-4.8,2.9-4.6,3.4
		c0.2,0.5,5.4-1.1,5.7-0.6c0.2,0.5-4.3,3.6-4,4c0.3,0.5,5.2-1.9,5.5-1.5c0.3,0.5-3.7,4.2-3.4,4.6c0.4,0.4,4.8-2.7,5.2-2.3
		c0.4,0.4-3.1,4.7-2.6,5c0.4,0.4,4.4-3.4,4.8-3s-2.3,5.1-1.9,5.4c0.5,0.3,3.8-4,4.3-3.7s-1.6,5.4-1,5.6c0.5,0.2,3.2-4.5,3.7-4.3
		s-0.7,5.5-0.2,5.7s2.5-4.9,3-4.8s0.1,5.6,0.7,5.7s1.7-5.3,2.3-5.2c0.6,0,0.9,5.5,1.5,5.5s0.9-5.5,1.5-5.5s1.7,5.3,2.3,5.2
		c0.6-0.1,0.1-5.5,0.7-5.7c0.6-0.1,2.5,5,3,4.8s-0.7-5.5-0.2-5.7s3.2,4.5,3.7,4.3s-1.5-5.3-1-5.6c0.5-0.3,3.9,4,4.3,3.7
		c0.5-0.3-2.3-5-1.9-5.4s4.4,3.4,4.8,3s-3-4.6-2.6-5s4.9,2.7,5.2,2.3c0.4-0.4-3.7-4.1-3.4-4.6c0.3-0.5,5.2,2,5.5,1.5s-4.3-3.5-4-4
		c0.2-0.5,5.5,1.2,5.7,0.6c0.2-0.5-4.7-2.9-4.6-3.4c0.2-0.5,5.6,0.3,5.7-0.2s-5.1-2.1-5-2.7s5.6-0.5,5.6-1.1
		C316.7,264.4,311.3,263.6,311.3,263.1z"/>
</g>
<g>
	<path class="st5" d="M298.2,263.1c0-0.4,3.4-1.1,3.4-1.5c-0.1-0.4-3.5-0.1-3.6-0.5s3-2,2.8-2.4s-3.4,0.9-3.6,0.6s2.3-2.7,2-3.1
		c-0.3-0.3-3,1.8-3.3,1.6c-0.3-0.3,1.4-3.3,1.1-3.5s-2.4,2.6-2.7,2.4c-0.4-0.2,0.4-3.5,0.1-3.7c-0.4-0.1-1.5,3.2-1.9,3.1
		s-0.6-3.5-1-3.5s-0.6,3.5-1,3.5c-0.4,0.1-1.5-3.2-1.9-3.1c-0.4,0.1,0.4,3.5,0,3.7s-2.4-2.7-2.7-2.4c-0.3,0.2,1.4,3.2,1.1,3.5
		s-3-1.9-3.3-1.6s2.2,2.7,2,3.1c-0.2,0.3-3.4-0.9-3.6-0.6c-0.2,0.4,2.9,2,2.8,2.4s-3.6,0.1-3.6,0.5c-0.1,0.4,3.4,1.1,3.4,1.5
		s-3.4,1.1-3.4,1.5c0.1,0.4,3.5,0.1,3.6,0.5s-3,2-2.8,2.4s3.4-0.9,3.6-0.6s-2.3,2.7-2,3.1c0.3,0.3,3-1.8,3.3-1.6
		c0.3,0.3-1.4,3.3-1.1,3.5s2.4-2.6,2.7-2.4c0.4,0.2-0.4,3.5-0.1,3.7c0.4,0.1,1.5-3.2,1.9-3.1s0.6,3.5,1,3.5s0.6-3.5,1-3.5
		c0.4-0.1,1.5,3.2,1.9,3.1s-0.4-3.5,0-3.7s2.4,2.7,2.7,2.4c0.3-0.2-1.4-3.2-1.1-3.5s3,1.9,3.3,1.6s-2.2-2.7-2-3.1
		c0.2-0.3,3.4,0.9,3.6,0.6c0.2-0.4-2.9-2-2.8-2.4s3.6-0.1,3.6-0.5C301.6,264.1,298.2,263.5,298.2,263.1z"/>
</g>
</svg>
