<?xml version="1.0" encoding="utf-8"?>
<!-- Generator: Adobe Illustrator 22.0.0, SVG Export Plug-In . SVG Version: 6.00 Build 0)  -->
<svg version="1.1" id="Layer_1" xmlns="http://www.w3.org/2000/svg" xmlns:xlink="http://www.w3.org/1999/xlink" x="0px" y="0px"
	 viewBox="0 0 401.4 316.2" style="enable-background:new 0 0 401.4 316.2;" xml:space="preserve">
<style type="text/css">
	.st0{clip-path:url(#SVGID_2_);}
	.st1{opacity:0.1;clip-path:url(#SVGID_4_);fill:#FB3942;}
	.st2{clip-path:url(#SVGID_6_);}
	.st3{opacity:0.1;clip-path:url(#SVGID_8_);fill:#FB3942;}
	.st4{clip-path:url(#SVGID_10_);}
	.st5{opacity:0.1;clip-path:url(#SVGID_12_);fill:#FB3942;}
	.st6{clip-path:url(#SVGID_14_);}
	.st7{opacity:0.2;clip-path:url(#SVGID_16_);fill:#FB3942;}
	.st8{clip-path:url(#SVGID_18_);}
	.st9{opacity:0.2;clip-path:url(#SVGID_20_);fill:#FB3942;}
	.st10{clip-path:url(#SVGID_22_);}
	.st11{opacity:0.2;clip-path:url(#SVGID_24_);fill:#FB3942;}
	.st12{clip-path:url(#SVGID_26_);}
	.st13{clip-path:url(#SVGID_28_);fill:#FB3942;}
	.st14{clip-path:url(#SVGID_30_);}
	.st15{clip-path:url(#SVGID_32_);fill:#FB3942;}
	.st16{clip-path:url(#SVGID_34_);}
	.st17{clip-path:url(#SVGID_36_);fill:#FB3942;}
</style>
<g>
	<g>
		<defs>
			<path id="SVGID_1_" d="M350.9,92.1c0-1.6,2.4-3.4,2.3-5c-0.2-1.6-2.9-2.8-3.3-4.4c-0.3-1.6,1.7-3.8,1.2-5.3
				c-0.5-1.5-3.4-2.2-4.1-3.6c-0.7-1.5,0.8-4.1,0-5.5c-0.8-1.4-3.8-1.4-4.8-2.7c-1-1.3,0-4.1-1.1-5.3c-1.1-1.2-4-0.6-5.2-1.7
				c-1.2-1.1-0.9-4.1-2.2-5c-1.3-1-4.1,0.3-5.5-0.5c-1.4-0.8-1.7-3.8-3.2-4.4c-1.5-0.7-3.9,1.1-5.5,0.6c-1.5-0.5-2.5-3.3-4.1-3.7
				c-1.6-0.3-3.6,1.9-5.2,1.7c-1.6-0.2-3.1-2.8-4.7-2.8s-3.1,2.6-4.7,2.8c-1.6,0.2-3.6-2.1-5.2-1.7c-1.6,0.3-2.5,3.2-4.1,3.7
				c-1.6,0.5-4-1.3-5.5-0.6c-1.5,0.7-1.8,3.6-3.2,4.4c-1.4,0.8-4.2-0.4-5.5,0.5c-1.3,1-1,3.9-2.2,5c-1.2,1.1-4.1,0.5-5.2,1.7
				c-1.1,1.2-0.2,4-1.1,5.3c-1,1.3-4,1.3-4.8,2.7c-0.8,1.4,0.7,4,0,5.5c-0.7,1.5-3.6,2.1-4.1,3.6c-0.5,1.5,1.5,3.7,1.2,5.3
				c-0.3,1.6-3.1,2.8-3.3,4.4c-0.2,1.6,2.3,3.3,2.3,5c0,1.6-2.4,3.4-2.3,5c0.2,1.6,2.9,2.8,3.3,4.4c0.3,1.6-1.7,3.8-1.2,5.3
				c0.5,1.5,3.4,2.2,4.1,3.6c0.7,1.5-0.8,4.1,0,5.5c0.8,1.4,3.8,1.4,4.8,2.7c1,1.3,0,4.1,1.1,5.3c1.1,1.2,4,0.6,5.2,1.7
				c1.2,1.1,0.9,4.1,2.2,5c1.3,1,4.1-0.3,5.5,0.5c1.4,0.8,1.7,3.8,3.2,4.4c1.5,0.7,3.9-1.1,5.5-0.6c1.5,0.5,2.5,3.3,4.1,3.7
				c1.6,0.3,3.6-1.9,5.2-1.7c1.6,0.2,3.1,2.8,4.7,2.8s3.1-2.6,4.7-2.8c1.6-0.2,3.6,2.1,5.2,1.7c1.6-0.3,2.5-3.2,4.1-3.7
				c1.6-0.5,4,1.3,5.5,0.6c1.5-0.7,1.8-3.6,3.2-4.4c1.4-0.8,4.2,0.4,5.5-0.5c1.3-1,1-3.9,2.2-5c1.2-1.1,4.1-0.5,5.2-1.7
				c1.1-1.2,0.2-4,1.1-5.3c1-1.3,4-1.3,4.8-2.7c0.8-1.4-0.7-4,0-5.5c0.7-1.5,3.6-2.1,4.1-3.6c0.5-1.5-1.5-3.7-1.2-5.3
				c0.3-1.6,3.1-2.8,3.3-4.4C353.3,95.5,350.9,93.7,350.9,92.1"/>
		</defs>
		<clipPath id="SVGID_2_">
			<use xlink:href="#SVGID_1_"  style="overflow:visible;"/>
		</clipPath>
		<g class="st0">
			<defs>
				<rect id="SVGID_3_" x="-70.4" y="-1701.9" width="993.2" height="5418.5"/>
			</defs>
			<clipPath id="SVGID_4_">
				<use xlink:href="#SVGID_3_"  style="overflow:visible;"/>
			</clipPath>
			<rect x="254.5" y="41.1" class="st1" width="102.1" height="102.1"/>
		</g>
	</g>
	<g>
		<defs>
			<path id="SVGID_5_" d="M337.3,236.2c0-2.5,3.7-5.1,3.5-7.6c-0.3-2.5-4.4-4.3-4.9-6.7c-0.5-2.4,2.6-5.8,1.8-8.1
				c-0.8-2.4-5.2-3.3-6.2-5.5c-1-2.3,1.3-6.2,0-8.3c-1.2-2.1-5.8-2.1-7.3-4.1c-1.5-2,0-6.3-1.7-8.1c-1.7-1.8-6.1-0.9-8-2.5
				c-1.8-1.6-1.3-6.2-3.3-7.6c-2-1.4-6.2,0.4-8.3-0.8c-2.1-1.2-2.6-5.8-4.9-6.8c-2.2-1-5.9,1.7-8.3,0.9c-2.3-0.8-3.7-5.1-6.2-5.6
				c-2.4-0.5-5.4,2.9-7.9,2.6c-2.4-0.3-4.7-4.2-7.2-4.2s-4.8,3.9-7.2,4.2c-2.5,0.3-5.5-3.1-7.9-2.6c-2.4,0.5-3.8,4.8-6.2,5.6
				c-2.4,0.8-6.1-1.9-8.3-0.9c-2.3,1-2.7,5.5-4.9,6.8c-2.1,1.2-6.3-0.6-8.3,0.8c-2,1.5-1.5,6-3.3,7.6c-1.8,1.6-6.3,0.7-8,2.5
				c-1.7,1.8-0.2,6.1-1.7,8.1c-1.5,2-6,2-7.3,4.1c-1.2,2.1,1.1,6.1,0,8.3c-1,2.2-5.5,3.2-6.2,5.5c-0.8,2.3,2.3,5.7,1.8,8.1
				c-0.5,2.4-4.7,4.2-4.9,6.7c-0.3,2.4,3.5,5.1,3.5,7.6c0,2.5-3.7,5.1-3.5,7.6c0.3,2.5,4.4,4.3,4.9,6.7c0.5,2.4-2.6,5.8-1.8,8.1
				c0.8,2.4,5.2,3.3,6.2,5.5c1,2.3-1.3,6.2,0,8.3c1.2,2.1,5.8,2.1,7.3,4.1c1.5,2,0,6.3,1.7,8.1c1.7,1.8,6.1,0.9,8,2.5
				c1.8,1.6,1.3,6.2,3.3,7.6c2,1.4,6.2-0.4,8.3,0.8c2.1,1.2,2.6,5.8,4.9,6.8c2.2,1,5.9-1.7,8.3-0.9c2.3,0.8,3.7,5.1,6.2,5.6
				c2.4,0.5,5.4-2.9,7.9-2.6c2.4,0.3,4.7,4.2,7.2,4.2s4.8-3.9,7.2-4.2c2.5-0.3,5.5,3.1,7.9,2.6c2.4-0.5,3.8-4.8,6.2-5.6
				c2.4-0.8,6.1,1.9,8.3,0.9c2.3-1,2.7-5.5,4.9-6.8c2.1-1.2,6.3,0.6,8.3-0.8c2-1.5,1.5-6,3.3-7.6c1.8-1.6,6.3-0.7,8-2.5
				c1.7-1.8,0.2-6.1,1.7-8.1c1.5-2,6-2,7.3-4.1c1.2-2.1-1.1-6.1,0-8.3c1-2.2,5.5-3.2,6.2-5.5c0.8-2.3-2.3-5.7-1.8-8.1
				c0.5-2.4,4.7-4.2,4.9-6.7C341,241.4,337.3,238.7,337.3,236.2"/>
		</defs>
		<clipPath id="SVGID_6_">
			<use xlink:href="#SVGID_5_"  style="overflow:visible;"/>
		</clipPath>
		<g class="st2">
			<defs>
				<rect id="SVGID_7_" x="-70.4" y="-1701.9" width="993.2" height="5418.5"/>
			</defs>
			<clipPath id="SVGID_8_">
				<use xlink:href="#SVGID_7_"  style="overflow:visible;"/>
			</clipPath>
			<rect x="192.4" y="160.4" class="st3" width="151.7" height="151.7"/>
		</g>
	</g>
	<g>
		<defs>
			<path id="SVGID_9_" d="M226,99c0-3.1,4.7-6.5,4.3-9.5c-0.3-3.1-5.6-5.4-6.2-8.4c-0.6-3,3.2-7.3,2.3-10.2c-1-3-6.6-4.1-7.9-6.9
				c-1.3-2.8,1.6-7.8,0.1-10.4c-1.6-2.7-7.3-2.7-9.1-5.2c-1.8-2.5,0-7.9-2.1-10.2c-2.1-2.3-7.7-1.1-10-3.2c-2.3-2.1-1.7-7.8-4.2-9.6
				c-2.5-1.8-7.8,0.5-10.5-1c-2.7-1.5-3.3-7.2-6.1-8.5c-2.8-1.3-7.5,2.1-10.4,1.2c-2.9-0.9-4.7-6.4-7.8-7c-3-0.6-6.8,3.6-10,3.3
				c-3.1-0.3-5.9-5.3-9.1-5.3c-3.1,0-6,5-9.1,5.3c-3.1,0.3-6.9-3.9-10-3.3c-3.1,0.6-4.8,6.1-7.8,7c-3,1-7.6-2.4-10.4-1.2
				c-2.9,1.3-3.4,7-6.1,8.5c-2.7,1.6-7.9-0.8-10.5,1c-2.5,1.8-1.9,7.5-4.2,9.6c-2.3,2.1-7.9,0.9-10,3.2c-2.1,2.3-0.3,7.7-2.1,10.2
				c-1.8,2.5-7.6,2.5-9.1,5.2c-1.6,2.7,1.3,7.6,0.1,10.4c-1.3,2.8-6.9,4-7.9,6.9c-1,2.9,2.9,7.2,2.3,10.2c-0.6,3-5.9,5.3-6.2,8.4
				c-0.3,3,4.3,6.4,4.3,9.5c0,3.1-4.7,6.5-4.3,9.5c0.3,3.1,5.6,5.4,6.2,8.4c0.6,3-3.2,7.3-2.3,10.2c1,3,6.6,4.1,7.9,6.9
				c1.3,2.8-1.6,7.8-0.1,10.4c1.6,2.7,7.3,2.7,9.1,5.2c1.8,2.5,0,7.9,2.1,10.2c2.1,2.3,7.7,1.1,10,3.2c2.3,2.1,1.7,7.8,4.2,9.6
				c2.5,1.8,7.8-0.5,10.5,1c2.7,1.5,3.3,7.2,6.1,8.5c2.8,1.3,7.5-2.1,10.4-1.2c2.9,0.9,4.7,6.4,7.8,7c3,0.6,6.8-3.6,10-3.3
				c3.1,0.3,5.9,5.3,9.1,5.3c3.1,0,6-5,9.1-5.3c3.1-0.3,6.9,3.9,10,3.3c3.1-0.6,4.8-6.1,7.8-7c3-1,7.6,2.4,10.4,1.2
				c2.9-1.3,3.4-7,6.1-8.5c2.7-1.6,7.9,0.8,10.5-1c2.5-1.8,1.9-7.5,4.2-9.6c2.3-2.1,7.9-0.9,10-3.2c2.1-2.3,0.3-7.7,2.1-10.2
				c1.8-2.5,7.6-2.5,9.1-5.2c1.6-2.7-1.3-7.6-0.1-10.4c1.3-2.8,6.9-4,7.9-6.9c1-2.9-2.9-7.2-2.3-10.2c0.6-3,5.9-5.3,6.2-8.4
				C230.7,105.5,226,102.1,226,99"/>
		</defs>
		<clipPath id="SVGID_10_">
			<use xlink:href="#SVGID_9_"  style="overflow:visible;"/>
		</clipPath>
		<g class="st4">
			<defs>
				<rect id="SVGID_11_" x="-70.4" y="-1701.9" width="993.2" height="5418.5"/>
			</defs>
			<clipPath id="SVGID_12_">
				<use xlink:href="#SVGID_11_"  style="overflow:visible;"/>
			</clipPath>
			<rect x="44.8" y="4.5" class="st5" width="189" height="189"/>
		</g>
	</g>
	<g>
		<defs>
			<path id="SVGID_13_" d="M337.8,92.8c0-1.1,1.7-2.4,1.6-3.5c-0.1-1.1-2-2-2.3-3.1c-0.2-1.1,1.2-2.6,0.8-3.7
				c-0.4-1.1-2.4-1.5-2.9-2.5c-0.5-1,0.6-2.8,0-3.8c-0.6-1-2.7-1-3.3-1.9c-0.7-0.9,0-2.9-0.8-3.7c-0.8-0.8-2.8-0.4-3.6-1.2
				c-0.8-0.8-0.6-2.8-1.5-3.5c-0.9-0.7-2.8,0.2-3.8-0.4c-1-0.6-1.2-2.6-2.2-3.1c-1-0.5-2.7,0.8-3.8,0.4c-1.1-0.3-1.7-2.3-2.8-2.6
				c-1.1-0.2-2.5,1.3-3.6,1.2c-1.1-0.1-2.2-1.9-3.3-1.9s-2.2,1.8-3.3,1.9c-1.1,0.1-2.5-1.4-3.6-1.2c-1.1,0.2-1.8,2.2-2.8,2.6
				c-1.1,0.3-2.8-0.9-3.8-0.4c-1,0.5-1.2,2.5-2.2,3.1c-1,0.6-2.9-0.3-3.8,0.4c-0.9,0.7-0.7,2.7-1.5,3.5c-0.8,0.8-2.9,0.3-3.6,1.2
				c-0.8,0.8-0.1,2.8-0.8,3.7c-0.7,0.9-2.8,0.9-3.3,1.9c-0.6,1,0.5,2.8,0,3.8c-0.5,1-2.5,1.4-2.9,2.5c-0.3,1.1,1.1,2.6,0.8,3.7
				c-0.2,1.1-2.1,1.9-2.3,3.1c-0.1,1.1,1.6,2.3,1.6,3.5c0,1.1-1.7,2.4-1.6,3.5c0.1,1.1,2,2,2.3,3.1c0.2,1.1-1.2,2.6-0.8,3.7
				c0.4,1.1,2.4,1.5,2.9,2.5c0.5,1-0.6,2.8,0,3.8c0.6,1,2.7,1,3.3,1.9c0.7,0.9,0,2.9,0.8,3.7c0.8,0.8,2.8,0.4,3.6,1.2
				c0.8,0.8,0.6,2.8,1.5,3.5c0.9,0.7,2.8-0.2,3.8,0.4c1,0.6,1.2,2.6,2.2,3.1c1,0.5,2.7-0.8,3.8-0.4c1.1,0.3,1.7,2.3,2.8,2.6
				c1.1,0.2,2.5-1.3,3.6-1.2c1.1,0.1,2.2,1.9,3.3,1.9s2.2-1.8,3.3-1.9c1.1-0.1,2.5,1.4,3.6,1.2c1.1-0.2,1.8-2.2,2.8-2.6
				c1.1-0.3,2.8,0.9,3.8,0.4c1-0.5,1.2-2.5,2.2-3.1c1-0.6,2.9,0.3,3.8-0.4c0.9-0.7,0.7-2.7,1.5-3.5c0.8-0.8,2.9-0.3,3.6-1.2
				c0.8-0.8,0.1-2.8,0.8-3.7c0.7-0.9,2.8-0.9,3.3-1.9c0.6-1-0.5-2.8,0-3.8c0.5-1,2.5-1.4,2.9-2.5c0.3-1.1-1.1-2.6-0.8-3.7
				c0.2-1.1,2.1-1.9,2.3-3.1C339.5,95.1,337.8,93.9,337.8,92.8"/>
		</defs>
		<clipPath id="SVGID_14_">
			<use xlink:href="#SVGID_13_"  style="overflow:visible;"/>
		</clipPath>
		<g class="st6">
			<defs>
				<rect id="SVGID_15_" x="-70.4" y="-1701.9" width="993.2" height="5418.5"/>
			</defs>
			<clipPath id="SVGID_16_">
				<use xlink:href="#SVGID_15_"  style="overflow:visible;"/>
			</clipPath>
			<rect x="269.7" y="56.2" class="st7" width="73.1" height="73.1"/>
		</g>
	</g>
	<g>
		<defs>
			<path id="SVGID_17_" d="M316.9,236.9c0-1.7,2.6-3.6,2.4-5.3c-0.2-1.7-3.1-3-3.4-4.7c-0.4-1.7,1.8-4,1.2-5.6
				c-0.5-1.6-3.6-2.3-4.3-3.8c-0.7-1.6,0.9-4.3,0-5.8c-0.9-1.5-4-1.5-5.1-2.9c-1-1.4,0-4.4-1.2-5.7c-1.2-1.3-4.3-0.6-5.5-1.8
				c-1.3-1.1-0.9-4.3-2.3-5.3c-1.4-1-4.3,0.3-5.8-0.6c-1.5-0.9-1.8-4-3.4-4.7c-1.6-0.7-4.1,1.2-5.8,0.6c-1.6-0.5-2.6-3.5-4.3-3.9
				c-1.7-0.4-3.8,2-5.5,1.8c-1.7-0.2-3.3-2.9-5-2.9c-1.7,0-3.3,2.7-5,2.9c-1.7,0.2-3.8-2.2-5.5-1.8c-1.7,0.4-2.7,3.4-4.3,3.9
				c-1.6,0.5-4.2-1.3-5.8-0.6c-1.6,0.7-1.9,3.8-3.4,4.7c-1.5,0.9-4.4-0.4-5.8,0.6c-1.4,1-1,4.2-2.3,5.3c-1.3,1.1-4.4,0.5-5.5,1.8
				c-1.2,1.3-0.2,4.3-1.2,5.7c-1,1.4-4.2,1.4-5.1,2.9c-0.9,1.5,0.7,4.2,0,5.8c-0.7,1.6-3.8,2.2-4.3,3.8c-0.5,1.6,1.6,4,1.2,5.6
				c-0.4,1.7-3.3,2.9-3.4,4.7c-0.2,1.7,2.4,3.5,2.4,5.3c0,1.7-2.6,3.6-2.4,5.3c0.2,1.7,3.1,3,3.4,4.7c0.4,1.7-1.8,4-1.2,5.6
				c0.5,1.6,3.6,2.3,4.3,3.8c0.7,1.6-0.9,4.3,0,5.8c0.9,1.5,4,1.5,5.1,2.9c1,1.4,0,4.4,1.2,5.7c1.2,1.3,4.3,0.6,5.5,1.8
				c1.3,1.1,0.9,4.3,2.3,5.3c1.4,1,4.3-0.3,5.8,0.6c1.5,0.9,1.8,4,3.4,4.7c1.6,0.7,4.1-1.2,5.8-0.6c1.6,0.5,2.6,3.5,4.3,3.9
				c1.7,0.4,3.8-2,5.5-1.8c1.7,0.2,3.3,2.9,5,2.9c1.7,0,3.3-2.7,5-2.9c1.7-0.2,3.8,2.2,5.5,1.8c1.7-0.4,2.7-3.4,4.3-3.9
				c1.6-0.5,4.2,1.3,5.8,0.6c1.6-0.7,1.9-3.8,3.4-4.7c1.5-0.9,4.4,0.4,5.8-0.6c1.4-1,1-4.2,2.3-5.3c1.3-1.1,4.4-0.5,5.5-1.8
				c1.2-1.3,0.2-4.3,1.2-5.7c1-1.4,4.2-1.4,5.1-2.9c0.9-1.5-0.7-4.2,0-5.8c0.7-1.6,3.8-2.2,4.3-3.8c0.5-1.6-1.6-4-1.2-5.6
				c0.4-1.7,3.3-2.9,3.4-4.7C319.5,240.5,316.9,238.7,316.9,236.9"/>
		</defs>
		<clipPath id="SVGID_18_">
			<use xlink:href="#SVGID_17_"  style="overflow:visible;"/>
		</clipPath>
		<g class="st8">
			<defs>
				<rect id="SVGID_19_" x="-70.4" y="-1701.9" width="993.2" height="5418.5"/>
			</defs>
			<clipPath id="SVGID_20_">
				<use xlink:href="#SVGID_19_"  style="overflow:visible;"/>
			</clipPath>
			<rect x="215.2" y="183.1" class="st9" width="107.6" height="107.6"/>
		</g>
	</g>
	<g>
		<defs>
			<path id="SVGID_21_" d="M200.4,99.7c0-2.2,3.2-4.5,3-6.6c-0.2-2.2-3.9-3.8-4.3-5.9c-0.5-2.1,2.2-5.1,1.6-7.1
				c-0.7-2.1-4.6-2.9-5.5-4.8c-0.9-2,1.1-5.4,0-7.3c-1.1-1.9-5.1-1.9-6.4-3.6c-1.3-1.7,0-5.5-1.5-7.1c-1.5-1.6-5.4-0.8-7-2.2
				c-1.6-1.4-1.2-5.4-2.9-6.7c-1.7-1.3-5.4,0.4-7.3-0.7c-1.9-1.1-2.3-5-4.3-5.9c-2-0.9-5.2,1.5-7.3,0.8c-2-0.7-3.3-4.5-5.4-4.9
				c-2.1-0.4-4.8,2.5-6.9,2.3c-2.1-0.2-4.1-3.7-6.3-3.7s-4.2,3.5-6.3,3.7c-2.2,0.2-4.8-2.7-6.9-2.3c-2.1,0.4-3.4,4.2-5.4,4.9
				c-2.1,0.7-5.3-1.7-7.3-0.8c-2,0.9-2.4,4.8-4.3,5.9c-1.9,1.1-5.5-0.5-7.3,0.7c-1.8,1.3-1.3,5.2-2.9,6.7c-1.6,1.4-5.5,0.6-7,2.2
				c-1.4,1.6-0.2,5.4-1.5,7.1c-1.3,1.7-5.3,1.7-6.4,3.6c-1.1,1.9,0.9,5.3,0,7.3c-0.9,2-4.8,2.8-5.5,4.8c-0.7,2,2,5,1.6,7.1
				c-0.4,2.1-4.1,3.7-4.3,5.9c-0.2,2.1,3,4.5,3,6.6c0,2.2-3.2,4.5-3,6.6c0.2,2.2,3.9,3.8,4.3,5.9c0.5,2.1-2.2,5.1-1.6,7.1
				c0.7,2.1,4.6,2.9,5.5,4.8c0.9,2-1.1,5.4,0,7.3c1.1,1.9,5.1,1.9,6.4,3.6c1.3,1.7,0,5.5,1.5,7.1c1.5,1.6,5.4,0.8,7,2.2
				c1.6,1.4,1.2,5.4,2.9,6.7c1.7,1.3,5.4-0.4,7.3,0.7c1.9,1.1,2.3,5,4.3,5.9c2,0.9,5.2-1.5,7.3-0.8c2,0.7,3.3,4.5,5.4,4.9
				c2.1,0.4,4.8-2.5,6.9-2.3c2.1,0.2,4.1,3.7,6.3,3.7s4.2-3.5,6.3-3.7c2.2-0.2,4.8,2.7,6.9,2.3c2.1-0.4,3.4-4.2,5.4-4.9
				c2.1-0.7,5.3,1.7,7.3,0.8c2-0.9,2.4-4.8,4.3-5.9c1.9-1.1,5.5,0.5,7.3-0.7c1.8-1.3,1.3-5.2,2.9-6.7c1.6-1.4,5.5-0.6,7-2.2
				c1.4-1.6,0.2-5.4,1.5-7.1c1.3-1.7,5.3-1.7,6.4-3.6c1.1-1.9-0.9-5.3,0-7.3c0.9-2,4.8-2.8,5.5-4.8c0.7-2-2-5-1.6-7.1
				c0.4-2.1,4.1-3.7,4.3-5.9C203.7,104.2,200.4,101.9,200.4,99.7"/>
		</defs>
		<clipPath id="SVGID_22_">
			<use xlink:href="#SVGID_21_"  style="overflow:visible;"/>
		</clipPath>
		<g class="st10">
			<defs>
				<rect id="SVGID_23_" x="-70.4" y="-1701.9" width="993.2" height="5418.5"/>
			</defs>
			<clipPath id="SVGID_24_">
				<use xlink:href="#SVGID_23_"  style="overflow:visible;"/>
			</clipPath>
			<rect x="73.1" y="32.8" class="st11" width="133.8" height="133.8"/>
		</g>
	</g>
	<g>
		<defs>
			<path id="SVGID_25_" d="M329.2,91.7c0-0.8,1.2-1.7,1.2-2.5c-0.1-0.8-1.5-1.4-1.6-2.2c-0.2-0.8,0.9-1.9,0.6-2.7
				c-0.3-0.8-1.7-1.1-2.1-1.8c-0.3-0.7,0.4-2,0-2.7c-0.4-0.7-1.9-0.7-2.4-1.3c-0.5-0.7,0-2.1-0.6-2.7c-0.6-0.6-2-0.3-2.7-0.8
				c-0.6-0.5-0.4-2-1.1-2.5c-0.7-0.5-2.1,0.1-2.8-0.3c-0.7-0.4-0.9-1.9-1.6-2.2c-0.7-0.3-2,0.6-2.8,0.3c-0.8-0.2-1.2-1.7-2.1-1.8
				c-0.8-0.2-1.8,0.9-2.6,0.9c-0.8-0.1-1.6-1.4-2.4-1.4s-1.6,1.3-2.4,1.4c-0.8,0.1-1.8-1-2.6-0.9c-0.8,0.2-1.3,1.6-2.1,1.8
				c-0.8,0.3-2-0.6-2.8-0.3c-0.8,0.3-0.9,1.8-1.6,2.2c-0.7,0.4-2.1-0.2-2.8,0.3c-0.7,0.5-0.5,2-1.1,2.5c-0.6,0.5-2.1,0.2-2.7,0.8
				c-0.6,0.6-0.1,2-0.6,2.7c-0.5,0.7-2,0.6-2.4,1.3c-0.4,0.7,0.4,2,0,2.7c-0.3,0.7-1.8,1-2.1,1.8c-0.3,0.8,0.8,1.9,0.6,2.7
				c-0.2,0.8-1.6,1.4-1.6,2.2c-0.1,0.8,1.2,1.7,1.2,2.5c0,0.8-1.2,1.7-1.2,2.5c0.1,0.8,1.5,1.4,1.6,2.2c0.2,0.8-0.9,1.9-0.6,2.7
				c0.3,0.8,1.7,1.1,2.1,1.8c0.3,0.7-0.4,2,0,2.7c0.4,0.7,1.9,0.7,2.4,1.3c0.5,0.7,0,2.1,0.6,2.7c0.6,0.6,2,0.3,2.7,0.8
				c0.6,0.5,0.4,2,1.1,2.5c0.7,0.5,2.1-0.1,2.8,0.3c0.7,0.4,0.9,1.9,1.6,2.2c0.7,0.3,2-0.6,2.8-0.3c0.8,0.2,1.2,1.7,2.1,1.8
				c0.8,0.2,1.8-0.9,2.6-0.9c0.8,0.1,1.6,1.4,2.4,1.4s1.6-1.3,2.4-1.4c0.8-0.1,1.8,1,2.6,0.9c0.8-0.2,1.3-1.6,2.1-1.8
				c0.8-0.3,2,0.6,2.8,0.3c0.8-0.3,0.9-1.8,1.6-2.2c0.7-0.4,2.1,0.2,2.8-0.3c0.7-0.5,0.5-2,1.1-2.5c0.6-0.5,2.1-0.2,2.7-0.8
				c0.6-0.6,0.1-2,0.6-2.7c0.5-0.7,2-0.6,2.4-1.3c0.4-0.7-0.4-2,0-2.7c0.3-0.7,1.8-1,2.1-1.8c0.3-0.8-0.8-1.9-0.6-2.7
				c0.2-0.8,1.6-1.4,1.6-2.2C330.5,93.4,329.2,92.6,329.2,91.7"/>
		</defs>
		<clipPath id="SVGID_26_">
			<use xlink:href="#SVGID_25_"  style="overflow:visible;"/>
		</clipPath>
		<g class="st12">
			<defs>
				<rect id="SVGID_27_" x="-70.4" y="-1701.9" width="993.2" height="5418.5"/>
			</defs>
			<clipPath id="SVGID_28_">
				<use xlink:href="#SVGID_27_"  style="overflow:visible;"/>
			</clipPath>
			<rect x="278.6" y="64.5" class="st13" width="55.2" height="54.5"/>
		</g>
	</g>
	<g>
		<defs>
			<path id="SVGID_29_" d="M304.5,235.9c0-1.2,1.9-2.6,1.8-3.8c-0.1-1.2-2.3-2.2-2.5-3.3c-0.3-1.2,1.3-2.9,0.9-4.1
				c-0.4-1.2-2.7-1.6-3.2-2.8c-0.5-1.1,0.7-3.1,0-4.2c-0.6-1.1-3-1.1-3.7-2.1c-0.7-1,0-3.2-0.9-4.1c-0.8-0.9-3.1-0.4-4.1-1.3
				c-0.9-0.8-0.7-3.1-1.7-3.8c-1-0.7-3.1,0.2-4.2-0.4c-1.1-0.6-1.3-2.9-2.5-3.4c-1.1-0.5-3,0.8-4.2,0.5c-1.2-0.4-1.9-2.5-3.1-2.8
				c-1.2-0.3-2.8,1.4-4,1.3c-1.2-0.1-2.4-2.1-3.7-2.1s-2.4,2-3.7,2.1c-1.3,0.1-2.8-1.6-4-1.3c-1.2,0.3-2,2.4-3.1,2.8
				c-1.2,0.4-3.1-1-4.2-0.5c-1.2,0.5-1.4,2.8-2.5,3.4c-1.1,0.6-3.2-0.3-4.2,0.4c-1,0.7-0.8,3-1.7,3.8c-0.9,0.8-3.2,0.3-4.1,1.3
				c-0.8,0.9-0.1,3.1-0.9,4.1c-0.7,1-3.1,1-3.7,2.1c-0.6,1.1,0.5,3,0,4.2c-0.5,1.1-2.8,1.6-3.2,2.8c-0.4,1.2,1.2,2.8,0.9,4.1
				c-0.3,1.2-2.4,2.1-2.5,3.3c-0.1,1.2,1.8,2.5,1.8,3.8c0,1.2-1.9,2.6-1.8,3.8c0.1,1.2,2.3,2.2,2.5,3.3c0.3,1.2-1.3,2.9-0.9,4.1
				c0.4,1.2,2.7,1.6,3.2,2.8c0.5,1.1-0.7,3.1,0,4.2c0.6,1.1,3,1.1,3.7,2.1c0.7,1,0,3.2,0.9,4.1c0.8,0.9,3.1,0.4,4.1,1.3
				c0.9,0.8,0.7,3.1,1.7,3.8c1,0.7,3.1-0.2,4.2,0.4c1.1,0.6,1.3,2.9,2.5,3.4c1.1,0.5,3-0.8,4.2-0.5c1.2,0.4,1.9,2.5,3.1,2.8
				c1.2,0.3,2.8-1.4,4-1.3c1.2,0.1,2.4,2.1,3.7,2.1s2.4-2,3.7-2.1c1.3-0.1,2.8,1.6,4,1.3c1.2-0.3,2-2.4,3.1-2.8
				c1.2-0.4,3.1,1,4.2,0.5c1.2-0.5,1.4-2.8,2.5-3.4c1.1-0.6,3.2,0.3,4.2-0.4c1-0.7,0.8-3,1.7-3.8c0.9-0.8,3.2-0.3,4.1-1.3
				c0.8-0.9,0.1-3.1,0.9-4.1c0.7-1,3.1-1,3.7-2.1c0.6-1.1-0.5-3,0-4.2c0.5-1.1,2.8-1.6,3.2-2.8c0.4-1.2-1.2-2.8-0.9-4.1
				c0.3-1.2,2.4-2.1,2.5-3.3C306.4,238.5,304.5,237.1,304.5,235.9"/>
		</defs>
		<clipPath id="SVGID_30_">
			<use xlink:href="#SVGID_29_"  style="overflow:visible;"/>
		</clipPath>
		<g class="st14">
			<defs>
				<rect id="SVGID_31_" x="-70.4" y="-1701.9" width="993.2" height="5418.5"/>
			</defs>
			<clipPath id="SVGID_32_">
				<use xlink:href="#SVGID_31_"  style="overflow:visible;"/>
			</clipPath>
			<rect x="229" y="196.2" class="st15" width="80.7" height="79.3"/>
		</g>
	</g>
	<g>
		<defs>
			<path id="SVGID_33_" d="M185.4,98.3c0-1.6,2.4-3.2,2.2-4.8c-0.2-1.6-2.9-2.7-3.2-4.2c-0.3-1.5,1.6-3.6,1.2-5.1
				c-0.5-1.5-3.4-2.1-4-3.5c-0.7-1.4,0.8-3.9,0-5.2c-0.8-1.3-3.7-1.3-4.7-2.6c-0.9-1.3,0-4-1.1-5.1c-1.1-1.1-3.9-0.5-5.1-1.6
				c-1.2-1-0.9-3.9-2.2-4.8c-1.3-0.9-4,0.3-5.3-0.5c-1.4-0.8-1.7-3.6-3.1-4.2c-1.4-0.6-3.8,1.1-5.3,0.6c-1.5-0.5-2.4-3.2-4-3.5
				c-1.5-0.3-3.5,1.8-5.1,1.7c-1.6-0.2-3-2.6-4.6-2.6s-3.1,2.5-4.6,2.6c-1.6,0.2-3.6-2-5.1-1.7c-1.6,0.3-2.5,3-4,3.5
				c-1.5,0.5-3.9-1.2-5.3-0.6c-1.5,0.6-1.8,3.5-3.1,4.2c-1.4,0.8-4.1-0.4-5.3,0.5c-1.3,0.9-1,3.8-2.2,4.8c-1.2,1-4.1,0.4-5.1,1.6
				c-1.1,1.1-0.1,3.9-1.1,5.1c-0.9,1.2-3.9,1.2-4.7,2.6c-0.8,1.3,0.7,3.8,0,5.2c-0.6,1.4-3.5,2-4,3.5c-0.5,1.5,1.5,3.6,1.2,5.1
				c-0.3,1.5-3,2.7-3.2,4.2c-0.2,1.5,2.2,3.2,2.2,4.8c0,1.6-2.4,3.2-2.2,4.8c0.2,1.6,2.9,2.7,3.2,4.2c0.3,1.5-1.6,3.6-1.2,5.1
				c0.5,1.5,3.4,2.1,4,3.5c0.7,1.4-0.8,3.9,0,5.2c0.8,1.3,3.7,1.3,4.7,2.6c0.9,1.3,0,4,1.1,5.1c1.1,1.1,3.9,0.5,5.1,1.6
				c1.2,1,0.9,3.9,2.2,4.8c1.3,0.9,4-0.3,5.3,0.5c1.4,0.8,1.7,3.6,3.1,4.2c1.4,0.6,3.8-1.1,5.3-0.6c1.5,0.5,2.4,3.2,4,3.5
				c1.5,0.3,3.5-1.8,5.1-1.7c1.6,0.2,3,2.6,4.6,2.6s3.1-2.5,4.6-2.6c1.6-0.2,3.6,2,5.1,1.7c1.6-0.3,2.5-3,4-3.5
				c1.5-0.5,3.9,1.2,5.3,0.6c1.5-0.6,1.8-3.5,3.1-4.2c1.4-0.8,4.1,0.4,5.3-0.5c1.3-0.9,1-3.8,2.2-4.8c1.2-1,4.1-0.4,5.1-1.6
				c1.1-1.1,0.1-3.9,1.1-5.1c0.9-1.2,3.9-1.2,4.7-2.6c0.8-1.3-0.7-3.8,0-5.2c0.6-1.4,3.5-2,4-3.5c0.5-1.5-1.5-3.6-1.2-5.1
				c0.3-1.5,3-2.7,3.2-4.2C187.8,101.5,185.4,99.9,185.4,98.3"/>
		</defs>
		<clipPath id="SVGID_34_">
			<use xlink:href="#SVGID_33_"  style="overflow:visible;"/>
		</clipPath>
		<g class="st16">
			<defs>
				<rect id="SVGID_35_" x="-70.4" y="-1701.9" width="993.2" height="5418.5"/>
			</defs>
			<clipPath id="SVGID_36_">
				<use xlink:href="#SVGID_35_"  style="overflow:visible;"/>
			</clipPath>
			<rect x="91" y="49.3" class="st17" width="100" height="97.9"/>
		</g>
	</g>
</g>
</svg>
