<?xml version="1.0" encoding="utf-8"?>
<!-- Generator: Adobe Illustrator 22.0.0, SVG Export Plug-In . SVG Version: 6.00 Build 0)  -->
<svg version="1.1" id="Layer_1" xmlns="http://www.w3.org/2000/svg" xmlns:xlink="http://www.w3.org/1999/xlink" x="0px" y="0px"
	 viewBox="0 0 360 300" style="enable-background:new 0 0 360 300;" xml:space="preserve">
<style type="text/css">
	.st0{opacity:0.1;}
	.st1{fill:#FB3942;}
	.st2{opacity:0.3;}
	.st3{opacity:0.8;}
	.st4{fill:url(#SVGID_1_);}
	.st5{fill:#FFFFFF;}
</style>
<g class="st0">
	<path class="st1" d="M304.9,58c0-1,2.5-2,2.5-3c-0.1-1-2.7-1.6-2.9-2.6c-0.1-1,2.2-2.4,2-3.3c-0.2-0.9-2.9-1.2-3.2-2.1
		c-0.3-0.9,1.8-2.7,1.5-3.6c-0.4-0.9-3.1-0.7-3.5-1.6c-0.4-0.9,1.4-2.9,0.9-3.7c-0.5-0.8-3.2-0.3-3.7-1.1c-0.5-0.8,0.9-3.1,0.4-3.8
		c-0.6-0.7-3.2,0.2-3.8-0.5c-0.7-0.7,0.5-3.2-0.2-3.8c-0.7-0.7-3.1,0.7-3.8,0.1c-0.7-0.6,0-3.2-0.8-3.8c-0.8-0.5-3,1.1-3.8,0.6
		c-0.8-0.5-0.5-3.2-1.3-3.6c-0.9-0.4-2.8,1.5-3.7,1.2c-0.9-0.3-0.9-3.1-1.9-3.4c-0.9-0.3-2.5,1.9-3.4,1.7c-0.9-0.2-1.4-2.9-2.4-3
		c-0.9-0.1-2.2,2.3-3.1,2.2c-0.9-0.1-1.8-2.7-2.8-2.7c-1,0-1.8,2.6-2.8,2.7c-1,0.1-2.2-2.4-3.1-2.2c-1,0.1-1.4,2.8-2.4,3
		c-0.9,0.2-2.5-2-3.4-1.7c-0.9,0.3-1,3-1.9,3.4c-0.9,0.4-2.8-1.6-3.7-1.2c-0.9,0.4-0.5,3.1-1.3,3.6c-0.8,0.5-3-1.2-3.8-0.6
		c-0.8,0.5,0,3.2-0.8,3.8c-0.7,0.6-3.1-0.7-3.8-0.1c-0.7,0.7,0.4,3.1-0.2,3.8c-0.7,0.7-3.2-0.2-3.8,0.5c-0.6,0.7,0.9,3,0.4,3.8
		c-0.5,0.8-3.2,0.2-3.7,1.1c-0.5,0.8,1.3,2.9,0.9,3.7c-0.4,0.9-3.1,0.7-3.5,1.6c-0.3,0.9,1.8,2.6,1.5,3.6c-0.3,0.9-3,1.2-3.2,2.1
		c-0.2,0.9,2.1,2.3,2,3.3c-0.1,0.9-2.8,1.6-2.9,2.6c-0.1,0.9,2.5,2,2.5,3c0,1-2.5,2-2.5,3c0.1,1,2.7,1.6,2.9,2.6
		c0.1,1-2.2,2.4-2,3.3c0.2,0.9,2.9,1.2,3.2,2.1c0.3,0.9-1.8,2.7-1.5,3.6c0.4,0.9,3.1,0.7,3.5,1.6c0.4,0.9-1.4,2.9-0.9,3.7
		c0.5,0.8,3.2,0.3,3.7,1.1c0.5,0.8-0.9,3.1-0.4,3.8c0.6,0.7,3.2-0.2,3.8,0.5c0.7,0.7-0.5,3.2,0.2,3.8c0.7,0.7,3.1-0.7,3.8-0.1
		c0.7,0.6,0,3.2,0.8,3.8c0.8,0.5,3-1.1,3.8-0.6c0.8,0.5,0.5,3.2,1.3,3.6c0.9,0.4,2.8-1.5,3.7-1.2c0.9,0.3,0.9,3.1,1.9,3.4
		c0.9,0.3,2.5-1.9,3.4-1.7c0.9,0.2,1.4,2.9,2.4,3c0.9,0.1,2.2-2.3,3.1-2.2c0.9,0.1,1.8,2.7,2.8,2.7c1,0,1.8-2.6,2.8-2.7
		c1-0.1,2.2,2.4,3.1,2.2c1-0.1,1.4-2.8,2.4-3c0.9-0.2,2.5,2,3.4,1.7c0.9-0.3,1-3,1.9-3.4c0.9-0.4,2.8,1.6,3.7,1.2
		c0.9-0.4,0.5-3.1,1.3-3.6c0.8-0.5,3,1.2,3.8,0.6c0.8-0.5,0-3.2,0.8-3.8c0.7-0.6,3.1,0.7,3.8,0.1c0.7-0.7-0.4-3.1,0.2-3.8
		c0.7-0.7,3.2,0.2,3.8-0.5c0.6-0.7-0.9-3-0.4-3.8c0.5-0.8,3.2-0.2,3.7-1.1c0.5-0.8-1.3-2.9-0.9-3.7c0.4-0.9,3.1-0.7,3.5-1.6
		c0.3-0.9-1.8-2.6-1.5-3.6c0.3-0.9,3-1.2,3.2-2.1c0.2-0.9-2.1-2.3-2-3.3c0.1-0.9,2.8-1.6,2.9-2.6C307.4,60,304.9,58.9,304.9,58z"/>
</g>
<g class="st2">
	<path class="st1" d="M289.6,58c0-0.6,2.5-1.3,2.5-1.8c0-0.6-2.7-0.9-2.7-1.4c-0.1-0.6,2.3-1.6,2.2-2.2c-0.1-0.6-2.8-0.5-2.9-1
		c-0.2-0.6,2.1-1.9,1.8-2.5c-0.2-0.5-2.8,0-3-0.6c-0.3-0.5,1.7-2.2,1.5-2.7c-0.3-0.5-2.8,0.4-3.1-0.1c-0.3-0.5,1.4-2.5,1-2.9
		c-0.4-0.5-2.7,0.8-3.1,0.4c-0.4-0.4,1-2.6,0.6-3c-0.4-0.4-2.5,1.2-3,0.8c-0.5-0.4,0.6-2.8,0.1-3.1c-0.5-0.3-2.3,1.5-2.8,1.2
		c-0.5-0.3,0.2-2.8-0.3-3.1c-0.5-0.2-2.1,1.9-2.6,1.7c-0.5-0.2-0.2-2.8-0.8-3c-0.5-0.2-1.8,2.2-2.3,2c-0.6-0.1-0.7-2.8-1.2-2.8
		c-0.6-0.1-1.4,2.4-2,2.4c-0.6,0-1.1-2.6-1.6-2.6c-0.6,0-1.1,2.6-1.6,2.6c-0.6,0-1.4-2.4-2-2.4c-0.6,0.1-0.7,2.7-1.2,2.8
		c-0.6,0.1-1.8-2.2-2.3-2c-0.6,0.2-0.3,2.8-0.8,3c-0.5,0.2-2.1-1.9-2.6-1.7c-0.5,0.3,0.2,2.8-0.3,3.1c-0.5,0.3-2.4-1.6-2.8-1.2
		c-0.5,0.3,0.6,2.7,0.1,3.1c-0.5,0.4-2.6-1.2-3-0.8c-0.4,0.4,1,2.6,0.6,3c-0.4,0.4-2.7-0.8-3.1-0.4c-0.4,0.5,1.4,2.4,1,2.9
		c-0.3,0.5-2.8-0.4-3.1,0.1c-0.3,0.5,1.7,2.2,1.5,2.7c-0.2,0.5-2.8,0-3,0.6c-0.2,0.5,2,1.9,1.8,2.5c-0.2,0.5-2.8,0.4-2.9,1
		c-0.1,0.6,2.3,1.6,2.2,2.2c-0.1,0.6-2.7,0.9-2.7,1.4c0,0.6,2.5,1.2,2.5,1.8c0,0.6-2.5,1.3-2.5,1.8c0,0.6,2.7,0.9,2.7,1.4
		c0.1,0.6-2.3,1.6-2.2,2.2c0.1,0.6,2.8,0.5,2.9,1c0.2,0.6-2.1,1.9-1.8,2.5c0.2,0.5,2.8,0,3,0.6c0.3,0.5-1.7,2.2-1.5,2.7
		c0.3,0.5,2.8-0.4,3.1,0.1c0.3,0.5-1.4,2.5-1,2.9c0.4,0.5,2.7-0.8,3.1-0.4c0.4,0.4-1,2.6-0.6,3c0.4,0.4,2.5-1.2,3-0.8
		c0.5,0.4-0.6,2.8-0.1,3.1c0.5,0.3,2.3-1.5,2.8-1.2c0.5,0.3-0.2,2.8,0.3,3.1c0.5,0.2,2.1-1.9,2.6-1.7c0.5,0.2,0.2,2.8,0.8,3
		c0.5,0.2,1.8-2.2,2.3-2c0.6,0.1,0.7,2.8,1.2,2.8c0.6,0.1,1.4-2.4,2-2.4c0.6,0,1.1,2.6,1.6,2.6c0.6,0,1.1-2.6,1.6-2.6
		c0.6,0,1.4,2.4,2,2.4c0.6-0.1,0.7-2.7,1.2-2.8c0.6-0.1,1.8,2.2,2.3,2c0.6-0.2,0.3-2.8,0.8-3c0.5-0.2,2.1,1.9,2.6,1.7
		c0.5-0.3-0.2-2.8,0.3-3.1c0.5-0.3,2.4,1.6,2.8,1.2c0.5-0.3-0.6-2.7-0.1-3.1c0.5-0.4,2.6,1.2,3,0.8c0.4-0.4-1-2.6-0.6-3
		c0.4-0.4,2.7,0.8,3.1,0.4c0.4-0.5-1.4-2.4-1-2.9c0.3-0.5,2.8,0.4,3.1-0.1c0.3-0.5-1.7-2.2-1.5-2.7c0.2-0.5,2.8,0,3-0.6
		c0.2-0.5-2-1.9-1.8-2.5c0.2-0.5,2.8-0.4,2.9-1c0.1-0.6-2.3-1.6-2.2-2.2c0.1-0.6,2.7-0.9,2.7-1.4C292.1,59.2,289.6,58.6,289.6,58z"
		/>
</g>
<g class="st3">
	<radialGradient id="SVGID_1_" cx="267.7487" cy="57.9788" r="15.4931" gradientUnits="userSpaceOnUse">
		<stop  offset="0" style="stop-color:#FF2832;stop-opacity:0.2"/>
		<stop  offset="1" style="stop-color:#FF2832"/>
	</radialGradient>
	<path class="st4" d="M280.7,58c0-0.4,2.5-0.8,2.5-1.2c0-0.4-2.6-0.4-2.7-0.8c-0.1-0.4,2.4-1.2,2.3-1.5c-0.1-0.3-2.6,0-2.7-0.4
		c-0.1-0.3,2.2-1.5,2.1-1.9c-0.1-0.3-2.6,0.4-2.8,0c-0.2-0.3,1.9-1.8,1.8-2.1c-0.2-0.3-2.5,0.8-2.7,0.5c-0.2-0.3,1.6-2.1,1.4-2.4
		c-0.2-0.3-2.4,1.1-2.6,0.9c-0.2-0.3,1.3-2.3,1.1-2.6c-0.3-0.2-2.2,1.5-2.5,1.2c-0.3-0.2,1-2.5,0.7-2.7c-0.3-0.2-2,1.8-2.3,1.6
		c-0.3-0.2,0.6-2.6,0.3-2.8c-0.3-0.2-1.7,2.1-2,1.9c-0.3-0.1,0.2-2.7-0.2-2.8c-0.3-0.1-1.3,2.3-1.7,2.2c-0.3-0.1-0.2-2.7-0.6-2.7
		c-0.3-0.1-1,2.5-1.3,2.4c-0.4,0-0.6-2.6-1-2.6c-0.4,0-0.6,2.6-1,2.6c-0.4,0-1-2.5-1.3-2.4c-0.4,0.1-0.2,2.6-0.6,2.7
		c-0.3,0.1-1.4-2.3-1.7-2.2c-0.3,0.1,0.2,2.6-0.2,2.8c-0.3,0.1-1.7-2.1-2-1.9c-0.3,0.2,0.6,2.6,0.3,2.8c-0.3,0.2-2-1.8-2.3-1.6
		c-0.3,0.2,0.9,2.5,0.7,2.7c-0.3,0.2-2.2-1.5-2.5-1.2c-0.3,0.2,1.3,2.3,1.1,2.6c-0.2,0.3-2.4-1.1-2.6-0.9c-0.2,0.3,1.6,2.1,1.4,2.4
		c-0.2,0.3-2.6-0.8-2.7-0.5c-0.2,0.3,1.9,1.8,1.8,2.1c-0.2,0.3-2.6-0.4-2.8,0c-0.1,0.3,2.2,1.5,2.1,1.8c-0.1,0.3-2.7,0-2.7,0.4
		c-0.1,0.3,2.4,1.2,2.3,1.5c-0.1,0.3-2.6,0.4-2.7,0.8c0,0.4,2.5,0.8,2.5,1.2c0,0.4-2.5,0.8-2.5,1.2c0,0.4,2.6,0.4,2.7,0.8
		c0.1,0.4-2.4,1.2-2.3,1.5c0.1,0.3,2.6,0,2.7,0.4c0.1,0.3-2.2,1.5-2.1,1.9c0.1,0.3,2.6-0.4,2.8,0c0.2,0.3-1.9,1.8-1.8,2.1
		c0.2,0.3,2.5-0.8,2.7-0.5c0.2,0.3-1.6,2.1-1.4,2.4c0.2,0.3,2.4-1.1,2.6-0.9c0.2,0.3-1.3,2.3-1.1,2.6c0.3,0.2,2.2-1.5,2.5-1.2
		c0.3,0.2-1,2.5-0.7,2.7c0.3,0.2,2-1.8,2.3-1.6c0.3,0.2-0.6,2.6-0.3,2.8c0.3,0.2,1.7-2.1,2-1.9c0.3,0.1-0.2,2.7,0.2,2.8
		c0.3,0.1,1.3-2.3,1.7-2.2c0.3,0.1,0.2,2.7,0.6,2.7c0.3,0.1,1-2.5,1.3-2.4c0.4,0,0.6,2.6,1,2.6c0.4,0,0.6-2.6,1-2.6
		c0.4,0,1,2.5,1.3,2.4c0.4-0.1,0.2-2.6,0.6-2.7c0.3-0.1,1.4,2.3,1.7,2.2c0.3-0.1-0.2-2.6,0.2-2.8c0.3-0.1,1.7,2.1,2,1.9
		c0.3-0.2-0.6-2.6-0.3-2.8c0.3-0.2,2,1.8,2.3,1.6c0.3-0.2-0.9-2.5-0.7-2.7c0.3-0.2,2.2,1.5,2.5,1.2c0.3-0.2-1.3-2.3-1.1-2.6
		c0.2-0.3,2.4,1.1,2.6,0.9c0.2-0.3-1.6-2.1-1.4-2.4c0.2-0.3,2.6,0.8,2.7,0.5c0.2-0.3-1.9-1.8-1.8-2.1c0.2-0.3,2.6,0.4,2.8,0
		c0.1-0.3-2.2-1.5-2.1-1.8c0.1-0.3,2.7,0,2.7-0.4c0.1-0.3-2.4-1.2-2.3-1.5c0.1-0.3,2.6-0.4,2.7-0.8C283.2,58.8,280.7,58.3,280.7,58z
		"/>
</g>
<g>
	<path class="st5" d="M272.2,58c0-0.3,2.3-0.7,2.2-1c0-0.3-2.3-0.1-2.4-0.3c-0.1-0.3,2-1.3,1.9-1.6c-0.1-0.3-2.3,0.6-2.4,0.4
		c-0.1-0.2,1.5-1.8,1.3-2c-0.2-0.2-2,1.2-2.2,1c-0.2-0.2,1-2.2,0.7-2.3c-0.2-0.1-1.6,1.7-1.8,1.6c-0.2-0.1,0.3-2.4,0-2.4
		c-0.3-0.1-1,2.1-1.3,2.1c-0.3,0-0.4-2.3-0.7-2.3c-0.3,0-0.4,2.3-0.7,2.3c-0.3,0-1-2.1-1.3-2.1c-0.3,0.1,0.3,2.3,0,2.4
		c-0.3,0.1-1.6-1.8-1.8-1.6c-0.2,0.1,0.9,2.1,0.7,2.3c-0.2,0.2-2-1.2-2.2-1c-0.2,0.2,1.5,1.8,1.3,2c-0.1,0.2-2.3-0.6-2.4-0.4
		c-0.1,0.2,1.9,1.3,1.9,1.6c-0.1,0.3-2.4,0-2.4,0.3c0,0.3,2.2,0.7,2.2,1c0,0.3-2.3,0.7-2.2,1c0,0.3,2.3,0.1,2.4,0.3
		c0.1,0.3-2,1.3-1.9,1.6c0.1,0.3,2.3-0.6,2.4-0.4c0.1,0.2-1.5,1.8-1.3,2c0.2,0.2,2-1.2,2.2-1c0.2,0.2-1,2.2-0.7,2.3
		c0.2,0.1,1.6-1.7,1.8-1.6c0.2,0.1-0.3,2.4,0,2.4c0.3,0.1,1-2.1,1.3-2.1c0.3,0,0.4,2.3,0.7,2.3c0.3,0,0.4-2.3,0.7-2.3
		c0.3,0,1,2.1,1.3,2.1c0.3-0.1-0.3-2.3,0-2.4c0.3-0.1,1.6,1.8,1.8,1.6c0.2-0.1-0.9-2.1-0.7-2.3c0.2-0.2,2,1.2,2.2,1
		c0.2-0.2-1.5-1.8-1.3-2c0.1-0.2,2.3,0.6,2.4,0.4c0.1-0.2-1.9-1.3-1.9-1.6c0.1-0.3,2.4,0,2.4-0.3C274.5,58.7,272.2,58.3,272.2,58z"
		/>
</g>
</svg>
