<?xml version="1.0" encoding="utf-8"?>
<!-- Generator: Adobe Illustrator 22.0.0, SVG Export Plug-In . SVG Version: 6.00 Build 0)  -->
<svg version="1.1" id="Layer_1" xmlns="http://www.w3.org/2000/svg" xmlns:xlink="http://www.w3.org/1999/xlink" x="0px" y="0px"
	 viewBox="0 0 344 285.5" style="enable-background:new 0 0 344 285.5;" xml:space="preserve">
<style type="text/css">
	.st0{fill:url(#SVGID_1_);}
	.st1{fill:url(#SVGID_2_);}
	.st2{fill:url(#SVGID_3_);}
	.st3{fill:url(#SVGID_4_);}
	.st4{enable-background:new    ;}
	.st5{fill:#FF2832;}
	.st6{fill:#FFC000;}
	.st7{fill:#009632;}
</style>
<linearGradient id="SVGID_1_" gradientUnits="userSpaceOnUse" x1="43.668" y1="253.0606" x2="43.668" y2="-9.094947e-13">
	<stop  offset="0" style="stop-color:#FF2832;stop-opacity:0.2"/>
	<stop  offset="1" style="stop-color:#FF2832"/>
</linearGradient>
<path class="st0" d="M87.3,138.4c-0.2-2.5-1.2-7.8-1.2-7.8l-0.3-2.1l0,0c0,0-1.1-12.9-1.4-18.4c-0.4-5.5-2.7-12-3.8-16
	c-1.1-4,2.3-12.7-0.7-23.5c-1.8-6.8,0-13.1-3.6-17.8c-4-5.1-8.3-4.6-10-4.8l0,0c-2.1-0.4-4.5-0.7-6-1.4c-3.6-1.6-5.9-3.1-8-4.1
	c-1.5-0.6-1.6-5.1-1.6-7.7c1.2-0.8,2.1-1.6,2.6-2.3c0.7-1.1,1.3-4.3,1.6-7.3c0.3,0.1,0.6,0,1.2-0.3c1.4-0.6,1.8-4.6,0.9-6.3
	c-0.1-0.1-0.1-0.3-0.3-0.4c0.5-3.9,1-10.5-1-13.4c-2.8-4.3-9.3-4.5-11.4-4.7c-2.8-0.3-8-0.2-9.3,3c-6,0.6-5.3,10-4.4,15.1
	c-0.1,0.1-0.1,0.2-0.2,0.4c-0.9,1.8-0.5,5.6,0.9,6.3c0.6,0.3,1.1,0.4,1.3,0.3c0.3,2.9,0.9,6.1,1.6,7.3c0.5,0.7,1.4,1.6,2.6,2.3
	c0.1,2.6-0.1,7-1.6,7.7c-2.1,0.9-4.3,2.5-8,4.1c-1.5,0.6-3.9,1-6,1.4c-1.8,0.2-6.1-0.3-10,4.8c-3.6,4.7-1.9,11.1-3.6,17.8
	C4.4,81.4,7.8,90,6.7,94s-3.4,10.5-3.8,16s-1.4,18.4-1.4,18.4l0,0l-0.3,2.1c0,0-1,5.3-1.2,7.8c-0.1,1.6,0.2,4.1,1.3,6.3
	c1.9,3.8,5.8,6.6,5.8,6.6c0.5,0.6,3.5,0.9,1.9-1.3c-3.2-4.2-3.6-7-3.6-7S5,139.5,6,139.5c0.8-0.1,1.6,1.7,1.9,2.6
	c0.6,1.6,0.8,4.2,1.9,3.6c0.4-0.2,0.3-0.7,0.2-1.7c0-0.5,0.1-1.4,0.1-1.9c-0.1-0.4-0.6-2.7-0.9-3.4c-0.2-0.7-1.1-3.4-1.4-4.1
	c-0.3-0.8-0.6-2.2-0.5-3.3s1.9-7.4,2.8-9.3c0.6-1.4,6.9-9.9,8-26.8c0.3-4,1.3-9.6,1.9-15c0.5,2.5,0.9,4.9,1,6.8
	c0.2,5.6,1.9,13.7,1.4,17.9c-1.1,9.7-3.6,9.4-3.6,25.3c0,10.5-0.4,30,5,53.3c0.8,3.4,0.1,8.1-0.4,11.6c-0.8,6.6,1.1,15.3,5.1,35.2
	c3.8,19.1-7.9,16.9-5.9,21.4c0.9,1.9,11.6,1.3,15,1.1c1-0.1,1.8-0.9,1.9-1.8c0.1-1-0.4-2.1-1.4-5.1c-1.1-3.4-0.6-8.5-0.6-8.5
	s2.1-31,2.1-35.5c0-5-0.4-8.3-0.7-10.3c-0.3-1.7-0.4-3.4,0-5.1c3.1-14,3.1-49.6,3.1-49.6h3.3c0,0,0.1,35.6,3.1,49.6
	c0.4,1.7,0.3,3.4,0,5.1c-0.4,2-0.7,5.3-0.7,10.3c0,4.4,2.1,35.5,2.1,35.5s0.4,5.1-0.6,8.5c-0.9,2.9-1.4,4.1-1.4,5.1
	c0.1,1,0.9,1.8,1.9,1.8c3.3,0.1,14.1,0.7,15-1.1c2-4.5-9.8-2.3-5.9-21.4c4.1-19.9,5.9-28.6,5.1-35.2c-0.4-3.5-1.1-8.2-0.4-11.6
	c5.4-23.2,5-42.8,5-53.3c0-16-2.5-15.7-3.6-25.3c-0.5-4.1,1.2-12.3,1.4-17.9c0.1-1.9,0.5-4.3,1-6.8c0.6,5.4,1.6,11.1,1.9,15
	c1.1,16.9,7.8,25.9,8.4,27.1c0.6,1.6,2.4,7.8,2.4,9c0.1,1.1-0.2,2.5-0.5,3.3c-0.2,0.7-1.2,3.4-1.4,4.1c-0.2,0.7-0.8,2.9-0.9,3.4
	s0.1,1.4,0.1,1.9c-0.1,1-0.2,1.5,0.2,1.7c1.1,0.5,1.4-2,1.9-3.6c0.3-0.9,1.1-2.6,1.9-2.6c0.9,0.1,0.6,3.4,0.6,3.4s-0.4,2.8-3.6,7
	c-1.6,2.1,1.4,1.9,1.9,1.3c0,0,3.8-2.9,5.8-6.6C87.1,142.6,87.4,140.1,87.3,138.4z"/>
<linearGradient id="SVGID_2_" gradientUnits="userSpaceOnUse" x1="306.1711" y1="134.874" x2="306.1711" y2="387.6639" gradientTransform="matrix(1 0 0 -1 0 387.6639)">
	<stop  offset="5.000000e-04" style="stop-color:#009632;stop-opacity:0.3"/>
	<stop  offset="1" style="stop-color:#009632"/>
</linearGradient>
<path class="st1" d="M344,138c-0.1-2.5-1-7.8-1-7.8l-0.2-2.1l0.1,0.1c0,0-0.6-13-0.8-18.5s-2.5-13-3.4-17c-0.9-4.1-1.2-12-1.1-21.5
	c0.1-9.8-0.6-17.5-2.3-19.9c-2-2.8-6-3.8-7.5-4.2c-1.2-0.4-2.6-0.7-4-1.1c0,0,0,0,0-0.1c1.8-4.6,1.8-9.8,0.1-14.5
	c-0.5-1.4-1.1-2.6-1.4-4.1c-0.5-2.1-0.3-4.3-0.4-6.5c-0.1-3.8-0.4-8.7-2.3-12.2c-1.5-2.8-3.7-5.7-7.1-6c-0.8-0.1-1.1,0.1-1.8-0.3
	c-0.7-0.4-2.2-1.7-4.5-2.1c-6.8-1.1-12.6,2.9-15.4,9c-2.1,4.5-2.2,9.5-2.1,14.5c0.1,2.1,0.1,4.1-0.7,6c-1.2,2.7-4.2,4.2-5.9,6.6
	c-1.4,1.9-1.8,4.4-1.9,6.8c-0.1,1.6,0,3.1,0.4,4.6c-0.8,0.4-1.6,0.9-2.3,1.5l0,0l0,0c-0.1,0.1-0.2,0.2-0.4,0.4l0,0
	c-0.1,0.1-0.2,0.2-0.3,0.3l-0.1,0.1c-0.1,0.1-0.1,0.1-0.2,0.3c0,0.1-0.1,0.1-0.1,0.1c-0.1,0.1-0.2,0.3-0.3,0.4
	c-1.7,2.4-2.4,10.4-2.3,20.2c0.1,9.6-0.1,17.5-1.1,21.5c-0.9,4.1-3.3,11.5-3.4,17c0,0.1,0,0.2,0,0.4v0.1c0,0.1,0,0.3,0,0.4v0.1
	c0,0.1,0,0.2,0,0.4v0.1c0,0.1,0,0.3,0,0.4v0.1c0,0.1,0,0.3,0,0.4v0.1c0,0.1,0,0.3,0,0.4c0,0.1,0,0.1,0,0.1c0,0.1,0,0.3,0,0.4l0,0
	c0,0.1,0,0.4,0,0.5v0.1c0,0.1,0,0.4,0,0.5l0,0c0,0.2,0,0.4,0,0.6l0,0c0,0.4,0,0.7-0.1,1.1v0.1c0,0.6-0.1,1.1-0.1,1.8l0,0
	c0,0.2,0,0.4,0,0.6l0,0c-0.2,5.1-0.5,9.9-0.5,9.9l0,0l-0.2,2.1c0,0-0.9,5.3-1,7.8c-0.1,1.6,0.4,4.1,1.5,6.3c2.1,3.7,5.1,5.6,5.1,5.6
	c0.5,0.5,3.5,0.7,1.9-1.4c-3.3-4.1-2.9-6.1-2.9-6.1s-0.5-3.4,0.4-3.5c0.8-0.1,1.7,1.6,2,2.6c0.6,1.6,1,4.1,2.1,3.6
	c0.4-0.2,0.2-0.7,0.1-1.7c-0.1-0.5,0.1-1.4,0-1.9c-0.1-0.4-0.7-2.7-0.9-3.3c-0.2-0.7-1.3-3.3-1.6-4.1c-0.4-0.8-0.6-2.2-0.6-3.3
	s1.8-7.8,2.1-9c0.3-1.3,7.5-19.9,7.5-27.5c0-3.8,0.3-9.6,0.5-15.1c0.7,3.8,1.6,8.1,2.1,10c0.8,2.6,1.1,8.8-1.1,13.2
	c-0.1,0.3-0.3,0.5-0.4,0.8c-0.6,1.1-1.3,2.2-1.8,3.3c-5.3,10.4-5.8,19.4-5.8,25.9c0,1.1,0.1,2.1,0.1,3.4l0,0c0-0.1,0-0.3,0-0.4
	c0.3,3.9,1.1,9.3,2.6,18.4c-0.1-0.6-0.2-0.9-0.2-0.9c1.2,7.3,3,16.9,5.4,30.3c0.6,3.4,0.8,6.9,0.5,10.4c-0.6,6.4,0.1,15.6,4.1,35.5
	c1.6,8.1,0.9,12.6-0.5,15.4l0,0c-1.9,3.9-4.9,4.4-3.9,7c1.6,1.9,9.3,1.2,12.6,1.1c0.9-0.1,1.7-0.1,2.2-1.4c0.4-0.9,0.4-1.5-1.2-5.3
	c-1-2.3-0.9-6.1-0.9-6.1s2.4-33.3,2.4-38.1c0-4.6-0.3-7.9-0.6-10c-0.4-2.1-0.4-4.1-0.1-6.2c0.4-3.1,0.7-7.3,1.1-12
	c0,0.1,0,0.3,0,0.4c1.9-23.9,2.3-39.4,2.3-39.4h2.8l-0.1,0.1c0,0,0.9,36,3.1,51.1c0.3,2,0.3,4.1,0,6.1c-0.3,2.1-0.6,5.3-0.6,9.9
	c0,4.4,2.1,35.5,2.1,35.5s0.3,3.6-0.2,6.8c-0.1,0.2-0.1,0.4-0.1,0.6c0,0,0.1-0.4,0.2-0.9c-0.1,0.6-0.2,1.3-0.4,1.9
	c-0.9,2.9-1.4,4.1-1.4,5.1c0.1,1,0.9,1.8,1.9,1.8c3.3,0.1,12,0.9,12.9-1c2.1-4.5-9.2-3.1-4.4-22.5c4.8-19.7,5.3-29,4.5-35.5
	c-0.4-3.5-0.4-7,0.1-10.5c4.3-28.3,8.7-40.9,8.7-51.5c0-8.1-0.6-13.4-1.9-17.6l0,0c-0.1-0.3-0.1-0.6-0.3-0.9l0,0
	c-0.3-0.9-0.6-1.6-0.9-2.4l0,0c-0.1-0.3-0.2-0.5-0.3-0.8l0,0c-0.2-0.5-0.4-1-0.7-1.5l0,0c-0.1-0.2-0.2-0.5-0.4-0.7c0,0,0,0,0-0.1
	c-0.1-0.2-0.2-0.5-0.4-0.7c0,0,0,0,0-0.1c-0.3-0.5-0.5-1-0.8-1.5c0,0,0,0,0-0.1c-0.1-0.2-0.3-0.5-0.4-0.7v-0.1
	c-0.1-0.2-0.3-0.5-0.4-0.7v-0.1c-0.1-0.3-0.3-0.5-0.4-0.8c-2-3.5-1.9-10-1.3-14c0-0.1,0.1-0.2,0.1-0.4v-0.1c0-0.1,0.1-0.2,0.1-0.4
	v-0.1c0-0.1,0.1-0.2,0.1-0.4v0.1c0-0.1,0.1-0.3,0.1-0.4v-0.1c0-0.1,0.1-0.3,0.1-0.4c0,0,0,0,0-0.1s0.1-0.3,0.1-0.5v-0.1
	c0-0.1,0.1-0.4,0.1-0.5l0,0c0.1-0.1,0.1-0.4,0.1-0.5v-0.1c0.1-0.1,0.1-0.4,0.1-0.6V84c0.1-0.1,0.1-0.4,0.1-0.5v-0.1
	c0.1-0.2,0.1-0.4,0.1-0.6v-0.1c0.1-0.2,0.1-0.4,0.1-0.6l0,0c0.1-0.2,0.1-0.4,0.1-0.6c0-0.1,0-0.1,0-0.1c0.1-0.2,0.1-0.4,0.1-0.6
	c0,0,0,0,0-0.1c0.1-0.2,0.1-0.4,0.1-0.6c0-0.1,0-0.1,0-0.1c0-0.1,0.1-0.2,0.1-0.3c0,0.2,0,0.4,0,0.6c0,0.1,0,0.1,0,0.1
	c0,0.3,0,0.6,0.1,0.9v0.1c0,0.3,0,0.6,0.1,0.9v0.1c0,0.3,0,0.6,0.1,0.9c0,0.1,0,0.1,0,0.1c0,0.3,0,0.6,0.1,0.9v0.1
	c0,0.3,0,0.6,0.1,0.9v0.1c0,0.3,0,0.6,0,0.9l0,0c0,0.3,0,0.6,0,0.9v0.1c0,0.3,0,0.6,0,0.9v0.1c0,0.3,0,0.6,0,0.8c0,0.1,0,0.1,0,0.1
	c0,0.3,0,0.5,0,0.8c0,0.1,0,0.1,0,0.1c0,0.3,0,0.5,0,0.7c0,0.1,0,0.1,0,0.1c0,0.2,0,0.5,0,0.7c0,0.1,0,0.1,0,0.1c0,0.2,0,0.4,0,0.7
	v0.1c0,0.2,0,0.4,0,0.6v0.1c0,0.2,0,0.4,0,0.6c0,0.1,0,0.4,0,0.5v0.1c0,0.1,0,0.4,0,0.5V95c0,0.2,0,0.4,0.1,0.6v0.1
	c0,0.2,0.1,0.4,0.1,0.6v0.1c0,0.2,0.1,0.4,0.1,0.6c0,0.1,0,0.1,0,0.1c0,0.2,0.1,0.4,0.1,0.6c0,0.1,0,0.1,0,0.1
	c0.1,0.2,0.1,0.4,0.1,0.7l0,0c0.1,0.2,0.1,0.4,0.1,0.7c0,0.1,0,0.1,0,0.1c0.1,0.2,0.1,0.4,0.1,0.7c0,0.1,0,0.1,0,0.1
	c0.1,0.2,0.1,0.5,0.1,0.7v0.1c0.1,0.2,0.1,0.5,0.1,0.7v0.1c0.1,0.2,0.1,0.5,0.2,0.7c0,0.1,0,0.1,0.1,0.1c0.1,0.2,0.1,0.5,0.2,0.7
	c0,0.1,0,0.1,0,0.1c0.1,0.3,0.1,0.5,0.2,0.8c0,0,0,0,0,0.1c0.1,0.3,0.1,0.5,0.2,0.8c0,0.1,0,0.1,0,0.1c0.1,0.3,0.1,0.5,0.2,0.8
	c0,0.1,0,0.1,0.1,0.1c0.1,0.3,0.1,0.5,0.2,0.8c0,0.1,0,0.1,0,0.1c0.1,0.3,0.1,0.5,0.2,0.8v0.1c0.1,0.3,0.1,0.5,0.2,0.8
	c0,0.1,0,0.1,0.1,0.1c0.1,0.2,0.1,0.5,0.2,0.7c0,0.1,0,0.1,0.1,0.1c0.1,0.3,0.1,0.5,0.2,0.8c0,0,0,0,0,0.1c0.1,0.2,0.1,0.5,0.2,0.7
	c0,0.1,0,0.1,0,0.1c0.1,0.2,0.1,0.5,0.2,0.7c0,0.1,0,0.1,0.1,0.1c0.1,0.2,0.1,0.5,0.2,0.7v0.1c0.1,0.2,0.1,0.4,0.2,0.7
	c0,0,0,0,0,0.1c0.1,0.2,0.1,0.4,0.2,0.6c0,0.1,0,0.1,0.1,0.1c0.1,0.2,0.1,0.4,0.2,0.6c0,0.1,0,0.1,0.1,0.1c0.1,0.2,0.1,0.4,0.2,0.6
	v0.1c0.1,0.2,0.1,0.4,0.2,0.6v0.1c0.1,0.2,0.1,0.4,0.2,0.6c0,0.1,0,0.1,0.1,0.1c0.1,0.2,0.1,0.4,0.2,0.5v0.1
	c0.1,0.1,0.1,0.4,0.1,0.5l0,0c0.6,1.6,1.1,3.3,1.5,5l0,0c0.1,0.3,0.1,0.6,0.2,0.9c0,0.1,0,0.1,0,0.1c0.1,0.2,0.1,0.4,0.1,0.7
	c0,0.1,0.1,0.1,0.1,0.2c0.1,0.2,0.1,0.4,0.1,0.6c0,0.1,0,0.1,0.1,0.2c0.1,0.2,0.1,0.5,0.1,0.7c0,0,0,0,0,0.1l0.3,1.4
	c0.2,0.9,0.4,1.7,0.5,2.3c0.3,1.7-0.4,2.6-0.6,3.3s-1.4,3.3-1.6,4.1c-0.2,0.7-0.9,2.9-0.9,3.3c-0.1,0.5,0.1,1.4,0,1.9
	c-0.1,1-0.3,1.5,0.1,1.7c1.1,0.6,1.4-2,2.1-3.6c0.4-0.9,1.2-2.6,2-2.6c0.9,0.1,0.4,3.5,0.4,3.5s0.4,1.9-2.9,6.1
	c-1.7,2.1,1.3,1.9,1.9,1.4c0,0,3.1-1.9,5.1-5.6C343.6,142.1,344.1,139.6,344,138z"/>
<linearGradient id="SVGID_3_" gradientUnits="userSpaceOnUse" x1="218.6701" y1="134.5033" x2="218.6701" y2="387.6639" gradientTransform="matrix(1 0 0 -1 0 387.6639)">
	<stop  offset="0" style="stop-color:#FFC000;stop-opacity:0.3"/>
	<stop  offset="1" style="stop-color:#FFC000"/>
</linearGradient>
<path class="st2" d="M262.2,138.4c-0.2-2.5-1.2-7.8-1.2-7.8l-0.3-2.1l0,0c0,0-1.1-12.9-1.4-18.4c-0.4-5.5-2.7-12-3.8-16
	c-1.1-4,2.3-12.7-0.7-23.5c-1.8-6.8,0-13.1-3.6-17.8c-4-5.1-8.3-4.6-10-4.8l0,0c-2.1-0.4-4.5-0.7-6-1.4c-3.6-1.6-5.9-3.1-8-4.1
	c-1.5-0.6-1.6-5.1-1.6-7.7c1.2-0.8,2.1-1.6,2.6-2.3c0.7-1.1,1.3-4.3,1.6-7.3c0.3,0.1,0.6,0,1.2-0.3c1.4-0.6,1.8-4.6,0.9-6.3
	c-0.1-0.1-0.1-0.3-0.3-0.4c0.5-3.9,1-10.5-1-13.4c-2.8-4.3-9.3-4.5-11.4-4.7c-2.8-0.3-8-0.2-9.3,3c-6,0.6-5.3,10-4.4,15.1
	c-0.1,0.1-0.1,0.2-0.2,0.4c-0.9,1.8-0.5,5.6,0.9,6.3c0.6,0.3,1.1,0.4,1.3,0.3c0.3,2.9,0.9,6.1,1.6,7.3c0.5,0.7,1.4,1.6,2.6,2.3
	c0.1,2.6-0.1,7-1.6,7.7c-2.1,0.9-4.3,2.5-8,4.1c-1.5,0.6-3.9,1-6,1.4c-1.8,0.2-6.1-0.3-10,4.8c-3.6,4.7-1.9,11.1-3.6,17.8
	c-3.1,10.9,0.4,19.5-0.7,23.5s-3.4,10.5-3.8,16s-1.4,18.4-1.4,18.4l0,0l-0.3,2.1c0,0-1,5.3-1.2,7.8c-0.1,1.6,0.2,4.1,1.3,6.3
	c1.9,3.8,5.8,6.6,5.8,6.6c0.5,0.6,3.5,0.9,1.9-1.3c-3.2-4.2-3.6-7-3.6-7s-0.4-3.4,0.6-3.4c0.8-0.1,1.6,1.7,1.9,2.6
	c0.6,1.6,0.8,4.2,1.9,3.6c0.4-0.2,0.3-0.7,0.2-1.7c0-0.5,0.1-1.4,0.1-1.9c-0.1-0.4-0.6-2.7-0.9-3.4c-0.2-0.7-1.1-3.4-1.4-4.1
	c-0.3-0.8-0.6-2.2-0.5-3.3s1.9-7.4,2.8-9.3c0.6-1.4,6.9-9.9,8-26.8c0.3-4,1.3-9.6,1.9-15c0.5,2.5,0.9,4.9,1,6.8
	c0.2,5.6,1.9,13.7,1.4,17.9c-1.1,9.7-3.6,9.4-3.6,25.3c0,10.5-0.4,30,5,53.3c0.8,3.4,0.1,8.1-0.4,11.6c-0.8,6.6,1.1,15.3,5.1,35.2
	c3.8,19.1-7.9,16.9-5.9,21.4c0.9,1.9,11.6,1.3,15,1.1c1-0.1,1.8-0.9,1.9-1.8c0.1-1-0.4-2.1-1.4-5.1c-1.1-3.4-0.6-8.5-0.6-8.5
	s2.1-31,2.1-35.5c0-5-0.4-8.3-0.7-10.3c-0.3-1.7-0.4-3.4,0-5.1c3.1-14,3.1-49.6,3.1-49.6h3.3c0,0,0.1,35.6,3.1,49.6
	c0.4,1.7,0.3,3.4,0,5.1c-0.4,2-0.7,5.3-0.7,10.3c0,4.4,2.1,35.5,2.1,35.5s0.4,5.1-0.6,8.5c-0.9,2.9-1.4,4.1-1.4,5.1
	c0.1,1,0.9,1.8,1.9,1.8c3.3,0.1,14.1,0.7,15-1.1c2-4.5-9.8-2.3-5.9-21.4c4.1-19.9,5.9-28.6,5.1-35.2c-0.4-3.5-1.1-8.2-0.4-11.6
	c5.4-23.2,5-42.8,5-53.3c0-16-2.5-15.7-3.6-25.3c-0.5-4.1,1.2-12.3,1.4-17.9c0.1-1.9,0.5-4.3,1-6.8c0.6,5.4,1.6,11.1,1.9,15
	c1.1,16.9,7.8,25.9,8.4,27.1c0.6,1.6,2.4,7.8,2.4,9c0,1.1-0.2,2.5-0.5,3.3c-0.2,0.7-1.2,3.4-1.4,4.1c-0.2,0.7-0.8,2.9-0.9,3.4
	s0.1,1.4,0.1,1.9c-0.1,1-0.2,1.5,0.2,1.7c1.1,0.5,1.4-2,1.9-3.6c0.3-0.9,1.1-2.6,1.9-2.6c0.9,0.1,0.6,3.4,0.6,3.4s-0.4,2.8-3.6,7
	c-1.6,2.1,1.4,1.9,1.9,1.3c0,0,3.8-2.9,5.8-6.6C262,142.6,262.3,140.1,262.2,138.4z"/>
<linearGradient id="SVGID_4_" gradientUnits="userSpaceOnUse" x1="131.1691" y1="134.874" x2="131.1691" y2="387.6639" gradientTransform="matrix(1 0 0 -1 0 387.6639)">
	<stop  offset="0" style="stop-color:#FFC000;stop-opacity:0.3"/>
	<stop  offset="1" style="stop-color:#FFC000"/>
</linearGradient>
<path class="st3" d="M169,138c-0.1-2.5-1-7.8-1-7.8l-0.2-2.1l0.1,0.1c0,0-0.6-13-0.8-18.5s-2.5-13-3.4-17c-0.9-4.1-1.2-12-1.1-21.5
	c0.1-9.8-0.6-17.5-2.3-19.9c-2-2.8-6-3.8-7.5-4.2c-1.2-0.4-2.6-0.7-4-1.1c0,0,0,0,0-0.1c1.8-4.6,1.8-9.8,0.1-14.5
	c-0.5-1.4-1.1-2.6-1.4-4.1c-0.5-2.1-0.3-4.3-0.4-6.5c-0.1-3.8-0.4-8.7-2.3-12.2c-1.5-2.8-3.7-5.7-7.1-6c-0.8-0.1-1.1,0.1-1.8-0.3
	s-2.2-1.7-4.5-2.1c-6.8-1.1-12.6,2.9-15.4,9c-2.1,4.5-2.2,9.5-2.1,14.5c0.1,2.1,0.1,4.1-0.7,6c-1.2,2.7-4.2,4.2-5.9,6.6
	c-1.4,1.9-1.8,4.4-1.9,6.8c-0.1,1.6,0,3.1,0.4,4.6c-0.8,0.4-1.6,0.9-2.3,1.5l0,0l0,0c-0.1,0.1-0.2,0.2-0.4,0.4l0,0
	c-0.1,0.1-0.2,0.2-0.3,0.3l-0.1,0.1c-0.1,0.1-0.1,0.1-0.2,0.3c0,0.1-0.1,0.1-0.1,0.1c-0.1,0.1-0.2,0.3-0.3,0.4
	c-1.7,2.4-2.4,10.4-2.3,20.2c0.1,9.6-0.1,17.5-1.1,21.5c-0.9,4.1-3.3,11.5-3.4,17c0,0.1,0,0.2,0,0.4v0.1c0,0.1,0,0.3,0,0.4v0.1
	c0,0.1,0,0.2,0,0.4v0.1c0,0.1,0,0.3,0,0.4v0.1c0,0.1,0,0.3,0,0.4v0.1c0,0.1,0,0.3,0,0.4c0,0.1,0,0.1,0,0.1c0,0.1,0,0.3,0,0.4l0,0
	c0,0.1,0,0.4,0,0.5v0.1c0,0.1,0,0.4,0,0.5l0,0c0,0.2,0,0.4,0,0.6l0,0c0,0.4,0,0.7-0.1,1.1v0.1c0,0.6-0.1,1.1-0.1,1.8l0,0
	c0,0.2,0,0.4,0,0.6l0,0c-0.2,5.1-0.5,9.9-0.5,9.9l0,0l-0.2,2.1c0,0-0.9,5.3-1,7.8c-0.1,1.6,0.4,4.1,1.5,6.3c2.1,3.7,5.1,5.6,5.1,5.6
	c0.5,0.5,3.5,0.7,1.9-1.4c-3.3-4.1-2.9-6.1-2.9-6.1s-0.5-3.4,0.4-3.5c0.8-0.1,1.7,1.6,2,2.6c0.6,1.6,1,4.1,2.1,3.6
	c0.4-0.2,0.2-0.7,0.1-1.7c-0.1-0.5,0.1-1.4,0-1.9c-0.1-0.4-0.7-2.7-0.9-3.3c-0.2-0.7-1.3-3.3-1.6-4.1c-0.4-0.8-0.6-2.2-0.6-3.3
	s1.8-7.8,2.1-9c0.3-1.3,7.5-19.9,7.5-27.5c0-3.8,0.3-9.6,0.5-15.1c0.7,3.8,1.6,8.1,2.1,10c0.8,2.6,1.1,8.8-1.1,13.2
	c-0.1,0.3-0.3,0.5-0.4,0.8c-0.6,1.1-1.3,2.2-1.8,3.3c-5.3,10.4-5.8,19.4-5.8,25.9c0,1.1,0.1,2.1,0.1,3.4l0,0c0-0.1,0-0.3,0-0.4
	c0.3,3.9,1.1,9.3,2.6,18.4c-0.1-0.6-0.2-0.9-0.2-0.9c1.2,7.3,3,16.9,5.4,30.3c0.6,3.4,0.8,6.9,0.5,10.4c-0.6,6.4,0.1,15.6,4.1,35.5
	c1.6,8.1,0.9,12.6-0.5,15.4l0,0c-1.9,3.9-4.9,4.4-3.9,7c1.6,1.9,9.3,1.2,12.6,1.1c0.9-0.1,1.7-0.1,2.2-1.4c0.4-0.9,0.4-1.5-1.2-5.3
	c-1-2.3-0.9-6.1-0.9-6.1s2.4-33.3,2.4-38.1c0-4.6-0.3-7.9-0.6-10c-0.4-2.1-0.4-4.1-0.1-6.2c0.4-3.1,0.7-7.3,1.1-12
	c0,0.1,0,0.3,0,0.4c1.9-23.9,2.3-39.4,2.3-39.4h2.8l0.1-0.1c0,0,0.9,36,3.1,51.1c0.3,2,0.3,4.1,0,6.1c-0.3,2.1-0.6,5.3-0.6,9.9
	c0,4.4,2.1,35.5,2.1,35.5s0.3,3.6-0.2,6.8c-0.1,0.2-0.1,0.4-0.1,0.6c0,0,0.1-0.4,0.2-0.9c-0.1,0.6-0.2,1.3-0.4,1.9
	c-0.9,2.9-1.4,4.1-1.4,5.1c0.1,1,0.9,1.8,1.9,1.8c3.3,0.1,12,0.9,12.9-1c2.1-4.5-9.2-3.1-4.4-22.5c4.8-19.7,5.3-29,4.5-35.5
	c-0.4-3.5-0.4-7,0.1-10.5c4.3-28.3,8.7-40.9,8.7-51.5c0-8.1-0.6-13.4-1.9-17.6l0,0c-0.1-0.3-0.1-0.6-0.3-0.9l0,0
	c-0.3-0.9-0.6-1.6-0.9-2.4l0,0c-0.1-0.3-0.2-0.5-0.3-0.8l0,0c-0.2-0.5-0.4-1-0.7-1.5l0,0c-0.1-0.2-0.2-0.5-0.4-0.7c0,0,0,0,0-0.1
	c-0.1-0.2-0.2-0.5-0.4-0.7c0,0,0,0,0-0.1c-0.3-0.5-0.5-1-0.8-1.5c0,0,0,0,0-0.1c-0.1-0.2-0.3-0.5-0.4-0.7v-0.1
	c-0.1-0.2-0.3-0.5-0.4-0.7v-0.1c-0.1-0.3-0.3-0.5-0.4-0.8c-2-3.5-1.9-10-1.3-14c0-0.1,0.1-0.2,0.1-0.4V88c0-0.1,0.1-0.2,0.1-0.4
	v-0.1c0-0.1,0.1-0.2,0.1-0.4v0.3c0-0.1,0.1-0.3,0.1-0.4v-0.1c0-0.1,0.1-0.3,0.1-0.4c0,0,0,0,0-0.1s0.1-0.3,0.1-0.5v-0.1
	c0-0.1,0.1-0.4,0.1-0.5l0,0c0.1-0.1,0.1-0.4,0.1-0.5v-0.1c0.1-0.1,0.1-0.4,0.1-0.6V84c0.1-0.1,0.1-0.4,0.1-0.5v-0.1
	c0.1-0.2,0.1-0.4,0.1-0.6v-0.1c0.1-0.2,0.1-0.4,0.1-0.6l0,0c0.1-0.2,0.1-0.4,0.1-0.6c0-0.1,0-0.1,0-0.1c0.1-0.2,0.1-0.4,0.1-0.6
	c0,0,0,0,0-0.1c0.1-0.2,0.1-0.4,0.1-0.6c0-0.1,0-0.1,0-0.1c0-0.1,0.1-0.2,0.1-0.3c0,0.2,0,0.4,0,0.6c0,0.1,0,0.1,0,0.1
	c0,0.3,0,0.6,0.1,0.9v0.1c0,0.3,0,0.6,0.1,0.9v0.1c0,0.3,0,0.6,0.1,0.9c0,0.1,0,0.1,0,0.1c0,0.3,0,0.6,0.1,0.9v0.1
	c0,0.3,0,0.6,0.1,0.9v0.1c0,0.3,0,0.6,0,0.9l0,0c0,0.3,0,0.6,0,0.9v0.1c0,0.3,0,0.6,0,0.9v0.1c0,0.3,0,0.6,0,0.8c0,0.1,0,0.1,0,0.1
	c0,0.3,0,0.5,0,0.8c0,0.1,0,0.1,0,0.1c0,0.3,0,0.5,0,0.7c0,0.1,0,0.1,0,0.1c0,0.2,0,0.5,0,0.7c0,0.1,0,0.1,0,0.1c0,0.2,0,0.4,0,0.7
	v0.1c0,0.2,0,0.4,0,0.6v0.1c0,0.2,0,0.4,0,0.6c0,0.1,0,0.4,0,0.5v0.1c0,0.1,0,0.4,0,0.5V95c0,0.2,0,0.4,0.1,0.6v0.1
	c0,0.2,0.1,0.4,0.1,0.6v0.1c0,0.2,0.1,0.4,0.1,0.6c0,0.1,0,0.1,0,0.1c0,0.2,0.1,0.4,0.1,0.6c0,0.1,0,0.1,0,0.1
	c0.1,0.2,0.1,0.4,0.1,0.7l0,0c0.1,0.2,0.1,0.4,0.1,0.7c0,0.1,0,0.1,0,0.1c0.1,0.2,0.1,0.4,0.1,0.7c0,0.1,0,0.1,0,0.1
	c0.1,0.2,0.1,0.5,0.1,0.7v0.1c0.1,0.2,0.1,0.5,0.1,0.7v0.1c0.1,0.2,0.1,0.5,0.2,0.7c0,0.1,0,0.1,0.1,0.1c0.1,0.2,0.1,0.5,0.2,0.7
	c0,0.1,0,0.1,0,0.1c0.1,0.3,0.1,0.5,0.2,0.8c0,0,0,0,0,0.1c0.1,0.3,0.1,0.5,0.2,0.8c0,0.1,0,0.1,0,0.1c0.1,0.3,0.1,0.5,0.2,0.8
	c0,0.1,0,0.1,0.1,0.1c0.1,0.3,0.1,0.5,0.2,0.8c0,0.1,0,0.1,0,0.1c0.1,0.3,0.1,0.5,0.2,0.8v0.1c0.1,0.3,0.1,0.5,0.2,0.8
	c0,0.1,0,0.1,0.1,0.1c0.1,0.2,0.1,0.5,0.2,0.7c0,0.1,0,0.1,0.1,0.1c0.1,0.3,0.1,0.5,0.2,0.8c0,0,0,0,0,0.1c0.1,0.2,0.1,0.5,0.2,0.7
	c0,0.1,0,0.1,0,0.1c0.1,0.2,0.1,0.5,0.2,0.7c0,0.1,0,0.1,0.1,0.1c0.1,0.2,0.1,0.5,0.2,0.7v0.1c0.1,0.2,0.1,0.4,0.2,0.7
	c0,0,0,0,0,0.1c0.1,0.2,0.1,0.4,0.2,0.6c0,0.1,0,0.1,0.1,0.1c0.1,0.2,0.1,0.4,0.2,0.6c0,0.1,0,0.1,0.1,0.1c0.1,0.2,0.1,0.4,0.2,0.6
	v0.1c0.1,0.2,0.1,0.4,0.2,0.6v0.1c0.1,0.2,0.1,0.4,0.2,0.6c0,0.1,0,0.1,0.1,0.1c0.1,0.2,0.1,0.4,0.2,0.5v0.1
	c0.1,0.1,0.1,0.4,0.1,0.5l0,0c0.6,1.6,1.1,3.3,1.5,5l0,0c0.1,0.3,0.1,0.6,0.2,0.9c0,0.1,0,0.1,0,0.1c0.1,0.2,0.1,0.4,0.1,0.7
	c0,0.1,0.1,0.1,0.1,0.2c0.1,0.2,0.1,0.4,0.1,0.6c0,0.1,0,0.1,0.1,0.2c0.1,0.2,0.1,0.5,0.1,0.7c0,0,0,0,0,0.1l0.3,1.4
	c0.2,0.9,0.4,1.7,0.5,2.3c0.3,1.7-0.4,2.6-0.6,3.3c-0.2,0.7-1.4,3.3-1.6,4.1c-0.2,0.7-0.9,2.9-0.9,3.3c-0.1,0.5,0.1,1.4,0,1.9
	c-0.1,1-0.3,1.5,0.1,1.7c1.1,0.6,1.4-2,2.1-3.6c0.4-0.9,1.2-2.6,2-2.6c0.9,0.1,0.4,3.5,0.4,3.5s0.4,1.9-2.9,6.1
	c-1.7,2.1,1.3,1.9,1.9,1.4c0,0,3.1-1.9,5.1-5.6C168.6,142.2,169.1,139.6,169,138z"/>
<g class="st4">
	<path class="st5" d="M9.6,271.5c0,0.5-0.1,0.9-0.2,1.2c-0.1,0.2-0.5,0.4-1,0.4H1.3c-0.5-0.4-0.8-0.8-0.8-1.1c0-0.7,0.2-1.3,0.7-2
		c0.5-0.7,1.2-1.5,2.2-2.3l2.1-1.8c0.7-0.6,1.1-1.1,1.5-1.6c0.3-0.5,0.5-1.2,0.5-1.9c0-0.7-0.2-1.3-0.7-1.8c-0.5-0.5-1-0.7-1.7-0.7
		s-1.3,0.2-1.8,0.6c-0.5,0.4-1,0.9-1.3,1.6c-0.6-0.1-1-0.3-1.2-0.6c0.2-0.4,0.4-0.8,0.7-1.2c0.3-0.4,0.6-0.7,1-1
		c0.4-0.3,0.8-0.5,1.3-0.6c0.5-0.1,1-0.2,1.6-0.2c0.6,0,1.1,0.1,1.6,0.3c0.5,0.2,0.9,0.5,1.3,0.8c0.4,0.4,0.6,0.8,0.8,1.3
		c0.2,0.5,0.3,1,0.3,1.6c0,0.6-0.1,1.1-0.2,1.5c-0.1,0.4-0.3,0.8-0.6,1.2c-0.3,0.4-0.6,0.7-0.9,1.1c-0.3,0.3-0.7,0.7-1.1,1.1
		l-1.8,1.5c-1.5,1.3-2.3,2.3-2.4,3c0.4,0,0.8-0.1,1.3-0.1c0.4,0,0.9,0,1.4,0H9.6z"/>
	<path class="st5" d="M12.7,258.5h8.7c0.2,0.4,0.3,0.7,0.3,1c0,0.3-0.1,0.6-0.3,0.9l-0.7,1c-1.3,1.9-2.2,3.6-2.9,5.3
		c-0.7,1.6-1.1,3.5-1.3,5.7l-0.1,0.7c-0.2,0.1-0.5,0.1-0.9,0.1c-0.4,0-0.7,0-0.9-0.1l0.1-0.9c0.4-3.6,1.7-7,3.9-10.3l0.2-0.3
		c0.2-0.3,0.6-0.8,1.2-1.6l-0.1-0.1c-0.4,0.1-1.6,0.2-3.6,0.2h-3.7c0-0.2-0.1-0.4-0.1-0.7C12.5,259.1,12.6,258.8,12.7,258.5z"/>
	<path class="st5" d="M24.5,272.9c-0.1-0.2-0.2-0.5-0.2-1c0-0.3,0-0.6,0.1-0.7c0.1-0.2,0.2-0.3,0.3-0.4c0.1-0.1,0.3-0.1,0.4-0.1
		c0.2,0,0.3,0,0.5,0c0.2,0,0.4,0,0.5,0c0.2,0,0.3,0.1,0.4,0.1c0.1,0.1,0.2,0.2,0.3,0.4c0.1,0.2,0.1,0.4,0.1,0.7c0,0.3,0,0.5-0.1,0.7
		c0,0.2-0.1,0.3-0.2,0.4c-0.1,0.1-0.2,0.1-0.4,0.1c-0.2,0-0.4,0-0.6,0C25.2,273.2,24.8,273.1,24.5,272.9z"/>
	<path class="st5" d="M34.2,271.6l0-1.4v-6.3c0,0,0-0.9,0.1-2.8c-0.8,1.1-2,2-3.4,2.6c-0.4-0.3-0.6-0.6-0.7-1c1-0.6,1.9-1.3,2.6-2.1
		c0.7-0.8,1.2-1.5,1.5-2.1c0.2-0.1,0.5-0.1,0.8-0.1c0.3,0,0.6,0,0.8,0.1v11.7l0,1.4l1.2,0h1.7c0,0.2,0.1,0.5,0.1,0.7
		c0,0.2,0,0.5-0.1,0.7h-7.9c0-0.2-0.1-0.5-0.1-0.7c0-0.2,0-0.5,0.1-0.7H33L34.2,271.6z"/>
	<path class="st5" d="M48.2,258.3c0.7,0.7,1.1,1.9,1.1,3.5c0,1.5-0.3,2.6-0.9,3.4c-0.6,0.7-1.4,1.1-2.5,1.1c-1,0-1.8-0.4-2.4-1.1
		c-0.6-0.7-0.9-1.8-0.9-3.4c0-1.5,0.3-2.6,0.9-3.3c0.6-0.7,1.4-1.1,2.5-1.1C46.9,257.4,47.6,257.7,48.2,258.3z M46,273l8.4-15.3
		c0.2-0.1,0.5-0.1,0.8-0.1c0.2,0,0.3,0,0.5,0c0.1,0,0.3,0,0.4,0.1L47.7,273c-0.1,0-0.2,0.1-0.4,0.1c-0.1,0-0.3,0-0.5,0
		c-0.2,0-0.3,0-0.5,0C46.2,273.1,46.1,273,46,273z M45.9,258.6c-1.2,0-1.8,1.1-1.8,3.3c0,2.2,0.6,3.2,1.8,3.2c1.2,0,1.8-1.1,1.8-3.2
		C47.7,259.7,47.1,258.6,45.9,258.6z M58.5,272.4c-0.6,0.6-1.4,0.9-2.3,0.9c-1,0-1.9-0.4-2.5-1.1c-0.6-0.7-0.9-1.8-0.9-3.4
		c0-1.5,0.3-2.6,0.9-3.3s1.4-1.1,2.5-1.1s1.9,0.4,2.5,1.1c0.6,0.7,0.9,1.8,0.9,3.3C59.6,270.5,59.2,271.6,58.5,272.4z M56.2,265.6
		c-1.2,0-1.8,1.1-1.8,3.3c0,2.2,0.6,3.2,1.8,3.2c1.2,0,1.8-1.1,1.8-3.2C58,266.7,57.4,265.6,56.2,265.6z"/>
	<path class="st5" d="M2.9,283.2l0.4,0.9c0.2,0.4,0.3,0.6,0.5,0.7c-0.1,0.1-0.3,0.2-0.4,0.2s-0.3,0-0.4-0.1
		c-0.1-0.1-0.2-0.2-0.2-0.4l-0.5-1c-0.1-0.3-0.3-0.5-0.4-0.6c-0.1-0.1-0.3-0.1-0.5-0.1c-0.2,0-0.4,0-0.6,0v2.2c-0.1,0-0.2,0-0.4,0
		s-0.3,0-0.4,0v-7.3l0.1-0.1h0.3c0.2,0,0.3,0,0.3,0.1c0.1,0.1,0.1,0.2,0.1,0.4v4l0.4,0c0.1,0,0.2,0,0.2-0.1l1.1-1.6
		c0.1-0.1,0.2-0.2,0.2-0.3c0.1-0.1,0.2-0.1,0.3-0.1c0.1,0,0.2,0,0.4,0l0.1,0.1L2.2,282c-0.1,0.1-0.2,0.2-0.2,0.3
		c0.2,0,0.4,0.1,0.6,0.3C2.6,282.7,2.8,282.9,2.9,283.2z"/>
	<path class="st5" d="M4.6,280.4c0-0.2,0.2-0.3,0.3-0.4c0.4,0.1,0.6,0.4,0.7,0.9c0.3-0.6,0.7-0.9,1.3-0.9c0.1,0,0.3,0,0.5,0
		c0,0.3-0.1,0.5-0.2,0.7c-0.1,0-0.2,0-0.3,0c-0.5,0-0.9,0.3-1.2,0.9v3.3c-0.1,0-0.2,0-0.4,0c-0.1,0-0.3,0-0.4,0v-3.5
		C5,281,4.8,280.6,4.6,280.4z"/>
	<path class="st5" d="M8.4,278.4c0.1-0.1,0.3-0.1,0.5-0.1c0.2,0,0.3,0,0.4,0.1c0.1,0.1,0.1,0.2,0.1,0.4s0,0.3-0.1,0.4
		c-0.1,0.1-0.2,0.1-0.4,0.1c-0.2,0-0.3,0-0.4-0.1c-0.1,0-0.1-0.2-0.1-0.4C8.3,278.6,8.3,278.4,8.4,278.4z M9.4,280.7v4.2
		c-0.1,0-0.2,0-0.4,0c-0.1,0-0.3,0-0.4,0v-3.8c0-0.2,0-0.3-0.1-0.4s-0.2-0.1-0.3-0.1H8.1c0-0.1,0-0.2,0-0.3c0-0.1,0-0.2,0-0.3
		c0.1,0,0.2,0,0.3,0c0.1,0,0.1,0,0.2,0h0.1c0.2,0,0.4,0.1,0.5,0.2C9.3,280.3,9.4,280.5,9.4,280.7z"/>
	<path class="st5" d="M13.2,280.1c0,0.1,0,0.2,0,0.3c0,0.1,0,0.2,0,0.3l-1.3,0v3.3c0,0.3,0.1,0.4,0.4,0.4h0.8c0,0.1,0.1,0.2,0.1,0.3
		c0,0.1,0,0.2,0,0.2c-0.3,0-0.6,0.1-0.9,0.1c-0.6,0-1-0.3-1-0.8v-3.5l-0.7,0c0-0.1,0-0.2,0-0.3c0-0.1,0-0.2,0-0.3l0.7,0v-1
		c0-0.2,0-0.3,0.1-0.4c0.1-0.1,0.2-0.1,0.3-0.1h0.3l0.1,0.1v1.5L13.2,280.1z"/>
	<path class="st5" d="M14.4,278.4c0.1-0.1,0.3-0.1,0.5-0.1c0.2,0,0.3,0,0.4,0.1c0.1,0.1,0.1,0.2,0.1,0.4s0,0.3-0.1,0.4
		c-0.1,0.1-0.2,0.1-0.4,0.1c-0.2,0-0.3,0-0.4-0.1s-0.1-0.2-0.1-0.4C14.3,278.6,14.3,278.4,14.4,278.4z M15.3,280.7v4.2
		c-0.1,0-0.2,0-0.4,0c-0.1,0-0.3,0-0.4,0v-3.8c0-0.2,0-0.3-0.1-0.4s-0.2-0.1-0.3-0.1h-0.1c0-0.1,0-0.2,0-0.3c0-0.1,0-0.2,0-0.3
		c0.1,0,0.2,0,0.3,0c0.1,0,0.1,0,0.2,0h0.1c0.2,0,0.4,0.1,0.5,0.2C15.3,280.3,15.3,280.5,15.3,280.7z"/>
	<path class="st5" d="M16.5,284.6c0-0.2,0.1-0.4,0.3-0.5c0.3,0.2,0.6,0.3,0.8,0.4c0.2,0.1,0.5,0.1,0.6,0.1c0.2,0,0.3,0,0.4-0.1
		s0.2-0.1,0.3-0.2c0.1-0.1,0.2-0.1,0.2-0.2c0-0.1,0.1-0.2,0.1-0.3c0-0.2-0.1-0.4-0.2-0.5c-0.1-0.1-0.3-0.3-0.5-0.3l-0.6-0.2
		c-0.4-0.2-0.7-0.4-1-0.6s-0.3-0.5-0.3-0.8c0-0.2,0-0.4,0.1-0.6c0.1-0.2,0.2-0.3,0.4-0.4c0.2-0.1,0.3-0.2,0.5-0.3s0.4-0.1,0.7-0.1
		c0.5,0,1,0.1,1.5,0.3c0,0.2-0.1,0.4-0.2,0.6c-0.3-0.1-0.5-0.2-0.7-0.2s-0.4-0.1-0.6-0.1c-0.3,0-0.5,0.1-0.7,0.2
		c-0.2,0.1-0.2,0.3-0.2,0.5c0,0.2,0.1,0.3,0.2,0.5c0.1,0.1,0.3,0.2,0.6,0.3l0.6,0.2c0.8,0.3,1.2,0.8,1.2,1.4c0,0.4-0.2,0.8-0.5,1
		c-0.3,0.2-0.8,0.4-1.4,0.4C17.6,285.1,17.1,284.9,16.5,284.6z"/>
	<path class="st5" d="M24,281.8v-0.1c0-0.1,0-0.3-0.1-0.4c0-0.1-0.1-0.3-0.2-0.4c-0.1-0.1-0.2-0.2-0.3-0.3c-0.1-0.1-0.3-0.1-0.5-0.1
		c-0.4,0-0.7,0.2-0.9,0.5c-0.2,0.3-0.3,0.8-0.3,1.5c0,0.6,0.1,1.1,0.3,1.4c0.2,0.3,0.5,0.5,0.9,0.5c0.4,0,0.8-0.2,1.3-0.6
		c0.2,0.1,0.3,0.3,0.3,0.5c-0.5,0.5-1.1,0.7-1.7,0.7c-0.3,0-0.6-0.1-0.8-0.2c-0.2-0.1-0.4-0.3-0.6-0.5c-0.2-0.2-0.3-0.5-0.4-0.8
		c-0.1-0.3-0.1-0.6-0.1-0.9c0-0.5,0.1-0.9,0.2-1.2s0.2-0.6,0.4-0.8c0.2-0.2,0.4-0.4,0.6-0.5c0.2-0.1,0.5-0.2,0.8-0.2
		c0.3,0,0.5,0,0.7,0.1c0.2,0.1,0.4,0.2,0.5,0.3c0.1,0.1,0.3,0.3,0.3,0.5c0.1,0.2,0.1,0.3,0.1,0.5c0,0.3-0.1,0.5-0.4,0.5
		C24.3,281.8,24.1,281.8,24,281.8z"/>
	<path class="st5" d="M29.7,281.5v2.5c0,0.4,0,0.7,0.1,0.8c-0.1,0.1-0.3,0.2-0.5,0.2c-0.3,0-0.4-0.2-0.4-0.5v-2.7
		c0-0.4-0.1-0.7-0.2-0.9c-0.1-0.2-0.3-0.3-0.6-0.3c-0.3,0-0.5,0.1-0.8,0.2c-0.3,0.1-0.5,0.3-0.7,0.6v3.5c-0.1,0-0.2,0-0.4,0
		c-0.1,0-0.3,0-0.4,0v-7.3l0.1-0.1h0.3c0.2,0,0.3,0,0.3,0.1c0.1,0.1,0.1,0.2,0.1,0.4v2.6c0.2-0.2,0.5-0.4,0.8-0.5
		c0.3-0.1,0.6-0.2,0.9-0.2c0.4,0,0.8,0.1,1,0.4C29.6,280.7,29.7,281.1,29.7,281.5z"/>
	<path class="st5" d="M34.9,282.7h-3.1c0,1.1,0.5,1.7,1.3,1.7c0.5,0,0.9-0.1,1.4-0.4c0.1,0.1,0.2,0.3,0.3,0.5
		c-0.5,0.4-1.2,0.6-1.8,0.6c-0.3,0-0.6-0.1-0.9-0.2c-0.2-0.1-0.4-0.3-0.6-0.5c-0.2-0.2-0.3-0.5-0.3-0.8c-0.1-0.3-0.1-0.7-0.1-1
		c0-0.4,0-0.7,0.1-1c0.1-0.3,0.2-0.6,0.4-0.8s0.4-0.4,0.6-0.5c0.2-0.1,0.5-0.2,0.8-0.2c0.3,0,0.6,0.1,0.8,0.2
		c0.2,0.1,0.4,0.3,0.6,0.4c0.2,0.2,0.3,0.4,0.4,0.7c0.1,0.3,0.1,0.5,0.1,0.8c0,0.1,0,0.2,0,0.3C35,282.5,35,282.6,34.9,282.7z
		 M31.9,282.2h2.4V282c0-0.5-0.1-0.8-0.3-1.1c-0.2-0.3-0.5-0.4-0.9-0.4c-0.4,0-0.7,0.1-0.9,0.4C32,281.2,31.9,281.6,31.9,282.2z"/>
	<path class="st5" d="M36.2,280.4c0-0.2,0.2-0.3,0.3-0.4c0.4,0.1,0.6,0.4,0.7,0.9c0.3-0.6,0.7-0.9,1.3-0.9c0.1,0,0.3,0,0.5,0
		c0,0.3-0.1,0.5-0.2,0.7c-0.1,0-0.2,0-0.3,0c-0.5,0-0.9,0.3-1.2,0.9v3.3c-0.1,0-0.2,0-0.4,0c-0.1,0-0.3,0-0.4,0v-3.5
		C36.5,281,36.4,280.6,36.2,280.4z"/>
	<path class="st5" d="M42.3,284.9L42.3,284.9l-0.1-6.7l0.1-0.1l1.9,0c0.7,0,1.3,0.2,1.6,0.5c0.3,0.3,0.5,0.8,0.5,1.3
		c0,0.3-0.1,0.6-0.3,0.9c-0.2,0.3-0.4,0.4-0.7,0.5c0.2,0.1,0.3,0.1,0.5,0.2c0.2,0.1,0.3,0.2,0.4,0.4c0.1,0.2,0.2,0.3,0.3,0.5
		c0.1,0.2,0.1,0.4,0.1,0.7c0,0.2,0,0.5-0.1,0.7c-0.1,0.2-0.2,0.4-0.4,0.6c-0.2,0.2-0.4,0.3-0.7,0.4c-0.3,0.1-0.6,0.2-1,0.2
		L42.3,284.9z M43,278.7v2.3h1.2c0.2,0,0.5,0,0.6-0.1c0.2-0.1,0.3-0.1,0.4-0.2c0.1-0.1,0.2-0.2,0.2-0.4c0-0.1,0.1-0.3,0.1-0.4
		c0-0.8-0.4-1.1-1.3-1.1c-0.3,0-0.6,0-0.8,0S43.1,278.7,43,278.7z M43,284.3l1.4,0c0.3,0,0.5,0,0.7-0.1c0.2-0.1,0.3-0.2,0.4-0.3
		c0.1-0.1,0.2-0.3,0.2-0.4c0-0.2,0.1-0.3,0.1-0.5c0-0.1,0-0.3-0.1-0.5c-0.1-0.2-0.1-0.3-0.3-0.4c-0.1-0.1-0.3-0.2-0.5-0.3
		c-0.2-0.1-0.4-0.1-0.7-0.1H43V284.3z"/>
	<path class="st5" d="M51.6,282.7h-3.1c0,1.1,0.5,1.7,1.3,1.7c0.5,0,0.9-0.1,1.4-0.4c0.1,0.1,0.2,0.3,0.3,0.5
		c-0.5,0.4-1.2,0.6-1.8,0.6c-0.3,0-0.6-0.1-0.9-0.2c-0.2-0.1-0.4-0.3-0.6-0.5c-0.2-0.2-0.3-0.5-0.3-0.8c-0.1-0.3-0.1-0.7-0.1-1
		c0-0.4,0-0.7,0.1-1c0.1-0.3,0.2-0.6,0.4-0.8s0.4-0.4,0.6-0.5c0.2-0.1,0.5-0.2,0.8-0.2c0.3,0,0.6,0.1,0.8,0.2
		c0.2,0.1,0.4,0.3,0.6,0.4c0.2,0.2,0.3,0.4,0.4,0.7c0.1,0.3,0.1,0.5,0.1,0.8c0,0.1,0,0.2,0,0.3C51.6,282.5,51.6,282.6,51.6,282.7z
		 M48.5,282.2h2.4V282c0-0.5-0.1-0.8-0.3-1.1c-0.2-0.3-0.5-0.4-0.9-0.4c-0.4,0-0.7,0.1-0.9,0.4C48.7,281.2,48.6,281.6,48.5,282.2z"
		/>
	<path class="st5" d="M52.8,280.4c0-0.2,0.2-0.3,0.3-0.4c0.4,0.1,0.6,0.4,0.7,0.9c0.3-0.6,0.7-0.9,1.3-0.9c0.1,0,0.3,0,0.5,0
		c0,0.3-0.1,0.5-0.2,0.7c-0.1,0-0.2,0-0.3,0c-0.5,0-0.9,0.3-1.2,0.9v3.3c-0.1,0-0.2,0-0.4,0c-0.1,0-0.3,0-0.4,0v-3.5
		C53.2,281,53.1,280.6,52.8,280.4z"/>
	<path class="st5" d="M59.9,282.7h-3.1c0,1.1,0.5,1.7,1.3,1.7c0.5,0,0.9-0.1,1.4-0.4c0.1,0.1,0.2,0.3,0.3,0.5
		c-0.5,0.4-1.2,0.6-1.8,0.6c-0.3,0-0.6-0.1-0.9-0.2c-0.2-0.1-0.4-0.3-0.6-0.5c-0.2-0.2-0.3-0.5-0.3-0.8c-0.1-0.3-0.1-0.7-0.1-1
		c0-0.4,0-0.7,0.1-1c0.1-0.3,0.2-0.6,0.4-0.8s0.4-0.4,0.6-0.5c0.2-0.1,0.5-0.2,0.8-0.2c0.3,0,0.6,0.1,0.8,0.2
		c0.2,0.1,0.4,0.3,0.6,0.4c0.2,0.2,0.3,0.4,0.4,0.7c0.1,0.3,0.1,0.5,0.1,0.8c0,0.1,0,0.2,0,0.3C59.9,282.5,59.9,282.6,59.9,282.7z
		 M56.8,282.2h2.4V282c0-0.5-0.1-0.8-0.3-1.1c-0.2-0.3-0.5-0.4-0.9-0.4c-0.4,0-0.7,0.1-0.9,0.4C57,281.2,56.9,281.6,56.8,282.2z"/>
	<path class="st5" d="M61.3,278.4c0.1-0.1,0.3-0.1,0.5-0.1c0.2,0,0.3,0,0.4,0.1c0.1,0.1,0.1,0.2,0.1,0.4s0,0.3-0.1,0.4
		c-0.1,0.1-0.2,0.1-0.4,0.1c-0.2,0-0.3,0-0.4-0.1s-0.1-0.2-0.1-0.4C61.2,278.6,61.2,278.4,61.3,278.4z M62.2,280.7v4.2
		c-0.1,0-0.2,0-0.4,0c-0.1,0-0.3,0-0.4,0v-3.8c0-0.2,0-0.3-0.1-0.4c-0.1-0.1-0.2-0.1-0.3-0.1H61c0-0.1,0-0.2,0-0.3
		c0-0.1,0-0.2,0-0.3c0.1,0,0.2,0,0.3,0c0.1,0,0.1,0,0.2,0h0.1c0.2,0,0.4,0.1,0.5,0.2C62.2,280.3,62.2,280.5,62.2,280.7z"/>
	<path class="st5" d="M66.6,281.8v-0.1c0-0.1,0-0.3-0.1-0.4c0-0.1-0.1-0.3-0.2-0.4c-0.1-0.1-0.2-0.2-0.3-0.3
		c-0.1-0.1-0.3-0.1-0.5-0.1c-0.4,0-0.7,0.2-0.9,0.5c-0.2,0.3-0.3,0.8-0.3,1.5c0,0.6,0.1,1.1,0.3,1.4c0.2,0.3,0.5,0.5,0.9,0.5
		c0.4,0,0.8-0.2,1.3-0.6c0.2,0.1,0.3,0.3,0.3,0.5c-0.5,0.5-1.1,0.7-1.7,0.7c-0.3,0-0.6-0.1-0.8-0.2s-0.4-0.3-0.6-0.5
		c-0.2-0.2-0.3-0.5-0.4-0.8c-0.1-0.3-0.1-0.6-0.1-0.9c0-0.5,0.1-0.9,0.2-1.2c0.1-0.3,0.2-0.6,0.4-0.8c0.2-0.2,0.4-0.4,0.6-0.5
		c0.2-0.1,0.5-0.2,0.8-0.2c0.3,0,0.5,0,0.7,0.1c0.2,0.1,0.4,0.2,0.5,0.3c0.1,0.1,0.3,0.3,0.3,0.5c0.1,0.2,0.1,0.3,0.1,0.5
		c0,0.3-0.1,0.5-0.4,0.5C66.8,281.8,66.7,281.8,66.6,281.8z"/>
	<path class="st5" d="M72.3,281.5v2.5c0,0.4,0,0.7,0.1,0.8c-0.1,0.1-0.3,0.2-0.5,0.2c-0.3,0-0.4-0.2-0.4-0.5v-2.7
		c0-0.4-0.1-0.7-0.2-0.9c-0.1-0.2-0.3-0.3-0.6-0.3c-0.3,0-0.5,0.1-0.8,0.2c-0.3,0.1-0.5,0.3-0.7,0.6v3.5c-0.1,0-0.2,0-0.4,0
		c-0.1,0-0.3,0-0.4,0v-7.3l0.1-0.1H69c0.2,0,0.3,0,0.3,0.1c0.1,0.1,0.1,0.2,0.1,0.4v2.6c0.2-0.2,0.5-0.4,0.8-0.5
		c0.3-0.1,0.6-0.2,0.9-0.2c0.4,0,0.8,0.1,1,0.4C72.2,280.7,72.3,281.1,72.3,281.5z"/>
</g>
<g class="st4">
	<path class="st6" d="M135.9,269l0,1v2.4c-0.3,0-0.5,0.1-0.8,0.1c-0.3,0-0.6,0-0.8-0.1v-2.4l0-1l-0.9,0h-4.4c-0.3-0.5-0.4-0.8-0.4-1
		c0-0.2,0.2-0.6,0.5-1.4l3.9-8.9c0.2-0.1,0.5-0.1,0.8,0c0.3,0.1,0.6,0.1,0.8,0.3l-3.2,7.3c-0.6,1.2-0.9,2-1.1,2.3l0,0.1
		c0.8,0,1.6-0.1,2.3-0.1h1.6l0-0.9v-2.3c0-0.8,0.4-1.2,1.1-1.2h0.5l0.1,0.1v3.4l0,0.9l0.9,0h1.5c0,0.2,0,0.4,0,0.7s0,0.5-0.1,0.8
		h-1.4L135.9,269z"/>
	<path class="st6" d="M142.3,271.3l-0.3-0.4c-0.2-0.2-0.3-0.5-0.5-0.9c-0.2-0.4-0.3-0.8-0.4-1.4c-0.1-0.5-0.2-1.1-0.3-1.7
		c-0.1-0.6-0.1-1.3-0.1-2c0-1.1,0.1-2.2,0.4-3.1c0.2-0.9,0.6-1.7,1.1-2.3c0.5-0.6,1.1-1.1,1.7-1.5c0.7-0.3,1.5-0.5,2.4-0.5
		c1.3,0,2.3,0.2,3,0.7c-0.1,0.6-0.3,1-0.7,1.2c-0.8-0.3-1.5-0.5-2.3-0.5c-0.7,0-1.2,0.1-1.7,0.4c-0.5,0.3-0.9,0.6-1.2,1.1
		c-0.3,0.5-0.5,1-0.7,1.6c-0.2,0.6-0.2,1.3-0.3,2.1c1-1,2.1-1.5,3.4-1.5c1.3,0,2.3,0.4,3.1,1.2c0.7,0.8,1.1,2,1.1,3.5
		c0,0.7-0.1,1.4-0.3,2.1c-0.2,0.6-0.5,1.2-0.9,1.6c-0.4,0.5-0.9,0.8-1.4,1.1s-1.2,0.4-1.8,0.4C144.1,272.6,143.1,272.2,142.3,271.3z
		 M145.5,264.2c-0.5,0-1.1,0.1-1.6,0.4c-0.6,0.3-1.1,0.7-1.5,1.2v0.4c0,0.8,0.1,1.5,0.2,2.1c0.1,0.6,0.3,1.2,0.6,1.6
		c0.3,0.4,0.6,0.8,1,1c0.4,0.2,0.8,0.4,1.4,0.4c0.8,0,1.5-0.3,2-1c0.5-0.6,0.7-1.5,0.7-2.6C148.2,265.4,147.3,264.2,145.5,264.2z"/>
	<path class="st6" d="M152.8,272.3c-0.1-0.2-0.2-0.5-0.2-1c0-0.3,0-0.6,0.1-0.7c0.1-0.2,0.2-0.3,0.3-0.4c0.1-0.1,0.3-0.1,0.4-0.1
		c0.2,0,0.3,0,0.5,0c0.2,0,0.4,0,0.5,0c0.2,0,0.3,0.1,0.4,0.1c0.1,0.1,0.2,0.2,0.3,0.4c0.1,0.2,0.1,0.4,0.1,0.7c0,0.3,0,0.5-0.1,0.7
		c0,0.2-0.1,0.3-0.2,0.4c-0.1,0.1-0.2,0.1-0.4,0.1c-0.2,0-0.4,0-0.6,0C153.5,272.5,153.1,272.4,152.8,272.3z"/>
	<path class="st6" d="M165.2,269l0,1v2.4c-0.3,0-0.5,0.1-0.8,0.1c-0.3,0-0.6,0-0.8-0.1v-2.4l0-1l-0.9,0h-4.4c-0.3-0.5-0.4-0.8-0.4-1
		c0-0.2,0.2-0.6,0.5-1.4l3.9-8.9c0.2-0.1,0.5-0.1,0.8,0c0.3,0.1,0.6,0.1,0.8,0.3l-3.2,7.3c-0.6,1.2-0.9,2-1.1,2.3l0,0.1
		c0.8,0,1.6-0.1,2.3-0.1h1.6l0-0.9v-2.3c0-0.8,0.4-1.2,1.1-1.2h0.5l0.1,0.1v3.4l0,0.9l0.9,0h1.5c0,0.2,0,0.4,0,0.7s0,0.5-0.1,0.8
		h-1.4L165.2,269z"/>
	<path class="st6" d="M176.5,257.7c0.7,0.7,1.1,1.9,1.1,3.5c0,1.5-0.3,2.6-0.9,3.4c-0.6,0.7-1.4,1.1-2.5,1.1c-1,0-1.8-0.4-2.4-1.1
		c-0.6-0.7-0.9-1.8-0.9-3.4c0-1.5,0.3-2.6,0.9-3.3c0.6-0.7,1.4-1.1,2.5-1.1C175.2,256.8,176,257.1,176.5,257.7z M174.3,272.4
		l8.4-15.3c0.2-0.1,0.5-0.1,0.8-0.1c0.2,0,0.3,0,0.5,0c0.1,0,0.3,0,0.4,0.1l-8.4,15.3c-0.1,0-0.2,0.1-0.4,0.1c-0.1,0-0.3,0-0.5,0
		c-0.2,0-0.3,0-0.5,0C174.6,272.4,174.4,272.4,174.3,272.4z M174.2,258c-1.2,0-1.8,1.1-1.8,3.3c0,2.2,0.6,3.2,1.8,3.2
		c1.2,0,1.8-1.1,1.8-3.2C176,259.1,175.4,258,174.2,258z M186.9,271.7c-0.6,0.6-1.4,0.9-2.3,0.9c-1,0-1.9-0.4-2.5-1.1
		c-0.6-0.7-0.9-1.8-0.9-3.4c0-1.5,0.3-2.6,0.9-3.3c0.6-0.7,1.4-1.1,2.5-1.1s1.9,0.4,2.5,1.1c0.6,0.7,0.9,1.8,0.9,3.3
		C187.9,269.8,187.6,271,186.9,271.7z M184.5,264.9c-1.2,0-1.8,1.1-1.8,3.3c0,2.2,0.6,3.2,1.8,3.2c1.2,0,1.8-1.1,1.8-3.2
		C186.4,266,185.8,264.9,184.5,264.9z"/>
	<path class="st6" d="M127.8,283.9c0-0.2,0.1-0.4,0.3-0.5c0.3,0.2,0.6,0.3,0.8,0.4c0.2,0.1,0.5,0.1,0.6,0.1c0.2,0,0.3,0,0.4-0.1
		c0.1,0,0.2-0.1,0.3-0.2c0.1-0.1,0.2-0.1,0.2-0.2c0-0.1,0.1-0.2,0.1-0.3c0-0.2-0.1-0.4-0.2-0.5c-0.1-0.1-0.3-0.3-0.5-0.3l-0.6-0.2
		c-0.4-0.2-0.7-0.4-1-0.6c-0.2-0.2-0.3-0.5-0.3-0.8c0-0.2,0-0.4,0.1-0.6c0.1-0.2,0.2-0.3,0.4-0.4c0.2-0.1,0.3-0.2,0.5-0.3
		c0.2-0.1,0.4-0.1,0.7-0.1c0.5,0,1,0.1,1.5,0.3c0,0.2-0.1,0.4-0.2,0.6c-0.3-0.1-0.5-0.2-0.7-0.2c-0.2,0-0.4-0.1-0.6-0.1
		c-0.3,0-0.5,0.1-0.7,0.2c-0.2,0.1-0.2,0.3-0.2,0.5c0,0.2,0.1,0.3,0.2,0.5c0.1,0.1,0.3,0.2,0.6,0.3l0.6,0.2c0.8,0.3,1.2,0.8,1.2,1.4
		c0,0.4-0.2,0.8-0.5,1c-0.3,0.2-0.8,0.4-1.4,0.4C128.9,284.4,128.4,284.3,127.8,283.9z"/>
	<path class="st6" d="M136.2,282.1h-3.1c0,1.1,0.5,1.7,1.3,1.7c0.5,0,0.9-0.1,1.4-0.4c0.1,0.1,0.2,0.3,0.3,0.5
		c-0.5,0.4-1.2,0.6-1.8,0.6c-0.3,0-0.6-0.1-0.9-0.2c-0.2-0.1-0.4-0.3-0.6-0.5c-0.2-0.2-0.3-0.5-0.3-0.8c-0.1-0.3-0.1-0.7-0.1-1
		c0-0.4,0-0.7,0.1-1c0.1-0.3,0.2-0.6,0.4-0.8c0.2-0.2,0.4-0.4,0.6-0.5c0.2-0.1,0.5-0.2,0.8-0.2c0.3,0,0.6,0.1,0.8,0.2
		c0.2,0.1,0.4,0.3,0.6,0.4c0.2,0.2,0.3,0.4,0.4,0.7c0.1,0.3,0.1,0.5,0.1,0.8c0,0.1,0,0.2,0,0.3C136.2,281.9,136.2,282,136.2,282.1z
		 M133.1,281.5h2.4v-0.1c0-0.5-0.1-0.8-0.3-1.1c-0.2-0.3-0.5-0.4-0.9-0.4c-0.4,0-0.7,0.1-0.9,0.4C133.2,280.6,133.1,281,133.1,281.5
		z"/>
	<path class="st6" d="M141.4,280.9v2.5c0,0.4,0,0.7,0.1,0.8c-0.1,0.1-0.3,0.2-0.5,0.2c-0.3,0-0.4-0.2-0.4-0.5v-2.8
		c0-0.4,0-0.7-0.1-0.9c-0.1-0.2-0.3-0.3-0.6-0.3c-0.3,0-0.5,0.1-0.8,0.2c-0.3,0.1-0.5,0.3-0.7,0.6v3.5c-0.1,0-0.2,0-0.4,0
		c-0.1,0-0.3,0-0.4,0v-4.9l0.1-0.1h0.3c0.2,0,0.3,0,0.3,0.1c0.1,0.1,0.1,0.2,0.1,0.4v0.1c0.2-0.2,0.5-0.4,0.8-0.5
		c0.3-0.1,0.6-0.2,0.9-0.2c0.4,0,0.8,0.1,1,0.4C141.3,280.1,141.4,280.4,141.4,280.9z"/>
	<path class="st6" d="M142.6,283.9c0-0.2,0.1-0.4,0.3-0.5c0.3,0.2,0.6,0.3,0.8,0.4c0.2,0.1,0.5,0.1,0.6,0.1c0.2,0,0.3,0,0.4-0.1
		c0.1,0,0.2-0.1,0.3-0.2c0.1-0.1,0.2-0.1,0.2-0.2c0-0.1,0.1-0.2,0.1-0.3c0-0.2-0.1-0.4-0.2-0.5c-0.1-0.1-0.3-0.3-0.5-0.3l-0.6-0.2
		c-0.4-0.2-0.7-0.4-1-0.6c-0.2-0.2-0.3-0.5-0.3-0.8c0-0.2,0-0.4,0.1-0.6c0.1-0.2,0.2-0.3,0.4-0.4c0.2-0.1,0.3-0.2,0.5-0.3
		c0.2-0.1,0.4-0.1,0.7-0.1c0.5,0,1,0.1,1.5,0.3c0,0.2-0.1,0.4-0.2,0.6c-0.3-0.1-0.5-0.2-0.7-0.2c-0.2,0-0.4-0.1-0.6-0.1
		c-0.3,0-0.5,0.1-0.7,0.2c-0.2,0.1-0.2,0.3-0.2,0.5c0,0.2,0.1,0.3,0.2,0.5c0.1,0.1,0.3,0.2,0.6,0.3l0.6,0.2c0.8,0.3,1.2,0.8,1.2,1.4
		c0,0.4-0.2,0.8-0.5,1c-0.3,0.2-0.8,0.4-1.4,0.4C143.6,284.4,143.1,284.3,142.6,283.9z"/>
	<path class="st6" d="M147.2,277.7c0.1-0.1,0.3-0.1,0.5-0.1c0.2,0,0.3,0,0.4,0.1c0.1,0.1,0.1,0.2,0.1,0.4s0,0.3-0.1,0.4
		c-0.1,0.1-0.2,0.1-0.4,0.1c-0.2,0-0.3,0-0.4-0.1c-0.1-0.1-0.1-0.2-0.1-0.4C147.2,277.9,147.2,277.8,147.2,277.7z M148.2,280.1v4.2
		c-0.1,0-0.2,0-0.4,0s-0.3,0-0.4,0v-3.8c0-0.2,0-0.3-0.1-0.4c-0.1-0.1-0.2-0.1-0.3-0.1H147c0-0.1,0-0.2,0-0.3s0-0.2,0-0.3
		c0.1,0,0.2,0,0.3,0c0.1,0,0.1,0,0.2,0h0.1c0.2,0,0.4,0.1,0.5,0.2C148.1,279.7,148.2,279.9,148.2,280.1z"/>
	<path class="st6" d="M149.9,284.1v-7l0.1-0.1h0.3c0.2,0,0.3,0,0.3,0.1s0.1,0.2,0.1,0.4v2.5c0.4-0.4,0.9-0.6,1.4-0.6
		c0.5,0,1,0.2,1.2,0.7c0.3,0.4,0.4,1.1,0.4,1.9c0,0.4-0.1,0.8-0.2,1.1c-0.1,0.3-0.3,0.6-0.5,0.8c-0.2,0.2-0.4,0.4-0.7,0.5
		c-0.3,0.1-0.5,0.2-0.8,0.2C151.1,284.4,150.5,284.3,149.9,284.1z M150.7,280.7v3c0.3,0.1,0.6,0.2,1,0.2c0.4,0,0.7-0.2,1-0.5
		c0.3-0.3,0.4-0.8,0.4-1.5c0-0.3,0-0.6-0.1-0.8c-0.1-0.2-0.1-0.4-0.2-0.6c-0.1-0.2-0.2-0.3-0.3-0.3c-0.1-0.1-0.2-0.1-0.4-0.1
		c-0.3,0-0.5,0.1-0.8,0.2C151,280.3,150.8,280.5,150.7,280.7z"/>
	<path class="st6" d="M156.2,283.7h0.4c0,0.1,0,0.1,0.1,0.2c0,0.1,0,0.1,0,0.2c0,0,0,0.1,0,0.1c0,0,0,0,0,0.1c-0.1,0-0.2,0-0.3,0.1
		c-0.1,0-0.2,0-0.3,0c-0.3,0-0.5-0.1-0.7-0.2c-0.2-0.1-0.3-0.3-0.3-0.7v-6.5l0.1-0.1h0.3c0.2,0,0.3,0,0.3,0.1
		c0.1,0.1,0.1,0.2,0.1,0.4v5.8C155.9,283.6,156,283.7,156.2,283.7z"/>
	<path class="st6" d="M161.4,282.1h-3.1c0,1.1,0.5,1.7,1.3,1.7c0.5,0,0.9-0.1,1.4-0.4c0.1,0.1,0.2,0.3,0.3,0.5
		c-0.5,0.4-1.2,0.6-1.8,0.6c-0.3,0-0.6-0.1-0.9-0.2c-0.2-0.1-0.4-0.3-0.6-0.5c-0.2-0.2-0.3-0.5-0.3-0.8c-0.1-0.3-0.1-0.7-0.1-1
		c0-0.4,0-0.7,0.1-1c0.1-0.3,0.2-0.6,0.4-0.8c0.2-0.2,0.4-0.4,0.6-0.5c0.2-0.1,0.5-0.2,0.8-0.2c0.3,0,0.6,0.1,0.8,0.2
		c0.2,0.1,0.4,0.3,0.6,0.4c0.2,0.2,0.3,0.4,0.4,0.7c0.1,0.3,0.1,0.5,0.1,0.8c0,0.1,0,0.2,0,0.3C161.4,281.9,161.4,282,161.4,282.1z
		 M158.3,281.5h2.4v-0.1c0-0.5-0.1-0.8-0.3-1.1c-0.2-0.3-0.5-0.4-0.9-0.4c-0.4,0-0.7,0.1-0.9,0.4C158.4,280.6,158.3,281,158.3,281.5
		z"/>
	<path class="st6" d="M162.6,279.8c0-0.2,0.2-0.3,0.3-0.4c0.4,0.1,0.6,0.4,0.7,0.9c0.3-0.6,0.7-0.9,1.3-0.9c0.1,0,0.3,0,0.5,0
		c0,0.3-0.1,0.5-0.2,0.7c-0.1,0-0.2,0-0.3,0c-0.5,0-0.9,0.3-1.2,0.9v3.3c-0.1,0-0.2,0-0.4,0c-0.1,0-0.3,0-0.4,0v-3.5
		C163,280.3,162.8,280,162.6,279.8z"/>
	<path class="st6" d="M168.7,284.3L168.7,284.3l-0.1-6.7l0.1-0.1l1.9,0c0.7,0,1.3,0.2,1.6,0.5c0.3,0.3,0.5,0.8,0.5,1.3
		c0,0.3-0.1,0.6-0.3,0.9s-0.4,0.4-0.7,0.5c0.2,0.1,0.3,0.1,0.5,0.2c0.2,0.1,0.3,0.2,0.4,0.4c0.1,0.2,0.2,0.3,0.3,0.5
		c0.1,0.2,0.1,0.4,0.1,0.7c0,0.2,0,0.5-0.1,0.7c-0.1,0.2-0.2,0.4-0.4,0.6c-0.2,0.2-0.4,0.3-0.7,0.4c-0.3,0.1-0.6,0.2-1,0.2
		L168.7,284.3z M169.4,278.1v2.3h1.2c0.2,0,0.5,0,0.6-0.1c0.2-0.1,0.3-0.1,0.4-0.2c0.1-0.1,0.2-0.2,0.2-0.4s0.1-0.3,0.1-0.4
		c0-0.8-0.4-1.1-1.3-1.1c-0.3,0-0.6,0-0.8,0C169.7,278.1,169.6,278.1,169.4,278.1z M169.4,283.7l1.4,0c0.3,0,0.5,0,0.7-0.1
		c0.2-0.1,0.3-0.2,0.4-0.3c0.1-0.1,0.2-0.3,0.2-0.4c0-0.2,0.1-0.3,0.1-0.5c0-0.1,0-0.3-0.1-0.5c-0.1-0.2-0.1-0.3-0.3-0.4
		c-0.1-0.1-0.3-0.2-0.5-0.3c-0.2-0.1-0.4-0.1-0.7-0.1h-1.3V283.7z"/>
	<path class="st6" d="M178,282.1h-3.1c0,1.1,0.5,1.7,1.3,1.7c0.5,0,0.9-0.1,1.4-0.4c0.1,0.1,0.2,0.3,0.3,0.5
		c-0.5,0.4-1.2,0.6-1.8,0.6c-0.3,0-0.6-0.1-0.9-0.2c-0.2-0.1-0.4-0.3-0.6-0.5c-0.2-0.2-0.3-0.5-0.3-0.8c-0.1-0.3-0.1-0.7-0.1-1
		c0-0.4,0-0.7,0.1-1c0.1-0.3,0.2-0.6,0.4-0.8c0.2-0.2,0.4-0.4,0.6-0.5c0.2-0.1,0.5-0.2,0.8-0.2c0.3,0,0.6,0.1,0.8,0.2
		s0.4,0.3,0.6,0.4c0.2,0.2,0.3,0.4,0.4,0.7c0.1,0.3,0.1,0.5,0.1,0.8c0,0.1,0,0.2,0,0.3C178.1,281.9,178,282,178,282.1z M174.9,281.5
		h2.4v-0.1c0-0.5-0.1-0.8-0.3-1.1c-0.2-0.3-0.5-0.4-0.9-0.4c-0.4,0-0.7,0.1-0.9,0.4C175.1,280.6,175,281,174.9,281.5z"/>
	<path class="st6" d="M179.3,279.8c0-0.2,0.2-0.3,0.3-0.4c0.4,0.1,0.6,0.4,0.7,0.9c0.3-0.6,0.7-0.9,1.3-0.9c0.1,0,0.3,0,0.5,0
		c0,0.3-0.1,0.5-0.2,0.7c-0.1,0-0.2,0-0.3,0c-0.5,0-0.9,0.3-1.2,0.9v3.3c-0.1,0-0.2,0-0.4,0c-0.1,0-0.3,0-0.4,0v-3.5
		C179.6,280.3,179.5,280,179.3,279.8z"/>
	<path class="st6" d="M186.3,282.1h-3.1c0,1.1,0.5,1.7,1.3,1.7c0.5,0,0.9-0.1,1.4-0.4c0.1,0.1,0.2,0.3,0.3,0.5
		c-0.5,0.4-1.2,0.6-1.8,0.6c-0.3,0-0.6-0.1-0.9-0.2c-0.2-0.1-0.4-0.3-0.6-0.5c-0.2-0.2-0.3-0.5-0.3-0.8c-0.1-0.3-0.1-0.7-0.1-1
		c0-0.4,0-0.7,0.1-1c0.1-0.3,0.2-0.6,0.4-0.8c0.2-0.2,0.4-0.4,0.6-0.5c0.2-0.1,0.5-0.2,0.8-0.2c0.3,0,0.6,0.1,0.8,0.2
		c0.2,0.1,0.4,0.3,0.6,0.4c0.2,0.2,0.3,0.4,0.4,0.7c0.1,0.3,0.1,0.5,0.1,0.8c0,0.1,0,0.2,0,0.3C186.4,281.9,186.3,282,186.3,282.1z
		 M183.2,281.5h2.4v-0.1c0-0.5-0.1-0.8-0.3-1.1c-0.2-0.3-0.5-0.4-0.9-0.4c-0.4,0-0.7,0.1-0.9,0.4C183.4,280.6,183.3,281,183.2,281.5
		z"/>
	<path class="st6" d="M187.7,277.7c0.1-0.1,0.3-0.1,0.5-0.1c0.2,0,0.3,0,0.4,0.1c0.1,0.1,0.1,0.2,0.1,0.4s0,0.3-0.1,0.4
		c-0.1,0.1-0.2,0.1-0.4,0.1c-0.2,0-0.3,0-0.4-0.1c-0.1-0.1-0.1-0.2-0.1-0.4C187.6,277.9,187.6,277.8,187.7,277.7z M188.6,280.1v4.2
		c-0.1,0-0.2,0-0.4,0c-0.1,0-0.3,0-0.4,0v-3.8c0-0.2,0-0.3-0.1-0.4c-0.1-0.1-0.2-0.1-0.3-0.1h-0.1c0-0.1,0-0.2,0-0.3s0-0.2,0-0.3
		c0.1,0,0.2,0,0.3,0c0.1,0,0.1,0,0.2,0h0.1c0.2,0,0.4,0.1,0.5,0.2C188.6,279.7,188.6,279.9,188.6,280.1z"/>
	<path class="st6" d="M193,281.1V281c0-0.1,0-0.3-0.1-0.4c0-0.1-0.1-0.3-0.2-0.4c-0.1-0.1-0.2-0.2-0.3-0.3c-0.1-0.1-0.3-0.1-0.5-0.1
		c-0.4,0-0.7,0.2-0.9,0.5c-0.2,0.3-0.3,0.8-0.3,1.5c0,0.6,0.1,1.1,0.3,1.4c0.2,0.3,0.5,0.5,0.9,0.5c0.4,0,0.8-0.2,1.3-0.6
		c0.2,0.1,0.3,0.3,0.3,0.5c-0.5,0.5-1.1,0.7-1.7,0.7c-0.3,0-0.6-0.1-0.8-0.2c-0.2-0.1-0.4-0.3-0.6-0.5c-0.2-0.2-0.3-0.5-0.4-0.8
		c-0.1-0.3-0.1-0.6-0.1-1c0-0.5,0.1-0.9,0.2-1.2s0.2-0.6,0.4-0.8c0.2-0.2,0.4-0.4,0.6-0.5c0.2-0.1,0.5-0.2,0.8-0.2
		c0.3,0,0.5,0,0.7,0.1c0.2,0.1,0.4,0.2,0.5,0.3c0.1,0.1,0.3,0.3,0.3,0.5c0.1,0.2,0.1,0.3,0.1,0.5c0,0.3-0.1,0.5-0.4,0.5
		C193.3,281.2,193.1,281.2,193,281.1z"/>
	<path class="st6" d="M198.7,280.9v2.5c0,0.4,0,0.7,0.1,0.8c-0.1,0.1-0.3,0.2-0.5,0.2c-0.3,0-0.4-0.2-0.4-0.5v-2.7
		c0-0.4-0.1-0.7-0.2-0.9c-0.1-0.2-0.3-0.3-0.6-0.3s-0.5,0.1-0.8,0.2s-0.5,0.3-0.7,0.6v3.5c-0.1,0-0.2,0-0.4,0c-0.1,0-0.3,0-0.4,0
		v-7.3l0.1-0.1h0.3c0.2,0,0.3,0,0.3,0.1c0.1,0.1,0.1,0.2,0.1,0.4v2.6c0.2-0.2,0.5-0.4,0.8-0.5c0.3-0.1,0.6-0.2,0.9-0.2
		c0.4,0,0.8,0.1,1,0.4C198.6,280.1,198.7,280.4,198.7,280.9z"/>
</g>
<g class="st4">
	<path class="st7" d="M278.3,269.8c0,0.5-0.1,0.9-0.2,1.2c-0.1,0.2-0.5,0.4-1,0.4H270c-0.5-0.4-0.8-0.8-0.8-1.1c0-0.7,0.2-1.3,0.7-2
		c0.5-0.7,1.2-1.5,2.2-2.3l2.1-1.8c0.7-0.6,1.1-1.1,1.5-1.6c0.3-0.5,0.5-1.2,0.5-1.9c0-0.7-0.2-1.3-0.7-1.8c-0.5-0.5-1-0.7-1.7-0.7
		s-1.3,0.2-1.8,0.6c-0.5,0.4-1,0.9-1.3,1.6c-0.6-0.1-1-0.3-1.2-0.6c0.2-0.4,0.4-0.8,0.7-1.2c0.3-0.4,0.6-0.7,1-1
		c0.4-0.3,0.8-0.5,1.3-0.6c0.5-0.1,1-0.2,1.6-0.2c0.6,0,1.1,0.1,1.6,0.3c0.5,0.2,0.9,0.5,1.3,0.8c0.4,0.4,0.6,0.8,0.8,1.3
		c0.2,0.5,0.3,1,0.3,1.6c0,0.6-0.1,1.1-0.2,1.5c-0.1,0.4-0.3,0.8-0.6,1.2c-0.3,0.4-0.6,0.7-0.9,1.1c-0.3,0.3-0.7,0.7-1.1,1.1
		l-1.8,1.5c-1.5,1.3-2.3,2.3-2.4,3c0.4,0,0.8-0.1,1.3-0.1c0.4,0,0.9,0,1.4,0H278.3z"/>
	<path class="st7" d="M282.7,270.3l-0.3-0.4c-0.2-0.2-0.3-0.5-0.5-0.9c-0.2-0.4-0.3-0.8-0.4-1.4c-0.1-0.5-0.2-1.1-0.3-1.7
		c-0.1-0.6-0.1-1.3-0.1-2c0-1.1,0.1-2.2,0.4-3.1c0.2-0.9,0.6-1.7,1.1-2.3c0.5-0.6,1.1-1.1,1.7-1.5c0.7-0.3,1.5-0.5,2.4-0.5
		c1.3,0,2.3,0.2,3,0.7c-0.1,0.6-0.3,1-0.7,1.2c-0.8-0.3-1.5-0.5-2.3-0.5c-0.7,0-1.2,0.1-1.7,0.4c-0.5,0.3-0.9,0.6-1.2,1.1
		c-0.3,0.5-0.5,1-0.7,1.6c-0.2,0.6-0.2,1.3-0.3,2.1c1-1,2.1-1.5,3.4-1.5c1.3,0,2.3,0.4,3.1,1.2c0.7,0.8,1.1,2,1.1,3.5
		c0,0.7-0.1,1.4-0.3,2.1c-0.2,0.6-0.5,1.2-0.9,1.6c-0.4,0.5-0.9,0.8-1.4,1.1c-0.6,0.3-1.2,0.4-1.8,0.4
		C284.5,271.6,283.5,271.2,282.7,270.3z M285.9,263.2c-0.5,0-1.1,0.1-1.6,0.4c-0.6,0.3-1.1,0.7-1.5,1.2v0.4c0,0.8,0.1,1.5,0.2,2.1
		c0.1,0.6,0.3,1.2,0.6,1.6c0.3,0.4,0.6,0.8,1,1c0.4,0.2,0.8,0.4,1.4,0.4c0.8,0,1.5-0.3,2-1c0.5-0.6,0.7-1.5,0.7-2.6
		C288.6,264.3,287.7,263.2,285.9,263.2z"/>
	<path class="st7" d="M293.2,271.3c-0.1-0.2-0.2-0.5-0.2-1c0-0.3,0-0.6,0.1-0.7c0.1-0.2,0.2-0.3,0.3-0.4c0.1-0.1,0.3-0.1,0.4-0.1
		c0.2,0,0.3,0,0.5,0c0.2,0,0.4,0,0.5,0c0.2,0,0.3,0.1,0.4,0.1c0.1,0.1,0.2,0.2,0.3,0.4c0.1,0.2,0.1,0.4,0.1,0.7c0,0.3,0,0.5-0.1,0.7
		c0,0.2-0.1,0.3-0.2,0.4s-0.2,0.1-0.4,0.1c-0.2,0-0.4,0-0.6,0C293.9,271.5,293.5,271.4,293.2,271.3z"/>
	<path class="st7" d="M306.8,256.8c0.1,0.3,0.1,0.5,0.1,0.7c0,0.5-0.3,0.8-0.8,0.8h-4c-0.3,0-0.5,0-0.7,0c-0.2,0-0.4,0-0.5,0v1.4
		l-0.2,2.6c0.8-0.4,1.6-0.6,2.4-0.6c1.3,0,2.4,0.4,3.2,1.2c0.8,0.8,1.2,2,1.2,3.6c0,0.8-0.1,1.5-0.4,2.1s-0.6,1.2-1.1,1.6
		c-0.5,0.4-1,0.8-1.6,1c-0.6,0.2-1.3,0.4-2,0.4c-1.5,0-2.8-0.4-3.9-1.3c0.1-0.5,0.3-0.9,0.8-1.2c0.6,0.4,1.1,0.7,1.6,0.8
		c0.5,0.2,1,0.3,1.5,0.3c0.9,0,1.7-0.3,2.3-1c0.6-0.6,0.9-1.6,0.9-2.7c0-0.6-0.1-1.1-0.2-1.6c-0.2-0.4-0.4-0.8-0.7-1
		c-0.3-0.3-0.6-0.4-1-0.6c-0.4-0.1-0.8-0.2-1.3-0.2c-0.9,0-1.8,0.4-2.7,1.1c-0.3,0-0.6-0.2-0.8-0.6l0.3-6.7l0.1-0.1H306.8z"/>
	<path class="st7" d="M316.9,256.7c0.7,0.7,1.1,1.9,1.1,3.5c0,1.5-0.3,2.6-0.9,3.4c-0.6,0.7-1.4,1.1-2.5,1.1c-1,0-1.8-0.4-2.4-1.1
		c-0.6-0.7-0.9-1.8-0.9-3.4c0-1.5,0.3-2.6,0.9-3.3c0.6-0.7,1.4-1.1,2.5-1.1C315.6,255.8,316.4,256.1,316.9,256.7z M314.7,271.3
		l8.4-15.3c0.2-0.1,0.5-0.1,0.8-0.1c0.2,0,0.3,0,0.5,0c0.1,0,0.3,0,0.4,0.1l-8.4,15.3c-0.1,0-0.2,0.1-0.4,0.1c-0.1,0-0.3,0-0.5,0
		c-0.2,0-0.3,0-0.5,0C314.9,271.4,314.8,271.4,314.7,271.3z M314.6,257c-1.2,0-1.8,1.1-1.8,3.3c0,2.2,0.6,3.2,1.8,3.2
		c1.2,0,1.8-1.1,1.8-3.2C316.4,258.1,315.8,257,314.6,257z M327.2,270.7c-0.6,0.6-1.4,0.9-2.3,0.9c-1,0-1.9-0.4-2.5-1.1
		c-0.6-0.7-0.9-1.8-0.9-3.4c0-1.5,0.3-2.6,0.9-3.3c0.6-0.7,1.4-1.1,2.5-1.1c1.1,0,1.9,0.4,2.5,1.1c0.6,0.7,0.9,1.8,0.9,3.3
		C328.3,268.8,328,270,327.2,270.7z M324.9,263.9c-1.2,0-1.8,1.1-1.8,3.3c0,2.2,0.6,3.2,1.8,3.2c1.2,0,1.8-1.1,1.8-3.2
		C326.8,265,326.2,263.9,324.9,263.9z"/>
	<path class="st7" d="M271.6,278.8c0.1-0.2,0.3-0.4,0.5-0.5c0.2,0.1,0.3,0.2,0.3,0.4c-0.2,0.2-0.3,0.5-0.3,1.1v3.1
		c0,0.5,0,0.9-0.1,1.2c-0.1,0.3-0.2,0.6-0.4,0.8c-0.2,0.2-0.4,0.4-0.6,0.4c-0.2,0.1-0.5,0.1-0.8,0.1c-0.6,0-1.2-0.1-1.7-0.3
		c0-0.2,0.1-0.4,0.2-0.6c0.4,0.2,0.9,0.3,1.4,0.3c0.3,0,0.5,0,0.7-0.1c0.2-0.1,0.3-0.2,0.4-0.3c0.1-0.1,0.2-0.3,0.2-0.5
		c0-0.2,0.1-0.4,0.1-0.7v-0.6c-0.4,0.4-0.9,0.7-1.5,0.7c-0.5,0-1-0.2-1.2-0.7c-0.3-0.4-0.4-1.1-0.4-1.9c0-0.4,0.1-0.8,0.2-1.1
		c0.1-0.3,0.2-0.6,0.4-0.8c0.2-0.2,0.4-0.4,0.6-0.5c0.2-0.1,0.5-0.2,0.7-0.2C270.7,278.3,271.2,278.4,271.6,278.8z M271.5,282v-2.6
		c-0.2-0.2-0.4-0.3-0.6-0.4c-0.2-0.1-0.4-0.1-0.6-0.1c-0.4,0-0.7,0.2-0.9,0.5c-0.2,0.3-0.3,0.8-0.3,1.5c0,0.6,0.1,1.1,0.3,1.4
		c0.2,0.3,0.4,0.5,0.7,0.5c0.3,0,0.5-0.1,0.8-0.2S271.3,282.2,271.5,282z"/>
	<path class="st7" d="M273.7,278.7c0-0.2,0.2-0.3,0.3-0.4c0.4,0.1,0.6,0.4,0.7,0.9c0.3-0.6,0.7-0.9,1.3-0.9c0.1,0,0.3,0,0.5,0
		c0,0.3-0.1,0.5-0.2,0.7c-0.1,0-0.2,0-0.3,0c-0.5,0-0.9,0.3-1.2,0.9v3.3c-0.1,0-0.2,0-0.4,0c-0.1,0-0.3,0-0.4,0v-3.5
		C274,279.3,273.9,279,273.7,278.7z"/>
	<path class="st7" d="M279.7,276.9c0.1-0.1,0.2-0.1,0.4-0.1c0.2,0,0.3,0,0.4,0.1c0,0.1,0.1,0.2,0.1,0.3c0,0.1,0,0.2-0.1,0.3
		c-0.1,0.1-0.2,0.1-0.4,0.1c-0.1,0-0.2,0-0.3,0c-0.1,0-0.1-0.1-0.1-0.1c0,0,0-0.1-0.1-0.1c0,0,0-0.1,0-0.2
		C279.7,277.1,279.7,277,279.7,276.9z M278,276.9c0,0,0.1-0.1,0.2-0.1c0.1,0,0.1,0,0.2,0c0.2,0,0.3,0,0.4,0.1c0,0.1,0,0.1,0.1,0.2
		c0,0.1,0,0.1,0,0.2c0,0.1,0,0.2-0.1,0.3c-0.1,0.1-0.2,0.1-0.4,0.1c-0.1,0-0.2,0-0.3,0c-0.1,0-0.1-0.1-0.1-0.1c0,0,0-0.1-0.1-0.1
		c0-0.1,0-0.1,0-0.2C277.9,277.1,277.9,277,278,276.9z M277.4,281.8v-2.5c0-0.4,0-0.6-0.1-0.8c0.1-0.1,0.3-0.2,0.5-0.2
		c0.3,0,0.4,0.2,0.4,0.5v2.8c0,0.4,0.1,0.7,0.2,0.9c0.1,0.2,0.3,0.2,0.6,0.2c0.3,0,0.5-0.1,0.8-0.2c0.3-0.1,0.5-0.3,0.7-0.6v-3.5
		c0,0,0.1,0,0.2,0c0.1,0,0.1,0,0.2,0s0.1,0,0.2,0c0.1,0,0.1,0,0.2,0v3.5c0,0.5,0.1,0.9,0.3,1.1c-0.1,0.2-0.2,0.3-0.3,0.4
		c-0.3-0.1-0.5-0.4-0.6-0.7c-0.2,0.2-0.5,0.4-0.8,0.5c-0.3,0.1-0.6,0.2-0.9,0.2c-0.4,0-0.8-0.1-1-0.4
		C277.5,282.6,277.4,282.3,277.4,281.8z"/>
	<path class="st7" d="M286.6,279.9v2.5c0,0.4,0,0.7,0.1,0.8c-0.1,0.1-0.3,0.2-0.5,0.2c-0.3,0-0.4-0.2-0.4-0.5v-2.8
		c0-0.4,0-0.7-0.1-0.9s-0.3-0.3-0.6-0.3c-0.3,0-0.5,0.1-0.8,0.2c-0.3,0.1-0.5,0.3-0.7,0.6v3.5c-0.1,0-0.2,0-0.4,0s-0.3,0-0.4,0v-4.9
		l0.1-0.1h0.3c0.2,0,0.3,0,0.3,0.1c0.1,0.1,0.1,0.2,0.1,0.4v0.1c0.2-0.2,0.5-0.4,0.8-0.5c0.3-0.1,0.6-0.2,0.9-0.2
		c0.4,0,0.8,0.1,1,0.4C286.5,279,286.6,279.4,286.6,279.9z"/>
	<path class="st7" d="M291.8,281h-3.1c0,1.1,0.5,1.7,1.3,1.7c0.5,0,0.9-0.1,1.4-0.4c0.1,0.1,0.2,0.3,0.3,0.5
		c-0.5,0.4-1.2,0.6-1.8,0.6c-0.3,0-0.6-0.1-0.9-0.2c-0.2-0.1-0.4-0.3-0.6-0.5c-0.2-0.2-0.3-0.5-0.3-0.8c-0.1-0.3-0.1-0.7-0.1-1
		c0-0.4,0-0.7,0.1-1c0.1-0.3,0.2-0.6,0.4-0.8c0.2-0.2,0.4-0.4,0.6-0.5c0.2-0.1,0.5-0.2,0.8-0.2c0.3,0,0.6,0.1,0.8,0.2
		c0.2,0.1,0.4,0.3,0.6,0.4c0.2,0.2,0.3,0.4,0.4,0.7c0.1,0.3,0.1,0.5,0.1,0.8c0,0.1,0,0.2,0,0.3C291.8,280.8,291.8,280.9,291.8,281z
		 M288.7,280.5h2.4v-0.1c0-0.5-0.1-0.8-0.3-1.1c-0.2-0.3-0.5-0.4-0.9-0.4c-0.4,0-0.7,0.1-0.9,0.4C288.9,279.6,288.7,280,288.7,280.5
		z"/>
	<path class="st7" d="M293,278.7c0-0.2,0.2-0.3,0.3-0.4c0.4,0.1,0.6,0.4,0.7,0.9c0.3-0.6,0.7-0.9,1.3-0.9c0.1,0,0.3,0,0.5,0
		c0,0.3-0.1,0.5-0.2,0.7c-0.1,0-0.2,0-0.3,0c-0.5,0-0.9,0.3-1.2,0.9v3.3c-0.1,0-0.2,0-0.4,0c-0.1,0-0.3,0-0.4,0v-3.5
		C293.4,279.3,293.3,279,293,278.7z"/>
	<path class="st7" d="M299.2,283.3L299.2,283.3l-0.1-6.7l0.1-0.1l1.9,0c0.7,0,1.3,0.2,1.6,0.5c0.3,0.3,0.5,0.8,0.5,1.3
		c0,0.3-0.1,0.6-0.3,0.9s-0.4,0.4-0.7,0.5c0.2,0.1,0.3,0.1,0.5,0.2c0.2,0.1,0.3,0.2,0.4,0.4c0.1,0.2,0.2,0.3,0.3,0.5
		c0.1,0.2,0.1,0.4,0.1,0.7c0,0.2,0,0.5-0.1,0.7c-0.1,0.2-0.2,0.4-0.4,0.6c-0.2,0.2-0.4,0.3-0.7,0.4c-0.3,0.1-0.6,0.2-1,0.2
		L299.2,283.3z M299.9,277.1v2.3h1.2c0.2,0,0.5,0,0.6-0.1c0.2-0.1,0.3-0.1,0.4-0.2c0.1-0.1,0.2-0.2,0.2-0.4c0-0.1,0.1-0.3,0.1-0.4
		c0-0.8-0.4-1.1-1.3-1.1c-0.3,0-0.6,0-0.8,0S300,277.1,299.9,277.1z M299.9,282.7l1.4,0c0.3,0,0.5,0,0.7-0.1
		c0.2-0.1,0.3-0.2,0.4-0.3c0.1-0.1,0.2-0.3,0.2-0.4c0-0.2,0.1-0.3,0.1-0.5c0-0.1,0-0.3-0.1-0.5c-0.1-0.2-0.1-0.3-0.3-0.4
		c-0.1-0.1-0.3-0.2-0.5-0.3c-0.2-0.1-0.4-0.1-0.7-0.1h-1.3V282.7z"/>
	<path class="st7" d="M308.5,281h-3.1c0,1.1,0.5,1.7,1.3,1.7c0.5,0,0.9-0.1,1.4-0.4c0.1,0.1,0.2,0.3,0.3,0.5
		c-0.5,0.4-1.2,0.6-1.8,0.6c-0.3,0-0.6-0.1-0.9-0.2c-0.2-0.1-0.4-0.3-0.6-0.5c-0.2-0.2-0.3-0.5-0.3-0.8c-0.1-0.3-0.1-0.7-0.1-1
		c0-0.4,0-0.7,0.1-1c0.1-0.3,0.2-0.6,0.4-0.8c0.2-0.2,0.4-0.4,0.6-0.5c0.2-0.1,0.5-0.2,0.8-0.2c0.3,0,0.6,0.1,0.8,0.2
		c0.2,0.1,0.4,0.3,0.6,0.4c0.2,0.2,0.3,0.4,0.4,0.7c0.1,0.3,0.1,0.5,0.1,0.8c0,0.1,0,0.2,0,0.3C308.5,280.8,308.5,280.9,308.5,281z
		 M305.4,280.5h2.4v-0.1c0-0.5-0.1-0.8-0.3-1.1c-0.2-0.3-0.5-0.4-0.9-0.4c-0.4,0-0.7,0.1-0.9,0.4C305.5,279.6,305.4,280,305.4,280.5
		z"/>
	<path class="st7" d="M309.7,278.7c0-0.2,0.2-0.3,0.3-0.4c0.4,0.1,0.6,0.4,0.7,0.9c0.3-0.6,0.7-0.9,1.3-0.9c0.1,0,0.3,0,0.5,0
		c0,0.3-0.1,0.5-0.2,0.7c-0.1,0-0.2,0-0.3,0c-0.5,0-0.9,0.3-1.2,0.9v3.3c-0.1,0-0.2,0-0.4,0c-0.1,0-0.3,0-0.4,0v-3.5
		C310.1,279.3,309.9,279,309.7,278.7z"/>
	<path class="st7" d="M316.8,281h-3.1c0,1.1,0.5,1.7,1.3,1.7c0.5,0,0.9-0.1,1.4-0.4c0.1,0.1,0.2,0.3,0.3,0.5
		c-0.5,0.4-1.2,0.6-1.8,0.6c-0.3,0-0.6-0.1-0.9-0.2c-0.2-0.1-0.4-0.3-0.6-0.5c-0.2-0.2-0.3-0.5-0.3-0.8c-0.1-0.3-0.1-0.7-0.1-1
		c0-0.4,0-0.7,0.1-1c0.1-0.3,0.2-0.6,0.4-0.8c0.2-0.2,0.4-0.4,0.6-0.5c0.2-0.1,0.5-0.2,0.8-0.2c0.3,0,0.6,0.1,0.8,0.2
		c0.2,0.1,0.4,0.3,0.6,0.4c0.2,0.2,0.3,0.4,0.4,0.7c0.1,0.3,0.1,0.5,0.1,0.8c0,0.1,0,0.2,0,0.3C316.8,280.8,316.8,280.9,316.8,281z
		 M313.7,280.5h2.4v-0.1c0-0.5-0.1-0.8-0.3-1.1c-0.2-0.3-0.5-0.4-0.9-0.4c-0.4,0-0.7,0.1-0.9,0.4C313.8,279.6,313.7,280,313.7,280.5
		z"/>
	<path class="st7" d="M318.1,276.7c0.1-0.1,0.3-0.1,0.5-0.1c0.2,0,0.3,0,0.4,0.1c0.1,0.1,0.1,0.2,0.1,0.4s0,0.3-0.1,0.4
		c-0.1,0.1-0.2,0.1-0.4,0.1c-0.2,0-0.3,0-0.4-0.1c-0.1-0.1-0.1-0.2-0.1-0.4C318,276.9,318.1,276.8,318.1,276.7z M319.1,279.1v4.2
		c-0.1,0-0.2,0-0.4,0s-0.3,0-0.4,0v-3.8c0-0.2,0-0.3-0.1-0.4c-0.1-0.1-0.2-0.1-0.3-0.1h-0.1c0-0.1,0-0.2,0-0.3s0-0.2,0-0.3
		c0.1,0,0.2,0,0.3,0c0.1,0,0.1,0,0.2,0h0.1c0.2,0,0.4,0.1,0.5,0.2C319,278.7,319.1,278.9,319.1,279.1z"/>
	<path class="st7" d="M323.5,280.1V280c0-0.1,0-0.3-0.1-0.4c0-0.1-0.1-0.3-0.2-0.4c-0.1-0.1-0.2-0.2-0.3-0.3
		c-0.1-0.1-0.3-0.1-0.5-0.1c-0.4,0-0.7,0.2-0.9,0.5c-0.2,0.3-0.3,0.8-0.3,1.5c0,0.6,0.1,1.1,0.3,1.4c0.2,0.3,0.5,0.5,0.9,0.5
		c0.4,0,0.8-0.2,1.3-0.6c0.2,0.1,0.3,0.3,0.3,0.5c-0.5,0.5-1.1,0.7-1.7,0.7c-0.3,0-0.6-0.1-0.8-0.2s-0.4-0.3-0.6-0.5
		c-0.2-0.2-0.3-0.5-0.4-0.8c-0.1-0.3-0.1-0.6-0.1-1c0-0.5,0.1-0.9,0.2-1.2c0.1-0.3,0.2-0.6,0.4-0.8c0.2-0.2,0.4-0.4,0.6-0.5
		c0.2-0.1,0.5-0.2,0.8-0.2c0.3,0,0.5,0,0.7,0.1c0.2,0.1,0.4,0.2,0.5,0.3c0.1,0.1,0.3,0.3,0.3,0.5c0.1,0.2,0.1,0.3,0.1,0.5
		c0,0.3-0.1,0.5-0.4,0.5C323.7,280.1,323.6,280.1,323.5,280.1z"/>
	<path class="st7" d="M329.2,279.9v2.5c0,0.4,0,0.7,0.1,0.8c-0.1,0.1-0.3,0.2-0.5,0.2c-0.3,0-0.4-0.2-0.4-0.5v-2.7
		c0-0.4-0.1-0.7-0.2-0.9c-0.1-0.2-0.3-0.3-0.6-0.3s-0.5,0.1-0.8,0.2c-0.3,0.1-0.5,0.3-0.7,0.6v3.5c-0.1,0-0.2,0-0.4,0
		c-0.1,0-0.3,0-0.4,0V276l0.1-0.1h0.3c0.2,0,0.3,0,0.3,0.1c0.1,0.1,0.1,0.2,0.1,0.4v2.6c0.2-0.2,0.5-0.4,0.8-0.5
		c0.3-0.1,0.6-0.2,0.9-0.2c0.4,0,0.8,0.1,1,0.4C329.1,279,329.2,279.4,329.2,279.9z"/>
</g>
</svg>
