<?xml version="1.0" encoding="utf-8"?>
<!-- Generator: Adobe Illustrator 22.0.0, SVG Export Plug-In . SVG Version: 6.00 Build 0)  -->
<svg version="1.1" id="Layer_1" xmlns="http://www.w3.org/2000/svg" xmlns:xlink="http://www.w3.org/1999/xlink" x="0px" y="0px"
	 viewBox="0 0 360 360" style="enable-background:new 0 0 360 360;" xml:space="preserve">
<style type="text/css">
	.st0{opacity:0.1;}
	.st1{fill:#FB3942;}
	.st2{opacity:0.3;}
	.st3{fill:#FFFFFF;}
</style>
<g class="st0">
	<path class="st1" d="M194.4,237.5c0-2.2,5.7-4.6,5.6-6.7c-0.2-2.2-6.2-3.7-6.5-5.9c-0.3-2.2,5-5.4,4.5-7.5s-6.7-2.7-7.3-4.8
		s4.1-6.1,3.3-8.1s-7-1.7-8-3.7c-0.9-2,3.2-6.6,2.1-8.5c-1.1-1.9-7.2-0.6-8.4-2.4c-1.2-1.8,2.2-7,0.8-8.7c-1.4-1.7-7.2,0.4-8.7-1.2
		c-1.5-1.6,1.1-7.3-0.5-8.7c-1.6-1.5-7,1.5-8.8,0.1c-1.7-1.4,0-7.3-1.8-8.6c-1.8-1.2-6.7,2.5-8.6,1.4c-1.9-1.1-1.1-7.3-3.1-8.2
		s-6.3,3.5-8.3,2.7c-2-0.8-2.2-7-4.2-7.7c-2.1-0.6-5.7,4.4-7.8,3.9c-2.1-0.5-3.2-6.6-5.3-6.9c-2.1-0.3-5,5.2-7.1,5.1
		c-2.2-0.2-4.1-6.1-6.3-6.1s-4.2,5.9-6.3,6.1c-2.2,0.2-5-5.4-7.1-5.1c-2.2,0.3-3.2,6.4-5.3,6.9c-2.1,0.5-5.7-4.6-7.8-3.9
		c-2.1,0.6-2.2,6.9-4.2,7.7c-2,0.8-6.4-3.7-8.3-2.7c-2,0.9-1.2,7.1-3.1,8.2c-1.9,1.1-6.8-2.7-8.6-1.4c-1.8,1.2-0.1,7.2-1.8,8.6
		s-7.2-1.6-8.8-0.1s1,7.1-0.5,8.7s-7.3-0.6-8.7,1.2c-1.4,1.7,2,6.9,0.8,8.7c-1.2,1.8-7.3,0.5-8.4,2.4c-1.1,1.9,3,6.5,2.1,8.5
		s-7.2,1.6-8,3.7c-0.8,2,4,6,3.3,8.1c-0.6,2.1-6.8,2.7-7.3,4.8s4.8,5.3,4.5,7.5c-0.3,2.1-6.3,3.7-6.5,5.9c-0.2,2.2,5.6,4.5,5.6,6.7
		c0,2.2-5.7,4.6-5.6,6.7c0.2,2.2,6.2,3.7,6.5,5.9c0.3,2.2-5,5.4-4.5,7.5s6.7,2.7,7.3,4.8c0.6,2.1-4.1,6.1-3.3,8.1c0.8,2,7,1.7,8,3.7
		c0.9,2-3.2,6.6-2.1,8.5c1.1,1.9,7.2,0.6,8.4,2.4s-2.2,7-0.8,8.7s7.2-0.4,8.7,1.2s-1.1,7.3,0.5,8.7c1.6,1.5,7-1.5,8.8-0.1
		c1.7,1.4,0,7.3,1.8,8.6c1.8,1.2,6.7-2.5,8.6-1.4s1.1,7.3,3.1,8.2c2,0.9,6.3-3.5,8.3-2.7s2.2,7,4.2,7.7c2.1,0.6,5.7-4.4,7.8-3.9
		c2.1,0.5,3.2,6.6,5.3,6.9c2.1,0.3,5-5.2,7.1-5.1c2.2,0.2,4.1,6.1,6.3,6.1c2.2,0,4.2-5.9,6.3-6.1c2.2-0.2,5,5.4,7.1,5.1
		c2.2-0.3,3.2-6.4,5.3-6.9s5.7,4.6,7.8,3.9c2.1-0.6,2.2-6.9,4.2-7.7c2-0.8,6.4,3.7,8.3,2.7c2-0.9,1.2-7.1,3.1-8.2
		c1.9-1.1,6.8,2.7,8.6,1.4c1.8-1.2,0.1-7.2,1.8-8.6s7.2,1.6,8.8,0.1s-1-7.1,0.5-8.7s7.3,0.6,8.7-1.2c1.4-1.7-2-6.9-0.8-8.7
		c1.2-1.8,7.3-0.5,8.4-2.4c1.1-1.9-3-6.5-2.1-8.5s7.2-1.6,8-3.7c0.8-2-4-6-3.3-8.1c0.6-2.1,6.8-2.7,7.3-4.8c0.5-2.1-4.8-5.3-4.5-7.5
		c0.3-2.1,6.3-3.7,6.5-5.9C200.1,242,194.4,239.7,194.4,237.5z"/>
</g>
<g class="st2">
	<path class="st1" d="M175,237.5c0-1.7,5.8-3.6,5.6-5.3c-0.1-1.7-6.1-2.7-6.3-4.4c-0.3-1.7,5.2-4.4,4.8-6.1
		c-0.4-1.7-6.4-1.8-6.9-3.4s4.4-5.1,3.8-6.7c-0.6-1.6-6.6-0.8-7.4-2.3c-0.7-1.5,3.6-5.8,2.8-7.2c-0.9-1.5-6.7,0.2-7.6-1.2
		c-1-1.4,2.7-6.2,1.7-7.5c-1.1-1.3-6.6,1.2-7.7-0.1c-1.2-1.2,1.8-6.6,0.5-7.7c-1.2-1.2-6.3,2.2-7.7,1.1c-1.3-1.1,0.8-6.7-0.6-7.7
		c-1.4-1-5.9,3.1-7.4,2.2c-1.5-0.8-0.2-6.8-1.8-7.5c-1.5-0.7-5.4,3.9-7,3.3s-1.2-6.7-2.9-7.2c-1.6-0.5-4.8,4.7-6.4,4.3
		s-2.2-6.4-3.9-6.7c-1.7-0.2-4,5.3-5.7,5.2s-3.2-6-4.9-6c-1.7,0-3.2,5.9-4.9,6c-1.7,0.1-4-5.5-5.7-5.2c-1.7,0.3-2.3,6.3-3.9,6.7
		c-1.7,0.4-4.8-4.8-6.4-4.3s-1.3,6.6-2.9,7.2c-1.6,0.6-5.5-4-7-3.3c-1.5,0.7-0.3,6.7-1.8,7.5c-1.5,0.9-6-3.2-7.4-2.2
		s0.7,6.6-0.6,7.7c-1.3,1.1-6.4-2.2-7.7-1.1c-1.2,1.2,1.7,6.5,0.5,7.7c-1.2,1.2-6.7-1.3-7.7,0.1c-1.1,1.3,2.6,6.1,1.7,7.5
		c-1,1.4-6.8-0.3-7.6,1.2s3.5,5.7,2.8,7.2s-6.7,0.7-7.4,2.3c-0.6,1.6,4.3,5.1,3.8,6.7c-0.5,1.6-6.6,1.7-6.9,3.4
		c-0.4,1.6,5,4.4,4.8,6.1s-6.2,2.7-6.3,4.4c-0.1,1.7,5.6,3.6,5.6,5.3c0,1.7-5.8,3.6-5.6,5.3c0.1,1.7,6.1,2.7,6.3,4.4
		c0.3,1.7-5.2,4.4-4.8,6.1s6.4,1.8,6.9,3.4s-4.4,5.1-3.8,6.7c0.6,1.6,6.6,0.8,7.4,2.3c0.7,1.5-3.6,5.8-2.8,7.2
		c0.9,1.5,6.7-0.2,7.6,1.2c1,1.4-2.7,6.2-1.7,7.5c1.1,1.3,6.6-1.2,7.7,0.1c1.2,1.2-1.8,6.6-0.5,7.7c1.2,1.2,6.3-2.2,7.7-1.1
		c1.3,1.1-0.8,6.7,0.6,7.7s5.9-3.1,7.4-2.2c1.5,0.8,0.2,6.8,1.8,7.5c1.5,0.7,5.4-3.9,7-3.3s1.2,6.7,2.9,7.2c1.6,0.5,4.8-4.7,6.4-4.3
		c1.6,0.4,2.2,6.4,3.9,6.7c1.7,0.2,4-5.3,5.7-5.2c1.7,0.1,3.2,6,4.9,6c1.7,0,3.2-5.9,4.9-6c1.7-0.1,4,5.5,5.7,5.2s2.3-6.3,3.9-6.7
		c1.7-0.4,4.8,4.8,6.4,4.3s1.3-6.6,2.9-7.2c1.6-0.6,5.5,4,7,3.3s0.3-6.7,1.8-7.5c1.5-0.9,6,3.2,7.4,2.2s-0.7-6.6,0.6-7.7
		s6.4,2.2,7.7,1.1c1.2-1.2-1.7-6.5-0.5-7.7s6.7,1.3,7.7-0.1c1.1-1.3-2.6-6.1-1.7-7.5c1-1.4,6.8,0.3,7.6-1.2s-3.5-5.7-2.8-7.2
		s6.7-0.7,7.4-2.3c0.6-1.6-4.3-5.1-3.8-6.7s6.6-1.7,6.9-3.4c0.4-1.6-5-4.4-4.8-6.1s6.2-2.7,6.3-4.4C180.8,241.1,175,239.2,175,237.5
		z"/>
</g>
<g>
	<path class="st1" d="M156,237.6c0-1.2,5.8-2.6,5.7-3.8s-6-1.8-6.2-3s5.3-3.5,5.1-4.6c-0.3-1.2-6.2-0.9-6.6-2
		c-0.4-1.2,4.7-4.2,4.3-5.4c-0.4-1.1-6.3,0.1-6.8-1s4.1-4.9,3.4-5.9c-0.6-1-6.2,1-6.9,0s3.3-5.4,2.5-6.4c-0.8-0.9-6,1.9-6.8,1
		s2.4-5.9,1.5-6.7s-5.6,2.8-6.6,2c-0.9-0.8,1.5-6.2,0.5-6.8c-1-0.7-5.1,3.6-6.2,3c-1-0.6,0.6-6.3-0.5-6.8s-4.5,4.3-5.7,3.9
		c-1.1-0.4-0.3-6.3-1.5-6.7s-3.8,5-5,4.7s-1.3-6.2-2.5-6.4s-3,5.5-4.3,5.4c-1.2-0.1-2.2-6-3.4-6c-1.2,0-2.2,5.9-3.4,6
		c-1.2,0.1-3.1-5.6-4.3-5.4c-1.2,0.2-1.3,6.1-2.5,6.4c-1.2,0.3-3.9-5-5-4.7c-1.2,0.4-0.4,6.3-1.5,6.7s-4.6-4.4-5.7-3.9
		s0.6,6.2-0.5,6.8c-1,0.6-5.2-3.7-6.2-3s1.5,6.1,0.5,6.8c-0.9,0.8-5.7-2.9-6.6-2c-0.9,0.8,2.4,5.8,1.5,6.7c-0.8,0.9-6-2-6.8-1
		c-0.8,0.9,3.2,5.4,2.5,6.4s-6.3-1.1-6.9,0c-0.6,1,4,4.8,3.4,5.9c-0.5,1.1-6.3-0.1-6.8,1c-0.4,1.1,4.7,4.2,4.3,5.3
		c-0.4,1.2-6.3,0.8-6.6,2s5.2,3.4,5.1,4.6c-0.2,1.2-6.1,1.7-6.2,3c-0.1,1.2,5.7,2.6,5.7,3.8s-5.8,2.6-5.7,3.8s6,1.8,6.2,3
		c0.2,1.2-5.3,3.5-5.1,4.6c0.3,1.2,6.2,0.9,6.6,2c0.4,1.2-4.7,4.2-4.3,5.4c0.4,1.1,6.3-0.1,6.8,1s-4.1,4.9-3.4,5.9
		c0.6,1,6.2-1,6.9,0c0.7,1-3.3,5.4-2.5,6.4c0.8,0.9,6-1.9,6.8-1s-2.4,5.9-1.5,6.7c0.9,0.8,5.6-2.8,6.6-2c0.9,0.8-1.5,6.2-0.5,6.8
		c1,0.7,5.1-3.6,6.2-3c1,0.6-0.6,6.3,0.5,6.8s4.5-4.3,5.7-3.9c1.1,0.4,0.3,6.3,1.5,6.7c1.2,0.4,3.8-5,5-4.7s1.3,6.2,2.5,6.4
		c1.2,0.2,3-5.5,4.3-5.4c1.2,0.1,2.2,6,3.4,6c1.2,0,2.2-5.9,3.4-6c1.2-0.1,3.1,5.6,4.3,5.4c1.2-0.2,1.3-6.1,2.5-6.4s3.9,5,5,4.7
		c1.2-0.4,0.4-6.3,1.5-6.7c1.1-0.4,4.6,4.4,5.7,3.9c1.1-0.5-0.6-6.2,0.5-6.8c1-0.6,5.2,3.7,6.2,3s-1.5-6.1-0.5-6.8
		c0.9-0.8,5.7,2.9,6.6,2c0.9-0.8-2.4-5.8-1.5-6.7c0.8-0.9,6,2,6.8,1c0.8-0.9-3.2-5.4-2.5-6.4s6.3,1.1,6.9,0c0.6-1-4-4.8-3.4-5.9
		c0.5-1.1,6.3,0.1,6.8-1c0.4-1.1-4.7-4.2-4.3-5.3c0.4-1.2,6.3-0.8,6.6-2s-5.2-3.4-5.1-4.6c0.2-1.2,6.1-1.7,6.2-3
		C161.8,240.2,156,238.8,156,237.6z"/>
</g>
<g>
	<path class="st3" d="M73.5,242l4.5-6.8c0.1-0.2,0.6-0.8,1.4-1.9l-0.1-0.1c-0.5,0.1-1.5,0.1-2.8,0.1h-2.9c0-0.2-0.1-0.4-0.1-0.7
		c0-0.3,0-0.6,0.1-0.9h7.4c0.2,0.6,0.3,1,0.3,1.3c0,0.2-0.1,0.5-0.3,0.7l-4.5,6.8c-0.3,0.4-0.7,1.1-1.4,1.9l0.1,0.1
		c0.8-0.1,1.5-0.1,2.2-0.1h1.9c1,0,1.7-0.1,2.1-0.3c0.1,0.3,0.2,0.6,0.2,0.9c0,0.7-0.4,1.1-1.3,1.1h-6.8c-0.2-0.6-0.2-1-0.2-1.3
		S73.3,242.3,73.5,242z"/>
	<path class="st3" d="M90.2,240.2h-5.3c0,0.8,0.2,1.5,0.5,1.9c0.3,0.4,0.9,0.7,1.6,0.7c0.4,0,0.7-0.1,1.2-0.2
		c0.4-0.1,0.8-0.3,1.3-0.5c0.3,0.3,0.5,0.7,0.6,1.2c-1,0.7-2.1,1-3.4,1c-0.7,0-1.3-0.1-1.7-0.4c-0.5-0.2-0.8-0.6-1.1-1
		s-0.5-0.9-0.6-1.5c-0.1-0.6-0.2-1.2-0.2-1.9c0-0.7,0.1-1.3,0.3-1.8c0.2-0.6,0.4-1.1,0.7-1.5c0.3-0.4,0.7-0.7,1.2-1
		c0.5-0.2,1-0.4,1.6-0.4s1.1,0.1,1.5,0.3s0.8,0.5,1.1,0.8s0.5,0.8,0.7,1.2c0.2,0.5,0.2,1,0.2,1.5c0,0.2,0,0.5,0,0.7
		C90.2,239.7,90.2,240,90.2,240.2z M86.7,236.3c-1.1,0-1.8,0.8-1.8,2.5h3.6v-0.2c0-0.7-0.1-1.2-0.4-1.7
		C87.8,236.5,87.3,236.3,86.7,236.3z"/>
	<path class="st3" d="M94.9,236.7v7.3c-0.2,0-0.5,0.1-0.9,0.1c-0.4,0-0.7,0-0.9-0.1v-6.6c0-0.3-0.1-0.6-0.2-0.7
		c-0.1-0.1-0.3-0.2-0.6-0.2H92c-0.1-0.3-0.1-0.5-0.1-0.7c0-0.2,0-0.4,0.1-0.7c0.4,0,0.8-0.1,1.1-0.1h0.3c0.5,0,0.8,0.1,1.1,0.4
		C94.7,235.8,94.9,236.2,94.9,236.7z M92.6,233.5c-0.1-0.2-0.2-0.5-0.2-0.8c0-0.5,0.1-0.8,0.3-0.9c0.2-0.1,0.5-0.1,0.9-0.2
		c0.5,0,0.8,0.1,0.9,0.2c0.1,0.1,0.2,0.4,0.2,0.8c0,0.4-0.1,0.7-0.2,0.8c-0.1,0.1-0.4,0.2-0.9,0.2C93.2,233.7,92.8,233.6,92.6,233.5
		z"/>
	<path class="st3" d="M102.1,235.1c0.1,0.2,0.1,0.4,0.1,0.7s0,0.5-0.1,0.7l-2.2,0v5.4c0,0.5,0.2,0.8,0.7,0.8h1.2
		c0.1,0.3,0.1,0.5,0.1,0.8s0,0.5,0,0.5c-0.7,0.1-1.4,0.1-2,0.1c-1.3,0-1.9-0.6-1.9-1.9v-5.8l-1.3,0c0-0.2-0.1-0.4-0.1-0.7
		c0-0.2,0-0.5,0.1-0.7l1.3,0v-1.6c0-0.4,0.1-0.7,0.2-0.9s0.4-0.3,0.8-0.3h0.7l0.1,0.1v2.7L102.1,235.1z"/>
	<path class="st3" d="M107,235c0.6,0,1.3,0.2,2,0.6v-4.7l0.1-0.1h0.7c0.4,0,0.6,0.1,0.8,0.3c0.1,0.2,0.2,0.5,0.2,0.9v9.5
		c0,0.8,0.2,1.4,0.5,1.7c0,0.2-0.1,0.3-0.3,0.5c-0.1,0.2-0.3,0.3-0.4,0.4c-0.7-0.1-1.2-0.5-1.4-1.1c-0.7,0.8-1.6,1.2-2.6,1.2
		s-1.8-0.4-2.3-1.2c-0.5-0.8-0.8-2-0.8-3.4c0-0.7,0.1-1.4,0.3-2s0.4-1.1,0.7-1.4c0.3-0.4,0.7-0.7,1.1-0.9
		C106.1,235.1,106.6,235,107,235z M107.1,242.7c0.8,0,1.4-0.4,2-1.1v-4.5c-0.7-0.4-1.3-0.6-1.7-0.6c-0.5,0-1,0.3-1.3,0.8
		c-0.3,0.5-0.5,1.3-0.5,2.4c0,1,0.2,1.8,0.5,2.3S106.7,242.7,107.1,242.7z"/>
	<path class="st3" d="M113.4,236c0.1-0.4,0.3-0.8,0.7-1c0.8,0.2,1.4,0.7,1.6,1.6c0.5-1.1,1.3-1.6,2.4-1.6c0.3,0,0.6,0,1,0.1
		c0,0.7-0.2,1.3-0.5,1.8c-0.1,0-0.4-0.1-0.7-0.1c-0.8,0-1.5,0.5-1.9,1.4v5.9c-0.2,0-0.5,0.1-0.9,0.1c-0.4,0-0.7,0-0.9-0.1v-6.2
		C114.1,237.1,113.9,236.4,113.4,236z"/>
	<path class="st3" d="M120.7,241.3v-4.2c0-0.7-0.1-1.3-0.3-1.6c0.3-0.3,0.7-0.4,1.2-0.4c0.7,0,1,0.4,1,1.2v4.6
		c0,0.6,0.1,1.1,0.2,1.3c0.2,0.3,0.4,0.4,0.8,0.4s0.8-0.1,1.2-0.3c0.4-0.2,0.8-0.5,1.1-0.8v-6.3c0.3,0,0.6-0.1,0.9-0.1
		c0.3,0,0.6,0,1,0.1v6.4c0,0.8,0.2,1.4,0.5,1.7c-0.1,0.4-0.4,0.7-0.7,0.9c-0.8-0.1-1.3-0.6-1.5-1.3c-0.9,0.9-1.9,1.3-3,1.3
		c-0.8,0-1.4-0.3-1.8-0.8S120.7,242.1,120.7,241.3z"/>
	<path class="st3" d="M135.5,238.6v-0.2c0-1.4-0.5-2-1.6-2c-0.6,0-1,0.3-1.3,0.8c-0.3,0.6-0.5,1.4-0.5,2.5c0,2.1,0.7,3.1,2,3.1
		c0.7,0,1.4-0.3,2.2-0.9c0.2,0.1,0.3,0.3,0.5,0.5c0.2,0.2,0.3,0.4,0.3,0.6c-0.9,0.9-2,1.3-3.2,1.3c-0.6,0-1.2-0.1-1.6-0.4
		c-0.5-0.2-0.8-0.6-1.2-1c-0.3-0.4-0.5-0.9-0.7-1.5c-0.2-0.6-0.2-1.2-0.2-1.9c0-0.7,0.1-1.4,0.3-2c0.2-0.6,0.5-1,0.8-1.4
		c0.3-0.4,0.7-0.7,1.2-0.9c0.5-0.2,0.9-0.3,1.4-0.3c0.5,0,1,0.1,1.4,0.2c0.4,0.2,0.7,0.4,1,0.6c0.3,0.3,0.5,0.5,0.6,0.9
		s0.2,0.7,0.2,1c0,0.7-0.3,1-0.9,1C135.9,238.7,135.7,238.6,135.5,238.6z"/>
	<path class="st3" d="M145.3,240.7l0.6,1.5c0.3,0.7,0.6,1.2,0.9,1.4c-0.3,0.4-0.8,0.6-1.2,0.6c-0.3,0-0.6-0.1-0.7-0.2
		c-0.2-0.2-0.3-0.4-0.5-0.8l-0.7-1.8c-0.2-0.5-0.4-0.8-0.6-0.9s-0.5-0.2-0.7-0.2s-0.6,0-1,0v3.8c-0.2,0-0.5,0.1-0.9,0.1
		s-0.7,0-0.9-0.1v-13.1l0.1-0.1h0.7c0.4,0,0.6,0.1,0.8,0.3s0.2,0.5,0.2,0.9v6.7l0.6,0c0.2,0,0.3-0.1,0.4-0.3l1.6-2.5
		c0.3-0.5,0.7-0.8,1.2-0.8c0.5,0,0.8,0,1,0l0.1,0.1l-2,3.1c-0.2,0.3-0.4,0.5-0.6,0.7C144.3,239.3,144.9,239.8,145.3,240.7z"/>
</g>
</svg>
