<?xml version="1.0" encoding="utf-8"?>
<!-- Generator: Adobe Illustrator 22.0.0, SVG Export Plug-In . SVG Version: 6.00 Build 0)  -->
<svg version="1.1" id="Layer_1" xmlns="http://www.w3.org/2000/svg" xmlns:xlink="http://www.w3.org/1999/xlink" x="0px" y="0px"
	 viewBox="0 0 210 90" style="enable-background:new 0 0 210 90;" xml:space="preserve">
<style type="text/css">
	.st0{fill:#005A32;}
	.st1{fill:#4F8367;}
</style>
<g>
	<path class="st0" d="M18.1,63.7c-1.7,0.3-3.5,0-4.8-1c-0.9-0.7-1.6-1.4-1.9-2.1c-0.1,0.1-0.6,0.5-0.8,0.8l-3,2.7L5,62.9l11-9.7
		c1.2-1,1.6-1.7,1.9-2.5l2.7,0.7c-0.1,0.6-0.5,1.4-1.2,2c1.7-0.4,3.5-0.1,4.7,0.8c1.7,1.3,1.7,3.3,0.2,5.3
		C22.9,61.3,20.3,63.2,18.1,63.7z M21.8,55.3c-0.8-0.6-2.3-0.8-4.2-0.1l-4.5,3.9c0.1,0.6,0.6,1.3,1.3,1.8c0.9,0.7,2,0.7,2.8,0.4
		c1.6-0.6,3.6-2.2,4.5-3.5C22.7,56.7,22.7,56,21.8,55.3z"/>
	<path class="st0" d="M33.4,58.3L26.3,66c-0.7,0.8-1,1.1-1.2,1.4c-0.2,0.4-0.2,0.7,0.2,0.9c0.1,0.1,0.3,0.2,0.4,0.2L24.9,70
		c-0.6-0.1-1.2-0.3-1.8-0.7c-1.2-0.7-1.5-1.8-0.9-2.8c0.2-0.3,0.6-0.9,1.1-1.4l7.3-7.9c1.2-1.3,1.9-2.3,2.1-3.1l3,0.7
		C35.6,55.5,34.5,57.1,33.4,58.3z"/>
	<path class="st0" d="M41.9,68.3l-3.1,4.1c-0.9,1.3-1.1,1.9-0.8,2.8l-2.8,0.6c-0.4-0.8-0.3-1.5,0-2.3c-1.3,0.7-2.8,0.9-4.3,0.2
		c-1.8-0.8-2.4-2.6-1.3-5.1c1.2-2.6,3.3-4.6,5.5-5.4c1.8-0.7,3.6-0.6,5.4,0.3c1.3,0.6,2.5,1.5,3.1,2.5
		C43.3,66.5,42.4,67.5,41.9,68.3z M39.4,65.3c-1-0.5-1.8-0.6-3.2,0c-1.6,0.8-3.1,2.8-3.9,4.4c-0.6,1.3-0.4,1.9,0.4,2.3
		c1,0.5,2.7,0,3.8-0.9l3.9-5.1C40.2,65.7,39.8,65.4,39.4,65.3z"/>
	<path class="st0" d="M47.5,79.1c-2.2,2.1-3.5,3.3-4.9,3.7c-1,0.3-2.1,0.4-3.2,0.2l0-2c0.8,0.1,1.7,0,2.4-0.2c1-0.3,1.6-0.8,2.7-1.9
		l-0.8-0.2c0.3-0.9,0.7-2.8,0.9-3.9l1.6-8.6l2.8,0.5l-1.7,7.6c-0.2,0.9-0.6,2.3-0.8,2.8l0,0c0.4-0.5,1.5-1.7,2.5-2.7l5.6-5.6
		l2.9,0.9L47.5,79.1z"/>
	<path class="st1" d="M66.4,73.8c-0.9-0.8-1.8-1.2-2.8-1.4c-1.3-0.2-2.4,0.1-2.5,1.1c-0.1,0.7,0.1,1.2,1.1,1.7l1.4,0.8
		c1.4,0.9,2.3,2,2,3.4c-0.5,2.6-2.9,4.3-6.6,3.6c-1.7-0.3-3.2-1.1-4.4-2.2l1.4-1.8c0.9,0.9,2.3,1.7,3.7,2c1.4,0.2,2.5-0.3,2.7-1.4
		c0.1-0.8-0.2-1.3-1.3-1.9L59.7,77c-1.4-0.8-2.1-1.9-1.8-3.4c0.4-2.2,2.6-3.9,6.2-3.3c1.5,0.3,2.8,1,3.7,1.8L66.4,73.8z"/>
	<path class="st1" d="M76.4,74L74,73.9l-1.9,6.7c-0.1,0.5-0.2,0.9-0.2,1.2c-0.1,0.8,0.3,1.1,1.1,1.1c0.4,0,0.9,0,1.3-0.2l-0.1,1.7
		c-0.9,0.3-1.8,0.4-2.7,0.3c-1.7-0.1-2.6-1.1-2.5-2.3c0-0.5,0.1-1.1,0.3-1.7l2.1-7.1l-1.4-0.1l0.5-1.9l1.4,0.1
		c0.3-1.1,0.7-2.1,1.1-3l3-0.5c-0.4,1.1-1,2.5-1.3,3.7l3,0.2L76.4,74z"/>
	<path class="st1" d="M86.5,74.6c-0.3-0.2-0.5-0.2-0.9-0.2c-0.9,0-1.8,0.7-2.9,2.3L81,84.8l-2.7,0l1.8-8.5c0.4-1.7,0.3-2.7,0.1-3.6
		l2.5-1.1c0.3,0.7,0.4,1.6,0.2,2.5c1.1-1.5,2.5-2.4,3.8-2.4c0.4,0,0.7,0,1,0.2L86.5,74.6z"/>
	<path class="st1" d="M99.5,76.1c-1,1.2-2.9,2-5.7,2.3c-0.8,0.1-1.4,0-1.7,0c0,0.3-0.1,1,0,1.5c0.1,1.7,1.2,2.5,2.7,2.3
		c1.4-0.1,2.6-0.7,3.8-1.8l1.1,1.8c-1.5,1.5-3.1,2.3-5.4,2.5c-2.9,0.3-5.1-1.4-5.3-4.7c-0.2-2.8,0.7-5.9,2.4-7.9
		c1.2-1.4,2.7-2.1,4.5-2.3c2.7-0.2,4.5,0.9,4.7,3.3C100.6,74.3,100.2,75.3,99.5,76.1z M95.6,72.1c-1.6,0.1-2.8,1.5-3.2,4.2
		c0.2,0,0.7,0,1.2,0c1.7-0.1,2.8-0.5,3.4-1.2c0.3-0.4,0.5-0.8,0.5-1.4C97.4,72.7,96.9,72,95.6,72.1z"/>
	<path class="st1" d="M113.5,69.4c-1.4-0.5-2.5-0.6-3.7-0.4c-1.5,0.3-2.6,1.1-2.4,2.3c0.1,0.8,0.6,1.2,1.9,1.5l1.9,0.4
		c1.9,0.4,3.3,1.2,3.6,3c0.5,3.1-1.5,6-5.8,6.8c-2,0.4-4,0.1-5.7-0.6l0.9-2.6c1.4,0.6,3.2,1,4.9,0.7c1.6-0.3,2.7-1.4,2.5-2.7
		c-0.2-0.9-0.8-1.3-2.2-1.6l-1.8-0.3c-1.9-0.4-3.1-1.2-3.4-3.1c-0.5-2.6,1.2-5.5,5.6-6.2c1.8-0.3,3.5-0.1,4.8,0.4L113.5,69.4z"/>
	<path class="st1" d="M127.8,64.6c-1.5-0.4-2.8-0.4-4,0c-1.6,0.5-2.7,1.4-2.3,2.7c0.2,0.8,0.8,1.2,2.2,1.4l2,0.2
		c2.1,0.2,3.7,1,4.2,2.9c0.9,3.2-1,6.6-5.6,7.9c-2.2,0.6-4.3,0.5-6.2,0l0.7-2.9c1.5,0.5,3.5,0.7,5.3,0.2c1.7-0.5,2.7-1.8,2.4-3.1
		c-0.3-1-1-1.3-2.5-1.5l-2-0.2c-2-0.2-3.4-1-4-3c-0.8-2.7,0.8-6,5.3-7.3c1.9-0.5,3.8-0.5,5.2,0L127.8,64.6z"/>
	<path class="st0" d="M145.2,58.3l1.3,7c0.4,2.1,0.9,2.9,2.1,3.4l-2,3.3c-1.1-0.4-1.9-1.1-2.3-2.2c-0.5,2-1.7,3.6-3.8,4.5
		c-2.5,1-4.9,0-6.3-3.4c-1.5-3.6-1.6-7.6-0.4-10.6c1-2.5,2.7-4.2,5.3-5.3c1.8-0.8,3.9-1.1,5.5-0.8C144.7,55.2,145,57,145.2,58.3z
		 M139.9,58c-1.4,0.6-2.3,1.3-2.9,3.3c-0.7,2.3-0.1,5.7,0.8,8c0.7,1.8,1.6,2.2,2.8,1.7c1.5-0.6,2.5-2.7,2.5-4.7l-1.6-8.7
		C141.1,57.6,140.4,57.7,139.9,58z"/>
	<path class="st0" d="M169.8,58.8l-3.1,2l-4.1-5.7c-2.6-3.7-3.5-5.1-3.8-5.9l-0.1,0c0.1,0.3,0.2,0.7,0.3,1.6c0.1,1,0.5,3.6,0.7,5
		l1,8.7l-3.2,2l-10.8-15.2l3.1-2.6l5.1,7.9c1.1,1.7,2.4,4.1,2.4,4.1l0,0c-0.1-0.5-0.6-3-0.8-5.3l-1-9.8l3.3-2.1l5,7.3
		c1.4,2,2.6,4.2,2.7,4.2l0,0c-0.1-0.6-0.7-3.2-0.9-4.9l-1.5-10l3.6-2.2L169.8,58.8z"/>
	<path class="st0" d="M182.2,29.4l4.3,6.8c1.3,2.1,2.2,2.7,3.6,2.8l-0.7,4.3c-1.4,0.1-2.4-0.4-3.3-1.3c0.3,2.4-0.3,4.6-2.2,6.3
		c-2.2,2.1-5.2,2-8.1-1c-3-3.2-4.8-7.4-4.8-11.1c0-3,1.2-5.6,3.5-7.8c1.6-1.6,3.6-2.8,5.5-3.1C180.5,26.3,181.5,28.1,182.2,29.4z
		 M176.5,31.2c-1.3,1.2-1.9,2.4-1.8,4.7c0.2,2.8,2.3,6.1,4.2,8.1c1.5,1.6,2.6,1.7,3.6,0.7c1.3-1.2,1.5-3.9,0.8-6l-5.2-8.5
		C177.6,30.3,176.9,30.8,176.5,31.2z"/>
	<path class="st0" d="M201.5,25.5c2.2,4.4,3.5,7.2,3.5,9.6c0,1.7-0.4,3.5-1.2,5.1l-3.1-1c0.5-1.1,0.8-2.8,0.8-3.9
		c0-1.7-0.5-2.9-1.8-5.1l-0.7,1.2c-1.2-0.9-4-2.5-5.8-3.3l-12.8-6.6l2.1-4.3l11.2,6.3c1.4,0.8,3.3,2.1,4,2.6l0,0
		c-0.7-1-2-3.1-3.1-5.2l-6.2-11.6l2.8-4.1L201.5,25.5z"/>
</g>
</svg>
