<?xml version="1.0" encoding="utf-8"?>
<!-- Generator: Adobe Illustrator 22.0.0, SVG Export Plug-In . SVG Version: 6.00 Build 0)  -->
<svg version="1.1" id="Layer_1" xmlns="http://www.w3.org/2000/svg" xmlns:xlink="http://www.w3.org/1999/xlink" x="0px" y="0px"
	 viewBox="0 0 360 360" style="enable-background:new 0 0 360 360;" xml:space="preserve">
<style type="text/css">
	.st0{opacity:0.2;}
	.st1{fill:url(#SVGID_1_);}
	.st2{fill:none;stroke:url(#SVGID_2_);stroke-width:0.9576;stroke-miterlimit:10;}
	.st3{opacity:0.6;}
	.st4{fill:#006AEA;}
	.st5{fill:url(#SVGID_3_);}
	.st6{fill:none;stroke:url(#SVGID_4_);stroke-width:0.9576;stroke-miterlimit:10;}
	.st7{fill:url(#SVGID_5_);}
	.st8{fill:url(#SVGID_6_);}
	.st9{fill:none;stroke:url(#SVGID_7_);stroke-width:0.9576;stroke-miterlimit:10;}
	.st10{fill:url(#SVGID_8_);}
	.st11{fill:none;stroke:url(#SVGID_9_);stroke-width:0.9576;stroke-miterlimit:10;}
	.st12{fill:url(#SVGID_10_);}
	.st13{fill:none;stroke:url(#SVGID_11_);stroke-width:0.9576;stroke-miterlimit:10;}
	.st14{fill:url(#SVGID_12_);}
	.st15{fill:none;stroke:url(#SVGID_13_);stroke-width:0.9576;stroke-miterlimit:10;}
	.st16{fill:url(#SVGID_14_);}
	.st17{fill:none;stroke:url(#SVGID_15_);stroke-width:0.9576;stroke-miterlimit:10;}
	.st18{fill:url(#SVGID_16_);}
	.st19{fill:none;stroke:url(#SVGID_17_);stroke-width:0.9576;stroke-miterlimit:10;}
	.st20{fill:none;stroke:#FFFFFF;stroke-width:0.9576;stroke-linecap:round;stroke-linejoin:round;stroke-miterlimit:10;}
	
		.st21{fill:none;stroke:#FFFFFF;stroke-width:0.9576;stroke-linecap:round;stroke-linejoin:round;stroke-miterlimit:10;stroke-dasharray:0.8236,2.4708;}
	.st22{fill:none;stroke:#FFFFFF;stroke-width:0.9576;stroke-linejoin:round;stroke-miterlimit:10;}
	.st23{fill:none;stroke:#FFFFFF;stroke-width:0.9576;stroke-miterlimit:10;}
</style>
<g class="st0">
	
		<linearGradient id="SVGID_1_" gradientUnits="userSpaceOnUse" x1="18.4979" y1="197.55" x2="99.6021" y2="197.55" gradientTransform="matrix(1 0 0 -1 0 360)">
		<stop  offset="0" style="stop-color:#005AFF"/>
		<stop  offset="1" style="stop-color:#005AFF;stop-opacity:0.9"/>
	</linearGradient>
	<path class="st1" d="M95,152c-1-3.4,0.5-7.7-1.2-10.6c-1.8-3-6.3-3.7-8.8-6c-2.5-2.4-3.4-6.9-6.4-8.5c-3-1.6-7.3,0-10.6-0.8
		c-3.3-0.8-6.3-4.3-9.8-4.2c-3.3,0.1-6.3,3.6-9.6,4.6c-3.4,1-7.7-0.5-10.6,1.2c-3,1.8-3.7,6.3-6,8.8c-2.4,2.5-6.9,3.4-8.5,6.4
		s0,7.3-0.8,10.6s-4.3,6.3-4.2,9.8c0.1,3.3,3.6,6.3,4.6,9.6c1,3.4-0.5,7.7,1.2,10.6c1.8,3,6.3,3.7,8.8,6c2.5,2.4,3.4,6.9,6.4,8.5
		s7.3,0,10.6,0.8c3.3,0.8,6.3,4.3,9.8,4.2c3.3-0.1,6.3-3.6,9.6-4.6c3.4-1,7.7,0.5,10.6-1.2c3-1.8,3.7-6.3,6-8.8
		c2.4-2.5,6.9-3.4,8.5-6.4s0-7.3,0.8-10.6s4.3-6.3,4.2-9.8C99.5,158.3,96,155.4,95,152z"/>
	
		<linearGradient id="SVGID_2_" gradientUnits="userSpaceOnUse" x1="18.0191" y1="197.55" x2="100.0809" y2="197.55" gradientTransform="matrix(1 0 0 -1 0 360)">
		<stop  offset="0" style="stop-color:#005AFF"/>
		<stop  offset="1" style="stop-color:#005AFF;stop-opacity:0.9"/>
	</linearGradient>
	<path class="st2" d="M95,152c-1-3.4,0.5-7.7-1.2-10.6c-1.8-3-6.3-3.7-8.8-6c-2.5-2.4-3.4-6.9-6.4-8.5c-3-1.6-7.3,0-10.6-0.8
		c-3.3-0.8-6.3-4.3-9.8-4.2c-3.3,0.1-6.3,3.6-9.6,4.6c-3.4,1-7.7-0.5-10.6,1.2c-3,1.8-3.7,6.3-6,8.8c-2.4,2.5-6.9,3.4-8.5,6.4
		s0,7.3-0.8,10.6s-4.3,6.3-4.2,9.8c0.1,3.3,3.6,6.3,4.6,9.6c1,3.4-0.5,7.7,1.2,10.6c1.8,3,6.3,3.7,8.8,6c2.5,2.4,3.4,6.9,6.4,8.5
		s7.3,0,10.6,0.8c3.3,0.8,6.3,4.3,9.8,4.2c3.3-0.1,6.3-3.6,9.6-4.6c3.4-1,7.7,0.5,10.6-1.2c3-1.8,3.7-6.3,6-8.8
		c2.4-2.5,6.9-3.4,8.5-6.4s0-7.3,0.8-10.6s4.3-6.3,4.2-9.8C99.5,158.3,96,155.4,95,152z"/>
</g>
<g class="st3">
	<path d="M150.1,175.2c-0.2,0.1-0.4,0.3-0.6,0.4s-0.5,0.2-0.8,0.3s-0.5,0.1-0.8,0.2c-0.3,0-0.5,0.1-0.7,0.1s-0.6,0-1.3,0
		c-0.6,0-1.5,0-2.5-0.1l-0.1-0.1v-12.2l0.1-0.1c1.1,0,2.3-0.1,3.7-0.1c0.9,0,1.7,0.2,2.4,0.5s1.1,0.8,1.5,1.3c0.4,0.6,0.7,1.2,0.8,2
		c0.2,0.8,0.2,1.6,0.2,2.5c0,0.6,0,1.2-0.1,1.7s-0.2,1-0.3,1.4s-0.3,0.8-0.6,1.2S150.4,174.9,150.1,175.2z M144.6,174.9h2.4
		c0.7,0,1.3-0.1,1.7-0.4c0.4-0.3,0.8-0.6,1.1-1.1s0.4-1,0.5-1.5s0.2-1.1,0.2-1.7c0-0.8,0-1.6-0.1-2.2c-0.1-0.7-0.3-1.3-0.5-1.8
		c-0.3-0.5-0.6-0.9-1.1-1.2s-1-0.4-1.7-0.4h-2.4L144.6,174.9L144.6,174.9z"/>
	<path d="M156.1,168.3v7.7c-0.2,0-0.4,0.1-0.7,0.1s-0.5,0-0.7-0.1v-7c0-0.3-0.1-0.6-0.2-0.7c-0.1-0.1-0.3-0.2-0.6-0.2h-0.2
		c0-0.1-0.1-0.3-0.1-0.5s0-0.4,0.1-0.5c0.2,0,0.4,0,0.6-0.1s0.3,0,0.3,0h0.1c0.4,0,0.7,0.1,0.9,0.4
		C156,167.6,156.1,167.9,156.1,168.3z M154.3,164c0.2-0.1,0.5-0.2,0.8-0.2c0.4,0,0.6,0.1,0.7,0.2c0.1,0.1,0.2,0.3,0.2,0.7
		s-0.1,0.6-0.2,0.7s-0.4,0.2-0.7,0.2s-0.5,0-0.7-0.1s-0.3-0.3-0.3-0.7C154.2,164.4,154.3,164.2,154.3,164z"/>
	<path d="M165.7,172h-5.6c0.1,2.1,0.8,3.1,2.3,3.1c0.8,0,1.7-0.3,2.6-0.8c0.3,0.2,0.4,0.6,0.5,0.9c-1,0.7-2.1,1-3.3,1
		c-0.6,0-1.2-0.1-1.6-0.4c-0.4-0.2-0.8-0.6-1.1-1s-0.5-0.9-0.6-1.5s-0.2-1.2-0.2-1.9s0.1-1.3,0.2-1.9c0.2-0.6,0.4-1.1,0.7-1.5
		s0.7-0.7,1.1-1s0.9-0.3,1.5-0.3s1.1,0.1,1.5,0.3s0.8,0.5,1.1,0.8s0.5,0.8,0.7,1.2c0.2,0.5,0.2,1,0.2,1.5c0,0.2,0,0.4,0,0.6
		S165.7,171.8,165.7,172z M160.1,170.9h4.3v-0.2c0-0.8-0.2-1.5-0.5-2c-0.4-0.5-0.9-0.8-1.6-0.8c-0.7,0-1.2,0.3-1.6,0.8
		C160.3,169.3,160.1,170,160.1,170.9z"/>
	<path d="M171.5,174.9c0-0.4,0.2-0.8,0.6-1.1c1.2,0.8,2.5,1.3,3.6,1.3c0.9,0,1.5-0.2,2-0.5c0.5-0.4,0.7-0.9,0.7-1.5
		c0-0.9-0.6-1.7-1.9-2.3l-2.1-0.9c-1.6-0.7-2.5-1.7-2.5-3.1c0-0.5,0.1-0.9,0.3-1.3c0.2-0.4,0.5-0.8,0.8-1.1s0.8-0.5,1.2-0.7
		c0.5-0.2,1-0.3,1.6-0.3c1.2,0,2.4,0.3,3.6,0.9c0,0.5-0.2,0.9-0.6,1.2c-0.6-0.3-1.1-0.5-1.6-0.7s-1-0.2-1.4-0.2s-0.7,0.1-1,0.2
		c-0.3,0.1-0.6,0.3-0.8,0.4c-0.2,0.2-0.4,0.4-0.5,0.6c-0.1,0.2-0.2,0.5-0.2,0.7c0,0.5,0.2,0.9,0.5,1.2s0.7,0.6,1.3,0.8l2.1,0.9
		c1.8,0.8,2.7,1.9,2.7,3.3c0,1.1-0.4,1.9-1.1,2.5c-0.7,0.6-1.8,1-3.3,1C174.2,176.2,172.8,175.8,171.5,174.9z"/>
	<path d="M184,168.3v7.7c-0.2,0-0.4,0.1-0.7,0.1s-0.5,0-0.7-0.1v-7c0-0.3-0.1-0.6-0.2-0.7c-0.1-0.1-0.3-0.2-0.6-0.2h-0.2
		c0-0.1-0.1-0.3-0.1-0.5s0-0.4,0.1-0.5c0.2,0,0.4,0,0.6-0.1c0.1,0,0.3,0,0.3,0h0.1c0.4,0,0.7,0.1,0.9,0.4
		C183.9,167.6,184,167.9,184,168.3z M182.2,164c0.2-0.1,0.5-0.2,0.8-0.2c0.4,0,0.6,0.1,0.7,0.2c0.1,0.1,0.2,0.3,0.2,0.7
		s-0.1,0.6-0.2,0.7s-0.4,0.2-0.7,0.2s-0.5,0-0.7-0.1s-0.3-0.3-0.3-0.7C182.1,164.4,182.2,164.2,182.2,164z"/>
	<path d="M194,169.8v4.5c0,0.7,0.1,1.2,0.2,1.5c-0.2,0.2-0.5,0.3-0.9,0.3c-0.5,0-0.7-0.3-0.7-0.9v-5c0-0.7-0.1-1.3-0.3-1.6
		s-0.5-0.5-1-0.5s-1,0.1-1.5,0.4c-0.5,0.3-1,0.6-1.3,1v6.5c-0.2,0-0.4,0.1-0.7,0.1s-0.5,0-0.7-0.1v-8.9l0.1-0.1h0.5
		c0.3,0,0.5,0.1,0.6,0.2c0.1,0.2,0.1,0.4,0.1,0.7v0.3c0.4-0.4,0.9-0.7,1.5-0.9s1.1-0.4,1.7-0.4c0.8,0,1.4,0.3,1.8,0.8
		S194,168.9,194,169.8z"/>
	<path d="M203.9,169.8v4.5c0,0.7,0.1,1.2,0.2,1.5c-0.2,0.2-0.5,0.3-0.9,0.3c-0.5,0-0.7-0.3-0.7-0.9v-5c0-0.7-0.1-1.3-0.3-1.6
		s-0.5-0.5-1-0.5s-1,0.1-1.5,0.4c-0.5,0.3-1,0.6-1.3,1v6.5c-0.2,0-0.4,0.1-0.7,0.1s-0.5,0-0.7-0.1v-8.9l0.1-0.1h0.5
		c0.3,0,0.5,0.1,0.6,0.2c0.1,0.2,0.1,0.4,0.1,0.7v0.3c0.4-0.4,0.9-0.7,1.5-0.9s1.1-0.4,1.7-0.4c0.8,0,1.4,0.3,1.8,0.8
		S203.9,168.9,203.9,169.8z"/>
	<path d="M213.4,172h-5.6c0.1,2.1,0.8,3.1,2.3,3.1c0.8,0,1.7-0.3,2.6-0.8c0.3,0.2,0.4,0.6,0.5,0.9c-1,0.7-2.1,1-3.3,1
		c-0.6,0-1.2-0.1-1.6-0.4c-0.4-0.2-0.8-0.6-1.1-1s-0.5-0.9-0.6-1.5s-0.2-1.2-0.2-1.9s0.1-1.3,0.2-1.9c0.2-0.6,0.4-1.1,0.7-1.5
		s0.7-0.7,1.1-1c0.4-0.2,0.9-0.3,1.5-0.3s1.1,0.1,1.5,0.3s0.8,0.5,1.1,0.8s0.5,0.8,0.7,1.2c0.2,0.5,0.2,1,0.2,1.5c0,0.2,0,0.4,0,0.6
		C213.5,171.6,213.5,171.8,213.4,172z M207.8,170.9h4.3v-0.2c0-0.8-0.2-1.5-0.5-2s-0.9-0.8-1.6-0.8c-0.7,0-1.2,0.3-1.6,0.8
		C208.1,169.3,207.8,170,207.8,170.9z"/>
	<path d="M129.6,188.8c0.7,0,1.5,0.2,2.3,0.7v-4.9l0.1-0.1h0.5c0.3,0,0.5,0.1,0.6,0.2s0.1,0.4,0.1,0.7v10c0,1,0.2,1.6,0.5,1.9
		c-0.1,0.3-0.3,0.6-0.6,0.7c-0.6-0.2-0.9-0.6-1.1-1.2c-0.8,0.9-1.6,1.3-2.7,1.3c-1.1,0-1.8-0.4-2.4-1.2c-0.5-0.8-0.8-2-0.8-3.4
		c0-0.7,0.1-1.4,0.3-2c0.2-0.6,0.4-1.1,0.8-1.5c0.3-0.4,0.7-0.7,1.1-0.9C128.7,188.9,129.1,188.8,129.6,188.8z M129.5,196.9
		c0.4,0,0.8-0.1,1.3-0.4s0.8-0.6,1.1-1v-4.8c-0.8-0.5-1.5-0.8-2.1-0.8s-1.1,0.3-1.6,0.9c-0.4,0.6-0.6,1.5-0.6,2.7s0.2,2.1,0.6,2.6
		C128.5,196.7,129,196.9,129.5,196.9z"/>
	<path d="M142.8,193.8h-5.6c0.1,2.1,0.8,3.1,2.3,3.1c0.8,0,1.7-0.3,2.6-0.8c0.3,0.2,0.4,0.6,0.5,0.9c-1,0.7-2.1,1-3.3,1
		c-0.6,0-1.2-0.1-1.6-0.4s-0.8-0.6-1.1-1s-0.5-0.9-0.6-1.5s-0.2-1.2-0.2-1.9s0.1-1.3,0.2-1.9c0.2-0.6,0.4-1.1,0.7-1.5s0.7-0.7,1.1-1
		s0.9-0.3,1.5-0.3s1.1,0.1,1.5,0.3s0.8,0.5,1.1,0.8s0.5,0.8,0.7,1.2c0.2,0.5,0.2,1,0.2,1.5c0,0.2,0,0.4,0,0.6
		C142.9,193.4,142.8,193.6,142.8,193.8z M137.2,192.8h4.3v-0.2c0-0.8-0.2-1.5-0.5-2c-0.4-0.5-0.9-0.8-1.6-0.8
		c-0.7,0-1.2,0.3-1.6,0.8S137.2,191.8,137.2,192.8z"/>
	<path d="M144.6,197.2c0-0.4,0.2-0.7,0.5-1c0.5,0.3,1,0.5,1.5,0.7s0.8,0.2,1.2,0.2c0.3,0,0.6,0,0.8-0.1s0.4-0.2,0.6-0.3
		c0.2-0.1,0.3-0.3,0.4-0.4c0.1-0.2,0.1-0.3,0.1-0.5c0-0.4-0.1-0.7-0.3-0.9s-0.6-0.5-1-0.6l-1-0.4c-0.8-0.3-1.4-0.7-1.8-1.1
		c-0.4-0.4-0.6-0.9-0.6-1.5c0-0.4,0.1-0.7,0.2-1c0.2-0.3,0.4-0.6,0.7-0.8s0.6-0.4,1-0.5s0.8-0.2,1.2-0.2c0.9,0,1.8,0.2,2.7,0.6
		c0,0.4-0.1,0.8-0.4,1.1c-0.5-0.2-0.9-0.4-1.3-0.4c-0.4-0.1-0.7-0.1-1-0.1c-0.6,0-1,0.1-1.3,0.4s-0.4,0.5-0.4,0.9s0.1,0.6,0.3,0.8
		s0.6,0.4,1,0.6l1.1,0.4c1.5,0.6,2.3,1.5,2.3,2.6c0,0.8-0.3,1.4-0.9,1.9c-0.6,0.4-1.5,0.7-2.5,0.7
		C146.6,198.1,145.6,197.8,144.6,197.2z"/>
	<path d="M157.4,197.8l1-12.4c0.2,0,0.5-0.1,0.9-0.1s0.7,0,0.9,0.1l2.1,6.4c0.1,0.3,0.3,0.8,0.4,1.5c0.2,0.7,0.3,1.1,0.3,1.2h0.1
		c0.2-0.8,0.4-1.7,0.7-2.7l2.1-6.4c0.3,0,0.6-0.1,0.9-0.1s0.7,0,0.9,0.1l1,12.4c-0.2,0.1-0.4,0.1-0.7,0.1c-0.2,0-0.5,0-0.7-0.1
		l-0.5-7.5c0-0.5-0.1-1.7-0.1-3.4h-0.1l-2.9,9c-0.3,0-0.5,0.1-0.7,0.1s-0.4,0-0.7-0.1l-2.9-9h-0.1c0,0.3,0,0.9-0.1,1.7
		c0,0.8-0.1,1.4-0.1,1.7l-0.5,7.5c-0.2,0-0.5,0.1-0.7,0.1S157.6,197.9,157.4,197.8z"/>
	<path d="M178.3,193.8h-5.6c0.1,2.1,0.8,3.1,2.3,3.1c0.8,0,1.7-0.3,2.6-0.8c0.3,0.2,0.4,0.6,0.5,0.9c-1,0.7-2.1,1-3.3,1
		c-0.6,0-1.2-0.1-1.6-0.4s-0.8-0.6-1.1-1s-0.5-0.9-0.6-1.5s-0.2-1.2-0.2-1.9s0.1-1.3,0.2-1.9c0.2-0.6,0.4-1.1,0.7-1.5s0.7-0.7,1.1-1
		s0.9-0.3,1.5-0.3s1.1,0.1,1.5,0.3s0.8,0.5,1.1,0.8s0.5,0.8,0.7,1.2c0.2,0.5,0.2,1,0.2,1.5c0,0.2,0,0.4,0,0.6
		C178.3,193.4,178.3,193.6,178.3,193.8z M172.7,192.8h4.3v-0.2c0-0.8-0.2-1.5-0.5-2c-0.4-0.5-0.9-0.8-1.6-0.8
		c-0.7,0-1.2,0.3-1.6,0.8S172.7,191.8,172.7,192.8z"/>
	<path d="M187.9,191.6v4.5c0,0.7,0.1,1.2,0.2,1.5c-0.2,0.2-0.5,0.3-0.9,0.3c-0.5,0-0.7-0.3-0.7-0.9v-5c0-0.7-0.1-1.3-0.3-1.6
		s-0.5-0.5-1-0.5s-1,0.1-1.5,0.4c-0.5,0.3-1,0.6-1.3,1v6.5c-0.2,0-0.4,0.1-0.7,0.1s-0.5,0-0.7-0.1V189l0.1-0.1h0.5
		c0.3,0,0.5,0.1,0.6,0.2c0.1,0.2,0.1,0.4,0.1,0.7v0.3c0.4-0.4,0.9-0.7,1.5-0.9s1.1-0.4,1.7-0.4c0.8,0,1.4,0.3,1.8,0.8
		S187.9,190.8,187.9,191.6z"/>
	<path d="M190,197.2c0-0.4,0.2-0.7,0.5-1c0.5,0.3,1,0.5,1.5,0.7c0.4,0.1,0.8,0.2,1.2,0.2c0.3,0,0.6,0,0.8-0.1s0.4-0.2,0.6-0.3
		c0.2-0.1,0.3-0.3,0.4-0.4c0.1-0.2,0.1-0.3,0.1-0.5c0-0.4-0.1-0.7-0.3-0.9s-0.6-0.5-1-0.6l-1-0.4c-0.8-0.3-1.4-0.7-1.8-1.1
		s-0.6-0.9-0.6-1.5c0-0.4,0.1-0.7,0.2-1c0.2-0.3,0.4-0.6,0.7-0.8s0.6-0.4,1-0.5s0.8-0.2,1.2-0.2c0.9,0,1.8,0.2,2.7,0.6
		c0,0.4-0.1,0.8-0.4,1.1c-0.5-0.2-0.9-0.4-1.3-0.4c-0.4-0.1-0.7-0.1-1-0.1c-0.6,0-1,0.1-1.3,0.4c-0.3,0.3-0.4,0.5-0.4,0.9
		s0.1,0.6,0.3,0.8s0.6,0.4,1,0.6l1.1,0.4c1.5,0.6,2.3,1.5,2.3,2.6c0,0.8-0.3,1.4-0.9,1.9c-0.6,0.4-1.5,0.7-2.5,0.7
		C192,198.1,191,197.8,190,197.2z"/>
	<path d="M203.7,192.1v-0.2c0-0.3,0-0.5-0.1-0.8s-0.2-0.5-0.3-0.7s-0.3-0.3-0.6-0.5c-0.2-0.1-0.5-0.2-0.9-0.2
		c-0.7,0-1.2,0.3-1.6,0.9c-0.4,0.6-0.6,1.5-0.6,2.7s0.2,2,0.6,2.6c0.4,0.6,0.9,0.9,1.6,0.9c0.7,0,1.5-0.3,2.5-1
		c0.3,0.2,0.5,0.5,0.6,0.9c-0.9,0.9-2,1.3-3.1,1.3c-0.6,0-1.1-0.1-1.5-0.3s-0.8-0.5-1.1-0.9s-0.5-0.9-0.7-1.4s-0.2-1.1-0.2-1.7
		c0-0.8,0.1-1.6,0.3-2.2c0.2-0.6,0.4-1.1,0.8-1.5c0.3-0.4,0.7-0.7,1.2-0.9c0.4-0.2,0.9-0.3,1.4-0.3s1,0.1,1.4,0.2
		c0.4,0.2,0.7,0.4,1,0.6s0.5,0.5,0.6,0.8s0.2,0.6,0.2,0.9c0,0.6-0.2,0.9-0.7,0.9C204.1,192.1,203.9,192.1,203.7,192.1z"/>
	<path d="M214.2,191.6v4.5c0,0.7,0.1,1.2,0.2,1.5c-0.2,0.2-0.5,0.3-0.9,0.3c-0.5,0-0.7-0.3-0.7-0.9v-5c0-0.7-0.1-1.3-0.3-1.6
		s-0.5-0.5-1-0.5s-1,0.1-1.5,0.4s-1,0.6-1.3,1v6.4c-0.2,0-0.4,0.1-0.7,0.1s-0.5,0-0.7-0.1v-13.3l0.1-0.1h0.5c0.3,0,0.5,0.1,0.6,0.2
		c0.1,0.1,0.1,0.4,0.1,0.7v4.7c0.4-0.4,0.9-0.7,1.5-0.9s1.1-0.4,1.7-0.4c0.8,0,1.4,0.3,1.8,0.8S214.2,190.8,214.2,191.6z"/>
	<path d="M223.7,193.8H218c0.1,2.1,0.8,3.1,2.3,3.1c0.8,0,1.7-0.3,2.6-0.8c0.3,0.2,0.4,0.6,0.5,0.9c-1,0.7-2.1,1-3.3,1
		c-0.6,0-1.2-0.1-1.6-0.4c-0.4-0.2-0.8-0.6-1.1-1s-0.5-0.9-0.6-1.5s-0.2-1.2-0.2-1.9s0.1-1.3,0.2-1.9c0.2-0.6,0.4-1.1,0.7-1.5
		s0.7-0.7,1.1-1c0.4-0.2,0.9-0.3,1.5-0.3s1.1,0.1,1.5,0.3s0.8,0.5,1.1,0.8s0.5,0.8,0.7,1.2c0.2,0.5,0.2,1,0.2,1.5c0,0.2,0,0.4,0,0.6
		C223.7,193.4,223.7,193.6,223.7,193.8z M218,192.8h4.3v-0.2c0-0.8-0.2-1.5-0.5-2s-0.9-0.8-1.6-0.8c-0.7,0-1.2,0.3-1.6,0.8
		C218.3,191.1,218.1,191.8,218,192.8z"/>
	<path d="M233.3,191.6v4.5c0,0.7,0.1,1.2,0.2,1.5c-0.2,0.2-0.5,0.3-0.9,0.3c-0.5,0-0.7-0.3-0.7-0.9v-5c0-0.7-0.1-1.3-0.3-1.6
		s-0.5-0.5-1-0.5s-1,0.1-1.5,0.4c-0.5,0.3-1,0.6-1.3,1v6.5c-0.2,0-0.4,0.1-0.7,0.1s-0.5,0-0.7-0.1V189l0.1-0.1h0.5
		c0.3,0,0.5,0.1,0.6,0.2c0.1,0.2,0.1,0.4,0.1,0.7v0.3c0.4-0.4,0.9-0.7,1.5-0.9s1.1-0.4,1.7-0.4c0.8,0,1.4,0.3,1.8,0.8
		S233.3,190.8,233.3,191.6z"/>
</g>
<g class="st3">
	<path class="st4" d="M93.4,162.4c0-3.2,2.4-6.7,1.6-9.7c-0.8-3.1-4.7-4.9-6.2-7.6c-1.6-2.7-1.2-6.9-3.4-9.2
		c-2.2-2.2-6.4-1.9-9.2-3.4c-2.7-1.6-4.5-5.4-7.6-6.2c-3-0.8-6.4,1.6-9.7,1.6c-3.2,0-6.7-2.4-9.7-1.6c-3.1,0.8-4.9,4.7-7.6,6.2
		c-2.7,1.6-6.9,1.2-9.2,3.4c-2.2,2.2-1.9,6.4-3.4,9.2c-1.6,2.7-5.4,4.5-6.2,7.6c-0.8,3,1.6,6.4,1.6,9.7c0,3.2-2.4,6.7-1.6,9.7
		c0.8,3.1,4.7,4.9,6.2,7.6c1.6,2.7,1.2,6.9,3.4,9.2c2.2,2.2,6.4,1.9,9.2,3.4c2.7,1.6,4.5,5.4,7.6,6.2c3,0.8,6.4-1.6,9.7-1.6
		c3.2,0,6.7,2.4,9.7,1.6c3.1-0.8,4.9-4.7,7.6-6.2c2.7-1.6,6.9-1.2,9.2-3.4c2.2-2.2,1.9-6.4,3.4-9.2c1.6-2.7,5.4-4.5,6.2-7.6
		C95.8,169.1,93.4,165.6,93.4,162.4z"/>
</g>
<g class="st0">
	
		<linearGradient id="SVGID_3_" gradientUnits="userSpaceOnUse" x1="60.7156" y1="269.95" x2="141.8198" y2="269.95" gradientTransform="matrix(1 0 0 -1 0 360)">
		<stop  offset="0" style="stop-color:#005AFF"/>
		<stop  offset="1" style="stop-color:#005AFF;stop-opacity:0.9"/>
	</linearGradient>
	<path class="st5" d="M137.3,79.6c-1-3.4,0.5-7.7-1.2-10.6c-1.8-3-6.3-3.7-8.8-6c-2.5-2.4-3.4-6.9-6.4-8.5s-7.3,0-10.6-0.8
		c-3.3-0.8-6.3-4.3-9.8-4.2c-3.3,0.1-6.3,3.6-9.6,4.6c-3.4,1-7.7-0.5-10.6,1.2c-3,1.8-3.7,6.3-6,8.8c-2.4,2.5-6.9,3.4-8.5,6.4
		s0,7.3-0.8,10.6c-0.8,3.3-4.3,6.3-4.2,9.8c0.1,3.3,3.6,6.3,4.6,9.6c1,3.4-0.5,7.7,1.2,10.6c1.8,3,6.3,3.7,8.8,6
		c2.5,2.4,3.4,6.9,6.4,8.5s7.3,0,10.6,0.8c3.3,0.8,6.3,4.3,9.8,4.2c3.3-0.1,6.3-3.6,9.6-4.6c3.4-1,7.7,0.5,10.6-1.2
		c3-1.8,3.7-6.3,6-8.8c2.4-2.5,6.9-3.4,8.5-6.4s0-7.3,0.8-10.6c0.8-3.3,4.3-6.3,4.2-9.8C141.8,85.8,138.3,82.9,137.3,79.6z"/>
	
		<linearGradient id="SVGID_4_" gradientUnits="userSpaceOnUse" x1="60.2368" y1="269.95" x2="142.2986" y2="269.95" gradientTransform="matrix(1 0 0 -1 0 360)">
		<stop  offset="0" style="stop-color:#005AFF"/>
		<stop  offset="1" style="stop-color:#005AFF;stop-opacity:0.9"/>
	</linearGradient>
	<path class="st6" d="M137.3,79.6c-1-3.4,0.5-7.7-1.2-10.6c-1.8-3-6.3-3.7-8.8-6c-2.5-2.4-3.4-6.9-6.4-8.5s-7.3,0-10.6-0.8
		c-3.3-0.8-6.3-4.3-9.8-4.2c-3.3,0.1-6.3,3.6-9.6,4.6c-3.4,1-7.7-0.5-10.6,1.2c-3,1.8-3.7,6.3-6,8.8c-2.4,2.5-6.9,3.4-8.5,6.4
		s0,7.3-0.8,10.6c-0.8,3.3-4.3,6.3-4.2,9.8c0.1,3.3,3.6,6.3,4.6,9.6c1,3.4-0.5,7.7,1.2,10.6c1.8,3,6.3,3.7,8.8,6
		c2.5,2.4,3.4,6.9,6.4,8.5s7.3,0,10.6,0.8c3.3,0.8,6.3,4.3,9.8,4.2c3.3-0.1,6.3-3.6,9.6-4.6c3.4-1,7.7,0.5,10.6-1.2
		c3-1.8,3.7-6.3,6-8.8c2.4-2.5,6.9-3.4,8.5-6.4s0-7.3,0.8-10.6c0.8-3.3,4.3-6.3,4.2-9.8C141.8,85.8,138.3,82.9,137.3,79.6z"/>
</g>
<g class="st3">
	<path class="st4" d="M135.7,89.9c0-3.2,2.4-6.7,1.6-9.7c-0.8-3.1-4.7-4.9-6.2-7.6c-1.6-2.7-1.2-6.9-3.4-9.2
		c-2.2-2.2-6.4-1.9-9.2-3.4c-2.7-1.6-4.5-5.4-7.6-6.2c-3-0.8-6.4,1.6-9.7,1.6c-3.2,0-6.7-2.4-9.7-1.6c-3.1,0.8-4.9,4.7-7.6,6.2
		c-2.7,1.6-6.9,1.2-9.2,3.4c-2.2,2.2-1.9,6.4-3.4,9.2c-1.6,2.7-5.4,4.5-6.2,7.6c-0.8,3,1.6,6.4,1.6,9.7c0,3.2-2.4,6.7-1.6,9.7
		c0.8,3.1,4.7,4.9,6.2,7.6c1.6,2.7,1.2,6.9,3.4,9.2c2.2,2.2,6.4,1.9,9.2,3.4c2.7,1.6,4.5,5.4,7.6,6.2c3,0.8,6.4-1.6,9.7-1.6
		c3.2,0,6.7,2.4,9.7,1.6c3.1-0.8,4.9-4.7,7.6-6.2c2.7-1.6,6.9-1.2,9.2-3.4c2.2-2.2,1.9-6.4,3.4-9.2c1.6-2.7,5.4-4.5,6.2-7.6
		C138.1,96.6,135.7,93.1,135.7,89.9z"/>
</g>
<g class="st0">
	
		<linearGradient id="SVGID_5_" gradientUnits="userSpaceOnUse" x1="139.4979" y1="298.95" x2="220.6021" y2="298.95" gradientTransform="matrix(1 0 0 -1 0 360)">
		<stop  offset="0" style="stop-color:#005AFF"/>
		<stop  offset="1" style="stop-color:#005AFF;stop-opacity:0.9"/>
	</linearGradient>
	<path class="st7" d="M216,50.6c-1-3.4,0.5-7.7-1.2-10.6c-1.8-3-6.3-3.7-8.8-6c-2.5-2.4-3.4-6.9-6.4-8.5s-7.3,0-10.6-0.8
		s-6.3-4.3-9.8-4.2c-3.3,0.1-6.3,3.6-9.6,4.6c-3.4,1-7.7-0.5-10.6,1.2c-3,1.8-3.7,6.3-6,8.8c-2.4,2.5-6.9,3.4-8.5,6.4
		s0,7.3-0.8,10.6c-0.8,3.3-4.3,6.3-4.2,9.8c0.1,3.3,3.6,6.3,4.6,9.6c1,3.4-0.5,7.7,1.2,10.6c1.8,3,6.3,3.7,8.8,6
		c2.5,2.4,3.4,6.9,6.4,8.5s7.3,0,10.6,0.8s6.3,4.3,9.8,4.2c3.3-0.1,6.3-3.6,9.6-4.6c3.4-1,7.7,0.5,10.6-1.2c3-1.8,3.7-6.3,6-8.8
		c2.4-2.5,6.9-3.4,8.5-6.4s0-7.3,0.8-10.6c0.8-3.3,4.3-6.3,4.2-9.8C220.5,56.9,217,54,216,50.6z"/>
</g>
<g class="st3">
	<path class="st4" d="M214.4,61c0-3.2,2.4-6.7,1.6-9.7c-0.8-3.1-4.7-4.9-6.2-7.6c-1.6-2.7-1.2-6.9-3.4-9.2c-2.2-2.2-6.4-1.9-9.2-3.4
		c-2.7-1.6-4.5-5.4-7.6-6.2c-3-0.8-6.4,1.6-9.7,1.6c-3.2,0-6.7-2.4-9.7-1.6c-3.1,0.8-4.9,4.7-7.6,6.2c-2.7,1.6-6.9,1.2-9.2,3.4
		c-2.2,2.2-1.9,6.4-3.4,9.2c-1.6,2.7-5.4,4.5-6.2,7.6c-0.8,3,1.6,6.4,1.6,9.7c0,3.2-2.4,6.7-1.6,9.7c0.8,3.1,4.7,4.9,6.2,7.6
		c1.6,2.7,1.2,6.9,3.4,9.2c2.2,2.2,6.4,1.9,9.2,3.4c2.7,1.6,4.5,5.4,7.6,6.2c3,0.8,6.4-1.6,9.7-1.6c3.2,0,6.7,2.4,9.7,1.6
		c3.1-0.8,4.9-4.7,7.6-6.2c2.7-1.6,6.9-1.2,9.2-3.4c2.2-2.2,1.9-6.4,3.4-9.2c1.6-2.7,5.4-4.5,6.2-7.6
		C216.8,67.7,214.4,64.2,214.4,61z"/>
</g>
<g class="st0">
	
		<linearGradient id="SVGID_6_" gradientUnits="userSpaceOnUse" x1="218.1979" y1="269.95" x2="299.3021" y2="269.95" gradientTransform="matrix(1 0 0 -1 0 360)">
		<stop  offset="0" style="stop-color:#005AFF"/>
		<stop  offset="1" style="stop-color:#005AFF;stop-opacity:0.9"/>
	</linearGradient>
	<path class="st8" d="M294.7,79.6c-1-3.4,0.5-7.7-1.2-10.6c-1.8-3-6.3-3.7-8.8-6c-2.5-2.4-3.4-6.9-6.4-8.5s-7.3,0-10.6-0.8
		c-3.3-0.8-6.3-4.3-9.8-4.2c-3.3,0.1-6.3,3.6-9.6,4.6c-3.4,1-7.7-0.5-10.6,1.2c-3,1.8-3.7,6.3-6,8.8c-2.4,2.5-6.9,3.4-8.5,6.4
		s0,7.3-0.8,10.6c-0.8,3.3-4.3,6.3-4.2,9.8c0.1,3.3,3.6,6.3,4.6,9.6c1,3.4-0.5,7.7,1.2,10.6c1.8,3,6.3,3.7,8.8,6
		c2.5,2.4,3.4,6.9,6.4,8.5s7.3,0,10.6,0.8s6.3,4.3,9.8,4.2c3.3-0.1,6.3-3.6,9.6-4.6c3.4-1,7.7,0.5,10.6-1.2c3-1.8,3.7-6.3,6-8.8
		c2.4-2.5,6.9-3.4,8.5-6.4s0-7.3,0.8-10.6c0.8-3.3,4.3-6.3,4.2-9.8C299.2,85.8,295.7,82.9,294.7,79.6z"/>
	
		<linearGradient id="SVGID_7_" gradientUnits="userSpaceOnUse" x1="217.7191" y1="269.95" x2="299.7809" y2="269.95" gradientTransform="matrix(1 0 0 -1 0 360)">
		<stop  offset="0" style="stop-color:#005AFF"/>
		<stop  offset="1" style="stop-color:#005AFF;stop-opacity:0.9"/>
	</linearGradient>
	<path class="st9" d="M294.7,79.6c-1-3.4,0.5-7.7-1.2-10.6c-1.8-3-6.3-3.7-8.8-6c-2.5-2.4-3.4-6.9-6.4-8.5s-7.3,0-10.6-0.8
		c-3.3-0.8-6.3-4.3-9.8-4.2c-3.3,0.1-6.3,3.6-9.6,4.6c-3.4,1-7.7-0.5-10.6,1.2c-3,1.8-3.7,6.3-6,8.8c-2.4,2.5-6.9,3.4-8.5,6.4
		s0,7.3-0.8,10.6c-0.8,3.3-4.3,6.3-4.2,9.8c0.1,3.3,3.6,6.3,4.6,9.6c1,3.4-0.5,7.7,1.2,10.6c1.8,3,6.3,3.7,8.8,6
		c2.5,2.4,3.4,6.9,6.4,8.5s7.3,0,10.6,0.8s6.3,4.3,9.8,4.2c3.3-0.1,6.3-3.6,9.6-4.6c3.4-1,7.7,0.5,10.6-1.2c3-1.8,3.7-6.3,6-8.8
		c2.4-2.5,6.9-3.4,8.5-6.4s0-7.3,0.8-10.6c0.8-3.3,4.3-6.3,4.2-9.8C299.2,85.8,295.7,82.9,294.7,79.6z"/>
</g>
<g class="st3">
	<path class="st4" d="M293.1,89.9c0-3.2,2.4-6.7,1.6-9.7c-0.8-3.1-4.7-4.9-6.2-7.6c-1.6-2.7-1.2-6.9-3.4-9.2
		c-2.2-2.2-6.4-1.9-9.2-3.4c-2.7-1.6-4.5-5.4-7.6-6.2c-3-0.8-6.4,1.6-9.7,1.6c-3.2,0-6.7-2.4-9.7-1.6c-3.1,0.8-4.9,4.7-7.6,6.2
		c-2.7,1.6-6.9,1.2-9.2,3.4c-2.2,2.2-1.9,6.4-3.4,9.2c-1.6,2.7-5.4,4.5-6.2,7.6c-0.8,3,1.6,6.4,1.6,9.7c0,3.2-2.4,6.7-1.6,9.7
		c0.8,3.1,4.7,4.9,6.2,7.6c1.6,2.7,1.2,6.9,3.4,9.2s6.4,1.9,9.2,3.4c2.7,1.6,4.5,5.4,7.6,6.2c3,0.8,6.4-1.6,9.7-1.6
		c3.2,0,6.7,2.4,9.7,1.6c3.1-0.8,4.9-4.7,7.6-6.2c2.7-1.6,6.9-1.2,9.2-3.4c2.2-2.2,1.9-6.4,3.4-9.2c1.6-2.7,5.4-4.5,6.2-7.6
		C295.5,96.6,293.1,93.1,293.1,89.9z"/>
</g>
<g class="st0">
	
		<linearGradient id="SVGID_8_" gradientUnits="userSpaceOnUse" x1="260.3893" y1="197.55" x2="341.4935" y2="197.55" gradientTransform="matrix(1 0 0 -1 0 360)">
		<stop  offset="0" style="stop-color:#005AFF"/>
		<stop  offset="1" style="stop-color:#005AFF;stop-opacity:0.9"/>
	</linearGradient>
	<path class="st10" d="M337,152c-1-3.4,0.5-7.7-1.2-10.6c-1.8-3-6.3-3.7-8.8-6c-2.5-2.4-3.4-6.9-6.4-8.5c-3-1.6-7.3,0-10.6-0.8
		c-3.3-0.8-6.3-4.3-9.8-4.2c-3.3,0.1-6.3,3.6-9.6,4.6c-3.4,1-7.7-0.5-10.6,1.2c-3,1.8-3.7,6.3-6,8.8c-2.4,2.5-6.9,3.4-8.5,6.4
		s0,7.3-0.8,10.6s-4.3,6.3-4.2,9.8c0.1,3.3,3.6,6.3,4.6,9.6c1,3.4-0.5,7.7,1.2,10.6c1.8,3,6.3,3.7,8.8,6c2.5,2.4,3.4,6.9,6.4,8.5
		s7.3,0,10.6,0.8c3.3,0.8,6.3,4.3,9.8,4.2c3.3-0.1,6.3-3.6,9.6-4.6c3.4-1,7.7,0.5,10.6-1.2c3-1.8,3.7-6.3,6-8.8
		c2.4-2.5,6.9-3.4,8.5-6.4s0-7.3,0.8-10.6s4.3-6.3,4.2-9.8C341.5,158.3,337.9,155.4,337,152z"/>
	
		<linearGradient id="SVGID_9_" gradientUnits="userSpaceOnUse" x1="259.9105" y1="197.55" x2="341.9723" y2="197.55" gradientTransform="matrix(1 0 0 -1 0 360)">
		<stop  offset="0" style="stop-color:#005AFF"/>
		<stop  offset="1" style="stop-color:#005AFF;stop-opacity:0.9"/>
	</linearGradient>
	<path class="st11" d="M337,152c-1-3.4,0.5-7.7-1.2-10.6c-1.8-3-6.3-3.7-8.8-6c-2.5-2.4-3.4-6.9-6.4-8.5c-3-1.6-7.3,0-10.6-0.8
		c-3.3-0.8-6.3-4.3-9.8-4.2c-3.3,0.1-6.3,3.6-9.6,4.6c-3.4,1-7.7-0.5-10.6,1.2c-3,1.8-3.7,6.3-6,8.8c-2.4,2.5-6.9,3.4-8.5,6.4
		s0,7.3-0.8,10.6s-4.3,6.3-4.2,9.8c0.1,3.3,3.6,6.3,4.6,9.6c1,3.4-0.5,7.7,1.2,10.6c1.8,3,6.3,3.7,8.8,6c2.5,2.4,3.4,6.9,6.4,8.5
		s7.3,0,10.6,0.8c3.3,0.8,6.3,4.3,9.8,4.2c3.3-0.1,6.3-3.6,9.6-4.6c3.4-1,7.7,0.5,10.6-1.2c3-1.8,3.7-6.3,6-8.8
		c2.4-2.5,6.9-3.4,8.5-6.4s0-7.3,0.8-10.6s4.3-6.3,4.2-9.8C341.5,158.3,337.9,155.4,337,152z"/>
</g>
<g class="st3">
	<path class="st4" d="M335.4,162.4c0-3.2,2.4-6.7,1.6-9.7c-0.8-3.1-4.7-4.9-6.2-7.6c-1.6-2.7-1.2-6.9-3.4-9.2
		c-2.2-2.2-6.4-1.9-9.2-3.4c-2.7-1.6-4.5-5.4-7.6-6.2c-3-0.8-6.4,1.6-9.7,1.6c-3.2,0-6.7-2.4-9.7-1.6c-3.1,0.8-4.9,4.7-7.6,6.2
		c-2.7,1.6-6.9,1.2-9.2,3.4c-2.2,2.2-1.9,6.4-3.4,9.2c-1.6,2.7-5.4,4.5-6.2,7.6c-0.8,3,1.6,6.4,1.6,9.7c0,3.2-2.4,6.7-1.6,9.7
		c0.8,3.1,4.7,4.9,6.2,7.6c1.6,2.7,1.2,6.9,3.4,9.2c2.2,2.2,6.4,1.9,9.2,3.4c2.7,1.6,4.5,5.4,7.6,6.2c3,0.8,6.4-1.6,9.7-1.6
		c3.2,0,6.7,2.4,9.7,1.6c3.1-0.8,4.9-4.7,7.6-6.2c2.7-1.6,6.9-1.2,9.2-3.4c2.2-2.2,1.9-6.4,3.4-9.2c1.6-2.7,5.4-4.5,6.2-7.6
		C337.8,169.1,335.4,165.6,335.4,162.4z"/>
</g>
<g class="st0">
	
		<linearGradient id="SVGID_10_" gradientUnits="userSpaceOnUse" x1="245.9979" y1="114.75" x2="327.1021" y2="114.75" gradientTransform="matrix(1 0 0 -1 0 360)">
		<stop  offset="0" style="stop-color:#005AFF"/>
		<stop  offset="1" style="stop-color:#005AFF;stop-opacity:0.9"/>
	</linearGradient>
	<path class="st12" d="M322.5,234.8c-1-3.4,0.5-7.7-1.2-10.6c-1.8-3-6.3-3.7-8.8-6c-2.5-2.4-3.4-6.9-6.4-8.5s-7.3,0-10.6-0.8
		c-3.3-0.8-6.3-4.3-9.8-4.2c-3.3,0.1-6.3,3.6-9.6,4.6c-3.4,1-7.7-0.5-10.6,1.2c-3,1.8-3.7,6.3-6,8.8c-2.4,2.5-6.9,3.4-8.5,6.4
		s0,7.3-0.8,10.6s-4.3,6.3-4.2,9.8c0.1,3.3,3.6,6.3,4.6,9.6c1,3.4-0.5,7.7,1.2,10.6c1.8,3,6.3,3.7,8.8,6c2.5,2.4,3.4,6.9,6.4,8.5
		s7.3,0,10.6,0.8c3.3,0.8,6.3,4.3,9.8,4.2c3.3-0.1,6.3-3.6,9.6-4.6c3.4-1,7.7,0.5,10.6-1.2c3-1.8,3.7-6.3,6-8.8
		c2.4-2.5,6.9-3.4,8.5-6.4s0-7.3,0.8-10.6c0.8-3.3,4.3-6.3,4.2-9.8C327,241.1,323.5,238.2,322.5,234.8z"/>
	
		<linearGradient id="SVGID_11_" gradientUnits="userSpaceOnUse" x1="245.5191" y1="114.75" x2="327.5809" y2="114.75" gradientTransform="matrix(1 0 0 -1 0 360)">
		<stop  offset="0" style="stop-color:#005AFF"/>
		<stop  offset="1" style="stop-color:#005AFF;stop-opacity:0.9"/>
	</linearGradient>
	<path class="st13" d="M322.5,234.8c-1-3.4,0.5-7.7-1.2-10.6c-1.8-3-6.3-3.7-8.8-6c-2.5-2.4-3.4-6.9-6.4-8.5s-7.3,0-10.6-0.8
		c-3.3-0.8-6.3-4.3-9.8-4.2c-3.3,0.1-6.3,3.6-9.6,4.6c-3.4,1-7.7-0.5-10.6,1.2c-3,1.8-3.7,6.3-6,8.8c-2.4,2.5-6.9,3.4-8.5,6.4
		s0,7.3-0.8,10.6s-4.3,6.3-4.2,9.8c0.1,3.3,3.6,6.3,4.6,9.6c1,3.4-0.5,7.7,1.2,10.6c1.8,3,6.3,3.7,8.8,6c2.5,2.4,3.4,6.9,6.4,8.5
		s7.3,0,10.6,0.8c3.3,0.8,6.3,4.3,9.8,4.2c3.3-0.1,6.3-3.6,9.6-4.6c3.4-1,7.7,0.5,10.6-1.2c3-1.8,3.7-6.3,6-8.8
		c2.4-2.5,6.9-3.4,8.5-6.4s0-7.3,0.8-10.6c0.8-3.3,4.3-6.3,4.2-9.8C327,241.1,323.5,238.2,322.5,234.8z"/>
</g>
<g class="st3">
	<path class="st4" d="M320.9,245.2c0-3.2,2.4-6.7,1.6-9.7c-0.8-3.1-4.7-4.9-6.2-7.6c-1.6-2.7-1.2-6.9-3.4-9.2
		c-2.2-2.2-6.4-1.9-9.2-3.4c-2.7-1.6-4.5-5.4-7.6-6.2c-3-0.8-6.4,1.6-9.7,1.6c-3.2,0-6.7-2.4-9.7-1.6c-3.1,0.8-4.9,4.7-7.6,6.2
		c-2.7,1.6-6.9,1.2-9.2,3.4c-2.2,2.2-1.9,6.4-3.4,9.2c-1.6,2.7-5.4,4.5-6.2,7.6c-0.8,3,1.6,6.4,1.6,9.7c0,3.2-2.4,6.7-1.6,9.7
		c0.8,3.1,4.7,4.9,6.2,7.6c1.6,2.7,1.2,6.9,3.4,9.2c2.2,2.2,6.4,1.9,9.2,3.4c2.7,1.6,4.5,5.4,7.6,6.2c3,0.8,6.4-1.6,9.7-1.6
		c3.2,0,6.7,2.4,9.7,1.6c3.1-0.8,4.9-4.7,7.6-6.2c2.7-1.6,6.9-1.2,9.2-3.4c2.2-2.2,1.9-6.4,3.4-9.2c1.6-2.7,5.4-4.5,6.2-7.6
		C323.3,251.9,320.9,248.4,320.9,245.2z"/>
</g>
<g class="st0">
	
		<linearGradient id="SVGID_12_" gradientUnits="userSpaceOnUse" x1="181.2979" y1="61.25" x2="262.4021" y2="61.25" gradientTransform="matrix(1 0 0 -1 0 360)">
		<stop  offset="0" style="stop-color:#005AFF"/>
		<stop  offset="1" style="stop-color:#005AFF;stop-opacity:0.9"/>
	</linearGradient>
	<path class="st14" d="M257.8,288.3c-1-3.4,0.5-7.7-1.2-10.6c-1.8-3-6.3-3.7-8.8-6c-2.5-2.4-3.4-6.9-6.4-8.5s-7.3,0-10.6-0.8
		s-6.3-4.3-9.8-4.2c-3.3,0.1-6.3,3.6-9.6,4.6c-3.4,1-7.7-0.5-10.6,1.2c-3,1.8-3.7,6.3-6,8.8c-2.4,2.5-6.9,3.4-8.5,6.4
		s0,7.3-0.8,10.6c-0.8,3.3-4.3,6.3-4.2,9.8c0.1,3.3,3.6,6.3,4.6,9.6c1,3.4-0.5,7.7,1.2,10.6c1.8,3,6.3,3.7,8.8,6
		c2.5,2.4,3.4,6.9,6.4,8.5s7.3,0,10.6,0.8s6.3,4.3,9.8,4.2c3.3-0.1,6.3-3.6,9.6-4.6c3.4-1,7.7,0.5,10.6-1.2c3-1.8,3.7-6.3,6-8.8
		c2.4-2.5,6.9-3.4,8.5-6.4c1.6-3,0-7.3,0.8-10.6c0.8-3.3,4.3-6.3,4.2-9.8C262.4,294.6,258.8,291.7,257.8,288.3z"/>
	
		<linearGradient id="SVGID_13_" gradientUnits="userSpaceOnUse" x1="180.8191" y1="61.25" x2="262.8809" y2="61.25" gradientTransform="matrix(1 0 0 -1 0 360)">
		<stop  offset="0" style="stop-color:#005AFF"/>
		<stop  offset="1" style="stop-color:#005AFF;stop-opacity:0.9"/>
	</linearGradient>
	<path class="st15" d="M257.8,288.3c-1-3.4,0.5-7.7-1.2-10.6c-1.8-3-6.3-3.7-8.8-6c-2.5-2.4-3.4-6.9-6.4-8.5s-7.3,0-10.6-0.8
		s-6.3-4.3-9.8-4.2c-3.3,0.1-6.3,3.6-9.6,4.6c-3.4,1-7.7-0.5-10.6,1.2c-3,1.8-3.7,6.3-6,8.8c-2.4,2.5-6.9,3.4-8.5,6.4
		s0,7.3-0.8,10.6c-0.8,3.3-4.3,6.3-4.2,9.8c0.1,3.3,3.6,6.3,4.6,9.6c1,3.4-0.5,7.7,1.2,10.6c1.8,3,6.3,3.7,8.8,6
		c2.5,2.4,3.4,6.9,6.4,8.5s7.3,0,10.6,0.8s6.3,4.3,9.8,4.2c3.3-0.1,6.3-3.6,9.6-4.6c3.4-1,7.7,0.5,10.6-1.2c3-1.8,3.7-6.3,6-8.8
		c2.4-2.5,6.9-3.4,8.5-6.4c1.6-3,0-7.3,0.8-10.6c0.8-3.3,4.3-6.3,4.2-9.8C262.4,294.6,258.8,291.7,257.8,288.3z"/>
</g>
<g class="st3">
	<path class="st4" d="M256.3,298.7c0-3.2,2.4-6.7,1.6-9.7c-0.8-3.1-4.7-4.9-6.2-7.6c-1.6-2.7-1.2-6.9-3.4-9.2
		c-2.2-2.2-6.4-1.9-9.2-3.4c-2.7-1.6-4.5-5.4-7.6-6.2c-3-0.8-6.4,1.6-9.7,1.6c-3.2,0-6.7-2.4-9.7-1.6c-3.1,0.8-4.9,4.7-7.6,6.2
		c-2.7,1.6-6.9,1.2-9.2,3.4c-2.2,2.2-1.9,6.4-3.4,9.2c-1.6,2.7-5.4,4.5-6.2,7.6c-0.8,3,1.6,6.4,1.6,9.7c0,3.2-2.4,6.7-1.6,9.7
		c0.8,3.1,4.7,4.9,6.2,7.6c1.6,2.7,1.2,6.9,3.4,9.2c2.2,2.2,6.4,1.9,9.2,3.4c2.7,1.6,4.5,5.4,7.6,6.2c3,0.8,6.4-1.6,9.7-1.6
		c3.2,0,6.7,2.4,9.7,1.6c3.1-0.8,4.9-4.7,7.6-6.2c2.7-1.6,6.9-1.2,9.2-3.4c2.2-2.2,1.9-6.4,3.4-9.2c1.6-2.7,5.4-4.5,6.2-7.6
		C258.7,305.4,256.3,301.9,256.3,298.7z"/>
</g>
<g class="st0">
	
		<linearGradient id="SVGID_14_" gradientUnits="userSpaceOnUse" x1="97.4979" y1="60.85" x2="178.6021" y2="60.85" gradientTransform="matrix(1 0 0 -1 0 360)">
		<stop  offset="0" style="stop-color:#005AFF"/>
		<stop  offset="1" style="stop-color:#005AFF;stop-opacity:0.9"/>
	</linearGradient>
	<path class="st16" d="M174,288.7c-1-3.4,0.5-7.7-1.2-10.6c-1.8-3-6.3-3.7-8.8-6c-2.5-2.4-3.4-6.9-6.4-8.5s-7.3,0-10.6-0.8
		s-6.3-4.3-9.8-4.2c-3.3,0.1-6.3,3.6-9.6,4.6c-3.4,1-7.7-0.5-10.6,1.2c-3,1.8-3.7,6.3-6,8.8c-2.4,2.5-6.9,3.4-8.5,6.4
		s0,7.3-0.8,10.6c-0.8,3.3-4.3,6.3-4.2,9.8c0.1,3.3,3.6,6.3,4.6,9.6c1,3.4-0.5,7.7,1.2,10.6c1.8,3,6.3,3.7,8.8,6
		c2.5,2.4,3.4,6.9,6.4,8.5s7.3,0,10.6,0.8s6.3,4.3,9.8,4.2c3.3-0.1,6.3-3.6,9.6-4.6c3.4-1,7.7,0.5,10.6-1.2c3-1.8,3.7-6.3,6-8.8
		c2.4-2.5,6.9-3.4,8.5-6.4s0-7.3,0.8-10.6c0.8-3.3,4.3-6.3,4.2-9.8C178.5,294.9,175,292,174,288.7z"/>
	
		<linearGradient id="SVGID_15_" gradientUnits="userSpaceOnUse" x1="97.0191" y1="60.85" x2="179.0809" y2="60.85" gradientTransform="matrix(1 0 0 -1 0 360)">
		<stop  offset="0" style="stop-color:#005AFF"/>
		<stop  offset="1" style="stop-color:#005AFF;stop-opacity:0.9"/>
	</linearGradient>
	<path class="st17" d="M174,288.7c-1-3.4,0.5-7.7-1.2-10.6c-1.8-3-6.3-3.7-8.8-6c-2.5-2.4-3.4-6.9-6.4-8.5s-7.3,0-10.6-0.8
		s-6.3-4.3-9.8-4.2c-3.3,0.1-6.3,3.6-9.6,4.6c-3.4,1-7.7-0.5-10.6,1.2c-3,1.8-3.7,6.3-6,8.8c-2.4,2.5-6.9,3.4-8.5,6.4
		s0,7.3-0.8,10.6c-0.8,3.3-4.3,6.3-4.2,9.8c0.1,3.3,3.6,6.3,4.6,9.6c1,3.4-0.5,7.7,1.2,10.6c1.8,3,6.3,3.7,8.8,6
		c2.5,2.4,3.4,6.9,6.4,8.5s7.3,0,10.6,0.8s6.3,4.3,9.8,4.2c3.3-0.1,6.3-3.6,9.6-4.6c3.4-1,7.7,0.5,10.6-1.2c3-1.8,3.7-6.3,6-8.8
		c2.4-2.5,6.9-3.4,8.5-6.4s0-7.3,0.8-10.6c0.8-3.3,4.3-6.3,4.2-9.8C178.5,294.9,175,292,174,288.7z"/>
</g>
<g class="st3">
	<path class="st4" d="M172.4,299c0-3.2,2.4-6.7,1.6-9.7c-0.8-3.1-4.7-4.9-6.2-7.6c-1.6-2.7-1.2-6.9-3.4-9.2
		c-2.2-2.2-6.4-1.9-9.2-3.4c-2.7-1.6-4.5-5.4-7.6-6.2c-3-0.8-6.4,1.6-9.7,1.6c-3.2,0-6.7-2.4-9.7-1.6c-3.1,0.8-4.9,4.7-7.6,6.2
		c-2.7,1.6-6.9,1.2-9.2,3.4c-2.2,2.2-1.9,6.4-3.4,9.2c-1.6,2.7-5.4,4.5-6.2,7.6c-0.8,3,1.6,6.4,1.6,9.7c0,3.2-2.4,6.7-1.6,9.7
		c0.8,3.1,4.7,4.9,6.2,7.6c1.6,2.7,1.2,6.9,3.4,9.2c2.2,2.2,6.4,1.9,9.2,3.4c2.7,1.6,4.5,5.4,7.6,6.2c3,0.8,6.4-1.6,9.7-1.6
		c3.2,0,6.7,2.4,9.7,1.6c3.1-0.8,4.9-4.7,7.6-6.2c2.7-1.6,6.9-1.2,9.2-3.4c2.2-2.2,1.9-6.4,3.4-9.2c1.6-2.7,5.4-4.5,6.2-7.6
		C174.8,305.7,172.4,302.2,172.4,299z"/>
</g>
<g class="st0">
	
		<linearGradient id="SVGID_16_" gradientUnits="userSpaceOnUse" x1="32.9059" y1="114.75" x2="114.0101" y2="114.75" gradientTransform="matrix(1 0 0 -1 0 360)">
		<stop  offset="0" style="stop-color:#005AFF"/>
		<stop  offset="1" style="stop-color:#005AFF;stop-opacity:0.9"/>
	</linearGradient>
	<path class="st18" d="M109.5,234.8c-1-3.4,0.5-7.7-1.2-10.6c-1.8-3-6.3-3.7-8.8-6c-2.5-2.4-3.4-6.9-6.4-8.5s-7.3,0-10.6-0.8
		c-3.3-0.8-6.3-4.3-9.8-4.2c-3.3,0.1-6.3,3.6-9.6,4.6c-3.4,1-7.7-0.5-10.6,1.2c-3,1.8-3.7,6.3-6,8.8c-2.4,2.5-6.9,3.4-8.5,6.4
		s0,7.3-0.8,10.6s-4.3,6.3-4.2,9.8c0.1,3.3,3.6,6.3,4.6,9.6c1,3.4-0.5,7.7,1.2,10.6c1.8,3,6.3,3.7,8.8,6c2.5,2.4,3.4,6.9,6.4,8.5
		s7.3,0,10.6,0.8c3.3,0.8,6.3,4.3,9.8,4.2c3.3-0.1,6.3-3.6,9.6-4.6c3.4-1,7.7,0.5,10.6-1.2c3-1.8,3.7-6.3,6-8.8
		c2.4-2.5,6.9-3.4,8.5-6.4s0-7.3,0.8-10.6c0.8-3.3,4.3-6.3,4.2-9.8C114,241.1,110.4,238.2,109.5,234.8z"/>
	
		<linearGradient id="SVGID_17_" gradientUnits="userSpaceOnUse" x1="32.4271" y1="114.75" x2="114.4889" y2="114.75" gradientTransform="matrix(1 0 0 -1 0 360)">
		<stop  offset="0" style="stop-color:#005AFF"/>
		<stop  offset="1" style="stop-color:#005AFF;stop-opacity:0.9"/>
	</linearGradient>
	<path class="st19" d="M109.5,234.8c-1-3.4,0.5-7.7-1.2-10.6c-1.8-3-6.3-3.7-8.8-6c-2.5-2.4-3.4-6.9-6.4-8.5s-7.3,0-10.6-0.8
		c-3.3-0.8-6.3-4.3-9.8-4.2c-3.3,0.1-6.3,3.6-9.6,4.6c-3.4,1-7.7-0.5-10.6,1.2c-3,1.8-3.7,6.3-6,8.8c-2.4,2.5-6.9,3.4-8.5,6.4
		s0,7.3-0.8,10.6s-4.3,6.3-4.2,9.8c0.1,3.3,3.6,6.3,4.6,9.6c1,3.4-0.5,7.7,1.2,10.6c1.8,3,6.3,3.7,8.8,6c2.5,2.4,3.4,6.9,6.4,8.5
		s7.3,0,10.6,0.8c3.3,0.8,6.3,4.3,9.8,4.2c3.3-0.1,6.3-3.6,9.6-4.6c3.4-1,7.7,0.5,10.6-1.2c3-1.8,3.7-6.3,6-8.8
		c2.4-2.5,6.9-3.4,8.5-6.4s0-7.3,0.8-10.6c0.8-3.3,4.3-6.3,4.2-9.8C114,241.1,110.4,238.2,109.5,234.8z"/>
</g>
<g class="st3">
	<path class="st4" d="M107.9,245.2c0-3.2,2.4-6.7,1.6-9.7c-0.8-3.1-4.7-4.9-6.2-7.6c-1.6-2.7-1.2-6.9-3.4-9.2
		c-2.2-2.2-6.4-1.9-9.2-3.4c-2.7-1.6-4.5-5.4-7.6-6.2c-3-0.8-6.4,1.6-9.7,1.6c-3.2,0-6.7-2.4-9.7-1.6c-3.1,0.8-4.9,4.7-7.6,6.2
		c-2.7,1.6-6.9,1.2-9.2,3.4c-2.2,2.2-1.9,6.4-3.4,9.2c-1.6,2.7-5.4,4.5-6.2,7.6c-0.8,3,1.6,6.4,1.6,9.7c0,3.2-2.4,6.7-1.6,9.7
		c0.8,3.1,4.7,4.9,6.2,7.6c1.6,2.7,1.2,6.9,3.4,9.2c2.2,2.2,6.4,1.9,9.2,3.4c2.7,1.6,4.5,5.4,7.6,6.2c3,0.8,6.4-1.6,9.7-1.6
		c3.2,0,6.7,2.4,9.7,1.6c3.1-0.8,4.9-4.7,7.6-6.2c2.7-1.6,6.9-1.2,9.2-3.4c2.2-2.2,1.9-6.4,3.4-9.2c1.6-2.7,5.4-4.5,6.2-7.6
		C110.3,251.9,107.9,248.4,107.9,245.2z"/>
</g>
<g>
	<path class="st20" d="M240.3,83.1c4,2.4,8.2,2.3,12.2-0.2c2.4-1.5,4.8-3.9,7.3-3.5c2.1,0.3,4,2.6,6,3.9c3.6,2.5,7.6,1.9,11.4,0.6"
		/>
	<path class="st20" d="M240.3,90.8c4,2.4,8.2,2.3,12.2-0.2c2.4-1.5,4.8-3.9,7.3-3.5c2.1,0.3,4,2.6,6,3.9c3.6,2.5,7.6,1.9,11.4,0.6"
		/>
	<path class="st21" d="M240.3,98.4c4,2.4,8.2,2.3,12.2-0.2c2.4-1.5,4.8-3.9,7.3-3.5c2.1,0.3,4,2.6,6,3.9c3.6,2.5,7.6,1.9,11.4,0.6"
		/>
</g>
<g>
	<g>
		<path class="st20" d="M292.4,173.6c0,3.5,2.9,6.4,6.4,6.4s6.4-2.9,6.4-6.4c0-4.5,2-6.4,4-8.3c2-1.9,4-3.9,4-8.4
			c0-6.7-5.4-12.1-12.1-12.1s-12.1,5.4-12.1,12.1"/>
	</g>
</g>
<path class="st20" d="M293,167.2c0.7,0.6,1.6,0.9,2.6,0.9c2.2,0,4-1.8,4-4s-1.8-4-4-4v-2.5c0-3.3,2.7-6,6-6s6,2.7,6,6"/>
<path class="st20" d="M295.4,252.9c6.8-3.5,10.1-9.9,10.1-9.9s-7-8.6-15.1-10c-1.3,0.5-2,2.7-3.9,2.7"/>
<path class="st20" d="M286.5,235.7c-1.9,0-2.6-2.2-3.9-2.7c-8.1,1.5-15.1,10-15.1,10s3.3,6.5,10.1,9.9"/>
<path class="st20" d="M297.5,243.4v3.3c0,5.9-4.8,10.8-10.8,10.8h-0.4c-5.9,0-10.8-4.8-10.8-10.8v-3.3"/>
<line class="st20" x1="286.5" y1="250" x2="286.5" y2="244.7"/>
<path class="st20" d="M286.5,244.4c-1.5,0-2.6-2-4.3-2c-1.7,0-7.9,1.6-14.3,0.6"/>
<path class="st20" d="M286.5,244.4c1.5,0,2.6-2,4.3-2c1.7,0,7.9,1.6,14.3,0.6"/>
<path class="st22" d="M231.8,294.7c-0.2-0.5-0.7-0.8-1.2-0.8h-6.2l5.4-10.8c0.3-0.4,0.3-0.9,0-1.4c-0.2-0.4-0.7-0.7-1.2-0.7h-7
	c-0.5,0-1,0.3-1.2,0.8l-8.5,18c-0.2,0.4-0.2,0.9,0.1,1.3c0.2,0.4,0.7,0.6,1.1,0.6h5.1l-4.9,15.3l18.2-20.9
	C231.9,295.7,232,295.2,231.8,294.7z"/>
<g>
	<path class="st20" d="M138.1,311.7c-13.4,0-19-12.8-19-12.9c-0.1-0.3-0.1-0.6,0-0.9c0.2-0.4,6.1-11,19-11s18.6,10.5,18.8,11
		c0.1,0.3,0.1,0.6,0,0.8C156.9,299,151.4,311.7,138.1,311.7z"/>
</g>
<circle class="st20" cx="138" cy="299.3" r="8.6"/>
<circle class="st20" cx="138" cy="299.3" r="2.4"/>
<path class="st20" d="M68.9,226.6c-1.3,0-2.3,1-2.3,2.3v19.2l-5.3-2.7c-0.5-0.3-1.1-0.4-1.7-0.4c-1.2,0-2.2,1-2.2,2.2
	c0,0.6,0.2,1.1,0.6,1.6l10,9.9c2.1,2.1,4.9,3.3,7.9,3.3c5.1,0,9.3-4.2,9.3-9.3v-13.1c0-1.3-1-2.3-2.3-2.3c-1.1,0-2.1,0.8-2.3,1.9
	v-1.1c0-1.3-1-2.3-2.3-2.3c-1.1,0-2.1,0.8-2.3,1.9v-1.1c0-1.3-1-2.3-2.3-2.3c-1.1,0-2.1,0.8-2.3,1.9V229
	C71.2,227.7,70.2,226.6,68.9,226.6L68.9,226.6z"/>
<line class="st20" x1="71.2" y1="236" x2="71.2" y2="244.4"/>
<line class="st20" x1="75.8" y1="237.7" x2="75.8" y2="244.4"/>
<line class="st20" x1="80.4" y1="238.9" x2="80.4" y2="244.4"/>
<path class="st22" d="M59,144.7c-2.3,0-4.2,1.9-4.2,4.2V169c-1.8,1.5-2.7,3.7-2.3,6c0.5,3.6,3.8,6.1,7.4,5.6
	c3.3-0.5,5.7-3.3,5.7-6.5c0-2-0.9-3.8-2.4-5.1v-20.1C63.2,146.6,61.3,144.7,59,144.7z"/>
<line class="st20" x1="59" y1="171.7" x2="59" y2="149.2"/>
<path class="st20" d="M59,176.5c-1.3,0-2.4-1.1-2.4-2.4c0-1.3,1.1-2.4,2.4-2.4s2.4,1.1,2.4,2.4S60.3,176.5,59,176.5z"/>
<path class="st20" d="M101.4,92.4V97v9.9c0,1.3-1.1,2.3-2.3,2.3l0,0c-1.3,0-2.3-1.1-2.3-2.3V83.5v-0.3H88c-1,0-1.8-0.8-1.8-1.8l0,0
	c0-1,0.8-1.8,1.8-1.8h26.5c1,0,1.8,0.8,1.8,1.8l0,0c0,1-0.8,1.8-1.8,1.8h-8.7c0,0,1.7,11.7-0.5,14.7c-1.2,1.6-3.9,3.6-3.9,3.6"/>
<path class="st22" d="M101.5,96.4"/>
<circle class="st23" cx="101.3" cy="73" r="3.5"/>
<g>
	<path class="st20" d="M171.7,43.3c0,0,9.8,16.7,12.2,20.1c2.7,3.7,4.1,5.8,5.5,7.8c1.4,1.9,2.5,4.1,1.2,5.7
		c-3.7,3.7-8.9-2.6-13.6,0.6c-1.1,0.8-2.1,1.1-3,1.1h-0.1c-2.8,0-5.1-2.3-5.1-5.1s2.3-5.1,5.1-5.1c1.5,0,2.9,0.7,3.8,1.7"/>
</g>
</svg>
