<?xml version="1.0" encoding="utf-8"?>
<!-- Generator: Adobe Illustrator 22.0.0, SVG Export Plug-In . SVG Version: 6.00 Build 0)  -->
<svg version="1.1" id="Layer_1" xmlns="http://www.w3.org/2000/svg" xmlns:xlink="http://www.w3.org/1999/xlink" x="0px" y="0px"
	 viewBox="0 0 360 360" style="enable-background:new 0 0 360 360;" xml:space="preserve">
<style type="text/css">
	.st0{fill:#EFEBEA;}
	.st1{opacity:0.15;fill:#575757;enable-background:new    ;}
	.st2{fill:none;stroke:#575757;stroke-width:1.3606;stroke-miterlimit:10;}
	.st3{fill:url(#SVGID_1_);}
	.st4{fill:url(#SVGID_2_);}
</style>
<path class="st0" d="M259.7,331.3c-10.7-5.4-18.8-10.4-26.2-13.8c-7.4-3.3-8.2-25-7.9-38c6.2-3.8,10.6-8,13-11.6
	c3.6-5.6,6.3-21.5,7.9-35.8c1.4,0.1,3.2,0,5.9-1.4c6.6-3.3,8.9-22.7,4.4-31.3c-0.5-0.8-0.9-1.5-1.4-2c2.6-19.5,4.8-51.9-4.8-66.4
	c-14.2-21.7-45.8-22.7-56.6-23.6c-14.2-1.2-39.7-1.1-46,15c-30,2.9-26.2,49.6-22.1,74.9c-0.5,0.5-0.8,1.1-1.2,1.8
	c-4.5,8.8-2.4,28,4.4,31.3c3,1.5,5.1,1.7,6.5,1.4c1.4,14.5,4.1,30.4,7.9,35.9c2.4,3.6,6.6,7.9,12.7,11.5c0.5,13-0.3,34.8-7.7,38.3
	c-7.6,3.3-15.6,8.3-26.5,13.8c19.3,13.9,43.1,22.3,68.8,22.3S240.4,345.2,259.7,331.3z"/>
<circle class="st1" cx="190.9" cy="183.5" r="58.4"/>
<path class="st2" d="M193.9,224c0,9.2-6,9.2-6,18.2c0,9.2,6,9.2,6,18.2c0,9.2-6,9.2-6,18.2c0,9.2,6,9.2,6,18.2c0,9.2-6,9.2-6,18.4
	c0,9.2,6,9.2,6,18.2c0,9.2-6,10.6-6,19.8"/>
<path class="st2" d="M187.9,224c0,9.2,6,9.2,6,18.2c0,9.2-6,9.2-6,18.2c0,9.2,6,9.2,6,18.2c0,9.2-6,9.2-6,18.2c0,9.2,6,9.2,6,18.4
	c0,9.2-6,9.2-6,18.2c0,9.2,6,10.6,6,19.8"/>
<g>
	<g>
		
			<linearGradient id="SVGID_1_" gradientUnits="userSpaceOnUse" x1="-1226.8339" y1="930.8737" x2="-1226.8339" y2="839.0471" gradientTransform="matrix(-1 0 0 -1 -1011.8132 1068.2737)">
			<stop  offset="0" style="stop-color:#575757;stop-opacity:0.2"/>
			<stop  offset="1" style="stop-color:#575757"/>
		</linearGradient>
		<path class="st3" d="M192.4,137.4c2.1,0,4.2,1.2,6.3,1.5s4.5-0.3,6.5,0.3c2.1,0.6,3.8,2.4,5.6,3.3c2,0.9,4.4,0.9,6.2,2.1
			c1.8,1.2,2.9,3.3,4.5,4.8c1.7,1.4,3.9,2.1,5.4,3.8c1.4,1.7,1.8,4.1,3,5.9c1.2,1.8,3.2,3.2,4.1,5.1c0.9,2,0.6,4.4,1.2,6.5
			c0.6,2.1,2.1,3.9,2.4,6c0.3,2.1-0.6,4.4-0.6,6.5s0.9,4.4,0.6,6.5c-0.3,2.1-1.8,4.1-2.4,6c-0.6,2.1-0.3,4.5-1.2,6.5
			s-2.9,3.3-4.1,5.1c-1.2,1.8-1.5,4.2-3,5.9c-1.4,1.7-3.8,2.4-5.4,3.8s-2.7,3.6-4.5,4.8s-4.2,1.2-6.2,2.1c-2,0.9-3.6,2.7-5.6,3.3
			c-2.1,0.6-4.4,0-6.5,0.3s-4.2,1.5-6.3,1.5"/>
	</g>
	<g>
		
			<linearGradient id="SVGID_2_" gradientUnits="userSpaceOnUse" x1="-1178.5726" y1="930.9662" x2="-1178.5726" y2="839.1398" gradientTransform="matrix(-1 0 0 -1 -1011.8132 1068.2737)">
			<stop  offset="0" style="stop-color:#575757;stop-opacity:0.2"/>
			<stop  offset="1" style="stop-color:#575757"/>
		</linearGradient>
		<path class="st4" d="M189.4,229.1c-2.1,0-4.2-1.2-6.3-1.5s-4.5,0.3-6.5-0.3c-2.1-0.6-3.8-2.4-5.6-3.3c-2-0.9-4.4-0.9-6.2-2.1
			c-1.8-1.2-2.9-3.3-4.5-4.8c-1.7-1.4-3.9-2.1-5.4-3.8c-1.4-1.7-1.8-4.1-3-5.9s-3.2-3.2-4.1-5.1c-0.9-2-0.6-4.4-1.2-6.5
			c-0.6-2.1-2.1-3.9-2.4-6c-0.3-2.1,0.6-4.4,0.6-6.5s-0.9-4.4-0.6-6.5c0.3-2.1,1.8-4.1,2.4-6c0.6-2.1,0.3-4.5,1.2-6.5
			s2.9-3.3,4.1-5.1c1.2-1.8,1.5-4.2,3-5.9c1.4-1.7,3.8-2.4,5.4-3.8c1.7-1.4,2.7-3.6,4.5-4.8s4.2-1.2,6.2-2.1c2-0.9,3.6-2.7,5.6-3.3
			c2.1-0.6,4.4,0,6.5-0.3s4.2-1.5,6.3-1.5"/>
	</g>
</g>
</svg>
