<?xml version="1.0" encoding="utf-8"?>
<!-- Generator: Adobe Illustrator 22.0.0, SVG Export Plug-In . SVG Version: 6.00 Build 0)  -->
<svg version="1.1" id="Layer_1" xmlns="http://www.w3.org/2000/svg" xmlns:xlink="http://www.w3.org/1999/xlink" x="0px" y="0px"
	 viewBox="0 0 500 800" style="enable-background:new 0 0 500 800;" xml:space="preserve">
<style type="text/css">
	.st0{fill:#FFFFFF;}
	.st1{fill:#E5E1E0;}
	.st2{fill:#969696;}
	.st3{fill:none;stroke:#969696;stroke-width:0.9081;stroke-linecap:round;stroke-miterlimit:10;}
	.st4{fill:none;stroke:#FF2832;stroke-width:0.9081;stroke-linecap:round;stroke-miterlimit:10;}
	.st5{fill:none;stroke:#009632;stroke-width:0.9081;stroke-linecap:round;stroke-miterlimit:10;}
	.st6{fill:#FF2832;}
	.st7{opacity:0.1;fill:#FF2832;enable-background:new    ;}
	.st8{opacity:0.2;fill:#FF2832;enable-background:new    ;}
</style>
<rect class="st0" width="500" height="800"/>
<path class="st1" d="M205.3,522.6c-8-0.3-7.2-25.2-10.1-36.2c-2.7-10.5-5.8-20.8-8-31.4c-2.2-10.3-3.6-20.6-5.3-31
	c-0.9-5.3-1.6-10.7-2.8-16c-0.9-4-3.3-14.9-9-22.8c-14.8-20.1-26.3-28-45.9-43.9c-1-0.8-1.7-2-2.5-3.2c-4.9-7.6,1.9-7.4,6.6-13.9
	c3.1,1.2,6.1,2.6,9,3.5c6,1.9,9.3-0.5,9.9-6.7c0.1-1.3,0.2-2.9,0.9-3.9c3.1-3.9,4.7-8.1,4.9-13c0.1-1.6,1.2-3.5,2.4-4.5
	c6-4.8,6-4.7,2.4-11.3c-1.2-2.2-2.3-4.6-3.1-7c-0.5-1.4-0.8-3.5-0.2-4.3c4.6-5.6,2.5-11.7,1.7-17.7c-0.6-4.8-0.8-9.3,2.5-13.2
	c5.3-6.4,6-13.1,0.6-18.6c-2-2-6.2-3.3-6.7-4.2c-2.1-3.9-5-1.8-7.7-2c-1.4-0.1-3.5-2.4-6.2-2.2c-4.5-0.1-6,0.5-9.9,0
	c-3.9-0.5-7.6-1.9-11.5-2.4c-22.1-2.4-37.7,5.4-48.2,26.6c-1.5,2.9-1.9,6.6-2.3,10c-0.5,5-0.3,10.3-0.3,15.3c0,3,0.5,6.4,1.8,9.1
	c3.6,6.8,6,13.7,6.1,21.5c0,1.7,1.6,6,2.5,7.7c1.7,2.9,4.6,3.4,4.7,6.3c0.3,9.2-2.3,22-7.7,30.8c-1.6,2.6-2.5,5.5-4,8.1
	c-8.4,14.4-8.9,29.6-5,45.4c2.6,9.9,6.3,24.3,10.9,36.6c7,18.7,27.5,33.9,33.9,60.9c2.3,9.8,4.3,31.8,0.8,54
	c-3.6,22.4,5.2,50.6,25.7,56.8c15,4.5,36.6,6.8,70,1.8c0,0,99.1,0.5,106.8,1.7c7.7,1.3,10,11.3,10.2,18.4l0.1,8.6
	c-0.3,12.8-0.9,26,3.7,38c7.7,20.2,17,39.8,25.4,59.8c5,11.9,10.8,20.4,6.7,33.3c-1.7,5.3-3.3,10.6-4.2,16.1
	c-1.2,6.7,3.1,12.2,8.7,12.1c29.6-0.7,59.3-1.6,89-2.2c4.4-0.1,7.6-1.8,9.5-5.6c0.8-1.6,1.5-3.9,0.8-5.2c-0.6-1.3-3.1-1.8-4.9-2.2
	c-3.8-0.9-7.7-1-11.4-2.3c-10.8-3.8-21.5-7.7-32.2-11.8c-3.5-1.3-7.8-2.5-9.7-5.1c-6.5-8.8-16.3-20-18.5-31.3
	c-2.7-13.9-4.6-27.9-6.4-41.9c-1.9-15.3-10.6-96.6-12.3-106.3c0,0-0.9-24-38.4-30.3S205.3,522.6,205.3,522.6z"/>
<path class="st1" d="M312.2,485.2c9.8,0.5,26.8,1,27.4-0.9c0.9-2.7-6.9-4-13.2-5.9c-6.3-1.8-10.9-5.2-20.7-7.4
	c-9.8-2.2-24.5-0.5-26.7-0.9c-60.1-11.1-97.3-13-103.8-17.7c-5.4-11.7-12.6-42.8-26.1-67.2c-15.3-27.3-27.7-38-39.1-35.1
	c-2.7,0.6-11,3.8-11.3,18.2s15.6,51.9,25.4,68.8c9.8,17,22.7,39.9,29,44.2c6.3,4.3,56.6,5,117.5,3.9L312.2,485.2L312.2,485.2z"/>
<circle class="st2" cx="381.8" cy="763.2" r="10"/>
<line class="st3" x1="284.4" y1="477.4" x2="165.2" y2="468.3"/>
<line class="st4" x1="90.2" y1="374.3" x2="165.2" y2="468.3"/>
<line class="st4" x1="90.3" y1="374.2" x2="153" y2="560.1"/>
<path class="st5" d="M153,560.1"/>
<line class="st3" x1="153" y1="560.1" x2="339.7" y2="582"/>
<line class="st3" x1="381.8" y1="763.2" x2="339.7" y2="582"/>
<path class="st2" d="M268.9,774.2L172.6,747V625.1h63.2c7.2,0,13.1-5.9,13.2-13.1c0-7.2-7-3.5-19.8-4c0,0-85.5-2.6-97.2-2.9
	c-17-0.6-37.2-3.8-51.3-6.2c-5.1-0.5-9.2,2.4-11.4,6.5c-6.1-1.6-6.4-4.3-6.8-8c-0.4-3.4-3.7-43-7.4-87c1.2,3.3,4.6,5.5,8.2,5.2
	l5.7-0.5c4.5-0.4,7.8-4.3,7.4-8.8L64,379.2c-0.4-4.4-4.3-7.7-8.7-7.3l-5.7,0.5c-4.4,0.4-7.7,4.3-7.3,8.6c-1.3-1-2.9-1.6-4.7-1.5
	c-3.6,0.3-6.3,3.5-6,7.1c0.7,8.3,17,204.4,17.9,212.3c1.3,11.5,7.1,17.5,20,19.9c2.3,3.8,6.5,6.4,11.2,6.4H152v122l-95.9,27.4
	c-0.1,0-0.2,0.1-0.2,0.2c-4.9,1.8-8.4,6.3-8.6,11.8c-0.2,7.2,5.4,13.2,12.6,13.5c7.2,0.2,13.2-5.4,13.5-12.6c0-1,0-1.9-0.2-2.8
	l89.3-24.5l91.2,25c-0.1,0.6-0.2,1.3-0.2,2c0,7.2,5.8,13,13,13s13-5.8,13-13C279.4,780.6,274.9,775.3,268.9,774.2z"/>
<circle class="st6" cx="90.3" cy="374.2" r="10"/>
<g>
	<circle class="st7" cx="106.1" cy="277.6" r="105.7"/>
	<circle class="st8" cx="106.1" cy="277.6" r="35.1"/>
</g>
<g>
	<circle class="st7" cx="153" cy="559.9" r="105.7"/>
	
		<ellipse transform="matrix(3.327793e-02 -0.9994 0.9994 3.327793e-02 -411.6814 694.183)" class="st8" cx="153" cy="559.9" rx="35.1" ry="35.1"/>
</g>
<g>
	<circle class="st7" cx="90.3" cy="373.9" r="81.4"/>
	<ellipse class="st8" cx="90.2" cy="373.9" rx="27" ry="27"/>
</g>
<circle class="st6" cx="106.2" cy="277.6" r="10"/>
<circle class="st6" cx="153" cy="560.1" r="10"/>
<line class="st4" x1="106.1" y1="277.7" x2="90.2" y2="374.3"/>
<circle class="st2" cx="165.1" cy="468.2" r="10"/>
<circle class="st2" cx="339.7" cy="582" r="10"/>
<path class="st2" d="M469.5,485.3c-1.2-4.8-3.5-6.4-6.3-6.4h-38V342c0.6-1.1,0.6-2.4,1.1-3.5c0.6-5.8-4.1-11.1-9.9-11.7l-16.4-1.7
	l4.7-52.6c0.6-4.7-3.5-9.3-8.2-9.9v-3c0.6-6.5-4.1-12.3-10.6-12.9L370.1,421c6.5,0.6,12.3-4.1,12.9-10.6v-3c4.7,0.6,9.3-3.5,9.9-8.2
	l4.7-52.6l9.9,1.1v131h-33.3c-2.9,0-5.1,1.7-6.3,6.5l-180-0.1V497h172.4v287h-50.7c-8.5,0-16,6.9-16,16H500c0-8.5-6.9-16-16-16
	h-73.7V497.2H500l0,0v-11.8L469.5,485.3z"/>
</svg>
