<?xml version="1.0" encoding="utf-8"?>
<!-- Generator: Adobe Illustrator 22.0.0, SVG Export Plug-In . SVG Version: 6.00 Build 0)  -->
<svg version="1.1" id="Layer_1" xmlns="http://www.w3.org/2000/svg" xmlns:xlink="http://www.w3.org/1999/xlink" x="0px" y="0px"
	 viewBox="0 0 360 300" style="enable-background:new 0 0 360 300;" xml:space="preserve">
<style type="text/css">
	.st0{opacity:0.1;}
	.st1{fill:#FB3942;}
	.st2{opacity:0.3;}
	.st3{opacity:0.8;}
	.st4{fill:url(#SVGID_1_);}
	.st5{fill:#FFFFFF;}
</style>
<g class="st0">
	<path class="st1" d="M266.5,186.7c0-0.7,2.4-1.5,2.4-2.2c-0.1-0.7-2.6-1.1-2.7-1.8c-0.1-0.7,2.2-1.9,2-2.5
		c-0.2-0.7-2.7-0.7-2.9-1.4c-0.2-0.7,1.9-2.2,1.6-2.8c-0.3-0.7-2.8-0.3-3.1-1c-0.3-0.6,1.5-2.4,1.2-3c-0.4-0.6-2.8,0.1-3.2-0.5
		c-0.4-0.6,1.2-2.6,0.7-3.2c-0.4-0.6-2.8,0.5-3.3,0c-0.5-0.5,0.8-2.8,0.2-3.3c-0.5-0.5-2.7,0.9-3.2,0.5c-0.6-0.4,0.3-2.8-0.2-3.3
		c-0.6-0.4-2.5,1.3-3.1,1c-0.6-0.4-0.1-2.9-0.7-3.2c-0.6-0.3-2.3,1.7-2.9,1.4c-0.7-0.3-0.5-2.8-1.2-3c-0.7-0.2-2,2-2.7,1.8
		c-0.7-0.2-0.9-2.7-1.6-2.8c-0.7-0.1-1.7,2.3-2.4,2.2c-0.7-0.1-1.3-2.5-2-2.5c-0.7,0-1.3,2.5-2,2.5c-0.7,0.1-1.7-2.3-2.4-2.2
		c-0.7,0.1-0.9,2.7-1.6,2.8c-0.7,0.2-2-2-2.7-1.8c-0.7,0.2-0.5,2.8-1.2,3c-0.7,0.3-2.3-1.7-2.9-1.4c-0.6,0.3-0.1,2.8-0.7,3.2
		c-0.6,0.4-2.5-1.4-3.1-1c-0.6,0.4,0.3,2.8-0.2,3.3c-0.6,0.4-2.7-1-3.2-0.5c-0.5,0.5,0.7,2.7,0.2,3.3c-0.5,0.5-2.8-0.6-3.3,0
		c-0.4,0.6,1.1,2.6,0.7,3.2c-0.4,0.6-2.9-0.1-3.2,0.5c-0.4,0.6,1.5,2.4,1.2,3c-0.3,0.6-2.9,0.3-3.1,1c-0.3,0.7,1.8,2.1,1.6,2.8
		c-0.2,0.7-2.8,0.7-2.9,1.4c-0.2,0.7,2.1,1.8,2,2.5c-0.1,0.7-2.6,1.1-2.7,1.8c-0.1,0.7,2.4,1.5,2.4,2.2c0,0.7-2.4,1.5-2.4,2.2
		c0.1,0.7,2.6,1.1,2.7,1.8c0.1,0.7-2.2,1.9-2,2.5c0.2,0.7,2.7,0.7,2.9,1.4c0.2,0.7-1.9,2.2-1.6,2.8c0.3,0.7,2.8,0.3,3.1,1
		c0.3,0.6-1.5,2.4-1.2,3c0.4,0.6,2.8-0.1,3.2,0.5c0.4,0.6-1.2,2.6-0.7,3.2c0.4,0.6,2.8-0.5,3.3,0c0.5,0.5-0.8,2.8-0.2,3.3
		c0.5,0.5,2.7-0.9,3.2-0.5c0.6,0.4-0.3,2.8,0.2,3.3c0.6,0.4,2.5-1.3,3.1-1c0.6,0.4,0.1,2.9,0.7,3.2c0.6,0.3,2.3-1.7,2.9-1.4
		c0.7,0.3,0.5,2.8,1.2,3c0.7,0.2,2-2,2.7-1.8c0.7,0.2,0.9,2.7,1.6,2.8c0.7,0.1,1.7-2.3,2.4-2.2c0.7,0.1,1.3,2.5,2,2.5
		c0.7,0,1.3-2.5,2-2.5c0.7-0.1,1.7,2.3,2.4,2.2c0.7-0.1,0.9-2.7,1.6-2.8c0.7-0.2,2,2,2.7,1.8c0.7-0.2,0.5-2.8,1.2-3
		c0.7-0.3,2.3,1.7,2.9,1.4c0.6-0.3,0.1-2.8,0.7-3.2c0.6-0.4,2.5,1.4,3.1,1c0.6-0.4-0.3-2.8,0.2-3.3c0.6-0.4,2.7,1,3.2,0.5
		c0.5-0.5-0.7-2.7-0.2-3.3c0.5-0.5,2.8,0.6,3.3,0c0.4-0.6-1.1-2.6-0.7-3.2c0.4-0.6,2.9,0.1,3.2-0.5c0.4-0.6-1.5-2.4-1.2-3
		c0.3-0.6,2.9-0.3,3.1-1c0.3-0.7-1.8-2.1-1.6-2.8c0.2-0.7,2.8-0.7,2.9-1.4c0.2-0.7-2.1-1.8-2-2.5c0.1-0.7,2.6-1.1,2.7-1.8
		C269,188.2,266.5,187.4,266.5,186.7z"/>
</g>
<g class="st2">
	<path class="st1" d="M254.9,186.7c0-0.4,2.5-0.9,2.4-1.3c0-0.4-2.5-0.6-2.6-1c-0.1-0.4,2.3-1.3,2.2-1.7c-0.1-0.4-2.6-0.2-2.7-0.6
		c-0.1-0.4,2.1-1.6,1.9-2c-0.2-0.4-2.6,0.2-2.8-0.2c-0.2-0.4,1.8-1.9,1.6-2.3c-0.2-0.4-2.5,0.6-2.8,0.3c-0.2-0.3,1.5-2.1,1.2-2.5
		c-0.3-0.3-2.4,1-2.7,0.7c-0.3-0.3,1.2-2.3,0.9-2.6c-0.3-0.3-2.2,1.3-2.6,1.1c-0.3-0.3,0.8-2.5,0.5-2.7c-0.3-0.2-2,1.6-2.4,1.4
		c-0.4-0.2,0.4-2.6,0-2.8c-0.4-0.2-1.7,1.9-2.1,1.8c-0.4-0.2,0-2.6-0.4-2.7c-0.4-0.1-1.4,2.2-1.8,2.1c-0.4-0.1-0.4-2.6-0.8-2.7
		c-0.4-0.1-1.1,2.3-1.5,2.3c-0.4,0-0.7-2.5-1.2-2.5c-0.4,0-0.7,2.5-1.2,2.5c-0.4,0-1.1-2.4-1.5-2.3c-0.4,0.1-0.4,2.6-0.8,2.7
		c-0.4,0.1-1.5-2.2-1.8-2.1c-0.4,0.1,0,2.6-0.4,2.7c-0.4,0.2-1.8-1.9-2.1-1.8c-0.4,0.2,0.4,2.6,0.1,2.8c-0.4,0.2-2-1.7-2.4-1.4
		c-0.3,0.2,0.8,2.5,0.5,2.7c-0.3,0.3-2.3-1.3-2.6-1.1c-0.3,0.3,1.1,2.3,0.9,2.6c-0.3,0.3-2.4-1-2.7-0.7c-0.3,0.3,1.5,2.1,1.2,2.5
		c-0.2,0.3-2.5-0.6-2.8-0.3c-0.2,0.4,1.8,1.9,1.6,2.3c-0.2,0.4-2.6-0.2-2.8,0.2c-0.2,0.4,2,1.6,1.9,2c-0.1,0.4-2.6,0.2-2.7,0.6
		c-0.1,0.4,2.3,1.3,2.2,1.7c-0.1,0.4-2.6,0.6-2.6,1c0,0.4,2.4,0.9,2.4,1.3c0,0.4-2.5,0.9-2.4,1.3c0,0.4,2.5,0.6,2.6,1
		c0.1,0.4-2.3,1.3-2.2,1.7c0.1,0.4,2.6,0.2,2.7,0.6c0.1,0.4-2.1,1.6-1.9,2c0.2,0.4,2.6-0.2,2.8,0.2c0.2,0.4-1.8,1.9-1.6,2.3
		c0.2,0.4,2.5-0.6,2.8-0.3c0.2,0.3-1.5,2.1-1.2,2.5c0.3,0.3,2.4-1,2.7-0.7c0.3,0.3-1.2,2.3-0.9,2.6c0.3,0.3,2.2-1.3,2.6-1.1
		c0.3,0.3-0.8,2.5-0.5,2.7c0.3,0.2,2-1.6,2.4-1.4c0.4,0.2-0.4,2.6,0,2.8c0.4,0.2,1.7-1.9,2.1-1.8c0.4,0.2,0,2.6,0.4,2.7
		c0.4,0.1,1.4-2.2,1.8-2.1c0.4,0.1,0.4,2.6,0.8,2.7c0.4,0.1,1.1-2.3,1.5-2.3c0.4,0,0.7,2.5,1.2,2.5c0.4,0,0.7-2.5,1.2-2.5
		c0.4,0,1.1,2.4,1.5,2.3c0.4-0.1,0.4-2.6,0.8-2.7c0.4-0.1,1.5,2.2,1.8,2.1c0.4-0.1,0-2.6,0.4-2.7c0.4-0.2,1.8,1.9,2.1,1.8
		c0.4-0.2-0.4-2.6-0.1-2.8c0.4-0.2,2,1.7,2.4,1.4c0.3-0.2-0.8-2.5-0.5-2.7c0.3-0.3,2.3,1.3,2.6,1.1c0.3-0.3-1.1-2.3-0.9-2.6
		c0.3-0.3,2.4,1,2.7,0.7c0.3-0.3-1.5-2.1-1.2-2.5c0.2-0.3,2.5,0.6,2.8,0.3c0.2-0.4-1.8-1.9-1.6-2.3c0.2-0.4,2.6,0.2,2.8-0.2
		c0.2-0.4-2-1.6-1.9-2c0.1-0.4,2.6-0.2,2.7-0.6c0.1-0.4-2.3-1.3-2.2-1.7c0.1-0.4,2.6-0.6,2.6-1C257.3,187.7,254.9,187.1,254.9,186.7
		z"/>
</g>
<g class="st3">
	<radialGradient id="SVGID_1_" cx="239.3504" cy="186.7265" r="11.5198" gradientUnits="userSpaceOnUse">
		<stop  offset="0" style="stop-color:#FF2832;stop-opacity:0.2"/>
		<stop  offset="1" style="stop-color:#FF2832"/>
	</radialGradient>
	<path class="st4" d="M248.4,186.7c0-0.3,2.5-0.6,2.4-0.9c0-0.3-2.5-0.2-2.5-0.5c0-0.3,2.3-1,2.3-1.2c-0.1-0.3-2.5,0.1-2.6-0.1
		c-0.1-0.2,2.2-1.3,2.1-1.5c-0.1-0.2-2.5,0.5-2.6,0.3c-0.1-0.2,2-1.6,1.8-1.8c-0.1-0.2-2.4,0.9-2.5,0.7c-0.1-0.2,1.7-1.9,1.5-2.1
		c-0.2-0.2-2.2,1.2-2.4,1c-0.2-0.2,1.4-2.1,1.2-2.3c-0.2-0.2-2,1.5-2.2,1.4c-0.2-0.2,1.1-2.3,0.8-2.4c-0.2-0.1-1.7,1.8-2,1.7
		c-0.2-0.1,0.7-2.4,0.5-2.5c-0.2-0.1-1.5,2-1.7,2c-0.2-0.1,0.3-2.5,0.1-2.6c-0.2-0.1-1.1,2.2-1.4,2.2c-0.2-0.1,0-2.5-0.3-2.6
		c-0.3,0-0.8,2.4-1,2.4c-0.3,0-0.4-2.5-0.7-2.5c-0.3,0-0.4,2.5-0.7,2.5c-0.3,0-0.8-2.4-1-2.4c-0.3,0-0.1,2.5-0.3,2.6
		c-0.3,0.1-1.1-2.3-1.4-2.2c-0.2,0.1,0.3,2.5,0.1,2.6c-0.2,0.1-1.5-2.1-1.7-2c-0.2,0.1,0.7,2.4,0.5,2.5c-0.2,0.1-1.8-1.8-2-1.7
		c-0.2,0.1,1,2.3,0.8,2.4c-0.2,0.2-2-1.5-2.2-1.4c-0.2,0.2,1.4,2.1,1.2,2.3c-0.2,0.2-2.2-1.2-2.4-1c-0.2,0.2,1.7,1.9,1.5,2.1
		c-0.1,0.2-2.4-0.9-2.5-0.7c-0.1,0.2,1.9,1.6,1.8,1.8c-0.1,0.2-2.5-0.5-2.6-0.3c-0.1,0.2,2.2,1.3,2.1,1.5c-0.1,0.2-2.5-0.1-2.6,0.1
		c-0.1,0.2,2.3,1,2.3,1.2c0,0.3-2.5,0.2-2.5,0.5c0,0.3,2.4,0.6,2.4,0.9c0,0.3-2.5,0.6-2.4,0.9c0,0.3,2.5,0.2,2.5,0.5
		c0,0.3-2.3,1-2.3,1.2c0.1,0.3,2.5-0.1,2.6,0.1c0.1,0.2-2.2,1.3-2.1,1.5c0.1,0.2,2.5-0.5,2.6-0.3c0.1,0.2-2,1.6-1.8,1.8
		c0.1,0.2,2.4-0.9,2.5-0.7c0.1,0.2-1.7,1.9-1.5,2.1c0.2,0.2,2.2-1.2,2.4-1c0.2,0.2-1.4,2.1-1.2,2.3c0.2,0.2,2-1.5,2.2-1.4
		c0.2,0.2-1.1,2.3-0.8,2.4c0.2,0.1,1.7-1.8,2-1.7c0.2,0.1-0.7,2.4-0.5,2.5c0.2,0.1,1.5-2,1.7-2c0.2,0.1-0.3,2.5-0.1,2.6
		c0.2,0.1,1.1-2.2,1.4-2.2c0.2,0.1,0,2.5,0.3,2.6c0.3,0,0.8-2.4,1-2.4c0.3,0,0.4,2.5,0.7,2.5c0.3,0,0.4-2.5,0.7-2.5
		c0.3,0,0.8,2.4,1,2.4c0.3,0,0.1-2.5,0.3-2.6c0.3-0.1,1.1,2.3,1.4,2.2c0.2-0.1-0.3-2.5-0.1-2.6c0.2-0.1,1.5,2.1,1.7,2
		c0.2-0.1-0.7-2.4-0.5-2.5c0.2-0.1,1.8,1.8,2,1.7c0.2-0.1-1-2.3-0.8-2.4c0.2-0.2,2,1.5,2.2,1.4c0.2-0.2-1.4-2.1-1.2-2.3
		c0.2-0.2,2.2,1.2,2.4,1c0.2-0.2-1.7-1.9-1.5-2.1c0.1-0.2,2.4,0.9,2.5,0.7c0.1-0.2-1.9-1.6-1.8-1.8c0.1-0.2,2.5,0.5,2.6,0.3
		c0.1-0.2-2.2-1.3-2.1-1.5c0.1-0.2,2.5,0.1,2.6-0.1c0.1-0.2-2.3-1-2.3-1.2c0-0.3,2.5-0.2,2.5-0.5C250.9,187.3,248.4,187,248.4,186.7
		z"/>
</g>
<g>
	<path class="st5" d="M242.5,186.7c0-0.2,1.5-0.5,1.5-0.7c0-0.2-1.6,0-1.6-0.2c-0.1-0.2,1.3-0.9,1.3-1.1c-0.1-0.2-1.5,0.4-1.6,0.3
		c-0.1-0.2,1-1.2,0.9-1.4c-0.1-0.1-1.4,0.8-1.5,0.7c-0.1-0.1,0.6-1.5,0.5-1.6c-0.2-0.1-1.1,1.2-1.2,1.1c-0.2-0.1,0.2-1.6,0-1.7
		c-0.2-0.1-0.7,1.4-0.9,1.4c-0.2,0-0.3-1.6-0.4-1.6c-0.2,0-0.3,1.6-0.4,1.6c-0.2,0-0.7-1.5-0.9-1.4c-0.2,0.1,0.2,1.6,0,1.7
		c-0.2,0.1-1.1-1.2-1.2-1.1c-0.2,0.1,0.6,1.5,0.5,1.6c-0.1,0.1-1.4-0.9-1.5-0.7c-0.1,0.1,1,1.2,0.9,1.4c-0.1,0.2-1.6-0.4-1.6-0.3
		c-0.1,0.2,1.3,0.9,1.3,1.1c-0.1,0.2-1.6,0-1.6,0.2c0,0.2,1.5,0.5,1.5,0.7c0,0.2-1.5,0.5-1.5,0.7c0,0.2,1.6,0,1.6,0.2
		c0.1,0.2-1.3,0.9-1.3,1.1c0.1,0.2,1.5-0.4,1.6-0.3c0.1,0.2-1,1.2-0.9,1.4c0.1,0.1,1.4-0.8,1.5-0.7c0.1,0.1-0.6,1.5-0.5,1.6
		c0.2,0.1,1.1-1.2,1.2-1.1c0.2,0.1-0.2,1.6,0,1.7c0.2,0.1,0.7-1.4,0.9-1.4c0.2,0,0.3,1.6,0.4,1.6c0.2,0,0.3-1.6,0.4-1.6
		c0.2,0,0.7,1.5,0.9,1.4c0.2-0.1-0.2-1.6,0-1.7c0.2-0.1,1.1,1.2,1.2,1.1c0.2-0.1-0.6-1.5-0.5-1.6c0.1-0.1,1.4,0.9,1.5,0.7
		c0.1-0.1-1-1.2-0.9-1.4c0.1-0.2,1.6,0.4,1.6,0.3c0.1-0.2-1.3-0.9-1.3-1.1c0.1-0.2,1.6,0,1.6-0.2C244,187.2,242.5,186.9,242.5,186.7
		z"/>
</g>
</svg>
