<?xml version="1.0" encoding="utf-8"?>
<!-- Generator: Adobe Illustrator 22.0.0, SVG Export Plug-In . SVG Version: 6.00 Build 0)  -->
<svg version="1.1" id="Layer_1" xmlns="http://www.w3.org/2000/svg" xmlns:xlink="http://www.w3.org/1999/xlink" x="0px" y="0px"
	 viewBox="0 0 1440 780" style="enable-background:new 0 0 1440 780;" xml:space="preserve">
<style type="text/css">
	.st0{fill:#EFEBEA;}
	.st1{opacity:0.2;fill:#FF2832;enable-background:new    ;}
	.st2{fill:none;stroke:#FF2832;stroke-width:1.0406;stroke-miterlimit:10;}
	.st3{fill:#FF2832;}
	.st4{opacity:0.2;fill:#009632;enable-background:new    ;}
	.st5{fill:none;stroke:#009632;stroke-width:1.0406;stroke-miterlimit:10;}
	.st6{fill:#009632;}
	.st7{opacity:0.2;fill:#FFC800;enable-background:new    ;}
	.st8{fill:none;stroke:#FFC800;stroke-width:1.0406;stroke-miterlimit:10;}
	.st9{fill:#FFC800;}
	.st10{enable-background:new    ;}
	.st11{fill:none;}
</style>
<g>
	<g>
		<path class="st0" d="M441.1,207.2c-0.3-3.5-1.7-11-1.7-11l-0.4-2.9l0,0c0,0-1.6-18.1-2-25.9c-0.5-7.7-3.8-16.9-5.3-22.5
			s3.3-17.8-1-33c-2.5-9.5,0-18.4-5.1-25c-5.6-7.2-11.6-6.4-14.1-6.8l0,0c-2.9-0.5-6.3-1-8.4-1.9c-5.1-2.2-8.3-4.4-11.2-5.7
			c-2.1-0.9-2.3-7.1-2.2-10.8c1.7-1.1,3-2.3,3.7-3.3c1-1.6,1.8-6.1,2.2-10.2c0.4,0.1,0.9,0,1.7-0.4c1.9-0.9,2.5-6.4,1.2-8.9
			c-0.1-0.2-0.2-0.4-0.4-0.6c0.7-5.5,1.4-14.7-1.4-18.8c-4-6.1-13-6.3-16-6.6c-4-0.4-11.2-0.3-13,4.2c-8.4,0.8-7.4,14.1-6.2,21.2
			c-0.1,0.1-0.2,0.3-0.3,0.5c-1.3,2.5-0.7,7.9,1.2,8.9c0.9,0.4,1.5,0.5,1.8,0.4c0.4,4.1,1.2,8.6,2.2,10.2c0.7,1,1.9,2.2,3.6,3.3
			c0.1,3.7-0.1,9.9-2.2,10.8c-2.9,1.3-6.1,3.5-11.2,5.7c-2.1,0.9-5.5,1.4-8.4,1.9c-2.5,0.3-8.6-0.4-14.1,6.8
			c-5.1,6.6-2.7,15.6-5.1,25c-4.3,15.3,0.5,27.4-1,33s-4.8,14.8-5.3,22.5s-2,25.9-2,25.9l0,0l-0.4,2.9c0,0-1.4,7.5-1.7,11
			c-0.2,2.3,0.3,5.8,1.8,8.9c2.7,5.3,8.1,9.3,8.1,9.3c0.7,0.8,4.9,1.2,2.6-1.8c-4.5-5.9-5-9.9-5-9.9s-0.6-4.8,0.8-4.8
			c1.1-0.1,2.3,2.4,2.7,3.6c0.8,2.3,1.1,5.9,2.7,5.1c0.6-0.3,0.4-1,0.3-2.4c0-0.7,0.2-1.9,0.1-2.6c-0.1-0.6-0.9-3.8-1.2-4.8
			c-0.3-1-1.6-4.8-2-5.8c-0.4-1.1-0.8-3.1-0.7-4.6c0.1-1.5,2.7-10.4,3.9-13c0.8-1.9,9.7-13.9,11.3-37.6c0.4-5.6,1.8-13.5,2.7-21.1
			c0.7,3.5,1.3,6.9,1.4,9.5c0.3,7.8,2.6,19.3,1.9,25.2c-1.6,13.6-5.1,13.2-5.1,35.6c0,14.8-0.6,42.2,7,74.9
			c1.1,4.8,0.1,11.4-0.5,16.3c-1.1,9.2,1.6,21.5,7.2,49.4c5.4,26.8-11.1,23.7-8.3,30c1.2,2.6,16.3,1.8,21,1.6
			c1.4-0.1,2.5-1.2,2.6-2.5c0.1-1.4-0.6-3-1.9-7.2c-1.5-4.8-0.9-11.9-0.9-11.9s3-43.6,3-49.8c0-7-0.5-11.7-1-14.5
			c-0.4-2.4-0.6-4.8,0-7.2c4.4-19.6,4.4-69.6,4.4-69.7h4.7c0,0,0.1,50,4.4,69.7c0.5,2.4,0.4,4.8,0,7.2c-0.5,2.8-1,7.5-1,14.5
			c0,6.2,3,49.8,3,49.8s0.6,7.1-0.9,11.9c-1.3,4.1-2,5.7-1.9,7.2c0.1,1.4,1.2,2.5,2.6,2.5c4.7,0.2,19.8,1,21-1.6
			c2.8-6.3-13.7-3.2-8.3-30c5.7-27.9,8.3-40.2,7.2-49.4c-0.6-4.9-1.6-11.5-0.5-16.3c7.6-32.6,7-60.1,7-74.9
			c0-22.5-3.5-22.1-5.1-35.6c-0.7-5.8,1.7-17.3,1.9-25.2c0.1-2.6,0.7-6,1.4-9.5c0.9,7.6,2.3,15.6,2.7,21.1
			c1.6,23.7,11,36.4,11.8,38.1c0.9,2.2,3.4,11,3.4,12.6c0.1,1.5-0.3,3.5-0.7,4.6c-0.3,1-1.7,4.8-2,5.8s-1.1,4.1-1.2,4.8
			s0.2,1.9,0.1,2.6c-0.1,1.4-0.3,2.1,0.3,2.4c1.6,0.7,1.9-2.8,2.7-5.1c0.4-1.2,1.6-3.7,2.7-3.6c1.3,0.1,0.8,4.8,0.8,4.8
			s-0.5,4-5,9.9c-2.3,3,1.9,2.6,2.6,1.8c0,0,5.4-4.1,8.1-9.3C440.9,213,441.3,209.5,441.1,207.2z"/>
		<circle class="st1" cx="379.7" cy="37.9" r="14.7"/>
		<circle class="st1" cx="379.7" cy="168.7" r="14.7"/>
		<g>
			<path class="st2" d="M383.5,46.4c0,9.5-7.3,9.5-7.3,19.1c0,9.5,7.3,9.5,7.3,19.1s-7.3,9.6-7.3,19.1c0,9.6,7.3,9.6,7.3,19.1
				c0,9.6-7.3,9.6-7.3,19.1s7.3,9.6,7.3,19.1"/>
		</g>
		<g>
			<path class="st2" d="M376.2,161c0-9.5,7.3-9.5,7.3-19.1c0-9.5-7.3-9.5-7.3-19.1s7.3-9.6,7.3-19.1c0-9.6-7.3-9.6-7.3-19.1
				c0-9.6,7.3-9.6,7.3-19.1s-7.3-9.6-7.3-19.1"/>
		</g>
		<circle class="st3" cx="379.7" cy="37.9" r="9.2"/>
		<circle class="st3" cx="379.7" cy="168.7" r="9.2"/>
	</g>
	<g>
		<path class="st0" d="M716.6,207.2c-0.3-3.5-1.7-11-1.7-11l-0.4-2.9l0,0c0,0-1.6-18.1-2-25.9c-0.5-7.7-3.8-16.9-5.3-22.5
			s3.3-17.8-1-33c-2.5-9.5,0-18.4-5.1-25c-5.6-7.2-11.6-6.4-14.1-6.8l0,0c-2.9-0.5-6.3-1-8.4-1.9c-5.1-2.2-8.3-4.4-11.2-5.7
			c-2.1-0.9-2.3-7.1-2.2-10.8c1.7-1.1,3-2.3,3.7-3.3c1-1.6,1.8-6.1,2.2-10.2c0.4,0.1,0.9,0,1.7-0.4c1.9-0.9,2.5-6.4,1.2-8.9
			c-0.1-0.2-0.2-0.4-0.4-0.6c0.7-5.5,1.4-14.7-1.4-18.8c-4-6.1-13-6.3-16-6.6c-4-0.4-11.2-0.3-13,4.2c-8.4,0.8-7.4,14.1-6.2,21.2
			c-0.1,0.1-0.2,0.3-0.3,0.5c-1.3,2.5-0.7,7.9,1.2,8.9c0.9,0.4,1.5,0.5,1.8,0.4c0.4,4.1,1.2,8.6,2.2,10.2c0.7,1,1.9,2.2,3.6,3.3
			c0.1,3.7-0.1,9.9-2.2,10.8c-2.9,1.3-6.1,3.5-11.2,5.7c-2.1,0.9-5.5,1.4-8.4,1.9c-2.5,0.3-8.6-0.4-14.1,6.8
			c-5.1,6.6-2.7,15.6-5.1,25c-4.3,15.3,0.5,27.4-1,33s-4.8,14.8-5.3,22.5s-2,25.9-2,25.9l0,0l-0.4,2.9c0,0-1.4,7.5-1.7,11
			c-0.2,2.3,0.3,5.8,1.8,8.9c2.7,5.3,8.1,9.3,8.1,9.3c0.7,0.8,4.9,1.2,2.6-1.8c-4.5-5.9-5-9.9-5-9.9s-0.6-4.8,0.8-4.8
			c1.1-0.1,2.3,2.4,2.7,3.6c0.8,2.3,1.1,5.9,2.7,5.1c0.6-0.3,0.4-1,0.3-2.4c0-0.7,0.2-1.9,0.1-2.6c-0.1-0.6-0.9-3.8-1.2-4.8
			s-1.6-4.8-2-5.8c-0.4-1.1-0.8-3.1-0.7-4.6s2.7-10.4,3.9-13c0.8-1.9,9.7-13.9,11.3-37.6c0.4-5.6,1.8-13.5,2.7-21.1
			c0.7,3.5,1.3,6.9,1.4,9.5c0.3,7.8,2.6,19.3,1.9,25.2c-1.6,13.6-5.1,13.2-5.1,35.6c0,14.8-0.6,42.2,7,74.9
			c1.1,4.8,0.1,11.4-0.5,16.3c-1.1,9.2,1.6,21.5,7.2,49.4c5.4,26.8-11.1,23.7-8.3,30c1.2,2.6,16.3,1.8,21,1.6
			c1.4-0.1,2.5-1.2,2.6-2.5c0.1-1.4-0.6-3-1.9-7.2c-1.5-4.8-0.9-11.9-0.9-11.9s3-43.6,3-49.8c0-7-0.5-11.7-1-14.5
			c-0.4-2.4-0.6-4.8,0-7.2c4.4-19.6,4.4-69.6,4.4-69.7h4.7c0,0,0.1,50,4.4,69.7c0.5,2.4,0.4,4.8,0,7.2c-0.5,2.8-1,7.5-1,14.5
			c0,6.2,3,49.8,3,49.8s0.6,7.1-0.9,11.9c-1.3,4.1-2,5.7-1.9,7.2c0.1,1.4,1.2,2.5,2.6,2.5c4.7,0.2,19.8,1,21-1.6
			c2.8-6.3-13.7-3.2-8.3-30c5.7-27.9,8.3-40.2,7.2-49.4c-0.6-4.9-1.6-11.5-0.5-16.3c7.6-32.6,7-60.1,7-74.9
			c0-22.5-3.5-22.1-5.1-35.6c-0.7-5.8,1.7-17.3,1.9-25.2c0.1-2.6,0.7-6,1.4-9.5c0.9,7.6,2.3,15.6,2.7,21.1
			c1.6,23.7,11,36.4,11.8,38.1c0.9,2.2,3.4,11,3.4,12.6c0.1,1.5-0.3,3.5-0.7,4.6c-0.3,1-1.7,4.8-2,5.8s-1.1,4.1-1.2,4.8
			c-0.1,0.7,0.2,1.9,0.1,2.6c-0.1,1.4-0.3,2.1,0.3,2.4c1.6,0.7,1.9-2.8,2.7-5.1c0.4-1.2,1.6-3.7,2.7-3.6c1.3,0.1,0.8,4.8,0.8,4.8
			s-0.5,4-5,9.9c-2.3,3,1.9,2.6,2.6,1.8c0,0,5.4-4.1,8.1-9.3C716.3,213,716.8,209.5,716.6,207.2z"/>
		<circle class="st1" cx="655.2" cy="37.9" r="14.7"/>
		<circle class="st1" cx="655.2" cy="168.7" r="14.7"/>
		<g>
			<path class="st2" d="M658.9,46.4c0,9.5-7.3,9.5-7.3,19.1c0,9.5,7.3,9.5,7.3,19.1s-7.3,9.6-7.3,19.1c0,9.6,7.3,9.6,7.3,19.1
				c0,9.6-7.3,9.6-7.3,19.1s7.3,9.6,7.3,19.1"/>
		</g>
		<g>
			<path class="st2" d="M651.7,161c0-9.5,7.3-9.5,7.3-19.1c0-9.5-7.3-9.5-7.3-19.1s7.3-9.6,7.3-19.1c0-9.6-7.3-9.6-7.3-19.1
				c0-9.6,7.3-9.6,7.3-19.1s-7.3-9.6-7.3-19.1"/>
		</g>
		<circle class="st3" cx="655.2" cy="37.9" r="9.2"/>
		<circle class="st3" cx="655.2" cy="168.7" r="9.2"/>
	</g>
	<g>
		<path class="st0" d="M570.7,206.8c-0.2-3.5-1.4-11-1.4-11l-0.3-3l0.1,0.1c0,0-0.9-18.2-1.1-26c-0.2-7.8-3.5-18.3-4.8-23.9
			c-1.3-5.7-1.7-16.8-1.5-30.2c0.2-13.8-0.8-24.6-3.2-28c-2.8-4-8.4-5.4-10.6-5.9c-1.7-0.5-3.6-1-5.6-1.6c0,0,0,0,0-0.1
			c2.5-6.5,2.5-13.8,0.1-20.4c-0.7-1.9-1.5-3.7-2-5.7c-0.7-3-0.4-6-0.5-9.1c-0.2-5.4-0.6-12.2-3.2-17.1c-2.1-4-5.2-8-10-8.4
			c-1.1-0.1-1.6,0.2-2.5-0.4c-1-0.6-3.1-2.4-6.3-2.9c-9.5-1.5-17.7,4.1-21.6,12.7c-2.9,6.3-3.1,13.4-2.9,20.3c0.1,2.9,0.2,5.8-1,8.4
			c-1.7,3.8-5.9,5.9-8.3,9.3c-1.9,2.7-2.5,6.2-2.7,9.5c-0.1,2.2,0,4.4,0.5,6.5c-1.1,0.5-2.3,1.2-3.3,2.1l0,0l0,0
			c-0.2,0.1-0.3,0.3-0.5,0.5l0,0c-0.1,0.1-0.3,0.3-0.4,0.4l-0.1,0.1c-0.1,0.1-0.2,0.2-0.3,0.4c0,0.1-0.1,0.1-0.1,0.2
			c-0.1,0.2-0.3,0.4-0.4,0.5c-2.4,3.4-3.4,14.6-3.2,28.4c0.2,13.5-0.2,24.6-1.5,30.2c-1.3,5.7-4.6,16.2-4.8,23.9c0,0.2,0,0.3,0,0.5
			v0.1c0,0.2,0,0.4,0,0.5v0.1c0,0.2,0,0.3,0,0.5v0.1c0,0.2,0,0.4,0,0.6v0.1c0,0.2,0,0.4,0,0.5v0.1c0,0.2,0,0.4,0,0.6
			c0,0.1,0,0.1,0,0.2c0,0.2,0,0.4,0,0.6l0,0c0,0.2,0,0.5,0,0.7v0.1c0,0.2,0,0.5,0,0.7l0,0c0,0.3,0,0.5,0,0.8l0,0c0,0.5,0,1-0.1,1.6
			v0.1c0,0.8-0.1,1.6-0.1,2.5l0,0c0,0.3,0,0.5,0,0.8l0,0c-0.3,7.1-0.7,13.9-0.7,13.9l0,0l-0.3,2.9c0,0-1.2,7.5-1.4,11
			c-0.1,2.3,0.5,5.8,2.1,8.8c2.9,5.2,7.2,7.8,7.2,7.8c0.7,0.7,4.9,1,2.6-1.9c-4.7-5.8-4.1-8.5-4.1-8.5s-0.7-4.8,0.6-4.9
			c1.1-0.1,2.4,2.3,2.8,3.6c0.9,2.3,1.4,5.8,2.9,5c0.6-0.3,0.3-1,0.2-2.4c-0.1-0.7,0.1-1.9,0-2.6c-0.1-0.6-1-3.8-1.3-4.7
			c-0.3-1-1.8-4.7-2.2-5.7c-0.5-1.1-0.9-3.1-0.9-4.6s2.5-10.9,3-12.7c0.4-1.8,10.5-27.9,10.5-38.6c0-5.3,0.4-13.5,0.7-21.2
			c1,5.3,2.2,11.4,3,14.1c1.1,3.7,1.5,12.3-1.5,18.5c-0.2,0.4-0.4,0.7-0.6,1.1c-0.9,1.6-1.8,3.1-2.5,4.7
			c-7.4,14.6-8.1,27.2-8.1,36.4c0,1.5,0.1,3,0.2,4.8l0,0c0-0.2,0-0.4,0-0.5c0.4,5.5,1.5,13,3.7,25.9c-0.2-0.8-0.3-1.2-0.3-1.2
			c1.7,10.2,4.2,23.8,7.6,42.6c0.9,4.8,1.1,9.7,0.7,14.6c-0.8,9,0.2,21.9,5.8,49.9c2.3,11.4,1.2,17.7-0.7,21.6l0,0
			c-2.7,5.5-6.9,6.2-5.5,9.9c2.2,2.6,13,1.7,17.7,1.5c1.3-0.1,2.4-0.2,3.1-2c0.5-1.3,0.6-2.1-1.7-7.5c-1.4-3.2-1.3-8.6-1.3-8.6
			s3.4-46.8,3.4-53.5c0-6.5-0.4-11.1-0.9-14.1c-0.5-2.9-0.5-5.8-0.2-8.7c0.5-4.3,1-10.2,1.5-16.8c0,0.2,0,0.4,0,0.6
			c2.7-33.6,3.2-55.3,3.2-55.3h4l-0.1,0.1c0,0,1.3,50.6,4.3,71.8c0.4,2.8,0.4,5.7,0,8.5c-0.4,2.9-0.9,7.4-0.9,13.9
			c0,6.2,3,49.9,3,49.9s0.4,5-0.3,9.5c-0.1,0.3-0.1,0.6-0.2,0.9c0,0,0.1-0.5,0.3-1.2c-0.1,0.9-0.3,1.8-0.6,2.6
			c-1.3,4.1-2,5.7-1.9,7.2c0.1,1.4,1.2,2.5,2.6,2.5c4.7,0.2,16.8,1.2,18.1-1.4c2.9-6.3-12.9-4.3-6.2-31.6
			c6.7-27.7,7.4-40.7,6.3-49.9c-0.6-4.9-0.5-9.8,0.2-14.7c6.1-39.8,12.2-57.5,12.2-72.3c0-11.4-0.9-18.8-2.6-24.7l0,0
			c-0.1-0.4-0.2-0.8-0.4-1.2l0,0c-0.4-1.2-0.8-2.3-1.2-3.4l0,0c-0.1-0.4-0.3-0.7-0.4-1.1l0,0c-0.3-0.7-0.6-1.4-1-2.1l0,0
			c-0.2-0.3-0.3-0.7-0.5-1c0,0,0,0,0-0.1c-0.2-0.3-0.3-0.7-0.5-1c0,0,0,0,0-0.1c-0.4-0.7-0.7-1.4-1.1-2.1c0,0,0,0,0-0.1
			c-0.2-0.3-0.4-0.7-0.6-1v-0.1c-0.2-0.3-0.4-0.7-0.6-1v-0.1c-0.2-0.4-0.4-0.7-0.6-1.1c-2.8-4.9-2.7-14-1.8-19.7
			c0-0.2,0.1-0.3,0.1-0.5v-0.1c0-0.2,0.1-0.3,0.1-0.5v-0.1c0-0.2,0.1-0.3,0.1-0.5v-0.1c0-0.2,0.1-0.4,0.1-0.6V135
			c0-0.2,0.1-0.4,0.1-0.6c0,0,0,0,0-0.1c0-0.2,0.1-0.4,0.1-0.7v-0.1c0-0.2,0.1-0.5,0.1-0.7l0,0c0.1-0.2,0.1-0.5,0.2-0.7V132
			c0.1-0.2,0.1-0.5,0.2-0.8v-0.1c0.1-0.2,0.1-0.5,0.2-0.7v-0.1c0.1-0.3,0.1-0.5,0.2-0.8v-0.1c0.1-0.3,0.1-0.5,0.2-0.8l0,0
			c0.1-0.3,0.1-0.6,0.2-0.8c0-0.1,0-0.1,0-0.2c0.1-0.3,0.1-0.6,0.2-0.8c0,0,0,0,0-0.1c0.1-0.3,0.1-0.5,0.2-0.8c0-0.1,0-0.1,0-0.2
			s0.1-0.3,0.1-0.4c0,0.3,0,0.6,0,0.9c0,0.1,0,0.1,0,0.2c0,0.4,0,0.8,0.1,1.2v0.1c0,0.4,0,0.8,0.1,1.3v0.1c0,0.4,0,0.8,0.1,1.3
			c0,0.1,0,0.1,0,0.2c0,0.4,0,0.8,0.1,1.2v0.1c0,0.4,0,0.8,0.1,1.3v0.1c0,0.4,0,0.9,0,1.3l0,0c0,0.4,0,0.8,0,1.2v0.1
			c0,0.4,0,0.8,0,1.2v0.1c0,0.4,0,0.8,0,1.1c0,0.1,0,0.1,0,0.2c0,0.4,0,0.7,0,1.1c0,0.1,0,0.1,0,0.2c0,0.4,0,0.7,0,1
			c0,0.1,0,0.1,0,0.2c0,0.3,0,0.7,0,1c0,0.1,0,0.1,0,0.2c0,0.3,0,0.6,0,1v0.1c0,0.3,0,0.6,0,0.9v0.1c0,0.3,0,0.6,0,0.9
			c0,0.2,0,0.5,0,0.7v0.1c0,0.2,0,0.5,0,0.7v0.1c0,0.3,0,0.5,0.1,0.8v0.1c0,0.3,0.1,0.5,0.1,0.8v0.1c0,0.3,0.1,0.6,0.1,0.9
			c0,0.1,0,0.1,0,0.2c0,0.3,0.1,0.6,0.1,0.9c0,0.1,0,0.1,0,0.2c0.1,0.3,0.1,0.6,0.2,1l0,0c0.1,0.3,0.1,0.6,0.2,1c0,0.1,0,0.1,0,0.2
			c0.1,0.3,0.1,0.6,0.2,1c0,0.1,0,0.1,0,0.2c0.1,0.3,0.1,0.7,0.2,1v0.1c0.1,0.3,0.2,0.7,0.2,1v0.1c0.1,0.3,0.2,0.7,0.3,1
			c0,0.1,0,0.1,0.1,0.2c0.1,0.3,0.2,0.7,0.3,1c0,0.1,0,0.1,0,0.2c0.1,0.4,0.2,0.7,0.3,1.1c0,0,0,0,0,0.1c0.1,0.4,0.2,0.7,0.3,1.1
			c0,0.1,0,0.1,0,0.2c0.1,0.4,0.2,0.7,0.3,1.1c0,0.1,0,0.1,0.1,0.2c0.1,0.4,0.2,0.7,0.3,1.1c0,0.1,0,0.1,0,0.2
			c0.1,0.4,0.2,0.7,0.3,1.1v0.1c0.1,0.4,0.2,0.7,0.3,1.1c0,0.1,0,0.1,0.1,0.2c0.1,0.3,0.2,0.7,0.3,1c0,0.1,0,0.1,0.1,0.2
			c0.1,0.4,0.2,0.7,0.3,1.1c0,0,0,0,0,0.1c0.1,0.3,0.2,0.7,0.3,1c0,0.1,0,0.1,0,0.2c0.1,0.3,0.2,0.7,0.3,1c0,0.1,0,0.1,0.1,0.2
			c0.1,0.3,0.2,0.7,0.3,1v0.1c0.1,0.3,0.2,0.6,0.3,1c0,0,0,0,0,0.1c0.1,0.3,0.2,0.6,0.3,0.9c0,0.1,0,0.1,0.1,0.2
			c0.1,0.3,0.2,0.6,0.3,0.9c0,0.1,0,0.1,0.1,0.2c0.1,0.3,0.2,0.6,0.3,0.9v0.1c0.1,0.3,0.2,0.5,0.3,0.8v0.1c0.1,0.3,0.2,0.5,0.3,0.8
			c0,0.1,0,0.1,0.1,0.2c0.1,0.3,0.2,0.5,0.3,0.7v0.1c0.1,0.2,0.2,0.5,0.2,0.7l0,0c0.8,2.3,1.5,4.7,2.1,7l0,0
			c0.1,0.4,0.2,0.8,0.3,1.2c0,0.1,0,0.1,0,0.2c0.1,0.3,0.2,0.6,0.2,1c0,0.1,0.1,0.2,0.1,0.3c0.1,0.3,0.1,0.6,0.2,0.8
			c0,0.1,0,0.2,0.1,0.3c0.1,0.3,0.2,0.7,0.2,1c0,0,0,0,0,0.1l0.4,1.9c0.3,1.3,0.5,2.4,0.7,3.2c0.4,2.4-0.6,3.6-0.9,4.6
			c-0.3,1-1.9,4.7-2.2,5.7s-1.3,4.1-1.3,4.7c-0.1,0.7,0.1,1.9,0,2.6c-0.1,1.4-0.4,2.1,0.2,2.4c1.6,0.8,2-2.8,2.9-5
			c0.5-1.2,1.7-3.7,2.8-3.6c1.3,0.1,0.6,4.9,0.6,4.9s0.6,2.7-4.1,8.5c-2.4,2.9,1.8,2.6,2.6,1.9c0,0,4.3-2.6,7.2-7.8
			C570.2,212.6,570.8,209,570.7,206.8z"/>
		<circle class="st1" cx="517.6" cy="37.9" r="14.7"/>
		<circle class="st1" cx="517.6" cy="168.8" r="14.7"/>
		<g>
			<path class="st2" d="M521.3,46.4c0,9.5-7.3,9.5-7.3,19.1c0,9.5,7.3,9.5,7.3,19.1s-7.3,9.6-7.3,19.1c0,9.6,7.3,9.6,7.3,19.1
				c0,9.6-7.3,9.6-7.3,19.1s7.3,9.6,7.3,19.1"/>
		</g>
		<g>
			<path class="st2" d="M514,161c0-9.5,7.3-9.5,7.3-19.1c0-9.5-7.3-9.5-7.3-19.1s7.3-9.6,7.3-19.1c0-9.6-7.3-9.6-7.3-19.1
				c0-9.6,7.3-9.6,7.3-19.1S514,56,514,46.4"/>
		</g>
		<circle class="st3" cx="517.6" cy="37.9" r="9.2"/>
		<circle class="st3" cx="517.6" cy="168.8" r="9.2"/>
	</g>
	<g>
		<path class="st0" d="M992.1,207.2c-0.3-3.5-1.7-11-1.7-11l-0.4-2.9l0,0c0,0-1.6-18.1-2-25.9c-0.5-7.7-3.8-16.9-5.3-22.5
			s3.3-17.8-1-33c-2.5-9.5,0-18.4-5.1-25c-5.6-7.2-11.6-6.4-14.1-6.8l0,0c-2.9-0.5-6.3-1-8.4-1.9c-5.1-2.2-8.3-4.4-11.2-5.7
			c-2.1-0.9-2.3-7.1-2.2-10.8c1.7-1.1,3-2.3,3.7-3.3c1-1.6,1.8-6.1,2.2-10.2c0.4,0.1,0.9,0,1.7-0.4c1.9-0.9,2.5-6.4,1.2-8.9
			c-0.1-0.2-0.2-0.4-0.4-0.6c0.7-5.5,1.4-14.7-1.4-18.8c-4-6.1-13-6.3-16-6.6c-4-0.4-11.2-0.3-13,4.2c-8.4,0.8-7.4,14.1-6.2,21.2
			c-0.1,0.1-0.2,0.3-0.3,0.5c-1.3,2.5-0.7,7.9,1.2,8.9c0.9,0.4,1.5,0.5,1.8,0.4c0.4,4.1,1.2,8.6,2.2,10.2c0.7,1,1.9,2.2,3.6,3.3
			c0.1,3.7-0.1,9.9-2.2,10.8c-2.9,1.3-6.1,3.5-11.2,5.7c-2.1,0.9-5.5,1.4-8.4,1.9c-2.5,0.3-8.6-0.4-14.1,6.8
			c-5.1,6.6-2.7,15.6-5.1,25c-4.3,15.3,0.5,27.4-1,33s-4.8,14.8-5.3,22.5s-2,25.9-2,25.9l0,0l-0.4,2.9c0,0-1.4,7.5-1.7,11
			c-0.2,2.3,0.3,5.8,1.8,8.9c2.7,5.3,8.1,9.3,8.1,9.3c0.7,0.8,4.9,1.2,2.6-1.8c-4.5-5.9-5-9.9-5-9.9s-0.6-4.8,0.8-4.8
			c1.1-0.1,2.3,2.4,2.7,3.6c0.8,2.3,1.1,5.9,2.7,5.1c0.6-0.3,0.4-1,0.3-2.4c0-0.7,0.2-1.9,0.1-2.6c-0.1-0.6-0.9-3.8-1.2-4.8
			s-1.6-4.8-2-5.8c-0.4-1.1-0.8-3.1-0.7-4.6s2.7-10.4,3.9-13c0.8-1.9,9.7-13.9,11.3-37.6c0.4-5.6,1.8-13.5,2.7-21.1
			c0.7,3.5,1.3,6.9,1.4,9.5c0.3,7.8,2.6,19.3,1.9,25.2c-1.6,13.6-5.1,13.2-5.1,35.6c0,14.8-0.6,42.2,7,74.9
			c1.1,4.8,0.1,11.4-0.5,16.3c-1.1,9.2,1.6,21.5,7.2,49.4c5.4,26.8-11.1,23.7-8.3,30c1.2,2.6,16.3,1.8,21,1.6
			c1.4-0.1,2.5-1.2,2.6-2.5c0.1-1.4-0.6-3-1.9-7.2c-1.5-4.8-0.9-11.9-0.9-11.9s3-43.6,3-49.8c0-7-0.5-11.7-1-14.5
			c-0.4-2.4-0.6-4.8,0-7.2c4.4-19.6,4.4-69.6,4.4-69.7h4.7c0,0,0.1,50,4.4,69.7c0.5,2.4,0.4,4.8,0,7.2c-0.5,2.8-1,7.5-1,14.5
			c0,6.2,3,49.8,3,49.8s0.6,7.1-0.9,11.9c-1.3,4.1-2,5.7-1.9,7.2c0.1,1.4,1.2,2.5,2.6,2.5c4.7,0.2,19.8,1,21-1.6
			c2.8-6.3-13.7-3.2-8.3-30c5.7-27.9,8.3-40.2,7.2-49.4c-0.6-4.9-1.6-11.5-0.5-16.3c7.6-32.6,7-60.1,7-74.9
			c0-22.5-3.5-22.1-5.1-35.6c-0.7-5.8,1.7-17.3,1.9-25.2c0.1-2.6,0.7-6,1.4-9.5c0.9,7.6,2.3,15.6,2.7,21.1
			c1.6,23.7,11,36.4,11.8,38.1c0.9,2.2,3.4,11,3.4,12.6c0.1,1.5-0.3,3.5-0.7,4.6c-0.3,1-1.7,4.8-2,5.8s-1.1,4.1-1.2,4.8
			c-0.1,0.7,0.2,1.9,0.1,2.6c-0.1,1.4-0.3,2.1,0.3,2.4c1.6,0.7,1.9-2.8,2.7-5.1c0.4-1.2,1.6-3.7,2.7-3.6c1.3,0.1,0.8,4.8,0.8,4.8
			s-0.5,4-5,9.9c-2.3,3,1.9,2.6,2.6,1.8c0,0,5.4-4.1,8.1-9.3C991.8,213,992.3,209.5,992.1,207.2z"/>
		<circle class="st4" cx="930.7" cy="37.9" r="14.7"/>
		<circle class="st4" cx="930.7" cy="168.7" r="14.7"/>
		<g>
			<path class="st5" d="M934.4,46.4c0,9.5-7.3,9.5-7.3,19.1c0,9.5,7.3,9.5,7.3,19.1s-7.3,9.6-7.3,19.1c0,9.6,7.3,9.6,7.3,19.1
				c0,9.6-7.3,9.6-7.3,19.1s7.3,9.6,7.3,19.1"/>
		</g>
		<g>
			<path class="st5" d="M927.1,161c0-9.5,7.3-9.5,7.3-19.1c0-9.5-7.3-9.5-7.3-19.1s7.3-9.6,7.3-19.1c0-9.6-7.3-9.6-7.3-19.1
				c0-9.6,7.3-9.6,7.3-19.1s-7.3-9.6-7.3-19.1"/>
		</g>
		<circle class="st6" cx="930.7" cy="37.9" r="9.2"/>
		<circle class="st6" cx="930.7" cy="168.7" r="9.2"/>
	</g>
	<g>
		<path class="st0" d="M846.2,206.8c-0.2-3.5-1.4-11-1.4-11l-0.3-3l0.1,0.1c0,0-0.9-18.2-1.1-26c-0.2-7.8-3.5-18.3-4.8-23.9
			c-1.3-5.7-1.7-16.8-1.5-30.2c0.2-13.8-0.8-24.6-3.2-28c-2.8-4-8.4-5.4-10.6-5.9c-1.7-0.5-3.6-1-5.6-1.6c0,0,0,0,0-0.1
			c2.5-6.5,2.5-13.8,0.1-20.4c-0.7-1.9-1.5-3.7-2-5.7c-0.7-3-0.4-6-0.5-9.1c-0.2-5.4-0.6-12.2-3.2-17.1c-2.1-4-5.2-8-10-8.4
			c-1.1-0.1-1.6,0.2-2.5-0.4c-1-0.6-3.1-2.4-6.3-2.9c-9.5-1.5-17.7,4.1-21.6,12.7c-2.9,6.3-3.1,13.4-2.9,20.3c0.1,2.9,0.2,5.8-1,8.4
			c-1.7,3.8-5.9,5.9-8.3,9.3c-1.9,2.7-2.5,6.2-2.7,9.5c-0.1,2.2,0,4.4,0.5,6.5c-1.1,0.5-2.3,1.2-3.3,2.1l0,0l0,0
			c-0.2,0.1-0.3,0.3-0.5,0.5l0,0c-0.1,0.1-0.3,0.3-0.4,0.4l-0.1,0.1c-0.1,0.1-0.2,0.2-0.3,0.4c0,0.1-0.1,0.1-0.1,0.2
			c-0.1,0.2-0.3,0.4-0.4,0.5c-2.4,3.4-3.4,14.6-3.2,28.4c0.2,13.5-0.2,24.6-1.5,30.2c-1.3,5.7-4.6,16.2-4.8,23.9c0,0.2,0,0.3,0,0.5
			v0.1c0,0.2,0,0.4,0,0.5v0.1c0,0.2,0,0.3,0,0.5v0.1c0,0.2,0,0.4,0,0.6v0.1c0,0.2,0,0.4,0,0.5v0.1c0,0.2,0,0.4,0,0.6
			c0,0.1,0,0.1,0,0.2c0,0.2,0,0.4,0,0.6l0,0c0,0.2,0,0.5,0,0.7v0.1c0,0.2,0,0.5,0,0.7l0,0c0,0.3,0,0.5,0,0.8l0,0c0,0.5,0,1-0.1,1.6
			v0.1c0,0.8-0.1,1.6-0.1,2.5l0,0c0,0.3,0,0.5,0,0.8l0,0c-0.3,7.1-0.7,13.9-0.7,13.9l0,0l-0.3,2.9c0,0-1.2,7.5-1.4,11
			c-0.1,2.3,0.5,5.8,2.1,8.8c2.9,5.2,7.2,7.8,7.2,7.8c0.7,0.7,4.9,1,2.6-1.9c-4.7-5.8-4.1-8.5-4.1-8.5s-0.7-4.8,0.6-4.9
			c1.1-0.1,2.4,2.3,2.8,3.6c0.9,2.3,1.4,5.8,2.9,5c0.6-0.3,0.3-1,0.2-2.4c-0.1-0.7,0.1-1.9,0-2.6c-0.1-0.6-1-3.8-1.3-4.7
			c-0.3-1-1.8-4.7-2.2-5.7c-0.5-1.1-0.9-3.1-0.9-4.6s2.5-10.9,3-12.7c0.4-1.8,10.5-27.9,10.5-38.6c0-5.3,0.4-13.5,0.7-21.2
			c1,5.3,2.2,11.4,3,14.1c1.1,3.7,1.5,12.3-1.5,18.5c-0.2,0.4-0.4,0.7-0.6,1.1c-0.9,1.6-1.8,3.1-2.5,4.7
			c-7.4,14.6-8.1,27.2-8.1,36.4c0,1.5,0.1,3,0.2,4.8l0,0c0-0.2,0-0.4,0-0.5c0.4,5.5,1.5,13,3.7,25.9c-0.2-0.8-0.3-1.2-0.3-1.2
			c1.7,10.2,4.2,23.8,7.6,42.6c0.9,4.8,1.1,9.7,0.7,14.6c-0.8,9,0.2,21.9,5.8,49.9c2.3,11.4,1.2,17.7-0.7,21.6l0,0
			c-2.7,5.5-6.9,6.2-5.5,9.9c2.2,2.6,13,1.7,17.7,1.5c1.3-0.1,2.4-0.2,3.1-2c0.5-1.3,0.6-2.1-1.7-7.5c-1.4-3.2-1.3-8.6-1.3-8.6
			s3.4-46.8,3.4-53.5c0-6.5-0.4-11.1-0.9-14.1c-0.5-2.9-0.5-5.8-0.2-8.7c0.5-4.3,1-10.2,1.5-16.8c0,0.2,0,0.4,0,0.6
			c2.7-33.6,3.2-55.3,3.2-55.3h4l-0.1,0.1c0,0,1.3,50.6,4.3,71.8c0.4,2.8,0.4,5.7,0,8.5c-0.4,2.9-0.9,7.4-0.9,13.9
			c0,6.2,3,49.9,3,49.9s0.4,5-0.3,9.5c-0.1,0.3-0.1,0.6-0.2,0.9c0,0,0.1-0.5,0.3-1.2c-0.1,0.9-0.3,1.8-0.6,2.6
			c-1.3,4.1-2,5.7-1.9,7.2c0.1,1.4,1.2,2.5,2.6,2.5c4.7,0.2,16.8,1.2,18.1-1.4c2.9-6.3-12.9-4.3-6.2-31.6
			c6.7-27.7,7.4-40.7,6.3-49.9c-0.6-4.9-0.5-9.8,0.2-14.7c6.1-39.8,12.2-57.5,12.2-72.3c0-11.4-0.9-18.8-2.6-24.7l0,0
			c-0.1-0.4-0.2-0.8-0.4-1.2l0,0c-0.4-1.2-0.8-2.3-1.2-3.4l0,0c-0.1-0.4-0.3-0.7-0.4-1.1l0,0c-0.3-0.7-0.6-1.4-1-2.1l0,0
			c-0.2-0.3-0.3-0.7-0.5-1c0,0,0,0,0-0.1c-0.2-0.3-0.3-0.7-0.5-1c0,0,0,0,0-0.1c-0.4-0.7-0.7-1.4-1.1-2.1c0,0,0,0,0-0.1
			c-0.2-0.3-0.4-0.7-0.6-1v-0.1c-0.2-0.3-0.4-0.7-0.6-1v-0.1c-0.2-0.4-0.4-0.7-0.6-1.1c-2.8-4.9-2.7-14-1.8-19.7
			c0-0.2,0.1-0.3,0.1-0.5v-0.1c0-0.2,0.1-0.3,0.1-0.5v-0.1c0-0.2,0.1-0.3,0.1-0.5v-0.1c0-0.2,0.1-0.4,0.1-0.6V135
			c0-0.2,0.1-0.4,0.1-0.6c0,0,0,0,0-0.1c0-0.2,0.1-0.4,0.1-0.7v-0.1c0-0.2,0.1-0.5,0.1-0.7l0,0c0.1-0.2,0.1-0.5,0.2-0.7V132
			c0.1-0.2,0.1-0.5,0.2-0.8v-0.1c0.1-0.2,0.1-0.5,0.2-0.7v-0.1c0.1-0.3,0.1-0.5,0.2-0.8v-0.1c0.1-0.3,0.1-0.5,0.2-0.8l0,0
			c0.1-0.3,0.1-0.6,0.2-0.8c0-0.1,0-0.1,0-0.2c0.1-0.3,0.1-0.6,0.2-0.8c0,0,0,0,0-0.1c0.1-0.3,0.1-0.5,0.2-0.8c0-0.1,0-0.1,0-0.2
			s0.1-0.3,0.1-0.4c0,0.3,0,0.6,0,0.9c0,0.1,0,0.1,0,0.2c0,0.4,0,0.8,0.1,1.2v0.1c0,0.4,0,0.8,0.1,1.3v0.1c0,0.4,0,0.8,0.1,1.3
			c0,0.1,0,0.1,0,0.2c0,0.4,0,0.8,0.1,1.2v0.1c0,0.4,0,0.8,0.1,1.3v0.1c0,0.4,0,0.9,0,1.3l0,0c0,0.4,0,0.8,0,1.2v0.1
			c0,0.4,0,0.8,0,1.2v0.1c0,0.4,0,0.8,0,1.1c0,0.1,0,0.1,0,0.2c0,0.4,0,0.7,0,1.1c0,0.1,0,0.1,0,0.2c0,0.4,0,0.7,0,1
			c0,0.1,0,0.1,0,0.2c0,0.3,0,0.7,0,1c0,0.1,0,0.1,0,0.2c0,0.3,0,0.6,0,1v0.1c0,0.3,0,0.6,0,0.9v0.1c0,0.3,0,0.6,0,0.9
			c0,0.2,0,0.5,0,0.7v0.1c0,0.2,0,0.5,0,0.7v0.1c0,0.3,0,0.5,0.1,0.8v0.1c0,0.3,0.1,0.5,0.1,0.8v0.1c0,0.3,0.1,0.6,0.1,0.9
			c0,0.1,0,0.1,0,0.2c0,0.3,0.1,0.6,0.1,0.9c0,0.1,0,0.1,0,0.2c0.1,0.3,0.1,0.6,0.2,1l0,0c0.1,0.3,0.1,0.6,0.2,1c0,0.1,0,0.1,0,0.2
			c0.1,0.3,0.1,0.6,0.2,1c0,0.1,0,0.1,0,0.2c0.1,0.3,0.1,0.7,0.2,1v0.1c0.1,0.3,0.2,0.7,0.2,1v0.1c0.1,0.3,0.2,0.7,0.3,1
			c0,0.1,0,0.1,0.1,0.2c0.1,0.3,0.2,0.7,0.3,1c0,0.1,0,0.1,0,0.2c0.1,0.4,0.2,0.7,0.3,1.1c0,0,0,0,0,0.1c0.1,0.4,0.2,0.7,0.3,1.1
			c0,0.1,0,0.1,0,0.2c0.1,0.4,0.2,0.7,0.3,1.1c0,0.1,0,0.1,0.1,0.2c0.1,0.4,0.2,0.7,0.3,1.1c0,0.1,0,0.1,0,0.2
			c0.1,0.4,0.2,0.7,0.3,1.1v0.1c0.1,0.4,0.2,0.7,0.3,1.1c0,0.1,0,0.1,0.1,0.2c0.1,0.3,0.2,0.7,0.3,1c0,0.1,0,0.1,0.1,0.2
			c0.1,0.4,0.2,0.7,0.3,1.1c0,0,0,0,0,0.1c0.1,0.3,0.2,0.7,0.3,1c0,0.1,0,0.1,0,0.2c0.1,0.3,0.2,0.7,0.3,1c0,0.1,0,0.1,0.1,0.2
			c0.1,0.3,0.2,0.7,0.3,1v0.1c0.1,0.3,0.2,0.6,0.3,1c0,0,0,0,0,0.1c0.1,0.3,0.2,0.6,0.3,0.9c0,0.1,0,0.1,0.1,0.2
			c0.1,0.3,0.2,0.6,0.3,0.9c0,0.1,0,0.1,0.1,0.2c0.1,0.3,0.2,0.6,0.3,0.9v0.1c0.1,0.3,0.2,0.5,0.3,0.8v0.1c0.1,0.3,0.2,0.5,0.3,0.8
			c0,0.1,0,0.1,0.1,0.2c0.1,0.3,0.2,0.5,0.3,0.7v0.1c0.1,0.2,0.2,0.5,0.2,0.7l0,0c0.8,2.3,1.5,4.7,2.1,7l0,0
			c0.1,0.4,0.2,0.8,0.3,1.2c0,0.1,0,0.1,0,0.2c0.1,0.3,0.2,0.6,0.2,1c0,0.1,0.1,0.2,0.1,0.3c0.1,0.3,0.1,0.6,0.2,0.8
			c0,0.1,0,0.2,0.1,0.3c0.1,0.3,0.2,0.7,0.2,1c0,0,0,0,0,0.1l0.4,1.9c0.3,1.3,0.5,2.4,0.7,3.2c0.4,2.4-0.6,3.6-0.9,4.6
			c-0.3,1-1.9,4.7-2.2,5.7s-1.3,4.1-1.3,4.7c-0.1,0.7,0.1,1.9,0,2.6c-0.1,1.4-0.4,2.1,0.2,2.4c1.6,0.8,2-2.8,2.9-5
			c0.5-1.2,1.7-3.7,2.8-3.6c1.3,0.1,0.6,4.9,0.6,4.9s0.6,2.7-4.1,8.5c-2.4,2.9,1.8,2.6,2.6,1.9c0,0,4.3-2.6,7.2-7.8
			C845.7,212.6,846.3,209,846.2,206.8z"/>
		<circle class="st4" cx="793" cy="37.9" r="14.7"/>
		<circle class="st4" cx="793" cy="168.8" r="14.7"/>
		<g>
			<path class="st5" d="M796.8,46.4c0,9.5-7.3,9.5-7.3,19.1c0,9.5,7.3,9.5,7.3,19.1s-7.3,9.6-7.3,19.1c0,9.6,7.3,9.6,7.3,19.1
				c0,9.6-7.3,9.6-7.3,19.1s7.3,9.6,7.3,19.1"/>
		</g>
		<g>
			<path class="st5" d="M789.5,161c0-9.5,7.3-9.5,7.3-19.1c0-9.5-7.3-9.5-7.3-19.1s7.3-9.6,7.3-19.1c0-9.6-7.3-9.6-7.3-19.1
				c0-9.6,7.3-9.6,7.3-19.1s-7.3-9.6-7.3-19.1"/>
		</g>
		<circle class="st6" cx="793" cy="37.9" r="9.2"/>
		<circle class="st6" cx="793" cy="168.8" r="9.2"/>
	</g>
	<g>
		<path class="st0" d="M1121.7,206.8c-0.2-3.5-1.4-11-1.4-11l-0.3-3l0.1,0.1c0,0-0.9-18.2-1.1-26s-3.5-18.3-4.8-23.9
			c-1.3-5.7-1.7-16.8-1.5-30.2c0.2-13.8-0.8-24.6-3.2-28c-2.8-4-8.4-5.4-10.6-5.9c-1.7-0.5-3.6-1-5.6-1.6c0,0,0,0,0-0.1
			c2.5-6.5,2.5-13.8,0.1-20.4c-0.7-1.9-1.5-3.7-2-5.7c-0.7-3-0.4-6-0.5-9.1c-0.2-5.4-0.6-12.2-3.2-17.1c-2.1-4-5.2-8-10-8.4
			c-1.1-0.1-1.6,0.2-2.5-0.4c-1-0.6-3.1-2.4-6.3-2.9c-9.5-1.5-17.7,4.1-21.6,12.7c-2.9,6.3-3.1,13.4-2.9,20.3c0.1,2.9,0.2,5.8-1,8.4
			c-1.7,3.8-5.9,5.9-8.3,9.3c-1.9,2.7-2.5,6.2-2.7,9.5c-0.1,2.2,0,4.4,0.5,6.5c-1.1,0.5-2.3,1.2-3.3,2.1l0,0l0,0
			c-0.2,0.1-0.3,0.3-0.5,0.5l0,0c-0.1,0.1-0.3,0.3-0.4,0.4l-0.1,0.1c-0.1,0.1-0.2,0.2-0.3,0.4c0,0.1-0.1,0.1-0.1,0.2
			c-0.1,0.2-0.3,0.4-0.4,0.5c-2.4,3.4-3.4,14.6-3.2,28.4c0.2,13.5-0.2,24.6-1.5,30.2c-1.3,5.7-4.6,16.2-4.8,23.9c0,0.2,0,0.3,0,0.5
			v0.1c0,0.2,0,0.4,0,0.5v0.1c0,0.2,0,0.3,0,0.5v0.1c0,0.2,0,0.4,0,0.6v0.1c0,0.2,0,0.4,0,0.5v0.1c0,0.2,0,0.4,0,0.6
			c0,0.1,0,0.1,0,0.2c0,0.2,0,0.4,0,0.6l0,0c0,0.2,0,0.5,0,0.7v0.1c0,0.2,0,0.5,0,0.7l0,0c0,0.3,0,0.5,0,0.8l0,0c0,0.5,0,1-0.1,1.6
			v0.1c0,0.8-0.1,1.6-0.1,2.5l0,0c0,0.3,0,0.5,0,0.8l0,0c-0.3,7.1-0.7,13.9-0.7,13.9l0,0l-0.3,2.9c0,0-1.2,7.5-1.4,11
			c-0.1,2.3,0.5,5.8,2.1,8.8c2.9,5.2,7.2,7.8,7.2,7.8c0.7,0.7,4.9,1,2.6-1.9c-4.7-5.8-4.1-8.5-4.1-8.5s-0.7-4.8,0.6-4.9
			c1.1-0.1,2.4,2.3,2.8,3.6c0.9,2.3,1.4,5.8,2.9,5c0.6-0.3,0.3-1,0.2-2.4c-0.1-0.7,0.1-1.9,0-2.6c-0.1-0.6-1-3.8-1.3-4.7
			c-0.3-1-1.8-4.7-2.2-5.7c-0.5-1.1-0.9-3.1-0.9-4.6s2.5-10.9,3-12.7c0.4-1.8,10.5-27.9,10.5-38.6c0-5.3,0.4-13.5,0.7-21.2
			c1,5.3,2.2,11.4,3,14.1c1.1,3.7,1.5,12.3-1.5,18.5c-0.2,0.4-0.4,0.7-0.6,1.1c-0.9,1.6-1.8,3.1-2.5,4.7
			c-7.4,14.6-8.1,27.2-8.1,36.4c0,1.5,0.1,3,0.2,4.8l0,0c0-0.2,0-0.4,0-0.5c0.4,5.5,1.5,13,3.7,25.9c-0.2-0.8-0.3-1.2-0.3-1.2
			c1.7,10.2,4.2,23.8,7.6,42.6c0.9,4.8,1.1,9.7,0.7,14.6c-0.8,9,0.2,21.9,5.8,49.9c2.3,11.4,1.2,17.7-0.7,21.6l0,0
			c-2.7,5.5-6.9,6.2-5.5,9.9c2.2,2.6,13,1.7,17.7,1.5c1.3-0.1,2.4-0.2,3.1-2c0.5-1.3,0.6-2.1-1.7-7.5c-1.4-3.2-1.3-8.6-1.3-8.6
			s3.4-46.8,3.4-53.5c0-6.5-0.4-11.1-0.9-14.1c-0.5-2.9-0.5-5.8-0.2-8.7c0.5-4.3,1-10.2,1.5-16.8c0,0.2,0,0.4,0,0.6
			c2.7-33.6,3.2-55.3,3.2-55.3h4l-0.1,0.1c0,0,1.3,50.6,4.3,71.8c0.4,2.8,0.4,5.7,0,8.5c-0.4,2.9-0.9,7.4-0.9,13.9
			c0,6.2,3,49.9,3,49.9s0.4,5-0.3,9.5c-0.1,0.3-0.1,0.6-0.2,0.9c0,0,0.1-0.5,0.3-1.2c-0.1,0.9-0.3,1.8-0.6,2.6
			c-1.3,4.1-2,5.7-1.9,7.2c0.1,1.4,1.2,2.5,2.6,2.5c4.7,0.2,16.8,1.2,18.1-1.4c2.9-6.3-12.9-4.3-6.2-31.6
			c6.7-27.7,7.4-40.7,6.3-49.9c-0.6-4.9-0.5-9.8,0.2-14.7c6.1-39.8,12.2-57.5,12.2-72.3c0-11.4-0.9-18.8-2.6-24.7l0,0
			c-0.1-0.4-0.2-0.8-0.4-1.2l0,0c-0.4-1.2-0.8-2.3-1.2-3.4l0,0c-0.1-0.4-0.3-0.7-0.4-1.1l0,0c-0.3-0.7-0.6-1.4-1-2.1l0,0
			c-0.2-0.3-0.3-0.7-0.5-1c0,0,0,0,0-0.1c-0.2-0.3-0.3-0.7-0.5-1c0,0,0,0,0-0.1c-0.4-0.7-0.7-1.4-1.1-2.1c0,0,0,0,0-0.1
			c-0.2-0.3-0.4-0.7-0.6-1v-0.1c-0.2-0.3-0.4-0.7-0.6-1v-0.1c-0.2-0.4-0.4-0.7-0.6-1.1c-2.8-4.9-2.7-14-1.8-19.7
			c0-0.2,0.1-0.3,0.1-0.5v-0.1c0-0.2,0.1-0.3,0.1-0.5v-0.1c0-0.2,0.1-0.3,0.1-0.5v-0.1c0-0.2,0.1-0.4,0.1-0.6V135
			c0-0.2,0.1-0.4,0.1-0.6c0,0,0,0,0-0.1c0-0.2,0.1-0.4,0.1-0.7v-0.1c0-0.2,0.1-0.5,0.1-0.7l0,0c0.1-0.2,0.1-0.5,0.2-0.7V132
			c0.1-0.2,0.1-0.5,0.2-0.8v-0.1c0.1-0.2,0.1-0.5,0.2-0.7v-0.1c0.1-0.3,0.1-0.5,0.2-0.8v-0.1c0.1-0.3,0.1-0.5,0.2-0.8l0,0
			c0.1-0.3,0.1-0.6,0.2-0.8c0-0.1,0-0.1,0-0.2c0.1-0.3,0.1-0.6,0.2-0.8c0,0,0,0,0-0.1c0.1-0.3,0.1-0.5,0.2-0.8c0-0.1,0-0.1,0-0.2
			s0.1-0.3,0.1-0.4c0,0.3,0,0.6,0,0.9c0,0.1,0,0.1,0,0.2c0,0.4,0,0.8,0.1,1.2v0.1c0,0.4,0,0.8,0.1,1.3v0.1c0,0.4,0,0.8,0.1,1.3
			c0,0.1,0,0.1,0,0.2c0,0.4,0,0.8,0.1,1.2v0.1c0,0.4,0,0.8,0.1,1.3v0.1c0,0.4,0,0.9,0,1.3l0,0c0,0.4,0,0.8,0,1.2v0.1
			c0,0.4,0,0.8,0,1.2v0.1c0,0.4,0,0.8,0,1.1c0,0.1,0,0.1,0,0.2c0,0.4,0,0.7,0,1.1c0,0.1,0,0.1,0,0.2c0,0.4,0,0.7,0,1
			c0,0.1,0,0.1,0,0.2c0,0.3,0,0.7,0,1c0,0.1,0,0.1,0,0.2c0,0.3,0,0.6,0,1v0.1c0,0.3,0,0.6,0,0.9v0.1c0,0.3,0,0.6,0,0.9
			c0,0.2,0,0.5,0,0.7v0.1c0,0.2,0,0.5,0,0.7v0.1c0,0.3,0,0.5,0.1,0.8v0.1c0,0.3,0.1,0.5,0.1,0.8v0.1c0,0.3,0.1,0.6,0.1,0.9
			c0,0.1,0,0.1,0,0.2c0,0.3,0.1,0.6,0.1,0.9c0,0.1,0,0.1,0,0.2c0.1,0.3,0.1,0.6,0.2,1l0,0c0.1,0.3,0.1,0.6,0.2,1c0,0.1,0,0.1,0,0.2
			c0.1,0.3,0.1,0.6,0.2,1c0,0.1,0,0.1,0,0.2c0.1,0.3,0.1,0.7,0.2,1v0.1c0.1,0.3,0.2,0.7,0.2,1v0.1c0.1,0.3,0.2,0.7,0.3,1
			c0,0.1,0,0.1,0.1,0.2c0.1,0.3,0.2,0.7,0.3,1c0,0.1,0,0.1,0,0.2c0.1,0.4,0.2,0.7,0.3,1.1c0,0,0,0,0,0.1c0.1,0.4,0.2,0.7,0.3,1.1
			c0,0.1,0,0.1,0,0.2c0.1,0.4,0.2,0.7,0.3,1.1c0,0.1,0,0.1,0.1,0.2c0.1,0.4,0.2,0.7,0.3,1.1c0,0.1,0,0.1,0,0.2
			c0.1,0.4,0.2,0.7,0.3,1.1v0.1c0.1,0.4,0.2,0.7,0.3,1.1c0,0.1,0,0.1,0.1,0.2c0.1,0.3,0.2,0.7,0.3,1c0,0.1,0,0.1,0.1,0.2
			c0.1,0.4,0.2,0.7,0.3,1.1c0,0,0,0,0,0.1c0.1,0.3,0.2,0.7,0.3,1c0,0.1,0,0.1,0,0.2c0.1,0.3,0.2,0.7,0.3,1c0,0.1,0,0.1,0.1,0.2
			c0.1,0.3,0.2,0.7,0.3,1v0.1c0.1,0.3,0.2,0.6,0.3,1c0,0,0,0,0,0.1c0.1,0.3,0.2,0.6,0.3,0.9c0,0.1,0,0.1,0.1,0.2
			c0.1,0.3,0.2,0.6,0.3,0.9c0,0.1,0,0.1,0.1,0.2c0.1,0.3,0.2,0.6,0.3,0.9v0.1c0.1,0.3,0.2,0.5,0.3,0.8v0.1c0.1,0.3,0.2,0.5,0.3,0.8
			c0,0.1,0,0.1,0.1,0.2c0.1,0.3,0.2,0.5,0.3,0.7v0.1c0.1,0.2,0.2,0.5,0.2,0.7l0,0c0.8,2.3,1.5,4.7,2.1,7l0,0
			c0.1,0.4,0.2,0.8,0.3,1.2c0,0.1,0,0.1,0,0.2c0.1,0.3,0.2,0.6,0.2,1c0,0.1,0.1,0.2,0.1,0.3c0.1,0.3,0.1,0.6,0.2,0.8
			c0,0.1,0,0.2,0.1,0.3c0.1,0.3,0.2,0.7,0.2,1c0,0,0,0,0,0.1l0.4,1.9c0.3,1.3,0.5,2.4,0.7,3.2c0.4,2.4-0.6,3.6-0.9,4.6
			s-1.9,4.7-2.2,5.7c-0.3,1-1.3,4.1-1.3,4.7c-0.1,0.7,0.1,1.9,0,2.6c-0.1,1.4-0.4,2.1,0.2,2.4c1.6,0.8,2-2.8,2.9-5
			c0.5-1.2,1.7-3.7,2.8-3.6c1.3,0.1,0.6,4.9,0.6,4.9s0.6,2.7-4.1,8.5c-2.4,2.9,1.8,2.6,2.6,1.9c0,0,4.3-2.6,7.2-7.8
			C1121.2,212.6,1121.8,209,1121.7,206.8z"/>
		<circle class="st4" cx="1068.5" cy="37.9" r="14.7"/>
		<circle class="st4" cx="1068.5" cy="168.8" r="14.7"/>
		<g>
			<path class="st5" d="M1072.3,46.4c0,9.5-7.3,9.5-7.3,19.1c0,9.5,7.3,9.5,7.3,19.1s-7.3,9.6-7.3,19.1c0,9.6,7.3,9.6,7.3,19.1
				c0,9.6-7.3,9.6-7.3,19.1s7.3,9.6,7.3,19.1"/>
		</g>
		<g>
			<path class="st5" d="M1065,161c0-9.5,7.3-9.5,7.3-19.1c0-9.5-7.3-9.5-7.3-19.1s7.3-9.6,7.3-19.1c0-9.6-7.3-9.6-7.3-19.1
				c0-9.6,7.3-9.6,7.3-19.1s-7.3-9.6-7.3-19.1"/>
		</g>
		<circle class="st6" cx="1068.5" cy="37.9" r="9.2"/>
		<circle class="st6" cx="1068.5" cy="168.8" r="9.2"/>
	</g>
	<g>
		<path class="st0" d="M441.1,580.6c-0.3-3.5-1.7-11-1.7-11l-0.4-2.9l0,0c0,0-1.6-18.1-2-25.9c-0.5-7.7-3.8-16.9-5.3-22.5
			s3.3-17.8-1-33c-2.5-9.5,0-18.4-5.1-25c-5.6-7.2-11.6-6.4-14.1-6.8l0,0c-2.9-0.5-6.3-1-8.4-1.9c-5.1-2.2-8.3-4.4-11.2-5.7
			c-2.1-0.9-2.3-7.1-2.2-10.8c1.7-1.1,3-2.3,3.7-3.3c1-1.6,1.8-6.1,2.2-10.2c0.4,0.1,0.9,0,1.7-0.4c1.9-0.9,2.5-6.4,1.2-8.9
			c-0.1-0.2-0.2-0.4-0.4-0.6c0.7-5.5,1.4-14.7-1.4-18.8c-4-6.1-13-6.3-16-6.6c-4-0.4-11.2-0.3-13,4.2c-8.4,0.8-7.4,14.1-6.2,21.2
			c-0.1,0.1-0.2,0.3-0.3,0.5c-1.3,2.5-0.7,7.9,1.2,8.9c0.9,0.4,1.5,0.5,1.8,0.4c0.4,4.1,1.2,8.6,2.2,10.2c0.7,1,1.9,2.2,3.6,3.3
			c0.1,3.7-0.1,9.9-2.2,10.8c-2.9,1.3-6.1,3.5-11.2,5.7c-2.1,0.9-5.5,1.4-8.4,1.9c-2.5,0.3-8.6-0.4-14.1,6.8
			c-5.1,6.6-2.7,15.6-5.1,25c-4.3,15.3,0.5,27.4-1,33s-4.8,14.8-5.3,22.5s-2,25.9-2,25.9l0,0l-0.4,2.9c0,0-1.4,7.5-1.7,11
			c-0.2,2.3,0.3,5.8,1.8,8.9c2.7,5.3,8.1,9.3,8.1,9.3c0.7,0.8,4.9,1.2,2.6-1.8c-4.5-5.9-5-9.9-5-9.9s-0.6-4.8,0.8-4.8
			c1.1-0.1,2.3,2.4,2.7,3.6c0.8,2.3,1.1,5.9,2.7,5.1c0.6-0.3,0.4-1,0.3-2.4c0-0.7,0.2-1.9,0.1-2.6c-0.1-0.6-0.9-3.8-1.2-4.8
			c-0.3-1-1.6-4.8-2-5.8c-0.4-1.1-0.8-3.1-0.7-4.6c0.1-1.5,2.7-10.4,3.9-13c0.8-1.9,9.7-13.9,11.3-37.6c0.4-5.6,1.8-13.5,2.7-21.1
			c0.7,3.5,1.3,6.9,1.4,9.5c0.3,7.8,2.6,19.3,1.9,25.2c-1.6,13.6-5.1,13.2-5.1,35.6c0,14.8-0.6,42.2,7,74.9
			c1.1,4.8,0.1,11.4-0.5,16.3c-1.1,9.2,1.6,21.5,7.2,49.4c5.4,26.8-11.1,23.7-8.3,30c1.2,2.6,16.3,1.8,21,1.6
			c1.4-0.1,2.5-1.2,2.6-2.5c0.1-1.4-0.6-3-1.9-7.2c-1.5-4.8-0.9-11.9-0.9-11.9s3-43.6,3-49.8c0-7-0.5-11.7-1-14.5
			c-0.4-2.4-0.6-4.8,0-7.2c4.4-19.6,4.4-69.6,4.4-69.7h4.7c0,0,0.1,50,4.4,69.7c0.5,2.4,0.4,4.8,0,7.2c-0.5,2.8-1,7.5-1,14.5
			c0,6.2,3,49.8,3,49.8s0.6,7.1-0.9,11.9c-1.3,4.1-2,5.7-1.9,7.2c0.1,1.4,1.2,2.5,2.6,2.5c4.7,0.2,19.8,1,21-1.6
			c2.8-6.3-13.7-3.2-8.3-30c5.7-27.9,8.3-40.2,7.2-49.4c-0.6-4.9-1.6-11.5-0.5-16.3c7.6-32.6,7-60.1,7-74.9
			c0-22.5-3.5-22.1-5.1-35.6c-0.7-5.8,1.7-17.3,1.9-25.2c0.1-2.6,0.7-6,1.4-9.5c0.9,7.6,2.3,15.6,2.7,21.1
			c1.6,23.7,11,36.4,11.8,38.1c0.9,2.2,3.4,11,3.4,12.6s-0.3,3.5-0.7,4.6c-0.3,1-1.7,4.8-2,5.8s-1.1,4.1-1.2,4.8s0.2,1.9,0.1,2.6
			c-0.1,1.4-0.3,2.1,0.3,2.4c1.6,0.7,1.9-2.8,2.7-5.1c0.4-1.2,1.6-3.7,2.7-3.6c1.3,0.1,0.8,4.8,0.8,4.8s-0.5,4-5,9.9
			c-2.3,3,1.9,2.6,2.6,1.8c0,0,5.4-4.1,8.1-9.3C440.9,586.4,441.3,582.9,441.1,580.6z"/>
		<circle class="st7" cx="379.7" cy="411.3" r="14.7"/>
		<circle class="st7" cx="379.7" cy="542.1" r="14.7"/>
		<g>
			<path class="st8" d="M383.5,419.8c0,9.5-7.3,9.5-7.3,19.1c0,9.5,7.3,9.5,7.3,19.1s-7.3,9.6-7.3,19.1c0,9.6,7.3,9.6,7.3,19.1
				c0,9.6-7.3,9.6-7.3,19.1c0,9.5,7.3,9.6,7.3,19.1"/>
		</g>
		<g>
			<path class="st8" d="M376.2,534.4c0-9.5,7.3-9.5,7.3-19.1c0-9.5-7.3-9.5-7.3-19.1s7.3-9.6,7.3-19.1c0-9.6-7.3-9.6-7.3-19.1
				c0-9.6,7.3-9.6,7.3-19.1c0-9.6-7.3-9.6-7.3-19.1"/>
		</g>
		<circle class="st9" cx="379.7" cy="411.3" r="9.2"/>
		<circle class="st9" cx="379.7" cy="542.1" r="9.2"/>
	</g>
	<g>
		<path class="st0" d="M716.6,580.6c-0.3-3.5-1.7-11-1.7-11l-0.4-2.9l0,0c0,0-1.6-18.1-2-25.9c-0.5-7.7-3.8-16.9-5.3-22.5
			s3.3-17.8-1-33c-2.5-9.5,0-18.4-5.1-25c-5.6-7.2-11.6-6.4-14.1-6.8l0,0c-2.9-0.5-6.3-1-8.4-1.9c-5.1-2.2-8.3-4.4-11.2-5.7
			c-2.1-0.9-2.3-7.1-2.2-10.8c1.7-1.1,3-2.3,3.7-3.3c1-1.6,1.8-6.1,2.2-10.2c0.4,0.1,0.9,0,1.7-0.4c1.9-0.9,2.5-6.4,1.2-8.9
			c-0.1-0.2-0.2-0.4-0.4-0.6c0.7-5.5,1.4-14.7-1.4-18.8c-4-6.1-13-6.3-16-6.6c-4-0.4-11.2-0.3-13,4.2c-8.4,0.8-7.4,14.1-6.2,21.2
			c-0.1,0.1-0.2,0.3-0.3,0.5c-1.3,2.5-0.7,7.9,1.2,8.9c0.9,0.4,1.5,0.5,1.8,0.4c0.4,4.1,1.2,8.6,2.2,10.2c0.7,1,1.9,2.2,3.6,3.3
			c0.1,3.7-0.1,9.9-2.2,10.8c-2.9,1.3-6.1,3.5-11.2,5.7c-2.1,0.9-5.5,1.4-8.4,1.9c-2.5,0.3-8.6-0.4-14.1,6.8
			c-5.1,6.6-2.7,15.6-5.1,25c-4.3,15.3,0.5,27.4-1,33s-4.8,14.8-5.3,22.5s-2,25.9-2,25.9l0,0l-0.4,2.9c0,0-1.4,7.5-1.7,11
			c-0.2,2.3,0.3,5.8,1.8,8.9c2.7,5.3,8.1,9.3,8.1,9.3c0.7,0.8,4.9,1.2,2.6-1.8c-4.5-5.9-5-9.9-5-9.9s-0.6-4.8,0.8-4.8
			c1.1-0.1,2.3,2.4,2.7,3.6c0.8,2.3,1.1,5.9,2.7,5.1c0.6-0.3,0.4-1,0.3-2.4c0-0.7,0.2-1.9,0.1-2.6c-0.1-0.6-0.9-3.8-1.2-4.8
			s-1.6-4.8-2-5.8c-0.4-1.1-0.8-3.1-0.7-4.6s2.7-10.4,3.9-13c0.8-1.9,9.7-13.9,11.3-37.6c0.4-5.6,1.8-13.5,2.7-21.1
			c0.7,3.5,1.3,6.9,1.4,9.5c0.3,7.8,2.6,19.3,1.9,25.2c-1.6,13.6-5.1,13.2-5.1,35.6c0,14.8-0.6,42.2,7,74.9
			c1.1,4.8,0.1,11.4-0.5,16.3c-1.1,9.2,1.6,21.5,7.2,49.4c5.4,26.8-11.1,23.7-8.3,30c1.2,2.6,16.3,1.8,21,1.6
			c1.4-0.1,2.5-1.2,2.6-2.5c0.1-1.4-0.6-3-1.9-7.2c-1.5-4.8-0.9-11.9-0.9-11.9s3-43.6,3-49.8c0-7-0.5-11.7-1-14.5
			c-0.4-2.4-0.6-4.8,0-7.2c4.4-19.6,4.4-69.6,4.4-69.7h4.7c0,0,0.1,50,4.4,69.7c0.5,2.4,0.4,4.8,0,7.2c-0.5,2.8-1,7.5-1,14.5
			c0,6.2,3,49.8,3,49.8s0.6,7.1-0.9,11.9c-1.3,4.1-2,5.7-1.9,7.2c0.1,1.4,1.2,2.5,2.6,2.5c4.7,0.2,19.8,1,21-1.6
			c2.8-6.3-13.7-3.2-8.3-30c5.7-27.9,8.3-40.2,7.2-49.4c-0.6-4.9-1.6-11.5-0.5-16.3c7.6-32.6,7-60.1,7-74.9
			c0-22.5-3.5-22.1-5.1-35.6c-0.7-5.8,1.7-17.3,1.9-25.2c0.1-2.6,0.7-6,1.4-9.5c0.9,7.6,2.3,15.6,2.7,21.1
			c1.6,23.7,11,36.4,11.8,38.1c0.9,2.2,3.4,11,3.4,12.6c0.1,1.5-0.3,3.5-0.7,4.6c-0.3,1-1.7,4.8-2,5.8s-1.1,4.1-1.2,4.8
			c-0.1,0.7,0.2,1.9,0.1,2.6c-0.1,1.4-0.3,2.1,0.3,2.4c1.6,0.7,1.9-2.8,2.7-5.1c0.4-1.2,1.6-3.7,2.7-3.6c1.3,0.1,0.8,4.8,0.8,4.8
			s-0.5,4-5,9.9c-2.3,3,1.9,2.6,2.6,1.8c0,0,5.4-4.1,8.1-9.3C716.3,586.4,716.8,582.9,716.6,580.6z"/>
		<circle class="st7" cx="655.2" cy="411.3" r="14.7"/>
		<circle class="st7" cx="655.2" cy="542.1" r="14.7"/>
		<g>
			<path class="st8" d="M658.9,419.8c0,9.5-7.3,9.5-7.3,19.1c0,9.5,7.3,9.5,7.3,19.1s-7.3,9.6-7.3,19.1c0,9.6,7.3,9.6,7.3,19.1
				c0,9.6-7.3,9.6-7.3,19.1c0,9.5,7.3,9.6,7.3,19.1"/>
		</g>
		<g>
			<path class="st8" d="M651.7,534.4c0-9.5,7.3-9.5,7.3-19.1c0-9.5-7.3-9.5-7.3-19.1s7.3-9.6,7.3-19.1c0-9.6-7.3-9.6-7.3-19.1
				c0-9.6,7.3-9.6,7.3-19.1c0-9.6-7.3-9.6-7.3-19.1"/>
		</g>
		<circle class="st9" cx="655.2" cy="411.3" r="9.2"/>
		<circle class="st9" cx="655.2" cy="542.1" r="9.2"/>
	</g>
	<g>
		<path class="st0" d="M570.7,580.1c-0.2-3.5-1.4-11-1.4-11l-0.3-3l0.1,0.1c0,0-0.9-18.2-1.1-26c-0.2-7.8-3.5-18.3-4.8-23.9
			c-1.3-5.7-1.7-16.8-1.5-30.2c0.2-13.8-0.8-24.6-3.2-28c-2.8-4-8.4-5.4-10.6-5.9c-1.7-0.5-3.6-1-5.6-1.6c0,0,0,0,0-0.1
			c2.5-6.5,2.5-13.8,0.1-20.4c-0.7-1.9-1.5-3.7-2-5.7c-0.7-3-0.4-6-0.5-9.1c-0.2-5.4-0.6-12.2-3.2-17.1c-2.1-4-5.2-8-10-8.4
			c-1.1-0.1-1.6,0.2-2.5-0.4c-1-0.6-3.1-2.4-6.3-2.9c-9.5-1.5-17.7,4.1-21.6,12.7c-2.9,6.3-3.1,13.4-2.9,20.3c0.1,2.9,0.2,5.8-1,8.4
			c-1.7,3.8-5.9,5.9-8.3,9.3c-1.9,2.7-2.5,6.2-2.7,9.5c-0.1,2.2,0,4.4,0.5,6.5c-1.1,0.5-2.3,1.2-3.3,2.1l0,0l0,0
			c-0.2,0.1-0.3,0.3-0.5,0.5l0,0c-0.1,0.1-0.3,0.3-0.4,0.4l-0.1,0.1c-0.1,0.1-0.2,0.2-0.3,0.4c0,0.1-0.1,0.1-0.1,0.2
			c-0.1,0.2-0.3,0.4-0.4,0.5c-2.4,3.4-3.4,14.6-3.2,28.4c0.2,13.5-0.2,24.6-1.5,30.2c-1.3,5.7-4.6,16.2-4.8,23.9c0,0.2,0,0.3,0,0.5
			v0.1c0,0.2,0,0.4,0,0.5v0.1c0,0.2,0,0.3,0,0.5v0.1c0,0.2,0,0.4,0,0.6v0.1c0,0.2,0,0.4,0,0.5v0.1c0,0.2,0,0.4,0,0.6
			c0,0.1,0,0.1,0,0.2c0,0.2,0,0.4,0,0.6l0,0c0,0.2,0,0.5,0,0.7v0.1c0,0.2,0,0.5,0,0.7l0,0c0,0.3,0,0.5,0,0.8l0,0c0,0.5,0,1-0.1,1.6
			v0.1c0,0.8-0.1,1.6-0.1,2.5l0,0c0,0.3,0,0.5,0,0.8l0,0c-0.3,7.1-0.7,13.9-0.7,13.9l0,0l-0.3,2.9c0,0-1.2,7.5-1.4,11
			c-0.1,2.3,0.5,5.8,2.1,8.8c2.9,5.2,7.2,7.8,7.2,7.8c0.7,0.7,4.9,1,2.6-1.9c-4.7-5.8-4.1-8.5-4.1-8.5s-0.7-4.8,0.6-4.9
			c1.1-0.1,2.4,2.3,2.8,3.6c0.9,2.3,1.4,5.8,2.9,5c0.6-0.3,0.3-1,0.2-2.4c-0.1-0.7,0.1-1.9,0-2.6c-0.1-0.6-1-3.8-1.3-4.7
			c-0.3-1-1.8-4.7-2.2-5.7c-0.5-1.1-0.9-3.1-0.9-4.6s2.5-10.9,3-12.7c0.4-1.8,10.5-27.9,10.5-38.6c0-5.3,0.4-13.5,0.7-21.2
			c1,5.3,2.2,11.4,3,14.1c1.1,3.7,1.5,12.3-1.5,18.5c-0.2,0.4-0.4,0.7-0.6,1.1c-0.9,1.6-1.8,3.1-2.5,4.7
			c-7.4,14.6-8.1,27.2-8.1,36.4c0,1.5,0.1,3,0.2,4.8l0,0c0-0.2,0-0.4,0-0.5c0.4,5.5,1.5,13,3.7,25.9c-0.2-0.8-0.3-1.2-0.3-1.2
			c1.7,10.2,4.2,23.8,7.6,42.6c0.9,4.8,1.1,9.7,0.7,14.6c-0.8,9,0.2,21.9,5.8,49.9c2.3,11.4,1.2,17.7-0.7,21.6l0,0
			c-2.7,5.5-6.9,6.2-5.5,9.9c2.2,2.6,13,1.7,17.7,1.5c1.3-0.1,2.4-0.2,3.1-2c0.5-1.3,0.6-2.1-1.7-7.5c-1.4-3.2-1.3-8.6-1.3-8.6
			s3.4-46.8,3.4-53.5c0-6.5-0.4-11.1-0.9-14.1c-0.5-2.9-0.5-5.8-0.2-8.7c0.5-4.3,1-10.2,1.5-16.8c0,0.2,0,0.4,0,0.6
			c2.7-33.6,3.2-55.3,3.2-55.3h4l-0.1,0.1c0,0,1.3,50.6,4.3,71.8c0.4,2.8,0.4,5.7,0,8.5c-0.4,2.9-0.9,7.4-0.9,13.9
			c0,6.2,3,49.9,3,49.9s0.4,5-0.3,9.5c-0.1,0.3-0.1,0.6-0.2,0.9c0,0,0.1-0.5,0.3-1.2c-0.1,0.9-0.3,1.8-0.6,2.6
			c-1.3,4.1-2,5.7-1.9,7.2c0.1,1.4,1.2,2.5,2.6,2.5c4.7,0.2,16.8,1.2,18.1-1.4c2.9-6.3-12.9-4.3-6.2-31.6
			c6.7-27.7,7.4-40.7,6.3-49.9c-0.6-4.9-0.5-9.8,0.2-14.7c6.1-39.8,12.2-57.5,12.2-72.3c0-11.4-0.9-18.8-2.6-24.7l0,0
			c-0.1-0.4-0.2-0.8-0.4-1.2l0,0c-0.4-1.2-0.8-2.3-1.2-3.4l0,0c-0.1-0.4-0.3-0.7-0.4-1.1l0,0c-0.3-0.7-0.6-1.4-1-2.1l0,0
			c-0.2-0.3-0.3-0.7-0.5-1c0,0,0,0,0-0.1c-0.2-0.3-0.3-0.7-0.5-1c0,0,0,0,0-0.1c-0.4-0.7-0.7-1.4-1.1-2.1c0,0,0,0,0-0.1
			c-0.2-0.3-0.4-0.7-0.6-1v-0.1c-0.2-0.3-0.4-0.7-0.6-1v-0.1c-0.2-0.4-0.4-0.7-0.6-1.1c-2.8-4.9-2.7-14-1.8-19.7
			c0-0.2,0.1-0.3,0.1-0.5v-0.1c0-0.2,0.1-0.3,0.1-0.5v-0.1c0-0.2,0.1-0.3,0.1-0.5V509c0-0.2,0.1-0.4,0.1-0.6v-0.1
			c0-0.2,0.1-0.4,0.1-0.6c0,0,0,0,0-0.1c0-0.2,0.1-0.4,0.1-0.7v-0.1c0-0.2,0.1-0.5,0.1-0.7l0,0c0.1-0.2,0.1-0.5,0.2-0.7v-0.1
			c0.1-0.2,0.1-0.5,0.2-0.8v-0.1c0.1-0.2,0.1-0.5,0.2-0.7v-0.1c0.1-0.3,0.1-0.5,0.2-0.8v-0.1c0.1-0.3,0.1-0.5,0.2-0.8l0,0
			c0.1-0.3,0.1-0.6,0.2-0.8c0-0.1,0-0.1,0-0.2c0.1-0.3,0.1-0.6,0.2-0.8c0,0,0,0,0-0.1c0.1-0.3,0.1-0.5,0.2-0.8c0-0.1,0-0.1,0-0.2
			s0.1-0.3,0.1-0.4c0,0.3,0,0.6,0,0.9c0,0.1,0,0.1,0,0.2c0,0.4,0,0.8,0.1,1.2v0.1c0,0.4,0,0.8,0.1,1.3v0.1c0,0.4,0,0.8,0.1,1.3
			c0,0.1,0,0.1,0,0.2c0,0.4,0,0.8,0.1,1.2v0.1c0,0.4,0,0.8,0.1,1.3v0.1c0,0.4,0,0.9,0,1.3l0,0c0,0.4,0,0.8,0,1.2v0.1
			c0,0.4,0,0.8,0,1.2v0.1c0,0.4,0,0.8,0,1.1c0,0.1,0,0.1,0,0.2c0,0.4,0,0.7,0,1.1c0,0.1,0,0.1,0,0.2c0,0.4,0,0.7,0,1
			c0,0.1,0,0.1,0,0.2c0,0.3,0,0.7,0,1c0,0.1,0,0.1,0,0.2c0,0.3,0,0.6,0,1v0.1c0,0.3,0,0.6,0,0.9v0.1c0,0.3,0,0.6,0,0.9
			c0,0.2,0,0.5,0,0.7v0.1c0,0.2,0,0.5,0,0.7v0.1c0,0.3,0,0.5,0.1,0.8v0.1c0,0.3,0.1,0.5,0.1,0.8v0.1c0,0.3,0.1,0.6,0.1,0.9
			c0,0.1,0,0.1,0,0.2c0,0.3,0.1,0.6,0.1,0.9c0,0.1,0,0.1,0,0.2c0.1,0.3,0.1,0.6,0.2,1l0,0c0.1,0.3,0.1,0.6,0.2,1c0,0.1,0,0.1,0,0.2
			c0.1,0.3,0.1,0.6,0.2,1c0,0.1,0,0.1,0,0.2c0.1,0.3,0.1,0.7,0.2,1v0.1c0.1,0.3,0.2,0.7,0.2,1v0.1c0.1,0.3,0.2,0.7,0.3,1
			c0,0.1,0,0.1,0.1,0.2c0.1,0.3,0.2,0.7,0.3,1c0,0.1,0,0.1,0,0.2c0.1,0.4,0.2,0.7,0.3,1.1c0,0,0,0,0,0.1c0.1,0.4,0.2,0.7,0.3,1.1
			c0,0.1,0,0.1,0,0.2c0.1,0.4,0.2,0.7,0.3,1.1c0,0.1,0,0.1,0.1,0.2c0.1,0.4,0.2,0.7,0.3,1.1c0,0.1,0,0.1,0,0.2
			c0.1,0.4,0.2,0.7,0.3,1.1v0.1c0.1,0.4,0.2,0.7,0.3,1.1c0,0.1,0,0.1,0.1,0.2c0.1,0.3,0.2,0.7,0.3,1c0,0.1,0,0.1,0.1,0.2
			c0.1,0.4,0.2,0.7,0.3,1.1c0,0,0,0,0,0.1c0.1,0.3,0.2,0.7,0.3,1c0,0.1,0,0.1,0,0.2c0.1,0.3,0.2,0.7,0.3,1c0,0.1,0,0.1,0.1,0.2
			c0.1,0.3,0.2,0.7,0.3,1v0.1c0.1,0.3,0.2,0.6,0.3,1c0,0,0,0,0,0.1c0.1,0.3,0.2,0.6,0.3,0.9c0,0.1,0,0.1,0.1,0.2
			c0.1,0.3,0.2,0.6,0.3,0.9c0,0.1,0,0.1,0.1,0.2c0.1,0.3,0.2,0.6,0.3,0.9v0.1c0.1,0.3,0.2,0.5,0.3,0.8v0.1c0.1,0.3,0.2,0.5,0.3,0.8
			c0,0.1,0,0.1,0.1,0.2c0.1,0.3,0.2,0.5,0.3,0.7v0.1c0.1,0.2,0.2,0.5,0.2,0.7l0,0c0.8,2.3,1.5,4.7,2.1,7l0,0
			c0.1,0.4,0.2,0.8,0.3,1.2c0,0.1,0,0.1,0,0.2c0.1,0.3,0.2,0.6,0.2,1c0,0.1,0.1,0.2,0.1,0.3c0.1,0.3,0.1,0.6,0.2,0.8
			c0,0.1,0,0.2,0.1,0.3c0.1,0.3,0.2,0.7,0.2,1c0,0,0,0,0,0.1l0.4,1.9c0.3,1.3,0.5,2.4,0.7,3.2c0.4,2.4-0.6,3.6-0.9,4.6
			c-0.3,1-1.9,4.7-2.2,5.7s-1.3,4.1-1.3,4.7c-0.1,0.7,0.1,1.9,0,2.6c-0.1,1.4-0.4,2.1,0.2,2.4c1.6,0.8,2-2.8,2.9-5
			c0.5-1.2,1.7-3.7,2.8-3.6c1.3,0.1,0.6,4.9,0.6,4.9s0.6,2.7-4.1,8.5c-2.4,2.9,1.8,2.6,2.6,1.9c0,0,4.3-2.6,7.2-7.8
			C570.2,586,570.8,582.4,570.7,580.1z"/>
		<circle class="st7" cx="517.6" cy="411.3" r="14.7"/>
		<circle class="st7" cx="517.6" cy="542.2" r="14.7"/>
		<g>
			<path class="st8" d="M521.3,419.8c0,9.5-7.3,9.5-7.3,19.1c0,9.5,7.3,9.5,7.3,19.1s-7.3,9.6-7.3,19.1c0,9.6,7.3,9.6,7.3,19.1
				c0,9.6-7.3,9.6-7.3,19.1c0,9.6,7.3,9.6,7.3,19.1"/>
		</g>
		<g>
			<path class="st8" d="M514,534.4c0-9.5,7.3-9.5,7.3-19.1c0-9.5-7.3-9.5-7.3-19.1s7.3-9.6,7.3-19.1c0-9.6-7.3-9.6-7.3-19.1
				c0-9.6,7.3-9.6,7.3-19.1s-7.3-9.6-7.3-19.1"/>
		</g>
		<circle class="st9" cx="517.6" cy="411.3" r="9.2"/>
		<circle class="st9" cx="517.6" cy="542.2" r="9.2"/>
	</g>
	<g>
		<path class="st0" d="M992.1,580.6c-0.3-3.5-1.7-11-1.7-11l-0.4-2.9l0,0c0,0-1.6-18.1-2-25.9c-0.5-7.7-3.8-16.9-5.3-22.5
			s3.3-17.8-1-33c-2.5-9.5,0-18.4-5.1-25c-5.6-7.2-11.6-6.4-14.1-6.8l0,0c-2.9-0.5-6.3-1-8.4-1.9c-5.1-2.2-8.3-4.4-11.2-5.7
			c-2.1-0.9-2.3-7.1-2.2-10.8c1.7-1.1,3-2.3,3.7-3.3c1-1.6,1.8-6.1,2.2-10.2c0.4,0.1,0.9,0,1.7-0.4c1.9-0.9,2.5-6.4,1.2-8.9
			c-0.1-0.2-0.2-0.4-0.4-0.6c0.7-5.5,1.4-14.7-1.4-18.8c-4-6.1-13-6.3-16-6.6c-4-0.4-11.2-0.3-13,4.2c-8.4,0.8-7.4,14.1-6.2,21.2
			c-0.1,0.1-0.2,0.3-0.3,0.5c-1.3,2.5-0.7,7.9,1.2,8.9c0.9,0.4,1.5,0.5,1.8,0.4c0.4,4.1,1.2,8.6,2.2,10.2c0.7,1,1.9,2.2,3.6,3.3
			c0.1,3.7-0.1,9.9-2.2,10.8c-2.9,1.3-6.1,3.5-11.2,5.7c-2.1,0.9-5.5,1.4-8.4,1.9c-2.5,0.3-8.6-0.4-14.1,6.8
			c-5.1,6.6-2.7,15.6-5.1,25c-4.3,15.3,0.5,27.4-1,33s-4.8,14.8-5.3,22.5s-2,25.9-2,25.9l0,0l-0.4,2.9c0,0-1.4,7.5-1.7,11
			c-0.2,2.3,0.3,5.8,1.8,8.9c2.7,5.3,8.1,9.3,8.1,9.3c0.7,0.8,4.9,1.2,2.6-1.8c-4.5-5.9-5-9.9-5-9.9s-0.6-4.8,0.8-4.8
			c1.1-0.1,2.3,2.4,2.7,3.6c0.8,2.3,1.1,5.9,2.7,5.1c0.6-0.3,0.4-1,0.3-2.4c0-0.7,0.2-1.9,0.1-2.6c-0.1-0.6-0.9-3.8-1.2-4.8
			s-1.6-4.8-2-5.8c-0.4-1.1-0.8-3.1-0.7-4.6s2.7-10.4,3.9-13c0.8-1.9,9.7-13.9,11.3-37.6c0.4-5.6,1.8-13.5,2.7-21.1
			c0.7,3.5,1.3,6.9,1.4,9.5c0.3,7.8,2.6,19.3,1.9,25.2c-1.6,13.6-5.1,13.2-5.1,35.6c0,14.8-0.6,42.2,7,74.9
			c1.1,4.8,0.1,11.4-0.5,16.3c-1.1,9.2,1.6,21.5,7.2,49.4c5.4,26.8-11.1,23.7-8.3,30c1.2,2.6,16.3,1.8,21,1.6
			c1.4-0.1,2.5-1.2,2.6-2.5c0.1-1.4-0.6-3-1.9-7.2c-1.5-4.8-0.9-11.9-0.9-11.9s3-43.6,3-49.8c0-7-0.5-11.7-1-14.5
			c-0.4-2.4-0.6-4.8,0-7.2c4.4-19.6,4.4-69.6,4.4-69.7h4.7c0,0,0.1,50,4.4,69.7c0.5,2.4,0.4,4.8,0,7.2c-0.5,2.8-1,7.5-1,14.5
			c0,6.2,3,49.8,3,49.8s0.6,7.1-0.9,11.9c-1.3,4.1-2,5.7-1.9,7.2c0.1,1.4,1.2,2.5,2.6,2.5c4.7,0.2,19.8,1,21-1.6
			c2.8-6.3-13.7-3.2-8.3-30c5.7-27.9,8.3-40.2,7.2-49.4c-0.6-4.9-1.6-11.5-0.5-16.3c7.6-32.6,7-60.1,7-74.9
			c0-22.5-3.5-22.1-5.1-35.6c-0.7-5.8,1.7-17.3,1.9-25.2c0.1-2.6,0.7-6,1.4-9.5c0.9,7.6,2.3,15.6,2.7,21.1
			c1.6,23.7,11,36.4,11.8,38.1c0.9,2.2,3.4,11,3.4,12.6c0.1,1.5-0.3,3.5-0.7,4.6c-0.3,1-1.7,4.8-2,5.8s-1.1,4.1-1.2,4.8
			c-0.1,0.7,0.2,1.9,0.1,2.6c-0.1,1.4-0.3,2.1,0.3,2.4c1.6,0.7,1.9-2.8,2.7-5.1c0.4-1.2,1.6-3.7,2.7-3.6c1.3,0.1,0.8,4.8,0.8,4.8
			s-0.5,4-5,9.9c-2.3,3,1.9,2.6,2.6,1.8c0,0,5.4-4.1,8.1-9.3C991.8,586.4,992.3,582.9,992.1,580.6z"/>
		<circle class="st7" cx="930.7" cy="411.3" r="14.7"/>
		<circle class="st7" cx="930.7" cy="542.1" r="14.7"/>
		<g>
			<path class="st8" d="M934.4,419.8c0,9.5-7.3,9.5-7.3,19.1c0,9.5,7.3,9.5,7.3,19.1s-7.3,9.6-7.3,19.1c0,9.6,7.3,9.6,7.3,19.1
				c0,9.6-7.3,9.6-7.3,19.1c0,9.5,7.3,9.6,7.3,19.1"/>
		</g>
		<g>
			<path class="st8" d="M927.1,534.4c0-9.5,7.3-9.5,7.3-19.1c0-9.5-7.3-9.5-7.3-19.1s7.3-9.6,7.3-19.1c0-9.6-7.3-9.6-7.3-19.1
				c0-9.6,7.3-9.6,7.3-19.1c0-9.6-7.3-9.6-7.3-19.1"/>
		</g>
		<circle class="st9" cx="930.7" cy="411.3" r="9.2"/>
		<circle class="st9" cx="930.7" cy="542.1" r="9.2"/>
	</g>
	<g>
		<path class="st0" d="M846.2,580.1c-0.2-3.5-1.4-11-1.4-11l-0.3-3l0.1,0.1c0,0-0.9-18.2-1.1-26c-0.2-7.8-3.5-18.3-4.8-23.9
			c-1.3-5.7-1.7-16.8-1.5-30.2c0.2-13.8-0.8-24.6-3.2-28c-2.8-4-8.4-5.4-10.6-5.9c-1.7-0.5-3.6-1-5.6-1.6c0,0,0,0,0-0.1
			c2.5-6.5,2.5-13.8,0.1-20.4c-0.7-1.9-1.5-3.7-2-5.7c-0.7-3-0.4-6-0.5-9.1c-0.2-5.4-0.6-12.2-3.2-17.1c-2.1-4-5.2-8-10-8.4
			c-1.1-0.1-1.6,0.2-2.5-0.4c-1-0.6-3.1-2.4-6.3-2.9c-9.5-1.5-17.7,4.1-21.6,12.7c-2.9,6.3-3.1,13.4-2.9,20.3c0.1,2.9,0.2,5.8-1,8.4
			c-1.7,3.8-5.9,5.9-8.3,9.3c-1.9,2.7-2.5,6.2-2.7,9.5c-0.1,2.2,0,4.4,0.5,6.5c-1.1,0.5-2.3,1.2-3.3,2.1l0,0l0,0
			c-0.2,0.1-0.3,0.3-0.5,0.5l0,0c-0.1,0.1-0.3,0.3-0.4,0.4l-0.1,0.1c-0.1,0.1-0.2,0.2-0.3,0.4c0,0.1-0.1,0.1-0.1,0.2
			c-0.1,0.2-0.3,0.4-0.4,0.5c-2.4,3.4-3.4,14.6-3.2,28.4c0.2,13.5-0.2,24.6-1.5,30.2c-1.3,5.7-4.6,16.2-4.8,23.9c0,0.2,0,0.3,0,0.5
			v0.1c0,0.2,0,0.4,0,0.5v0.1c0,0.2,0,0.3,0,0.5v0.1c0,0.2,0,0.4,0,0.6v0.1c0,0.2,0,0.4,0,0.5v0.1c0,0.2,0,0.4,0,0.6
			c0,0.1,0,0.1,0,0.2c0,0.2,0,0.4,0,0.6l0,0c0,0.2,0,0.5,0,0.7v0.1c0,0.2,0,0.5,0,0.7l0,0c0,0.3,0,0.5,0,0.8l0,0c0,0.5,0,1-0.1,1.6
			v0.1c0,0.8-0.1,1.6-0.1,2.5l0,0c0,0.3,0,0.5,0,0.8l0,0c-0.3,7.1-0.7,13.9-0.7,13.9l0,0l-0.3,2.9c0,0-1.2,7.5-1.4,11
			c-0.1,2.3,0.5,5.8,2.1,8.8c2.9,5.2,7.2,7.8,7.2,7.8c0.7,0.7,4.9,1,2.6-1.9c-4.7-5.8-4.1-8.5-4.1-8.5s-0.7-4.8,0.6-4.9
			c1.1-0.1,2.4,2.3,2.8,3.6c0.9,2.3,1.4,5.8,2.9,5c0.6-0.3,0.3-1,0.2-2.4c-0.1-0.7,0.1-1.9,0-2.6c-0.1-0.6-1-3.8-1.3-4.7
			c-0.3-1-1.8-4.7-2.2-5.7c-0.5-1.1-0.9-3.1-0.9-4.6s2.5-10.9,3-12.7c0.4-1.8,10.5-27.9,10.5-38.6c0-5.3,0.4-13.5,0.7-21.2
			c1,5.3,2.2,11.4,3,14.1c1.1,3.7,1.5,12.3-1.5,18.5c-0.2,0.4-0.4,0.7-0.6,1.1c-0.9,1.6-1.8,3.1-2.5,4.7
			c-7.4,14.6-8.1,27.2-8.1,36.4c0,1.5,0.1,3,0.2,4.8l0,0c0-0.2,0-0.4,0-0.5c0.4,5.5,1.5,13,3.7,25.9c-0.2-0.8-0.3-1.2-0.3-1.2
			c1.7,10.2,4.2,23.8,7.6,42.6c0.9,4.8,1.1,9.7,0.7,14.6c-0.8,9,0.2,21.9,5.8,49.9c2.3,11.4,1.2,17.7-0.7,21.6l0,0
			c-2.7,5.5-6.9,6.2-5.5,9.9c2.2,2.6,13,1.7,17.7,1.5c1.3-0.1,2.4-0.2,3.1-2c0.5-1.3,0.6-2.1-1.7-7.5c-1.4-3.2-1.3-8.6-1.3-8.6
			s3.4-46.8,3.4-53.5c0-6.5-0.4-11.1-0.9-14.1c-0.5-2.9-0.5-5.8-0.2-8.7c0.5-4.3,1-10.2,1.5-16.8c0,0.2,0,0.4,0,0.6
			c2.7-33.6,3.2-55.3,3.2-55.3h4l-0.1,0.1c0,0,1.3,50.6,4.3,71.8c0.4,2.8,0.4,5.7,0,8.5c-0.4,2.9-0.9,7.4-0.9,13.9
			c0,6.2,3,49.9,3,49.9s0.4,5-0.3,9.5c-0.1,0.3-0.1,0.6-0.2,0.9c0,0,0.1-0.5,0.3-1.2c-0.1,0.9-0.3,1.8-0.6,2.6
			c-1.3,4.1-2,5.7-1.9,7.2c0.1,1.4,1.2,2.5,2.6,2.5c4.7,0.2,16.8,1.2,18.1-1.4c2.9-6.3-12.9-4.3-6.2-31.6
			c6.7-27.7,7.4-40.7,6.3-49.9c-0.6-4.9-0.5-9.8,0.2-14.7c6.1-39.8,12.2-57.5,12.2-72.3c0-11.4-0.9-18.8-2.6-24.7l0,0
			c-0.1-0.4-0.2-0.8-0.4-1.2l0,0c-0.4-1.2-0.8-2.3-1.2-3.4l0,0c-0.1-0.4-0.3-0.7-0.4-1.1l0,0c-0.3-0.7-0.6-1.4-1-2.1l0,0
			c-0.2-0.3-0.3-0.7-0.5-1c0,0,0,0,0-0.1c-0.2-0.3-0.3-0.7-0.5-1c0,0,0,0,0-0.1c-0.4-0.7-0.7-1.4-1.1-2.1c0,0,0,0,0-0.1
			c-0.2-0.3-0.4-0.7-0.6-1v-0.1c-0.2-0.3-0.4-0.7-0.6-1v-0.1c-0.2-0.4-0.4-0.7-0.6-1.1c-2.8-4.9-2.7-14-1.8-19.7
			c0-0.2,0.1-0.3,0.1-0.5v-0.1c0-0.2,0.1-0.3,0.1-0.5v-0.1c0-0.2,0.1-0.3,0.1-0.5V509c0-0.2,0.1-0.4,0.1-0.6v-0.1
			c0-0.2,0.1-0.4,0.1-0.6c0,0,0,0,0-0.1c0-0.2,0.1-0.4,0.1-0.7v-0.1c0-0.2,0.1-0.5,0.1-0.7l0,0c0.1-0.2,0.1-0.5,0.2-0.7v-0.1
			c0.1-0.2,0.1-0.5,0.2-0.8v-0.1c0.1-0.2,0.1-0.5,0.2-0.7v-0.1c0.1-0.3,0.1-0.5,0.2-0.8v-0.1c0.1-0.3,0.1-0.5,0.2-0.8l0,0
			c0.1-0.3,0.1-0.6,0.2-0.8c0-0.1,0-0.1,0-0.2c0.1-0.3,0.1-0.6,0.2-0.8c0,0,0,0,0-0.1c0.1-0.3,0.1-0.5,0.2-0.8c0-0.1,0-0.1,0-0.2
			s0.1-0.3,0.1-0.4c0,0.3,0,0.6,0,0.9c0,0.1,0,0.1,0,0.2c0,0.4,0,0.8,0.1,1.2v0.1c0,0.4,0,0.8,0.1,1.3v0.1c0,0.4,0,0.8,0.1,1.3
			c0,0.1,0,0.1,0,0.2c0,0.4,0,0.8,0.1,1.2v0.1c0,0.4,0,0.8,0.1,1.3v0.1c0,0.4,0,0.9,0,1.3l0,0c0,0.4,0,0.8,0,1.2v0.1
			c0,0.4,0,0.8,0,1.2v0.1c0,0.4,0,0.8,0,1.1c0,0.1,0,0.1,0,0.2c0,0.4,0,0.7,0,1.1c0,0.1,0,0.1,0,0.2c0,0.4,0,0.7,0,1
			c0,0.1,0,0.1,0,0.2c0,0.3,0,0.7,0,1c0,0.1,0,0.1,0,0.2c0,0.3,0,0.6,0,1v0.1c0,0.3,0,0.6,0,0.9v0.1c0,0.3,0,0.6,0,0.9
			c0,0.2,0,0.5,0,0.7v0.1c0,0.2,0,0.5,0,0.7v0.1c0,0.3,0,0.5,0.1,0.8v0.1c0,0.3,0.1,0.5,0.1,0.8v0.1c0,0.3,0.1,0.6,0.1,0.9
			c0,0.1,0,0.1,0,0.2c0,0.3,0.1,0.6,0.1,0.9c0,0.1,0,0.1,0,0.2c0.1,0.3,0.1,0.6,0.2,1l0,0c0.1,0.3,0.1,0.6,0.2,1c0,0.1,0,0.1,0,0.2
			c0.1,0.3,0.1,0.6,0.2,1c0,0.1,0,0.1,0,0.2c0.1,0.3,0.1,0.7,0.2,1v0.1c0.1,0.3,0.2,0.7,0.2,1v0.1c0.1,0.3,0.2,0.7,0.3,1
			c0,0.1,0,0.1,0.1,0.2c0.1,0.3,0.2,0.7,0.3,1c0,0.1,0,0.1,0,0.2c0.1,0.4,0.2,0.7,0.3,1.1c0,0,0,0,0,0.1c0.1,0.4,0.2,0.7,0.3,1.1
			c0,0.1,0,0.1,0,0.2c0.1,0.4,0.2,0.7,0.3,1.1c0,0.1,0,0.1,0.1,0.2c0.1,0.4,0.2,0.7,0.3,1.1c0,0.1,0,0.1,0,0.2
			c0.1,0.4,0.2,0.7,0.3,1.1v0.1c0.1,0.4,0.2,0.7,0.3,1.1c0,0.1,0,0.1,0.1,0.2c0.1,0.3,0.2,0.7,0.3,1c0,0.1,0,0.1,0.1,0.2
			c0.1,0.4,0.2,0.7,0.3,1.1c0,0,0,0,0,0.1c0.1,0.3,0.2,0.7,0.3,1c0,0.1,0,0.1,0,0.2c0.1,0.3,0.2,0.7,0.3,1c0,0.1,0,0.1,0.1,0.2
			c0.1,0.3,0.2,0.7,0.3,1v0.1c0.1,0.3,0.2,0.6,0.3,1c0,0,0,0,0,0.1c0.1,0.3,0.2,0.6,0.3,0.9c0,0.1,0,0.1,0.1,0.2
			c0.1,0.3,0.2,0.6,0.3,0.9c0,0.1,0,0.1,0.1,0.2c0.1,0.3,0.2,0.6,0.3,0.9v0.1c0.1,0.3,0.2,0.5,0.3,0.8v0.1c0.1,0.3,0.2,0.5,0.3,0.8
			c0,0.1,0,0.1,0.1,0.2c0.1,0.3,0.2,0.5,0.3,0.7v0.1c0.1,0.2,0.2,0.5,0.2,0.7l0,0c0.8,2.3,1.5,4.7,2.1,7l0,0
			c0.1,0.4,0.2,0.8,0.3,1.2c0,0.1,0,0.1,0,0.2c0.1,0.3,0.2,0.6,0.2,1c0,0.1,0.1,0.2,0.1,0.3c0.1,0.3,0.1,0.6,0.2,0.8
			c0,0.1,0,0.2,0.1,0.3c0.1,0.3,0.2,0.7,0.2,1c0,0,0,0,0,0.1l0.4,1.9c0.3,1.3,0.5,2.4,0.7,3.2c0.4,2.4-0.6,3.6-0.9,4.6
			c-0.3,1-1.9,4.7-2.2,5.7s-1.3,4.1-1.3,4.7c-0.1,0.7,0.1,1.9,0,2.6c-0.1,1.4-0.4,2.1,0.2,2.4c1.6,0.8,2-2.8,2.9-5
			c0.5-1.2,1.7-3.7,2.8-3.6c1.3,0.1,0.6,4.9,0.6,4.9s0.6,2.7-4.1,8.5c-2.4,2.9,1.8,2.6,2.6,1.9c0,0,4.3-2.6,7.2-7.8
			C845.7,586,846.3,582.4,846.2,580.1z"/>
		<circle class="st7" cx="793" cy="411.3" r="14.7"/>
		<circle class="st7" cx="793" cy="542.2" r="14.7"/>
		<g>
			<path class="st8" d="M796.8,419.8c0,9.5-7.3,9.5-7.3,19.1c0,9.5,7.3,9.5,7.3,19.1s-7.3,9.6-7.3,19.1c0,9.6,7.3,9.6,7.3,19.1
				c0,9.6-7.3,9.6-7.3,19.1c0,9.6,7.3,9.6,7.3,19.1"/>
		</g>
		<g>
			<path class="st8" d="M789.5,534.4c0-9.5,7.3-9.5,7.3-19.1c0-9.5-7.3-9.5-7.3-19.1s7.3-9.6,7.3-19.1c0-9.6-7.3-9.6-7.3-19.1
				c0-9.6,7.3-9.6,7.3-19.1s-7.3-9.6-7.3-19.1"/>
		</g>
		<circle class="st9" cx="793" cy="411.3" r="9.2"/>
		<circle class="st9" cx="793" cy="542.2" r="9.2"/>
	</g>
	<g>
		<path class="st0" d="M1121.7,580.1c-0.2-3.5-1.4-11-1.4-11l-0.3-3l0.1,0.1c0,0-0.9-18.2-1.1-26s-3.5-18.3-4.8-23.9
			c-1.3-5.7-1.7-16.8-1.5-30.2c0.2-13.8-0.8-24.6-3.2-28c-2.8-4-8.4-5.4-10.6-5.9c-1.7-0.5-3.6-1-5.6-1.6c0,0,0,0,0-0.1
			c2.5-6.5,2.5-13.8,0.1-20.4c-0.7-1.9-1.5-3.7-2-5.7c-0.7-3-0.4-6-0.5-9.1c-0.2-5.4-0.6-12.2-3.2-17.1c-2.1-4-5.2-8-10-8.4
			c-1.1-0.1-1.6,0.2-2.5-0.4c-1-0.6-3.1-2.4-6.3-2.9c-9.5-1.5-17.7,4.1-21.6,12.7c-2.9,6.3-3.1,13.4-2.9,20.3c0.1,2.9,0.2,5.8-1,8.4
			c-1.7,3.8-5.9,5.9-8.3,9.3c-1.9,2.7-2.5,6.2-2.7,9.5c-0.1,2.2,0,4.4,0.5,6.5c-1.1,0.5-2.3,1.2-3.3,2.1l0,0l0,0
			c-0.2,0.1-0.3,0.3-0.5,0.5l0,0c-0.1,0.1-0.3,0.3-0.4,0.4l-0.1,0.1c-0.1,0.1-0.2,0.2-0.3,0.4c0,0.1-0.1,0.1-0.1,0.2
			c-0.1,0.2-0.3,0.4-0.4,0.5c-2.4,3.4-3.4,14.6-3.2,28.4c0.2,13.5-0.2,24.6-1.5,30.2c-1.3,5.7-4.6,16.2-4.8,23.9c0,0.2,0,0.3,0,0.5
			v0.1c0,0.2,0,0.4,0,0.5v0.1c0,0.2,0,0.3,0,0.5v0.1c0,0.2,0,0.4,0,0.6v0.1c0,0.2,0,0.4,0,0.5v0.1c0,0.2,0,0.4,0,0.6
			c0,0.1,0,0.1,0,0.2c0,0.2,0,0.4,0,0.6l0,0c0,0.2,0,0.5,0,0.7v0.1c0,0.2,0,0.5,0,0.7l0,0c0,0.3,0,0.5,0,0.8l0,0c0,0.5,0,1-0.1,1.6
			v0.1c0,0.8-0.1,1.6-0.1,2.5l0,0c0,0.3,0,0.5,0,0.8l0,0c-0.3,7.1-0.7,13.9-0.7,13.9l0,0l-0.3,2.9c0,0-1.2,7.5-1.4,11
			c-0.1,2.3,0.5,5.8,2.1,8.8c2.9,5.2,7.2,7.8,7.2,7.8c0.7,0.7,4.9,1,2.6-1.9c-4.7-5.8-4.1-8.5-4.1-8.5s-0.7-4.8,0.6-4.9
			c1.1-0.1,2.4,2.3,2.8,3.6c0.9,2.3,1.4,5.8,2.9,5c0.6-0.3,0.3-1,0.2-2.4c-0.1-0.7,0.1-1.9,0-2.6c-0.1-0.6-1-3.8-1.3-4.7
			s-1.8-4.7-2.2-5.7c-0.5-1.1-0.9-3.1-0.9-4.6s2.5-10.9,3-12.7c0.4-1.8,10.5-27.9,10.5-38.6c0-5.3,0.4-13.5,0.7-21.2
			c1,5.3,2.2,11.4,3,14.1c1.1,3.7,1.5,12.3-1.5,18.5c-0.2,0.4-0.4,0.7-0.6,1.1c-0.9,1.6-1.8,3.1-2.5,4.7
			c-7.4,14.6-8.1,27.2-8.1,36.4c0,1.5,0.1,3,0.2,4.8l0,0c0-0.2,0-0.4,0-0.5c0.4,5.5,1.5,13,3.7,25.9c-0.2-0.8-0.3-1.2-0.3-1.2
			c1.7,10.2,4.2,23.8,7.6,42.6c0.9,4.8,1.1,9.7,0.7,14.6c-0.8,9,0.2,21.9,5.8,49.9c2.3,11.4,1.2,17.7-0.7,21.6l0,0
			c-2.7,5.5-6.9,6.2-5.5,9.9c2.2,2.6,13,1.7,17.7,1.5c1.3-0.1,2.4-0.2,3.1-2c0.5-1.3,0.6-2.1-1.7-7.5c-1.4-3.2-1.3-8.6-1.3-8.6
			s3.4-46.8,3.4-53.5c0-6.5-0.4-11.1-0.9-14.1c-0.5-2.9-0.5-5.8-0.2-8.7c0.5-4.3,1-10.2,1.5-16.8c0,0.2,0,0.4,0,0.6
			c2.7-33.6,3.2-55.3,3.2-55.3h4l-0.1,0.1c0,0,1.3,50.6,4.3,71.8c0.4,2.8,0.4,5.7,0,8.5c-0.4,2.9-0.9,7.4-0.9,13.9
			c0,6.2,3,49.9,3,49.9s0.4,5-0.3,9.5c-0.1,0.3-0.1,0.6-0.2,0.9c0,0,0.1-0.5,0.3-1.2c-0.1,0.9-0.3,1.8-0.6,2.6
			c-1.3,4.1-2,5.7-1.9,7.2c0.1,1.4,1.2,2.5,2.6,2.5c4.7,0.2,16.8,1.2,18.1-1.4c2.9-6.3-12.9-4.3-6.2-31.6
			c6.7-27.7,7.4-40.7,6.3-49.9c-0.6-4.9-0.5-9.8,0.2-14.7c6.1-39.8,12.2-57.5,12.2-72.3c0-11.4-0.9-18.8-2.6-24.7l0,0
			c-0.1-0.4-0.2-0.8-0.4-1.2l0,0c-0.4-1.2-0.8-2.3-1.2-3.4l0,0c-0.1-0.4-0.3-0.7-0.4-1.1l0,0c-0.3-0.7-0.6-1.4-1-2.1l0,0
			c-0.2-0.3-0.3-0.7-0.5-1c0,0,0,0,0-0.1c-0.2-0.3-0.3-0.7-0.5-1c0,0,0,0,0-0.1c-0.4-0.7-0.7-1.4-1.1-2.1c0,0,0,0,0-0.1
			c-0.2-0.3-0.4-0.7-0.6-1v-0.1c-0.2-0.3-0.4-0.7-0.6-1v-0.1c-0.2-0.4-0.4-0.7-0.6-1.1c-2.8-4.9-2.7-14-1.8-19.7
			c0-0.2,0.1-0.3,0.1-0.5v-0.1c0-0.2,0.1-0.3,0.1-0.5v-0.1c0-0.2,0.1-0.3,0.1-0.5V509c0-0.2,0.1-0.4,0.1-0.6v-0.1
			c0-0.2,0.1-0.4,0.1-0.6c0,0,0,0,0-0.1c0-0.2,0.1-0.4,0.1-0.7v-0.1c0-0.2,0.1-0.5,0.1-0.7l0,0c0.1-0.2,0.1-0.5,0.2-0.7v-0.1
			c0.1-0.2,0.1-0.5,0.2-0.8v-0.1c0.1-0.2,0.1-0.5,0.2-0.7v-0.1c0.1-0.3,0.1-0.5,0.2-0.8v-0.1c0.1-0.3,0.1-0.5,0.2-0.8l0,0
			c0.1-0.3,0.1-0.6,0.2-0.8c0-0.1,0-0.1,0-0.2c0.1-0.3,0.1-0.6,0.2-0.8c0,0,0,0,0-0.1c0.1-0.3,0.1-0.5,0.2-0.8c0-0.1,0-0.1,0-0.2
			s0.1-0.3,0.1-0.4c0,0.3,0,0.6,0,0.9c0,0.1,0,0.1,0,0.2c0,0.4,0,0.8,0.1,1.2v0.1c0,0.4,0,0.8,0.1,1.3v0.1c0,0.4,0,0.8,0.1,1.3
			c0,0.1,0,0.1,0,0.2c0,0.4,0,0.8,0.1,1.2v0.1c0,0.4,0,0.8,0.1,1.3v0.1c0,0.4,0,0.9,0,1.3l0,0c0,0.4,0,0.8,0,1.2v0.1
			c0,0.4,0,0.8,0,1.2v0.1c0,0.4,0,0.8,0,1.1c0,0.1,0,0.1,0,0.2c0,0.4,0,0.7,0,1.1c0,0.1,0,0.1,0,0.2c0,0.4,0,0.7,0,1
			c0,0.1,0,0.1,0,0.2c0,0.3,0,0.7,0,1c0,0.1,0,0.1,0,0.2c0,0.3,0,0.6,0,1v0.1c0,0.3,0,0.6,0,0.9v0.1c0,0.3,0,0.6,0,0.9
			c0,0.2,0,0.5,0,0.7v0.1c0,0.2,0,0.5,0,0.7v0.1c0,0.3,0,0.5,0.1,0.8v0.1c0,0.3,0.1,0.5,0.1,0.8v0.1c0,0.3,0.1,0.6,0.1,0.9
			c0,0.1,0,0.1,0,0.2c0,0.3,0.1,0.6,0.1,0.9c0,0.1,0,0.1,0,0.2c0.1,0.3,0.1,0.6,0.2,1l0,0c0.1,0.3,0.1,0.6,0.2,1c0,0.1,0,0.1,0,0.2
			c0.1,0.3,0.1,0.6,0.2,1c0,0.1,0,0.1,0,0.2c0.1,0.3,0.1,0.7,0.2,1v0.1c0.1,0.3,0.2,0.7,0.2,1v0.1c0.1,0.3,0.2,0.7,0.3,1
			c0,0.1,0,0.1,0.1,0.2c0.1,0.3,0.2,0.7,0.3,1c0,0.1,0,0.1,0,0.2c0.1,0.4,0.2,0.7,0.3,1.1c0,0,0,0,0,0.1c0.1,0.4,0.2,0.7,0.3,1.1
			c0,0.1,0,0.1,0,0.2c0.1,0.4,0.2,0.7,0.3,1.1c0,0.1,0,0.1,0.1,0.2c0.1,0.4,0.2,0.7,0.3,1.1c0,0.1,0,0.1,0,0.2
			c0.1,0.4,0.2,0.7,0.3,1.1v0.1c0.1,0.4,0.2,0.7,0.3,1.1c0,0.1,0,0.1,0.1,0.2c0.1,0.3,0.2,0.7,0.3,1c0,0.1,0,0.1,0.1,0.2
			c0.1,0.4,0.2,0.7,0.3,1.1c0,0,0,0,0,0.1c0.1,0.3,0.2,0.7,0.3,1c0,0.1,0,0.1,0,0.2c0.1,0.3,0.2,0.7,0.3,1c0,0.1,0,0.1,0.1,0.2
			c0.1,0.3,0.2,0.7,0.3,1v0.1c0.1,0.3,0.2,0.6,0.3,1c0,0,0,0,0,0.1c0.1,0.3,0.2,0.6,0.3,0.9c0,0.1,0,0.1,0.1,0.2
			c0.1,0.3,0.2,0.6,0.3,0.9c0,0.1,0,0.1,0.1,0.2c0.1,0.3,0.2,0.6,0.3,0.9v0.1c0.1,0.3,0.2,0.5,0.3,0.8v0.1c0.1,0.3,0.2,0.5,0.3,0.8
			c0,0.1,0,0.1,0.1,0.2c0.1,0.3,0.2,0.5,0.3,0.7v0.1c0.1,0.2,0.2,0.5,0.2,0.7l0,0c0.8,2.3,1.5,4.7,2.1,7l0,0
			c0.1,0.4,0.2,0.8,0.3,1.2c0,0.1,0,0.1,0,0.2c0.1,0.3,0.2,0.6,0.2,1c0,0.1,0.1,0.2,0.1,0.3c0.1,0.3,0.1,0.6,0.2,0.8
			c0,0.1,0,0.2,0.1,0.3c0.1,0.3,0.2,0.7,0.2,1c0,0,0,0,0,0.1l0.4,1.9c0.3,1.3,0.5,2.4,0.7,3.2c0.4,2.4-0.6,3.6-0.9,4.6
			s-1.9,4.7-2.2,5.7s-1.3,4.1-1.3,4.7c-0.1,0.7,0.1,1.9,0,2.6c-0.1,1.4-0.4,2.1,0.2,2.4c1.6,0.8,2-2.8,2.9-5
			c0.5-1.2,1.7-3.7,2.8-3.6c1.3,0.1,0.6,4.9,0.6,4.9s0.6,2.7-4.1,8.5c-2.4,2.9,1.8,2.6,2.6,1.9c0,0,4.3-2.6,7.2-7.8
			C1121.2,586,1121.8,582.4,1121.7,580.1z"/>
		<circle class="st7" cx="1068.5" cy="411.3" r="14.7"/>
		<circle class="st7" cx="1068.5" cy="542.2" r="14.7"/>
		<g>
			<path class="st8" d="M1072.3,419.8c0,9.5-7.3,9.5-7.3,19.1c0,9.5,7.3,9.5,7.3,19.1s-7.3,9.6-7.3,19.1c0,9.6,7.3,9.6,7.3,19.1
				c0,9.6-7.3,9.6-7.3,19.1c0,9.6,7.3,9.6,7.3,19.1"/>
		</g>
		<g>
			<path class="st8" d="M1065,534.4c0-9.5,7.3-9.5,7.3-19.1c0-9.5-7.3-9.5-7.3-19.1s7.3-9.6,7.3-19.1c0-9.6-7.3-9.6-7.3-19.1
				c0-9.6,7.3-9.6,7.3-19.1s-7.3-9.6-7.3-19.1"/>
		</g>
		<circle class="st9" cx="1068.5" cy="411.3" r="9.2"/>
		<circle class="st9" cx="1068.5" cy="542.2" r="9.2"/>
	</g>
</g>
<g>
	<g class="st10">
		<path class="st3" d="M143.4,163.9c0,1.7-0.3,3-0.8,3.9c-0.5,0.9-1.6,1.4-3.3,1.4h-18.1c-1.6-1.4-2.4-2.7-2.4-3.8
			c0-3.1,2.4-6.8,7.3-11.1l5.7-5c1.5-1.3,2.6-2.6,3.3-3.9c0.7-1.3,1.1-2.7,1.1-3.9c0-1.7-0.5-3.1-1.6-4.2c-1-1-2.4-1.6-4-1.6
			s-3,0.5-4.2,1.5c-1.2,1-2.1,2.4-2.8,4c-0.8,0-1.7-0.2-2.5-0.6c-0.9-0.4-1.5-0.8-1.9-1.4c0.4-1.2,1-2.3,1.7-3.4
			c0.7-1,1.6-1.9,2.7-2.7c1-0.8,2.2-1.4,3.5-1.8c1.3-0.4,2.8-0.7,4.4-0.7c1.6,0,3,0.3,4.3,0.8c1.3,0.5,2.5,1.3,3.5,2.2
			c1,1,1.7,2.1,2.3,3.3c0.5,1.3,0.8,2.6,0.8,4.1c0,1.5-0.2,2.8-0.5,3.9c-0.3,1.1-0.8,2.1-1.4,3.1c-0.6,1-1.4,1.9-2.3,2.8
			c-0.9,0.9-2,1.8-3.1,2.9l-4.5,3.8c-3.4,3-5.3,5.2-5.7,6.8c1.5-0.2,2.9-0.3,4.2-0.3c1.3-0.1,2.4-0.1,3.5-0.1H143.4z"/>
		<path class="st3" d="M150.6,131.4h23.1c0.7,1.5,1.1,2.7,1.1,3.6c0,0.9-0.3,1.8-0.9,2.7l-2,2.9c-3,4.4-5.2,8.6-6.8,12.6
			c-1.6,4.1-2.7,8.7-3.2,13.9l-0.2,2.1c-0.9,0.2-1.9,0.3-3,0.3c-1.1,0-2.2-0.1-3.3-0.3l0.2-2.4c0.9-9.2,4.1-17.6,9.5-25.4l0.6-0.9
			c0.8-1.2,1.9-2.6,3.3-4.1l-0.2-0.2c-1.6,0.3-4.5,0.5-8.9,0.5h-9.6c-0.2-0.7-0.3-1.5-0.3-2.4C150.1,133.3,150.3,132.4,150.6,131.4z
			"/>
		<path class="st3" d="M181.6,163.1c1-0.5,2.2-0.8,3.6-0.8c0.7,0,1.2,0,1.7,0.1c0.5,0.1,1,0.2,1.3,0.4c0.4,0.2,0.7,0.5,0.8,1
			c0.1,0.5,0.2,1.2,0.2,2.1c0,0.8,0,1.5-0.1,2c-0.1,0.5-0.3,0.9-0.7,1.1c-0.3,0.2-0.8,0.3-1.3,0.4c-0.5,0.1-1.1,0.1-1.9,0.1
			c-0.7,0-1.4,0-1.9-0.1c-0.5-0.1-1-0.2-1.4-0.4c-0.4-0.2-0.6-0.5-0.8-1c-0.1-0.5-0.2-1.2-0.2-2.1
			C181,164.8,181.2,163.8,181.6,163.1z"/>
		<path class="st3" d="M207,164.2l-0.1-3.9V147c0-0.6,0.1-3,0.3-7.1c-2.2,2.7-5,4.8-8.4,6.3c-1.4-0.8-2.3-2-2.6-3.6
			c5.4-3.4,9.1-7.1,10.9-11.2c0.8-0.2,1.8-0.3,2.8-0.3c1.1,0,2,0.1,2.9,0.3v28.9l-0.1,3.9l3.4-0.1h4c0.2,0.7,0.2,1.6,0.2,2.5
			c0,1-0.1,1.8-0.2,2.5h-22c-0.2-0.8-0.2-1.6-0.2-2.6s0.1-1.8,0.2-2.5h5.4L207,164.2z"/>
		<path class="st3" d="M242,131.1c1.9,1.9,2.9,5.1,2.9,9.6c0,4.1-0.8,7.1-2.4,9.1c-1.6,1.9-3.9,2.9-6.8,2.9s-5.2-1-6.8-2.9
			c-1.6-1.9-2.4-4.9-2.4-9.1c0-4.1,0.8-7.1,2.4-9c1.6-1.9,3.8-2.9,6.8-2.9C238.3,128.7,240.4,129.5,242,131.1z M235.7,132.7
			c-2.6,0-3.9,2.7-3.9,8c0,5.3,1.3,7.9,3.9,7.9c2.6,0,4-2.6,4-7.9C239.6,135.3,238.3,132.7,235.7,132.7z M236.2,169.2l22-39.8
			c0.7-0.2,1.5-0.3,2.4-0.3c1.6,0,2.7,0.1,3.4,0.3l-21.9,39.8c-0.7,0.2-1.5,0.3-2.5,0.3c-0.8,0-1.5,0-2.1-0.1
			C237,169.4,236.5,169.3,236.2,169.2z M270.9,167.5c-1.6,1.6-3.7,2.4-6.3,2.4c-3.1,0-5.4-1-6.9-3c-1.5-2-2.3-5-2.3-9
			c0-4,0.8-7,2.4-9c1.6-1.9,3.8-2.9,6.8-2.9c2.9,0,5.2,1,6.8,2.9c1.6,1.9,2.4,4.9,2.4,9.1C273.8,162.4,272.8,165.6,270.9,167.5z
			 M268.7,158c0-5.3-1.3-8-4-8c-2.7,0-4,2.7-4,8c0,5.3,1.3,7.9,4,7.9C267.3,165.9,268.7,163.3,268.7,158z"/>
	</g>
	<g class="st10">
		<path class="st3" d="M139,210.5c-0.5,0.8-1.4,1.2-2.5,1.2c-0.7,0-1.2-0.2-1.5-0.5s-0.7-0.9-0.9-1.7l-1.9-5.2
			c-0.5-1.3-1.1-2.2-1.7-2.8c-0.6-0.5-1.4-0.8-2.4-0.8c-1,0-1.8,0-2.5,0.1v10.8c-0.5,0.1-1.1,0.1-1.9,0.1c-0.8,0-1.4,0-1.9-0.1
			v-24.1c0.5-0.1,1.1-0.1,1.9-0.1c0.8,0,1.4,0,1.9,0.1v10.1l2-0.1c0.3,0,0.6-0.1,0.8-0.2c0.2-0.1,0.4-0.4,0.6-0.8l4.5-7.7
			c0.3-0.6,0.6-1,0.9-1.2c0.3-0.2,0.8-0.3,1.4-0.3c0.6,0,1.3,0,2.1,0.1l0.2,0.3l-5.3,9c-0.4,0.8-0.9,1.3-1.4,1.8
			c1.1,0.2,2,0.7,2.6,1.3c0.6,0.7,1.2,1.7,1.7,3l1.9,5.1C137.9,209.2,138.5,210.1,139,210.5z"/>
		<path class="st3" d="M141.4,195.8c0.2-0.9,0.7-1.5,1.3-1.9c1.6,0.4,2.7,1.4,3.2,3.1c0.9-2.1,2.5-3.1,4.6-3.1
			c0.6,0,1.2,0.1,1.9,0.2c0,1.4-0.3,2.5-0.9,3.5c-0.2-0.1-0.7-0.1-1.4-0.2c-1.6,0-2.9,0.9-3.8,2.7v11.5c-0.4,0.1-1.1,0.1-1.8,0.1
			s-1.4,0-1.8-0.1v-12.1C142.7,197.8,142.2,196.6,141.4,195.8z"/>
		<path class="st3" d="M160.1,197.1v14.4c-0.4,0.1-1.1,0.1-1.8,0.1c-0.8,0-1.4,0-1.8-0.1v-12.9c0-0.7-0.1-1.1-0.4-1.4
			c-0.2-0.3-0.6-0.4-1.2-0.4h-0.4c-0.1-0.5-0.2-1-0.2-1.3s0.1-0.8,0.2-1.3c0.8-0.1,1.5-0.1,2.2-0.1h0.5c0.9,0,1.6,0.3,2.1,0.8
			C159.8,195.4,160.1,196.2,160.1,197.1z M155.7,190.8c-0.2-0.4-0.3-0.9-0.3-1.6c0-1,0.2-1.5,0.5-1.7c0.4-0.2,0.9-0.3,1.8-0.3
			c0.9,0,1.5,0.1,1.8,0.4c0.3,0.2,0.4,0.8,0.4,1.7c0,0.8-0.2,1.4-0.4,1.6c-0.3,0.2-0.9,0.4-1.8,0.4
			C156.7,191.3,156.1,191.1,155.7,190.8z"/>
		<path class="st3" d="M173.9,194.1c0.1,0.4,0.2,0.9,0.2,1.4s-0.1,1-0.2,1.3l-4.3-0.1v10.5c0,1,0.5,1.5,1.4,1.5h2.4
			c0.2,0.5,0.3,1.1,0.3,1.6c0,0.5,0,0.9-0.1,1.1c-1.4,0.2-2.7,0.2-4,0.2c-2.5,0-3.7-1.2-3.7-3.6v-11.3l-2.6,0
			c-0.1-0.4-0.1-0.8-0.1-1.3c0-0.5,0-0.9,0.1-1.4l2.6,0.1V191c0-0.8,0.1-1.4,0.4-1.8c0.3-0.4,0.8-0.5,1.5-0.5h1.4l0.2,0.2v5.2
			L173.9,194.1z"/>
		<path class="st3" d="M182.3,197.1v14.4c-0.4,0.1-1.1,0.1-1.8,0.1c-0.8,0-1.4,0-1.8-0.1v-12.9c0-0.7-0.1-1.1-0.4-1.4
			c-0.2-0.3-0.6-0.4-1.2-0.4h-0.4c-0.1-0.5-0.2-1-0.2-1.3s0.1-0.8,0.2-1.3c0.8-0.1,1.5-0.1,2.2-0.1h0.5c0.9,0,1.6,0.3,2.1,0.8
			C182.1,195.4,182.3,196.2,182.3,197.1z M177.9,190.8c-0.2-0.4-0.3-0.9-0.3-1.6c0-1,0.2-1.5,0.5-1.7c0.4-0.2,0.9-0.3,1.8-0.3
			c0.9,0,1.5,0.1,1.8,0.4c0.3,0.2,0.4,0.8,0.4,1.7c0,0.8-0.2,1.4-0.4,1.6c-0.3,0.2-0.9,0.4-1.8,0.4
			C179,191.3,178.3,191.1,177.9,190.8z"/>
		<path class="st3" d="M186.1,210.2c0-0.4,0.2-0.9,0.4-1.4c0.2-0.5,0.5-0.9,0.8-1.2c1.9,1,3.4,1.6,4.6,1.6c1.2,0,2.1-0.2,2.7-0.6
			c0.6-0.4,0.9-0.9,0.9-1.6c0-1-0.7-1.8-2.2-2.4l-2-0.7c-3-1.1-4.5-2.8-4.5-5c0-1.6,0.6-2.9,1.7-3.8c1.2-0.9,2.7-1.4,4.6-1.4
			c1.9,0,3.8,0.4,5.7,1.3c0,0.5-0.1,1-0.3,1.5c-0.2,0.5-0.5,0.9-0.8,1.2c-1.7-0.8-3.2-1.2-4.7-1.2c-0.8,0-1.4,0.2-1.9,0.6
			c-0.5,0.4-0.7,0.8-0.7,1.4s0.2,1,0.5,1.3s0.9,0.6,1.7,0.9l2.1,0.8c3,1.2,4.5,2.9,4.5,5.3c0,1.6-0.6,2.9-1.9,3.8s-2.9,1.4-5.1,1.4
			C190.1,212,188.1,211.4,186.1,210.2z"/>
		<path class="st3" d="M212.4,200.8v-0.4c0-2.7-1-4-3.1-4c-1.1,0-2,0.5-2.6,1.6c-0.6,1.1-0.9,2.7-0.9,4.8c0,4,1.3,6.1,4,6.1
			c1.3,0,2.7-0.6,4.3-1.8c0.3,0.2,0.6,0.5,0.9,0.9c0.3,0.4,0.5,0.8,0.6,1.2c-1.7,1.7-3.8,2.6-6.3,2.6c-1.2,0-2.3-0.2-3.2-0.7
			c-0.9-0.5-1.7-1.1-2.3-1.9s-1-1.8-1.3-3c-0.3-1.2-0.4-2.4-0.4-3.8c0-1.4,0.2-2.7,0.6-3.8c0.4-1.1,0.9-2.1,1.6-2.8
			c0.7-0.8,1.4-1.3,2.3-1.7c0.9-0.4,1.8-0.6,2.8-0.6c1,0,1.9,0.2,2.7,0.5c0.8,0.3,1.5,0.7,2,1.2c0.6,0.5,1,1.1,1.3,1.7
			c0.3,0.6,0.4,1.3,0.4,2c0,1.3-0.6,2-1.8,2C213.3,201,212.8,200.9,212.4,200.8z"/>
		<path class="st3" d="M233.6,199.6v8.2c0,1.4,0.2,2.5,0.6,3.2c-0.7,0.5-1.4,0.8-2.2,0.8c-0.8,0-1.3-0.2-1.6-0.6
			c-0.3-0.4-0.4-1-0.4-1.7v-8.9c0-1.2-0.2-2.1-0.5-2.6c-0.3-0.5-0.9-0.8-1.6-0.8c-0.8,0-1.6,0.2-2.4,0.6c-0.8,0.4-1.5,0.9-2.1,1.6
			v12.2c-0.2,0-0.5,0.1-0.8,0.1c-0.3,0-0.6,0-1,0c-0.3,0-0.7,0-1,0c-0.3,0-0.6-0.1-0.8-0.1v-25.7l0.2-0.2h1.4c0.7,0,1.2,0.2,1.5,0.5
			s0.4,1,0.4,1.8v8.2c1.7-1.6,3.6-2.3,5.6-2.3c1.6,0,2.8,0.5,3.5,1.6C233.3,196.4,233.6,197.8,233.6,199.6z"/>
		<path class="st3" d="M251.9,204h-10.4c0.1,1.6,0.4,2.9,1,3.7s1.7,1.3,3.2,1.3c0.7,0,1.5-0.1,2.3-0.3c0.8-0.2,1.7-0.6,2.5-1
			c0.6,0.5,1,1.3,1.2,2.3c-1.9,1.3-4.1,2-6.6,2c-1.3,0-2.5-0.2-3.4-0.7c-0.9-0.5-1.7-1.1-2.2-1.9c-0.6-0.8-1-1.8-1.3-2.9
			c-0.3-1.1-0.4-2.4-0.4-3.7c0-1.3,0.2-2.5,0.5-3.6c0.3-1.1,0.8-2.1,1.4-2.9c0.6-0.8,1.4-1.4,2.3-1.9s1.9-0.7,3.1-0.7s2.1,0.2,3,0.6
			s1.6,0.9,2.2,1.6c0.6,0.7,1.1,1.5,1.4,2.4c0.3,0.9,0.5,1.9,0.5,3c0,0.5,0,0.9-0.1,1.4C252.1,203,252,203.5,251.9,204z
			 M245.1,196.3c-2.2,0-3.4,1.7-3.6,5h7.1v-0.5c0-1.3-0.3-2.4-0.9-3.3C247.2,196.8,246.3,196.3,245.1,196.3z"/>
		<path class="st3" d="M255.7,195.8c0.2-0.9,0.7-1.5,1.3-1.9c1.6,0.4,2.7,1.4,3.2,3.1c0.9-2.1,2.5-3.1,4.6-3.1
			c0.6,0,1.2,0.1,1.9,0.2c0,1.4-0.3,2.5-0.9,3.5c-0.2-0.1-0.7-0.1-1.4-0.2c-1.6,0-2.9,0.9-3.8,2.7v11.5c-0.4,0.1-1.1,0.1-1.8,0.1
			s-1.4,0-1.8-0.1v-12.1C257,197.8,256.5,196.6,255.7,195.8z"/>
	</g>
	<g class="st10">
		<path class="st3" d="M149.9,254.1l-7.8-0.1l-0.2-0.3V230l0.2-0.2l7.3-0.1c2.6,0,4.5,0.6,5.8,1.7s1.9,2.7,1.9,4.7
			c0,1.1-0.3,2.1-0.9,3c-0.6,0.9-1.4,1.5-2.4,1.9c0.6,0.2,1.2,0.5,1.7,0.9c0.6,0.4,1,0.9,1.4,1.4s0.7,1.1,1,1.8s0.4,1.4,0.4,2.1
			c0,2.1-0.7,3.7-2.1,5C154.8,253.4,152.7,254.1,149.9,254.1z M145.6,232.5v7.3h3.7c0.7,0,1.4-0.1,1.9-0.3c0.5-0.2,0.9-0.4,1.2-0.8
			c0.3-0.3,0.5-0.7,0.7-1.2c0.1-0.4,0.2-0.9,0.2-1.4c0-2.4-1.3-3.6-4-3.6c-0.9,0-1.6,0-2.3,0S146,232.6,145.6,232.5z M145.6,251.2
			l4.3,0c0.9,0,1.6-0.1,2.2-0.4c0.6-0.2,1.1-0.5,1.4-0.9c0.4-0.4,0.6-0.8,0.8-1.3c0.2-0.5,0.2-1,0.2-1.6c0-0.5-0.1-1-0.3-1.5
			c-0.2-0.5-0.5-1-0.8-1.4c-0.4-0.4-0.9-0.7-1.5-1s-1.3-0.4-2.2-0.4h-4.1V251.2z"/>
		<path class="st3" d="M175.7,246.4h-10.4c0.1,1.6,0.4,2.9,1,3.7s1.7,1.3,3.2,1.3c0.7,0,1.5-0.1,2.3-0.3c0.8-0.2,1.7-0.6,2.5-1
			c0.6,0.5,1,1.3,1.2,2.3c-1.9,1.3-4.1,2-6.6,2c-1.3,0-2.5-0.2-3.4-0.7c-0.9-0.5-1.7-1.1-2.2-1.9c-0.6-0.8-1-1.8-1.3-2.9
			c-0.3-1.1-0.4-2.4-0.4-3.7c0-1.3,0.2-2.5,0.5-3.6c0.3-1.1,0.8-2.1,1.4-2.9c0.6-0.8,1.4-1.4,2.3-1.9s1.9-0.7,3.1-0.7s2.1,0.2,3,0.6
			s1.6,0.9,2.2,1.6c0.6,0.7,1.1,1.5,1.4,2.4c0.3,0.9,0.5,1.9,0.5,3c0,0.5,0,0.9-0.1,1.4C175.8,245.4,175.8,245.9,175.7,246.4z
			 M168.9,238.7c-2.2,0-3.4,1.7-3.6,5h7.1v-0.5c0-1.3-0.3-2.4-0.9-3.3C171,239.2,170.1,238.7,168.9,238.7z"/>
		<path class="st3" d="M179.4,238.2c0.2-0.9,0.7-1.5,1.3-1.9c1.6,0.4,2.7,1.4,3.2,3.1c0.9-2.1,2.5-3.1,4.6-3.1
			c0.6,0,1.2,0.1,1.9,0.2c0,1.4-0.3,2.5-0.9,3.5c-0.2-0.1-0.7-0.1-1.4-0.2c-1.6,0-2.9,0.9-3.8,2.7v11.5c-0.4,0.1-1.1,0.1-1.8,0.1
			s-1.4,0-1.8-0.1v-12.1C180.7,240.2,180.3,239,179.4,238.2z"/>
		<path class="st3" d="M205.6,246.4h-10.4c0.1,1.6,0.4,2.9,1,3.7s1.7,1.3,3.2,1.3c0.7,0,1.5-0.1,2.3-0.3c0.8-0.2,1.7-0.6,2.5-1
			c0.6,0.5,1,1.3,1.2,2.3c-1.9,1.3-4.1,2-6.6,2c-1.3,0-2.5-0.2-3.4-0.7c-0.9-0.5-1.7-1.1-2.2-1.9c-0.6-0.8-1-1.8-1.3-2.9
			c-0.3-1.1-0.4-2.4-0.4-3.7c0-1.3,0.2-2.5,0.5-3.6c0.3-1.1,0.8-2.1,1.4-2.9c0.6-0.8,1.4-1.4,2.3-1.9s1.9-0.7,3.1-0.7s2.1,0.2,3,0.6
			s1.6,0.9,2.2,1.6c0.6,0.7,1.1,1.5,1.4,2.4c0.3,0.9,0.5,1.9,0.5,3c0,0.5,0,0.9-0.1,1.4C205.8,245.4,205.7,245.9,205.6,246.4z
			 M198.9,238.7c-2.2,0-3.4,1.7-3.6,5h7.1v-0.5c0-1.3-0.3-2.4-0.9-3.3C201,239.2,200.1,238.7,198.9,238.7z"/>
		<path class="st3" d="M214.5,239.5v14.4c-0.4,0.1-1.1,0.1-1.8,0.1c-0.8,0-1.4,0-1.8-0.1V241c0-0.7-0.1-1.1-0.4-1.4
			c-0.2-0.3-0.6-0.4-1.2-0.4h-0.4c-0.1-0.5-0.2-1-0.2-1.3s0.1-0.8,0.2-1.3c0.8-0.1,1.5-0.1,2.2-0.1h0.5c0.9,0,1.6,0.3,2.1,0.8
			C214.2,237.8,214.5,238.6,214.5,239.5z M210.1,233.2c-0.2-0.4-0.3-0.9-0.3-1.6c0-1,0.2-1.5,0.5-1.7c0.4-0.2,0.9-0.3,1.8-0.3
			c0.9,0,1.5,0.1,1.8,0.4c0.3,0.2,0.4,0.8,0.4,1.7c0,0.8-0.2,1.4-0.4,1.6c-0.3,0.2-0.9,0.4-1.8,0.4
			C211.1,233.7,210.5,233.5,210.1,233.2z"/>
		<path class="st3" d="M229.1,243.2v-0.4c0-2.7-1-4-3.1-4c-1.1,0-2,0.5-2.6,1.6c-0.6,1.1-0.9,2.7-0.9,4.8c0,4,1.3,6.1,4,6.1
			c1.3,0,2.7-0.6,4.3-1.8c0.3,0.2,0.6,0.5,0.9,0.9c0.3,0.4,0.5,0.8,0.6,1.2c-1.7,1.7-3.8,2.6-6.3,2.6c-1.2,0-2.3-0.2-3.2-0.7
			c-0.9-0.5-1.7-1.1-2.3-1.9s-1-1.8-1.3-3c-0.3-1.2-0.4-2.4-0.4-3.8c0-1.4,0.2-2.7,0.6-3.8c0.4-1.1,0.9-2.1,1.6-2.8
			c0.7-0.8,1.4-1.3,2.3-1.7c0.9-0.4,1.8-0.6,2.8-0.6c1,0,1.9,0.2,2.7,0.5c0.8,0.3,1.5,0.7,2,1.2c0.6,0.5,1,1.1,1.3,1.7
			c0.3,0.6,0.4,1.3,0.4,2c0,1.3-0.6,2-1.8,2C230,243.4,229.5,243.3,229.1,243.2z"/>
		<path class="st3" d="M250.4,242v8.2c0,1.4,0.2,2.5,0.6,3.2c-0.7,0.5-1.4,0.8-2.2,0.8c-0.8,0-1.3-0.2-1.6-0.6
			c-0.3-0.4-0.4-1-0.4-1.7v-8.9c0-1.2-0.2-2.1-0.5-2.6c-0.3-0.5-0.9-0.8-1.6-0.8c-0.8,0-1.6,0.2-2.4,0.6c-0.8,0.4-1.5,0.9-2.1,1.6
			v12.2c-0.2,0-0.5,0.1-0.8,0.1c-0.3,0-0.6,0-1,0c-0.3,0-0.7,0-1,0c-0.3,0-0.6-0.1-0.8-0.1v-25.7l0.2-0.2h1.4c0.7,0,1.2,0.2,1.5,0.5
			s0.4,1,0.4,1.8v8.2c1.7-1.6,3.6-2.3,5.6-2.3c1.6,0,2.8,0.5,3.5,1.6C250,238.8,250.4,240.2,250.4,242z"/>
	</g>
</g>
<g class="st10">
	<path class="st6" d="M1188.9,163.9c0,1.7-0.3,3-0.8,3.9c-0.5,0.9-1.6,1.4-3.3,1.4h-18.1c-1.6-1.4-2.4-2.7-2.4-3.8
		c0-3.1,2.4-6.8,7.3-11.1l5.7-5c1.5-1.3,2.6-2.6,3.3-3.9c0.7-1.3,1.1-2.7,1.1-3.9c0-1.7-0.5-3.1-1.6-4.2c-1-1-2.4-1.6-4-1.6
		s-3,0.5-4.2,1.5c-1.2,1-2.1,2.4-2.8,4c-0.8,0-1.7-0.2-2.5-0.6c-0.9-0.4-1.5-0.8-1.9-1.4c0.4-1.2,1-2.3,1.7-3.4
		c0.7-1,1.6-1.9,2.7-2.7s2.2-1.4,3.5-1.8c1.3-0.4,2.8-0.7,4.4-0.7c1.6,0,3,0.3,4.3,0.8c1.3,0.5,2.5,1.3,3.5,2.2c1,1,1.7,2.1,2.3,3.3
		c0.5,1.3,0.8,2.6,0.8,4.1c0,1.5-0.2,2.8-0.5,3.9c-0.3,1.1-0.8,2.1-1.4,3.1c-0.6,1-1.4,1.9-2.3,2.8c-0.9,0.9-2,1.8-3.1,2.9l-4.5,3.8
		c-3.4,3-5.3,5.2-5.7,6.8c1.5-0.2,2.9-0.3,4.2-0.3c1.3-0.1,2.4-0.1,3.5-0.1H1188.9z"/>
	<path class="st6" d="M1199.1,166.2c-0.7-0.9-1.3-1.8-1.8-2.9c-0.5-1-0.9-2.1-1.3-3.4c-0.3-1.2-0.6-2.7-0.8-4.3
		c-0.2-1.6-0.2-3.5-0.2-5.6c0-3,0.3-5.8,1-8.2c0.7-2.4,1.6-4.4,2.9-6.1c1.3-1.7,2.8-3,4.7-3.8c1.9-0.9,4-1.3,6.5-1.3
		c3.4,0,6.2,0.6,8.4,1.8c-0.2,2-0.9,3.4-2.2,4.2c-1.9-0.9-3.8-1.3-5.9-1.3c-3,0-5.2,1.1-6.7,3.2c-1.5,2.1-2.3,5-2.4,8.6
		c2.4-2.2,5.2-3.3,8.5-3.3c3.3,0,5.9,1,7.8,3.1s2.8,5.2,2.8,9.3c0,2-0.3,3.8-0.9,5.5c-0.6,1.7-1.4,3.1-2.5,4.3s-2.4,2.1-3.9,2.8
		c-1.5,0.7-3.3,1-5.2,1C1204.1,170,1201.2,168.7,1199.1,166.2z M1208.2,149c-2.5,0-4.8,1.1-6.9,3.3v0.9c0,4,0.6,7,1.7,9
		c1.2,2,2.9,3.1,5.1,3.1c1.9,0,3.3-0.7,4.4-2.2c1.1-1.5,1.6-3.5,1.6-6.1C1214.2,151.7,1212.2,149,1208.2,149z"/>
	<path class="st6" d="M1227.1,163.1c1-0.5,2.2-0.8,3.6-0.8c0.7,0,1.2,0,1.7,0.1c0.5,0.1,1,0.2,1.3,0.4c0.4,0.2,0.7,0.5,0.8,1
		c0.1,0.5,0.2,1.2,0.2,2.1c0,0.8,0,1.5-0.1,2c-0.1,0.5-0.3,0.9-0.7,1.1c-0.3,0.2-0.8,0.3-1.3,0.4c-0.5,0.1-1.1,0.1-1.9,0.1
		c-0.7,0-1.4,0-1.9-0.1c-0.5-0.1-1-0.2-1.4-0.4c-0.4-0.2-0.6-0.5-0.8-1c-0.1-0.5-0.2-1.2-0.2-2.1
		C1226.5,164.8,1226.7,163.8,1227.1,163.1z"/>
	<path class="st6" d="M1263.9,131.4c0.3,0.8,0.4,1.6,0.4,2.5c0,1.8-0.9,2.7-2.7,2.7h-12.3v2.9l-0.4,5.6c1.7-0.7,3.4-1,5.1-1
		c3.6,0,6.5,1.1,8.6,3.2c2.1,2.2,3.2,5.3,3.2,9.4c0,2-0.4,3.8-1.1,5.5c-0.7,1.6-1.7,3-2.9,4.2c-1.2,1.1-2.6,2-4.3,2.7
		s-3.3,0.9-5.1,0.9c-4.5,0-8.1-1.2-11-3.7c0.1-0.7,0.4-1.4,0.9-2.2c0.5-0.8,1.1-1.4,1.6-1.8c1.4,1,2.8,1.7,4.1,2.1
		c1.3,0.4,2.6,0.7,3.7,0.7c2.3,0,4.1-0.8,5.5-2.3c1.4-1.5,2.1-3.6,2.1-6.2c0-1.4-0.2-2.5-0.6-3.5c-0.4-1-0.9-1.8-1.6-2.4
		c-0.7-0.6-1.5-1.1-2.3-1.4c-0.8-0.3-1.7-0.4-2.7-0.4c-1,0-2.1,0.2-3.3,0.6s-2.2,1.1-3.3,2c-0.5-0.1-1.1-0.3-1.7-0.7
		c-0.6-0.4-1-0.8-1.3-1.3l0.8-17.5l0.4-0.4H1263.9z"/>
	<path class="st6" d="M1287.5,131.1c1.9,1.9,2.9,5.1,2.9,9.6c0,4.1-0.8,7.1-2.4,9.1c-1.6,1.9-3.9,2.9-6.8,2.9s-5.2-1-6.8-2.9
		c-1.6-1.9-2.4-4.9-2.4-9.1c0-4.1,0.8-7.1,2.4-9c1.6-1.9,3.8-2.9,6.8-2.9C1283.8,128.7,1285.9,129.5,1287.5,131.1z M1281.2,132.7
		c-2.6,0-3.9,2.7-3.9,8c0,5.3,1.3,7.9,3.9,7.9c2.6,0,4-2.6,4-7.9C1285.1,135.3,1283.8,132.7,1281.2,132.7z M1281.7,169.2l22-39.8
		c0.7-0.2,1.5-0.3,2.4-0.3c1.6,0,2.7,0.1,3.4,0.3l-21.9,39.8c-0.7,0.2-1.5,0.3-2.5,0.3c-0.8,0-1.5,0-2.1-0.1
		C1282.5,169.4,1282,169.3,1281.7,169.2z M1316.4,167.5c-1.6,1.6-3.7,2.4-6.3,2.4c-3.1,0-5.4-1-6.9-3c-1.5-2-2.3-5-2.3-9
		c0-4,0.8-7,2.4-9c1.6-1.9,3.8-2.9,6.8-2.9c2.9,0,5.2,1,6.8,2.9s2.4,4.9,2.4,9.1C1319.3,162.4,1318.3,165.6,1316.4,167.5z
		 M1314.2,158c0-5.3-1.3-8-4-8c-2.7,0-4,2.7-4,8c0,5.3,1.3,7.9,4,7.9C1312.8,165.9,1314.2,163.3,1314.2,158z"/>
</g>
<g class="st10">
	<path class="st6" d="M1197.7,198.8l5.4,0c1.8,0,2.7,0.8,2.7,2.5v9.2c-2.6,1-5.5,1.5-8.7,1.5c-1.8,0-3.3-0.3-4.6-1
		c-1.3-0.7-2.4-1.6-3.2-2.7c-1.5-2.3-2.2-5.2-2.2-8.6c0-2.2,0.3-4.1,0.9-5.7c0.6-1.7,1.4-3,2.4-4c2-2,4.4-3,7.2-3
		c3.2,0,5.9,0.9,8.2,2.6c-0.2,1.2-0.8,2.1-1.8,2.8c-1.9-1.5-4.1-2.2-6.4-2.2c-2,0-3.5,0.8-4.7,2.3s-1.8,3.9-1.8,7.2
		c0,6.1,2.2,9.2,6.7,9.2c1.7,0,3.2-0.2,4.5-0.6v-4c0-1,0-1.8,0.1-2.3h-3.1c-1.2,0-1.8-0.6-1.8-1.7
		C1197.5,199.9,1197.6,199.3,1197.7,198.8z"/>
	<path class="st6" d="M1209.8,195.8c0.2-0.9,0.7-1.5,1.3-1.9c1.6,0.4,2.7,1.4,3.2,3.1c0.9-2.1,2.5-3.1,4.6-3.1
		c0.6,0,1.2,0.1,1.9,0.2c0,1.4-0.3,2.5-0.9,3.5c-0.2-0.1-0.7-0.1-1.4-0.2c-1.6,0-2.9,0.9-3.8,2.7v11.5c-0.4,0.1-1.1,0.1-1.8,0.1
		c-0.8,0-1.4,0-1.8-0.1v-12.1C1211.1,197.8,1210.7,196.6,1209.8,195.8z"/>
	<path class="st6" d="M1223.7,206v-8.2c0-1.4-0.2-2.5-0.6-3.2c0.6-0.5,1.4-0.8,2.3-0.8c1.3,0,1.9,0.8,1.9,2.3v9
		c0,1.2,0.2,2.1,0.5,2.6c0.3,0.5,0.8,0.8,1.6,0.8c0.8,0,1.6-0.2,2.4-0.6c0.8-0.4,1.5-0.9,2.2-1.6v-12.3c0.7-0.1,1.3-0.1,1.8-0.1
		s1.2,0,1.9,0.1v12.5c0,1.6,0.3,2.8,1,3.4c-0.3,0.8-0.7,1.5-1.4,1.8c-1.5-0.3-2.5-1.1-3-2.5c-1.8,1.7-3.8,2.6-5.9,2.6
		c-1.6,0-2.7-0.5-3.5-1.6C1224.1,209.2,1223.7,207.8,1223.7,206z M1225.5,191.3c-0.1-0.2-0.2-0.4-0.2-0.6s-0.1-0.5-0.1-0.7
		c0-0.8,0.2-1.3,0.5-1.5c0.4-0.2,0.8-0.3,1.4-0.3c0.7,0,1.2,0.1,1.5,0.4c0.3,0.2,0.4,0.7,0.4,1.5c0,0.8-0.1,1.2-0.4,1.5
		c-0.3,0.2-0.8,0.3-1.6,0.3C1226.5,191.7,1225.9,191.6,1225.5,191.3z M1232.1,191.3c-0.1-0.2-0.2-0.4-0.2-0.7c0-0.2-0.1-0.5-0.1-0.7
		c0-0.8,0.1-1.2,0.4-1.5c0.3-0.2,0.8-0.4,1.6-0.4c0.7,0,1.2,0.1,1.5,0.3s0.5,0.7,0.5,1.6c0,0.8-0.1,1.3-0.4,1.5s-0.8,0.3-1.5,0.3
		C1233.1,191.7,1232.5,191.6,1232.1,191.3z"/>
	<path class="st6" d="M1257,199.6v8.2c0,1.4,0.2,2.5,0.6,3.2c-0.6,0.5-1.3,0.8-2.2,0.8c-0.8,0-1.3-0.2-1.6-0.6s-0.4-1-0.4-1.7v-9
		c0-1.2-0.2-2.1-0.5-2.6c-0.3-0.5-0.9-0.8-1.6-0.8c-0.8,0-1.6,0.2-2.4,0.6c-0.8,0.4-1.5,0.9-2.1,1.6v12.2c-0.4,0.1-1,0.1-1.8,0.1
		c-0.4,0-0.7,0-1,0s-0.6-0.1-0.8-0.1v-17.4l0.2-0.2h1.4c1.3,0,1.9,0.7,2,2.2c1.7-1.6,3.6-2.4,5.6-2.4c1.6,0,2.8,0.5,3.5,1.6
		C1256.6,196.4,1257,197.8,1257,199.6z"/>
	<path class="st6" d="M1275.3,204h-10.4c0.1,1.6,0.4,2.9,1,3.7s1.7,1.3,3.2,1.3c0.7,0,1.5-0.1,2.3-0.3c0.8-0.2,1.7-0.6,2.5-1
		c0.6,0.5,1,1.3,1.2,2.3c-1.9,1.3-4.1,2-6.6,2c-1.3,0-2.5-0.2-3.4-0.7c-0.9-0.5-1.7-1.1-2.2-1.9s-1-1.8-1.3-2.9
		c-0.3-1.1-0.4-2.4-0.4-3.7c0-1.3,0.2-2.5,0.5-3.6c0.3-1.1,0.8-2.1,1.4-2.9c0.6-0.8,1.4-1.4,2.3-1.9s1.9-0.7,3.1-0.7s2.1,0.2,3,0.6
		s1.6,0.9,2.2,1.6s1.1,1.5,1.4,2.4c0.3,0.9,0.5,1.9,0.5,3c0,0.5,0,0.9-0.1,1.4C1275.4,203,1275.4,203.5,1275.3,204z M1268.5,196.3
		c-2.2,0-3.4,1.7-3.6,5h7.1v-0.5c0-1.3-0.3-2.4-0.9-3.3C1270.6,196.8,1269.7,196.3,1268.5,196.3z"/>
	<path class="st6" d="M1279,195.8c0.2-0.9,0.7-1.5,1.3-1.9c1.6,0.4,2.7,1.4,3.2,3.1c0.9-2.1,2.5-3.1,4.6-3.1c0.6,0,1.2,0.1,1.9,0.2
		c0,1.4-0.3,2.5-0.9,3.5c-0.2-0.1-0.7-0.1-1.4-0.2c-1.6,0-2.9,0.9-3.8,2.7v11.5c-0.4,0.1-1.1,0.1-1.8,0.1c-0.8,0-1.4,0-1.8-0.1
		v-12.1C1280.3,197.8,1279.9,196.6,1279,195.8z"/>
</g>
<g class="st10">
	<path class="st6" d="M1195.4,254.1l-7.8-0.1l-0.2-0.3V230l0.2-0.2l7.3-0.1c2.6,0,4.5,0.6,5.8,1.7c1.3,1.1,1.9,2.7,1.9,4.7
		c0,1.1-0.3,2.1-0.9,3s-1.4,1.5-2.4,1.9c0.6,0.2,1.2,0.5,1.7,0.9c0.6,0.4,1,0.9,1.4,1.4c0.4,0.5,0.7,1.1,1,1.8s0.4,1.4,0.4,2.1
		c0,2.1-0.7,3.7-2.1,5C1200.3,253.4,1198.2,254.1,1195.4,254.1z M1191.1,232.5v7.3h3.7c0.7,0,1.4-0.1,1.9-0.3
		c0.5-0.2,0.9-0.4,1.2-0.8c0.3-0.3,0.5-0.7,0.7-1.2c0.1-0.4,0.2-0.9,0.2-1.4c0-2.4-1.3-3.6-4-3.6c-0.9,0-1.6,0-2.3,0
		C1192,232.6,1191.5,232.6,1191.1,232.5z M1191.1,251.2l4.3,0c0.9,0,1.6-0.1,2.2-0.4s1.1-0.5,1.4-0.9c0.4-0.4,0.6-0.8,0.8-1.3
		c0.2-0.5,0.2-1,0.2-1.6c0-0.5-0.1-1-0.3-1.5c-0.2-0.5-0.5-1-0.8-1.4c-0.4-0.4-0.9-0.7-1.5-1c-0.6-0.2-1.3-0.4-2.2-0.4h-4.1V251.2z"
		/>
	<path class="st6" d="M1221.2,246.4h-10.4c0.1,1.6,0.4,2.9,1,3.7s1.7,1.3,3.2,1.3c0.7,0,1.5-0.1,2.3-0.3c0.8-0.2,1.7-0.6,2.5-1
		c0.6,0.5,1,1.3,1.2,2.3c-1.9,1.3-4.1,2-6.6,2c-1.3,0-2.5-0.2-3.4-0.7c-0.9-0.5-1.7-1.1-2.2-1.9s-1-1.8-1.3-2.9
		c-0.3-1.1-0.4-2.4-0.4-3.7c0-1.3,0.2-2.5,0.5-3.6c0.3-1.1,0.8-2.1,1.4-2.9c0.6-0.8,1.4-1.4,2.3-1.9c0.9-0.5,1.9-0.7,3.1-0.7
		s2.1,0.2,3,0.6c0.9,0.4,1.6,0.9,2.2,1.6c0.6,0.7,1.1,1.5,1.4,2.4c0.3,0.9,0.5,1.9,0.5,3c0,0.5,0,0.9-0.1,1.4
		C1221.4,245.4,1221.3,245.9,1221.2,246.4z M1214.4,238.7c-2.2,0-3.4,1.7-3.6,5h7.1v-0.5c0-1.3-0.3-2.4-0.9-3.3
		C1216.5,239.2,1215.6,238.7,1214.4,238.7z"/>
	<path class="st6" d="M1224.9,238.2c0.2-0.9,0.7-1.5,1.3-1.9c1.6,0.4,2.7,1.4,3.2,3.1c0.9-2.1,2.5-3.1,4.6-3.1
		c0.6,0,1.2,0.1,1.9,0.2c0,1.4-0.3,2.5-0.9,3.5c-0.2-0.1-0.7-0.1-1.4-0.2c-1.6,0-2.9,0.9-3.8,2.7v11.5c-0.4,0.1-1.1,0.1-1.8,0.1
		s-1.4,0-1.8-0.1v-12.1C1226.2,240.2,1225.8,239,1224.9,238.2z"/>
	<path class="st6" d="M1251.1,246.4h-10.4c0.1,1.6,0.4,2.9,1,3.7s1.7,1.3,3.2,1.3c0.7,0,1.5-0.1,2.3-0.3c0.8-0.2,1.7-0.6,2.5-1
		c0.6,0.5,1,1.3,1.2,2.3c-1.9,1.3-4.1,2-6.6,2c-1.3,0-2.5-0.2-3.4-0.7c-0.9-0.5-1.7-1.1-2.2-1.9s-1-1.8-1.3-2.9
		c-0.3-1.1-0.4-2.4-0.4-3.7c0-1.3,0.2-2.5,0.5-3.6c0.3-1.1,0.8-2.1,1.4-2.9c0.6-0.8,1.4-1.4,2.3-1.9s1.9-0.7,3.1-0.7s2.1,0.2,3,0.6
		s1.6,0.9,2.2,1.6c0.6,0.7,1.1,1.5,1.4,2.4c0.3,0.9,0.5,1.9,0.5,3c0,0.5,0,0.9-0.1,1.4C1251.3,245.4,1251.2,245.9,1251.1,246.4z
		 M1244.4,238.7c-2.2,0-3.4,1.7-3.6,5h7.1v-0.5c0-1.3-0.3-2.4-0.9-3.3C1246.5,239.2,1245.6,238.7,1244.4,238.7z"/>
	<path class="st6" d="M1260,239.5v14.4c-0.4,0.1-1.1,0.1-1.8,0.1c-0.8,0-1.4,0-1.8-0.1V241c0-0.7-0.1-1.1-0.4-1.4
		c-0.2-0.3-0.6-0.4-1.2-0.4h-0.4c-0.1-0.5-0.2-1-0.2-1.3s0.1-0.8,0.2-1.3c0.8-0.1,1.5-0.1,2.2-0.1h0.5c0.9,0,1.6,0.3,2.1,0.8
		C1259.7,237.8,1260,238.6,1260,239.5z M1255.6,233.2c-0.2-0.4-0.3-0.9-0.3-1.6c0-1,0.2-1.5,0.5-1.7c0.4-0.2,0.9-0.3,1.8-0.3
		c0.9,0,1.5,0.1,1.8,0.4c0.3,0.2,0.4,0.8,0.4,1.7c0,0.8-0.2,1.4-0.4,1.6c-0.3,0.2-0.9,0.4-1.8,0.4
		C1256.6,233.7,1256,233.5,1255.6,233.2z"/>
	<path class="st6" d="M1274.6,243.2v-0.4c0-2.7-1-4-3.1-4c-1.1,0-2,0.5-2.6,1.6c-0.6,1.1-0.9,2.7-0.9,4.8c0,4,1.3,6.1,4,6.1
		c1.3,0,2.7-0.6,4.3-1.8c0.3,0.2,0.6,0.5,0.9,0.9c0.3,0.4,0.5,0.8,0.6,1.2c-1.7,1.7-3.8,2.6-6.3,2.6c-1.2,0-2.3-0.2-3.2-0.7
		c-0.9-0.5-1.7-1.1-2.3-1.9s-1-1.8-1.3-3c-0.3-1.2-0.4-2.4-0.4-3.8c0-1.4,0.2-2.7,0.6-3.8c0.4-1.1,0.9-2.1,1.6-2.8
		c0.7-0.8,1.4-1.3,2.3-1.7c0.9-0.4,1.8-0.6,2.8-0.6c1,0,1.9,0.2,2.7,0.5c0.8,0.3,1.5,0.7,2,1.2c0.6,0.5,1,1.1,1.3,1.7
		c0.3,0.6,0.4,1.3,0.4,2c0,1.3-0.6,2-1.8,2C1275.5,243.4,1275,243.3,1274.6,243.2z"/>
	<path class="st6" d="M1295.9,242v8.2c0,1.4,0.2,2.5,0.6,3.2c-0.7,0.5-1.4,0.8-2.2,0.8s-1.3-0.2-1.6-0.6c-0.3-0.4-0.4-1-0.4-1.7
		v-8.9c0-1.2-0.2-2.1-0.5-2.6c-0.3-0.5-0.9-0.8-1.6-0.8c-0.8,0-1.6,0.2-2.4,0.6c-0.8,0.4-1.5,0.9-2.1,1.6v12.2
		c-0.2,0-0.5,0.1-0.8,0.1s-0.6,0-1,0s-0.7,0-1,0c-0.3,0-0.6-0.1-0.8-0.1v-25.7l0.2-0.2h1.4c0.7,0,1.2,0.2,1.5,0.5
		c0.3,0.4,0.4,1,0.4,1.8v8.2c1.7-1.6,3.6-2.3,5.6-2.3c1.6,0,2.8,0.5,3.5,1.6C1295.5,238.8,1295.9,240.2,1295.9,242z"/>
</g>
<g class="st10">
	<path class="st9" d="M132.1,534.5l0.1,3.1v5c-0.9,0.2-1.9,0.2-3,0.2c-1.1,0-2.1-0.1-2.9-0.2v-5l0.1-3.1l-3.1,0.1h-10.3
		c-0.9-1.5-1.4-2.6-1.4-3.4c0-0.7,0.4-2,1.2-4l9.9-22.8c0.9-0.2,1.9-0.2,3.1,0c1.2,0.2,2,0.6,2.6,1.1l-6.7,15.5
		c-1.7,4-3.1,6.8-4.1,8.5l0.2,0.2c2.4-0.2,4.7-0.3,6.6-0.3h2.2c0-0.4-0.1-1-0.1-1.9v-4.5c0-1.4,0.4-2.6,1-3.4
		c0.7-0.8,1.7-1.3,2.9-1.3h1.6l0.3,0.3v7.7l-0.1,3.1l2.7-0.1h3.1c0.1,0.8,0.2,1.7,0.2,2.5c0,0.9-0.1,1.7-0.4,2.6h-2.9L132.1,534.5z"
		/>
	<path class="st9" d="M147.2,539.7c-0.7-0.9-1.3-1.8-1.8-2.9c-0.5-1-0.9-2.1-1.3-3.4c-0.3-1.2-0.6-2.7-0.8-4.3
		c-0.2-1.6-0.2-3.5-0.2-5.6c0-3,0.3-5.8,1-8.2c0.7-2.4,1.6-4.4,2.9-6.1c1.3-1.7,2.8-3,4.7-3.8c1.9-0.9,4-1.3,6.5-1.3
		c3.4,0,6.2,0.6,8.4,1.8c-0.2,2-0.9,3.4-2.2,4.2c-1.9-0.9-3.8-1.3-5.9-1.3c-3,0-5.2,1.1-6.7,3.2c-1.5,2.1-2.3,5-2.4,8.6
		c2.4-2.2,5.2-3.3,8.5-3.3c3.3,0,5.9,1,7.8,3.1s2.8,5.2,2.8,9.3c0,2-0.3,3.8-0.9,5.5c-0.6,1.7-1.4,3.1-2.5,4.3
		c-1.1,1.2-2.4,2.1-3.9,2.8c-1.5,0.7-3.3,1-5.2,1C152.2,543.4,149.3,542.1,147.2,539.7z M156.3,522.5c-2.5,0-4.8,1.1-6.9,3.3v0.9
		c0,4,0.6,7,1.7,9c1.2,2,2.9,3.1,5.1,3.1c1.9,0,3.3-0.7,4.4-2.2c1.1-1.5,1.6-3.5,1.6-6.1C162.3,525.1,160.3,522.5,156.3,522.5z"/>
	<path class="st9" d="M175.2,536.6c1-0.5,2.2-0.8,3.6-0.8c0.7,0,1.2,0,1.7,0.1c0.5,0.1,1,0.2,1.3,0.4c0.4,0.2,0.7,0.5,0.8,1
		c0.1,0.5,0.2,1.2,0.2,2.1c0,0.8,0,1.5-0.1,2c-0.1,0.5-0.3,0.9-0.7,1.1c-0.3,0.2-0.8,0.3-1.3,0.4c-0.5,0.1-1.1,0.1-1.9,0.1
		c-0.7,0-1.4,0-1.9-0.1c-0.5-0.1-1-0.2-1.4-0.4c-0.4-0.2-0.6-0.5-0.8-1c-0.1-0.5-0.2-1.2-0.2-2.1
		C174.6,538.2,174.8,537.2,175.2,536.6z"/>
	<path class="st9" d="M209.3,534.5l0.1,3.1v5c-0.9,0.2-1.9,0.2-3,0.2c-1.1,0-2.1-0.1-2.9-0.2v-5l0.1-3.1l-3.1,0.1H190
		c-0.9-1.5-1.4-2.6-1.4-3.4c0-0.7,0.4-2,1.2-4l9.9-22.8c0.9-0.2,1.9-0.2,3.1,0c1.2,0.2,2,0.6,2.6,1.1l-6.7,15.5
		c-1.7,4-3.1,6.8-4.1,8.5l0.2,0.2c2.4-0.2,4.7-0.3,6.6-0.3h2.2c0-0.4-0.1-1-0.1-1.9v-4.5c0-1.4,0.4-2.6,1-3.4
		c0.7-0.8,1.7-1.3,2.9-1.3h1.6l0.3,0.3v7.7l-0.1,3.1l2.7-0.1h3.1c0.1,0.8,0.2,1.7,0.2,2.5c0,0.9-0.1,1.7-0.4,2.6h-2.9L209.3,534.5z"
		/>
	<path class="st9" d="M235.6,504.5c1.9,1.9,2.9,5.1,2.9,9.6c0,4.1-0.8,7.1-2.4,9.1c-1.6,1.9-3.9,2.9-6.8,2.9s-5.2-1-6.8-2.9
		c-1.6-1.9-2.4-4.9-2.4-9.1c0-4.1,0.8-7.1,2.4-9c1.6-1.9,3.8-2.9,6.8-2.9C231.9,502.1,234,502.9,235.6,504.5z M229.2,506.1
		c-2.6,0-3.9,2.7-3.9,8c0,5.3,1.3,7.9,3.9,7.9c2.6,0,4-2.6,4-7.9C233.2,508.7,231.9,506.1,229.2,506.1z M229.8,542.6l22-39.8
		c0.7-0.2,1.5-0.3,2.4-0.3c1.6,0,2.7,0.1,3.4,0.3l-21.9,39.8c-0.7,0.2-1.5,0.3-2.5,0.3c-0.8,0-1.5,0-2.1-0.1
		C230.6,542.8,230.1,542.7,229.8,542.6z M264.5,540.9c-1.6,1.6-3.7,2.4-6.3,2.4c-3.1,0-5.4-1-6.9-3c-1.5-2-2.3-5-2.3-9
		c0-4,0.8-7,2.4-9c1.6-1.9,3.8-2.9,6.8-2.9c2.9,0,5.2,1,6.8,2.9c1.6,1.9,2.4,4.9,2.4,9.1C267.4,535.8,266.4,539,264.5,540.9z
		 M262.2,531.4c0-5.3-1.3-8-4-8c-2.7,0-4,2.7-4,8c0,5.3,1.3,7.9,4,7.9C260.9,539.4,262.2,536.7,262.2,531.4z"/>
</g>
<g class="st10">
	<path class="st9" d="M126.6,582.7c0.1-1.2,0.6-2.1,1.6-2.9c2.4,1.6,4.8,2.4,7.1,2.4c1.4,0,2.5-0.3,3.3-0.9c0.8-0.6,1.2-1.4,1.2-2.4
		c0-1.6-1.1-2.9-3.2-3.8l-4.2-1.8c-3.2-1.4-4.8-3.4-4.8-6.1c0-1,0.2-1.9,0.6-2.7c0.4-0.8,1-1.6,1.7-2.2c0.7-0.6,1.6-1.1,2.6-1.4
		c1-0.3,2.1-0.5,3.3-0.5c2.5,0,4.9,0.6,7.3,1.8c0,1.1-0.5,2.1-1.4,2.9c-2.3-1.1-4.3-1.7-6-1.7c-1.3,0-2.3,0.3-3.1,0.9
		s-1.2,1.4-1.2,2.2c0,0.9,0.2,1.5,0.7,2c0.5,0.5,1.2,0.9,2.2,1.3l4.1,1.8c1.8,0.8,3.1,1.7,4,2.7c0.9,1.1,1.3,2.3,1.3,3.8
		c0,2.1-0.7,3.8-2.2,5.1c-1.5,1.3-3.7,2-6.7,2C131.9,585.4,129.1,584.5,126.6,582.7z"/>
	<path class="st9" d="M160.8,577.4h-10.4c0.1,1.6,0.4,2.9,1,3.7s1.7,1.3,3.2,1.3c0.7,0,1.5-0.1,2.3-0.3c0.8-0.2,1.7-0.6,2.5-1
		c0.6,0.5,1,1.3,1.2,2.3c-1.9,1.3-4.1,2-6.6,2c-1.3,0-2.5-0.2-3.4-0.7c-0.9-0.5-1.7-1.1-2.2-1.9c-0.6-0.8-1-1.8-1.3-2.9
		c-0.3-1.1-0.4-2.4-0.4-3.7c0-1.3,0.2-2.5,0.5-3.6c0.3-1.1,0.8-2.1,1.4-2.9c0.6-0.8,1.4-1.4,2.3-1.9s1.9-0.7,3.1-0.7s2.1,0.2,3,0.6
		s1.6,0.9,2.2,1.6c0.6,0.7,1.1,1.5,1.4,2.4c0.3,0.9,0.5,1.9,0.5,3c0,0.5,0,0.9-0.1,1.4C161,576.4,160.9,576.9,160.8,577.4z
		 M154.1,569.8c-2.2,0-3.4,1.7-3.6,5h7.1v-0.5c0-1.3-0.3-2.4-0.9-3.3C156.2,570.2,155.3,569.8,154.1,569.8z"/>
	<path class="st9" d="M179.5,573v8.2c0,1.4,0.2,2.5,0.6,3.2c-0.6,0.5-1.3,0.8-2.2,0.8c-0.8,0-1.3-0.2-1.6-0.6
		c-0.3-0.4-0.4-1-0.4-1.7v-9c0-1.2-0.2-2.1-0.5-2.6c-0.3-0.5-0.9-0.8-1.6-0.8c-0.8,0-1.6,0.2-2.4,0.6c-0.8,0.4-1.5,0.9-2.1,1.6v12.2
		c-0.4,0.1-1,0.1-1.8,0.1c-0.4,0-0.7,0-1,0s-0.6-0.1-0.8-0.1v-17.4l0.2-0.2h1.4c1.3,0,1.9,0.7,2,2.2c1.7-1.6,3.6-2.4,5.6-2.4
		c1.6,0,2.8,0.5,3.5,1.6C179.1,569.8,179.5,571.2,179.5,573z"/>
	<path class="st9" d="M183.2,583.6c0-0.4,0.2-0.9,0.4-1.4c0.2-0.5,0.5-0.9,0.8-1.2c1.9,1,3.4,1.6,4.6,1.6c1.2,0,2.1-0.2,2.7-0.6
		c0.6-0.4,0.9-0.9,0.9-1.6c0-1-0.7-1.8-2.2-2.4l-2-0.7c-3-1.1-4.5-2.8-4.5-5c0-1.6,0.6-2.9,1.7-3.8c1.2-0.9,2.7-1.4,4.6-1.4
		c1.9,0,3.8,0.4,5.7,1.3c0,0.5-0.1,1-0.3,1.5c-0.2,0.5-0.5,0.9-0.8,1.2c-1.7-0.8-3.2-1.2-4.7-1.2c-0.8,0-1.4,0.2-1.9,0.6
		c-0.5,0.4-0.7,0.8-0.7,1.4s0.2,1,0.5,1.3s0.9,0.6,1.7,0.9l2.1,0.8c3,1.2,4.5,2.9,4.5,5.3c0,1.6-0.6,2.9-1.9,3.8s-2.9,1.4-5.1,1.4
		C187.2,585.4,185.1,584.8,183.2,583.6z"/>
	<path class="st9" d="M204.5,570.5v14.4c-0.4,0.1-1.1,0.1-1.8,0.1c-0.8,0-1.4,0-1.8-0.1V572c0-0.7-0.1-1.1-0.4-1.4
		c-0.2-0.3-0.6-0.4-1.2-0.4h-0.4c-0.1-0.5-0.2-1-0.2-1.3s0.1-0.8,0.2-1.3c0.8-0.1,1.5-0.1,2.2-0.1h0.5c0.9,0,1.6,0.3,2.1,0.8
		C204.2,568.8,204.5,569.6,204.5,570.5z M200.1,564.2c-0.2-0.4-0.3-0.9-0.3-1.6c0-1,0.2-1.5,0.5-1.7c0.4-0.2,0.9-0.3,1.8-0.3
		c0.9,0,1.5,0.1,1.8,0.4c0.3,0.2,0.4,0.8,0.4,1.7c0,0.8-0.2,1.4-0.4,1.6c-0.3,0.2-0.9,0.4-1.8,0.4
		C201.1,564.7,200.5,564.5,200.1,564.2z"/>
	<path class="st9" d="M209.9,584v-24.8l0.2-0.2h1.4c0.7,0,1.2,0.2,1.5,0.5c0.3,0.4,0.4,1,0.4,1.8v7.7c1.4-1.2,3-1.8,4.9-1.8
		c1.9,0,3.3,0.8,4.4,2.4c1,1.6,1.5,3.9,1.5,6.8c0,1.4-0.2,2.6-0.6,3.7c-0.4,1.1-1,2-1.7,2.8c-0.7,0.8-1.5,1.3-2.5,1.7
		c-1,0.4-2,0.6-3.1,0.6C214.1,585.2,212,584.8,209.9,584z M217.3,570.3c-1.4,0-2.7,0.7-3.8,2v9.8c0.9,0.3,1.9,0.4,3,0.4
		c1.2,0,2.1-0.6,2.9-1.7c0.8-1.1,1.1-2.7,1.1-4.7c0-2-0.3-3.5-0.9-4.5C219.1,570.7,218.3,570.3,217.3,570.3z"/>
	<path class="st9" d="M233.4,582.2h1.3c0.2,0.6,0.3,1.1,0.3,1.6s0,0.8-0.1,1.1c-0.9,0.2-1.9,0.2-3,0.2c-2.3,0-3.5-1.2-3.5-3.6v-22.2
		l0.2-0.2h1.4c0.7,0,1.2,0.2,1.5,0.5c0.3,0.4,0.4,1,0.4,1.8v19.3C232.1,581.7,232.5,582.2,233.4,582.2z"/>
	<path class="st9" d="M251.5,577.4h-10.4c0.1,1.6,0.4,2.9,1,3.7s1.7,1.3,3.2,1.3c0.7,0,1.5-0.1,2.3-0.3c0.8-0.2,1.7-0.6,2.5-1
		c0.6,0.5,1,1.3,1.2,2.3c-1.9,1.3-4.1,2-6.6,2c-1.3,0-2.5-0.2-3.4-0.7c-0.9-0.5-1.7-1.1-2.2-1.9c-0.6-0.8-1-1.8-1.3-2.9
		c-0.3-1.1-0.4-2.4-0.4-3.7c0-1.3,0.2-2.5,0.5-3.6c0.3-1.1,0.8-2.1,1.4-2.9c0.6-0.8,1.4-1.4,2.3-1.9s1.9-0.7,3.1-0.7s2.1,0.2,3,0.6
		s1.6,0.9,2.2,1.6c0.6,0.7,1.1,1.5,1.4,2.4c0.3,0.9,0.5,1.9,0.5,3c0,0.5,0,0.9-0.1,1.4C251.6,576.4,251.6,576.9,251.5,577.4z
		 M244.7,569.8c-2.2,0-3.4,1.7-3.6,5h7.1v-0.5c0-1.3-0.3-2.4-0.9-3.3C246.8,570.2,245.9,569.8,244.7,569.8z"/>
	<path class="st9" d="M255.2,569.2c0.2-0.9,0.7-1.5,1.3-1.9c1.6,0.4,2.7,1.4,3.2,3.1c0.9-2.1,2.5-3.1,4.6-3.1c0.6,0,1.2,0.1,1.9,0.2
		c0,1.4-0.3,2.5-0.9,3.5c-0.2-0.1-0.7-0.1-1.4-0.2c-1.6,0-2.9,0.9-3.8,2.7v11.5c-0.4,0.1-1.1,0.1-1.8,0.1s-1.4,0-1.8-0.1v-12.1
		C256.5,571.2,256.1,570,255.2,569.2z"/>
</g>
<g class="st10">
	<path class="st9" d="M149.9,627.5l-7.8-0.1l-0.2-0.3v-23.7l0.2-0.2l7.3-0.1c2.6,0,4.5,0.6,5.8,1.7c1.3,1.1,1.9,2.7,1.9,4.7
		c0,1.1-0.3,2.1-0.9,3c-0.6,0.9-1.4,1.5-2.4,1.9c0.6,0.2,1.2,0.5,1.7,0.9c0.6,0.4,1,0.9,1.4,1.4c0.4,0.5,0.7,1.1,1,1.8
		s0.4,1.4,0.4,2.1c0,2.1-0.7,3.7-2.1,5C154.8,626.8,152.7,627.5,149.9,627.5z M145.6,606v7.3h3.7c0.7,0,1.4-0.1,1.9-0.3
		s0.9-0.4,1.2-0.8c0.3-0.3,0.5-0.7,0.7-1.2c0.1-0.4,0.2-0.9,0.2-1.4c0-2.4-1.3-3.6-4-3.6c-0.9,0-1.6,0-2.3,0
		C146.5,606,146,606,145.6,606z M145.6,624.6l4.3,0c0.9,0,1.6-0.1,2.2-0.4c0.6-0.2,1.1-0.5,1.4-0.9c0.4-0.4,0.6-0.8,0.8-1.3
		s0.2-1,0.2-1.6c0-0.5-0.1-1-0.3-1.5c-0.2-0.5-0.5-1-0.8-1.4c-0.4-0.4-0.9-0.7-1.5-1c-0.6-0.2-1.3-0.4-2.2-0.4h-4.1V624.6z"/>
	<path class="st9" d="M175.7,619.8h-10.4c0.1,1.6,0.4,2.9,1,3.7s1.7,1.3,3.2,1.3c0.7,0,1.5-0.1,2.3-0.3c0.8-0.2,1.7-0.6,2.5-1
		c0.6,0.5,1,1.3,1.2,2.3c-1.9,1.3-4.1,2-6.6,2c-1.3,0-2.5-0.2-3.4-0.7c-0.9-0.5-1.7-1.1-2.2-1.9c-0.6-0.8-1-1.8-1.3-2.9
		c-0.3-1.1-0.4-2.4-0.4-3.7c0-1.3,0.2-2.5,0.5-3.6c0.3-1.1,0.8-2.1,1.4-2.9c0.6-0.8,1.4-1.4,2.3-1.9s1.9-0.7,3.1-0.7s2.1,0.2,3,0.6
		s1.6,0.9,2.2,1.6c0.6,0.7,1.1,1.5,1.4,2.4c0.3,0.9,0.5,1.9,0.5,3c0,0.5,0,0.9-0.1,1.4C175.8,618.8,175.8,619.3,175.7,619.8z
		 M168.9,612.2c-2.2,0-3.4,1.7-3.6,5h7.1v-0.5c0-1.3-0.3-2.4-0.9-3.3C171,612.6,170.1,612.2,168.9,612.2z"/>
	<path class="st9" d="M179.4,611.6c0.2-0.9,0.7-1.5,1.3-1.9c1.6,0.4,2.7,1.4,3.2,3.1c0.9-2.1,2.5-3.1,4.6-3.1c0.6,0,1.2,0.1,1.9,0.2
		c0,1.4-0.3,2.5-0.9,3.5c-0.2-0.1-0.7-0.1-1.4-0.2c-1.6,0-2.9,0.9-3.8,2.7v11.5c-0.4,0.1-1.1,0.1-1.8,0.1c-0.8,0-1.4,0-1.8-0.1
		v-12.1C180.7,613.6,180.3,612.4,179.4,611.6z"/>
	<path class="st9" d="M205.6,619.8h-10.4c0.1,1.6,0.4,2.9,1,3.7s1.7,1.3,3.2,1.3c0.7,0,1.5-0.1,2.3-0.3c0.8-0.2,1.7-0.6,2.5-1
		c0.6,0.5,1,1.3,1.2,2.3c-1.9,1.3-4.1,2-6.6,2c-1.3,0-2.5-0.2-3.4-0.7c-0.9-0.5-1.7-1.1-2.2-1.9s-1-1.8-1.3-2.9
		c-0.3-1.1-0.4-2.4-0.4-3.7c0-1.3,0.2-2.5,0.5-3.6c0.3-1.1,0.8-2.1,1.4-2.9c0.6-0.8,1.4-1.4,2.3-1.9s1.9-0.7,3.1-0.7s2.1,0.2,3,0.6
		s1.6,0.9,2.2,1.6s1.1,1.5,1.4,2.4c0.3,0.9,0.5,1.9,0.5,3c0,0.5,0,0.9-0.1,1.4C205.8,618.8,205.7,619.3,205.6,619.8z M198.9,612.2
		c-2.2,0-3.4,1.7-3.6,5h7.1v-0.5c0-1.3-0.3-2.4-0.9-3.3C200.9,612.6,200.1,612.2,198.9,612.2z"/>
	<path class="st9" d="M214.5,612.9v14.4c-0.4,0.1-1.1,0.1-1.8,0.1c-0.8,0-1.4,0-1.8-0.1v-12.9c0-0.7-0.1-1.1-0.4-1.4
		c-0.2-0.3-0.6-0.4-1.2-0.4h-0.4c-0.1-0.5-0.2-1-0.2-1.3s0.1-0.8,0.2-1.3c0.8-0.1,1.5-0.1,2.2-0.1h0.5c0.9,0,1.6,0.3,2.1,0.8
		C214.2,611.2,214.5,612,214.5,612.9z M210.1,606.6c-0.2-0.4-0.3-0.9-0.3-1.6c0-1,0.2-1.5,0.5-1.7c0.4-0.2,0.9-0.3,1.8-0.3
		c0.9,0,1.5,0.1,1.8,0.4s0.4,0.8,0.4,1.7c0,0.8-0.2,1.4-0.4,1.6c-0.3,0.2-0.9,0.4-1.8,0.4C211.1,607.1,210.5,606.9,210.1,606.6z"/>
	<path class="st9" d="M229.1,616.6v-0.4c0-2.7-1-4-3.1-4c-1.1,0-2,0.5-2.6,1.6c-0.6,1.1-0.9,2.7-0.9,4.8c0,4,1.3,6.1,4,6.1
		c1.3,0,2.7-0.6,4.3-1.8c0.3,0.2,0.6,0.5,0.9,0.9c0.3,0.4,0.5,0.8,0.6,1.2c-1.7,1.7-3.8,2.6-6.3,2.6c-1.2,0-2.3-0.2-3.2-0.7
		c-0.9-0.5-1.7-1.1-2.3-1.9s-1-1.8-1.3-3c-0.3-1.2-0.4-2.4-0.4-3.8c0-1.4,0.2-2.7,0.6-3.8c0.4-1.1,0.9-2.1,1.6-2.8s1.4-1.3,2.3-1.7
		c0.9-0.4,1.8-0.6,2.8-0.6c1,0,1.9,0.2,2.7,0.5c0.8,0.3,1.5,0.7,2,1.2c0.6,0.5,1,1.1,1.3,1.7c0.3,0.6,0.4,1.3,0.4,2
		c0,1.3-0.6,2-1.8,2C230,616.8,229.5,616.7,229.1,616.6z"/>
	<path class="st9" d="M250.4,615.4v8.2c0,1.4,0.2,2.5,0.6,3.2c-0.7,0.5-1.4,0.8-2.2,0.8c-0.8,0-1.3-0.2-1.6-0.6
		c-0.3-0.4-0.4-1-0.4-1.7v-8.9c0-1.2-0.2-2.1-0.5-2.6c-0.3-0.5-0.9-0.8-1.6-0.8c-0.8,0-1.6,0.2-2.4,0.6c-0.8,0.4-1.5,0.9-2.1,1.6
		v12.2c-0.2,0-0.5,0.1-0.8,0.1s-0.6,0-1,0c-0.3,0-0.7,0-1,0c-0.3,0-0.6-0.1-0.8-0.1v-25.7l0.2-0.2h1.4c0.7,0,1.2,0.2,1.5,0.5
		s0.4,1,0.4,1.8v8.2c1.7-1.6,3.6-2.3,5.6-2.3c1.6,0,2.8,0.5,3.5,1.6C250,612.2,250.4,613.6,250.4,615.4z"/>
</g>
<polygon class="st11" points="1188,532.1 1178,532.1 1178,532.1 "/>
</svg>
