<?xml version="1.0" encoding="utf-8"?>
<!-- Generator: Adobe Illustrator 22.0.0, SVG Export Plug-In . SVG Version: 6.00 Build 0)  -->
<svg version="1.1" id="Layer_1" xmlns="http://www.w3.org/2000/svg" xmlns:xlink="http://www.w3.org/1999/xlink" x="0px" y="0px"
	 viewBox="0 0 560 450" style="enable-background:new 0 0 560 450;" xml:space="preserve">
<style type="text/css">
	.st0{enable-background:new    ;}
	.st1{fill:#FF2832;}
	.st2{fill:#FFC000;}
	.st3{fill:#009632;}
	.st4{fill:#EFEBEA;}
	.st5{opacity:0.15;fill:#FF2832;enable-background:new    ;}
	.st6{fill:url(#SVGID_1_);}
	.st7{fill:url(#SVGID_2_);}
	.st8{fill:none;stroke:#FF2832;stroke-miterlimit:10;}
	.st9{opacity:0.15;fill:#FFC000;enable-background:new    ;}
	.st10{fill:url(#SVGID_3_);}
	.st11{fill:url(#SVGID_4_);}
	.st12{fill:none;stroke:#FFC000;stroke-miterlimit:10;}
	.st13{opacity:0.15;fill:#009632;enable-background:new    ;}
	.st14{fill:url(#SVGID_5_);}
	.st15{fill:url(#SVGID_6_);}
	.st16{fill:none;stroke:#009632;stroke-miterlimit:10;}
	.st17{fill:url(#SVGID_7_);}
	.st18{fill:url(#SVGID_8_);}
</style>
<g>
	<g class="st0">
		<path class="st1" d="M10,409.8l0.9,2.1c0.4,0.9,0.8,1.5,1.1,1.8c-0.3,0.3-0.6,0.5-1.1,0.5c-0.4,0-0.8-0.1-0.9-0.3
			c-0.2-0.2-0.4-0.5-0.6-1l-1.1-2.5c-0.3-0.7-0.6-1.2-0.9-1.4c-0.3-0.2-0.7-0.4-1.3-0.4s-1,0-1.5,0.1v5.3c-0.2,0-0.5,0.1-0.9,0.1
			c-0.3,0-0.6,0-0.9-0.1v-17.4l0.1-0.1h0.6c0.4,0,0.6,0.1,0.8,0.3c0.1,0.2,0.2,0.5,0.2,0.9v9.6l1,0c0.2,0,0.4-0.1,0.5-0.3l2.6-3.8
			c0.2-0.3,0.4-0.5,0.6-0.7c0.2-0.1,0.4-0.2,0.6-0.2c0.2,0,0.6,0,1,0l0.1,0.2l-3,4.4c-0.2,0.3-0.4,0.5-0.6,0.7
			c0.5,0.1,1,0.3,1.4,0.7C9.4,408.6,9.7,409.1,10,409.8z"/>
		<path class="st1" d="M14.1,403.2c0.1-0.4,0.4-0.7,0.8-1c0.9,0.3,1.5,1,1.7,2.1c0.7-1.4,1.7-2.1,3.2-2.1c0.3,0,0.7,0,1.1,0.1
			c0,0.7-0.1,1.2-0.4,1.7c-0.2,0-0.5,0-0.8,0c-1.3,0-2.3,0.7-2.9,2.2v8c-0.2,0-0.5,0.1-0.9,0.1c-0.4,0-0.6,0-0.9-0.1v-8.5
			C14.9,404.5,14.6,403.7,14.1,403.2z"/>
		<path class="st1" d="M25.5,404v10.1c-0.2,0-0.5,0.1-0.9,0.1c-0.4,0-0.6,0-0.9-0.1v-9.2c0-0.4-0.1-0.7-0.2-0.9
			c-0.1-0.2-0.4-0.2-0.8-0.2h-0.2c-0.1-0.2-0.1-0.4-0.1-0.6c0-0.3,0-0.5,0.1-0.7c0.3,0,0.5-0.1,0.7-0.1c0.2,0,0.3,0,0.5,0h0.2
			c0.5,0,0.9,0.2,1.2,0.5S25.5,403.5,25.5,404z M23.1,398.3c0.3-0.2,0.6-0.2,1.1-0.2c0.5,0,0.8,0.1,1,0.2c0.2,0.1,0.3,0.4,0.3,0.9
			s-0.1,0.8-0.3,0.9c-0.2,0.2-0.5,0.2-0.9,0.2c-0.4,0-0.7-0.1-0.9-0.2c-0.2-0.1-0.3-0.4-0.3-1C23,398.8,23,398.5,23.1,398.3z"/>
		<path class="st1" d="M34.7,402.4c0,0.2,0.1,0.5,0.1,0.7c0,0.2,0,0.4-0.1,0.7l-3,0v8c0,0.7,0.3,1,0.9,1h1.8
			c0.1,0.3,0.2,0.5,0.2,0.8c0,0.3,0,0.4,0,0.5c-0.7,0.1-1.5,0.1-2.3,0.1c-1.5,0-2.3-0.7-2.3-2v-8.5l-1.7,0c0-0.2-0.1-0.5-0.1-0.7
			c0-0.2,0-0.4,0.1-0.7l1.7,0v-2.5c0-0.4,0.1-0.7,0.2-0.9c0.1-0.2,0.4-0.3,0.7-0.3h0.6l0.1,0.1v3.6L34.7,402.4z"/>
		<path class="st1" d="M39.8,404v10.1c-0.2,0-0.5,0.1-0.9,0.1c-0.4,0-0.6,0-0.9-0.1v-9.2c0-0.4-0.1-0.7-0.2-0.9
			c-0.1-0.2-0.4-0.2-0.8-0.2h-0.2c-0.1-0.2-0.1-0.4-0.1-0.6c0-0.3,0-0.5,0.1-0.7c0.3,0,0.5-0.1,0.7-0.1c0.2,0,0.3,0,0.5,0h0.2
			c0.5,0,0.9,0.2,1.2,0.5S39.8,403.5,39.8,404z M37.5,398.3c0.3-0.2,0.6-0.2,1.1-0.2c0.5,0,0.8,0.1,1,0.2c0.2,0.1,0.3,0.4,0.3,0.9
			s-0.1,0.8-0.3,0.9c-0.2,0.2-0.5,0.2-0.9,0.2c-0.4,0-0.7-0.1-0.9-0.2c-0.2-0.1-0.3-0.4-0.3-1C37.3,398.8,37.4,398.5,37.5,398.3z"/>
		<path class="st1" d="M42.7,413.2c0-0.5,0.2-0.9,0.7-1.3c0.7,0.4,1.4,0.7,1.9,0.9c0.6,0.2,1.1,0.2,1.5,0.2c0.4,0,0.7-0.1,1-0.2
			c0.3-0.1,0.5-0.2,0.8-0.4c0.2-0.2,0.4-0.4,0.5-0.6c0.1-0.2,0.2-0.4,0.2-0.6c0-0.5-0.1-0.9-0.4-1.2c-0.3-0.3-0.7-0.6-1.3-0.8
			l-1.3-0.5c-1-0.4-1.8-0.9-2.3-1.4c-0.5-0.5-0.8-1.2-0.8-1.9c0-0.5,0.1-0.9,0.3-1.3c0.2-0.4,0.5-0.8,0.9-1c0.4-0.3,0.8-0.5,1.3-0.7
			c0.5-0.2,1-0.2,1.6-0.2c1.2,0,2.4,0.3,3.5,0.8c0,0.6-0.2,1-0.5,1.4c-0.6-0.3-1.2-0.5-1.7-0.6c-0.5-0.1-1-0.2-1.4-0.2
			c-0.7,0-1.3,0.2-1.7,0.5c-0.4,0.3-0.6,0.7-0.6,1.1c0,0.5,0.1,0.8,0.4,1.1s0.7,0.5,1.4,0.8l1.4,0.5c2,0.8,3,1.9,3,3.5
			c0,1.1-0.4,1.9-1.2,2.5c-0.8,0.6-1.9,0.9-3.3,0.9C45.3,414.4,44,414,42.7,413.2z"/>
		<path class="st1" d="M60.7,406.5v-0.3c0-0.3,0-0.7-0.1-1c-0.1-0.3-0.2-0.6-0.4-0.9c-0.2-0.3-0.5-0.5-0.8-0.6
			c-0.3-0.2-0.7-0.2-1.1-0.2c-0.9,0-1.6,0.4-2.2,1.2c-0.5,0.8-0.8,2-0.8,3.5c0,1.5,0.3,2.7,0.8,3.4c0.5,0.8,1.2,1.1,2.1,1.1
			c0.9,0,2-0.4,3.2-1.3c0.4,0.3,0.7,0.6,0.8,1.1c-1.2,1.1-2.6,1.7-4.1,1.7c-0.8,0-1.4-0.2-2-0.5c-0.6-0.3-1.1-0.7-1.5-1.2
			s-0.7-1.1-0.9-1.8c-0.2-0.7-0.3-1.5-0.3-2.3c0-1.1,0.1-2.1,0.4-2.9c0.2-0.8,0.6-1.5,1-2c0.4-0.5,1-0.9,1.5-1.2
			c0.6-0.3,1.2-0.4,1.9-0.4c0.7,0,1.3,0.1,1.8,0.3c0.5,0.2,0.9,0.5,1.3,0.8c0.3,0.3,0.6,0.7,0.8,1.1c0.2,0.4,0.3,0.8,0.3,1.1
			c0,0.8-0.3,1.1-0.9,1.1C61.2,406.6,61,406.6,60.7,406.5z"/>
		<path class="st1" d="M74.4,405.9v5.9c0,0.9,0.1,1.6,0.3,2c-0.3,0.3-0.6,0.4-1.1,0.4c-0.6,0-0.9-0.4-0.9-1.2v-6.6
			c0-1-0.1-1.7-0.4-2.1c-0.3-0.4-0.7-0.6-1.3-0.6c-0.6,0-1.3,0.2-2,0.5c-0.7,0.3-1.3,0.8-1.7,1.3v8.5c-0.2,0-0.5,0.1-0.9,0.1
			c-0.3,0-0.6,0-0.9-0.1v-17.4l0.1-0.1h0.6c0.4,0,0.6,0.1,0.8,0.3c0.1,0.2,0.2,0.5,0.2,0.9v6.2c0.5-0.5,1.2-0.9,1.9-1.2
			c0.7-0.3,1.5-0.5,2.2-0.5c1.1,0,1.8,0.3,2.3,1C74.2,403.9,74.4,404.8,74.4,405.9z"/>
		<path class="st1" d="M86.9,408.8h-7.4c0.1,2.7,1.1,4.1,3.1,4.1c1.1,0,2.2-0.3,3.5-1c0.4,0.3,0.6,0.7,0.6,1.2
			c-1.3,0.9-2.8,1.3-4.4,1.3c-0.8,0-1.5-0.2-2.1-0.5s-1.1-0.7-1.4-1.3c-0.4-0.5-0.6-1.2-0.8-1.9c-0.2-0.7-0.3-1.6-0.3-2.5
			c0-0.9,0.1-1.7,0.3-2.5c0.2-0.7,0.5-1.4,0.9-1.9c0.4-0.5,0.9-1,1.5-1.3c0.6-0.3,1.2-0.5,2-0.5c0.7,0,1.4,0.1,2,0.4
			c0.6,0.3,1.1,0.6,1.5,1.1c0.4,0.5,0.7,1,0.9,1.6c0.2,0.6,0.3,1.3,0.3,2c0,0.3,0,0.6,0,0.8C87,408.3,87,408.5,86.9,408.8z
			 M79.5,407.4h5.7v-0.3c0-1.1-0.2-2-0.7-2.7c-0.5-0.7-1.1-1-2.1-1c-0.9,0-1.6,0.4-2.1,1.1C79.9,405.2,79.6,406.2,79.5,407.4z"/>
		<path class="st1" d="M89.9,403.2c0.1-0.4,0.4-0.7,0.8-1c0.9,0.3,1.5,1,1.7,2.1c0.7-1.4,1.7-2.1,3.2-2.1c0.3,0,0.7,0,1.1,0.1
			c0,0.7-0.1,1.2-0.4,1.7c-0.2,0-0.5,0-0.8,0c-1.3,0-2.3,0.7-2.9,2.2v8c-0.2,0-0.5,0.1-0.9,0.1c-0.4,0-0.6,0-0.9-0.1v-8.5
			C90.7,404.5,90.5,403.7,89.9,403.2z"/>
		<path class="st1" d="M104.6,414.1l-0.1-0.1v-16l0.1-0.1l4.7-0.1c1.7,0,3,0.4,3.8,1.1s1.2,1.8,1.2,3.2c0,0.8-0.2,1.5-0.6,2.1
			c-0.4,0.6-1,1-1.7,1.3c0.4,0.1,0.8,0.3,1.2,0.6c0.4,0.3,0.7,0.6,1,0.9c0.3,0.4,0.5,0.8,0.7,1.3c0.2,0.5,0.2,1,0.2,1.6
			c0,0.6-0.1,1.1-0.3,1.6c-0.2,0.5-0.5,1-1,1.4c-0.4,0.4-1,0.7-1.7,1c-0.7,0.2-1.5,0.4-2.5,0.4L104.6,414.1z M106.3,399.2v5.6h2.9
			c0.6,0,1.1-0.1,1.5-0.2s0.7-0.3,1-0.6c0.2-0.3,0.4-0.6,0.5-0.9c0.1-0.3,0.2-0.7,0.2-1.1c0-1.8-1-2.8-3.1-2.8c-0.7,0-1.3,0-1.8,0
			C107,399.2,106.6,399.2,106.3,399.2z M106.3,412.7l3.4,0c0.7,0,1.2-0.1,1.7-0.3c0.4-0.2,0.8-0.4,1.1-0.7c0.3-0.3,0.4-0.6,0.6-1
			c0.1-0.4,0.2-0.8,0.2-1.2c0-0.4-0.1-0.7-0.2-1.1c-0.1-0.4-0.3-0.7-0.6-1c-0.3-0.3-0.7-0.6-1.1-0.8c-0.5-0.2-1-0.3-1.7-0.3h-3.2
			V412.7z"/>
		<path class="st1" d="M127,408.8h-7.4c0.1,2.7,1.1,4.1,3.1,4.1c1.1,0,2.2-0.3,3.5-1c0.4,0.3,0.6,0.7,0.6,1.2
			c-1.3,0.9-2.8,1.3-4.4,1.3c-0.8,0-1.5-0.2-2.1-0.5s-1.1-0.7-1.4-1.3c-0.4-0.5-0.6-1.2-0.8-1.9c-0.2-0.7-0.3-1.6-0.3-2.5
			c0-0.9,0.1-1.7,0.3-2.5c0.2-0.7,0.5-1.4,0.9-1.9c0.4-0.5,0.9-1,1.5-1.3c0.6-0.3,1.2-0.5,2-0.5c0.7,0,1.4,0.1,2,0.4
			c0.6,0.3,1.1,0.6,1.5,1.1c0.4,0.5,0.7,1,0.9,1.6c0.2,0.6,0.3,1.3,0.3,2c0,0.3,0,0.6,0,0.8C127,408.3,127,408.5,127,408.8z
			 M119.5,407.4h5.7v-0.3c0-1.1-0.2-2-0.7-2.7c-0.5-0.7-1.1-1-2.1-1c-0.9,0-1.6,0.4-2.1,1.1S119.6,406.2,119.5,407.4z"/>
		<path class="st1" d="M129.9,403.2c0.1-0.4,0.4-0.7,0.8-1c0.9,0.3,1.5,1,1.7,2.1c0.7-1.4,1.7-2.1,3.2-2.1c0.3,0,0.7,0,1.1,0.1
			c0,0.7-0.1,1.2-0.4,1.7c-0.2,0-0.5,0-0.8,0c-1.3,0-2.3,0.7-2.9,2.2v8c-0.2,0-0.5,0.1-0.9,0.1c-0.4,0-0.6,0-0.9-0.1v-8.5
			C130.8,404.5,130.5,403.7,129.9,403.2z"/>
		<path class="st1" d="M146.9,408.8h-7.4c0.1,2.7,1.1,4.1,3.1,4.1c1.1,0,2.2-0.3,3.5-1c0.4,0.3,0.6,0.7,0.6,1.2
			c-1.3,0.9-2.8,1.3-4.4,1.3c-0.8,0-1.5-0.2-2.1-0.5s-1.1-0.7-1.4-1.3c-0.4-0.5-0.6-1.2-0.8-1.9c-0.2-0.7-0.3-1.6-0.3-2.5
			c0-0.9,0.1-1.7,0.3-2.5c0.2-0.7,0.5-1.4,0.9-1.9c0.4-0.5,0.9-1,1.5-1.3c0.6-0.3,1.2-0.5,2-0.5c0.7,0,1.4,0.1,2,0.4
			c0.6,0.3,1.1,0.6,1.5,1.1c0.4,0.5,0.7,1,0.9,1.6c0.2,0.6,0.3,1.3,0.3,2c0,0.3,0,0.6,0,0.8C146.9,408.3,146.9,408.5,146.9,408.8z
			 M139.5,407.4h5.7v-0.3c0-1.1-0.2-2-0.7-2.7c-0.5-0.7-1.1-1-2.1-1c-0.9,0-1.6,0.4-2.1,1.1S139.5,406.2,139.5,407.4z"/>
		<path class="st1" d="M152.4,404v10.1c-0.2,0-0.5,0.1-0.9,0.1c-0.4,0-0.6,0-0.9-0.1v-9.2c0-0.4-0.1-0.7-0.2-0.9
			c-0.1-0.2-0.4-0.2-0.8-0.2h-0.2c-0.1-0.2-0.1-0.4-0.1-0.6c0-0.3,0-0.5,0.1-0.7c0.3,0,0.5-0.1,0.7-0.1c0.2,0,0.3,0,0.5,0h0.2
			c0.5,0,0.9,0.2,1.2,0.5S152.4,403.5,152.4,404z M150.1,398.3c0.3-0.2,0.6-0.2,1.1-0.2c0.5,0,0.8,0.1,1,0.2
			c0.2,0.1,0.3,0.4,0.3,0.9s-0.1,0.8-0.3,0.9c-0.2,0.2-0.5,0.2-0.9,0.2c-0.4,0-0.7-0.1-0.9-0.2c-0.2-0.1-0.3-0.4-0.3-1
			C149.9,398.8,150,398.5,150.1,398.3z"/>
		<path class="st1" d="M163,406.5v-0.3c0-0.3,0-0.7-0.1-1c-0.1-0.3-0.2-0.6-0.4-0.9c-0.2-0.3-0.5-0.5-0.8-0.6
			c-0.3-0.2-0.7-0.2-1.1-0.2c-0.9,0-1.6,0.4-2.2,1.2c-0.5,0.8-0.8,2-0.8,3.5c0,1.5,0.3,2.7,0.8,3.4c0.5,0.8,1.2,1.1,2.1,1.1
			c0.9,0,2-0.4,3.2-1.3c0.4,0.3,0.7,0.6,0.8,1.1c-1.2,1.1-2.6,1.7-4.1,1.7c-0.8,0-1.4-0.2-2-0.5c-0.6-0.3-1.1-0.7-1.5-1.2
			c-0.4-0.5-0.7-1.1-0.9-1.8c-0.2-0.7-0.3-1.5-0.3-2.3c0-1.1,0.1-2.1,0.4-2.9c0.2-0.8,0.6-1.5,1-2c0.4-0.5,1-0.9,1.5-1.2
			c0.6-0.3,1.2-0.4,1.9-0.4c0.7,0,1.3,0.1,1.8,0.3c0.5,0.2,0.9,0.5,1.3,0.8c0.3,0.3,0.6,0.7,0.8,1.1c0.2,0.4,0.3,0.8,0.3,1.1
			c0,0.8-0.3,1.1-0.9,1.1C163.5,406.6,163.3,406.6,163,406.5z"/>
		<path class="st1" d="M176.7,405.9v5.9c0,0.9,0.1,1.6,0.3,2c-0.3,0.3-0.6,0.4-1.1,0.4c-0.6,0-0.9-0.4-0.9-1.2v-6.6
			c0-1-0.1-1.7-0.4-2.1c-0.3-0.4-0.7-0.6-1.3-0.6c-0.6,0-1.3,0.2-2,0.5c-0.7,0.3-1.3,0.8-1.7,1.3v8.5c-0.2,0-0.5,0.1-0.9,0.1
			c-0.3,0-0.6,0-0.9-0.1v-17.4l0.1-0.1h0.6c0.4,0,0.6,0.1,0.8,0.3c0.1,0.2,0.2,0.5,0.2,0.9v6.2c0.5-0.5,1.2-0.9,1.9-1.2
			c0.7-0.3,1.5-0.5,2.2-0.5c1.1,0,1.8,0.3,2.3,1C176.5,403.9,176.7,404.8,176.7,405.9z"/>
		<path class="st1" d="M68.7,441.1c0,0.6-0.1,1-0.2,1.2c-0.2,0.3-0.5,0.4-1,0.4h-7.6c-0.6-0.4-0.8-0.8-0.8-1.2
			c0-0.7,0.2-1.4,0.8-2.2c0.5-0.8,1.3-1.6,2.4-2.5l2.2-1.9c0.7-0.6,1.2-1.2,1.6-1.8c0.3-0.6,0.5-1.2,0.5-2c0-0.8-0.3-1.4-0.8-1.9
			c-0.5-0.5-1.1-0.8-1.9-0.8c-0.7,0-1.4,0.2-2,0.6c-0.6,0.4-1,1-1.4,1.7c-0.7-0.1-1.1-0.3-1.3-0.7c0.2-0.4,0.4-0.9,0.7-1.3
			c0.3-0.4,0.7-0.7,1.1-1c0.4-0.3,0.9-0.5,1.4-0.7c0.5-0.2,1.1-0.2,1.7-0.2c0.6,0,1.2,0.1,1.7,0.3c0.5,0.2,1,0.5,1.3,0.9
			c0.4,0.4,0.7,0.8,0.9,1.3s0.3,1.1,0.3,1.7s-0.1,1.1-0.2,1.6c-0.2,0.5-0.4,0.9-0.6,1.3c-0.3,0.4-0.6,0.8-1,1.1
			c-0.4,0.4-0.8,0.7-1.2,1.1l-1.9,1.6c-1.6,1.4-2.4,2.4-2.5,3.2c0.4,0,0.9-0.1,1.4-0.1c0.5,0,1,0,1.5,0H68.7z"/>
		<path class="st1" d="M72,427.3h9.2c0.2,0.4,0.4,0.8,0.4,1.1c0,0.3-0.1,0.6-0.3,0.9l-0.7,1.1c-1.3,2-2.4,3.9-3.1,5.6
			c-0.7,1.7-1.2,3.7-1.4,6.1l-0.1,0.7c-0.2,0.1-0.6,0.1-1,0.1s-0.7,0-0.9-0.1l0.1-0.9c0.4-3.8,1.8-7.5,4.2-11l0.2-0.4
			c0.2-0.3,0.6-0.9,1.2-1.7l-0.1-0.1c-0.4,0.1-1.7,0.2-3.8,0.2h-4c0-0.2-0.1-0.4-0.1-0.7C71.8,427.9,71.9,427.6,72,427.3z"/>
		<path class="st1" d="M84.6,442.7c-0.1-0.2-0.2-0.6-0.2-1.1c0-0.3,0-0.6,0.1-0.8c0.1-0.2,0.2-0.3,0.3-0.4c0.1-0.1,0.3-0.1,0.5-0.1
			c0.2,0,0.4,0,0.6,0c0.2,0,0.4,0,0.6,0c0.2,0,0.3,0.1,0.4,0.1c0.1,0.1,0.2,0.2,0.3,0.4c0.1,0.2,0.1,0.4,0.1,0.8
			c0,0.3,0,0.5-0.1,0.7c0,0.2-0.1,0.3-0.2,0.4c-0.1,0.1-0.3,0.1-0.4,0.2s-0.4,0-0.6,0C85.3,442.9,84.9,442.8,84.6,442.7z"/>
		<path class="st1" d="M94.9,441.3l0-1.5V433c0,0,0-1,0.1-3c-0.9,1.2-2.1,2.1-3.6,2.8c-0.4-0.3-0.7-0.6-0.8-1.1
			c1.1-0.7,2-1.4,2.8-2.2c0.8-0.8,1.3-1.6,1.6-2.2c0.3-0.1,0.5-0.1,0.8-0.1s0.6,0,0.8,0.1v12.5l0,1.5l1.3,0h1.8
			c0,0.3,0.1,0.5,0.1,0.8s0,0.5-0.1,0.7h-8.5c0-0.3-0.1-0.5-0.1-0.8c0-0.3,0-0.5,0.1-0.8h2.3L94.9,441.3z"/>
		<path class="st1" d="M108.7,427.1c0.7,0.8,1.1,2,1.1,3.8c0,1.6-0.3,2.8-1,3.6c-0.6,0.8-1.5,1.2-2.6,1.2c-1.1,0-2-0.4-2.6-1.2
			c-0.6-0.8-1-2-1-3.6c0-1.6,0.3-2.8,0.9-3.6c0.6-0.8,1.5-1.2,2.6-1.2C107.3,426.1,108.1,426.5,108.7,427.1z M106.2,427.4
			c-1.3,0-1.9,1.2-1.9,3.5c0,2.3,0.6,3.5,1.9,3.5c1.3,0,2-1.2,2-3.5C108.2,428.6,107.5,427.4,106.2,427.4z M106.4,442.7l9-16.3
			c0.2-0.1,0.5-0.1,0.9-0.1c0.2,0,0.3,0,0.5,0c0.2,0,0.3,0.1,0.4,0.1l-9,16.3c-0.1,0-0.2,0.1-0.4,0.1c-0.2,0-0.3,0-0.5,0
			c-0.2,0-0.3,0-0.5,0C106.6,442.8,106.5,442.8,106.4,442.7z M119.7,442.1c-0.6,0.6-1.4,1-2.4,1c-1.1,0-2-0.4-2.6-1.2
			c-0.6-0.8-1-2-1-3.6c0-1.6,0.3-2.8,0.9-3.6s1.5-1.2,2.7-1.2c1.1,0,2,0.4,2.7,1.2s0.9,2,0.9,3.6C120.9,440,120.5,441.3,119.7,442.1
			z M117.3,434.8c-1.3,0-1.9,1.2-1.9,3.5c0,2.3,0.6,3.5,1.9,3.5c1.3,0,2-1.2,2-3.5C119.2,436,118.6,434.8,117.3,434.8z"/>
	</g>
</g>
<g>
	<g class="st0">
		<path class="st2" d="M203.2,413.2c0-0.5,0.2-0.9,0.7-1.3c0.7,0.4,1.4,0.7,1.9,0.9c0.6,0.2,1.1,0.2,1.5,0.2c0.4,0,0.7-0.1,1-0.2
			c0.3-0.1,0.5-0.2,0.8-0.4c0.2-0.2,0.4-0.4,0.5-0.6c0.1-0.2,0.2-0.4,0.2-0.6c0-0.5-0.1-0.9-0.4-1.2c-0.3-0.3-0.7-0.6-1.3-0.8
			l-1.3-0.5c-1-0.4-1.8-0.9-2.3-1.4c-0.5-0.5-0.8-1.2-0.8-1.9c0-0.5,0.1-0.9,0.3-1.3c0.2-0.4,0.5-0.8,0.9-1c0.4-0.3,0.8-0.5,1.3-0.7
			c0.5-0.2,1-0.2,1.6-0.2c1.2,0,2.4,0.3,3.5,0.8c0,0.6-0.2,1-0.5,1.4c-0.6-0.3-1.2-0.5-1.7-0.6c-0.5-0.1-1-0.2-1.4-0.2
			c-0.7,0-1.3,0.2-1.7,0.5c-0.4,0.3-0.6,0.7-0.6,1.1c0,0.5,0.1,0.8,0.4,1.1c0.3,0.3,0.7,0.5,1.4,0.8l1.4,0.5c2,0.8,3,1.9,3,3.5
			c0,1.1-0.4,1.9-1.2,2.5c-0.8,0.6-1.9,0.9-3.3,0.9C205.8,414.4,204.5,414,203.2,413.2z"/>
		<path class="st2" d="M223.2,408.8h-7.4c0.1,2.7,1.1,4.1,3.1,4.1c1.1,0,2.2-0.3,3.5-1c0.4,0.3,0.6,0.7,0.6,1.2
			c-1.3,0.9-2.8,1.3-4.4,1.3c-0.8,0-1.5-0.2-2.1-0.5c-0.6-0.3-1.1-0.7-1.4-1.3c-0.4-0.5-0.6-1.2-0.8-1.9c-0.2-0.7-0.3-1.6-0.3-2.5
			c0-0.9,0.1-1.7,0.3-2.5c0.2-0.7,0.5-1.4,0.9-1.9c0.4-0.5,0.9-1,1.5-1.3c0.6-0.3,1.2-0.5,2-0.5c0.7,0,1.4,0.1,2,0.4
			c0.6,0.3,1.1,0.6,1.5,1.1c0.4,0.5,0.7,1,0.9,1.6c0.2,0.6,0.3,1.3,0.3,2c0,0.3,0,0.6,0,0.8C223.2,408.3,223.2,408.5,223.2,408.8z
			 M215.8,407.4h5.7v-0.3c0-1.1-0.2-2-0.7-2.7c-0.5-0.7-1.1-1-2.1-1c-0.9,0-1.6,0.4-2.1,1.1C216.1,405.2,215.8,406.2,215.8,407.4z"
			/>
		<path class="st2" d="M235.7,405.9v5.9c0,0.9,0.1,1.6,0.3,2c-0.3,0.3-0.6,0.4-1.1,0.4c-0.6,0-0.9-0.4-0.9-1.2v-6.6
			c0-1-0.1-1.7-0.4-2.1c-0.2-0.4-0.7-0.6-1.4-0.6c-0.6,0-1.3,0.2-2,0.5c-0.7,0.3-1.3,0.8-1.7,1.3v8.5c-0.2,0-0.5,0.1-0.9,0.1
			c-0.4,0-0.6,0-0.9-0.1v-11.7l0.1-0.1h0.7c0.4,0,0.6,0.1,0.8,0.3c0.1,0.2,0.2,0.5,0.2,0.9v0.3c0.5-0.5,1.2-0.9,1.9-1.2
			c0.7-0.3,1.5-0.5,2.2-0.5c1.1,0,1.8,0.3,2.3,1C235.5,403.9,235.7,404.8,235.7,405.9z"/>
		<path class="st2" d="M238.6,413.2c0-0.5,0.2-0.9,0.7-1.3c0.7,0.4,1.4,0.7,1.9,0.9c0.6,0.2,1.1,0.2,1.5,0.2c0.4,0,0.7-0.1,1-0.2
			c0.3-0.1,0.5-0.2,0.8-0.4c0.2-0.2,0.4-0.4,0.5-0.6c0.1-0.2,0.2-0.4,0.2-0.6c0-0.5-0.1-0.9-0.4-1.2c-0.3-0.3-0.7-0.6-1.3-0.8
			l-1.3-0.5c-1-0.4-1.8-0.9-2.3-1.4c-0.5-0.5-0.8-1.2-0.8-1.9c0-0.5,0.1-0.9,0.3-1.3c0.2-0.4,0.5-0.8,0.9-1c0.4-0.3,0.8-0.5,1.3-0.7
			c0.5-0.2,1-0.2,1.6-0.2c1.2,0,2.4,0.3,3.5,0.8c0,0.6-0.2,1-0.5,1.4c-0.6-0.3-1.2-0.5-1.7-0.6c-0.5-0.1-1-0.2-1.4-0.2
			c-0.7,0-1.3,0.2-1.7,0.5c-0.4,0.3-0.6,0.7-0.6,1.1c0,0.5,0.1,0.8,0.4,1.1s0.7,0.5,1.4,0.8l1.4,0.5c2,0.8,3,1.9,3,3.5
			c0,1.1-0.4,1.9-1.2,2.5c-0.8,0.6-1.9,0.9-3.3,0.9C241.2,414.4,239.9,414,238.6,413.2z"/>
		<path class="st2" d="M252.1,404v10.1c-0.2,0-0.5,0.1-0.9,0.1c-0.4,0-0.6,0-0.9-0.1v-9.2c0-0.4-0.1-0.7-0.2-0.9
			c-0.1-0.2-0.4-0.2-0.8-0.2h-0.2c-0.1-0.2-0.1-0.4-0.1-0.6c0-0.3,0-0.5,0.1-0.7c0.3,0,0.5-0.1,0.7-0.1c0.2,0,0.3,0,0.5,0h0.2
			c0.5,0,0.9,0.2,1.2,0.5C252,403.1,252.1,403.5,252.1,404z M249.8,398.3c0.3-0.2,0.6-0.2,1.1-0.2c0.5,0,0.8,0.1,1,0.2
			c0.2,0.1,0.3,0.4,0.3,0.9s-0.1,0.8-0.3,0.9c-0.2,0.2-0.5,0.2-0.9,0.2c-0.4,0-0.7-0.1-0.9-0.2c-0.2-0.1-0.3-0.4-0.3-1
			C249.6,398.8,249.7,398.5,249.8,398.3z"/>
		<path class="st2" d="M256.3,413.5v-16.8l0.1-0.1h0.6c0.4,0,0.6,0.1,0.8,0.3c0.1,0.2,0.2,0.5,0.2,0.9v5.9c1-1,2.1-1.5,3.4-1.5
			c1.3,0,2.3,0.5,3,1.6c0.7,1.1,1.1,2.6,1.1,4.5c0,1-0.1,1.8-0.4,2.5c-0.3,0.7-0.6,1.4-1.1,1.9c-0.5,0.5-1,0.9-1.6,1.2
			c-0.6,0.3-1.3,0.4-1.9,0.4C259.1,414.3,257.7,414,256.3,413.5z M258,405.4v7.1c0.7,0.3,1.5,0.4,2.4,0.4c0.9,0,1.7-0.4,2.3-1.2
			s0.9-2,0.9-3.5c0-0.8-0.1-1.4-0.2-2s-0.3-1-0.5-1.4c-0.2-0.4-0.5-0.6-0.8-0.8c-0.3-0.2-0.6-0.3-0.9-0.3c-0.7,0-1.3,0.2-1.8,0.5
			C258.9,404.5,258.4,404.9,258,405.4z"/>
		<path class="st2" d="M271.4,412.7h1c0.1,0.1,0.1,0.3,0.1,0.5c0,0.2,0,0.3,0,0.5c0,0.1,0,0.2,0,0.2c0,0.1,0,0.1,0,0.1
			c-0.3,0-0.5,0.1-0.7,0.1c-0.2,0-0.5,0-0.7,0c-0.7,0-1.2-0.1-1.6-0.4c-0.4-0.3-0.7-0.8-0.7-1.6v-15.5l0.1-0.1h0.6
			c0.4,0,0.6,0.1,0.8,0.3c0.1,0.2,0.2,0.5,0.2,0.9v14C270.5,412.4,270.8,412.7,271.4,412.7z"/>
		<path class="st2" d="M283.7,408.8h-7.4c0.1,2.7,1.1,4.1,3.1,4.1c1.1,0,2.2-0.3,3.5-1c0.4,0.3,0.6,0.7,0.6,1.2
			c-1.3,0.9-2.8,1.3-4.4,1.3c-0.8,0-1.5-0.2-2.1-0.5c-0.6-0.3-1.1-0.7-1.4-1.3c-0.4-0.5-0.6-1.2-0.8-1.9c-0.2-0.7-0.3-1.6-0.3-2.5
			c0-0.9,0.1-1.7,0.3-2.5c0.2-0.7,0.5-1.4,0.9-1.9c0.4-0.5,0.9-1,1.5-1.3c0.6-0.3,1.2-0.5,2-0.5c0.7,0,1.4,0.1,2,0.4
			c0.6,0.3,1.1,0.6,1.5,1.1c0.4,0.5,0.7,1,0.9,1.6c0.2,0.6,0.3,1.3,0.3,2c0,0.3,0,0.6,0,0.8C283.8,408.3,283.8,408.5,283.7,408.8z
			 M276.3,407.4h5.7v-0.3c0-1.1-0.2-2-0.7-2.7c-0.5-0.7-1.1-1-2.1-1c-0.9,0-1.6,0.4-2.1,1.1S276.4,406.2,276.3,407.4z"/>
		<path class="st2" d="M286.7,403.2c0.1-0.4,0.4-0.7,0.8-1c0.9,0.3,1.5,1,1.7,2.1c0.7-1.4,1.7-2.1,3.2-2.1c0.3,0,0.7,0,1.1,0.1
			c0,0.7-0.1,1.2-0.4,1.7c-0.2,0-0.5,0-0.8,0c-1.3,0-2.3,0.7-2.9,2.2v8c-0.2,0-0.5,0.1-0.9,0.1c-0.4,0-0.6,0-0.9-0.1v-8.5
			C287.5,404.5,287.3,403.7,286.7,403.2z"/>
		<path class="st2" d="M301.4,414.1l-0.1-0.1v-16l0.1-0.1l4.7-0.1c1.7,0,3,0.4,3.8,1.1s1.2,1.8,1.2,3.2c0,0.8-0.2,1.5-0.6,2.1
			c-0.4,0.6-1,1-1.7,1.3c0.4,0.1,0.8,0.3,1.2,0.6c0.4,0.3,0.7,0.6,1,0.9s0.5,0.8,0.7,1.3c0.2,0.5,0.2,1,0.2,1.6
			c0,0.6-0.1,1.1-0.3,1.6c-0.2,0.5-0.5,1-1,1.4c-0.4,0.4-1,0.7-1.7,1c-0.7,0.2-1.5,0.4-2.5,0.4L301.4,414.1z M303.1,399.2v5.6h2.9
			c0.6,0,1.1-0.1,1.5-0.2s0.7-0.3,1-0.6c0.2-0.3,0.4-0.6,0.5-0.9c0.1-0.3,0.2-0.7,0.2-1.1c0-1.8-1-2.8-3.1-2.8c-0.7,0-1.3,0-1.8,0
			C303.8,399.2,303.4,399.2,303.1,399.2z M303.1,412.7l3.4,0c0.7,0,1.2-0.1,1.7-0.3c0.4-0.2,0.8-0.4,1.1-0.7c0.3-0.3,0.4-0.6,0.6-1
			c0.1-0.4,0.2-0.8,0.2-1.2c0-0.4-0.1-0.7-0.2-1.1c-0.1-0.4-0.3-0.7-0.6-1c-0.3-0.3-0.7-0.6-1.1-0.8c-0.5-0.2-1-0.3-1.7-0.3h-3.2
			V412.7z"/>
		<path class="st2" d="M323.8,408.8h-7.4c0.1,2.7,1.1,4.1,3.1,4.1c1.1,0,2.2-0.3,3.5-1c0.4,0.3,0.6,0.7,0.6,1.2
			c-1.3,0.9-2.8,1.3-4.4,1.3c-0.8,0-1.5-0.2-2.1-0.5c-0.6-0.3-1.1-0.7-1.4-1.3c-0.4-0.5-0.6-1.2-0.8-1.9c-0.2-0.7-0.3-1.6-0.3-2.5
			c0-0.9,0.1-1.7,0.3-2.5c0.2-0.7,0.5-1.4,0.9-1.9c0.4-0.5,0.9-1,1.5-1.3c0.6-0.3,1.2-0.5,2-0.5c0.7,0,1.4,0.1,2,0.4
			c0.6,0.3,1.1,0.6,1.5,1.1c0.4,0.5,0.7,1,0.9,1.6c0.2,0.6,0.3,1.3,0.3,2c0,0.3,0,0.6,0,0.8C323.8,408.3,323.8,408.5,323.8,408.8z
			 M316.3,407.4h5.7v-0.3c0-1.1-0.2-2-0.7-2.7c-0.5-0.7-1.1-1-2.1-1c-0.9,0-1.6,0.4-2.1,1.1S316.4,406.2,316.3,407.4z"/>
		<path class="st2" d="M326.7,403.2c0.1-0.4,0.4-0.7,0.8-1c0.9,0.3,1.5,1,1.7,2.1c0.7-1.4,1.7-2.1,3.2-2.1c0.3,0,0.7,0,1.1,0.1
			c0,0.7-0.1,1.2-0.4,1.7c-0.2,0-0.5,0-0.8,0c-1.3,0-2.3,0.7-2.9,2.2v8c-0.2,0-0.5,0.1-0.9,0.1c-0.3,0-0.6,0-0.9-0.1v-8.5
			C327.6,404.5,327.3,403.7,326.7,403.2z"/>
		<path class="st2" d="M343.7,408.8h-7.4c0.1,2.7,1.1,4.1,3.1,4.1c1.1,0,2.2-0.3,3.5-1c0.3,0.3,0.6,0.7,0.6,1.2
			c-1.3,0.9-2.8,1.3-4.4,1.3c-0.8,0-1.5-0.2-2.1-0.5c-0.6-0.3-1.1-0.7-1.4-1.3c-0.4-0.5-0.6-1.2-0.8-1.9c-0.2-0.7-0.3-1.6-0.3-2.5
			c0-0.9,0.1-1.7,0.3-2.5c0.2-0.7,0.5-1.4,0.9-1.9c0.4-0.5,0.9-1,1.5-1.3c0.6-0.3,1.2-0.5,2-0.5c0.7,0,1.4,0.1,2,0.4
			s1.1,0.6,1.5,1.1c0.4,0.5,0.7,1,0.9,1.6c0.2,0.6,0.3,1.3,0.3,2c0,0.3,0,0.6,0,0.8C343.7,408.3,343.7,408.5,343.7,408.8z
			 M336.3,407.4h5.7v-0.3c0-1.1-0.2-2-0.7-2.7c-0.5-0.7-1.1-1-2.1-1c-0.9,0-1.6,0.4-2.1,1.1S336.3,406.2,336.3,407.4z"/>
		<path class="st2" d="M349.2,404v10.1c-0.2,0-0.5,0.1-0.9,0.1s-0.6,0-0.9-0.1v-9.2c0-0.4-0.1-0.7-0.2-0.9c-0.1-0.2-0.4-0.2-0.8-0.2
			h-0.2c-0.1-0.2-0.1-0.4-0.1-0.6c0-0.3,0-0.5,0.1-0.7c0.3,0,0.5-0.1,0.7-0.1c0.2,0,0.3,0,0.5,0h0.2c0.5,0,0.9,0.2,1.2,0.5
			C349.1,403.1,349.2,403.5,349.2,404z M346.9,398.3c0.3-0.2,0.6-0.2,1.1-0.2c0.5,0,0.8,0.1,1,0.2c0.2,0.1,0.3,0.4,0.3,0.9
			s-0.1,0.8-0.3,0.9c-0.2,0.2-0.5,0.2-0.9,0.2c-0.4,0-0.7-0.1-0.9-0.2c-0.2-0.1-0.3-0.4-0.3-1C346.7,398.8,346.8,398.5,346.9,398.3z
			"/>
		<path class="st2" d="M359.8,406.5v-0.3c0-0.3,0-0.7-0.1-1c-0.1-0.3-0.2-0.6-0.4-0.9c-0.2-0.3-0.5-0.5-0.8-0.6
			c-0.3-0.2-0.7-0.2-1.1-0.2c-0.9,0-1.6,0.4-2.2,1.2c-0.5,0.8-0.8,2-0.8,3.5c0,1.5,0.3,2.7,0.8,3.4c0.5,0.8,1.2,1.1,2.1,1.1
			c0.9,0,2-0.4,3.2-1.3c0.4,0.3,0.7,0.6,0.8,1.1c-1.2,1.1-2.6,1.7-4.1,1.7c-0.8,0-1.4-0.2-2-0.5c-0.6-0.3-1.1-0.7-1.5-1.2
			c-0.4-0.5-0.7-1.1-0.9-1.8c-0.2-0.7-0.3-1.5-0.3-2.3c0-1.1,0.1-2.1,0.4-2.9c0.2-0.8,0.6-1.5,1-2c0.4-0.5,1-0.9,1.5-1.2
			s1.2-0.4,1.9-0.4c0.7,0,1.3,0.1,1.8,0.3c0.5,0.2,0.9,0.5,1.3,0.8c0.3,0.3,0.6,0.7,0.8,1.1c0.2,0.4,0.3,0.8,0.3,1.1
			c0,0.8-0.3,1.1-0.9,1.1C360.3,406.6,360.1,406.6,359.8,406.5z"/>
		<path class="st2" d="M373.5,405.9v5.9c0,0.9,0.1,1.6,0.3,2c-0.3,0.3-0.6,0.4-1.1,0.4c-0.6,0-0.9-0.4-0.9-1.2v-6.6
			c0-1-0.1-1.7-0.4-2.1c-0.3-0.4-0.7-0.6-1.3-0.6s-1.3,0.2-2,0.5c-0.7,0.3-1.3,0.8-1.7,1.3v8.5c-0.2,0-0.5,0.1-0.9,0.1
			c-0.3,0-0.6,0-0.9-0.1v-17.4l0.1-0.1h0.6c0.4,0,0.6,0.1,0.8,0.3c0.1,0.2,0.2,0.5,0.2,0.9v6.2c0.5-0.5,1.2-0.9,1.9-1.2
			c0.7-0.3,1.5-0.5,2.2-0.5c1.1,0,1.8,0.3,2.3,1C373.3,403.9,373.5,404.8,373.5,405.9z"/>
		<path class="st2" d="M265.6,439.1l0,1v2.6c-0.3,0-0.6,0.1-0.9,0.1c-0.3,0-0.6,0-0.9-0.1v-2.6l0-1l-1,0h-4.7
			c-0.3-0.5-0.4-0.9-0.4-1c0-0.2,0.2-0.7,0.5-1.5l4.2-9.5c0.2-0.1,0.5-0.1,0.9,0c0.3,0.1,0.6,0.2,0.8,0.3l-3.4,7.7
			c-0.6,1.3-1,2.1-1.1,2.4l0,0.1c0.9,0,1.7-0.1,2.5-0.1h1.7l0-0.9v-2.5c0-0.9,0.4-1.3,1.1-1.3h0.5l0.1,0.1v3.6l0,1l1,0h1.6
			c0,0.2,0,0.4,0,0.7c0,0.3,0,0.6-0.1,0.8h-1.5L265.6,439.1z"/>
		<path class="st2" d="M272.5,441.6l-0.4-0.4c-0.2-0.2-0.4-0.5-0.5-0.9c-0.2-0.4-0.3-0.9-0.4-1.5c-0.1-0.6-0.2-1.2-0.3-1.9
			c-0.1-0.7-0.1-1.4-0.1-2.1c0-1.2,0.1-2.3,0.4-3.3c0.3-1,0.6-1.8,1.1-2.5c0.5-0.7,1.1-1.2,1.9-1.6c0.7-0.4,1.6-0.5,2.6-0.5
			c1.3,0,2.4,0.2,3.2,0.7c-0.1,0.6-0.3,1.1-0.7,1.3c-0.8-0.3-1.6-0.5-2.4-0.5c-0.7,0-1.3,0.1-1.8,0.4c-0.5,0.3-0.9,0.7-1.3,1.2
			c-0.3,0.5-0.6,1.1-0.8,1.8c-0.2,0.7-0.3,1.4-0.3,2.2c1.1-1.1,2.3-1.6,3.7-1.6c1.4,0,2.5,0.4,3.3,1.3c0.8,0.9,1.2,2.1,1.2,3.8
			c0,0.8-0.1,1.5-0.3,2.2c-0.2,0.7-0.6,1.2-1,1.7c-0.4,0.5-0.9,0.9-1.5,1.1c-0.6,0.3-1.3,0.4-2,0.4
			C274.4,443,273.3,442.6,272.5,441.6z M275.9,434c-0.6,0-1.1,0.2-1.7,0.5c-0.6,0.3-1.1,0.7-1.6,1.3v0.4c0,0.8,0.1,1.6,0.2,2.2
			c0.1,0.7,0.3,1.2,0.6,1.7c0.3,0.5,0.6,0.8,1,1.1c0.4,0.3,0.9,0.4,1.4,0.4c0.9,0,1.6-0.3,2.1-1c0.5-0.7,0.8-1.6,0.8-2.8
			C278.8,435.3,277.9,434,275.9,434z"/>
		<path class="st2" d="M283.7,442.7c-0.1-0.2-0.2-0.6-0.2-1.1c0-0.3,0-0.6,0.1-0.8c0.1-0.2,0.2-0.3,0.3-0.4c0.1-0.1,0.3-0.1,0.5-0.1
			c0.2,0,0.4,0,0.6,0c0.2,0,0.4,0,0.6,0c0.2,0,0.3,0.1,0.4,0.1s0.2,0.2,0.3,0.4c0.1,0.2,0.1,0.4,0.1,0.8c0,0.3,0,0.5-0.1,0.7
			c0,0.2-0.1,0.3-0.2,0.4c-0.1,0.1-0.3,0.1-0.4,0.2s-0.4,0-0.6,0C284.4,442.9,284,442.8,283.7,442.7z"/>
		<path class="st2" d="M296.9,439.1l0,1v2.6c-0.3,0-0.6,0.1-0.9,0.1c-0.3,0-0.6,0-0.9-0.1v-2.6l0-1l-1,0h-4.7
			c-0.3-0.5-0.4-0.9-0.4-1c0-0.2,0.2-0.7,0.5-1.5l4.2-9.5c0.2-0.1,0.5-0.1,0.9,0c0.3,0.1,0.6,0.2,0.8,0.3l-3.4,7.7
			c-0.6,1.3-1,2.1-1.1,2.4l0,0.1c0.9,0,1.7-0.1,2.5-0.1h1.7l0-0.9v-2.5c0-0.9,0.4-1.3,1.1-1.3h0.5l0.1,0.1v3.6l0,1l1,0h1.6
			c0,0.2,0,0.4,0,0.7c0,0.3,0,0.6-0.1,0.8h-1.5L296.9,439.1z"/>
		<path class="st2" d="M307.8,427.1c0.7,0.8,1.1,2,1.1,3.8c0,1.6-0.3,2.8-1,3.6c-0.6,0.8-1.5,1.2-2.6,1.2c-1.1,0-2-0.4-2.6-1.2
			c-0.6-0.8-1-2-1-3.6c0-1.6,0.3-2.8,0.9-3.6c0.6-0.8,1.5-1.2,2.6-1.2C306.4,426.1,307.2,426.5,307.8,427.1z M305.3,427.4
			c-1.3,0-1.9,1.2-1.9,3.5c0,2.3,0.6,3.5,1.9,3.5c1.3,0,2-1.2,2-3.5C307.3,428.6,306.6,427.4,305.3,427.4z M305.5,442.7l9-16.3
			c0.2-0.1,0.5-0.1,0.9-0.1c0.2,0,0.3,0,0.5,0c0.2,0,0.3,0.1,0.4,0.1l-9,16.3c-0.1,0-0.2,0.1-0.4,0.1c-0.2,0-0.3,0-0.5,0
			c-0.2,0-0.3,0-0.5,0C305.7,442.8,305.6,442.8,305.5,442.7z M318.8,442.1c-0.6,0.6-1.4,1-2.4,1c-1.1,0-2-0.4-2.6-1.2
			c-0.6-0.8-1-2-1-3.6c0-1.6,0.3-2.8,0.9-3.6c0.6-0.8,1.5-1.2,2.7-1.2c1.1,0,2,0.4,2.7,1.2c0.6,0.8,0.9,2,0.9,3.6
			C320,440,319.6,441.3,318.8,442.1z M316.4,434.8c-1.3,0-1.9,1.2-1.9,3.5c0,2.3,0.6,3.5,1.9,3.5c1.3,0,2-1.2,2-3.5
			C318.3,436,317.7,434.8,316.4,434.8z"/>
	</g>
</g>
<g>
	<g class="st0">
		<path class="st3" d="M418.5,403.4c0.2-0.6,0.6-0.9,1.3-1.2c0.4,0.2,0.6,0.5,0.8,0.9c-0.4,0.4-0.7,1.3-0.7,2.6v7.5
			c0,1.1-0.1,2.1-0.3,2.8c-0.2,0.8-0.5,1.4-0.9,1.9c-0.4,0.5-0.9,0.9-1.4,1.1c-0.6,0.2-1.2,0.3-2,0.3c-1.5,0-2.9-0.3-4.1-0.8
			c0-0.6,0.2-1,0.5-1.4c1.1,0.5,2.2,0.8,3.3,0.8c0.6,0,1.2-0.1,1.6-0.3c0.4-0.2,0.7-0.4,1-0.8c0.2-0.3,0.4-0.7,0.5-1.2
			c0.1-0.5,0.1-1,0.1-1.6v-1.4c-1,1.1-2.2,1.6-3.5,1.6c-1.3,0-2.3-0.5-3-1.6c-0.7-1.1-1-2.6-1-4.5c0-1,0.1-1.8,0.4-2.6
			c0.2-0.8,0.6-1.4,1-1.9c0.4-0.5,0.9-0.9,1.4-1.2c0.5-0.3,1.1-0.4,1.7-0.4C416.4,402.1,417.5,402.5,418.5,403.4z M418.2,411v-6.2
			c-0.5-0.4-0.9-0.7-1.4-0.9s-0.9-0.3-1.4-0.3c-0.9,0-1.6,0.4-2.1,1.2c-0.5,0.8-0.8,1.9-0.8,3.5c0,1.5,0.2,2.7,0.7,3.4
			c0.5,0.7,1,1.1,1.7,1.1c0.7,0,1.3-0.2,1.9-0.5C417.3,412,417.8,411.5,418.2,411z"/>
		<path class="st3" d="M423.4,403.2c0.1-0.4,0.4-0.7,0.8-1c0.9,0.3,1.5,1,1.7,2.1c0.7-1.4,1.7-2.1,3.2-2.1c0.3,0,0.7,0,1.1,0.1
			c0,0.7-0.1,1.2-0.4,1.7c-0.2,0-0.5,0-0.8,0c-1.3,0-2.3,0.7-2.9,2.2v8c-0.2,0-0.5,0.1-0.9,0.1c-0.3,0-0.6,0-0.9-0.1v-8.5
			C424.3,404.5,424,403.7,423.4,403.2z"/>
		<path class="st3" d="M432.4,410.6v-5.9c0-0.8-0.1-1.5-0.3-2c0.3-0.3,0.6-0.4,1.1-0.4c0.6,0,0.9,0.4,0.9,1.2v6.6
			c0,1,0.1,1.7,0.4,2.1c0.3,0.4,0.7,0.6,1.3,0.6c0.6,0,1.3-0.2,2-0.5c0.7-0.3,1.3-0.8,1.7-1.3v-8.5c0.1,0,0.2-0.1,0.4-0.1
			c0.2,0,0.3,0,0.5,0s0.3,0,0.5,0c0.2,0,0.3,0,0.4,0.1v8.4c0,1.3,0.2,2.1,0.7,2.6c-0.1,0.4-0.4,0.7-0.8,0.9
			c-0.8-0.3-1.3-0.8-1.5-1.8c-0.5,0.5-1.2,1-1.9,1.3c-0.8,0.3-1.5,0.5-2.3,0.5c-1.1,0-1.8-0.3-2.3-1
			C432.6,412.6,432.4,411.7,432.4,410.6z M433.7,398.8c0.1-0.1,0.3-0.1,0.4-0.2c0.2,0,0.3,0,0.5,0c0.4,0,0.7,0.1,1,0.2
			c0,0.1,0.1,0.3,0.1,0.4c0,0.1,0,0.3,0,0.4c0,0.3-0.1,0.6-0.2,0.8c-0.1,0.2-0.4,0.3-0.9,0.3c-0.3,0-0.5,0-0.6-0.1
			c-0.1-0.1-0.3-0.1-0.3-0.2c-0.1-0.1-0.1-0.2-0.1-0.3c0-0.1,0-0.3,0-0.4C433.5,399.3,433.6,399.1,433.7,398.8z M437.9,398.8
			c0.2-0.1,0.6-0.2,1-0.2c0.5,0,0.8,0.1,0.9,0.3c0.1,0.2,0.2,0.4,0.2,0.8c0,0.3-0.1,0.6-0.2,0.7c-0.1,0.2-0.4,0.3-0.9,0.3
			c-0.3,0-0.5,0-0.6-0.1c-0.2-0.1-0.3-0.1-0.3-0.2c-0.1-0.1-0.1-0.2-0.1-0.3c0-0.1,0-0.3,0-0.4C437.8,399.3,437.8,399.1,437.9,398.8
			z"/>
		<path class="st3" d="M454.5,405.9v5.9c0,0.9,0.1,1.6,0.3,2c-0.3,0.3-0.6,0.4-1.1,0.4c-0.6,0-0.9-0.4-0.9-1.2v-6.6
			c0-1-0.1-1.7-0.4-2.1c-0.2-0.4-0.7-0.6-1.4-0.6c-0.6,0-1.3,0.2-2,0.5c-0.7,0.3-1.3,0.8-1.7,1.3v8.5c-0.2,0-0.5,0.1-0.9,0.1
			s-0.6,0-0.9-0.1v-11.7l0.1-0.1h0.7c0.4,0,0.6,0.1,0.8,0.3c0.1,0.2,0.2,0.5,0.2,0.9v0.3c0.5-0.5,1.2-0.9,1.9-1.2
			c0.7-0.3,1.5-0.5,2.2-0.5c1.1,0,1.8,0.3,2.3,1C454.2,403.9,454.5,404.8,454.5,405.9z"/>
		<path class="st3" d="M466.9,408.8h-7.4c0.1,2.7,1.1,4.1,3.1,4.1c1.1,0,2.2-0.3,3.5-1c0.3,0.3,0.6,0.7,0.6,1.2
			c-1.3,0.9-2.8,1.3-4.4,1.3c-0.8,0-1.5-0.2-2.1-0.5c-0.6-0.3-1.1-0.7-1.4-1.3c-0.4-0.5-0.6-1.2-0.8-1.9c-0.2-0.7-0.3-1.6-0.3-2.5
			c0-0.9,0.1-1.7,0.3-2.5c0.2-0.7,0.5-1.4,0.9-1.9c0.4-0.5,0.9-1,1.5-1.3c0.6-0.3,1.2-0.5,2-0.5c0.7,0,1.4,0.1,2,0.4
			s1.1,0.6,1.5,1.1c0.4,0.5,0.7,1,0.9,1.6c0.2,0.6,0.3,1.3,0.3,2c0,0.3,0,0.6,0,0.8C467,408.3,467,408.5,466.9,408.8z M459.5,407.4
			h5.7v-0.3c0-1.1-0.2-2-0.7-2.7c-0.5-0.7-1.1-1-2.1-1c-0.9,0-1.6,0.4-2.1,1.1S459.6,406.2,459.5,407.4z"/>
		<path class="st3" d="M469.9,403.2c0.1-0.4,0.4-0.7,0.8-1c0.9,0.3,1.5,1,1.7,2.1c0.7-1.4,1.7-2.1,3.2-2.1c0.3,0,0.7,0,1.1,0.1
			c0,0.7-0.1,1.2-0.4,1.7c-0.2,0-0.5,0-0.8,0c-1.3,0-2.3,0.7-2.9,2.2v8c-0.2,0-0.5,0.1-0.9,0.1c-0.3,0-0.6,0-0.9-0.1v-8.5
			C470.8,404.5,470.5,403.7,469.9,403.2z"/>
		<path class="st3" d="M484.6,414.1l-0.1-0.1v-16l0.1-0.1l4.7-0.1c1.7,0,3,0.4,3.8,1.1c0.8,0.8,1.2,1.8,1.2,3.2
			c0,0.8-0.2,1.5-0.6,2.1c-0.4,0.6-1,1-1.7,1.3c0.4,0.1,0.8,0.3,1.2,0.6s0.7,0.6,1,0.9s0.5,0.8,0.7,1.3c0.2,0.5,0.2,1,0.2,1.6
			c0,0.6-0.1,1.1-0.3,1.6c-0.2,0.5-0.5,1-1,1.4c-0.4,0.4-1,0.7-1.7,1c-0.7,0.2-1.5,0.4-2.5,0.4L484.6,414.1z M486.3,399.2v5.6h2.9
			c0.6,0,1.1-0.1,1.5-0.2c0.4-0.1,0.7-0.3,1-0.6c0.2-0.3,0.4-0.6,0.5-0.9c0.1-0.3,0.2-0.7,0.2-1.1c0-1.8-1-2.8-3.1-2.8
			c-0.7,0-1.3,0-1.8,0C487,399.2,486.6,399.2,486.3,399.2z M486.3,412.7l3.4,0c0.7,0,1.2-0.1,1.7-0.3c0.4-0.2,0.8-0.4,1.1-0.7
			c0.3-0.3,0.4-0.6,0.6-1c0.1-0.4,0.2-0.8,0.2-1.2c0-0.4-0.1-0.7-0.2-1.1c-0.1-0.4-0.3-0.7-0.6-1c-0.3-0.3-0.7-0.6-1.1-0.8
			c-0.5-0.2-1-0.3-1.7-0.3h-3.2V412.7z"/>
		<path class="st3" d="M507,408.8h-7.4c0.1,2.7,1.1,4.1,3.1,4.1c1.1,0,2.2-0.3,3.5-1c0.3,0.3,0.6,0.7,0.6,1.2
			c-1.3,0.9-2.8,1.3-4.4,1.3c-0.8,0-1.5-0.2-2.1-0.5c-0.6-0.3-1.1-0.7-1.4-1.3c-0.4-0.5-0.6-1.2-0.8-1.9c-0.2-0.7-0.3-1.6-0.3-2.5
			c0-0.9,0.1-1.7,0.3-2.5c0.2-0.7,0.5-1.4,0.9-1.9c0.4-0.5,0.9-1,1.5-1.3c0.6-0.3,1.2-0.5,2-0.5c0.7,0,1.4,0.1,2,0.4
			s1.1,0.6,1.5,1.1c0.4,0.5,0.7,1,0.9,1.6c0.2,0.6,0.3,1.3,0.3,2c0,0.3,0,0.6,0,0.8C507,408.3,507,408.5,507,408.8z M499.6,407.4
			h5.7v-0.3c0-1.1-0.2-2-0.7-2.7c-0.5-0.7-1.1-1-2.1-1c-0.9,0-1.6,0.4-2.1,1.1S499.6,406.2,499.6,407.4z"/>
		<path class="st3" d="M509.9,403.2c0.1-0.4,0.4-0.7,0.8-1c0.9,0.3,1.5,1,1.7,2.1c0.7-1.4,1.7-2.1,3.2-2.1c0.3,0,0.7,0,1.1,0.1
			c0,0.7-0.1,1.2-0.4,1.7c-0.2,0-0.5,0-0.8,0c-1.3,0-2.3,0.7-2.9,2.2v8c-0.2,0-0.5,0.1-0.9,0.1c-0.3,0-0.6,0-0.9-0.1v-8.5
			C510.8,404.5,510.5,403.7,509.9,403.2z"/>
		<path class="st3" d="M526.9,408.8h-7.4c0.1,2.7,1.1,4.1,3.1,4.1c1.1,0,2.2-0.3,3.5-1c0.3,0.3,0.6,0.7,0.6,1.2
			c-1.3,0.9-2.8,1.3-4.4,1.3c-0.8,0-1.5-0.2-2.1-0.5c-0.6-0.3-1.1-0.7-1.4-1.3c-0.4-0.5-0.6-1.2-0.8-1.9c-0.2-0.7-0.3-1.6-0.3-2.5
			c0-0.9,0.1-1.7,0.3-2.5c0.2-0.7,0.5-1.4,0.9-1.9c0.4-0.5,0.9-1,1.5-1.3c0.6-0.3,1.2-0.5,2-0.5c0.7,0,1.4,0.1,2,0.4
			c0.6,0.3,1.1,0.6,1.5,1.1c0.4,0.5,0.7,1,0.9,1.6c0.2,0.6,0.3,1.3,0.3,2c0,0.3,0,0.6,0,0.8C526.9,408.3,526.9,408.5,526.9,408.8z
			 M519.5,407.4h5.7v-0.3c0-1.1-0.2-2-0.7-2.7c-0.5-0.7-1.1-1-2.1-1c-0.9,0-1.6,0.4-2.1,1.1S519.5,406.2,519.5,407.4z"/>
		<path class="st3" d="M532.4,404v10.1c-0.2,0-0.5,0.1-0.9,0.1s-0.6,0-0.9-0.1v-9.2c0-0.4-0.1-0.7-0.2-0.9c-0.1-0.2-0.4-0.2-0.8-0.2
			h-0.2c-0.1-0.2-0.1-0.4-0.1-0.6c0-0.3,0-0.5,0.1-0.7c0.3,0,0.5-0.1,0.7-0.1c0.2,0,0.3,0,0.5,0h0.2c0.5,0,0.9,0.2,1.2,0.5
			C532.3,403.1,532.4,403.5,532.4,404z M530.1,398.3c0.3-0.2,0.6-0.2,1.1-0.2c0.5,0,0.8,0.1,1,0.2c0.2,0.1,0.3,0.4,0.3,0.9
			s-0.1,0.8-0.3,0.9c-0.2,0.2-0.5,0.2-0.9,0.2c-0.4,0-0.7-0.1-0.9-0.2c-0.2-0.1-0.3-0.4-0.3-1C529.9,398.8,530,398.5,530.1,398.3z"
			/>
		<path class="st3" d="M543,406.5v-0.3c0-0.3,0-0.7-0.1-1c-0.1-0.3-0.2-0.6-0.4-0.9c-0.2-0.3-0.5-0.5-0.8-0.6
			c-0.3-0.2-0.7-0.2-1.1-0.2c-0.9,0-1.6,0.4-2.2,1.2c-0.5,0.8-0.8,2-0.8,3.5c0,1.5,0.3,2.7,0.8,3.4c0.5,0.8,1.2,1.1,2.1,1.1
			c0.9,0,2-0.4,3.2-1.3c0.4,0.3,0.7,0.6,0.8,1.1c-1.2,1.1-2.6,1.7-4.1,1.7c-0.8,0-1.4-0.2-2-0.5c-0.6-0.3-1.1-0.7-1.5-1.2
			c-0.4-0.5-0.7-1.1-0.9-1.8c-0.2-0.7-0.3-1.5-0.3-2.3c0-1.1,0.1-2.1,0.4-2.9c0.2-0.8,0.6-1.5,1-2c0.4-0.5,1-0.9,1.5-1.2
			s1.2-0.4,1.9-0.4c0.7,0,1.3,0.1,1.8,0.3c0.5,0.2,0.9,0.5,1.3,0.8c0.3,0.3,0.6,0.7,0.8,1.1c0.2,0.4,0.3,0.8,0.3,1.1
			c0,0.8-0.3,1.1-0.9,1.1C543.5,406.6,543.3,406.6,543,406.5z"/>
		<path class="st3" d="M556.7,405.9v5.9c0,0.9,0.1,1.6,0.3,2c-0.3,0.3-0.6,0.4-1.1,0.4c-0.6,0-0.9-0.4-0.9-1.2v-6.6
			c0-1-0.1-1.7-0.4-2.1c-0.3-0.4-0.7-0.6-1.3-0.6s-1.3,0.2-2,0.5c-0.7,0.3-1.3,0.8-1.7,1.3v8.5c-0.2,0-0.5,0.1-0.9,0.1
			c-0.3,0-0.6,0-0.9-0.1v-17.4l0.1-0.1h0.6c0.4,0,0.6,0.1,0.8,0.3c0.1,0.2,0.2,0.5,0.2,0.9v6.2c0.5-0.5,1.2-0.9,1.9-1.2
			c0.7-0.3,1.5-0.5,2.2-0.5c1.1,0,1.8,0.3,2.3,1C556.5,403.9,556.7,404.8,556.7,405.9z"/>
		<path class="st3" d="M463,441.1c0,0.6-0.1,1-0.2,1.2c-0.2,0.3-0.5,0.4-1,0.4h-7.6c-0.6-0.4-0.8-0.8-0.8-1.2c0-0.7,0.2-1.4,0.8-2.2
			c0.5-0.8,1.3-1.6,2.4-2.5l2.2-1.9c0.7-0.6,1.2-1.2,1.6-1.8c0.3-0.6,0.5-1.2,0.5-2c0-0.8-0.3-1.4-0.8-1.9c-0.5-0.5-1.1-0.8-1.9-0.8
			c-0.7,0-1.4,0.2-2,0.6s-1,1-1.4,1.7c-0.7-0.1-1.1-0.3-1.3-0.7c0.2-0.4,0.4-0.9,0.7-1.3c0.3-0.4,0.7-0.7,1.1-1
			c0.4-0.3,0.9-0.5,1.4-0.7c0.5-0.2,1.1-0.2,1.7-0.2s1.2,0.1,1.7,0.3c0.5,0.2,1,0.5,1.3,0.9c0.4,0.4,0.7,0.8,0.9,1.3
			c0.2,0.5,0.3,1.1,0.3,1.7s-0.1,1.1-0.2,1.6c-0.2,0.5-0.4,0.9-0.6,1.3c-0.3,0.4-0.6,0.8-1,1.1c-0.4,0.4-0.8,0.7-1.2,1.1l-1.9,1.6
			c-1.6,1.4-2.4,2.4-2.5,3.2c0.4,0,0.9-0.1,1.4-0.1c0.5,0,1,0,1.5,0H463z"/>
		<path class="st3" d="M467.6,441.6l-0.4-0.4c-0.2-0.2-0.4-0.5-0.5-0.9c-0.2-0.4-0.3-0.9-0.4-1.5c-0.1-0.6-0.2-1.2-0.3-1.9
			c-0.1-0.7-0.1-1.4-0.1-2.1c0-1.2,0.1-2.3,0.4-3.3c0.3-1,0.6-1.8,1.1-2.5c0.5-0.7,1.1-1.2,1.9-1.6c0.7-0.4,1.6-0.5,2.6-0.5
			c1.3,0,2.4,0.2,3.2,0.7c-0.1,0.6-0.3,1.1-0.7,1.3c-0.8-0.3-1.6-0.5-2.4-0.5c-0.7,0-1.3,0.1-1.8,0.4c-0.5,0.3-0.9,0.7-1.3,1.2
			c-0.3,0.5-0.6,1.1-0.8,1.8c-0.2,0.7-0.3,1.4-0.3,2.2c1.1-1.1,2.3-1.6,3.7-1.6c1.4,0,2.5,0.4,3.3,1.3c0.8,0.9,1.2,2.1,1.2,3.8
			c0,0.8-0.1,1.5-0.3,2.2c-0.2,0.7-0.6,1.2-1,1.7c-0.4,0.5-0.9,0.9-1.5,1.1c-0.6,0.3-1.3,0.4-2,0.4
			C469.6,443,468.5,442.6,467.6,441.6z M471.1,434c-0.6,0-1.1,0.2-1.7,0.5c-0.6,0.3-1.1,0.7-1.6,1.3v0.4c0,0.8,0.1,1.6,0.2,2.2
			c0.1,0.7,0.3,1.2,0.6,1.7c0.3,0.5,0.6,0.8,1,1.1c0.4,0.3,0.9,0.4,1.4,0.4c0.9,0,1.6-0.3,2.2-1c0.5-0.7,0.8-1.6,0.8-2.8
			C474,435.3,473,434,471.1,434z"/>
		<path class="st3" d="M478.9,442.7c-0.1-0.2-0.2-0.6-0.2-1.1c0-0.3,0-0.6,0.1-0.8c0.1-0.2,0.2-0.3,0.3-0.4c0.1-0.1,0.3-0.1,0.5-0.1
			c0.2,0,0.4,0,0.6,0c0.2,0,0.4,0,0.6,0c0.2,0,0.3,0.1,0.4,0.1c0.1,0.1,0.2,0.2,0.3,0.4s0.1,0.4,0.1,0.8c0,0.3,0,0.5-0.1,0.7
			c0,0.2-0.1,0.3-0.2,0.4c-0.1,0.1-0.3,0.1-0.4,0.2s-0.4,0-0.6,0C479.6,442.9,479.2,442.8,478.9,442.7z"/>
		<path class="st3" d="M493.4,427.3c0.1,0.3,0.1,0.5,0.1,0.7c0,0.6-0.3,0.9-0.8,0.9h-4.3c-0.3,0-0.6,0-0.8,0c-0.2,0-0.4,0-0.5,0v1.5
			l-0.2,2.8c0.8-0.4,1.7-0.7,2.6-0.7c1.4,0,2.5,0.4,3.4,1.3c0.9,0.9,1.3,2.1,1.3,3.8c0,0.8-0.1,1.6-0.4,2.2
			c-0.3,0.7-0.6,1.2-1.1,1.7c-0.5,0.5-1.1,0.8-1.7,1.1c-0.7,0.3-1.4,0.4-2.1,0.4c-1.6,0-2.9-0.5-4.2-1.4c0.1-0.5,0.3-0.9,0.8-1.2
			c0.6,0.4,1.2,0.7,1.7,0.9c0.6,0.2,1.1,0.3,1.6,0.3c1,0,1.8-0.3,2.5-1c0.7-0.7,1-1.7,1-2.9c0-0.7-0.1-1.2-0.3-1.7
			c-0.2-0.5-0.4-0.8-0.7-1.1c-0.3-0.3-0.7-0.5-1.1-0.6c-0.4-0.1-0.9-0.2-1.3-0.2c-1,0-2,0.4-2.9,1.2c-0.3,0-0.6-0.2-0.8-0.6l0.3-7.2
			l0.1-0.1H493.4z"/>
		<path class="st3" d="M503,427.1c0.7,0.8,1.1,2,1.1,3.8c0,1.6-0.3,2.8-1,3.6c-0.6,0.8-1.5,1.2-2.6,1.2c-1.1,0-2-0.4-2.6-1.2
			c-0.6-0.8-1-2-1-3.6c0-1.6,0.3-2.8,0.9-3.6c0.6-0.8,1.5-1.2,2.6-1.2C501.6,426.1,502.4,426.5,503,427.1z M500.5,427.4
			c-1.3,0-1.9,1.2-1.9,3.5c0,2.3,0.6,3.5,1.9,3.5c1.3,0,2-1.2,2-3.5C502.5,428.6,501.8,427.4,500.5,427.4z M500.6,442.7l9-16.3
			c0.2-0.1,0.5-0.1,0.9-0.1c0.2,0,0.3,0,0.5,0c0.2,0,0.3,0.1,0.4,0.1l-9,16.3c-0.1,0-0.2,0.1-0.4,0.1c-0.2,0-0.3,0-0.5,0
			s-0.3,0-0.5,0C500.9,442.8,500.7,442.8,500.6,442.7z M514,442.1c-0.6,0.6-1.4,1-2.4,1c-1.1,0-2-0.4-2.6-1.2c-0.6-0.8-1-2-1-3.6
			c0-1.6,0.3-2.8,0.9-3.6c0.6-0.8,1.5-1.2,2.7-1.2c1.1,0,2,0.4,2.7,1.2c0.6,0.8,0.9,2,0.9,3.6C515.1,440,514.8,441.3,514,442.1z
			 M511.5,434.8c-1.3,0-1.9,1.2-1.9,3.5c0,2.3,0.6,3.5,1.9,3.5c1.3,0,2-1.2,2-3.5C513.5,436,512.8,434.8,511.5,434.8z"/>
	</g>
</g>
<path class="st4" d="M155.5,199.1c-0.1-3.4-1.6-10.9-1.6-10.9l-0.4-3l0,0c0,0-1.5-17.9-1.9-25.5c-0.6-7.6-3.9-16.6-5.4-22.1
	c-1.5-5.5,3.1-17.6-1-32.5c-2.5-9.4,0-18.1-4.9-24.6c-5.5-7-11.5-6.4-13.9-6.6l0,0c-3-0.6-6.1-1-8.4-1.9c-4.8-2.2-7.9-4.3-10.9-5.8
	c-2.1-0.9-2.1-7-2.1-10.6c1.6-1,3-2.1,3.6-3.1c1-1.5,1.6-6,2.1-10.2c0.4,0.1,0.9,0,1.6-0.4c1.9-0.9,2.5-6.4,1.3-8.7
	c-0.1-0.1-0.1-0.4-0.4-0.6c0.4-5.5,1.3-14.6-1.5-18.8c-3.9-6-13-6.1-15.8-6.6c-3.9-0.4-11-0.1-13,4.3c-8.4,0.9-7.5,13.9-6.1,20.9
	c-0.1,0.1-0.1,0.1-0.1,0.6c-1.3,2.5-0.6,7.9,1.3,8.7c0.9,0.4,1.5,0.6,1.6,0.4c0.4,4,1.3,8.5,2.1,10.2c0.6,1,1.9,2.1,3.6,3.1
	c0.1,3.6-0.1,9.9-2.1,10.6c-3,1.3-6,3.4-11,5.8c-2.1,0.9-5.4,1.5-8.4,1.9c-2.5,0.1-8.5-0.4-13.9,6.6c-4.9,6.6-2.5,15.4-4.9,24.6
	c-4.5,14.9,0.1,27-1.3,32.5c-1.5,5.5-4.6,14.5-5.4,22.1c-0.6,7.6-1.9,25.5-1.9,25.5l0,0l-0.4,3c0,0-1.5,7.5-1.6,10.9
	c-0.1,2.1,0.1,5.8,1.6,8.7c2.5,5.4,8.1,9.1,8.1,9.1c0.6,0.9,4.9,1.3,2.5-1.6c-4.5-5.8-4.9-9.9-4.9-9.9s-0.6-4.6,0.9-4.6
	c1-0.1,2.1,2.4,2.5,3.6c0.9,2.1,1,5.8,2.5,4.9c0.6-0.1,0.4-1,0.1-2.4c0-0.6,0.1-1.9,0.1-2.5c-0.1-0.6-0.9-3.9-1.3-4.6
	c-0.1-1-1.5-4.6-1.9-5.8c-0.4-1-0.9-3-0.6-4.6c0.1-1.5,2.5-10.2,3.9-13c0.9-1.9,9.6-13.9,11-37.3c0.4-5.5,1.6-13.4,2.5-20.9
	c0.6,3.4,1.3,6.9,1.5,9.4c0.1,7.9,2.5,19,1.9,24.9c-1.5,13.4-4.9,13-4.9,35.1c0,14.5-0.6,41.8,7,74c1,4.6,0.1,11.3-0.6,16.1
	c-1,9.1,1.5,21.3,7,49c5.4,26.6-11,23.4-8.1,29.9c1.3,2.5,16.1,1.6,20.9,1.5c1.5-0.1,2.5-1.3,2.5-2.5c0.1-1.5-0.6-3-1.9-7
	c-1.5-4.6-0.9-11.6-0.9-11.6s3-43,3-49.1c0-7-0.6-11.5-1-14.3c-0.4-2.4-0.6-4.6,0-7c4.3-19.4,4.3-68.8,4.3-68.8h4.6
	c0,0,0.1,49.4,4.3,68.8c0.6,2.4,0.4,4.6,0,7c-0.6,2.8-1,7.5-1,14.3c0,6.1,3,49.1,3,49.1s0.6,7-0.9,11.6c-1.3,4-1.9,5.8-1.9,7
	c0.1,1.5,1.3,2.5,2.5,2.5c4.6,0.1,19.6,1,20.9-1.5c2.8-6.1-13.6-3.1-8.1-29.9c5.8-27.6,8.1-39.6,7-49c-0.6-4.9-1.5-11.3-0.6-16.1
	c7.5-32.1,7-59.4,7-74c0-22.1-3.4-21.6-4.9-35.1c-0.6-5.8,1.6-17,1.9-24.9c0.1-2.5,0.6-6,1.5-9.4c0.9,7.5,2.1,15.4,2.5,20.9
	c1.5,23.4,10.9,36,11.6,37.6c0.9,2.1,3.4,10.9,3.4,12.5c0.1,1.5-0.1,3.4-0.6,4.6c-0.1,1-1.6,4.6-1.9,5.8c-0.1,1-1,4-1.3,4.6
	c-0.1,0.6,0.1,1.9,0.1,2.5c-0.1,1.5-0.1,2.1,0.1,2.4c1.5,0.6,1.9-2.8,2.5-4.9c0.4-1.3,1.5-3.6,2.5-3.6c1.3,0.1,0.9,4.6,0.9,4.6
	s-0.6,3.9-4.9,9.9c-2.1,3,1.9,2.5,2.5,1.6c0,0,5.4-4,8.1-9.1C155,204.9,155.5,201.5,155.5,199.1z"/>
<circle class="st5" cx="94.9" cy="28.5" r="16.9"/>
<linearGradient id="SVGID_1_" gradientUnits="userSpaceOnUse" x1="94.7322" y1="436.8733" x2="94.7322" y2="410.1872" gradientTransform="matrix(1 0 0 -1 0 452)">
	<stop  offset="0" style="stop-color:#FF2832;stop-opacity:0.2"/>
	<stop  offset="1" style="stop-color:#FF2832"/>
</linearGradient>
<path class="st6" d="M107.6,28.5c0-1.2,0.9-2.5,0.6-3.6c-0.3-1.2-1.8-1.8-2.2-2.8c-0.6-1-0.4-2.5-1.3-3.4c-0.7-0.7-2.4-0.7-3.4-1.3
	s-1.6-1.9-2.8-2.2c-1-0.3-2.4,0.6-3.6,0.6c-1.2,0-2.5-0.9-3.6-0.6c-1.2,0.3-1.8,1.8-2.8,2.2c-1,0.6-2.5,0.4-3.4,1.3
	c-0.7,0.7-0.7,2.4-1.3,3.4c-0.6,1-1.9,1.6-2.2,2.8c-0.3,1,0.6,2.4,0.6,3.6c0,1.2-0.9,2.5-0.6,3.6c0.3,1.2,1.8,1.8,2.2,2.8
	c0.6,1,0.4,2.5,1.3,3.4c0.7,0.7,2.4,0.7,3.4,1.3s1.6,1.9,2.8,2.2c1,0.3,2.4-0.6,3.6-0.6c1.2,0,2.5,0.9,3.6,0.6
	c1.2-0.3,1.8-1.8,2.8-2.2c1-0.6,2.5-0.4,3.4-1.3c0.7-0.7,0.7-2.4,1.3-3.4s1.9-1.6,2.2-2.8C108.5,31,107.6,29.7,107.6,28.5z"/>
<circle class="st5" cx="94.9" cy="165.2" r="16.9"/>
<linearGradient id="SVGID_2_" gradientUnits="userSpaceOnUse" x1="94.8815" y1="273.5995" x2="94.8815" y2="300.0404" gradientTransform="matrix(1 0 0 -1 0 452)">
	<stop  offset="0" style="stop-color:#FF2832;stop-opacity:0.2"/>
	<stop  offset="1" style="stop-color:#FF2832"/>
</linearGradient>
<circle class="st7" cx="94.9" cy="165.2" r="13.3"/>
<path class="st8" d="M97.4,41.2c0,7.9-5.2,7.9-5.2,15.7c0,7.9,5.2,7.9,5.2,15.7c0,7.9-5.2,7.9-5.2,15.7c0,7.9,5.2,7.9,5.2,15.7
	c0,7.9-5.2,7.9-5.2,15.8c0,7.9,5.2,7.9,5.2,15.7c0,7.9-5.2,9.1-5.2,17"/>
<path class="st8" d="M92.3,41.2c0,7.9,5.2,7.9,5.2,15.7c0,7.9-5.2,7.9-5.2,15.7c0,7.9,5.2,7.9,5.2,15.7c0,7.9-5.2,7.9-5.2,15.7
	c0,7.9,5.2,7.9,5.2,15.8c0,7.9-5.2,7.9-5.2,15.7c0,7.9,5.2,9.1,5.2,17"/>
<path class="st4" d="M416.3,199.1c-0.1-3.4-1.6-10.9-1.6-10.9l-0.4-3l0,0c0,0-1.5-17.9-1.9-25.5c-0.6-7.6-3.9-16.6-5.4-22.1
	c-1.5-5.5,3.1-17.6-1-32.5c-2.5-9.4,0-18.1-4.9-24.6c-5.5-7-11.5-6.4-13.9-6.6l0,0c-3-0.6-6.1-1-8.4-1.9c-4.8-2.2-7.9-4.3-10.9-5.8
	c-2.1-0.9-2.1-7-2.1-10.6c1.6-1,3-2.1,3.6-3.1c1-1.5,1.6-6,2.1-10.2c0.4,0.1,0.9,0,1.6-0.4c1.9-0.9,2.5-6.4,1.3-8.7
	c-0.1-0.1-0.1-0.4-0.4-0.6c0.4-5.5,1.3-14.6-1.5-18.8c-3.9-6-13-6.1-15.8-6.6c-3.9-0.4-11-0.1-13,4.3c-8.4,0.9-7.5,13.9-6.1,20.9
	c-0.1,0.1-0.1,0.1-0.1,0.6c-1.3,2.5-0.6,7.9,1.3,8.7c0.9,0.4,1.5,0.6,1.6,0.4c0.4,4,1.3,8.5,2.1,10.2c0.6,1,1.9,2.1,3.6,3.1
	c0.1,3.6-0.1,9.9-2.1,10.6c-3,1.3-6,3.4-11,5.8c-2.1,0.9-5.4,1.5-8.4,1.9c-2.5,0.1-8.5-0.4-13.9,6.6c-4.9,6.6-2.5,15.4-4.9,24.6
	c-4.5,14.9,0.1,27-1.3,32.5c-1.5,5.5-4.6,14.5-5.4,22.1c-0.6,7.6-1.9,25.5-1.9,25.5l0,0l-0.4,3c0,0-1.5,7.5-1.6,10.9
	c-0.1,2.1,0.1,5.8,1.6,8.7c2.5,5.4,8.1,9.1,8.1,9.1c0.6,0.9,4.9,1.3,2.5-1.6c-4.5-5.8-4.9-9.9-4.9-9.9s-0.6-4.6,0.9-4.6
	c1-0.1,2.1,2.4,2.5,3.6c0.9,2.1,1,5.8,2.5,4.9c0.6-0.1,0.4-1,0.1-2.4c0-0.6,0.1-1.9,0.1-2.5c-0.1-0.6-0.9-3.9-1.3-4.6
	c-0.1-1-1.5-4.6-1.9-5.8c-0.4-1-0.9-3-0.6-4.6c0.1-1.5,2.5-10.2,3.9-13c0.9-1.9,9.6-13.9,11-37.3c0.4-5.5,1.6-13.4,2.5-20.9
	c0.6,3.4,1.3,6.9,1.5,9.4c0.1,7.9,2.5,19,1.9,24.9c-1.5,13.4-4.9,13-4.9,35.1c0,14.5-0.6,41.8,7,74c1,4.6,0.1,11.3-0.6,16.1
	c-1,9.1,1.5,21.3,7,49c5.4,26.6-11,23.4-8.1,29.9c1.3,2.5,16.1,1.6,20.9,1.5c1.5-0.1,2.5-1.3,2.5-2.5c0.1-1.5-0.6-3-1.9-7
	c-1.5-4.6-0.9-11.6-0.9-11.6s3-43,3-49.1c0-7-0.6-11.5-1-14.3c-0.4-2.4-0.6-4.6,0-7c4.3-19.4,4.3-68.8,4.3-68.8h4.6
	c0,0,0.1,49.4,4.3,68.8c0.6,2.4,0.4,4.6,0,7c-0.6,2.8-1,7.5-1,14.3c0,6.1,3,49.1,3,49.1s0.6,7-0.9,11.6c-1.3,4-1.9,5.8-1.9,7
	c0.1,1.5,1.3,2.5,2.5,2.5c4.6,0.1,19.6,1,20.9-1.5c2.8-6.1-13.6-3.1-8.1-29.9c5.8-27.6,8.1-39.6,7-49c-0.6-4.9-1.5-11.3-0.6-16.1
	c7.5-32.1,7-59.4,7-74c0-22.1-3.4-21.6-4.9-35.1c-0.6-5.8,1.6-17,1.9-24.9c0.1-2.5,0.6-6,1.5-9.4c0.9,7.5,2.1,15.4,2.5,20.9
	c1.5,23.4,10.9,36,11.6,37.6c0.9,2.1,3.4,10.9,3.4,12.5c0.1,1.5-0.1,3.4-0.6,4.6c-0.1,1-1.6,4.6-1.9,5.8c-0.1,1-1,4-1.3,4.6
	c-0.1,0.6,0.1,1.9,0.1,2.5c-0.1,1.5-0.1,2.1,0.1,2.4c1.5,0.6,1.9-2.8,2.5-4.9c0.4-1.3,1.5-3.6,2.5-3.6c1.3,0.1,0.9,4.6,0.9,4.6
	s-0.6,3.9-4.9,9.9c-2.1,3,1.9,2.5,2.5,1.6c0,0,5.4-4,8.1-9.1C415.9,204.9,416.3,201.5,416.3,199.1z"/>
<circle class="st9" cx="355.7" cy="28.5" r="16.9"/>
<linearGradient id="SVGID_3_" gradientUnits="userSpaceOnUse" x1="355.5792" y1="436.8733" x2="355.5792" y2="410.1872" gradientTransform="matrix(1 0 0 -1 0 452)">
	<stop  offset="0" style="stop-color:#FFC000;stop-opacity:0.3"/>
	<stop  offset="1" style="stop-color:#FFC000"/>
</linearGradient>
<path class="st10" d="M368.4,28.5c0-1.2,0.9-2.5,0.6-3.6c-0.3-1.2-1.8-1.8-2.2-2.8c-0.6-1-0.4-2.5-1.3-3.4c-0.7-0.7-2.4-0.7-3.4-1.3
	s-1.6-1.9-2.8-2.2c-1-0.3-2.4,0.6-3.6,0.6c-1.2,0-2.5-0.9-3.6-0.6c-1.2,0.3-1.8,1.8-2.8,2.2c-1,0.6-2.5,0.4-3.4,1.3
	c-0.7,0.7-0.7,2.4-1.3,3.4c-0.6,1-1.9,1.6-2.2,2.8c-0.3,1,0.6,2.4,0.6,3.6c0,1.2-0.9,2.5-0.6,3.6c0.3,1.2,1.8,1.8,2.2,2.8
	c0.6,1,0.4,2.5,1.3,3.4c0.7,0.7,2.4,0.7,3.4,1.3s1.6,1.9,2.8,2.2c1,0.3,2.4-0.6,3.6-0.6c1.2,0,2.5,0.9,3.6,0.6
	c1.2-0.3,1.8-1.8,2.8-2.2c1-0.6,2.5-0.4,3.4-1.3c0.7-0.7,0.7-2.4,1.3-3.4c0.6-1,1.9-1.6,2.2-2.8C369.3,31,368.4,29.7,368.4,28.5z"/>
<circle class="st9" cx="355.7" cy="165.2" r="16.9"/>
<linearGradient id="SVGID_4_" gradientUnits="userSpaceOnUse" x1="355.7285" y1="273.5995" x2="355.7285" y2="300.0404" gradientTransform="matrix(1 0 0 -1 0 452)">
	<stop  offset="0" style="stop-color:#FFC000;stop-opacity:0.3"/>
	<stop  offset="1" style="stop-color:#FFC000"/>
</linearGradient>
<circle class="st11" cx="355.7" cy="165.2" r="13.3"/>
<path class="st12" d="M358.3,41.2c0,7.9-5.2,7.9-5.2,15.7c0,7.9,5.2,7.9,5.2,15.7c0,7.9-5.2,7.9-5.2,15.7c0,7.9,5.2,7.9,5.2,15.7
	c0,7.9-5.2,7.9-5.2,15.8c0,7.9,5.2,7.9,5.2,15.7c0,7.9-5.2,9.1-5.2,17"/>
<path class="st12" d="M353.2,41.2c0,7.9,5.2,7.9,5.2,15.7c0,7.9-5.2,7.9-5.2,15.7c0,7.9,5.2,7.9,5.2,15.7c0,7.9-5.2,7.9-5.2,15.7
	c0,7.9,5.2,7.9,5.2,15.8c0,7.9-5.2,7.9-5.2,15.7c0,7.9,5.2,9.1,5.2,17"/>
<path class="st4" d="M513.5,149.8c-2.8-4.9-2.5-13.9-1.6-19.4l2.1-12.1c0,0,1.6,16.4,4.6,24.9c3.9,10.6,9.1,28.1,11.6,41.5
	c0.4,1.3,0.6,2.4,0.9,3.1c0.4,2.4-0.4,3.6-0.6,4.6c-0.1,1-1.6,4.6-1.9,5.8c-0.1,1-1,4-1,4.6c-0.1,0.6,0.1,1.9,0,2.5
	c0,1.5-0.4,2.1,0.1,2.4c1.5,0.9,1.9-2.8,2.8-5.1c0.4-1.3,1.5-3.6,2.5-3.6c1.3,0,0.6,4.9,0.6,4.9s0.6,2.5-3.6,8.5
	c-2.4,3,1.9,2.5,2.8,1.9c0,0,4.3-2.8,6.9-8.1c1.9-2.4,2.5-6,2.4-8.4c-0.1-3.4-1.6-10.9-1.6-10.9l-0.4-3l0.1,0.1
	c0,0-1.5-18.1-2.1-25.5c-0.6-7.6-4-17.9-5.5-23.4c-1.5-5.8-2.4-16.6-2.5-29.9c-0.4-13.6-1.6-24.3-4.3-27.5c-3-3.9-8.5-4.9-10.6-5.5
	c-1.6-0.4-3.6-0.9-5.5-1.3c0,0,0,0,0-0.1c2.5-6.4,2.5-13.6,0.1-20.2c-0.6-1.9-1.5-3.6-1.9-5.8c-0.6-3-0.4-6-0.6-9
	c-0.1-5.4-0.6-12.1-3.1-17c-2.1-3.9-5.1-7.9-9.9-8.4c-1-0.1-1.5,0.1-2.5-0.4s-3-2.4-6.1-3c-9.4-1.5-17.5,4-21.3,12.5
	c-3,6.1-3,13.1-3,20.2c0.1,3,0.1,5.8-1,8.4c-1.6,3.9-5.8,5.8-8.1,9.1c-1.9,2.5-2.5,6.1-2.5,9.4c-0.1,2.1,0,4.3,0.6,6.4
	c-1,0.6-2.4,1.3-3.1,1.9c-0.1,0.1-0.1,0.1-0.6,0.6c-0.1,0.1-0.1,0.1-0.4,0.4l-0.1,0.1c-0.1,0.1-0.1,0.1-0.1,0.4s-0.1,0.1-0.1,0.1
	c-0.1,0.1-0.1,0.4-0.4,0.6c-2.5,3.1-3.9,14.3-4,27.9c-0.1,13.4-0.9,24.3-2.4,29.9c-1.5,5.8-5.1,15.8-5.4,23.4c0,0.1,0,0.1,0,0.6v0.1
	c0,0.1,0,0.4,0,0.6v0.1c0,0.1,0,0.1,0,0.6v0.1c0,0.1,0,0.4,0,0.6v0.1c0,0.1,0,0.4,0,0.6v0.1c0,0.1,0,0.4,0,0.6c0,0.1,0,0.1,0,0.1
	c0,0.1,0,0.4,0,0.6c0,0.1,0,0.6,0,0.6v0.1c0,0.1,0,0.6,0,0.6c0,0.1,0,0.6,0,0.9c0,0.6,0,1-0.1,1.5v0.1c0,0.9-0.1,1.5-0.1,2.5
	c0,0.1,0,0.6,0,0.9c-0.4,7-1,13.6-1,13.6l-0.4,3c0,0-1.5,7.2-1.6,10.9c-0.1,2.1,0.4,5.8,1.9,8.7c2.8,5.4,6.9,7.9,6.9,7.9
	c0.6,0.6,4.9,1,2.8-1.9c-4.5-5.8-3.9-8.5-3.9-8.5s-0.6-4.6,0.6-4.9c1,0,2.4,2.4,2.8,3.6c0.9,2.4,1.3,5.8,2.8,5.1
	c0.6-0.1,0.1-1,0.1-2.4c-0.1-0.6,0.1-1.9,0-2.5c-0.1-0.6-0.9-3.9-1-4.6c-0.1-1-1.6-4.6-2.1-5.8c-0.4-1-0.6-3-0.6-4.6
	s2.8-10.6,3.1-12.4c0.4-1.6,11.3-27.3,11.5-37.9c0.1-5.4,2.4-13.4,2.5-21c1,5.4,2.1,11.3,3,13.9c1,3.6,1.5,12.1-1.5,18.4
	c-0.1,0.4-0.4,0.6-0.6,1c-0.9,1.5-1.6,3-2.5,4.6c-7.5,14.5-8.1,27-8.1,36c0,1.5,0.1,3,0.1,4.6c0-0.1,0-0.4,0-0.6
	c0.4,5.4,1.5,13,3.6,25.5c-0.1-0.9-0.1-1.3-0.1-1.3c1.6,10.2,4.3,23.4,7.5,42.1c0.9,4.6,1,9.6,0.6,14.5c-0.9,9,0.1,21.6,5.8,49.1
	c2.1,11.3,1.3,17.5-0.6,21.3c-2.5,5.4-6.9,6.1-5.4,9.9c2.1,2.5,13,1.6,17.5,1.5c1.3-0.1,2.4-0.1,3-1.9c0.6-1.3,0.6-2.1-1.6-7.5
	c-1.5-3.1-1.3-8.5-1.3-8.5s3.4-46.1,3.4-52.8c0-6.4-0.4-11-0.9-13.9c-0.6-3-0.6-5.8-0.1-8.5c0.6-4.3,1-10.2,1.5-16.6
	c0,0.1,0,0.4,0,0.6c2.5-33.1,3.1-54.8,3.1-54.8h3.9l0.1-0.1c0,0,1.3,50,4.3,70.9c0.4,2.8,0.4,5.8,0,8.5c-0.4,3-0.9,7.5-0.9,13.9
	c0,6.1,3,49.1,3,49.1s0.4,4.9-0.1,9.4c-0.1,0.1-0.1,0.6-0.1,0.9c0,0,0.1-0.6,0.1-1.3c-0.1,0.9-0.1,1.6-0.6,2.5c-1.3,4-1.9,5.8-1.9,7
	c0.1,1.5,1.3,2.5,2.5,2.5c4.6,0.1,16.6,1.3,17.9-1.5c3-6.1-12.8-4.3-6.1-31.3c6.6-27.3,7.5-40.3,6.1-49.1c-0.6-4.9-0.6-9.9,0.1-14.5
	c6-39.4,12.1-56.9,12.1-71.5C523.1,168.5,513.5,149.8,513.5,149.8z"/>
<circle class="st13" cx="486.1" cy="29.2" r="16.9"/>
<linearGradient id="SVGID_5_" gradientUnits="userSpaceOnUse" x1="485.9109" y1="436.127" x2="485.9109" y2="409.4409" gradientTransform="matrix(1 0 0 -1 0 452)">
	<stop  offset="0" style="stop-color:#009632;stop-opacity:0.2"/>
	<stop  offset="1" style="stop-color:#009632"/>
</linearGradient>
<path class="st14" d="M498.7,29.2c0-1.2,0.9-2.5,0.6-3.6c-0.3-1.2-1.8-1.8-2.2-2.8c-0.6-1-0.4-2.5-1.3-3.4c-0.7-0.7-2.4-0.7-3.4-1.3
	c-1-0.6-1.6-1.9-2.8-2.2c-1-0.3-2.4,0.6-3.6,0.6s-2.5-0.9-3.6-0.6c-1.2,0.3-1.8,1.8-2.8,2.2c-1,0.6-2.5,0.4-3.4,1.3
	c-0.7,0.7-0.7,2.4-1.3,3.4c-0.6,1-1.9,1.6-2.2,2.8c-0.3,1,0.6,2.4,0.6,3.6c0,1.2-0.9,2.5-0.6,3.6c0.3,1.2,1.8,1.8,2.2,2.8
	c0.6,1,0.4,2.5,1.3,3.4c0.7,0.7,2.4,0.7,3.4,1.3c1,0.6,1.6,1.9,2.8,2.2c1,0.3,2.4-0.6,3.6-0.6s2.5,0.9,3.6,0.6
	c1.2-0.3,1.8-1.8,2.8-2.2c1-0.6,2.5-0.4,3.4-1.3c0.7-0.7,0.7-2.4,1.3-3.4c0.6-1,1.9-1.6,2.2-2.8C499.6,31.7,498.7,30.4,498.7,29.2z"
	/>
<circle class="st13" cx="486.1" cy="165.9" r="16.9"/>
<linearGradient id="SVGID_6_" gradientUnits="userSpaceOnUse" x1="486.0601" y1="272.8533" x2="486.0601" y2="299.2942" gradientTransform="matrix(1 0 0 -1 0 452)">
	<stop  offset="0" style="stop-color:#009632;stop-opacity:0.2"/>
	<stop  offset="1" style="stop-color:#009632"/>
</linearGradient>
<circle class="st15" cx="486.1" cy="165.9" r="13.3"/>
<path class="st16" d="M488.7,41.9c0,7.9-5.2,7.9-5.2,15.7c0,7.9,5.2,7.9,5.2,15.7c0,7.9-5.2,7.9-5.2,15.7c0,7.9,5.2,7.9,5.2,15.7
	c0,7.9-5.2,7.9-5.2,15.8c0,7.9,5.2,7.9,5.2,15.7c0,7.9-5.2,9.1-5.2,17"/>
<path class="st16" d="M483.5,41.9c0,7.9,5.2,7.9,5.2,15.7c0,7.9-5.2,7.9-5.2,15.7c0,7.9,5.2,7.9,5.2,15.7c0,7.9-5.2,7.9-5.2,15.7
	c0,7.9,5.2,7.9,5.2,15.8c0,7.9-5.2,7.9-5.2,15.7c0,7.9,5.2,9.1,5.2,17"/>
<path class="st4" d="M252.9,149.8c-2.8-4.9-2.5-13.9-1.6-19.4l2.1-12.1c0,0,1.6,16.4,4.6,24.9c3.9,10.6,9.1,28.1,11.6,41.5
	c0.4,1.3,0.6,2.4,0.9,3.1c0.4,2.4-0.4,3.6-0.6,4.6c-0.1,1-1.6,4.6-1.9,5.8c-0.1,1-1,4-1,4.6c-0.1,0.6,0.1,1.9,0,2.5
	c0,1.5-0.4,2.1,0.1,2.4c1.5,0.9,1.9-2.8,2.8-5.1c0.4-1.3,1.5-3.6,2.5-3.6c1.3,0,0.6,4.9,0.6,4.9s0.6,2.5-3.6,8.5
	c-2.4,3,1.9,2.5,2.8,1.9c0,0,4.3-2.8,6.9-8.1c1.9-2.4,2.5-6,2.4-8.4c-0.1-3.4-1.6-10.9-1.6-10.9l-0.4-3l0.1,0.1
	c0,0-1.5-18.1-2.1-25.5c-0.6-7.6-4-17.9-5.5-23.4c-1.5-5.8-2.4-16.6-2.5-29.9c-0.4-13.6-1.6-24.3-4.3-27.5c-3-3.9-8.5-4.9-10.6-5.5
	c-1.6-0.4-3.6-0.9-5.5-1.3c0,0,0,0,0-0.1c2.5-6.4,2.5-13.6,0.1-20.2c-0.6-1.9-1.5-3.6-1.9-5.8c-0.6-3-0.4-6-0.6-9
	c-0.1-5.4-0.6-12.1-3.1-17c-2.1-3.9-5.1-7.9-9.9-8.4c-1-0.1-1.5,0.1-2.5-0.4c-1-0.6-3-2.4-6.1-3c-9.4-1.5-17.5,4-21.3,12.5
	c-3,6.1-3,13.1-3,20.2c0.1,3,0.1,5.8-1,8.4c-1.6,3.9-5.8,5.8-8.1,9.1c-1.9,2.5-2.5,6.1-2.5,9.4c-0.1,2.1,0,4.3,0.6,6.4
	c-1,0.6-2.4,1.3-3.1,1.9c-0.1,0.1-0.1,0.1-0.6,0.6c-0.1,0.1-0.1,0.1-0.4,0.4l-0.1,0.1c-0.6,0.1-0.6,0.1-0.6,0.4s-0.1,0.1-0.1,0.1
	c-0.1,0.1-0.1,0.4-0.4,0.6c-2.5,3.1-3.9,14.3-4,27.9c-0.1,13.4-0.9,24.3-2.4,29.9c-1.5,5.8-5.1,15.8-5.4,23.4c0,0.1,0,0.1,0,0.6v0.1
	c0,0.1,0,0.4,0,0.6v0.1c0,0.1,0,0.1,0,0.6v0.1c0,0.1,0,0.4,0,0.6v0.1c0,0.1,0,0.4,0,0.6v0.1c0,0.1,0,0.4,0,0.6c0,0.1,0,0.1,0,0.1
	c0,0.1,0,0.4,0,0.6c0,0.1,0,0.6,0,0.6v0.1c0,0.1,0,0.6,0,0.6c0,0.1,0,0.6,0,0.9c0,0.6,0,1-0.1,1.5v0.1c0,0.9-0.1,1.5-0.1,2.5
	c0,0.1,0,0.6,0,0.9c-0.4,7-1,13.6-1,13.6l-0.4,3c0,0-1.5,7.2-1.6,10.9c-0.1,2.1,0.4,5.8,1.9,8.7c2.8,5.4,6.9,7.9,6.9,7.9
	c0.6,0.6,4.9,1,2.8-1.9c-4.5-5.8-3.9-8.5-3.9-8.5s-0.6-4.6,0.6-4.9c1,0,2.4,2.4,2.8,3.6c0.9,2.4,1.3,5.8,2.8,5.1
	c0.6-0.1,0.1-1,0.1-2.4c-0.1-0.6,0.1-1.9,0-2.5c-0.1-0.6-0.9-3.9-1-4.6c-0.1-1-1.6-4.6-2.1-5.8c-0.4-1-0.6-3-0.6-4.6
	s2.8-10.6,3.1-12.4c0.4-1.6,11.3-27.3,11.5-37.9c0.1-5.4,2.4-13.4,2.5-21c1,5.4,2.1,11.3,3,13.9c1,3.6,1.5,12.1-1.5,18.4
	c-0.1,0.4-0.4,0.6-0.6,1c-0.9,1.5-1.6,3-2.5,4.6c-7.5,14.5-8.1,27-8.1,36c0,1.5,0.1,3,0.1,4.6c0-0.1,0-0.4,0-0.6
	c0.4,5.4,1.5,13,3.6,25.5c-0.1-0.9-0.1-1.3-0.1-1.3c1.6,10.2,4.3,23.4,7.5,42.1c0.9,4.6,1,9.6,0.6,14.5c-0.9,9,0.1,21.6,5.8,49.1
	c2.1,11.3,1.3,17.5-0.6,21.3c-2.5,5.4-6.9,6.1-5.4,9.9c2.1,2.5,13,1.6,17.5,1.5c1.3-0.1,2.4-0.1,3-1.9c0.6-1.3,0.6-2.1-1.6-7.5
	c-1.5-3.1-1.3-8.5-1.3-8.5s3.4-46.1,3.4-52.8c0-6.4-0.4-11-0.9-13.9c-0.6-3-0.6-5.8-0.1-8.5c0.6-4.3,1-10.2,1.5-16.6
	c0,0.1,0,0.4,0,0.6c2.5-33.1,3.1-54.8,3.1-54.8h3.9l0.1-0.1c0,0,1.3,50,4.3,70.9c0.4,2.8,0.4,5.8,0,8.5c-0.4,3-0.9,7.5-0.9,13.9
	c0,6.1,3,49.1,3,49.1s0.4,4.9-0.1,9.4c-0.1,0.1-0.1,0.6-0.1,0.9c0,0,0.1-0.6,0.1-1.3c-0.1,0.9-0.1,1.6-0.6,2.5c-1.3,4-1.9,5.8-1.9,7
	c0.1,1.5,1.3,2.5,2.5,2.5c4.6,0.1,16.6,1.3,17.9-1.5c3-6.1-12.8-4.3-6.1-31.3c6.6-27.3,7.5-40.3,6.1-49.1c-0.6-4.9-0.6-9.9,0.1-14.5
	c6-39.4,12.1-56.9,12.1-71.5C262.5,168.5,252.9,149.8,252.9,149.8z"/>
<circle class="st9" cx="225.2" cy="29.2" r="16.9"/>
<linearGradient id="SVGID_7_" gradientUnits="userSpaceOnUse" x1="225.0639" y1="436.127" x2="225.0639" y2="409.4409" gradientTransform="matrix(1 0 0 -1 0 452)">
	<stop  offset="0" style="stop-color:#FFC000;stop-opacity:0.3"/>
	<stop  offset="1" style="stop-color:#FFC000"/>
</linearGradient>
<path class="st17" d="M237.9,29.2c0-1.2,0.9-2.5,0.6-3.6c-0.3-1.2-1.8-1.8-2.2-2.8c-0.6-1-0.4-2.5-1.3-3.4c-0.7-0.7-2.4-0.7-3.4-1.3
	s-1.6-1.9-2.8-2.2c-1-0.3-2.4,0.6-3.6,0.6c-1.2,0-2.5-0.9-3.6-0.6c-1.2,0.3-1.8,1.8-2.8,2.2c-1,0.6-2.5,0.4-3.4,1.3
	c-0.7,0.7-0.7,2.4-1.3,3.4c-0.6,1-1.9,1.6-2.2,2.8c-0.3,1,0.6,2.4,0.6,3.6c0,1.2-0.9,2.5-0.6,3.6c0.3,1.2,1.8,1.8,2.2,2.8
	c0.6,1,0.4,2.5,1.3,3.4c0.7,0.7,2.4,0.7,3.4,1.3s1.6,1.9,2.8,2.2c1,0.3,2.4-0.6,3.6-0.6s2.5,0.9,3.6,0.6c1.2-0.3,1.8-1.8,2.8-2.2
	c1-0.6,2.5-0.4,3.4-1.3c0.7-0.7,0.7-2.4,1.3-3.4c0.6-1,1.9-1.6,2.2-2.8C238.8,31.7,237.9,30.4,237.9,29.2z"/>
<circle class="st9" cx="225.2" cy="165.9" r="16.9"/>
<linearGradient id="SVGID_8_" gradientUnits="userSpaceOnUse" x1="225.2132" y1="272.8533" x2="225.2132" y2="299.2942" gradientTransform="matrix(1 0 0 -1 0 452)">
	<stop  offset="0" style="stop-color:#FFC000;stop-opacity:0.3"/>
	<stop  offset="1" style="stop-color:#FFC000"/>
</linearGradient>
<circle class="st18" cx="225.2" cy="165.9" r="13.3"/>
<path class="st12" d="M227.8,41.9c0,7.9-5.2,7.9-5.2,15.7c0,7.9,5.2,7.9,5.2,15.7c0,7.9-5.2,7.9-5.2,15.7c0,7.9,5.2,7.9,5.2,15.7
	c0,7.9-5.2,7.9-5.2,15.8c0,7.9,5.2,7.9,5.2,15.7c0,7.9-5.2,9.1-5.2,17"/>
<path class="st12" d="M222.7,41.9c0,7.9,5.2,7.9,5.2,15.7c0,7.9-5.2,7.9-5.2,15.7c0,7.9,5.2,7.9,5.2,15.7c0,7.9-5.2,7.9-5.2,15.7
	c0,7.9,5.2,7.9,5.2,15.8c0,7.9-5.2,7.9-5.2,15.7c0,7.9,5.2,9.1,5.2,17"/>
</svg>
