<?xml version="1.0" encoding="utf-8"?>
<!-- Generator: Adobe Illustrator 22.0.0, SVG Export Plug-In . SVG Version: 6.00 Build 0)  -->
<svg version="1.1" id="Layer_1" xmlns="http://www.w3.org/2000/svg" xmlns:xlink="http://www.w3.org/1999/xlink" x="0px" y="0px"
	 viewBox="0 0 360 300" style="enable-background:new 0 0 360 300;" xml:space="preserve">
<style type="text/css">
	.st0{fill:#EFEBEA;}
	.st1{fill:none;stroke:#FF3333;stroke-width:1.5;stroke-miterlimit:10;}
	.st2{opacity:0.15;fill:#FB3942;enable-background:new    ;}
	.st3{fill:url(#SVGID_1_);}
	.st4{fill:url(#SVGID_2_);}
</style>
<path class="st0" d="M227.1,250.3c-8.2-3.7-9-27.5-8.7-41.9c6.9-4.2,11.7-8.8,14.3-12.8c4-6.2,7-23.7,8.7-39.5
	c1.5,0.2,3.5,0,6.5-1.5c7.3-3.7,9.8-25,4.8-34.5c-0.5-0.8-1-1.7-1.5-2.2c2.8-21.5,5.3-57.2-5.3-73.2c-15.7-24-50.5-25-62.4-26
	c-15.7-1.4-43.7-1.2-50.7,16.5c-33,3.2-28.8,54.7-24.3,82.5c-0.5,0.5-0.8,1.2-1.3,2c-5,9.7-2.6,30.8,4.8,34.5
	c3.3,1.7,5.7,1.8,7.2,1.5c1.5,16,4.5,33.5,8.7,39.6c2.6,4,7.3,8.7,14,12.7c0.5,14.3-0.3,38.3-8.5,42.2c-8.3,3.7-17.2,9.2-29.2,15.2
	c1.3,0.9,2.5,1.8,3.8,2.7c22,9.6,46.4,14.9,72,14.9c25.7,0,50.2-5.4,72.4-15.1c1.2-0.8,2.4-1.6,3.5-2.4
	C244.1,259.5,235.2,254,227.1,250.3z"/>
<path class="st1" d="M183.2,147.3c0,9.7-6.3,9.7-6.3,19.1c0,9.7,6.3,9.7,6.3,19.1c0,9.7-6.3,9.7-6.3,19.1c0,9.7,6.3,9.7,6.3,19.1
	c0,9.7-6.3,9.7-6.3,19.3c0,9.7,6.3,9.7,6.3,19.1c0,9.7-6.3,11.1-6.3,20.8"/>
<path class="st1" d="M176.8,147.3c0,9.7,6.3,9.7,6.3,19.1c0,9.7-6.3,9.7-6.3,19.1c0,9.7,6.3,9.7,6.3,19.1c0,9.7-6.3,9.7-6.3,19.1
	c0,9.7,6.3,9.7,6.3,19.3c0,9.7-6.3,9.7-6.3,19.1c0,9.7,6.3,11.1,6.3,20.8"/>
<circle class="st2" cx="180" cy="102.3" r="64.4"/>
<g>
	
		<linearGradient id="SVGID_1_" gradientUnits="userSpaceOnUse" x1="-914.0096" y1="-691.0223" x2="-914.0096" y2="-589.7883" gradientTransform="matrix(-1 0 0 1 -760.7377 742.6825)">
		<stop  offset="0" style="stop-color:#FF2832;stop-opacity:0.2"/>
		<stop  offset="1" style="stop-color:#FF2832"/>
	</linearGradient>
	<path class="st3" d="M178.3,152.9c-2.3,0-4.6-1.3-7-1.7c-2.3-0.3-5,0.3-7.2-0.3c-2.3-0.7-4.2-2.6-6.2-3.7c-2.2-1-4.8-1-6.9-2.3
		c-2-1.3-3.2-3.7-5-5.3c-1.8-1.5-4.3-2.3-6-4.2c-1.5-1.8-2-4.5-3.3-6.5s-3.5-3.5-4.5-5.7s-0.7-4.8-1.3-7.2c-0.7-2.3-2.3-4.3-2.6-6.6
		c-0.3-2.3,0.7-4.8,0.7-7.2c0-2.3-1-4.8-0.7-7.2c0.3-2.3,2-4.5,2.6-6.6c0.7-2.3,0.3-5,1.3-7.2s3.2-3.7,4.5-5.7s1.7-4.6,3.3-6.5
		c1.5-1.8,4.2-2.6,6-4.2c1.8-1.5,3-4,5-5.3s4.6-1.3,6.9-2.3c2.2-1,4-3,6.2-3.7c2.3-0.7,4.8,0,7.2-0.3c2.3-0.3,4.6-1.7,7-1.7"/>
</g>
<g>
	
		<linearGradient id="SVGID_2_" gradientUnits="userSpaceOnUse" x1="-967.4658" y1="-690.9825" x2="-967.4658" y2="-589.7485" gradientTransform="matrix(-1 0 0 1 -760.7377 742.6825)">
		<stop  offset="0" style="stop-color:#FF2832;stop-opacity:0.2"/>
		<stop  offset="1" style="stop-color:#FF2832"/>
	</linearGradient>
	<path class="st4" d="M181.7,51.7c2.3,0,4.6,1.3,7,1.7c2.3,0.3,5-0.3,7.2,0.3c2.3,0.7,4.2,2.6,6.2,3.7c2.2,1,4.8,1,6.9,2.3
		c2,1.3,3.2,3.7,5,5.3c1.8,1.5,4.3,2.3,6,4.2c1.5,1.8,2,4.5,3.3,6.5s3.5,3.5,4.5,5.7s0.7,4.8,1.3,7.2c0.7,2.3,2.3,4.3,2.6,6.6
		c0.3,2.3-0.7,4.8-0.7,7.2c0,2.3,1,4.8,0.7,7.2c-0.3,2.3-2,4.5-2.6,6.6c-0.7,2.3-0.3,5-1.3,7.2s-3.2,3.7-4.5,5.7s-1.7,4.6-3.3,6.5
		c-1.5,1.8-4.2,2.6-6,4.2s-3,4-5,5.3s-4.6,1.3-6.9,2.3c-2.2,1-4,3-6.2,3.7c-2.3,0.7-4.8,0-7.2,0.3c-2.3,0.3-4.6,1.7-7,1.7"/>
</g>
</svg>
