<?xml version="1.0" encoding="utf-8"?>
<!-- Generator: Adobe Illustrator 22.0.0, SVG Export Plug-In . SVG Version: 6.00 Build 0)  -->
<svg version="1.1" id="Layer_1" xmlns="http://www.w3.org/2000/svg" xmlns:xlink="http://www.w3.org/1999/xlink" x="0px" y="0px"
	 viewBox="0 0 500 800" style="enable-background:new 0 0 500 800;" xml:space="preserve">
<style type="text/css">
	.st0{fill:#009632;}
	.st1{fill:#969696;}
	.st2{fill:#E5E1E0;}
	.st3{fill:none;stroke:#009632;stroke-width:1.8727;stroke-linecap:round;stroke-miterlimit:10;}
	.st4{opacity:0.1;fill:#009632;enable-background:new    ;}
</style>
<path class="st0" d="M252.9,798H2v-23.5c0,0,60.1,0,65,0c12.3,0,17.6,4.8,24.1,4.8s86.5,1,93.4,1c7.5,0,17.6-5.9,26.7-5.9
	c9.6,0,41.7,0,41.7,0V798z"/>
<path class="st1" d="M469.5,318.3c-1.2-4.8-3.5-6.4-6.3-6.4h-38V175c0.6-1.1,0.6-2.4,1.1-3.5c0.6-5.8-4.1-11.1-9.9-11.7l-16.4-1.7
	l4.7-52.6c0.6-4.7-3.5-9.3-8.2-9.9v-3c0.6-6.5-4.1-12.3-10.6-12.9L370.1,254c6.5,0.6,12.3-4.1,12.9-10.6v-3c4.7,0.6,9.3-3.5,9.9-8.2
	l4.7-52.6l9.9,1.1v131h-33.3c-2.9,0-5.1,1.7-6.3,6.5l-180-0.1V330h172.4v454h-50.7c-8.5,0-16,6.9-16,16H500c0-8.5-6.9-16-16-16
	h-73.7V330.2H500l0,0v-11.8L469.5,318.3z"/>
<path class="st2" d="M155.4,47.5c2.7,0,4.8,2.2,6.4,2.2c2.7,0,5.9-2.2,8.1,2.2c0.6,1,4.8,2.2,6.9,4.3c5.3,5.3,4.8,12.3-0.6,19.2
	c-3.2,4.3-3.2,8.5-2.2,13.4c1,5.9,3.2,12.3-1.6,18.2c-0.6,1,0,3.2,0,4.3c1,2.7,2.2,4.8,3.2,6.9c3.7,6.4,3.7,6.4-2.2,11.8
	c-1,1-2.2,3.2-2.7,4.8c0,5.3-1.6,9.6-4.8,13.4c-0.6,1-0.6,2.7-1,3.7c-0.6,6.4-3.7,8.5-10.1,6.9c-3.2-1-5.9-2.2-9.1-3.2
	c-4.8,6.4-9.1,13.4-6.4,21.9c0.6,1,1,2.7,1.6,3.7c15.4,20.9,24.5,31.6,34.2,55.1c3.7,9.1,3.2,20.9,3.2,24.5c0,5.3-1,11.2-1,16.6
	c-1,10.7-2.2,21.3-2.7,32c-0.6,11.2,0,21.9,0,33.1c0,11.8-0.6,36.3-1,47.6c-0.6,16,0,58.2-5.9,88.1c-3.2,17.1-8.1,34.2-11.8,51.3
	c-1,5.3-3.2,10.7-5.3,16c-2.2,6.9-3.7,13.9-5.9,20.9c-3.2,9.6-5.9,19.2-10.1,28.3c-5.3,10.7-8.1,21.3-6.4,33.1
	c2.2,16-1,31.6-2.7,47.6c-1.6,14.4-2.7,28.8-3.2,43.3c-0.6,11.8,5.3,21.3,11.8,31c2.2,2.7,6.4,4.3,9.6,5.3
	c10.7,4.8,21.3,9.1,32.6,13.4c3.7,1.6,7.5,1.6,11.2,2.7c1.6,0.6,4.3,1,4.8,2.7c0.6,1,0,3.7-1,5.3c-2.2,3.7-5.3,5.3-10.1,5.3
	c-30.4-0.6-60.4-0.6-90.8-1c-5.9,0-10.1-5.9-8.5-12.8c1-5.3,3.2-10.7,4.8-16.6c4.8-12.8,2.7-26.2,0.6-39
	c-3.7-21.9-8.5-43.3-11.8-65.2c-1.6-12.8,1.6-26.2,4.8-38.5c3.7-15,7.5-30.4,11.8-45.4c2.7-10.7-0.6-20.9-1-31
	c-1-13.9-2.7-28.3-3.2-42.2c-0.6-12.8-0.6-25.7-1-38.5c0-2.2-1-4.3-2.7-5.9c-13-16.3-18.9-43-9.3-63.9c9.1-20.9,12.8-43.3,12.8-53.5
	c0.6-28.3-16-48.6-18.2-68.9c-1.6-13.4-1.6-28.3-1.6-39c0-16.6,4.3-31.6,16.6-43.8c2.2-2.2,3.7-4.8,5.9-6.9
	c7.5-7.5,8.1-17.1,7.5-26.2c0-3.2-3.2-3.2-4.8-6.4c-1-1.6-2.7-5.9-2.7-8.1c0-8.1-2.7-15-6.4-21.9c-1.6-2.7-2.2-5.9-2.2-9.1
	c0-5.3-0.6-10.7,0-15.4c0.6-3.7,0.6-7.5,2.2-10.1c10.1-21.9,26.2-29.9,48.6-27.8c3.7,0.6,8.1,2.2,11.8,2.2
	C149.5,48,150.5,47.5,155.4,47.5z"/>
<path class="st2" d="M310.8,319c10.1,0.6,27.2,0.4,27.8-1.7c1-2.7-6.9-4.3-13.4-5.9c-6.4-2.2-11.2-5.3-21.3-7.5
	c-10.1-2.2-25.1-0.6-27.2-1c-61.4-11.2-99.3-13.4-105.8-18.2c-5.3-11.8-12.8-43.8-26.7-68.4c-15.4-27.8-28.3-39-40.1-35.8
	c-2.7,0.6-11.2,3.7-11.8,18.7c-0.6,15,16,52.9,26.2,70.5s22.9,40.6,29.4,45.4c6.4,4.3,57.7,5.3,120.2,3.7h42.7"/>
<circle class="st0" cx="119.5" cy="107.9" r="10.1"/>
<circle class="st0" cx="119.5" cy="107.9" r="10.1"/>
<circle class="st0" cx="102.9" cy="205.1" r="10.1"/>
<circle class="st0" cx="111" cy="403.7" r="10.1"/>
<circle class="st0" cx="111" cy="578.5" r="10.1"/>
<circle class="st0" cx="111" cy="762.7" r="10.1"/>
<circle class="st0" cx="157" cy="300.7" r="10.1"/>
<line class="st3" x1="119.5" y1="107.9" x2="102.9" y2="205.1"/>
<line class="st3" x1="278.7" y1="310.3" x2="157" y2="301.2"/>
<line class="st3" x1="102.9" y1="205.1" x2="157" y2="301.2"/>
<line class="st3" x1="102.9" y1="205.1" x2="111" y2="403.7"/>
<line class="st3" x1="111" y1="403.7" x2="111" y2="578.5"/>
<line class="st3" x1="111" y1="762.7" x2="111" y2="578.5"/>
<g>
	<circle class="st4" cx="111" cy="403.7" r="107.9"/>
	<ellipse class="st4" cx="110.9" cy="403.8" rx="35.8" ry="35.8"/>
</g>
<ellipse class="st4" cx="110.9" cy="762.8" rx="35.8" ry="35.8"/>
<g>
	<circle class="st4" cx="119.5" cy="107.9" r="107.9"/>
	<ellipse class="st4" cx="119.4" cy="107.9" rx="35.8" ry="35.8"/>
</g>
<path class="st4" d="M218.8,762.7c0-59.6-48.3-107.9-107.9-107.9S3,703.1,3,762.7c0,13.1,2.3,25.7,6.6,37.3h202.5
	C216.5,788.4,218.8,775.8,218.8,762.7z"/>
</svg>
