<?xml version="1.0" encoding="utf-8"?>
<!-- Generator: Adobe Illustrator 22.0.0, SVG Export Plug-In . SVG Version: 6.00 Build 0)  -->
<svg version="1.1" id="Layer_1" xmlns="http://www.w3.org/2000/svg" xmlns:xlink="http://www.w3.org/1999/xlink" x="0px" y="0px"
	 viewBox="0 0 350.5 265" style="enable-background:new 0 0 350.5 265;" xml:space="preserve">
<style type="text/css">
	.st0{fill:#EFEBEA;}
	.st1{opacity:0.1;fill:#FFC000;}
	.st2{fill:url(#SVGID_1_);}
	.st3{fill:url(#SVGID_2_);}
	.st4{fill:none;stroke:#FFC000;stroke-width:0.7365;stroke-miterlimit:10;}
	.st5{opacity:5.000000e-02;fill:#FFC000;}
	.st6{fill:url(#SVGID_3_);}
	.st7{opacity:0.1;fill:#009632;}
	.st8{fill:url(#SVGID_4_);}
	.st9{fill:none;stroke:url(#SVGID_5_);stroke-width:0.7365;stroke-miterlimit:10;}
	.st10{fill:none;stroke:url(#SVGID_6_);stroke-width:0.7365;stroke-miterlimit:10;}
	.st11{opacity:5.000000e-02;fill:#009632;}
	.st12{fill:url(#SVGID_7_);}
	.st13{fill:url(#SVGID_8_);}
	.st14{fill:none;stroke:#009632;stroke-width:0.7365;stroke-miterlimit:10;}
	.st15{fill:url(#SVGID_9_);}
	.st16{fill:url(#SVGID_10_);}
</style>
<path class="st0" d="M84.4,158.1c-0.1-2.3-1.1-7.3-1.1-7.3l-0.3-2l0,0c0,0-1-12-1.3-17.1c-0.4-5.1-2.6-11.1-3.6-14.8
	c-1-3.7,2.1-11.8-0.7-21.8c-1.7-6.3,0-12.1-3.3-16.5c-3.7-4.7-7.7-4.3-9.3-4.4l0,0c-2-0.4-4.1-0.7-5.6-1.3C56,71.4,53.9,70,51.9,69
	c-1.4-0.6-1.4-4.7-1.4-7.1c1.1-0.7,2-1.4,2.4-2.1c0.7-1,1.1-4,1.4-6.8c0.3,0.1,0.6,0,1.1-0.3c1.3-0.6,1.7-4.3,0.9-5.8
	c-0.1-0.1-0.1-0.3-0.3-0.4c0.3-3.7,0.9-9.8-1-12.6c-2.6-4-8.7-4.1-10.6-4.4c-2.6-0.3-7.4-0.1-8.7,2.9c-5.6,0.6-5,9.3-4.1,14
	c-0.1,0.1-0.1,0.1-0.1,0.4c-0.9,1.7-0.4,5.3,0.9,5.8c0.6,0.3,1,0.4,1.1,0.3c0.3,2.7,0.9,5.7,1.4,6.8c0.4,0.7,1.3,1.4,2.4,2.1
	c0.1,2.4-0.1,6.6-1.4,7.1c-2,0.9-4,2.3-7.4,3.9c-1.4,0.6-3.6,1-5.6,1.3c-1.7,0.1-5.7-0.3-9.3,4.4c-3.3,4.4-1.7,10.3-3.3,16.5
	c-3,10,0.1,18.1-0.9,21.8s-3.1,9.7-3.6,14.8c-0.4,5.1-1.3,17.1-1.3,17.1l0,0l-0.3,2c0,0-1,5-1.1,7.3c-0.1,1.4,0.1,3.9,1.1,5.8
	c1.7,3.6,5.4,6.1,5.4,6.1c0.4,0.6,3.3,0.9,1.7-1.1c-3-3.9-3.3-6.6-3.3-6.6s-0.4-3.1,0.6-3.1c0.7-0.1,1.4,1.6,1.7,2.4
	c0.6,1.4,0.7,3.9,1.7,3.3c0.4-0.1,0.3-0.7,0.1-1.6c0-0.4,0.1-1.3,0.1-1.7c-0.1-0.4-0.6-2.6-0.9-3.1c-0.1-0.7-1-3.1-1.3-3.9
	c-0.3-0.7-0.6-2-0.4-3.1c0.1-1,1.7-6.8,2.6-8.7c0.6-1.3,6.4-9.3,7.4-25c0.3-3.7,1.1-9,1.7-14c0.4,2.3,0.9,4.6,1,6.3
	c0.1,5.3,1.7,12.7,1.3,16.7c-1,9-3.3,8.7-3.3,23.5c0,9.7-0.4,28,4.7,49.6c0.7,3.1,0.1,7.6-0.4,10.8c-0.7,6.1,1,14.3,4.7,32.8
	c3.6,17.8-7.4,15.7-5.4,20c0.9,1.7,10.8,1.1,14,1c1-0.1,1.7-0.9,1.7-1.7c0.1-1-0.4-2-1.3-4.7c-1-3.1-0.6-7.8-0.6-7.8s2-28.8,2-32.9
	c0-4.7-0.4-7.7-0.7-9.6c-0.3-1.6-0.4-3.1,0-4.7c2.9-13,2.9-46.1,2.9-46.1h3.1c0,0,0.1,33.1,2.9,46.1c0.4,1.6,0.3,3.1,0,4.7
	c-0.4,1.9-0.7,5-0.7,9.6c0,4.1,2,32.9,2,32.9s0.4,4.7-0.6,7.8c-0.9,2.7-1.3,3.9-1.3,4.7c0.1,1,0.9,1.7,1.7,1.7
	c3.1,0.1,13.1,0.7,14-1c1.9-4.1-9.1-2.1-5.4-20c3.9-18.5,5.4-26.5,4.7-32.8c-0.4-3.3-1-7.6-0.4-10.8c5-21.5,4.7-39.8,4.7-49.6
	c0-14.8-2.3-14.5-3.3-23.5c-0.4-3.9,1.1-11.4,1.3-16.7c0.1-1.7,0.4-4,1-6.3c0.6,5,1.4,10.3,1.7,14c1,15.7,7.3,24.1,7.8,25.2
	c0.6,1.4,2.3,7.3,2.3,8.4c0.1,1-0.1,2.3-0.4,3.1c-0.1,0.7-1.1,3.1-1.3,3.9c-0.1,0.7-0.7,2.7-0.9,3.1c-0.1,0.4,0.1,1.3,0.1,1.7
	c-0.1,1-0.1,1.4,0.1,1.6c1,0.4,1.3-1.9,1.7-3.3c0.3-0.9,1-2.4,1.7-2.4c0.9,0.1,0.6,3.1,0.6,3.1s-0.4,2.6-3.3,6.6
	c-1.4,2,1.3,1.7,1.7,1.1c0,0,3.6-2.7,5.4-6.1C84.1,162,84.4,159.7,84.4,158.1z"/>
<circle class="st1" cx="43.8" cy="43.8" r="11.3"/>
<g>
	<linearGradient id="SVGID_1_" gradientUnits="userSpaceOnUse" x1="43.805" y1="34.8662" x2="43.805" y2="52.7439">
		<stop  offset="0" style="stop-color:#FFC000;stop-opacity:0.3"/>
		<stop  offset="1" style="stop-color:#FFC000"/>
	</linearGradient>
	<path class="st2" d="M52.3,43.8c0-0.8,0.6-1.7,0.4-2.4c-0.2-0.8-1.2-1.2-1.5-1.9c-0.4-0.7-0.3-1.7-0.9-2.3
		c-0.5-0.5-1.6-0.5-2.3-0.9c-0.7-0.4-1.1-1.3-1.9-1.5c-0.7-0.2-1.6,0.4-2.4,0.4c-0.8,0-1.7-0.6-2.4-0.4c-0.8,0.2-1.2,1.2-1.9,1.5
		c-0.7,0.4-1.7,0.3-2.3,0.9c-0.5,0.5-0.5,1.6-0.9,2.3c-0.4,0.7-1.3,1.1-1.5,1.9c-0.2,0.7,0.4,1.6,0.4,2.4c0,0.8-0.6,1.7-0.4,2.4
		c0.2,0.8,1.2,1.2,1.5,1.9c0.4,0.7,0.3,1.7,0.9,2.3c0.5,0.5,1.6,0.5,2.3,0.9c0.7,0.4,1.1,1.3,1.9,1.5c0.7,0.2,1.6-0.4,2.4-0.4
		c0.8,0,1.7,0.6,2.4,0.4c0.8-0.2,1.2-1.2,1.9-1.5c0.7-0.4,1.7-0.3,2.3-0.9c0.5-0.5,0.5-1.6,0.9-2.3c0.4-0.7,1.3-1.1,1.5-1.9
		C52.9,45.5,52.3,44.6,52.3,43.8z"/>
</g>
<circle class="st1" cx="43.8" cy="135.4" r="11.3"/>
<linearGradient id="SVGID_2_" gradientUnits="userSpaceOnUse" x1="43.805" y1="144.2474" x2="43.805" y2="126.534">
	<stop  offset="0" style="stop-color:#FFC000;stop-opacity:0.3"/>
	<stop  offset="1" style="stop-color:#FFC000"/>
</linearGradient>
<circle class="st3" cx="43.8" cy="135.4" r="8.9"/>
<path class="st4" d="M45.5,52.3c0,5.3-3.5,5.3-3.5,10.5c0,5.3,3.5,5.3,3.5,10.5c0,5.3-3.5,5.3-3.5,10.5c0,5.3,3.5,5.3,3.5,10.5
	c0,5.3-3.5,5.3-3.5,10.6c0,5.3,3.5,5.3,3.5,10.5c0,5.3-3.5,6.1-3.5,11.4"/>
<path class="st4" d="M42.1,52.3c0,5.3,3.5,5.3,3.5,10.5c0,5.3-3.5,5.3-3.5,10.5c0,5.3,3.5,5.3,3.5,10.5c0,5.3-3.5,5.3-3.5,10.5
	c0,5.3,3.5,5.3,3.5,10.6c0,5.3-3.5,5.3-3.5,10.5c0,5.3,3.5,6.1,3.5,11.4"/>
<circle class="st5" cx="43.8" cy="43.8" r="43.8"/>
<circle class="st1" cx="43.8" cy="43.8" r="37.6"/>
<circle class="st1" cx="43.8" cy="43.7" r="31.1"/>
<circle class="st5" cx="43.8" cy="136.5" r="43.8"/>
<circle class="st1" cx="43.8" cy="136.5" r="37.6"/>
<circle class="st1" cx="43.8" cy="136.4" r="31.1"/>
<path class="st0" d="M151.6,124.6c-1.9-3.3-1.7-9.3-1.1-13l1.4-8.1c0,0,1.1,11,3.1,16.7c2.6,7.1,6.1,18.8,7.8,27.8
	c0.3,0.9,0.4,1.6,0.6,2.1c0.3,1.6-0.3,2.4-0.4,3.1c-0.1,0.7-1.1,3.1-1.3,3.9c-0.1,0.7-0.7,2.7-0.7,3.1c-0.1,0.4,0.1,1.3,0,1.7
	c0,1-0.3,1.4,0.1,1.6c1,0.6,1.3-1.9,1.9-3.4c0.3-0.9,1-2.4,1.7-2.4c0.9,0,0.4,3.3,0.4,3.3s0.4,1.7-2.4,5.7c-1.6,2,1.3,1.7,1.9,1.3
	c0,0,2.9-1.9,4.6-5.4c1.3-1.6,1.7-4,1.6-5.6c-0.1-2.3-1.1-7.3-1.1-7.3l-0.3-2l0.1,0.1c0,0-1-12.1-1.4-17.1c-0.4-5.1-2.7-12-3.7-15.7
	c-1-3.9-1.6-11.1-1.7-20c-0.3-9.1-1.1-16.3-2.9-18.4c-2-2.6-5.7-3.3-7.1-3.7c-1.1-0.3-2.4-0.6-3.7-0.9c0,0,0,0,0-0.1
	c1.7-4.3,1.7-9.1,0.1-13.5c-0.4-1.3-1-2.4-1.3-3.9c-0.4-2-0.3-4-0.4-6c-0.1-3.6-0.4-8.1-2.1-11.4c-1.4-2.6-3.4-5.3-6.6-5.6
	c-0.7-0.1-1,0.1-1.7-0.3c-0.7-0.4-2-1.6-4.1-2c-6.3-1-11.7,2.7-14.3,8.4c-2,4.1-2,8.8-2,13.5c0.1,2,0.1,3.9-0.7,5.6
	c-1.1,2.6-3.9,3.9-5.4,6.1c-1.3,1.7-1.7,4.1-1.7,6.3c-0.1,1.4,0,2.9,0.4,4.3c-0.7,0.4-1.6,0.9-2.1,1.3c-0.1,0.1-0.1,0.1-0.4,0.4
	c-0.1,0.1-0.1,0.1-0.3,0.3l-0.1,0.1c-0.4,0.1-0.4,0.1-0.4,0.3s-0.1,0.1-0.1,0.1c-0.1,0.1-0.1,0.3-0.3,0.4c-1.7,2.1-2.6,9.6-2.7,18.7
	c-0.1,9-0.6,16.3-1.6,20c-1,3.9-3.4,10.6-3.6,15.7c0,0.1,0,0.1,0,0.4v0.1c0,0.1,0,0.3,0,0.4v0.1c0,0.1,0,0.1,0,0.4v0.1
	c0,0.1,0,0.3,0,0.4v0.1c0,0.1,0,0.3,0,0.4v0.1c0,0.1,0,0.3,0,0.4c0,0.1,0,0.1,0,0.1c0,0.1,0,0.3,0,0.4c0,0.1,0,0.4,0,0.4v0.1
	c0,0.1,0,0.4,0,0.4c0,0.1,0,0.4,0,0.6c0,0.4,0,0.7-0.1,1v0.1c0,0.6-0.1,1-0.1,1.7c0,0.1,0,0.4,0,0.6c-0.3,4.7-0.7,9.1-0.7,9.1
	l-0.3,2c0,0-1,4.8-1.1,7.3c-0.1,1.4,0.3,3.9,1.3,5.8c1.9,3.6,4.6,5.3,4.6,5.3c0.4,0.4,3.3,0.7,1.9-1.3c-3-3.9-2.6-5.7-2.6-5.7
	s-0.4-3.1,0.4-3.3c0.7,0,1.6,1.6,1.9,2.4c0.6,1.6,0.9,3.9,1.9,3.4c0.4-0.1,0.1-0.7,0.1-1.6c-0.1-0.4,0.1-1.3,0-1.7
	c-0.1-0.4-0.6-2.6-0.7-3.1c-0.1-0.7-1.1-3.1-1.4-3.9c-0.3-0.7-0.4-2-0.4-3.1c0-1.1,1.9-7.1,2.1-8.3c0.3-1.1,7.6-18.3,7.7-25.4
	c0.1-3.6,1.6-9,1.7-14.1c0.7,3.6,1.4,7.6,2,9.3c0.7,2.4,1,8.1-1,12.3c-0.1,0.3-0.3,0.4-0.4,0.7c-0.6,1-1.1,2-1.7,3.1
	c-5,9.7-5.4,18.1-5.4,24.1c0,1,0.1,2,0.1,3.1c0-0.1,0-0.3,0-0.4c0.3,3.6,1,8.7,2.4,17.1c-0.1-0.6-0.1-0.9-0.1-0.9
	c1.1,6.8,2.9,15.7,5,28.2c0.6,3.1,0.7,6.4,0.4,9.7c-0.6,6,0.1,14.5,3.9,32.9c1.4,7.6,0.9,11.7-0.4,14.3c-1.7,3.6-4.6,4.1-3.6,6.6
	c1.4,1.7,8.7,1.1,11.7,1c0.9-0.1,1.6-0.1,2-1.3c0.4-0.9,0.4-1.4-1.1-5c-1-2.1-0.9-5.7-0.9-5.7s2.3-30.9,2.3-35.4
	c0-4.3-0.3-7.4-0.6-9.3c-0.4-2-0.4-3.9-0.1-5.7c0.4-2.9,0.7-6.8,1-11.1c0,0.1,0,0.3,0,0.4c1.7-22.2,2.1-36.7,2.1-36.7h2.6l0.1-0.1
	c0,0,0.9,33.5,2.9,47.5c0.3,1.9,0.3,3.9,0,5.7c-0.3,2-0.6,5-0.6,9.3c0,4.1,2,32.9,2,32.9s0.3,3.3-0.1,6.3c-0.1,0.1-0.1,0.4-0.1,0.6
	c0,0,0.1-0.4,0.1-0.9c-0.1,0.6-0.1,1.1-0.4,1.7c-0.9,2.7-1.3,3.9-1.3,4.7c0.1,1,0.9,1.7,1.7,1.7c3.1,0.1,11.1,0.9,12-1
	c2-4.1-8.6-2.9-4.1-21c4.4-18.3,5-27,4.1-32.9c-0.4-3.3-0.4-6.6,0.1-9.7c4-26.4,8.1-38.1,8.1-47.9
	C158,137.1,151.6,124.6,151.6,124.6z"/>
<circle class="st1" cx="131.8" cy="43.8" r="11.3"/>
<g>
	<linearGradient id="SVGID_3_" gradientUnits="userSpaceOnUse" x1="131.7764" y1="34.8662" x2="131.7764" y2="52.7439">
		<stop  offset="0" style="stop-color:#FFC000;stop-opacity:0.3"/>
		<stop  offset="1" style="stop-color:#FFC000"/>
	</linearGradient>
	<path class="st6" d="M140.3,43.8c0-0.8,0.6-1.7,0.4-2.4c-0.2-0.8-1.2-1.2-1.5-1.9c-0.4-0.7-0.3-1.7-0.9-2.3
		c-0.5-0.5-1.6-0.5-2.3-0.9c-0.7-0.4-1.1-1.3-1.9-1.5c-0.7-0.2-1.6,0.4-2.4,0.4c-0.8,0-1.7-0.6-2.4-0.4c-0.8,0.2-1.2,1.2-1.9,1.5
		c-0.7,0.4-1.7,0.3-2.3,0.9c-0.5,0.5-0.5,1.6-0.9,2.3c-0.4,0.7-1.3,1.1-1.5,1.9c-0.2,0.7,0.4,1.6,0.4,2.4c0,0.8-0.6,1.7-0.4,2.4
		c0.2,0.8,1.2,1.2,1.5,1.9c0.4,0.7,0.3,1.7,0.9,2.3c0.5,0.5,1.6,0.5,2.3,0.9c0.7,0.4,1.1,1.3,1.9,1.5c0.7,0.2,1.6-0.4,2.4-0.4
		c0.8,0,1.7,0.6,2.4,0.4c0.8-0.2,1.2-1.2,1.9-1.5c0.7-0.4,1.7-0.3,2.3-0.9c0.5-0.5,0.5-1.6,0.9-2.3c0.4-0.7,1.3-1.1,1.5-1.9
		C140.9,45.5,140.3,44.6,140.3,43.8z"/>
</g>
<circle class="st7" cx="131.8" cy="135.4" r="11.3"/>
<linearGradient id="SVGID_4_" gradientUnits="userSpaceOnUse" x1="131.7764" y1="144.2474" x2="131.7764" y2="126.534">
	<stop  offset="0" style="stop-color:#009632;stop-opacity:0.2"/>
	<stop  offset="1" style="stop-color:#009632"/>
</linearGradient>
<circle class="st8" cx="131.8" cy="135.4" r="8.9"/>
<linearGradient id="SVGID_5_" gradientUnits="userSpaceOnUse" x1="131.7764" y1="126.8407" x2="131.7764" y2="52.3172">
	<stop  offset="0" style="stop-color:#009632"/>
	<stop  offset="0.8814" style="stop-color:#E1BB06"/>
	<stop  offset="1" style="stop-color:#FFC000"/>
</linearGradient>
<path class="st9" d="M133.5,52.3c0,5.3-3.5,5.3-3.5,10.5c0,5.3,3.5,5.3,3.5,10.5c0,5.3-3.5,5.3-3.5,10.5c0,5.3,3.5,5.3,3.5,10.5
	c0,5.3-3.5,5.3-3.5,10.6c0,5.3,3.5,5.3,3.5,10.5c0,5.3-3.5,6.1-3.5,11.4"/>
<linearGradient id="SVGID_6_" gradientUnits="userSpaceOnUse" x1="131.7764" y1="126.8407" x2="131.7764" y2="52.3172">
	<stop  offset="0" style="stop-color:#009632"/>
	<stop  offset="0.8814" style="stop-color:#E1BB06"/>
	<stop  offset="1" style="stop-color:#FFC000"/>
</linearGradient>
<path class="st10" d="M130,52.3c0,5.3,3.5,5.3,3.5,10.5c0,5.3-3.5,5.3-3.5,10.5c0,5.3,3.5,5.3,3.5,10.5c0,5.3-3.5,5.3-3.5,10.5
	c0,5.3,3.5,5.3,3.5,10.6c0,5.3-3.5,5.3-3.5,10.5c0,5.3,3.5,6.1,3.5,11.4"/>
<circle class="st5" cx="131.8" cy="43.8" r="43.8"/>
<circle class="st1" cx="131.8" cy="43.8" r="37.6"/>
<circle class="st1" cx="131.8" cy="43.7" r="31.1"/>
<circle class="st11" cx="131.8" cy="136.5" r="43.8"/>
<circle class="st7" cx="131.8" cy="136.5" r="37.6"/>
<circle class="st7" cx="131.8" cy="136.4" r="31.1"/>
<path class="st0" d="M326.4,124.6c-1.9-3.3-1.7-9.3-1.1-13l1.4-8.1c0,0,1.1,11,3.1,16.7c2.6,7.1,6.1,18.8,7.8,27.8
	c0.3,0.9,0.4,1.6,0.6,2.1c0.3,1.6-0.3,2.4-0.4,3.1c-0.1,0.7-1.1,3.1-1.3,3.9c-0.1,0.7-0.7,2.7-0.7,3.1c-0.1,0.4,0.1,1.3,0,1.7
	c0,1-0.3,1.4,0.1,1.6c1,0.6,1.3-1.9,1.9-3.4c0.3-0.9,1-2.4,1.7-2.4c0.9,0,0.4,3.3,0.4,3.3s0.4,1.7-2.4,5.7c-1.6,2,1.3,1.7,1.9,1.3
	c0,0,2.9-1.9,4.6-5.4c1.3-1.6,1.7-4,1.6-5.6c-0.1-2.3-1.1-7.3-1.1-7.3l-0.3-2l0.1,0.1c0,0-1-12.1-1.4-17.1c-0.4-5.1-2.7-12-3.7-15.7
	c-1-3.9-1.6-11.1-1.7-20c-0.3-9.1-1.1-16.3-2.9-18.4c-2-2.6-5.7-3.3-7.1-3.7c-1.1-0.3-2.4-0.6-3.7-0.9c0,0,0,0,0-0.1
	c1.7-4.3,1.7-9.1,0.1-13.5c-0.4-1.3-1-2.4-1.3-3.9c-0.4-2-0.3-4-0.4-6c-0.1-3.6-0.4-8.1-2.1-11.4c-1.4-2.6-3.4-5.3-6.6-5.6
	c-0.7-0.1-1,0.1-1.7-0.3c-0.7-0.4-2-1.6-4.1-2c-6.3-1-11.7,2.7-14.3,8.4c-2,4.1-2,8.8-2,13.5c0.1,2,0.1,3.9-0.7,5.6
	c-1.1,2.6-3.9,3.9-5.4,6.1c-1.3,1.7-1.7,4.1-1.7,6.3c-0.1,1.4,0,2.9,0.4,4.3c-0.7,0.4-1.6,0.9-2.1,1.3c-0.1,0.1-0.1,0.1-0.4,0.4
	c-0.1,0.1-0.1,0.1-0.3,0.3l-0.1,0.1c-0.1,0.1-0.1,0.1-0.1,0.3s-0.1,0.1-0.1,0.1c-0.1,0.1-0.1,0.3-0.3,0.4c-1.7,2.1-2.6,9.6-2.7,18.7
	c-0.1,9-0.6,16.3-1.6,20c-1,3.9-3.4,10.6-3.6,15.7c0,0.1,0,0.1,0,0.4v0.1c0,0.1,0,0.3,0,0.4v0.1c0,0.1,0,0.1,0,0.4v0.1
	c0,0.1,0,0.3,0,0.4v0.1c0,0.1,0,0.3,0,0.4v0.1c0,0.1,0,0.3,0,0.4c0,0.1,0,0.1,0,0.1c0,0.1,0,0.3,0,0.4c0,0.1,0,0.4,0,0.4v0.1
	c0,0.1,0,0.4,0,0.4c0,0.1,0,0.4,0,0.6c0,0.4,0,0.7-0.1,1v0.1c0,0.6-0.1,1-0.1,1.7c0,0.1,0,0.4,0,0.6c-0.3,4.7-0.7,9.1-0.7,9.1
	l-0.3,2c0,0-1,4.8-1.1,7.3c-0.1,1.4,0.3,3.9,1.3,5.8c1.9,3.6,4.6,5.3,4.6,5.3c0.4,0.4,3.3,0.7,1.9-1.3c-3-3.9-2.6-5.7-2.6-5.7
	s-0.4-3.1,0.4-3.3c0.7,0,1.6,1.6,1.9,2.4c0.6,1.6,0.9,3.9,1.9,3.4c0.4-0.1,0.1-0.7,0.1-1.6c-0.1-0.4,0.1-1.3,0-1.7
	c-0.1-0.4-0.6-2.6-0.7-3.1c-0.1-0.7-1.1-3.1-1.4-3.9c-0.3-0.7-0.4-2-0.4-3.1c0-1.1,1.9-7.1,2.1-8.3c0.3-1.1,7.6-18.3,7.7-25.4
	c0.1-3.6,1.6-9,1.7-14.1c0.7,3.6,1.4,7.6,2,9.3c0.7,2.4,1,8.1-1,12.3c-0.1,0.3-0.3,0.4-0.4,0.7c-0.6,1-1.1,2-1.7,3.1
	c-5,9.7-5.4,18.1-5.4,24.1c0,1,0.1,2,0.1,3.1c0-0.1,0-0.3,0-0.4c0.3,3.6,1,8.7,2.4,17.1c-0.1-0.6-0.1-0.9-0.1-0.9
	c1.1,6.8,2.9,15.7,5,28.2c0.6,3.1,0.7,6.4,0.4,9.7c-0.6,6,0.1,14.5,3.9,32.9c1.4,7.6,0.9,11.7-0.4,14.3c-1.7,3.6-4.6,4.1-3.6,6.6
	c1.4,1.7,8.7,1.1,11.7,1c0.9-0.1,1.6-0.1,2-1.3c0.4-0.9,0.4-1.4-1.1-5c-1-2.1-0.9-5.7-0.9-5.7s2.3-30.9,2.3-35.4
	c0-4.3-0.3-7.4-0.6-9.3c-0.4-2-0.4-3.9-0.1-5.7c0.4-2.9,0.7-6.8,1-11.1c0,0.1,0,0.3,0,0.4c1.7-22.2,2.1-36.7,2.1-36.7h2.6l0.1-0.1
	c0,0,0.9,33.5,2.9,47.5c0.3,1.9,0.3,3.9,0,5.7c-0.3,2-0.6,5-0.6,9.3c0,4.1,2,32.9,2,32.9s0.3,3.3-0.1,6.3c-0.1,0.1-0.1,0.4-0.1,0.6
	c0,0,0.1-0.4,0.1-0.9c-0.1,0.6-0.1,1.1-0.4,1.7c-0.9,2.7-1.3,3.9-1.3,4.7c0.1,1,0.9,1.7,1.7,1.7c3.1,0.1,11.1,0.9,12-1
	c2-4.1-8.6-2.9-4.1-21c4.4-18.3,5-27,4.1-32.9c-0.4-3.3-0.4-6.6,0.1-9.7c4-26.4,8.1-38.1,8.1-47.9
	C332.8,137.1,326.4,124.6,326.4,124.6z"/>
<g>
	<g>
		<circle class="st7" cx="306.7" cy="43.8" r="11.3"/>
		<g>
			<linearGradient id="SVGID_7_" gradientUnits="userSpaceOnUse" x1="306.7191" y1="34.8662" x2="306.7191" y2="52.7439">
				<stop  offset="0" style="stop-color:#009632;stop-opacity:0.2"/>
				<stop  offset="1" style="stop-color:#009632"/>
			</linearGradient>
			<path class="st12" d="M315.2,43.8c0-0.8,0.6-1.7,0.4-2.4c-0.2-0.8-1.2-1.2-1.5-1.9c-0.4-0.7-0.3-1.7-0.9-2.3
				c-0.5-0.5-1.6-0.5-2.3-0.9c-0.7-0.4-1.1-1.3-1.9-1.5c-0.7-0.2-1.6,0.4-2.4,0.4c-0.8,0-1.7-0.6-2.4-0.4c-0.8,0.2-1.2,1.2-1.9,1.5
				c-0.7,0.4-1.7,0.3-2.3,0.9c-0.5,0.5-0.5,1.6-0.9,2.3c-0.4,0.7-1.3,1.1-1.5,1.9c-0.2,0.7,0.4,1.6,0.4,2.4c0,0.8-0.6,1.7-0.4,2.4
				c0.2,0.8,1.2,1.2,1.5,1.9c0.4,0.7,0.3,1.7,0.9,2.3c0.5,0.5,1.6,0.5,2.3,0.9c0.7,0.4,1.1,1.3,1.9,1.5c0.7,0.2,1.6-0.4,2.4-0.4
				c0.8,0,1.7,0.6,2.4,0.4c0.8-0.2,1.2-1.2,1.9-1.5c0.7-0.4,1.7-0.3,2.3-0.9c0.5-0.5,0.5-1.6,0.9-2.3c0.4-0.7,1.3-1.1,1.5-1.9
				C315.8,45.5,315.2,44.6,315.2,43.8z"/>
		</g>
	</g>
	<circle class="st7" cx="306.7" cy="135.4" r="11.3"/>
	<linearGradient id="SVGID_8_" gradientUnits="userSpaceOnUse" x1="306.7191" y1="144.2474" x2="306.7191" y2="126.534">
		<stop  offset="0" style="stop-color:#009632;stop-opacity:0.2"/>
		<stop  offset="1" style="stop-color:#009632"/>
	</linearGradient>
	<circle class="st13" cx="306.7" cy="135.4" r="8.9"/>
	<path class="st14" d="M308.5,52.3c0,5.3-3.5,5.3-3.5,10.5c0,5.3,3.5,5.3,3.5,10.5c0,5.3-3.5,5.3-3.5,10.5c0,5.3,3.5,5.3,3.5,10.5
		c0,5.3-3.5,5.3-3.5,10.6c0,5.3,3.5,5.3,3.5,10.5c0,5.3-3.5,6.1-3.5,11.4"/>
	<path class="st14" d="M305,52.3c0,5.3,3.5,5.3,3.5,10.5c0,5.3-3.5,5.3-3.5,10.5c0,5.3,3.5,5.3,3.5,10.5c0,5.3-3.5,5.3-3.5,10.5
		c0,5.3,3.5,5.3,3.5,10.6c0,5.3-3.5,5.3-3.5,10.5c0,5.3,3.5,6.1,3.5,11.4"/>
</g>
<circle class="st11" cx="306.7" cy="43.8" r="43.8"/>
<circle class="st7" cx="306.7" cy="43.8" r="37.6"/>
<circle class="st7" cx="306.7" cy="43.7" r="31.1"/>
<circle class="st11" cx="306.7" cy="136.5" r="43.8"/>
<circle class="st7" cx="306.7" cy="136.5" r="37.6"/>
<circle class="st7" cx="306.7" cy="136.4" r="31.1"/>
<path class="st0" d="M260.3,158.1c-0.1-2.3-1.1-7.3-1.1-7.3l-0.3-2l0,0c0,0-1-12-1.3-17.1c-0.4-5.1-2.6-11.1-3.6-14.8
	s2.1-11.8-0.7-21.8c-1.7-6.3,0-12.1-3.3-16.5c-3.7-4.7-7.7-4.3-9.3-4.4l0,0c-2-0.4-4.1-0.7-5.6-1.3c-3.3-1.4-5.4-2.9-7.4-3.9
	c-1.4-0.6-1.4-4.7-1.4-7.1c1.1-0.7,2-1.4,2.4-2.1c0.7-1,1.1-4,1.4-6.8c0.3,0.1,0.6,0,1.1-0.3c1.3-0.6,1.7-4.3,0.9-5.8
	c-0.1-0.1-0.1-0.3-0.3-0.4c0.4-3.6,1-9.7-1-12.4c-2.6-4-8.7-4.1-10.6-4.4c-2.6-0.3-7.4-0.1-8.7,2.9c-5.6,0.6-5,9.3-4.1,14
	c-0.1,0.1-0.1,0.1-0.1,0.4c-0.9,1.7-0.4,5.3,0.9,5.8c0.6,0.3,1,0.4,1.1,0.3c0.3,2.7,0.9,5.7,1.4,6.8c0.4,0.7,1.3,1.4,2.4,2.1
	c0.1,2.4-0.1,6.6-1.4,7.1c-2,0.9-4,2.3-7.4,3.9c-1.4,0.6-3.6,1-5.6,1.3c-1.7,0.1-5.7-0.3-9.3,4.4c-3.3,4.4-1.7,10.3-3.3,16.5
	c-2.9,10.1,0.4,18.1-0.7,21.8c-1,3.7-3.1,9.7-3.6,14.8c-0.4,5.1-1.3,17.1-1.3,17.1l0,0l-0.3,2c0,0-1,5-1.1,7.3
	c-0.1,1.4,0.1,3.9,1.1,5.8c1.7,3.6,5.4,6.1,5.4,6.1c0.4,0.6,3.3,0.9,1.7-1.1c-3-3.9-3.3-6.6-3.3-6.6s-0.4-3.1,0.6-3.1
	c0.7-0.1,1.4,1.6,1.7,2.4c0.6,1.4,0.7,3.9,1.7,3.3c0.4-0.1,0.3-0.7,0.1-1.6c0-0.4,0.1-1.3,0.1-1.7c-0.1-0.4-0.6-2.6-0.9-3.1
	c-0.1-0.7-1-3.1-1.3-3.9c-0.3-0.7-0.6-2-0.4-3.1c0.1-1,1.7-6.8,2.6-8.7c0.6-1.3,6.4-9.3,7.4-25c0.3-3.7,1.1-9,1.7-14
	c0.4,2.3,0.9,4.6,1,6.3c0.1,5.3,1.7,12.7,1.3,16.7c-1,9-3.3,8.7-3.3,23.5c0,9.7-0.4,28,4.7,49.6c0.7,3.1,0.1,7.6-0.4,10.8
	c-0.7,6.1,1,14.3,4.7,32.8c3.6,17.8-7.4,15.7-5.4,20c0.9,1.7,10.8,1.1,14,1c1-0.1,1.7-0.9,1.7-1.7c0.1-1-0.4-2-1.3-4.7
	c-1-3.1-0.6-7.8-0.6-7.8s2-28.8,2-32.9c0-4.7-0.4-7.7-0.7-9.6c-0.3-1.6-0.4-3.1,0-4.7c2.9-13,2.9-46.1,2.9-46.1h3.1
	c0,0,0.1,33.1,2.9,46.1c0.4,1.6,0.3,3.1,0,4.7c-0.4,1.9-0.7,5-0.7,9.6c0,4.1,2,32.9,2,32.9s0.4,4.7-0.6,7.8
	c-0.9,2.7-1.3,3.9-1.3,4.7c0.1,1,0.9,1.7,1.7,1.7c3.1,0.1,13.1,0.7,14-1c1.9-4.1-9.1-2.1-5.4-20c3.9-18.5,5.4-26.5,4.7-32.8
	c-0.4-3.3-1-7.6-0.4-10.8c5-21.5,4.7-39.8,4.7-49.6c0-14.8-2.3-14.5-3.3-23.5c-0.4-3.9,1.1-11.4,1.3-16.7c0.1-1.7,0.4-4,1-6.3
	c0.6,5,1.4,10.3,1.7,14c1,15.7,7.3,24.1,7.8,25.2c0.6,1.4,2.3,7.3,2.3,8.4c0,1-0.1,2.3-0.4,3.1c-0.1,0.7-1.1,3.1-1.3,3.9
	c-0.1,0.7-0.7,2.7-0.9,3.1s0.1,1.3,0.1,1.7c-0.1,1-0.1,1.4,0.1,1.6c1,0.4,1.3-1.9,1.7-3.3c0.3-0.9,1-2.4,1.7-2.4
	c0.9,0.1,0.6,3.1,0.6,3.1s-0.4,2.6-3.3,6.6c-1.4,2,1.3,1.7,1.7,1.1c0,0,3.6-2.7,5.4-6.1C260.1,162,260.4,159.7,260.3,158.1z"/>
<g>
	<g>
		<circle class="st7" cx="219.7" cy="43.8" r="11.3"/>
		<g>
			<linearGradient id="SVGID_9_" gradientUnits="userSpaceOnUse" x1="219.7478" y1="34.8662" x2="219.7478" y2="52.7439">
				<stop  offset="0" style="stop-color:#009632;stop-opacity:0.2"/>
				<stop  offset="1" style="stop-color:#009632"/>
			</linearGradient>
			<path class="st15" d="M228.3,43.8c0-0.8,0.6-1.7,0.4-2.4c-0.2-0.8-1.2-1.2-1.5-1.9c-0.4-0.7-0.3-1.7-0.9-2.3
				c-0.5-0.5-1.6-0.5-2.3-0.9c-0.7-0.4-1.1-1.3-1.9-1.5c-0.7-0.2-1.6,0.4-2.4,0.4c-0.8,0-1.7-0.6-2.4-0.4c-0.8,0.2-1.2,1.2-1.9,1.5
				c-0.7,0.4-1.7,0.3-2.3,0.9c-0.5,0.5-0.5,1.6-0.9,2.3c-0.4,0.7-1.3,1.1-1.5,1.9c-0.2,0.7,0.4,1.6,0.4,2.4c0,0.8-0.6,1.7-0.4,2.4
				c0.2,0.8,1.2,1.2,1.5,1.9c0.4,0.7,0.3,1.7,0.9,2.3c0.5,0.5,1.6,0.5,2.3,0.9c0.7,0.4,1.1,1.3,1.9,1.5c0.7,0.2,1.6-0.4,2.4-0.4
				c0.8,0,1.7,0.6,2.4,0.4c0.8-0.2,1.2-1.2,1.9-1.5c0.7-0.4,1.7-0.3,2.3-0.9c0.5-0.5,0.5-1.6,0.9-2.3c0.4-0.7,1.3-1.1,1.5-1.9
				C228.8,45.5,228.3,44.6,228.3,43.8z"/>
		</g>
	</g>
	<circle class="st7" cx="219.7" cy="135.4" r="11.3"/>
	<linearGradient id="SVGID_10_" gradientUnits="userSpaceOnUse" x1="219.7478" y1="144.2474" x2="219.7478" y2="126.534">
		<stop  offset="0" style="stop-color:#009632;stop-opacity:0.2"/>
		<stop  offset="1" style="stop-color:#009632"/>
	</linearGradient>
	<circle class="st16" cx="219.7" cy="135.4" r="8.9"/>
	<path class="st14" d="M221.5,52.3c0,5.3-3.5,5.3-3.5,10.5c0,5.3,3.5,5.3,3.5,10.5c0,5.3-3.5,5.3-3.5,10.5c0,5.3,3.5,5.3,3.5,10.5
		c0,5.3-3.5,5.3-3.5,10.6c0,5.3,3.5,5.3,3.5,10.5c0,5.3-3.5,6.1-3.5,11.4"/>
	<path class="st14" d="M218,52.3c0,5.3,3.5,5.3,3.5,10.5c0,5.3-3.5,5.3-3.5,10.5c0,5.3,3.5,5.3,3.5,10.5c0,5.3-3.5,5.3-3.5,10.5
		c0,5.3,3.5,5.3,3.5,10.6c0,5.3-3.5,5.3-3.5,10.5c0,5.3,3.5,6.1,3.5,11.4"/>
</g>
<circle class="st11" cx="219.7" cy="43.8" r="43.8"/>
<circle class="st7" cx="219.7" cy="43.8" r="37.6"/>
<circle class="st7" cx="219.7" cy="43.7" r="31.1"/>
<circle class="st11" cx="219.7" cy="136.5" r="43.8"/>
<circle class="st7" cx="219.7" cy="136.5" r="37.6"/>
<circle class="st7" cx="219.7" cy="136.4" r="31.1"/>
</svg>
