<?xml version="1.0" encoding="utf-8"?>
<!-- Generator: Adobe Illustrator 22.0.0, SVG Export Plug-In . SVG Version: 6.00 Build 0)  -->
<svg version="1.1" id="Layer_1" xmlns="http://www.w3.org/2000/svg" xmlns:xlink="http://www.w3.org/1999/xlink" x="0px" y="0px"
	 viewBox="0 0 360 360" style="enable-background:new 0 0 360 360;" xml:space="preserve">
<style type="text/css">
	.st0{opacity:0.1;}
	.st1{fill:#FB3942;}
	.st2{opacity:0.3;}
	.st3{enable-background:new    ;}
	.st4{fill:#FFFFFF;}
</style>
<g class="st0">
	<path class="st1" d="M334.1,257.8c0-1.3,5.8-2.8,5.7-4.1c-0.1-1.3-6-2-6.2-3.3c-0.2-1.3,5.3-3.7,5-4.9c-0.3-1.3-6.3-1-6.6-2.3
		c-0.4-1.3,4.7-4.4,4.2-5.6c-0.5-1.2-6.3-0.1-6.9-1.3c-0.6-1.2,4-5.1,3.3-6.2c-0.7-1.1-6.3,0.9-7-0.2c-0.7-1.1,3.2-5.6,2.4-6.6
		c-0.8-1-6.1,1.8-7,0.8c-0.9-1,2.3-6,1.3-6.9c-1-0.9-5.7,2.7-6.8,1.9c-1-0.8,1.4-6.3,0.3-7c-1.1-0.7-5.3,3.5-6.4,2.8
		c-1.1-0.7,0.4-6.4-0.7-7c-1.2-0.6-4.7,4.2-5.9,3.8c-1.2-0.5-0.5-6.4-1.8-6.8c-1.2-0.4-4,4.9-5.3,4.6c-1.3-0.3-1.5-6.3-2.8-6.4
		c-1.3-0.2-3.2,5.4-4.5,5.4c-1.3-0.1-2.4-6-3.7-6c-1.3,0-2.4,5.9-3.7,6c-1.3,0.1-3.3-5.5-4.5-5.4c-1.3,0.2-1.5,6.2-2.8,6.4
		c-1.3,0.3-4-5-5.3-4.6c-1.3,0.4-0.6,6.3-1.8,6.8c-1.2,0.5-4.8-4.3-5.9-3.8c-1.2,0.6,0.4,6.3-0.7,7c-1.1,0.7-5.3-3.6-6.4-2.8
		c-1.1,0.7,1.3,6.2,0.3,7c-1,0.8-5.8-2.7-6.8-1.9c-1,0.9,2.2,5.9,1.3,6.9c-0.9,1-6.2-1.9-7-0.8c-0.8,1,3.1,5.5,2.4,6.6
		c-0.7,1.1-6.4-0.9-7,0.2c-0.7,1.1,3.9,5,3.3,6.2c-0.6,1.2-6.4,0-6.9,1.3c-0.5,1.2,4.6,4.4,4.2,5.6c-0.4,1.2-6.3,1-6.6,2.3
		c-0.3,1.3,5.2,3.6,5,4.9c-0.2,1.3-6.1,1.9-6.2,3.3c-0.1,1.3,5.7,2.8,5.7,4.1c0,1.3-5.8,2.8-5.7,4.1c0.1,1.3,6,2,6.2,3.3
		c0.2,1.3-5.3,3.7-5,4.9c0.3,1.3,6.3,1,6.6,2.3c0.4,1.3-4.7,4.4-4.2,5.6c0.5,1.2,6.3,0.1,6.9,1.3c0.6,1.2-4,5.1-3.3,6.2
		c0.7,1.1,6.3-0.9,7,0.2c0.7,1.1-3.2,5.6-2.4,6.6c0.8,1,6.1-1.8,7-0.8c0.9,1-2.3,6-1.3,6.9c1,0.9,5.7-2.7,6.8-1.9
		c1,0.8-1.4,6.3-0.3,7c1.1,0.7,5.3-3.5,6.4-2.8c1.1,0.7-0.4,6.4,0.7,7c1.2,0.6,4.7-4.2,5.9-3.8c1.2,0.5,0.5,6.4,1.8,6.8
		c1.2,0.4,4-4.9,5.3-4.6c1.3,0.3,1.5,6.3,2.8,6.4c1.3,0.2,3.2-5.4,4.5-5.4c1.3,0.1,2.4,6,3.7,6c1.3,0,2.4-5.9,3.7-6
		c1.3-0.1,3.3,5.5,4.5,5.4c1.3-0.2,1.5-6.2,2.8-6.4c1.3-0.3,4,5,5.3,4.6c1.3-0.4,0.6-6.3,1.8-6.8c1.2-0.5,4.8,4.3,5.9,3.8
		c1.2-0.6-0.4-6.3,0.7-7c1.1-0.7,5.3,3.6,6.4,2.8c1.1-0.7-1.3-6.2-0.3-7c1-0.8,5.8,2.7,6.8,1.9c1-0.9-2.2-5.9-1.3-6.9
		c0.9-1,6.2,1.9,7,0.8c0.8-1-3.1-5.5-2.4-6.6c0.7-1.1,6.4,0.9,7-0.2c0.7-1.1-3.9-5-3.3-6.2c0.6-1.2,6.4,0,6.9-1.3
		c0.5-1.2-4.6-4.4-4.2-5.6c0.4-1.2,6.3-1,6.6-2.3c0.3-1.3-5.2-3.6-5-4.9c0.2-1.3,6.1-1.9,6.2-3.3
		C339.9,260.7,334.1,259.1,334.1,257.8z"/>
</g>
<g class="st2">
	<path class="st1" d="M319.5,257.8c0-1,5.8-2.1,5.7-3c-0.1-0.9-6-1.2-6.1-2.2c-0.1-0.9,5.4-2.9,5.2-3.9c-0.2-0.9-6.1-0.3-6.4-1.2
		c-0.3-0.9,4.9-3.7,4.6-4.6c-0.3-0.9-6.1,0.6-6.5-0.3c-0.4-0.9,4.3-4.4,3.8-5.2c-0.5-0.8-5.9,1.5-6.4,0.7c-0.5-0.8,3.6-5,3-5.7
		c-0.6-0.7-5.6,2.3-6.3,1.7c-0.6-0.7,2.8-5.5,2.1-6.1c-0.7-0.6-5.2,3.2-5.9,2.6c-0.7-0.6,2-5.8,1.2-6.4c-0.8-0.5-4.7,3.9-5.5,3.4
		c-0.8-0.5,1.1-6.1,0.2-6.5c-0.8-0.4-4,4.5-4.9,4.2c-0.9-0.3,0.2-6.2-0.8-6.4c-0.9-0.3-3.3,5.1-4.2,4.9c-0.9-0.2-0.8-6.1-1.7-6.2
		c-0.9-0.1-2.5,5.5-3.5,5.5c-0.9-0.1-1.7-5.9-2.6-5.9c-1,0-1.7,5.9-2.6,5.9c-0.9,0.1-2.5-5.6-3.5-5.5c-0.9,0.1-0.8,6-1.7,6.2
		c-0.9,0.2-3.3-5.2-4.2-4.9c-0.9,0.3,0.1,6.1-0.8,6.4c-0.9,0.3-4.1-4.6-4.9-4.2c-0.9,0.4,1,6,0.2,6.5c-0.8,0.5-4.7-3.9-5.5-3.4
		c-0.8,0.5,1.9,5.8,1.2,6.4c-0.7,0.6-5.3-3.2-5.9-2.6c-0.7,0.6,2.8,5.4,2.1,6.1c-0.6,0.7-5.7-2.4-6.3-1.7c-0.6,0.7,3.5,5,3,5.7
		c-0.5,0.8-6-1.5-6.4-0.7c-0.5,0.8,4.2,4.4,3.8,5.2c-0.4,0.8-6.1-0.6-6.5,0.3c-0.3,0.9,4.8,3.7,4.6,4.6c-0.3,0.9-6.1,0.3-6.4,1.2
		c-0.2,0.9,5.3,2.9,5.2,3.9c-0.1,0.9-6,1.2-6.1,2.2c-0.1,0.9,5.7,2.1,5.7,3c0,1-5.8,2.1-5.7,3c0.1,0.9,6,1.2,6.1,2.2
		c0.1,0.9-5.4,2.9-5.2,3.9c0.2,0.9,6.1,0.3,6.4,1.2c0.3,0.9-4.9,3.7-4.6,4.6c0.3,0.9,6.1-0.6,6.5,0.3c0.4,0.9-4.3,4.4-3.8,5.2
		c0.5,0.8,5.9-1.5,6.4-0.7c0.5,0.8-3.6,5-3,5.7c0.6,0.7,5.6-2.3,6.3-1.7c0.6,0.7-2.8,5.5-2.1,6.1c0.7,0.6,5.2-3.2,5.9-2.6
		c0.7,0.6-2,5.8-1.2,6.4c0.8,0.5,4.7-3.9,5.5-3.4c0.8,0.5-1.1,6.1-0.2,6.5c0.8,0.4,4-4.5,4.9-4.2c0.9,0.3-0.2,6.2,0.8,6.4
		c0.9,0.3,3.3-5.1,4.2-4.9c0.9,0.2,0.8,6.1,1.7,6.2c0.9,0.1,2.5-5.5,3.5-5.5c0.9,0.1,1.7,5.9,2.6,5.9c1,0,1.7-5.9,2.6-5.9
		c0.9-0.1,2.5,5.6,3.5,5.5c0.9-0.1,0.8-6,1.7-6.2c0.9-0.2,3.3,5.2,4.2,4.9c0.9-0.3-0.1-6.1,0.8-6.4c0.9-0.3,4.1,4.6,4.9,4.2
		c0.9-0.4-1-6-0.2-6.5c0.8-0.5,4.7,3.9,5.5,3.4c0.8-0.5-1.9-5.8-1.2-6.4c0.7-0.6,5.3,3.2,5.9,2.6c0.7-0.6-2.8-5.4-2.1-6.1
		c0.6-0.7,5.7,2.4,6.3,1.7c0.6-0.7-3.5-5-3-5.7c0.5-0.8,6,1.5,6.4,0.7c0.5-0.8-4.2-4.4-3.8-5.2c0.4-0.8,6.1,0.6,6.5-0.3
		c0.3-0.9-4.8-3.7-4.6-4.6c0.3-0.9,6.1-0.3,6.4-1.2c0.2-0.9-5.3-2.9-5.2-3.9c0.1-0.9,6-1.2,6.1-2.2
		C325.3,259.9,319.5,258.8,319.5,257.8z"/>
</g>
<g>
	<path class="st1" d="M305,257.8c0-0.6,5.8-1.4,5.8-2c0-0.6-5.9-0.5-6-1.1c-0.1-0.6,5.5-2.2,5.4-2.8c-0.1-0.6-5.9,0.4-6.1-0.2
		c-0.2-0.6,5.1-3,4.9-3.6c-0.2-0.5-5.8,1.3-6,0.7c-0.3-0.5,4.6-3.8,4.3-4.3c-0.3-0.5-5.5,2.1-5.9,1.6c-0.3-0.5,4-4.4,3.6-4.9
		c-0.4-0.5-5.2,2.9-5.5,2.5c-0.4-0.4,3.3-5,2.9-5.3c-0.4-0.4-4.7,3.6-5.1,3.3c-0.5-0.4,2.5-5.4,2.1-5.7c-0.5-0.3-4.1,4.3-4.6,4
		c-0.5-0.3,1.7-5.7,1.2-6c-0.5-0.3-3.4,4.9-3.9,4.6c-0.5-0.2,0.8-5.9,0.3-6.1c-0.6-0.2-2.6,5.3-3.2,5.2c-0.6-0.1-0.1-6-0.6-6
		c-0.6-0.1-1.8,5.6-2.4,5.6c-0.6,0-0.9-5.9-1.5-5.9c-0.6,0-1,5.8-1.5,5.9c-0.6,0-1.8-5.7-2.4-5.6c-0.6,0.1-0.1,5.9-0.6,6
		c-0.6,0.1-2.6-5.3-3.2-5.2c-0.6,0.2,0.8,5.9,0.3,6.1c-0.5,0.2-3.4-4.9-3.9-4.6c-0.5,0.3,1.7,5.7,1.2,6c-0.5,0.3-4.1-4.3-4.6-4
		c-0.5,0.3,2.5,5.4,2.1,5.7c-0.5,0.4-4.7-3.7-5.1-3.3c-0.4,0.4,3.3,4.9,2.9,5.3c-0.4,0.4-5.2-2.9-5.5-2.5c-0.4,0.5,4,4.4,3.6,4.9
		c-0.3,0.5-5.6-2.1-5.9-1.6c-0.3,0.5,4.6,3.7,4.3,4.3c-0.3,0.5-5.8-1.3-6-0.7c-0.2,0.5,5.1,3,4.9,3.6c-0.2,0.6-5.9-0.4-6.1,0.2
		c-0.1,0.6,5.5,2.2,5.4,2.8c-0.1,0.6-5.9,0.5-6,1.1c0,0.6,5.8,1.4,5.8,2c0,0.6-5.8,1.4-5.8,2c0,0.6,5.9,0.5,6,1.1
		c0.1,0.6-5.5,2.2-5.4,2.8c0.1,0.6,5.9-0.4,6.1,0.2c0.2,0.6-5.1,3-4.9,3.6c0.2,0.5,5.8-1.3,6-0.7c0.3,0.5-4.6,3.8-4.3,4.3
		c0.3,0.5,5.5-2.1,5.9-1.6c0.3,0.5-4,4.4-3.6,4.9c0.4,0.5,5.2-2.9,5.5-2.5c0.4,0.4-3.3,5-2.9,5.3c0.4,0.4,4.7-3.6,5.1-3.3
		c0.5,0.4-2.5,5.4-2.1,5.7c0.5,0.3,4.1-4.3,4.6-4c0.5,0.3-1.7,5.7-1.2,6c0.5,0.3,3.4-4.9,3.9-4.6c0.5,0.2-0.8,5.9-0.3,6.1
		c0.6,0.2,2.6-5.3,3.2-5.2c0.6,0.1,0.1,6,0.6,6c0.6,0.1,1.8-5.6,2.4-5.6c0.6,0,0.9,5.9,1.5,5.9c0.6,0,1-5.8,1.5-5.9
		c0.6,0,1.8,5.7,2.4,5.6c0.6-0.1,0.1-5.9,0.6-6c0.6-0.1,2.6,5.3,3.2,5.2c0.6-0.2-0.8-5.9-0.3-6.1c0.5-0.2,3.4,4.9,3.9,4.6
		c0.5-0.3-1.7-5.7-1.2-6c0.5-0.3,4.1,4.3,4.6,4c0.5-0.3-2.5-5.4-2.1-5.7c0.5-0.4,4.7,3.7,5.1,3.3c0.4-0.4-3.3-4.9-2.9-5.3
		c0.4-0.4,5.2,2.9,5.5,2.5c0.4-0.5-4-4.4-3.6-4.9c0.3-0.5,5.6,2.1,5.9,1.6c0.3-0.5-4.6-3.7-4.3-4.3c0.3-0.5,5.8,1.3,6,0.7
		c0.2-0.5-5.1-3-4.9-3.6c0.2-0.6,5.9,0.4,6.1-0.2c0.1-0.6-5.5-2.2-5.4-2.8c0.1-0.6,5.9-0.5,6-1.1C310.8,259.2,305,258.4,305,257.8z"
		/>
</g>
<g class="st3">
	<path class="st4" d="M281.8,251.5c0.1,0.2,0.1,0.5,0.1,0.8c0,0.5-0.3,0.8-0.8,0.8h-3.7v0.9l-0.1,1.7c0.5-0.2,1-0.3,1.5-0.3
		c1.1,0,1.9,0.3,2.6,1c0.6,0.6,1,1.6,1,2.8c0,0.6-0.1,1.2-0.3,1.6c-0.2,0.5-0.5,0.9-0.9,1.3c-0.4,0.3-0.8,0.6-1.3,0.8
		c-0.5,0.2-1,0.3-1.5,0.3c-1.3,0-2.4-0.4-3.3-1.1c0-0.2,0.1-0.4,0.3-0.7c0.2-0.2,0.3-0.4,0.5-0.6c0.4,0.3,0.8,0.5,1.2,0.6
		c0.4,0.1,0.8,0.2,1.1,0.2c0.7,0,1.2-0.2,1.7-0.7c0.4-0.5,0.6-1.1,0.6-1.9c0-0.4-0.1-0.8-0.2-1.1c-0.1-0.3-0.3-0.5-0.5-0.7
		c-0.2-0.2-0.4-0.3-0.7-0.4c-0.2-0.1-0.5-0.1-0.8-0.1c-0.3,0-0.6,0.1-1,0.2c-0.3,0.1-0.7,0.3-1,0.6c-0.2,0-0.3-0.1-0.5-0.2
		c-0.2-0.1-0.3-0.3-0.4-0.4l0.2-5.3l0.1-0.1H281.8z"/>
	<path class="st4" d="M289.9,256.6l2.7,0c0.9,0,1.3,0.4,1.3,1.2v4.5c-1.3,0.5-2.7,0.8-4.3,0.8c-0.9,0-1.6-0.2-2.3-0.5
		c-0.7-0.3-1.2-0.8-1.6-1.3c-0.7-1.1-1.1-2.6-1.1-4.3c0-1.1,0.1-2,0.4-2.9c0.3-0.8,0.7-1.5,1.2-2c1-1,2.2-1.5,3.6-1.5
		c1.6,0,2.9,0.4,4.1,1.3c-0.1,0.6-0.4,1-0.9,1.4c-1-0.7-2-1.1-3.2-1.1c-1,0-1.7,0.4-2.3,1.1c-0.6,0.8-0.9,1.9-0.9,3.6
		c0,3,1.1,4.6,3.3,4.6c0.8,0,1.6-0.1,2.2-0.3v-2c0-0.5,0-0.9,0-1.1h-1.5c-0.6,0-0.9-0.3-0.9-0.8
		C289.8,257.1,289.8,256.8,289.9,256.6z"/>
</g>
</svg>
