<?xml version="1.0" encoding="utf-8"?>
<!-- Generator: Adobe Illustrator 22.0.0, SVG Export Plug-In . SVG Version: 6.00 Build 0)  -->
<svg version="1.1" id="Layer_1" xmlns="http://www.w3.org/2000/svg" xmlns:xlink="http://www.w3.org/1999/xlink" x="0px" y="0px"
	 viewBox="0 0 200 74" style="enable-background:new 0 0 200 74;" xml:space="preserve">
<style type="text/css">
	.st0{fill:#0F5936;}
	.st1{fill:#4B8368;}
	.st2{fill:#87AB9A;}
</style>
<g>
	<path class="st0" d="M21.4,49.9c-2.7,1-5.7,0.8-8-0.4c-1.6-0.9-2.9-1.9-3.5-2.9c-0.1,0.2-0.8,1-1.1,1.4l-4.2,5L0,51.8l15.4-18.4
		c1.7-2,2.2-3.2,2.4-4.5l4.5,0.4c0,0.9-0.5,2.4-1.4,3.5c2.6-1.1,5.6-1,7.8,0.1c3.1,1.7,3.5,4.9,1.6,8.5
		C28.5,44.8,24.7,48.7,21.4,49.9z M25.3,35.6c-1.4-0.8-3.9-0.7-6.7,0.8l-6.2,7.4c0.3,0.9,1.3,1.9,2.5,2.5c1.6,0.9,3.4,0.6,4.6,0
		c2.5-1.3,5.2-4.5,6.5-6.8C27,37.5,26.8,36.4,25.3,35.6z"/>
	<path class="st0" d="M43.3,37.5l-8.8,13.9c-0.9,1.4-1.3,2-1.4,2.5c-0.2,0.7-0.1,1.1,0.5,1.3c0.2,0.1,0.4,0.2,0.6,0.2l-0.7,2.6
		c-1,0-1.9-0.2-2.9-0.5c-2.1-0.8-2.8-2.3-2.1-4.1c0.2-0.6,0.7-1.5,1.3-2.5l9-14.2c1.4-2.3,2.3-4,2.4-5.4l4.8,0.2
		C45.9,32.6,44.7,35.3,43.3,37.5z"/>
	<path class="st0" d="M58,50.6l-3.3,6.9c-1,2.1-1,3.1-0.4,4.3l-3.9,1.6c-0.8-1-0.9-2.2-0.6-3.4c-1.8,1.5-3.9,2.1-6.2,1.5
		c-2.9-0.7-4.3-3.1-3.3-7.1c1-4.1,3.5-7.7,6.5-9.5c2.5-1.5,5.1-1.9,8-1.2c2.1,0.5,4.1,1.5,5.3,2.8C59.5,47.5,58.5,49.3,58,50.6z
		 M53.5,46.9c-1.6-0.4-2.9-0.3-4.7,1c-2.1,1.6-3.8,5-4.4,7.6c-0.5,2,0,2.9,1.3,3.3c1.7,0.4,3.9-0.8,5.2-2.5l4.2-8.6
		C54.8,47.3,54.1,47,53.5,46.9z"/>
	<path class="st0" d="M68.3,64.7c-2.5,3.5-4,5.6-5.9,6.5c-1.3,0.7-2.8,1.1-4.4,1.2l-0.5-2.7c1.1-0.1,2.4-0.5,3.3-1
		c1.3-0.7,2-1.6,3.2-3.4l-1.2-0.1c0.1-1.3,0.3-4.1,0.2-5.7l-0.2-12.4l4.1-0.1L66.7,58c0,1.4-0.2,3.3-0.3,4.1l0,0
		c0.5-0.9,1.6-2.8,2.7-4.5l6.3-9.4l4.3,0.5L68.3,64.7z"/>
	<path class="st1" d="M93.5,54.1L92.2,61c-0.4,2.1-0.2,3,0.7,3.9l-3,2.3c-0.9-0.7-1.3-1.7-1.3-2.8c-1.2,1.7-2.9,2.7-5.1,2.7
		c-2.7,0-4.5-1.8-4.5-5.5c0-3.8,1.3-7.6,3.5-9.9c1.8-1.9,4-2.9,6.8-2.9c2,0,4,0.4,5.3,1.2C94.2,51.1,93.7,52.9,93.5,54.1z
		 M88.7,51.9c-1.5,0-2.6,0.4-3.9,2c-1.5,1.9-2.2,5.2-2.1,7.7c0,1.9,0.6,2.6,1.9,2.6c1.6,0,3.3-1.6,4-3.4l1.7-8.5
		C90,52,89.3,51.9,88.7,51.9z"/>
	<path class="st1" d="M113.4,64.5l-3.2,0.5l-1.2-6c-0.8-3.9-1-5.4-1-6.1l-0.1,0c-0.1,0.3-0.1,0.6-0.3,1.4c-0.2,0.8-0.9,3.1-1.2,4.2
		l-2.3,7.4l-3.3,0.5l-3.3-16l3.4-1l1.3,8.2c0.3,1.7,0.5,4.1,0.5,4.1l0,0c0.1-0.4,0.6-2.6,1.2-4.5l2.7-8.3l3.4-0.5l1.5,7.7
		c0.4,2.1,0.6,4.3,0.6,4.3l0,0c0.1-0.5,0.6-2.8,1-4.3l2.3-8.5l3.7-0.5L113.4,64.5z"/>
	<path class="st1" d="M132.6,48l0.5,6.3c0.1,1.9,0.5,2.6,1.5,3.2l-2.1,2.8c-1-0.4-1.5-1.2-1.8-2.1c-0.6,1.8-1.9,3.1-3.8,3.6
		c-2.3,0.7-4.3-0.4-5.3-3.7c-1-3.3-0.7-6.9,0.7-9.4c1.1-2.1,2.8-3.5,5.2-4.1c1.7-0.5,3.5-0.6,4.9-0.2
		C132.4,45.2,132.5,46.9,132.6,48z M127.9,47.2c-1.3,0.4-2.2,1-2.9,2.6c-0.9,2-0.6,5.1,0,7.2c0.5,1.6,1.2,2.1,2.3,1.8
		c1.4-0.4,2.5-2.2,2.7-3.9l-0.5-7.8C129,47,128.4,47.1,127.9,47.2z"/>
	<path class="st1" d="M145.8,53.9c-0.4,3.4-0.7,5.5-1.6,6.9c-0.6,1-1.6,1.9-2.6,2.6l-1.4-1.7c0.7-0.5,1.5-1.3,1.9-2
		c0.6-1,0.8-1.9,0.9-3.7l-0.9,0.4c-0.4-1-1.4-3-2.1-4.1l-5-8.7l2.9-1.7l4.2,7.9c0.5,1,1.2,2.5,1.4,3l0,0c0-0.8,0-2.6,0.2-4.2
		l0.7-9.2l3.2-1.3L145.8,53.9z"/>
	<path class="st2" d="M157.7,36.5c-1.3,0-2.4,0.2-3.3,0.8c-1.3,0.7-1.9,1.7-1.4,2.7c0.4,0.6,0.9,0.9,2.1,0.7l1.7-0.2
		c1.8-0.2,3.2,0.1,4,1.5c1.4,2.5,0.5,5.7-3,7.6c-1.7,0.9-3.5,1.3-5.1,1.2l0-2.5c1.4,0.1,3.1-0.1,4.4-0.9c1.3-0.7,1.9-2,1.3-3
		c-0.4-0.8-1.1-0.9-2.4-0.7l-1.7,0.2c-1.7,0.2-3-0.1-3.9-1.6c-1.2-2.1-0.6-5.1,2.9-7c1.4-0.8,3-1.1,4.3-1.1L157.7,36.5z"/>
	<path class="st2" d="M166.2,30.7l-2,1.4l2.8,6.6c0.2,0.5,0.4,0.8,0.6,1.1c0.5,0.7,0.9,0.7,1.6,0.2c0.3-0.2,0.7-0.6,0.9-1l1,1.4
		c-0.5,0.8-1.2,1.5-1.9,2c-1.4,1-2.7,0.8-3.5-0.3c-0.3-0.4-0.6-1-0.9-1.6l-3-7l-1.2,0.8l-0.8-1.9l1.2-0.8c-0.5-1.1-0.8-2.1-1.1-3.1
		l2-2.3c0.3,1.1,0.9,2.6,1.3,3.8l2.5-1.8L166.2,30.7z"/>
	<path class="st2" d="M174.3,25.7c-0.3,0-0.5,0.2-0.8,0.4c-0.6,0.5-0.9,1.6-0.8,3.4l3.7,7l-2,1.7l-3.9-7.3c-0.8-1.5-1.4-2.2-2.1-2.7
		l1.2-2.3c0.6,0.3,1.3,1,1.7,1.7c-0.1-1.8,0.4-3.3,1.3-4c0.3-0.3,0.5-0.4,0.9-0.5L174.3,25.7z"/>
	<path class="st2" d="M183.9,20.9c0,1.3-0.7,2.8-2.3,4.4c-0.4,0.4-0.9,0.8-1,0.9c0.1,0.2,0.5,0.7,0.8,0.9c1,1,2.1,0.9,2.9,0
		c0.8-0.8,1.2-1.8,1.3-3.1l1.6,0.5c-0.1,1.7-0.7,3-2,4.4c-1.7,1.7-3.8,1.9-5.7,0c-1.6-1.6-2.7-4-2.7-6.1c0-1.5,0.5-2.8,1.5-3.8
		c1.5-1.6,3.2-1.8,4.6-0.5C183.6,19.2,183.9,20,183.9,20.9z M179.4,20.5c-0.9,0.9-0.9,2.4,0.3,4.2c0.1-0.1,0.5-0.4,0.7-0.7
		c0.9-1,1.4-1.8,1.4-2.5c0-0.4-0.1-0.8-0.5-1.1C180.8,19.9,180.1,19.8,179.4,20.5z"/>
	<path class="st2" d="M188.9,11.1c-0.9,0.4-1.6,0.9-2.1,1.5c-0.6,0.9-0.8,1.7-0.1,2.3c0.4,0.3,0.9,0.3,1.6-0.2l1.1-0.7
		c1.2-0.7,2.2-0.9,3.2-0.2c1.7,1.3,2.1,3.7,0.3,6.1c-0.9,1.1-2,2-3.2,2.4l-0.8-1.7c1-0.3,2.1-1,2.7-2c0.7-0.9,0.7-2,0-2.5
		c-0.5-0.4-1-0.3-1.9,0.2l-1.1,0.7c-1.1,0.7-2.1,0.8-3.2,0.1c-1.5-1.1-1.9-3.3-0.1-5.7c0.7-1,1.7-1.7,2.6-2L188.9,11.1z"/>
	<path class="st2" d="M194.5,3c-0.8,0.5-1.3,1-1.7,1.6c-0.5,0.9-0.5,1.7,0.2,2.1c0.4,0.3,0.9,0.2,1.5-0.3l0.9-0.8
		c1-0.8,1.9-1.1,2.9-0.6c1.7,1,2.3,3.1,0.9,5.6c-0.6,1.1-1.6,2-2.6,2.5l-0.9-1.5c0.9-0.4,1.7-1.2,2.3-2.1c0.5-0.9,0.4-1.9-0.3-2.3
		c-0.5-0.3-1-0.2-1.7,0.4l-0.9,0.7c-0.9,0.8-1.8,1-2.9,0.4c-1.4-0.8-2.2-2.8-0.8-5.2c0.6-1,1.4-1.7,2.2-2.2L194.5,3z"/>
</g>
</svg>
