<?xml version="1.0" encoding="utf-8"?>
<!-- Generator: Adobe Illustrator 22.0.0, SVG Export Plug-In . SVG Version: 6.00 Build 0)  -->
<svg version="1.1" id="Layer_1" xmlns="http://www.w3.org/2000/svg" xmlns:xlink="http://www.w3.org/1999/xlink" x="0px" y="0px"
	 viewBox="0 0 362.4 267.2" style="enable-background:new 0 0 362.4 267.2;" xml:space="preserve">
<style type="text/css">
	
		.st0{opacity:0.7;fill-rule:evenodd;clip-rule:evenodd;fill:none;stroke:url(#SVGID_1_);stroke-width:4;stroke-linecap:round;stroke-miterlimit:10;}
	.st1{opacity:0.2;}
	.st2{fill:#009632;}
	.st3{opacity:0.6;}
	.st4{opacity:0.8;}
	.st5{fill:#575757;}
	.st6{font-family:'Signika-Light';}
	.st7{font-size:11.5px;}
	.st8{opacity:0.2;fill:#009632;}
	.st9{opacity:0.6;fill:#009632;}
	
		.st10{opacity:0.7;fill-rule:evenodd;clip-rule:evenodd;fill:none;stroke:url(#SVGID_2_);stroke-width:4;stroke-linecap:round;stroke-miterlimit:10;}
	.st11{opacity:0.4;}
	.st12{opacity:0.4;fill:#009632;}
	.st13{opacity:0.8;fill:url(#SVGID_3_);}
</style>
<linearGradient id="SVGID_1_" gradientUnits="userSpaceOnUse" x1="24.3392" y1="116.3506" x2="288.6391" y2="116.3506">
	<stop  offset="0" style="stop-color:#009632;stop-opacity:0.2"/>
	<stop  offset="0.999" style="stop-color:#009632"/>
</linearGradient>
<path class="st0" d="M26.3,146.4c104.6,61.1,227.4-17.4,260.3-82.1"/>
<g class="st1">
	<path class="st2" d="M188.8,151.9c-0.9-3,0.4-7-1.1-9.6c-1.6-2.7-5.7-3.3-7.9-5.5c-2.2-2.1-3.1-6.2-5.8-7.7c-2.7-1.5-6.6,0-9.6-0.8
		c-3-0.7-5.7-3.9-8.9-3.8c-3,0.1-5.7,3.3-8.7,4.2c-3,0.9-7-0.4-9.6,1.1c-2.7,1.6-3.3,5.7-5.5,7.9c-2.1,2.2-6.2,3.1-7.7,5.8
		c-1.5,2.7,0,6.6-0.8,9.6c-0.7,3-3.9,5.7-3.8,8.9c0.1,3,3.3,5.7,4.2,8.7c0.9,3-0.4,7,1.1,9.6c1.6,2.7,5.7,3.3,7.9,5.5
		c2.2,2.1,3.1,6.2,5.8,7.7c2.7,1.5,6.6,0,9.6,0.8c3,0.7,5.7,3.9,8.9,3.8c3-0.1,5.7-3.3,8.7-4.2c3-0.9,7,0.4,9.6-1.1
		c2.7-1.6,3.3-5.7,5.5-7.9c2.1-2.2,6.2-3.1,7.7-5.8c1.5-2.7,0-6.6,0.8-9.6c0.7-3,3.9-5.7,3.8-8.9
		C192.9,157.6,189.6,154.9,188.8,151.9z"/>
</g>
<g class="st3">
	<path class="st2" d="M187.3,161.3c0-2.9,2.2-6.1,1.5-8.7c-0.7-2.8-4.2-4.4-5.6-6.8c-1.4-2.5-1.1-6.3-3.1-8.3c-2-2-5.8-1.7-8.3-3.1
		c-2.4-1.4-4.1-4.9-6.8-5.6c-2.7-0.7-5.8,1.5-8.7,1.5c-2.9,0-6.1-2.2-8.7-1.5c-2.8,0.7-4.4,4.2-6.8,5.6c-2.5,1.4-6.3,1.1-8.3,3.1
		c-2,2-1.7,5.8-3.1,8.3c-1.4,2.4-4.9,4.1-5.6,6.8c-0.7,2.7,1.5,5.8,1.5,8.7c0,2.9-2.2,6.1-1.5,8.7c0.7,2.8,4.2,4.4,5.6,6.8
		c1.4,2.5,1.1,6.3,3.1,8.3c2,2,5.8,1.7,8.3,3.1c2.4,1.4,4.1,4.9,6.8,5.6c2.7,0.7,5.8-1.5,8.7-1.5c2.9,0,6.1,2.2,8.7,1.5
		c2.8-0.7,4.4-4.2,6.8-5.6c2.5-1.4,6.3-1.1,8.3-3.1c2-2,1.7-5.8,3.1-8.3c1.4-2.4,4.9-4.1,5.6-6.8
		C189.5,167.3,187.3,164.2,187.3,161.3z"/>
</g>
<g class="st1">
	<path class="st2" d="M50,139.6c-0.6-2.2,0.3-5.1-0.8-7c-1.2-1.9-4.2-2.4-5.8-4c-1.6-1.6-2.2-4.5-4.2-5.6c-2-1.1-4.8,0-7-0.6
		c-2.2-0.5-4.2-2.8-6.4-2.8c-2.2,0-4.1,2.4-6.3,3c-2.2,0.6-5.1-0.3-7,0.8c-1.9,1.2-2.4,4.2-4,5.8C7,130.9,4,131.5,3,133.5
		c-1.1,2,0,4.8-0.6,7c-0.5,2.2-2.8,4.2-2.8,6.4c0,2.2,2.4,4.1,3,6.3c0.6,2.2-0.3,5.1,0.8,7c1.2,1.9,4.2,2.4,5.8,4
		c1.6,1.6,2.2,4.5,4.2,5.6c2,1.1,4.8,0,7,0.6c2.2,0.5,4.2,2.8,6.4,2.8c2.2,0,4.1-2.4,6.3-3c2.2-0.6,5.1,0.3,7-0.8
		c1.9-1.2,2.4-4.2,4-5.8c1.6-1.6,4.5-2.2,5.6-4.2c1.1-2,0-4.8,0.6-7c0.5-2.2,2.8-4.2,2.8-6.4C53,143.7,50.7,141.8,50,139.6z"/>
</g>
<g class="st1">
	<path class="st2" d="M49,146.4c0-2.1,1.6-4.4,1.1-6.4c-0.5-2-3.1-3.2-4.1-5c-1-1.8-0.8-4.6-2.3-6c-1.5-1.5-4.2-1.2-6-2.3
		c-1.8-1-3-3.6-5-4.1c-1.9-0.5-4.2,1.1-6.4,1.1c-2.1,0-4.4-1.6-6.4-1.1c-2,0.5-3.2,3.1-5,4.1c-1.8,1-4.6,0.8-6,2.3
		c-1.5,1.5-1.2,4.2-2.3,6c-1,1.8-3.6,3-4.1,5c-0.5,1.9,1.1,4.2,1.1,6.4c0,2.1-1.6,4.4-1.1,6.4c0.5,2,3.1,3.2,4.1,5
		c1,1.8,0.8,4.6,2.3,6c1.5,1.5,4.2,1.2,6,2.3c1.8,1,3,3.6,5,4.1c1.9,0.5,4.2-1.1,6.4-1.1c2.1,0,4.4,1.6,6.4,1.1c2-0.5,3.2-3.1,5-4.1
		c1.8-1,4.6-0.8,6-2.3c1.5-1.5,1.2-4.2,2.3-6c1-1.8,3.6-3,4.1-5C50.6,150.8,49,148.5,49,146.4z"/>
</g>
<g class="st1">
	<path class="st2" d="M328.1,52.3c-1.1-3.9,0.6-8.9-1.4-12.2c-2.1-3.4-7.3-4.3-10.1-7c-2.8-2.7-3.9-7.9-7.3-9.8
		c-3.4-1.9-8.4,0-12.2-1c-3.8-0.9-7.3-4.9-11.3-4.9c-3.8,0.1-7.2,4.2-11.1,5.3c-3.9,1.1-8.9-0.6-12.2,1.4c-3.4,2.1-4.3,7.3-7,10.1
		c-2.7,2.8-7.9,3.9-9.8,7.3c-1.9,3.4,0,8.4-1,12.2c-0.9,3.8-4.9,7.3-4.9,11.3c0.1,3.8,4.2,7.2,5.3,11.1c1.1,3.9-0.6,8.9,1.4,12.2
		c2.1,3.4,7.3,4.3,10.1,7c2.8,2.7,3.9,7.9,7.3,9.8s8.4,0,12.2,1c3.8,0.9,7.3,4.9,11.3,4.9c3.8-0.1,7.2-4.2,11.1-5.3
		c3.9-1.1,8.9,0.6,12.2-1.4c3.4-2.1,4.3-7.3,7-10.1c2.7-2.8,7.9-3.9,9.8-7.3c1.9-3.4,0-8.4,1-12.2c0.9-3.8,4.9-7.3,4.9-11.3
		C333.3,59.6,329.2,56.2,328.1,52.3z"/>
</g>
<g class="st4">
	<path class="st2" d="M326.3,64.3c0-3.7,2.8-7.7,1.9-11.1c-0.9-3.5-5.4-5.6-7.2-8.7c-1.8-3.1-1.4-8-4-10.5c-2.5-2.5-7.4-2.2-10.5-4
		c-3.1-1.8-5.2-6.2-8.7-7.2c-3.4-0.9-7.4,1.9-11.1,1.9c-3.7,0-7.7-2.8-11.1-1.9c-3.5,0.9-5.6,5.4-8.7,7.2c-3.1,1.8-8,1.4-10.5,4
		c-2.5,2.5-2.2,7.4-4,10.5c-1.8,3.1-6.2,5.2-7.2,8.7c-0.9,3.4,1.9,7.4,1.9,11.1c0,3.7-2.8,7.7-1.9,11.1c0.9,3.5,5.4,5.6,7.2,8.7
		c1.8,3.1,1.4,8,4,10.5c2.5,2.5,7.4,2.2,10.5,4c3.1,1.8,5.2,6.2,8.7,7.2c3.4,0.9,7.4-1.9,11.1-1.9c3.7,0,7.7,2.8,11.1,1.9
		c3.5-0.9,5.6-5.4,8.7-7.2c3.1-1.8,8-1.4,10.5-4c2.5-2.5,2.2-7.4,4-10.5c1.8-3.1,6.2-5.2,7.2-8.7C329.1,72,326.3,68,326.3,64.3z"/>
</g>
<g>
	<text transform="matrix(1 0 0 1 10.93 231.53)" class="st5 st6 st7">Aktivierung</text>
</g>
<g>
	<text transform="matrix(1 0 0 1 131.4778 231.5304)" class="st5 st6 st7">Verankerung</text>
</g>
<g>
	<text transform="matrix(1 0 0 1 252.9635 217.7302)"><tspan x="0" y="0" class="st5 st6 st7">vitalisierende </tspan><tspan x="0" y="13.8" class="st5 st6 st7">Gewohnheiten</tspan></text>
</g>
<text transform="matrix(1 0 0 1 10.9304 262.9354)" class="st8 st6 st7">6 Wochen</text>
<text transform="matrix(1 0 0 1 131.8086 262.9354)" class="st9 st6 st7">6 Wochen</text>
<text transform="matrix(1 0 0 1 253.0236 262.9353)" class="st2 st6 st7">wirken im Alttag &gt;</text>
<linearGradient id="SVGID_2_" gradientUnits="userSpaceOnUse" x1="-384.2981" y1="107.9504" x2="-81.3342" y2="107.9504">
	<stop  offset="0" style="stop-color:#009632;stop-opacity:0.2"/>
	<stop  offset="0.999" style="stop-color:#009632"/>
</linearGradient>
<path class="st10" d="M-382.3,153.6c141.9,51,256-33.3,299-106.8"/>
<g class="st1">
	<path class="st2" d="M-367.5,149.3c-0.4-1.4,0.2-3.2-0.5-4.4c-0.7-1.2-2.6-1.5-3.6-2.5c-1-1-1.4-2.8-2.6-3.5c-1.2-0.7-3,0-4.4-0.3
		c-1.3-0.3-2.6-1.8-4-1.7c-1.4,0-2.6,1.5-4,1.9c-1.4,0.4-3.2-0.2-4.4,0.5c-1.2,0.7-1.5,2.6-2.5,3.6c-1,1-2.8,1.4-3.5,2.6
		c-0.7,1.2,0,3-0.3,4.4c-0.3,1.3-1.8,2.6-1.7,4c0,1.4,1.5,2.6,1.9,4c0.4,1.4-0.2,3.2,0.5,4.4c0.7,1.2,2.6,1.5,3.6,2.5
		c1,1,1.4,2.8,2.6,3.5c1.2,0.7,3,0,4.4,0.3c1.3,0.3,2.6,1.8,4,1.7c1.4,0,2.6-1.5,4-1.9c1.4-0.4,3.2,0.2,4.4-0.5
		c1.2-0.7,1.5-2.6,2.5-3.6c1-1,2.8-1.4,3.5-2.6c0.7-1.2,0-3,0.3-4.4c0.3-1.3,1.8-2.6,1.7-4C-365.6,151.9-367.1,150.7-367.5,149.3z"
		/>
</g>
<g class="st1">
	<path class="st2" d="M-368.1,153.6c0-1.3,1-2.8,0.7-4c-0.3-1.3-1.9-2-2.6-3.1c-0.6-1.1-0.5-2.9-1.4-3.8c-0.9-0.9-2.6-0.8-3.8-1.4
		c-1.1-0.6-1.8-2.2-3.1-2.6c-1.2-0.3-2.7,0.7-4,0.7c-1.3,0-2.8-1-4-0.7c-1.3,0.3-2,1.9-3.1,2.6c-1.1,0.6-2.9,0.5-3.8,1.4
		c-0.9,0.9-0.8,2.6-1.4,3.8c-0.6,1.1-2.2,1.8-2.6,3.1c-0.3,1.2,0.7,2.7,0.7,4c0,1.3-1,2.8-0.7,4c0.3,1.3,1.9,2,2.6,3.1
		c0.6,1.1,0.5,2.9,1.4,3.8c0.9,0.9,2.6,0.8,3.8,1.4c1.1,0.6,1.8,2.2,3.1,2.6c1.2,0.3,2.7-0.7,4-0.7c1.3,0,2.8,1,4,0.7
		c1.3-0.3,2-1.9,3.1-2.6c1.1-0.6,2.9-0.5,3.8-1.4c0.9-0.9,0.8-2.6,1.4-3.8c0.6-1.1,2.2-1.8,2.6-3.1
		C-367.1,156.3-368.1,154.9-368.1,153.6z"/>
</g>
<g class="st1">
	<path class="st2" d="M-150.5,131.1c-0.9-3,0.4-7-1.1-9.6c-1.6-2.7-5.7-3.3-7.9-5.5c-2.2-2.1-3.1-6.2-5.8-7.7
		c-2.7-1.5-6.6,0-9.6-0.8c-3-0.7-5.7-3.9-8.9-3.8c-3,0.1-5.7,3.3-8.7,4.2c-3,0.9-7-0.4-9.6,1.1c-2.7,1.6-3.3,5.7-5.5,7.9
		c-2.1,2.2-6.2,3.1-7.7,5.8c-1.5,2.7,0,6.6-0.8,9.6c-0.7,3-3.9,5.7-3.8,8.9c0.1,3,3.3,5.7,4.2,8.7c0.9,3-0.4,7,1.1,9.6
		c1.6,2.7,5.7,3.3,7.9,5.5c2.2,2.1,3.1,6.2,5.8,7.7c2.7,1.5,6.6,0,9.6,0.8c3,0.7,5.7,3.9,8.9,3.8c3-0.1,5.7-3.3,8.7-4.2
		c3-0.9,7,0.4,9.6-1.1c2.7-1.6,3.3-5.7,5.5-7.9c2.1-2.2,6.2-3.1,7.7-5.8c1.5-2.7,0-6.6,0.8-9.6c0.7-3,3.9-5.7,3.8-8.9
		C-146.4,136.8-149.6,134.2-150.5,131.1z"/>
</g>
<g class="st3">
	<path class="st2" d="M-151.9,140.5c0-2.9,2.2-6.1,1.5-8.7c-0.7-2.8-4.2-4.4-5.6-6.8c-1.4-2.5-1.1-6.3-3.1-8.3c-2-2-5.8-1.7-8.3-3.1
		c-2.4-1.4-4.1-4.9-6.8-5.6c-2.7-0.7-5.8,1.5-8.7,1.5c-2.9,0-6.1-2.2-8.7-1.5c-2.8,0.7-4.4,4.2-6.8,5.6c-2.5,1.4-6.3,1.1-8.3,3.1
		c-2,2-1.7,5.8-3.1,8.3c-1.4,2.4-4.9,4.1-5.6,6.8c-0.7,2.7,1.5,5.8,1.5,8.7c0,2.9-2.2,6.1-1.5,8.7c0.7,2.8,4.2,4.4,5.6,6.8
		c1.4,2.5,1.1,6.3,3.1,8.3c2,2,5.8,1.7,8.3,3.1c2.4,1.4,4.1,4.9,6.8,5.6c2.7,0.7,5.8-1.5,8.7-1.5c2.9,0,6.1,2.2,8.7,1.5
		c2.8-0.7,4.4-4.2,6.8-5.6c2.5-1.4,6.3-1.1,8.3-3.1s1.7-5.8,3.1-8.3c1.4-2.4,4.9-4.1,5.6-6.8C-149.7,146.6-151.9,143.4-151.9,140.5z
		"/>
</g>
<g class="st1">
	<path class="st2" d="M-258.9,161.5c-0.6-2.2,0.3-5.1-0.8-7c-1.2-1.9-4.2-2.4-5.8-4c-1.6-1.6-2.2-4.5-4.2-5.6c-2-1.1-4.8,0-7-0.6
		c-2.2-0.5-4.2-2.8-6.4-2.8c-2.2,0-4.1,2.4-6.3,3c-2.2,0.6-5.1-0.3-7,0.8c-1.9,1.2-2.4,4.2-4,5.8c-1.6,1.6-4.5,2.2-5.6,4.2
		c-1.1,2,0,4.8-0.6,7c-0.5,2.2-2.8,4.2-2.8,6.4c0,2.2,2.4,4.1,3,6.3c0.6,2.2-0.3,5.1,0.8,7c1.2,1.9,4.2,2.4,5.8,4
		c1.6,1.6,2.2,4.5,4.2,5.6c2,1.1,4.8,0,7,0.6c2.2,0.5,4.2,2.8,6.4,2.8c2.2,0,4.1-2.4,6.3-3c2.2-0.6,5.1,0.3,7-0.8
		c1.9-1.2,2.4-4.2,4-5.8c1.6-1.6,4.5-2.2,5.6-4.2c1.1-2,0-4.8,0.6-7c0.5-2.2,2.8-4.2,2.8-6.4C-256,165.6-258.3,163.7-258.9,161.5z"
		/>
</g>
<g class="st11">
	<path class="st2" d="M-260,168.3c0-2.1,1.6-4.4,1.1-6.4c-0.5-2-3.1-3.2-4.1-5c-1-1.8-0.8-4.6-2.3-6c-1.5-1.5-4.2-1.2-6-2.3
		c-1.8-1-3-3.6-5-4.1c-1.9-0.5-4.2,1.1-6.4,1.1c-2.1,0-4.4-1.6-6.4-1.1c-2,0.5-3.2,3.1-5,4.1c-1.8,1-4.6,0.8-6,2.3
		c-1.5,1.5-1.2,4.2-2.3,6c-1,1.8-3.6,3-4.1,5c-0.5,1.9,1.1,4.2,1.1,6.4c0,2.1-1.6,4.4-1.1,6.4c0.5,2,3.1,3.2,4.1,5
		c1,1.8,0.8,4.6,2.3,6c1.5,1.5,4.2,1.2,6,2.3c1.8,1,3,3.6,5,4.1c1.9,0.5,4.2-1.1,6.4-1.1c2.1,0,4.4,1.6,6.4,1.1c2-0.5,3.2-3.1,5-4.1
		c1.8-1,4.6-0.8,6-2.3c1.5-1.5,1.2-4.2,2.3-6c1-1.8,3.6-3,4.1-5C-258.4,172.7-260,170.4-260,168.3z"/>
</g>
<g class="st1">
	<path class="st2" d="M-41.9,34.8c-1.1-3.9,0.6-8.9-1.4-12.2c-2.1-3.4-7.3-4.3-10.1-7c-2.8-2.7-3.9-7.9-7.3-9.8
		c-3.4-1.9-8.4,0-12.2-1c-3.8-0.9-7.3-4.9-11.3-4.9c-3.8,0.1-7.2,4.2-11.1,5.3c-3.9,1.1-8.9-0.6-12.2,1.4c-3.4,2.1-4.3,7.3-7,10.1
		c-2.7,2.8-7.9,3.9-9.8,7.3c-1.9,3.4,0,8.4-1,12.2c-0.9,3.8-4.9,7.3-4.9,11.3c0.1,3.8,4.2,7.2,5.3,11.1c1.1,3.9-0.6,8.9,1.4,12.2
		c2.1,3.4,7.3,4.3,10.1,7c2.8,2.7,3.9,7.9,7.3,9.8c3.4,1.9,8.4,0,12.2,1c3.8,0.9,7.3,4.9,11.3,4.9c3.8-0.1,7.2-4.2,11.1-5.3
		c3.9-1.1,8.9,0.6,12.2-1.4c3.4-2.1,4.3-7.3,7-10.1c2.7-2.8,7.9-3.9,9.8-7.3c1.9-3.4,0-8.4,1-12.2c0.9-3.8,4.9-7.3,4.9-11.3
		C-36.6,42-40.7,38.7-41.9,34.8z"/>
</g>
<g class="st4">
	<path class="st2" d="M-43.7,46.8c0-3.7,2.8-7.7,1.9-11.1c-0.9-3.5-5.4-5.6-7.2-8.7c-1.8-3.1-1.4-8-4-10.5c-2.5-2.5-7.4-2.2-10.5-4
		c-3.1-1.8-5.2-6.2-8.7-7.2c-3.4-0.9-7.4,1.9-11.1,1.9c-3.7,0-7.7-2.8-11.1-1.9c-3.5,0.9-5.6,5.4-8.7,7.2c-3.1,1.8-8,1.4-10.5,4
		c-2.5,2.5-2.2,7.4-4,10.5c-1.8,3.1-6.2,5.2-7.2,8.7c-0.9,3.4,1.9,7.4,1.9,11.1c0,3.7-2.8,7.7-1.9,11.1c0.9,3.5,5.4,5.6,7.2,8.7
		c1.8,3.1,1.4,8,4,10.5c2.5,2.5,7.4,2.2,10.5,4c3.1,1.8,5.2,6.2,8.7,7.2c3.4,0.9,7.4-1.9,11.1-1.9c3.7,0,7.7,2.8,11.1,1.9
		c3.5-0.9,5.6-5.4,8.7-7.2c3.1-1.8,8-1.4,10.5-4c2.5-2.5,2.2-7.4,4-10.5c1.8-3.1,6.2-5.2,7.2-8.7C-40.9,54.5-43.7,50.5-43.7,46.8z"
		/>
</g>
<g>
	<text transform="matrix(1 0 0 1 -306.1343 235.4536)" class="st5 st6 st7">Aktivierung</text>
</g>
<g>
	<text transform="matrix(1 0 0 1 -396.15 235.4536)" class="st5 st6 st7">Kick Off</text>
</g>
<g>
	<text transform="matrix(1 0 0 1 -216.0612 235.453)" class="st5 st6 st7">Verankerung</text>
</g>
<g>
	<text transform="matrix(1 0 0 1 -126.1033 223.4536)"><tspan x="0" y="0" class="st5 st6 st7">vitalisierende </tspan><tspan x="0" y="13.8" class="st5 st6 st7">Gewohnheiten</tspan></text>
</g>
<g>
	<text transform="matrix(1 0 0 1 -396.1527 264.6854)" class="st2 st6 st7">1. Monat</text>
</g>
<g>
	<text transform="matrix(1 0 0 1 -306.1341 264.6854)" class="st2 st6 st7">2. Monat</text>
</g>
<g>
	<text transform="matrix(1 0 0 1 -216.1154 264.6854)" class="st2 st6 st7">3. Monat</text>
</g>
<g>
	<text transform="matrix(1 0 0 1 -126.0432 264.6853)" class="st2 st6 st7">wirken im Alttag &gt;</text>
</g>
<rect x="-398.4" y="245.8" class="st8" width="90" height="3.9"/>
<rect x="-308.3" y="245.8" class="st12" width="90" height="3.9"/>
<rect x="-218.3" y="245.8" class="st9" width="90" height="3.9"/>
<linearGradient id="SVGID_3_" gradientUnits="userSpaceOnUse" x1="-128.3708" y1="247.6959" x2="-38.4228" y2="247.6959">
	<stop  offset="0" style="stop-color:#009632"/>
	<stop  offset="1" style="stop-color:#004815"/>
</linearGradient>
<rect x="-128.4" y="245.8" class="st13" width="89.9" height="3.9"/>
<polygon class="st9" points="121.8,254.9 121.8,245.8 241.6,245.8 241.6,240.8 121.8,240.8 121.8,231.5 120.8,231.5 120.8,240.8 
	120.8,245.8 120.8,254.9 "/>
<path class="st8" d="M120.8,240.7c0,0-117.9,0-119.8,0v-9.2H0v9.2v5v9.2h1v-9.2h119.8V240.7z"/>
<path class="st2" d="M359.9,240.8H242.6v-9.3h-1v9.3v5v9.1h1v-9.1h117.3c1.4,0,2.5-1.1,2.5-2.5C362.4,241.9,361.3,240.8,359.9,240.8
	z"/>
</svg>
