<svg version="1.1" id="Layer_1" xmlns="http://www.w3.org/2000/svg" xmlns:xlink="http://www.w3.org/1999/xlink" x="0px" y="0px"
	 viewBox="0 0 1440 427" style="enable-background:new 0 0 1440 427;" xml:space="preserve">
<style type="text/css">
	.st0{fill:url(#SVGID_1_);}
	.st1{opacity:0.2;fill:#009632;}
	.st2{fill:#009632;}
	.st3{opacity:0.8;fill:#009632;}
	.st4{opacity:0.7;fill:#009632;}
	.st5{opacity:0.5;fill:#009632;}
	.st6{opacity:0.3;fill:#009632;}
	.st7{opacity:0.1;fill:#009632;}
</style>
<linearGradient id="SVGID_1_" gradientUnits="userSpaceOnUse" x1="83.9165" y1="214.022" x2="1356.4463" y2="214.022">
	<stop  offset="0" style="stop-color:#009632;stop-opacity:0.1"/>
	<stop  offset="1" style="stop-color:#009632"/>
</linearGradient>
<path class="st0" d="M515.4,346.2c-151.2,0-296.2-19.3-431.5-57.3l2.2-7.7c142.4,40.1,295.5,59.2,455.4,56.9
	c82.5-1.2,165.4-8.9,246.2-23c75.9-13.2,150.5-32,221.6-55.9c132.5-44.5,250.8-105.8,342.3-177.3l4.9,6.3
	c-92.2,72-211.3,133.8-344.7,178.6c-71.5,24-146.5,42.9-222.8,56.2C707.8,337,624.5,344.8,541.6,346
	C532.8,346.1,524.1,346.2,515.4,346.2z"/>
<g>
	<circle class="st1" cx="1355" cy="85" r="85"/>
	<circle class="st2" cx="1355" cy="85" r="65"/>
</g>
<g>
	<circle class="st1" cx="1101" cy="231" r="85"/>
	<circle class="st3" cx="1101" cy="231" r="65"/>
</g>
<g>
	<circle class="st1" cx="848" cy="306" r="85"/>
	<circle class="st4" cx="848" cy="306" r="65"/>
</g>
<g>
	<circle class="st1" cx="593" cy="342" r="85"/>
	<circle class="st5" cx="593" cy="342" r="65"/>
</g>
<g>
	<circle class="st1" cx="339" cy="332" r="85"/>
	<circle class="st6" cx="339" cy="332" r="65"/>
</g>
<g>
	<circle class="st1" cx="85" cy="285" r="85"/>
	<circle class="st7" cx="85" cy="285" r="65"/>
</g>
</svg>
