<?xml version="1.0" encoding="utf-8"?>
<!-- Generator: Adobe Illustrator 22.0.0, SVG Export Plug-In . SVG Version: 6.00 Build 0)  -->
<svg version="1.1" id="Layer_1" xmlns="http://www.w3.org/2000/svg" xmlns:xlink="http://www.w3.org/1999/xlink" x="0px" y="0px"
	 viewBox="0 0 500 680" style="enable-background:new 0 0 500 680;" xml:space="preserve">
<style type="text/css">
	.st0{fill:#62A5FF;}
	.st1{opacity:0.2;fill:#62A5FF;enable-background:new    ;}
</style>
<path class="st0" d="M382.3,403.6c-0.1-1.3-0.2-2.6-0.3-3.9c-0.1-0.8-0.1-1.7-0.2-2.5c-0.1-0.9-0.2-1.9-0.3-2.8
	c-7.1-62.3-54-126.5-76.9-161.1c-25.2-38.1-49.8-97-54.6-113.5c-4.8,16.5-29.4,75.4-54.6,113.5c-22.9,34.7-69.7,98.8-76.9,161.1
	c-0.1,0.9-0.2,1.9-0.3,2.8c-0.1,0.8-0.1,1.7-0.2,2.5c-0.1,1.3-0.2,2.6-0.3,3.9c-0.1,2.1-0.2,4.3-0.2,6.4
	c0,73.1,59.3,132.4,132.4,132.4S382.3,483.1,382.3,410C382.4,407.9,382.4,405.7,382.3,403.6z"/>
<path class="st1" d="M250,601.2c-105.4,0-191.2-85.8-191.2-191.2c0-3,0.1-6.2,0.2-9.3c0.1-1.9,0.2-3.6,0.3-4.9l0.1-1.2
	c0.1-1,0.1-2.1,0.2-3.1c0.1-1.3,0.3-2.4,0.4-3.6l0.1-0.5c8.1-70.5,52.7-136.7,79.3-176.3c2.5-3.7,4.8-7.2,6.9-10.4
	c21.7-32.8,43.8-85.9,47.2-97.5c7.3-25.1,30.3-42.4,56.5-42.4s49.2,17.3,56.5,42.4c3.4,11.6,25.5,64.7,47.2,97.5
	c2.1,3.2,4.5,6.7,6.9,10.4c26.6,39.6,71.2,105.8,79.3,176.3l0.1,0.5c0.1,1.2,0.3,2.3,0.4,3.5c0.1,1.1,0.2,2.2,0.3,3.2l0.1,1.1
	c0.1,1.3,0.2,3,0.3,5c0.2,3.1,0.2,6.2,0.2,9.2C441.2,515.4,355.4,601.2,250,601.2z M176.8,402.7L176.8,402.7c0,0.6-0.1,1-0.1,1.5
	l-0.1,0.9c0,0.4-0.1,0.9-0.1,1.3c-0.1,1.3-0.1,2.5-0.1,3.6c0,40.6,33,73.6,73.6,73.6s73.6-33,73.6-73.6c0-1.1,0-2.3-0.1-3.5
	c0,0,0,0,0-0.1c0-0.4-0.1-0.9-0.1-1.3l-0.1-0.9c0-0.5-0.1-0.9-0.1-1.4l-0.2-1.6c0-0.1,0-0.1,0-0.2c-4.8-42.1-39.4-93.5-60.1-124.3
	c-2.7-4-5.2-7.7-7.4-11.1c-1.8-2.8-3.7-5.7-5.5-8.6c-1.8,3-3.7,5.8-5.5,8.6c-2.3,3.4-4.8,7.2-7.5,11.1
	c-20.7,30.7-55.2,82.2-60.1,124.3c0,0.1,0,0.1,0,0.2L176.8,402.7z"/>
<path class="st1" d="M250,660c-66.8,0-129.6-26-176.8-73.2S0,476.8,0,410c0-4,0.1-8.1,0.3-12.2c0.1-2.8,0.3-5.2,0.4-6.7v-0.6
	c0.1-1.5,0.2-3,0.4-4.6c0-0.1,0-0.1,0-0.2c0.2-1.6,0.3-3.3,0.5-4.9v-0.3c9.8-84.6,59.3-158.3,88.9-202.3c2.4-3.6,4.6-6.9,6.7-10
	c17-25.7,36.2-70.7,39.9-82.2c14.8-49.9,60.6-84.1,112.7-84.1S347.7,36.1,362.5,86c3.8,11.5,23,56.5,39.9,82.2c2,3.1,4.3,6.4,6.7,10
	c29.6,44,79.1,117.6,88.9,202.2v0.3c0.2,1.6,0.4,3.3,0.5,4.9v0.1c0.2,1.6,0.3,3.1,0.4,4.7v0.4c0.1,1.6,0.3,3.9,0.4,6.8l0,0
	c0.2,4.1,0.3,8.2,0.3,12.2c0,66.8-26,129.6-73.2,176.8C379.6,634,316.8,660,250,660z M235.2,409.8c0,0.1,0,0.1,0,0.2
	c0,8.2,6.7,14.8,14.8,14.8c8.2,0,14.8-6.7,14.8-14.8c0,0,0-0.1,0-0.2l-0.1-1.1c0-0.2,0-0.3,0-0.5v-0.1c0-0.1,0-0.3,0-0.4
	c-1.3-11.1-7.1-25.3-14.6-39.9c-7.5,14.5-13.4,28.8-14.6,39.9c0,0.1,0,0.2,0,0.4v0.2c0,0.2,0,0.3,0,0.5L235.2,409.8z M235.2,409.2
	c0,0.1,0,0.1,0,0.2c0,0,0,0,0,0.1C235.2,409.3,235.2,409.2,235.2,409.2z M264.8,409.2c0,0.1,0,0.1,0,0.2l0,0
	C264.8,409.3,264.8,409.2,264.8,409.2z M362.8,86.6c0,0.1,0.1,0.2,0.1,0.3C362.9,86.8,362.9,86.7,362.8,86.6z M137.2,86.6
	c0,0.1-0.1,0.2-0.1,0.3C137.1,86.8,137.1,86.7,137.2,86.6z"/>
</svg>
