<?xml version="1.0" encoding="utf-8"?>
<!-- Generator: Adobe Illustrator 22.0.0, SVG Export Plug-In . SVG Version: 6.00 Build 0)  -->
<svg version="1.1" id="Layer_1" xmlns="http://www.w3.org/2000/svg" xmlns:xlink="http://www.w3.org/1999/xlink" x="0px" y="0px"
	 viewBox="0 0 366 270" style="enable-background:new 0 0 366 270;" xml:space="preserve">
<style type="text/css">
	
		.st0{opacity:0.7;fill:none;stroke:url(#SVGID_1_);stroke-width:4;stroke-linecap:round;stroke-miterlimit:10;enable-background:new    ;}
	.st1{opacity:0.2;}
	.st2{fill:#009632;}
	.st3{opacity:0.5;}
	.st4{opacity:0.8;}
	.st5{enable-background:new    ;}
	.st6{fill:url(#SVGID_2_);}
</style>
<g>
	
		<linearGradient id="SVGID_1_" gradientUnits="userSpaceOnUse" x1="27.2288" y1="157.9578" x2="318.4308" y2="157.9578" gradientTransform="matrix(1 0 0 -1 0 271.7795)">
		<stop  offset="0" style="stop-color:#009632;stop-opacity:0.2"/>
		<stop  offset="1" style="stop-color:#009632"/>
	</linearGradient>
	<path class="st0" d="M29.2,139.5c108.6,63.4,253.1-8.7,287.2-75.9"/>
	<g class="st1">
		<path class="st2" d="M208.4,146.3c-0.9-3.1,0.4-7.3-1.1-10c-1.7-2.8-5.9-3.4-8.2-5.7c-2.3-2.2-3.2-6.4-6-8c-2.8-1.6-6.8,0-10-0.8
			c-3.1-0.7-5.9-4-9.2-3.9c-3.1,0.1-5.9,3.4-9,4.4c-3.1,0.9-7.3-0.4-10,1.1c-2.8,1.7-3.4,5.9-5.7,8.2c-2.2,2.3-6.4,3.2-8,6
			c-1.6,2.8,0,6.8-0.8,10c-0.7,3.1-4,5.9-3.9,9.2c0.1,3.1,3.4,5.9,4.4,9c0.9,3.1-0.4,7.3,1.1,10c1.7,2.8,5.9,3.4,8.2,5.7
			c2.3,2.2,3.2,6.4,6,8c2.8,1.6,6.8,0,10,0.8c3.1,0.7,5.9,4,9.2,3.9c3.1-0.1,5.9-3.4,9-4.4c3.1-0.9,7.3,0.4,10-1.1
			c2.8-1.7,3.4-5.9,5.7-8.2c2.2-2.3,6.4-3.2,8-6s0-6.8,0.8-10c0.7-3.1,4-5.9,3.9-9.2C212.7,152.2,209.3,149.4,208.4,146.3z"/>
	</g>
	<g class="st3">
		<path class="st2" d="M206.9,156c0-3,2.3-6.3,1.6-9c-0.7-2.9-4.4-4.6-5.8-7.1c-1.5-2.6-1.1-6.5-3.2-8.6s-6-1.8-8.6-3.2
			c-2.5-1.5-4.3-5.1-7.1-5.8c-2.8-0.7-6,1.6-9,1.6c-3,0-6.3-2.3-9-1.6c-2.9,0.7-4.6,4.4-7.1,5.8c-2.6,1.5-6.5,1.1-8.6,3.2
			c-2.1,2.1-1.8,6-3.2,8.6c-1.5,2.5-5.1,4.3-5.8,7.1c-0.7,2.8,1.6,6,1.6,9s-2.3,6.3-1.6,9c0.7,2.9,4.4,4.6,5.8,7.1
			c1.5,2.6,1.1,6.5,3.2,8.6c2.1,2.1,6,1.8,8.6,3.2c2.5,1.5,4.3,5.1,7.1,5.8c2.8,0.7,6-1.6,9-1.6c3,0,6.3,2.3,9,1.6
			c2.9-0.7,4.6-4.4,7.1-5.8c2.6-1.5,6.5-1.1,8.6-3.2s1.8-6,3.2-8.6c1.5-2.5,5.1-4.3,5.8-7.1C209.2,162.3,206.9,159,206.9,156z"/>
	</g>
	<g class="st1">
		<path class="st2" d="M53.8,132.5c-0.6-2.3,0.3-5.3-0.8-7.3c-1.2-2-4.4-2.5-6-4.2c-1.7-1.7-2.3-4.7-4.4-5.8c-2.1-1.1-5,0-7.3-0.6
			c-2.3-0.5-4.4-2.9-6.6-2.9s-4.3,2.5-6.5,3.1s-5.3-0.3-7.3,0.8c-2,1.2-2.5,4.4-4.2,6c-1.6,1.8-4.7,2.4-5.7,4.5
			c-1.1,2.1,0,5-0.6,7.3c-0.5,2.3-2.9,4.4-2.9,6.6c0,2.3,2.5,4.3,3.1,6.5c0.6,2.3-0.3,5.3,0.8,7.3c1.2,2,4.4,2.5,6,4.2
			s2.3,4.7,4.4,5.8s5,0,7.3,0.6c2.3,0.5,4.4,2.9,6.6,2.9s4.3-2.5,6.5-3.1c2.3-0.6,5.3,0.3,7.3-0.8c2-1.2,2.5-4.4,4.2-6
			s4.7-2.3,5.8-4.4c1.1-2.1,0-5,0.6-7.3c0.5-2.3,2.9-4.4,2.9-6.6C56.9,136.7,54.6,134.7,53.8,132.5z"/>
	</g>
	<g class="st1">
		<path class="st2" d="M52.8,139.5c0-2.2,1.7-4.6,1.1-6.6c-0.5-2.1-3.2-3.3-4.3-5.2c-1-1.9-0.8-4.8-2.4-6.2
			c-1.6-1.6-4.4-1.2-6.2-2.4c-1.9-1-3.1-3.7-5.2-4.3c-2-0.5-4.4,1.1-6.6,1.1c-2.2,0-4.6-1.7-6.6-1.1c-2.1,0.5-3.3,3.2-5.2,4.3
			c-1.9,1-4.8,0.8-6.2,2.4c-1.6,1.6-1.2,4.4-2.4,6.2c-1,1.9-3.7,3.1-4.3,5.2c-0.5,2,1.1,4.4,1.1,6.6c0,2.2-1.7,4.6-1.1,6.6
			s3.2,3.3,4.3,5.2c1,1.9,0.8,4.8,2.4,6.2c1.6,1.6,4.4,1.2,6.2,2.4c1.9,1,3.1,3.7,5.2,4.3c2,0.5,4.4-1.1,6.6-1.1
			c2.2,0,4.6,1.7,6.6,1.1c2.1-0.5,3.3-3.2,5.2-4.3c1.9-1,4.8-0.8,6.2-2.4c1.6-1.6,1.2-4.4,2.4-6.2c1-1.9,3.7-3.1,4.3-5.2
			C54.4,144.1,52.8,141.7,52.8,139.5z"/>
	</g>
	<g class="st1">
		<path class="st2" d="M359.5,51.2c-1.1-4,0.6-9.2-1.5-12.7c-2.2-3.5-7.6-4.5-10.5-7.3s-4-8.2-7.6-10.2c-3.5-2-8.7,0-12.7-1
			c-3.9-0.9-7.6-5.1-11.7-5.1c-3.9,0.1-7.5,4.4-11.5,5.5s-9.2-0.6-12.7,1.5c-3.5,2.2-4.5,7.6-7.3,10.5c-2.8,2.9-8.2,4-10.2,7.6
			c-2,3.5,0,8.7-1,12.7c-0.9,3.9-5.1,7.6-5.1,11.7c0.1,3.9,4.4,7.5,5.5,11.5c1.1,4-0.6,9.2,1.5,12.7c2.2,3.5,7.6,4.5,10.5,7.3
			c2.9,2.8,4,8.2,7.6,10.2c3.5,2,8.7,0,12.7,1c3.9,0.9,7.6,5.1,11.7,5.1c3.9-0.1,7.5-4.4,11.5-5.5c4-1.1,9.2,0.6,12.7-1.5
			c3.5-2.2,4.5-7.6,7.3-10.5c2.8-2.9,8.2-4,10.2-7.6c2-3.5,0-8.7,1-12.7c0.9-3.9,5.1-7.6,5.1-11.7C364.9,58.8,360.6,55.2,359.5,51.2
			z"/>
	</g>
	<g class="st4">
		<path class="st2" d="M357.6,63.6c0-3.8,2.9-8,2-11.5c-0.9-3.6-5.6-5.8-7.5-9c-1.9-3.2-1.5-8.3-4.2-10.9c-2.6-2.6-7.7-2.3-10.9-4.2
			c-3.2-1.9-5.4-6.4-9-7.5c-3.5-0.9-7.7,2-11.5,2c-3.8,0-8-2.9-11.5-2c-3.6,0.9-5.8,5.6-9,7.5c-3.2,1.9-8.3,1.5-10.9,4.2
			c-2.6,2.6-2.3,7.7-4.2,10.9c-1.9,3.2-6.4,5.4-7.5,9c-0.9,3.5,2,7.7,2,11.5s-2.9,8-2,11.5c0.9,3.6,5.6,5.8,7.5,9
			c1.9,3.2,1.5,8.3,4.2,10.9c2.6,2.6,7.7,2.3,10.9,4.2s5.4,6.4,9,7.5c3.5,0.9,7.7-2,11.5-2c3.8,0,8,2.9,11.5,2
			c3.6-0.9,5.8-5.6,9-7.5c3.2-1.9,8.3-1.5,10.9-4.2c2.6-2.6,2.3-7.7,4.2-10.9c1.9-3.2,6.4-5.4,7.5-9
			C360.5,71.6,357.6,67.5,357.6,63.6z"/>
	</g>
	<g>
		<g class="st5">
			<path class="st2" d="M2.3,252.3v-8.5c0.1,0,0.3,0,0.5,0c0.2,0,0.4,0,0.5,0v8.5c-0.1,0-0.3,0-0.5,0C2.6,252.3,2.4,252.3,2.3,252.3
				z"/>
			<path class="st2" d="M10.3,248v3.1c0,0.5,0,0.8,0.1,1.1c-0.1,0.1-0.3,0.2-0.6,0.2c-0.3,0-0.5-0.2-0.5-0.6v-3.4
				c0-0.5-0.1-0.9-0.2-1.1c-0.1-0.2-0.4-0.3-0.7-0.3c-0.3,0-0.7,0.1-1,0.3c-0.4,0.2-0.7,0.4-0.9,0.7v4.4c-0.1,0-0.3,0-0.5,0
				c-0.2,0-0.3,0-0.5,0v-6.1l0.1-0.1H6c0.2,0,0.3,0.1,0.4,0.2c0.1,0.1,0.1,0.3,0.1,0.5v0.2c0.3-0.3,0.6-0.5,1-0.6
				c0.4-0.2,0.8-0.2,1.1-0.2c0.6,0,1,0.2,1.2,0.5C10.1,247,10.3,247.4,10.3,248z"/>
			<path class="st2" d="M17.2,251.5l0-0.8v-3.5c0,0,0-0.5,0-1.5c-0.5,0.6-1.1,1.1-1.9,1.4c-0.2-0.1-0.4-0.3-0.4-0.6
				c0.6-0.3,1-0.7,1.5-1.1c0.4-0.4,0.7-0.8,0.8-1.2c0.1,0,0.3,0,0.4,0c0.2,0,0.3,0,0.4,0v6.5l0,0.8l0.7,0h1c0,0.1,0,0.3,0,0.4
				c0,0.1,0,0.3,0,0.4h-4.4c0-0.1,0-0.3,0-0.4s0-0.3,0-0.4h1.2L17.2,251.5z"/>
			<path class="st2" d="M26.5,251.4c0,0.3,0,0.5-0.1,0.6c-0.1,0.1-0.3,0.2-0.5,0.2h-3.9c-0.3-0.2-0.4-0.4-0.4-0.6
				c0-0.4,0.1-0.7,0.4-1.1s0.7-0.8,1.2-1.3l1.1-1c0.4-0.3,0.6-0.6,0.8-0.9c0.2-0.3,0.3-0.6,0.3-1.1c0-0.4-0.1-0.7-0.4-1
				c-0.3-0.3-0.6-0.4-1-0.4c-0.4,0-0.7,0.1-1,0.3c-0.3,0.2-0.5,0.5-0.7,0.9c-0.3,0-0.6-0.2-0.7-0.4c0.1-0.2,0.2-0.4,0.4-0.7
				c0.2-0.2,0.3-0.4,0.6-0.5c0.2-0.2,0.5-0.3,0.7-0.3c0.3-0.1,0.6-0.1,0.9-0.1c0.3,0,0.6,0.1,0.9,0.2c0.3,0.1,0.5,0.3,0.7,0.5
				c0.2,0.2,0.4,0.4,0.5,0.7c0.1,0.3,0.2,0.6,0.2,0.9c0,0.3,0,0.6-0.1,0.8c-0.1,0.2-0.2,0.5-0.3,0.7c-0.1,0.2-0.3,0.4-0.5,0.6
				c-0.2,0.2-0.4,0.4-0.6,0.6l-1,0.9c-0.8,0.7-1.3,1.3-1.3,1.7c0.2,0,0.5,0,0.7,0s0.5,0,0.8,0H26.5z"/>
			<path class="st2" d="M32.1,251.8l-1.6-8c0.2-0.1,0.3-0.1,0.5-0.1c0.2,0,0.3,0,0.4,0.1c0.1,0.1,0.1,0.2,0.2,0.4l0.9,4.8l0.4,2.4
				c0,0.1,0,0.1,0,0.1c0,0,0,0,0.1,0l1.5-7.5c0.2,0,0.4,0,0.7,0c0.3,0,0.5,0,0.6,0l1.4,7.4c0,0.1,0.1,0.1,0.1,0.1
				c0.1-0.4,0.2-1.3,0.5-2.5l1.1-5.2c0.1,0,0.3,0,0.4,0c0.2,0,0.3,0,0.4,0.1l0,0.1l-1.9,8.4c-0.2,0-0.5,0.1-0.7,0.1
				c-0.3,0-0.5,0-0.6-0.1c-0.1-0.1-0.2-0.2-0.2-0.4l-0.7-3.7c-0.3-1.4-0.5-2.5-0.6-3.2h-0.1c-0.2,1.3-0.4,2.4-0.6,3.2l-0.9,4.1
				c-0.2,0-0.5,0-0.9,0C32.4,252.3,32.1,252.2,32.1,251.8z"/>
			<path class="st2" d="M44.5,251.8c-0.4,0.4-1,0.7-1.7,0.7c-0.4,0-0.8-0.1-1.1-0.2s-0.6-0.4-0.8-0.7c-0.2-0.3-0.4-0.6-0.5-1
				c-0.1-0.4-0.2-0.8-0.2-1.3s0.1-0.9,0.2-1.3c0.1-0.4,0.3-0.7,0.5-1c0.2-0.3,0.5-0.5,0.8-0.7c0.3-0.2,0.7-0.2,1.1-0.2
				s0.8,0.1,1.1,0.2c0.3,0.2,0.6,0.4,0.8,0.7c0.2,0.3,0.4,0.6,0.5,1c0.1,0.4,0.2,0.8,0.2,1.3C45.4,250.3,45.1,251.2,44.5,251.8z
				 M42.8,251.7c0.5,0,0.9-0.2,1.2-0.7c0.3-0.5,0.4-1.1,0.4-1.8c0-0.3,0-0.6-0.1-1c-0.1-0.3-0.2-0.6-0.3-0.8
				c-0.1-0.2-0.3-0.4-0.5-0.5c-0.2-0.1-0.5-0.2-0.7-0.2c-0.3,0-0.5,0.1-0.7,0.2c-0.2,0.1-0.4,0.3-0.5,0.5c-0.1,0.2-0.2,0.5-0.3,0.8
				c-0.1,0.3-0.1,0.6-0.1,1c0,0.3,0,0.7,0.1,1c0.1,0.3,0.2,0.6,0.3,0.8s0.3,0.4,0.5,0.5S42.5,251.7,42.8,251.7z"/>
			<path class="st2" d="M50.5,248.3v-0.1c0-0.2,0-0.4-0.1-0.5c0-0.2-0.1-0.3-0.2-0.5c-0.1-0.1-0.2-0.2-0.4-0.3s-0.4-0.1-0.6-0.1
				c-0.5,0-0.9,0.2-1.1,0.6c-0.3,0.4-0.4,1-0.4,1.8c0,0.8,0.1,1.4,0.4,1.8c0.3,0.4,0.6,0.6,1.1,0.6c0.5,0,1.1-0.2,1.7-0.7
				c0.2,0.1,0.4,0.3,0.4,0.6c-0.6,0.6-1.4,0.9-2.2,0.9c-0.4,0-0.7-0.1-1-0.2s-0.6-0.4-0.8-0.6c-0.2-0.3-0.4-0.6-0.5-1
				c-0.1-0.4-0.2-0.8-0.2-1.2c0-0.6,0.1-1.1,0.2-1.5s0.3-0.8,0.5-1.1c0.2-0.3,0.5-0.5,0.8-0.6c0.3-0.1,0.6-0.2,1-0.2
				c0.4,0,0.7,0.1,0.9,0.2c0.3,0.1,0.5,0.3,0.7,0.4s0.3,0.4,0.4,0.6c0.1,0.2,0.1,0.4,0.1,0.6c0,0.4-0.2,0.6-0.5,0.6
				C50.8,248.4,50.6,248.4,50.5,248.3z"/>
			<path class="st2" d="M57.6,248v3.1c0,0.5,0,0.8,0.1,1.1c-0.1,0.1-0.3,0.2-0.6,0.2c-0.3,0-0.5-0.2-0.5-0.6v-3.4
				c0-0.5-0.1-0.9-0.2-1.1s-0.4-0.3-0.7-0.3s-0.7,0.1-1,0.3c-0.4,0.2-0.7,0.4-0.9,0.7v4.4c-0.1,0-0.3,0-0.5,0c-0.2,0-0.3,0-0.4,0
				v-9.1l0.1-0.1h0.3c0.2,0,0.3,0,0.4,0.1c0.1,0.1,0.1,0.3,0.1,0.5v3.2c0.3-0.3,0.6-0.5,1-0.6c0.4-0.2,0.8-0.2,1.1-0.2
				c0.6,0,1,0.2,1.2,0.5C57.5,247,57.6,247.4,57.6,248z"/>
			<path class="st2" d="M64.2,249.5h-3.9c0,1.4,0.6,2.1,1.6,2.1c0.6,0,1.2-0.2,1.8-0.5c0.2,0.2,0.3,0.4,0.3,0.6
				c-0.7,0.5-1.4,0.7-2.3,0.7c-0.4,0-0.8-0.1-1.1-0.2c-0.3-0.2-0.6-0.4-0.8-0.7c-0.2-0.3-0.3-0.6-0.4-1c-0.1-0.4-0.1-0.8-0.1-1.3
				c0-0.5,0.1-0.9,0.2-1.3c0.1-0.4,0.3-0.7,0.5-1c0.2-0.3,0.5-0.5,0.8-0.7c0.3-0.2,0.6-0.2,1-0.2c0.4,0,0.7,0.1,1,0.2
				c0.3,0.1,0.6,0.3,0.8,0.6c0.2,0.2,0.4,0.5,0.5,0.8c0.1,0.3,0.2,0.7,0.2,1.1c0,0.1,0,0.3,0,0.4C64.2,249.3,64.2,249.4,64.2,249.5z
				 M60.3,248.8h3v-0.2c0-0.6-0.1-1-0.4-1.4c-0.2-0.3-0.6-0.5-1.1-0.5c-0.5,0-0.8,0.2-1.1,0.6C60.5,247.7,60.3,248.2,60.3,248.8z"/>
			<path class="st2" d="M70.7,248v3.1c0,0.5,0,0.8,0.1,1.1c-0.1,0.1-0.3,0.2-0.6,0.2c-0.3,0-0.5-0.2-0.5-0.6v-3.4
				c0-0.5-0.1-0.9-0.2-1.1c-0.1-0.2-0.4-0.3-0.7-0.3c-0.3,0-0.7,0.1-1,0.3c-0.4,0.2-0.7,0.4-0.9,0.7v4.4c-0.1,0-0.3,0-0.5,0
				c-0.2,0-0.3,0-0.5,0v-6.1l0.1-0.1h0.3c0.2,0,0.3,0.1,0.4,0.2c0.1,0.1,0.1,0.3,0.1,0.5v0.2c0.3-0.3,0.6-0.5,1-0.6
				c0.4-0.2,0.8-0.2,1.1-0.2c0.6,0,1,0.2,1.2,0.5C70.6,247,70.7,247.4,70.7,248z"/>
			<path class="st2" d="M75.1,251.3l2.3-3.2l1-1.2l0,0c-0.2,0-0.4,0-0.7,0c-0.3,0-0.6,0-1,0h-1.5c0-0.1,0-0.2,0-0.3
				c0-0.1,0-0.2,0-0.2c0-0.1,0-0.2,0-0.2h4.1c0.1,0.2,0.2,0.4,0.2,0.6c0,0.1,0,0.3-0.1,0.4l-2.3,3.1c-0.1,0.1-0.2,0.3-0.4,0.5
				c-0.2,0.2-0.4,0.5-0.6,0.7l0,0c0.4,0,0.8,0,1.2,0H78c0.7,0,1.2,0,1.4-0.1c0.1,0.1,0.1,0.3,0.1,0.4c0,0.3-0.2,0.5-0.7,0.5h-3.7
				c-0.1-0.1-0.1-0.3-0.1-0.3c0-0.1,0-0.2,0-0.2c0-0.1,0-0.1,0-0.2C75,251.5,75.1,251.4,75.1,251.3z"/>
			<path class="st2" d="M81,250.5v-3.1c0-0.4,0-0.8-0.1-1.1c0.1-0.1,0.3-0.2,0.6-0.2c0.3,0,0.5,0.2,0.5,0.6v3.4
				c0,0.5,0.1,0.9,0.2,1.1s0.4,0.3,0.7,0.3s0.7-0.1,1-0.3c0.4-0.2,0.7-0.4,0.9-0.7v-4.4c0,0,0.1,0,0.2,0c0.1,0,0.2,0,0.3,0
				c0.1,0,0.2,0,0.3,0c0.1,0,0.1,0,0.2,0v4.4c0,0.7,0.1,1.1,0.3,1.3c-0.1,0.2-0.2,0.4-0.4,0.5c-0.4-0.1-0.7-0.4-0.8-0.9
				c-0.3,0.3-0.6,0.5-1,0.7c-0.4,0.2-0.8,0.3-1.2,0.3c-0.6,0-1-0.2-1.2-0.5C81.2,251.5,81,251,81,250.5z"/>
			<path class="st2" d="M92.4,251.5l1.7-5.3c0.1,0,0.3-0.1,0.4-0.1c0.1,0,0.3,0,0.5,0.1l0,0c-0.8,2.4-1.4,4.4-2,6.1
				c-0.2,0-0.4,0.1-0.6,0.1c-0.2,0-0.4,0-0.5-0.1c-0.1-0.1-0.2-0.2-0.3-0.5l-1.9-5.5c0.2-0.1,0.4-0.2,0.6-0.2c0.2,0,0.4,0.1,0.5,0.4
				l1,3c0.2,0.8,0.4,1.4,0.6,2C92.3,251.5,92.3,251.5,92.4,251.5z"/>
			<path class="st2" d="M97.2,247v5.3c-0.1,0-0.3,0-0.5,0c-0.2,0-0.3,0-0.5,0v-4.8c0-0.2,0-0.4-0.1-0.5c-0.1-0.1-0.2-0.1-0.4-0.1
				h-0.1c0-0.1,0-0.2,0-0.3s0-0.2,0-0.3c0.2,0,0.3,0,0.4,0c0.1,0,0.2,0,0.2,0h0.1c0.3,0,0.5,0.1,0.6,0.2
				C97.1,246.5,97.2,246.8,97.2,247z M96,244c0.1-0.1,0.3-0.1,0.6-0.1c0.2,0,0.4,0,0.5,0.1c0.1,0.1,0.1,0.2,0.1,0.5s0,0.4-0.1,0.5
				c-0.1,0.1-0.3,0.1-0.5,0.1c-0.2,0-0.4,0-0.5-0.1c-0.1-0.1-0.2-0.2-0.2-0.5C95.9,244.3,95.9,244.2,96,244z"/>
			<path class="st2" d="M102,246.2c0,0.1,0,0.2,0,0.4c0,0.1,0,0.2,0,0.4l-1.6,0v4.2c0,0.3,0.2,0.5,0.5,0.5h0.9
				c0.1,0.1,0.1,0.3,0.1,0.4c0,0.1,0,0.2,0,0.3c-0.4,0.1-0.8,0.1-1.2,0.1c-0.8,0-1.2-0.3-1.2-1v-4.4l-0.9,0c0-0.1,0-0.2,0-0.4
				c0-0.1,0-0.2,0-0.4l0.9,0v-1.3c0-0.2,0-0.4,0.1-0.5c0.1-0.1,0.2-0.1,0.4-0.1h0.3l0.1,0.1v1.9L102,246.2z"/>
			<path class="st2" d="M108,251.9c-0.1,0.2-0.2,0.4-0.4,0.5c-0.4-0.1-0.7-0.4-0.8-0.9c-0.6,0.6-1.3,0.9-1.9,0.9
				c-0.3,0-0.6,0-0.8-0.1c-0.2-0.1-0.4-0.2-0.6-0.4s-0.3-0.4-0.3-0.6c-0.1-0.2-0.1-0.4-0.1-0.7c0-0.3,0.1-0.6,0.2-0.9
				c0.1-0.3,0.3-0.5,0.5-0.6c0.2-0.2,0.4-0.3,0.7-0.4c0.3-0.1,0.6-0.1,0.9-0.1c0.6,0,1.1,0,1.5,0.1v-0.6c0-0.9-0.4-1.3-1.1-1.3
				c-0.6,0-1.2,0.2-2,0.5c-0.2-0.2-0.3-0.4-0.3-0.7c0.9-0.4,1.7-0.6,2.4-0.6c1.3,0,1.9,0.7,1.9,2.1v2.6c0,0.3,0,0.5,0.1,0.7
				C107.8,251.6,107.9,251.8,108,251.9z M106.8,250.7v-1.2c-0.2,0-0.4-0.1-0.6-0.1s-0.4,0-0.7,0c-0.5,0-0.8,0.1-1.1,0.3
				s-0.4,0.5-0.4,0.9c0,0.3,0.1,0.6,0.3,0.8c0.2,0.2,0.4,0.3,0.7,0.3c0.3,0,0.6-0.1,0.9-0.3C106.2,251.2,106.5,251,106.8,250.7z"/>
			<path class="st2" d="M111.1,251.6h0.5c0,0.1,0.1,0.2,0.1,0.3c0,0.1,0,0.2,0,0.3c0,0.1,0,0.1,0,0.1c0,0,0,0.1,0,0.1
				c-0.1,0-0.3,0-0.4,0.1c-0.1,0-0.2,0-0.4,0c-0.3,0-0.6-0.1-0.9-0.2c-0.2-0.2-0.3-0.4-0.3-0.8v-8.1l0.1-0.1h0.3
				c0.2,0,0.3,0,0.4,0.1c0.1,0.1,0.1,0.3,0.1,0.5v7.3C110.7,251.4,110.8,251.6,111.1,251.6z"/>
			<path class="st2" d="M114.3,247v5.3c-0.1,0-0.3,0-0.5,0c-0.2,0-0.3,0-0.5,0v-4.8c0-0.2,0-0.4-0.1-0.5c-0.1-0.1-0.2-0.1-0.4-0.1
				h-0.1c0-0.1,0-0.2,0-0.3s0-0.2,0-0.3c0.2,0,0.3,0,0.4,0c0.1,0,0.2,0,0.2,0h0.1c0.3,0,0.5,0.1,0.6,0.2
				C114.3,246.5,114.3,246.8,114.3,247z M113.1,244c0.1-0.1,0.3-0.1,0.6-0.1c0.2,0,0.4,0,0.5,0.1c0.1,0.1,0.1,0.2,0.1,0.5
				s0,0.4-0.1,0.5c-0.1,0.1-0.3,0.1-0.5,0.1c-0.2,0-0.4,0-0.5-0.1c-0.1-0.1-0.2-0.2-0.2-0.5C113,244.3,113.1,244.2,113.1,244z"/>
			<path class="st2" d="M115.9,251.8c0-0.3,0.1-0.5,0.4-0.7c0.4,0.2,0.7,0.4,1,0.4c0.3,0.1,0.6,0.1,0.8,0.1c0.2,0,0.4,0,0.5-0.1
				c0.2-0.1,0.3-0.1,0.4-0.2s0.2-0.2,0.2-0.3c0.1-0.1,0.1-0.2,0.1-0.3c0-0.2-0.1-0.5-0.2-0.6c-0.2-0.2-0.4-0.3-0.7-0.4l-0.7-0.3
				c-0.5-0.2-0.9-0.4-1.2-0.7c-0.3-0.3-0.4-0.6-0.4-1c0-0.3,0.1-0.5,0.2-0.7c0.1-0.2,0.3-0.4,0.4-0.5c0.2-0.1,0.4-0.3,0.7-0.3
				c0.3-0.1,0.5-0.1,0.8-0.1c0.6,0,1.2,0.1,1.8,0.4c0,0.3-0.1,0.5-0.3,0.7c-0.3-0.1-0.6-0.2-0.9-0.3c-0.3-0.1-0.5-0.1-0.7-0.1
				c-0.4,0-0.7,0.1-0.9,0.3c-0.2,0.2-0.3,0.4-0.3,0.6c0,0.2,0.1,0.4,0.2,0.6c0.1,0.1,0.4,0.3,0.7,0.4l0.7,0.3c1,0.4,1.5,1,1.5,1.8
				c0,0.6-0.2,1-0.6,1.3c-0.4,0.3-1,0.5-1.7,0.5C117.2,252.4,116.5,252.2,115.9,251.8z"/>
			<path class="st2" d="M122.9,247v5.3c-0.1,0-0.3,0-0.5,0c-0.2,0-0.3,0-0.5,0v-4.8c0-0.2,0-0.4-0.1-0.5c-0.1-0.1-0.2-0.1-0.4-0.1
				h-0.1c0-0.1,0-0.2,0-0.3s0-0.2,0-0.3c0.2,0,0.3,0,0.4,0c0.1,0,0.2,0,0.2,0h0.1c0.3,0,0.5,0.1,0.6,0.2
				C122.9,246.5,122.9,246.8,122.9,247z M121.7,244c0.1-0.1,0.3-0.1,0.6-0.1c0.2,0,0.4,0,0.5,0.1c0.1,0.1,0.1,0.2,0.1,0.5
				s0,0.4-0.1,0.5c-0.1,0.1-0.3,0.1-0.5,0.1c-0.2,0-0.4,0-0.5-0.1c-0.1-0.1-0.2-0.2-0.2-0.5C121.6,244.3,121.7,244.2,121.7,244z"/>
			<path class="st2" d="M129.5,249.5h-3.9c0,1.4,0.6,2.1,1.6,2.1c0.6,0,1.2-0.2,1.8-0.5c0.2,0.2,0.3,0.4,0.3,0.6
				c-0.7,0.5-1.4,0.7-2.3,0.7c-0.4,0-0.8-0.1-1.1-0.2c-0.3-0.2-0.6-0.4-0.8-0.7c-0.2-0.3-0.3-0.6-0.4-1c-0.1-0.4-0.1-0.8-0.1-1.3
				c0-0.5,0.1-0.9,0.2-1.3c0.1-0.4,0.3-0.7,0.5-1c0.2-0.3,0.5-0.5,0.8-0.7c0.3-0.2,0.6-0.2,1-0.2c0.4,0,0.7,0.1,1,0.2
				c0.3,0.1,0.6,0.3,0.8,0.6c0.2,0.2,0.4,0.5,0.5,0.8c0.1,0.3,0.2,0.7,0.2,1.1c0,0.1,0,0.3,0,0.4
				C129.5,249.3,129.5,249.4,129.5,249.5z M125.6,248.8h3v-0.2c0-0.6-0.1-1-0.4-1.4c-0.2-0.3-0.6-0.5-1.1-0.5
				c-0.5,0-0.8,0.2-1.1,0.6C125.8,247.7,125.7,248.2,125.6,248.8z"/>
			<path class="st2" d="M131,246.6c0.1-0.2,0.2-0.4,0.4-0.5c0.5,0.2,0.8,0.5,0.9,1.1c0.3-0.7,0.9-1.1,1.7-1.1c0.2,0,0.4,0,0.6,0
				c0,0.4-0.1,0.6-0.2,0.9c-0.1,0-0.2,0-0.4,0c-0.7,0-1.2,0.4-1.5,1.1v4.1c-0.1,0-0.3,0-0.5,0c-0.2,0-0.3,0-0.5,0v-4.4
				C131.5,247.3,131.3,246.9,131,246.6z"/>
			<path class="st2" d="M139.9,249.5H136c0,1.4,0.6,2.1,1.6,2.1c0.6,0,1.2-0.2,1.8-0.5c0.2,0.2,0.3,0.4,0.3,0.6
				c-0.7,0.5-1.4,0.7-2.3,0.7c-0.4,0-0.8-0.1-1.1-0.2c-0.3-0.2-0.6-0.4-0.8-0.7c-0.2-0.3-0.3-0.6-0.4-1c-0.1-0.4-0.1-0.8-0.1-1.3
				c0-0.5,0.1-0.9,0.2-1.3c0.1-0.4,0.3-0.7,0.5-1c0.2-0.3,0.5-0.5,0.8-0.7c0.3-0.2,0.6-0.2,1-0.2c0.4,0,0.7,0.1,1,0.2
				c0.3,0.1,0.6,0.3,0.8,0.6c0.2,0.2,0.4,0.5,0.5,0.8c0.1,0.3,0.2,0.7,0.2,1.1c0,0.1,0,0.3,0,0.4
				C139.9,249.3,139.9,249.4,139.9,249.5z M136,248.8h3v-0.2c0-0.6-0.1-1-0.4-1.4c-0.2-0.3-0.6-0.5-1.1-0.5c-0.5,0-0.8,0.2-1.1,0.6
				C136.2,247.7,136,248.2,136,248.8z"/>
			<path class="st2" d="M146.4,248v3.1c0,0.5,0,0.8,0.1,1.1c-0.1,0.1-0.3,0.2-0.6,0.2c-0.3,0-0.5-0.2-0.5-0.6v-3.4
				c0-0.5-0.1-0.9-0.2-1.1c-0.1-0.2-0.4-0.3-0.7-0.3c-0.3,0-0.7,0.1-1,0.3c-0.4,0.2-0.7,0.4-0.9,0.7v4.4c-0.1,0-0.3,0-0.5,0
				c-0.2,0-0.3,0-0.5,0v-6.1l0.1-0.1h0.3c0.2,0,0.3,0.1,0.4,0.2c0.1,0.1,0.1,0.3,0.1,0.5v0.2c0.3-0.3,0.6-0.5,1-0.6
				c0.4-0.2,0.8-0.2,1.1-0.2c0.6,0,1,0.2,1.2,0.5C146.3,247,146.4,247.4,146.4,248z"/>
			<path class="st2" d="M150.4,246.1c0.5,0,1,0.2,1.6,0.5v-3.4l0.1-0.1h0.3c0.2,0,0.3,0,0.4,0.1c0.1,0.1,0.1,0.3,0.1,0.5v6.8
				c0,0.7,0.1,1.1,0.3,1.3c-0.1,0.2-0.2,0.4-0.4,0.5c-0.4-0.1-0.6-0.4-0.8-0.8c-0.5,0.6-1.1,0.9-1.8,0.9c-0.7,0-1.3-0.3-1.6-0.8
				c-0.4-0.6-0.5-1.3-0.5-2.4c0-0.5,0.1-1,0.2-1.4c0.1-0.4,0.3-0.7,0.5-1c0.2-0.3,0.5-0.5,0.7-0.6
				C149.8,246.1,150.1,246.1,150.4,246.1z M150.3,251.7c0.3,0,0.6-0.1,0.9-0.3c0.3-0.2,0.5-0.4,0.8-0.7v-3.3c-0.5-0.4-1-0.6-1.4-0.6
				c-0.4,0-0.8,0.2-1.1,0.6c-0.3,0.4-0.4,1-0.4,1.8s0.1,1.4,0.4,1.8C149.7,251.5,150,251.7,150.3,251.7z"/>
			<path class="st2" d="M159.5,249.5h-3.9c0,1.4,0.6,2.1,1.6,2.1c0.6,0,1.2-0.2,1.8-0.5c0.2,0.2,0.3,0.4,0.3,0.6
				c-0.7,0.5-1.4,0.7-2.3,0.7c-0.4,0-0.8-0.1-1.1-0.2c-0.3-0.2-0.6-0.4-0.8-0.7c-0.2-0.3-0.3-0.6-0.4-1c-0.1-0.4-0.1-0.8-0.1-1.3
				c0-0.5,0.1-0.9,0.2-1.3c0.1-0.4,0.3-0.7,0.5-1c0.2-0.3,0.5-0.5,0.8-0.7c0.3-0.2,0.6-0.2,1-0.2c0.4,0,0.7,0.1,1,0.2
				c0.3,0.1,0.6,0.3,0.8,0.6c0.2,0.2,0.4,0.5,0.5,0.8c0.1,0.3,0.2,0.7,0.2,1.1c0,0.1,0,0.3,0,0.4
				C159.5,249.3,159.5,249.4,159.5,249.5z M155.6,248.8h3v-0.2c0-0.6-0.1-1-0.4-1.4c-0.2-0.3-0.6-0.5-1.1-0.5
				c-0.5,0-0.8,0.2-1.1,0.6C155.8,247.7,155.6,248.2,155.6,248.8z"/>
			<path class="st2" d="M166,248v3.1c0,0.5,0,0.8,0.1,1.1c-0.1,0.1-0.3,0.2-0.6,0.2c-0.3,0-0.5-0.2-0.5-0.6v-3.4
				c0-0.5-0.1-0.9-0.2-1.1c-0.1-0.2-0.4-0.3-0.7-0.3c-0.3,0-0.7,0.1-1,0.3c-0.4,0.2-0.7,0.4-0.9,0.7v4.4c-0.1,0-0.3,0-0.5,0
				c-0.2,0-0.3,0-0.5,0v-6.1l0.1-0.1h0.3c0.2,0,0.3,0.1,0.4,0.2c0.1,0.1,0.1,0.3,0.1,0.5v0.2c0.3-0.3,0.6-0.5,1-0.6
				c0.4-0.2,0.8-0.2,1.1-0.2c0.6,0,1,0.2,1.2,0.5C165.9,247,166,247.4,166,248z"/>
			<path class="st2" d="M174.2,248h1.9c0.3,0,0.5,0.1,0.6,0.2c0.1,0.1,0.2,0.3,0.2,0.5v3.2c-0.9,0.4-1.9,0.5-3,0.5
				c-0.6,0-1.2-0.1-1.6-0.4c-0.5-0.2-0.8-0.6-1.1-1c-0.5-0.8-0.7-1.8-0.7-3c0-0.8,0.1-1.5,0.3-2.1c0.2-0.6,0.5-1.1,0.8-1.4
				c0.7-0.7,1.5-1,2.4-1c0.5,0,1,0.1,1.5,0.2c0.5,0.2,0.9,0.4,1.3,0.7c-0.1,0.3-0.2,0.6-0.5,0.7c-0.7-0.5-1.5-0.8-2.4-0.8
				c-0.7,0-1.3,0.3-1.8,0.9c-0.5,0.6-0.7,1.5-0.7,2.8c0,2.3,0.8,3.5,2.5,3.5c0.7,0,1.3-0.1,1.9-0.3v-1.7c0-0.4,0-0.6,0-0.8h-1.3
				c-0.3,0-0.4-0.1-0.4-0.4C174.1,248.3,174.1,248.2,174.2,248z"/>
			<path class="st2" d="M183.2,249.5h-3.9c0,1.4,0.6,2.1,1.6,2.1c0.6,0,1.2-0.2,1.8-0.5c0.2,0.2,0.3,0.4,0.3,0.6
				c-0.7,0.5-1.4,0.7-2.3,0.7c-0.4,0-0.8-0.1-1.1-0.2c-0.3-0.2-0.6-0.4-0.8-0.7c-0.2-0.3-0.3-0.6-0.4-1c-0.1-0.4-0.1-0.8-0.1-1.3
				c0-0.5,0.1-0.9,0.2-1.3c0.1-0.4,0.3-0.7,0.5-1c0.2-0.3,0.5-0.5,0.8-0.7c0.3-0.2,0.6-0.2,1-0.2c0.4,0,0.7,0.1,1,0.2
				c0.3,0.1,0.6,0.3,0.8,0.6c0.2,0.2,0.4,0.5,0.5,0.8c0.1,0.3,0.2,0.7,0.2,1.1c0,0.1,0,0.3,0,0.4
				C183.2,249.3,183.2,249.4,183.2,249.5z M179.3,248.8h3v-0.2c0-0.6-0.1-1-0.4-1.4c-0.2-0.3-0.6-0.5-1.1-0.5
				c-0.5,0-0.8,0.2-1.1,0.6C179.5,247.7,179.4,248.2,179.3,248.8z"/>
			<path class="st2" d="M185.5,251.8l-1.3-5.5c0.2-0.1,0.4-0.1,0.6-0.1c0.2,0,0.4,0.1,0.4,0.4l0.7,2.9c0.1,0.5,0.3,1.2,0.4,2.1
				c0,0.1,0,0.1,0.1,0.1l1.3-5.4c0.1,0,0.3,0,0.6,0c0.2,0,0.4,0,0.6,0l1.2,5.3c0,0.1,0,0.1,0.1,0.1c0.2-0.7,0.3-1.5,0.5-2.3l0.7-3.2
				c0.1,0,0.2-0.1,0.4-0.1c0.2,0,0.3,0,0.4,0.1l0,0l-1.5,6.1c-0.2,0-0.4,0-0.6,0s-0.4,0-0.5-0.1c-0.1-0.1-0.2-0.2-0.2-0.5l-0.4-1.9
				c0-0.1-0.1-0.5-0.2-1.2c-0.1-0.7-0.2-1.2-0.3-1.5h0c0,0.2-0.2,1.1-0.6,2.7l-0.6,2.5c-0.2,0-0.4,0-0.7,0c-0.2,0-0.4,0-0.5-0.1
				C185.7,252.2,185.6,252,185.5,251.8z"/>
			<path class="st2" d="M197.3,251.8c-0.4,0.4-1,0.7-1.7,0.7c-0.4,0-0.8-0.1-1.1-0.2s-0.6-0.4-0.8-0.7c-0.2-0.3-0.4-0.6-0.5-1
				s-0.2-0.8-0.2-1.3s0.1-0.9,0.2-1.3c0.1-0.4,0.3-0.7,0.5-1c0.2-0.3,0.5-0.5,0.8-0.7c0.3-0.2,0.7-0.2,1.1-0.2s0.8,0.1,1.1,0.2
				c0.3,0.2,0.6,0.4,0.8,0.7c0.2,0.3,0.4,0.6,0.5,1c0.1,0.4,0.2,0.8,0.2,1.3C198.2,250.3,197.9,251.2,197.3,251.8z M195.6,251.7
				c0.5,0,0.9-0.2,1.2-0.7c0.3-0.5,0.4-1.1,0.4-1.8c0-0.3,0-0.6-0.1-1c-0.1-0.3-0.2-0.6-0.3-0.8c-0.1-0.2-0.3-0.4-0.5-0.5
				c-0.2-0.1-0.5-0.2-0.7-0.2c-0.3,0-0.5,0.1-0.7,0.2c-0.2,0.1-0.4,0.3-0.5,0.5c-0.1,0.2-0.2,0.5-0.3,0.8c-0.1,0.3-0.1,0.6-0.1,1
				c0,0.3,0,0.7,0.1,1c0.1,0.3,0.2,0.6,0.3,0.8c0.1,0.2,0.3,0.4,0.5,0.5S195.3,251.7,195.6,251.7z"/>
			<path class="st2" d="M204.5,248v3.1c0,0.5,0,0.8,0.1,1.1c-0.1,0.1-0.3,0.2-0.6,0.2c-0.3,0-0.5-0.2-0.5-0.6v-3.4
				c0-0.5-0.1-0.9-0.2-1.1c-0.1-0.2-0.4-0.3-0.7-0.3s-0.7,0.1-1,0.3c-0.4,0.2-0.7,0.4-0.9,0.7v4.4c-0.1,0-0.3,0-0.5,0
				c-0.2,0-0.3,0-0.4,0v-9.1l0.1-0.1h0.3c0.2,0,0.3,0,0.4,0.1c0.1,0.1,0.1,0.3,0.1,0.5v3.2c0.3-0.3,0.6-0.5,1-0.6
				c0.4-0.2,0.8-0.2,1.1-0.2c0.6,0,1,0.2,1.2,0.5C204.4,247,204.5,247.4,204.5,248z"/>
			<path class="st2" d="M211.3,248v3.1c0,0.5,0,0.8,0.1,1.1c-0.1,0.1-0.3,0.2-0.6,0.2c-0.3,0-0.5-0.2-0.5-0.6v-3.4
				c0-0.5-0.1-0.9-0.2-1.1c-0.1-0.2-0.4-0.3-0.7-0.3c-0.3,0-0.7,0.1-1,0.3c-0.4,0.2-0.7,0.4-0.9,0.7v4.4c-0.1,0-0.3,0-0.5,0
				c-0.2,0-0.3,0-0.5,0v-6.1l0.1-0.1h0.3c0.2,0,0.3,0.1,0.4,0.2c0.1,0.1,0.1,0.3,0.1,0.5v0.2c0.3-0.3,0.6-0.5,1-0.6
				c0.4-0.2,0.8-0.2,1.1-0.2c0.6,0,1,0.2,1.2,0.5C211.2,247,211.3,247.4,211.3,248z"/>
			<path class="st2" d="M218.1,248v3.1c0,0.5,0,0.8,0.1,1.1c-0.1,0.1-0.3,0.2-0.6,0.2c-0.3,0-0.5-0.2-0.5-0.6v-3.4
				c0-0.5-0.1-0.9-0.2-1.1s-0.4-0.3-0.7-0.3c-0.3,0-0.7,0.1-1,0.3c-0.4,0.2-0.7,0.4-0.9,0.7v4.4c-0.1,0-0.3,0-0.5,0
				c-0.2,0-0.3,0-0.4,0v-9.1l0.1-0.1h0.3c0.2,0,0.3,0,0.4,0.1c0.1,0.1,0.1,0.3,0.1,0.5v3.2c0.3-0.3,0.6-0.5,1-0.6
				c0.4-0.2,0.8-0.2,1.1-0.2c0.6,0,1,0.2,1.2,0.5C218,247,218.1,247.4,218.1,248z"/>
			<path class="st2" d="M224.6,249.5h-3.9c0,1.4,0.6,2.1,1.6,2.1c0.6,0,1.2-0.2,1.8-0.5c0.2,0.2,0.3,0.4,0.3,0.6
				c-0.7,0.5-1.4,0.7-2.3,0.7c-0.4,0-0.8-0.1-1.1-0.2c-0.3-0.2-0.6-0.4-0.8-0.7c-0.2-0.3-0.3-0.6-0.4-1c-0.1-0.4-0.1-0.8-0.1-1.3
				c0-0.5,0.1-0.9,0.2-1.3c0.1-0.4,0.3-0.7,0.5-1c0.2-0.3,0.5-0.5,0.8-0.7c0.3-0.2,0.6-0.2,1-0.2c0.4,0,0.7,0.1,1,0.2
				c0.3,0.1,0.6,0.3,0.8,0.6c0.2,0.2,0.4,0.5,0.5,0.8c0.1,0.3,0.2,0.7,0.2,1.1c0,0.1,0,0.3,0,0.4
				C224.6,249.3,224.6,249.4,224.6,249.5z M220.8,248.8h3v-0.2c0-0.6-0.1-1-0.4-1.4c-0.2-0.3-0.6-0.5-1.1-0.5
				c-0.5,0-0.8,0.2-1.1,0.6C220.9,247.7,220.8,248.2,220.8,248.8z"/>
			<path class="st2" d="M227.5,247v5.3c-0.1,0-0.3,0-0.5,0c-0.2,0-0.3,0-0.5,0v-4.8c0-0.2,0-0.4-0.1-0.5c-0.1-0.1-0.2-0.1-0.4-0.1
				H226c0-0.1,0-0.2,0-0.3s0-0.2,0-0.3c0.2,0,0.3,0,0.4,0c0.1,0,0.2,0,0.2,0h0.1c0.3,0,0.5,0.1,0.6,0.2
				C227.4,246.5,227.5,246.8,227.5,247z M226.3,244c0.1-0.1,0.3-0.1,0.6-0.1c0.2,0,0.4,0,0.5,0.1s0.1,0.2,0.1,0.5s0,0.4-0.1,0.5
				c-0.1,0.1-0.3,0.1-0.5,0.1c-0.2,0-0.4,0-0.5-0.1c-0.1-0.1-0.2-0.2-0.2-0.5C226.2,244.3,226.2,244.2,226.3,244z"/>
			<path class="st2" d="M232.3,246.2c0,0.1,0,0.2,0,0.4c0,0.1,0,0.2,0,0.4l-1.6,0v4.2c0,0.3,0.2,0.5,0.5,0.5h0.9
				c0.1,0.1,0.1,0.3,0.1,0.4c0,0.1,0,0.2,0,0.3c-0.4,0.1-0.8,0.1-1.2,0.1c-0.8,0-1.2-0.3-1.2-1v-4.4l-0.9,0c0-0.1,0-0.2,0-0.4
				c0-0.1,0-0.2,0-0.4l0.9,0v-1.3c0-0.2,0-0.4,0.1-0.5c0.1-0.1,0.2-0.1,0.4-0.1h0.3l0.1,0.1v1.9L232.3,246.2z"/>
			<path class="st2" d="M238.1,249.5h-3.9c0,1.4,0.6,2.1,1.6,2.1c0.6,0,1.2-0.2,1.8-0.5c0.2,0.2,0.3,0.4,0.3,0.6
				c-0.7,0.5-1.4,0.7-2.3,0.7c-0.4,0-0.8-0.1-1.1-0.2c-0.3-0.2-0.6-0.4-0.8-0.7c-0.2-0.3-0.3-0.6-0.4-1c-0.1-0.4-0.1-0.8-0.1-1.3
				c0-0.5,0.1-0.9,0.2-1.3c0.1-0.4,0.3-0.7,0.5-1c0.2-0.3,0.5-0.5,0.8-0.7c0.3-0.2,0.6-0.2,1-0.2c0.4,0,0.7,0.1,1,0.2
				c0.3,0.1,0.6,0.3,0.8,0.6c0.2,0.2,0.4,0.5,0.5,0.8c0.1,0.3,0.2,0.7,0.2,1.1c0,0.1,0,0.3,0,0.4
				C238.1,249.3,238.1,249.4,238.1,249.5z M234.2,248.8h3v-0.2c0-0.6-0.1-1-0.4-1.4c-0.2-0.3-0.6-0.5-1.1-0.5
				c-0.5,0-0.8,0.2-1.1,0.6C234.4,247.7,234.2,248.2,234.2,248.8z"/>
			<path class="st2" d="M244.6,248v3.1c0,0.5,0,0.8,0.1,1.1c-0.1,0.1-0.3,0.2-0.6,0.2c-0.3,0-0.5-0.2-0.5-0.6v-3.4
				c0-0.5-0.1-0.9-0.2-1.1c-0.1-0.2-0.4-0.3-0.7-0.3c-0.3,0-0.7,0.1-1,0.3c-0.4,0.2-0.7,0.4-0.9,0.7v4.4c-0.1,0-0.3,0-0.5,0
				c-0.2,0-0.3,0-0.5,0v-6.1l0.1-0.1h0.3c0.2,0,0.3,0.1,0.4,0.2c0.1,0.1,0.1,0.3,0.1,0.5v0.2c0.3-0.3,0.6-0.5,1-0.6
				c0.4-0.2,0.8-0.2,1.1-0.2c0.6,0,1,0.2,1.2,0.5C244.5,247,244.6,247.4,244.6,248z"/>
			<path class="st2" d="M247.9,251.2c0.1,0.2,0.1,0.4,0.1,0.7c0,0.5-0.1,1-0.4,1.4c-0.3,0.4-0.7,0.7-1.2,0.9
				c-0.1-0.1-0.2-0.1-0.2-0.2c0-0.1-0.1-0.2-0.1-0.3c0.6-0.3,0.9-0.7,0.9-1.3c-0.1,0-0.2-0.1-0.3-0.1c-0.1,0-0.1-0.1-0.2-0.1
				c0,0-0.1-0.1-0.1-0.2c0-0.1,0-0.2,0-0.3c0-0.2,0-0.3,0.1-0.4c0-0.1,0.1-0.2,0.2-0.2c0.1,0,0.2-0.1,0.2-0.1c0.1,0,0.2,0,0.3,0
				C247.6,251,247.8,251.1,247.9,251.2z"/>
			<path class="st2" d="M254.5,246.1c0.5,0,1,0.2,1.6,0.5v-3.4l0.1-0.1h0.3c0.2,0,0.3,0,0.4,0.1c0.1,0.1,0.1,0.3,0.1,0.5v6.8
				c0,0.7,0.1,1.1,0.3,1.3c-0.1,0.2-0.2,0.4-0.4,0.5c-0.4-0.1-0.6-0.4-0.8-0.8c-0.5,0.6-1.1,0.9-1.8,0.9c-0.7,0-1.3-0.3-1.6-0.8
				c-0.4-0.6-0.5-1.3-0.5-2.4c0-0.5,0.1-1,0.2-1.4c0.1-0.4,0.3-0.7,0.5-1c0.2-0.3,0.5-0.5,0.7-0.6
				C253.9,246.1,254.2,246.1,254.5,246.1z M254.5,251.7c0.3,0,0.6-0.1,0.9-0.3c0.3-0.2,0.5-0.4,0.8-0.7v-3.3c-0.5-0.4-1-0.6-1.4-0.6
				c-0.4,0-0.8,0.2-1.1,0.6c-0.3,0.4-0.4,1-0.4,1.8s0.1,1.4,0.4,1.8C253.8,251.5,254.1,251.7,254.5,251.7z"/>
			<path class="st2" d="M260.1,247v5.3c-0.1,0-0.3,0-0.5,0c-0.2,0-0.3,0-0.5,0v-4.8c0-0.2,0-0.4-0.1-0.5c-0.1-0.1-0.2-0.1-0.4-0.1
				h-0.1c0-0.1,0-0.2,0-0.3s0-0.2,0-0.3c0.2,0,0.3,0,0.4,0s0.2,0,0.2,0h0.1c0.3,0,0.5,0.1,0.6,0.2
				C260.1,246.5,260.1,246.8,260.1,247z M258.9,244c0.1-0.1,0.3-0.1,0.6-0.1c0.2,0,0.4,0,0.5,0.1s0.1,0.2,0.1,0.5s0,0.4-0.1,0.5
				c-0.1,0.1-0.3,0.1-0.5,0.1c-0.2,0-0.4,0-0.5-0.1c-0.1-0.1-0.2-0.2-0.2-0.5C258.8,244.3,258.9,244.2,258.9,244z"/>
			<path class="st2" d="M266.7,249.5h-3.9c0,1.4,0.6,2.1,1.6,2.1c0.6,0,1.2-0.2,1.8-0.5c0.2,0.2,0.3,0.4,0.3,0.6
				c-0.7,0.5-1.4,0.7-2.3,0.7c-0.4,0-0.8-0.1-1.1-0.2c-0.3-0.2-0.6-0.4-0.8-0.7c-0.2-0.3-0.3-0.6-0.4-1c-0.1-0.4-0.1-0.8-0.1-1.3
				c0-0.5,0.1-0.9,0.2-1.3c0.1-0.4,0.3-0.7,0.5-1c0.2-0.3,0.5-0.5,0.8-0.7c0.3-0.2,0.6-0.2,1-0.2c0.4,0,0.7,0.1,1,0.2
				c0.3,0.1,0.6,0.3,0.8,0.6c0.2,0.2,0.4,0.5,0.5,0.8c0.1,0.3,0.2,0.7,0.2,1.1c0,0.1,0,0.3,0,0.4
				C266.7,249.3,266.7,249.4,266.7,249.5z M262.8,248.8h3v-0.2c0-0.6-0.1-1-0.4-1.4c-0.2-0.3-0.6-0.5-1.1-0.5
				c-0.5,0-0.8,0.2-1.1,0.6C263,247.7,262.9,248.2,262.8,248.8z"/>
			<path class="st2" d="M272.3,247v5.3c-0.1,0-0.3,0-0.5,0c-0.2,0-0.3,0-0.5,0v-4.8c0-0.2,0-0.4-0.1-0.5c-0.1-0.1-0.2-0.1-0.4-0.1
				h-0.1c0-0.1,0-0.2,0-0.3s0-0.2,0-0.3c0.2,0,0.3,0,0.4,0c0.1,0,0.2,0,0.2,0h0.1c0.3,0,0.5,0.1,0.6,0.2
				C272.3,246.5,272.3,246.8,272.3,247z M271.1,244c0.1-0.1,0.3-0.1,0.6-0.1c0.2,0,0.4,0,0.5,0.1s0.1,0.2,0.1,0.5s0,0.4-0.1,0.5
				c-0.1,0.1-0.3,0.1-0.5,0.1c-0.2,0-0.4,0-0.5-0.1c-0.1-0.1-0.2-0.2-0.2-0.5C271,244.3,271.1,244.2,271.1,244z"/>
			<path class="st2" d="M277.9,248.3c0-0.5-0.1-0.9-0.2-1.1c-0.1-0.2-0.3-0.3-0.6-0.3c-0.3,0-0.6,0.1-0.9,0.3s-0.6,0.4-0.8,0.7v4.4
				c-0.1,0-0.3,0-0.5,0c-0.2,0-0.3,0-0.5,0v-6.1l0.1-0.1h0.3c0.2,0,0.3,0.1,0.4,0.2c0.1,0.1,0.1,0.3,0.1,0.5v0.2
				c0.5-0.6,1.1-0.9,1.8-0.9s1.2,0.3,1.4,0.9c0.7-0.6,1.4-0.9,2-0.9c0.5,0,0.9,0.2,1.2,0.5c0.3,0.4,0.4,0.8,0.4,1.4v3.1
				c0,0.5,0,0.8,0.1,1.1c-0.1,0.1-0.3,0.2-0.6,0.2c-0.3,0-0.5-0.2-0.5-0.6v-3.5c0-0.5-0.1-0.9-0.2-1.1c-0.1-0.2-0.3-0.3-0.6-0.3
				c-0.3,0-0.6,0.1-0.9,0.2c-0.3,0.2-0.6,0.4-0.8,0.7v4.4c-0.1,0-0.3,0-0.5,0s-0.3,0-0.5,0V248.3z"/>
			<path class="st2" d="M291.4,250.1l-0.9,0h-1.7l-0.9,0l-0.7,2.2c-0.1,0-0.2,0-0.4,0c-0.2,0-0.3,0-0.5-0.1l0,0l2.9-8.5
				c0.1,0,0.3,0,0.6,0s0.4,0,0.5,0l2.9,8.5c-0.1,0.1-0.3,0.1-0.5,0.1c-0.2,0-0.3,0-0.4-0.1c-0.1-0.1-0.2-0.2-0.2-0.4L291.4,250.1z
				 M288.2,249.3l0.7,0h1.4c0,0,0.1,0,0.3,0c0.2,0,0.3,0,0.4,0l-0.8-2.4c-0.3-1-0.5-1.7-0.6-2.1h-0.1c-0.2,0.6-0.3,1.1-0.4,1.5
				L288.2,249.3z"/>
			<path class="st2" d="M295.9,251.6h0.5c0,0.1,0.1,0.2,0.1,0.3c0,0.1,0,0.2,0,0.3c0,0.1,0,0.1,0,0.1c0,0,0,0.1,0,0.1
				c-0.1,0-0.3,0-0.4,0.1c-0.1,0-0.2,0-0.4,0c-0.3,0-0.6-0.1-0.9-0.2c-0.2-0.2-0.3-0.4-0.3-0.8v-8.1l0.1-0.1h0.3
				c0.2,0,0.3,0,0.4,0.1c0.1,0.1,0.1,0.3,0.1,0.5v7.3C295.4,251.4,295.6,251.6,295.9,251.6z"/>
			<path class="st2" d="M299.2,251.6h0.5c0,0.1,0.1,0.2,0.1,0.3c0,0.1,0,0.2,0,0.3c0,0.1,0,0.1,0,0.1c0,0,0,0.1,0,0.1
				c-0.1,0-0.3,0-0.4,0.1c-0.1,0-0.2,0-0.4,0c-0.3,0-0.6-0.1-0.9-0.2c-0.2-0.2-0.3-0.4-0.3-0.8v-8.1l0.1-0.1h0.3
				c0.2,0,0.3,0,0.4,0.1c0.1,0.1,0.1,0.3,0.1,0.5v7.3C298.8,251.4,298.9,251.6,299.2,251.6z"/>
			<path class="st2" d="M303.9,246.2c0,0.1,0,0.2,0,0.4c0,0.1,0,0.2,0,0.4l-1.6,0v4.2c0,0.3,0.2,0.5,0.5,0.5h0.9
				c0.1,0.1,0.1,0.3,0.1,0.4c0,0.1,0,0.2,0,0.3c-0.4,0.1-0.8,0.1-1.2,0.1c-0.8,0-1.2-0.3-1.2-1v-4.4l-0.9,0c0-0.1,0-0.2,0-0.4
				c0-0.1,0-0.2,0-0.4l0.9,0v-1.3c0-0.2,0-0.4,0.1-0.5c0.1-0.1,0.2-0.1,0.4-0.1h0.3l0.1,0.1v1.9L303.9,246.2z"/>
			<path class="st2" d="M309.9,251.9c-0.1,0.2-0.2,0.4-0.4,0.5c-0.4-0.1-0.7-0.4-0.8-0.9c-0.6,0.6-1.3,0.9-1.9,0.9
				c-0.3,0-0.6,0-0.8-0.1s-0.4-0.2-0.6-0.4c-0.2-0.2-0.3-0.4-0.3-0.6c-0.1-0.2-0.1-0.4-0.1-0.7c0-0.3,0.1-0.6,0.2-0.9
				c0.1-0.3,0.3-0.5,0.5-0.6c0.2-0.2,0.4-0.3,0.7-0.4c0.3-0.1,0.6-0.1,0.9-0.1c0.6,0,1.1,0,1.5,0.1v-0.6c0-0.9-0.4-1.3-1.1-1.3
				c-0.6,0-1.2,0.2-2,0.5c-0.2-0.2-0.3-0.4-0.3-0.7c0.9-0.4,1.7-0.6,2.4-0.6c1.3,0,1.9,0.7,1.9,2.1v2.6c0,0.3,0,0.5,0.1,0.7
				C309.7,251.6,309.8,251.8,309.9,251.9z M308.6,250.7v-1.2c-0.2,0-0.4-0.1-0.6-0.1c-0.2,0-0.4,0-0.7,0c-0.5,0-0.8,0.1-1.1,0.3
				c-0.2,0.2-0.4,0.5-0.4,0.9c0,0.3,0.1,0.6,0.3,0.8c0.2,0.2,0.4,0.3,0.7,0.3c0.3,0,0.6-0.1,0.9-0.3
				C308.1,251.2,308.4,251,308.6,250.7z"/>
			<path class="st2" d="M315.2,246.7c0.1-0.3,0.3-0.5,0.7-0.6c0.2,0.1,0.3,0.3,0.4,0.5c-0.2,0.2-0.3,0.7-0.3,1.3v3.9
				c0,0.6-0.1,1.1-0.2,1.5c-0.1,0.4-0.3,0.7-0.5,1c-0.2,0.3-0.4,0.4-0.7,0.6c-0.3,0.1-0.6,0.2-1,0.2c-0.8,0-1.5-0.1-2.1-0.4
				c0-0.3,0.1-0.5,0.3-0.7c0.6,0.3,1.1,0.4,1.7,0.4c0.3,0,0.6,0,0.8-0.1c0.2-0.1,0.4-0.2,0.5-0.4c0.1-0.2,0.2-0.4,0.3-0.6
				c0-0.2,0.1-0.5,0.1-0.8v-0.7c-0.5,0.5-1.1,0.8-1.8,0.8c-0.7,0-1.2-0.3-1.6-0.8c-0.4-0.6-0.5-1.3-0.5-2.3c0-0.5,0.1-1,0.2-1.4
				c0.1-0.4,0.3-0.7,0.5-1c0.2-0.3,0.5-0.5,0.7-0.6c0.3-0.1,0.6-0.2,0.9-0.2C314.1,246,314.6,246.2,315.2,246.7z M315,250.7v-3.2
				c-0.2-0.2-0.5-0.4-0.7-0.5c-0.2-0.1-0.5-0.2-0.7-0.2c-0.5,0-0.8,0.2-1.1,0.6c-0.3,0.4-0.4,1-0.4,1.8c0,0.8,0.1,1.4,0.4,1.8
				c0.2,0.4,0.5,0.6,0.9,0.6c0.3,0,0.7-0.1,1-0.3C314.6,251.2,314.8,251,315,250.7z"/>
			<path class="st2" d="M321.5,251.8l-1.3-5.5c0.2-0.1,0.4-0.1,0.6-0.1c0.2,0,0.4,0.1,0.4,0.4l0.7,2.9c0.1,0.5,0.3,1.2,0.4,2.1
				c0,0.1,0,0.1,0.1,0.1l1.3-5.4c0.1,0,0.3,0,0.6,0c0.2,0,0.4,0,0.6,0l1.2,5.3c0,0.1,0,0.1,0.1,0.1c0.2-0.7,0.3-1.5,0.5-2.3l0.7-3.2
				c0.1,0,0.2-0.1,0.4-0.1c0.2,0,0.3,0,0.4,0.1l0,0l-1.5,6.1c-0.2,0-0.4,0-0.6,0c-0.3,0-0.4,0-0.5-0.1c-0.1-0.1-0.2-0.2-0.2-0.5
				l-0.4-1.9c0-0.1-0.1-0.5-0.2-1.2c-0.1-0.7-0.2-1.2-0.3-1.5h0c0,0.2-0.2,1.1-0.6,2.7l-0.6,2.5c-0.2,0-0.4,0-0.7,0
				c-0.2,0-0.4,0-0.5-0.1C321.6,252.2,321.5,252,321.5,251.8z"/>
			<path class="st2" d="M330.7,247v5.3c-0.1,0-0.3,0-0.5,0s-0.3,0-0.5,0v-4.8c0-0.2,0-0.4-0.1-0.5c-0.1-0.1-0.2-0.1-0.4-0.1h-0.1
				c0-0.1,0-0.2,0-0.3s0-0.2,0-0.3c0.2,0,0.3,0,0.4,0c0.1,0,0.2,0,0.2,0h0.1c0.3,0,0.5,0.1,0.6,0.2
				C330.7,246.5,330.7,246.8,330.7,247z M329.5,244c0.1-0.1,0.3-0.1,0.6-0.1c0.2,0,0.4,0,0.5,0.1c0.1,0.1,0.1,0.2,0.1,0.5
				s0,0.4-0.1,0.5c-0.1,0.1-0.3,0.1-0.5,0.1c-0.2,0-0.4,0-0.5-0.1c-0.1-0.1-0.2-0.2-0.2-0.5C329.4,244.3,329.5,244.2,329.5,244z"/>
			<path class="st2" d="M332.6,246.6c0.1-0.2,0.2-0.4,0.4-0.5c0.5,0.2,0.8,0.5,0.9,1.1c0.3-0.7,0.9-1.1,1.7-1.1c0.2,0,0.4,0,0.6,0
				c0,0.4-0.1,0.6-0.2,0.9c-0.1,0-0.2,0-0.4,0c-0.7,0-1.2,0.4-1.5,1.1v4.1c-0.1,0-0.3,0-0.5,0c-0.2,0-0.3,0-0.5,0v-4.4
				C333,247.3,332.9,246.9,332.6,246.6z"/>
			<path class="st2" d="M340.9,250.1l0.5,1.1c0.2,0.5,0.4,0.8,0.6,0.9c-0.1,0.2-0.3,0.3-0.5,0.3c-0.2,0-0.4,0-0.5-0.1
				c-0.1-0.1-0.2-0.3-0.3-0.5l-0.6-1.3c-0.2-0.4-0.3-0.6-0.5-0.7c-0.2-0.1-0.4-0.2-0.7-0.2c-0.3,0-0.5,0-0.8,0.1v2.7
				c-0.1,0-0.3,0-0.5,0s-0.3,0-0.5,0v-9.1l0.1-0.1h0.3c0.2,0,0.3,0,0.4,0.1c0.1,0.1,0.1,0.3,0.1,0.5v5l0.5,0c0.1,0,0.2-0.1,0.3-0.2
				l1.3-2c0.1-0.2,0.2-0.3,0.3-0.4c0.1-0.1,0.2-0.1,0.3-0.1s0.3,0,0.5,0l0.1,0.1l-1.6,2.3c-0.1,0.2-0.2,0.3-0.3,0.3
				c0.3,0.1,0.5,0.2,0.7,0.4C340.6,249.4,340.8,249.7,340.9,250.1z"/>
			<path class="st2" d="M347.5,249.5h-3.9c0,1.4,0.6,2.1,1.6,2.1c0.6,0,1.2-0.2,1.8-0.5c0.2,0.2,0.3,0.4,0.3,0.6
				c-0.7,0.5-1.4,0.7-2.3,0.7c-0.4,0-0.8-0.1-1.1-0.2c-0.3-0.2-0.6-0.4-0.8-0.7c-0.2-0.3-0.3-0.6-0.4-1c-0.1-0.4-0.1-0.8-0.1-1.3
				c0-0.5,0.1-0.9,0.2-1.3c0.1-0.4,0.3-0.7,0.5-1c0.2-0.3,0.5-0.5,0.8-0.7c0.3-0.2,0.6-0.2,1-0.2c0.4,0,0.7,0.1,1,0.2
				c0.3,0.1,0.6,0.3,0.8,0.6c0.2,0.2,0.4,0.5,0.5,0.8c0.1,0.3,0.2,0.7,0.2,1.1c0,0.1,0,0.3,0,0.4
				C347.5,249.3,347.5,249.4,347.5,249.5z M343.6,248.8h3v-0.2c0-0.6-0.1-1-0.4-1.4c-0.2-0.3-0.6-0.5-1.1-0.5
				c-0.5,0-0.8,0.2-1.1,0.6C343.8,247.7,343.7,248.2,343.6,248.8z"/>
			<path class="st2" d="M354.1,248v3.1c0,0.5,0,0.8,0.1,1.1c-0.1,0.1-0.3,0.2-0.6,0.2c-0.3,0-0.5-0.2-0.5-0.6v-3.4
				c0-0.5-0.1-0.9-0.2-1.1c-0.1-0.2-0.4-0.3-0.7-0.3c-0.3,0-0.7,0.1-1,0.3c-0.4,0.2-0.7,0.4-0.9,0.7v4.4c-0.1,0-0.3,0-0.5,0
				c-0.2,0-0.3,0-0.5,0v-6.1l0.1-0.1h0.3c0.2,0,0.3,0.1,0.4,0.2c0.1,0.1,0.1,0.3,0.1,0.5v0.2c0.3-0.3,0.6-0.5,1-0.6
				c0.4-0.2,0.8-0.2,1.1-0.2c0.6,0,1,0.2,1.2,0.5S354.1,247.4,354.1,248z"/>
			<path class="st2" d="M356.2,251.3c0.2-0.1,0.4-0.1,0.6-0.1c0.1,0,0.2,0,0.3,0c0.1,0,0.2,0,0.2,0.1c0.1,0,0.1,0.1,0.1,0.2
				s0,0.2,0,0.4c0,0.2,0,0.3,0,0.4s-0.1,0.1-0.1,0.2c-0.1,0-0.1,0.1-0.2,0.1c-0.1,0-0.2,0-0.3,0c-0.1,0-0.2,0-0.3,0
				c-0.1,0-0.2,0-0.2-0.1c-0.1,0-0.1-0.1-0.1-0.2s0-0.2,0-0.4C356.1,251.5,356.2,251.3,356.2,251.3z M356.4,250l-0.1-6
				c0.2-0.2,0.6-0.3,1-0.3l0.1,0.1l-0.2,6.2c0,0-0.1,0-0.2,0c-0.1,0-0.1,0-0.2,0C356.6,250,356.5,250,356.4,250z"/>
		</g>
	</g>
	<linearGradient id="SVGID_2_" gradientUnits="userSpaceOnUse" x1="1" y1="226.0823" x2="363.9994" y2="226.0823">
		<stop  offset="9.999848e-04" style="stop-color:#009632"/>
		<stop  offset="0.9105" style="stop-color:#009632;stop-opacity:0.2717"/>
		<stop  offset="1" style="stop-color:#009632;stop-opacity:0.2"/>
	</linearGradient>
	<polygon class="st6" points="244.6,227.5 244.6,221.4 243.9,221.4 243.9,227.5 224.4,227.5 224.4,223.6 223.6,223.6 223.6,227.5 
		204.2,227.5 204.2,223.6 203.4,223.6 203.4,227.5 183.9,227.5 183.9,223.6 183.1,223.6 183.1,227.5 163.7,227.5 163.7,223.6 
		162.9,223.6 162.9,227.5 143.4,227.5 143.4,223.6 142.7,223.6 142.7,227.5 123.2,227.5 123.2,223.6 122.4,223.6 122.4,227.5 
		103,227.5 103,223.6 102.2,223.6 102.2,227.5 82.7,227.5 82.7,223.6 82,223.6 82,227.5 62.5,227.5 62.5,223.6 61.7,223.6 
		61.7,227.5 42.3,227.5 42.3,223.6 41.5,223.6 41.5,227.5 22,227.5 22,223.6 21.2,223.6 21.2,227.5 1.8,227.5 1.8,221.4 1,221.4 
		1,228.6 1,228.6 1,230.8 364,230.8 364,227.5 	"/>
</g>
</svg>
