<?xml version="1.0" encoding="utf-8"?>
<!-- Generator: Adobe Illustrator 22.0.0, SVG Export Plug-In . SVG Version: 6.00 Build 0)  -->
<svg version="1.1" id="Layer_1" xmlns="http://www.w3.org/2000/svg" xmlns:xlink="http://www.w3.org/1999/xlink" x="0px" y="0px"
	 viewBox="0 0 561.8 355.6" style="enable-background:new 0 0 561.8 355.6;" xml:space="preserve">
<style type="text/css">
	.st0{fill:#FFFFFF;}
	.st1{opacity:0.2;fill:#FF2832;enable-background:new    ;}
	.st2{fill:none;stroke:#FF2832;stroke-width:1.0406;stroke-miterlimit:10;}
	.st3{fill:#FF2832;}
	.st4{opacity:0.2;fill:#009632;enable-background:new    ;}
	.st5{fill:none;stroke:#009632;stroke-width:1.0406;stroke-miterlimit:10;}
	.st6{fill:#009632;}
	.st7{opacity:0.2;fill:#FFC800;enable-background:new    ;}
	.st8{fill:none;stroke:#FFC800;stroke-width:1.0406;stroke-miterlimit:10;}
	.st9{fill:#FFC800;}
</style>
<path class="st0" d="M122.5,194.4c-0.3-3.5-1.7-11-1.7-11l-0.4-2.9l0,0c0,0-1.6-18.1-2-25.9c-0.5-7.7-3.8-16.9-5.3-22.5
	c-1.5-5.6,3.3-17.8-1-33c-2.5-9.5,0-18.4-5.1-25c-5.6-7.2-11.6-6.4-14.1-6.8l0,0c-2.9-0.5-6.3-1-8.4-1.9c-5.1-2.2-8.3-4.4-11.2-5.7
	c-2.1-0.9-2.3-7.1-2.2-10.8c1.7-1.1,3-2.3,3.7-3.3c1-1.6,1.8-6.1,2.2-10.2c0.4,0.1,0.9,0,1.7-0.4c1.9-0.9,2.5-6.4,1.2-8.9
	c-0.1-0.2-0.2-0.4-0.4-0.6c0.7-5.5,1.4-14.7-1.4-18.8c-4-6.1-13-6.3-16-6.6c-4-0.4-11.2-0.3-13,4.2c-8.4,0.8-7.4,14.1-6.2,21.2
	c-0.1,0.1-0.2,0.3-0.3,0.5c-1.3,2.5-0.7,7.9,1.2,8.9c0.9,0.4,1.5,0.5,1.8,0.4c0.4,4.1,1.2,8.6,2.2,10.2c0.7,1,1.9,2.2,3.6,3.3
	c0.1,3.7-0.1,9.9-2.2,10.8c-2.9,1.3-6.1,3.5-11.2,5.7c-2.1,0.9-5.5,1.4-8.4,1.9c-2.5,0.3-8.6-0.4-14.1,6.8c-5.1,6.6-2.7,15.6-5.1,25
	c-4.3,15.3,0.5,27.4-1,33c-1.5,5.6-4.8,14.8-5.3,22.5s-2,25.9-2,25.9l0,0l-0.4,2.9c0,0-1.4,7.5-1.7,11c-0.2,2.3,0.3,5.8,1.8,8.9
	c2.7,5.3,8.1,9.3,8.1,9.3c0.7,0.8,4.9,1.2,2.6-1.8c-4.5-5.9-5-9.9-5-9.9S6.9,196,8.3,196c1.1-0.1,2.3,2.4,2.7,3.6
	c0.8,2.3,1.1,5.9,2.7,5.1c0.6-0.3,0.4-1,0.3-2.4c0-0.7,0.2-1.9,0.1-2.6c-0.1-0.6-0.9-3.8-1.2-4.8c-0.3-1-1.6-4.8-2-5.8
	c-0.4-1.1-0.8-3.1-0.7-4.6c0.1-1.5,2.7-10.4,3.9-13c0.8-1.9,9.7-13.9,11.3-37.6c0.4-5.6,1.8-13.5,2.7-21.1c0.7,3.5,1.3,6.9,1.4,9.5
	c0.3,7.8,2.6,19.3,1.9,25.2c-1.6,13.6-5.1,13.2-5.1,35.6c0,14.8-0.6,42.2,7,74.9c1.1,4.8,0.1,11.4-0.5,16.3
	c-1.1,9.2,1.6,21.5,7.2,49.4c5.4,26.8-11.1,23.7-8.3,30c1.2,2.6,16.3,1.8,21,1.6c1.4-0.1,2.5-1.2,2.6-2.5c0.1-1.4-0.6-3-1.9-7.2
	c-1.5-4.8-0.9-11.9-0.9-11.9s3-43.6,3-49.8c0-7-0.5-11.7-1-14.5c-0.4-2.4-0.6-4.8,0-7.2c4.4-19.6,4.4-69.6,4.4-69.7h4.7
	c0,0,0.1,50,4.4,69.7c0.5,2.4,0.4,4.8,0,7.2c-0.5,2.8-1,7.5-1,14.5c0,6.2,3,49.8,3,49.8s0.6,7.1-0.9,11.9c-1.3,4.1-2,5.7-1.9,7.2
	c0.1,1.4,1.2,2.5,2.6,2.5c4.7,0.2,19.8,1,21-1.6c2.8-6.3-13.7-3.2-8.3-30c5.7-27.9,8.3-40.2,7.2-49.4c-0.6-4.9-1.6-11.5-0.5-16.3
	c7.6-32.6,7-60.1,7-74.9c0-22.5-3.5-22.1-5.1-35.6c-0.7-5.8,1.7-17.3,1.9-25.2c0.1-2.6,0.7-6,1.4-9.5c0.9,7.6,2.3,15.6,2.7,21.1
	c1.6,23.7,11,36.4,11.8,38.1c0.9,2.2,3.4,11,3.4,12.6c0.1,1.5-0.3,3.5-0.7,4.6c-0.3,1-1.7,4.8-2,5.8s-1.1,4.1-1.2,4.8
	s0.2,1.9,0.1,2.6c-0.1,1.4-0.3,2.1,0.3,2.4c1.6,0.7,1.9-2.8,2.7-5.1c0.4-1.2,1.6-3.7,2.7-3.6c1.3,0.1,0.8,4.8,0.8,4.8s-0.5,4-5,9.9
	c-2.3,3,1.9,2.6,2.6,1.8c0,0,5.4-4.1,8.1-9.3C122.3,200.2,122.7,196.7,122.5,194.4z"/>
<circle class="st1" cx="61.1" cy="25.1" r="14.7"/>
<circle class="st1" cx="61.1" cy="155.9" r="14.7"/>
<g>
	<path class="st2" d="M64.9,33.6c0,9.5-7.3,9.5-7.3,19.1c0,9.5,7.3,9.5,7.3,19.1s-7.3,9.6-7.3,19.1c0,9.6,7.3,9.6,7.3,19.1
		c0,9.6-7.3,9.6-7.3,19.1s7.3,9.6,7.3,19.1"/>
</g>
<g>
	<path class="st2" d="M57.6,148.2c0-9.5,7.3-9.5,7.3-19.1c0-9.5-7.3-9.5-7.3-19.1s7.3-9.6,7.3-19.1c0-9.6-7.3-9.6-7.3-19.1
		c0-9.6,7.3-9.6,7.3-19.1s-7.3-9.6-7.3-19.1"/>
</g>
<circle class="st3" cx="61.1" cy="25.1" r="9.2"/>
<circle class="st3" cx="61.1" cy="155.9" r="9.2"/>
<path class="st0" d="M561.7,194.6c-0.2-3.5-1.4-11-1.4-11l-0.3-3l0.1,0.1c0,0-0.9-18.2-1.1-26c-0.2-7.8-3.5-18.3-4.8-23.9
	c-1.3-5.7-1.7-16.8-1.5-30.2c0.2-13.8-0.8-24.6-3.2-28c-2.8-4-8.4-5.4-10.6-5.9c-1.7-0.5-3.6-1-5.6-1.6c0,0,0,0,0-0.1
	c2.5-6.5,2.5-13.8,0.1-20.4c-0.7-1.9-1.5-3.7-2-5.7c-0.7-3-0.4-6-0.5-9.1c-0.2-5.4-0.6-12.2-3.2-17.1c-2.1-4-5.2-8-10-8.4
	c-1.1-0.1-1.6,0.2-2.5-0.4c-1-0.6-3.1-2.4-6.3-2.9c-9.5-1.5-17.7,4.1-21.6,12.7c-2.9,6.3-3.1,13.4-2.9,20.3c0.1,2.9,0.2,5.8-1,8.4
	c-1.7,3.8-5.9,5.9-8.3,9.3c-1.9,2.7-2.5,6.2-2.7,9.5c-0.1,2.2,0,4.4,0.5,6.5c-1.1,0.5-2.3,1.2-3.3,2.1l0,0l0,0
	c-0.2,0.1-0.3,0.3-0.5,0.5l0,0c-0.1,0.1-0.3,0.3-0.4,0.4l-0.1,0.1c-0.1,0.1-0.2,0.2-0.3,0.4c0,0.1-0.1,0.1-0.1,0.2
	c-0.1,0.2-0.3,0.4-0.4,0.5c-2.4,3.4-3.4,14.6-3.2,28.4c0.2,13.5-0.2,24.6-1.5,30.2c-1.3,5.7-4.6,16.2-4.8,23.9c0,0.2,0,0.3,0,0.5
	v0.1c0,0.2,0,0.4,0,0.5v0.1c0,0.2,0,0.3,0,0.5v0.1c0,0.2,0,0.4,0,0.6v0.1c0,0.2,0,0.4,0,0.5v0.1c0,0.2,0,0.4,0,0.6
	c0,0.1,0,0.1,0,0.2c0,0.2,0,0.4,0,0.6l0,0c0,0.2,0,0.5,0,0.7v0.1c0,0.2,0,0.5,0,0.7l0,0c0,0.3,0,0.5,0,0.8l0,0c0,0.5,0,1-0.1,1.6
	v0.1c0,0.8-0.1,1.6-0.1,2.5l0,0c0,0.3,0,0.5,0,0.8l0,0c-0.3,7.1-0.7,13.9-0.7,13.9l0,0l-0.3,2.9c0,0-1.2,7.5-1.4,11
	c-0.1,2.3,0.5,5.8,2.1,8.8c2.9,5.2,7.2,7.8,7.2,7.8c0.7,0.7,4.9,1,2.6-1.9c-4.7-5.8-4.1-8.5-4.1-8.5s-0.7-4.8,0.6-4.9
	c1.1-0.1,2.4,2.3,2.8,3.6c0.9,2.3,1.4,5.8,2.9,5c0.6-0.3,0.3-1,0.2-2.4c-0.1-0.7,0.1-1.9,0-2.6c-0.1-0.6-1-3.8-1.3-4.7
	c-0.3-1-1.8-4.7-2.2-5.7c-0.5-1.1-0.9-3.1-0.9-4.6s2.5-10.9,3-12.7c0.4-1.8,10.5-27.9,10.5-38.6c0-5.3,0.4-13.5,0.7-21.2
	c1,5.3,2.2,11.4,3,14.1c1.1,3.7,1.5,12.3-1.5,18.5c-0.2,0.4-0.4,0.7-0.6,1.1c-0.9,1.6-1.8,3.1-2.5,4.7c-7.4,14.6-8.1,27.2-8.1,36.4
	c0,1.5,0.1,3,0.2,4.8l0,0c0-0.2,0-0.4,0-0.5c0.4,5.5,1.5,13,3.7,25.9c-0.2-0.8-0.3-1.2-0.3-1.2c1.7,10.2,4.2,23.8,7.6,42.6
	c0.9,4.8,1.1,9.7,0.7,14.6c-0.8,9,0.2,21.9,5.8,49.9c2.3,11.4,1.2,17.7-0.7,21.6l0,0c-2.7,5.5-6.9,6.2-5.5,9.9
	c2.2,2.6,13,1.7,17.7,1.5c1.3-0.1,2.4-0.2,3.1-2c0.5-1.3,0.6-2.1-1.7-7.5c-1.4-3.2-1.3-8.6-1.3-8.6s3.4-46.8,3.4-53.5
	c0-6.5-0.4-11.1-0.9-14.1c-0.5-2.9-0.5-5.8-0.2-8.7c0.5-4.3,1-10.2,1.5-16.8c0,0.2,0,0.4,0,0.6c2.7-33.6,3.2-55.3,3.2-55.3h4
	l-0.1,0.1c0,0,1.3,50.6,4.3,71.8c0.4,2.8,0.4,5.7,0,8.5c-0.4,2.9-0.9,7.4-0.9,13.9c0,6.2,3,49.9,3,49.9s0.4,5-0.3,9.5
	c-0.1,0.3-0.1,0.6-0.2,0.9c0,0,0.1-0.5,0.3-1.2c-0.1,0.9-0.3,1.8-0.6,2.6c-1.3,4.1-2,5.7-1.9,7.2c0.1,1.4,1.2,2.5,2.6,2.5
	c4.7,0.2,16.8,1.2,18.1-1.4c2.9-6.3-12.9-4.3-6.2-31.6c6.7-27.7,7.4-40.7,6.3-49.9c-0.6-4.9-0.5-9.8,0.2-14.7
	c6.1-39.8,12.2-57.5,12.2-72.3c0-11.4-0.9-18.8-2.6-24.7l0,0c-0.1-0.4-0.2-0.8-0.4-1.2l0,0c-0.4-1.2-0.8-2.3-1.2-3.4l0,0
	c-0.1-0.4-0.3-0.7-0.4-1.1l0,0c-0.3-0.7-0.6-1.4-1-2.1l0,0c-0.2-0.3-0.3-0.7-0.5-1c0,0,0,0,0-0.1c-0.2-0.3-0.3-0.7-0.5-1
	c0,0,0,0,0-0.1c-0.4-0.7-0.7-1.4-1.1-2.1c0,0,0,0,0-0.1c-0.2-0.3-0.4-0.7-0.6-1v-0.1c-0.2-0.3-0.4-0.7-0.6-1v-0.1
	c-0.2-0.4-0.4-0.7-0.6-1.1c-2.8-4.9-2.7-14-1.8-19.7c0-0.2,0.1-0.3,0.1-0.5v-0.1c0-0.2,0.1-0.3,0.1-0.5v-0.1c0-0.2,0.1-0.3,0.1-0.5
	v-0.1c0-0.2,0.1-0.4,0.1-0.6v-0.1c0-0.2,0.1-0.4,0.1-0.6c0,0,0,0,0-0.1c0-0.2,0.1-0.4,0.1-0.7v-0.1c0-0.2,0.1-0.5,0.1-0.7l0,0
	c0.1-0.2,0.1-0.5,0.2-0.7v-0.1c0.1-0.2,0.1-0.5,0.2-0.8v-0.1c0.1-0.2,0.1-0.5,0.2-0.7v-0.1c0.1-0.3,0.1-0.5,0.2-0.8v-0.1
	c0.1-0.3,0.1-0.5,0.2-0.8l0,0c0.1-0.3,0.1-0.6,0.2-0.8c0-0.1,0-0.1,0-0.2c0.1-0.3,0.1-0.6,0.2-0.8c0,0,0,0,0-0.1
	c0.1-0.3,0.1-0.5,0.2-0.8c0-0.1,0-0.1,0-0.2s0.1-0.3,0.1-0.4c0,0.3,0,0.6,0,0.9c0,0.1,0,0.1,0,0.2c0,0.4,0,0.8,0.1,1.2v0.1
	c0,0.4,0,0.8,0.1,1.3v0.1c0,0.4,0,0.8,0.1,1.3c0,0.1,0,0.1,0,0.2c0,0.4,0,0.8,0.1,1.2v0.1c0,0.4,0,0.8,0.1,1.3v0.1
	c0,0.4,0,0.9,0,1.3l0,0c0,0.4,0,0.8,0,1.2v0.1c0,0.4,0,0.8,0,1.2v0.1c0,0.4,0,0.8,0,1.1c0,0.1,0,0.1,0,0.2c0,0.4,0,0.7,0,1.1
	c0,0.1,0,0.1,0,0.2c0,0.4,0,0.7,0,1c0,0.1,0,0.1,0,0.2c0,0.3,0,0.7,0,1c0,0.1,0,0.1,0,0.2c0,0.3,0,0.6,0,1v0.1c0,0.3,0,0.6,0,0.9
	v0.1c0,0.3,0,0.6,0,0.9c0,0.2,0,0.5,0,0.7v0.1c0,0.2,0,0.5,0,0.7v0.1c0,0.3,0,0.5,0.1,0.8v0.1c0,0.3,0.1,0.5,0.1,0.8v0.1
	c0,0.3,0.1,0.6,0.1,0.9c0,0.1,0,0.1,0,0.2c0,0.3,0.1,0.6,0.1,0.9c0,0.1,0,0.1,0,0.2c0.1,0.3,0.1,0.6,0.2,1l0,0
	c0.1,0.3,0.1,0.6,0.2,1c0,0.1,0,0.1,0,0.2c0.1,0.3,0.1,0.6,0.2,1c0,0.1,0,0.1,0,0.2c0.1,0.3,0.1,0.7,0.2,1v0.1
	c0.1,0.3,0.2,0.7,0.2,1v0.1c0.1,0.3,0.2,0.7,0.3,1c0,0.1,0,0.1,0.1,0.2c0.1,0.3,0.2,0.7,0.3,1c0,0.1,0,0.1,0,0.2
	c0.1,0.4,0.2,0.7,0.3,1.1c0,0,0,0,0,0.1c0.1,0.4,0.2,0.7,0.3,1.1c0,0.1,0,0.1,0,0.2c0.1,0.4,0.2,0.7,0.3,1.1c0,0.1,0,0.1,0.1,0.2
	c0.1,0.4,0.2,0.7,0.3,1.1c0,0.1,0,0.1,0,0.2c0.1,0.4,0.2,0.7,0.3,1.1v0.1c0.1,0.4,0.2,0.7,0.3,1.1c0,0.1,0,0.1,0.1,0.2
	c0.1,0.3,0.2,0.7,0.3,1c0,0.1,0,0.1,0.1,0.2c0.1,0.4,0.2,0.7,0.3,1.1c0,0,0,0,0,0.1c0.1,0.3,0.2,0.7,0.3,1c0,0.1,0,0.1,0,0.2
	c0.1,0.3,0.2,0.7,0.3,1c0,0.1,0,0.1,0.1,0.2c0.1,0.3,0.2,0.7,0.3,1v0.1c0.1,0.3,0.2,0.6,0.3,1c0,0,0,0,0,0.1
	c0.1,0.3,0.2,0.6,0.3,0.9c0,0.1,0,0.1,0.1,0.2c0.1,0.3,0.2,0.6,0.3,0.9c0,0.1,0,0.1,0.1,0.2c0.1,0.3,0.2,0.6,0.3,0.9v0.1
	c0.1,0.3,0.2,0.5,0.3,0.8v0.1c0.1,0.3,0.2,0.5,0.3,0.8c0,0.1,0,0.1,0.1,0.2c0.1,0.3,0.2,0.5,0.3,0.7v0.1c0.1,0.2,0.2,0.5,0.2,0.7
	l0,0c0.8,2.3,1.5,4.7,2.1,7l0,0c0.1,0.4,0.2,0.8,0.3,1.2c0,0.1,0,0.1,0,0.2c0.1,0.3,0.2,0.6,0.2,1c0,0.1,0.1,0.2,0.1,0.3
	c0.1,0.3,0.1,0.6,0.2,0.8c0,0.1,0,0.2,0.1,0.3c0.1,0.3,0.2,0.7,0.2,1c0,0,0,0,0,0.1l0.4,1.9c0.3,1.3,0.5,2.4,0.7,3.2
	c0.4,2.4-0.6,3.6-0.9,4.6c-0.3,1-1.9,4.7-2.2,5.7s-1.3,4.1-1.3,4.7c-0.1,0.7,0.1,1.9,0,2.6c-0.1,1.4-0.4,2.1,0.2,2.4
	c1.6,0.8,2-2.8,2.9-5c0.5-1.2,1.7-3.7,2.8-3.6c1.3,0.1,0.6,4.9,0.6,4.9s0.6,2.7-4.1,8.5c-2.4,2.9,1.8,2.6,2.6,1.9
	c0,0,4.3-2.6,7.2-7.8C561.2,200.4,561.8,196.8,561.7,194.6z"/>
<circle class="st4" cx="508.5" cy="25.7" r="14.7"/>
<circle class="st4" cx="508.5" cy="156.6" r="14.7"/>
<g>
	<path class="st5" d="M512.3,34.2c0,9.5-7.3,9.5-7.3,19.1c0,9.5,7.3,9.5,7.3,19.1S505,82,505,91.5c0,9.6,7.3,9.6,7.3,19.1
		c0,9.6-7.3,9.6-7.3,19.1s7.3,9.6,7.3,19.1"/>
</g>
<g>
	<path class="st5" d="M505,148.8c0-9.5,7.3-9.5,7.3-19.1c0-9.5-7.3-9.5-7.3-19.1s7.3-9.6,7.3-19.1c0-9.6-7.3-9.6-7.3-19.1
		c0-9.6,7.3-9.6,7.3-19.1s-7.3-9.6-7.3-19.1"/>
</g>
<circle class="st6" cx="508.5" cy="25.7" r="9.2"/>
<circle class="st6" cx="508.5" cy="156.6" r="9.2"/>
<path class="st0" d="M271.7,194.4c-0.3-3.5-1.7-11-1.7-11l-0.4-2.9l0,0c0,0-1.6-18.1-2-25.9c-0.5-7.7-3.8-16.9-5.3-22.5
	c-1.5-5.6,3.3-17.8-1-33c-2.5-9.5,0-18.4-5.1-25c-5.6-7.2-11.6-6.4-14.1-6.8l0,0c-2.9-0.5-6.3-1-8.4-1.9c-5.1-2.2-8.3-4.4-11.2-5.7
	c-2.1-0.9-2.3-7.1-2.2-10.8c1.7-1.1,3-2.3,3.7-3.3c1-1.6,1.8-6.1,2.2-10.2c0.4,0.1,0.9,0,1.7-0.4c1.9-0.9,2.5-6.4,1.2-8.9
	c-0.1-0.2-0.2-0.4-0.4-0.6c0.7-5.5,1.4-14.7-1.4-18.8c-4-6.1-13-6.3-16-6.6c-4-0.4-11.2-0.3-13,4.2c-8.4,0.8-7.4,14.1-6.2,21.2
	c-0.1,0.1-0.2,0.3-0.3,0.5c-1.3,2.5-0.7,7.9,1.2,8.9c0.9,0.4,1.5,0.5,1.8,0.4c0.4,4.1,1.2,8.6,2.2,10.2c0.7,1,1.9,2.2,3.6,3.3
	c0.1,3.7-0.1,9.9-2.2,10.8c-2.9,1.3-6.1,3.5-11.2,5.7c-2.1,0.9-5.5,1.4-8.4,1.9c-2.5,0.3-8.6-0.4-14.1,6.8c-5.1,6.6-2.7,15.6-5.1,25
	c-4.3,15.3,0.5,27.4-1,33c-1.5,5.6-4.8,14.8-5.3,22.5s-2,25.9-2,25.9l0,0l-0.4,2.9c0,0-1.4,7.5-1.7,11c-0.2,2.3,0.3,5.8,1.8,8.9
	c2.7,5.3,8.1,9.3,8.1,9.3c0.7,0.8,4.9,1.2,2.6-1.8c-4.5-5.9-5-9.9-5-9.9s-0.6-4.8,0.8-4.8c1.1-0.1,2.3,2.4,2.7,3.6
	c0.8,2.3,1.1,5.9,2.7,5.1c0.6-0.3,0.4-1,0.3-2.4c0-0.7,0.2-1.9,0.1-2.6c-0.1-0.6-0.9-3.8-1.2-4.8c-0.3-1-1.6-4.8-2-5.8
	c-0.4-1.1-0.8-3.1-0.7-4.6c0.1-1.5,2.7-10.4,3.9-13c0.8-1.9,9.7-13.9,11.3-37.6c0.4-5.6,1.8-13.5,2.7-21.1c0.7,3.5,1.3,6.9,1.4,9.5
	c0.3,7.8,2.6,19.3,1.9,25.2c-1.6,13.6-5.1,13.2-5.1,35.6c0,14.8-0.6,42.2,7,74.9c1.1,4.8,0.1,11.4-0.5,16.3
	c-1.1,9.2,1.6,21.5,7.2,49.4c5.4,26.8-11.1,23.7-8.3,30c1.2,2.6,16.3,1.8,21,1.6c1.4-0.1,2.5-1.2,2.6-2.5c0.1-1.4-0.6-3-1.9-7.2
	c-1.5-4.8-0.9-11.9-0.9-11.9s3-43.6,3-49.8c0-7-0.5-11.7-1-14.5c-0.4-2.4-0.6-4.8,0-7.2c4.4-19.6,4.4-69.6,4.4-69.7h4.7
	c0,0,0.1,50,4.4,69.7c0.5,2.4,0.4,4.8,0,7.2c-0.5,2.8-1,7.5-1,14.5c0,6.2,3,49.8,3,49.8s0.6,7.1-0.9,11.9c-1.3,4.1-2,5.7-1.9,7.2
	c0.1,1.4,1.2,2.5,2.6,2.5c4.7,0.2,19.8,1,21-1.6c2.8-6.3-13.7-3.2-8.3-30c5.7-27.9,8.3-40.2,7.2-49.4c-0.6-4.9-1.6-11.5-0.5-16.3
	c7.6-32.6,7-60.1,7-74.9c0-22.5-3.5-22.1-5.1-35.6c-0.7-5.8,1.7-17.3,1.9-25.2c0.1-2.6,0.7-6,1.4-9.5c0.9,7.6,2.3,15.6,2.7,21.1
	c1.6,23.7,11,36.4,11.8,38.1c0.9,2.2,3.4,11,3.4,12.6s-0.3,3.5-0.7,4.6c-0.3,1-1.7,4.8-2,5.8s-1.1,4.1-1.2,4.8s0.2,1.9,0.1,2.6
	c-0.1,1.4-0.3,2.1,0.3,2.4c1.6,0.7,1.9-2.8,2.7-5.1c0.4-1.2,1.6-3.7,2.7-3.6c1.3,0.1,0.8,4.8,0.8,4.8s-0.5,4-5,9.9
	c-2.3,3,1.9,2.6,2.6,1.8c0,0,5.4-4.1,8.1-9.3C271.5,200.2,271.9,196.7,271.7,194.4z"/>
<circle class="st7" cx="210.3" cy="25.1" r="14.7"/>
<circle class="st7" cx="210.3" cy="155.9" r="14.7"/>
<g>
	<path class="st8" d="M214.1,33.6c0,9.5-7.3,9.5-7.3,19.1c0,9.5,7.3,9.5,7.3,19.1s-7.3,9.6-7.3,19.1c0,9.6,7.3,9.6,7.3,19.1
		c0,9.6-7.3,9.6-7.3,19.1c0,9.5,7.3,9.6,7.3,19.1"/>
</g>
<g>
	<path class="st8" d="M206.8,148.2c0-9.5,7.3-9.5,7.3-19.1c0-9.5-7.3-9.5-7.3-19.1s7.3-9.6,7.3-19.1c0-9.6-7.3-9.6-7.3-19.1
		c0-9.6,7.3-9.6,7.3-19.1c0-9.6-7.3-9.6-7.3-19.1"/>
</g>
<circle class="st9" cx="210.3" cy="25.1" r="9.2"/>
<circle class="st9" cx="210.3" cy="155.9" r="9.2"/>
<path class="st0" d="M412.6,194.6c-0.2-3.5-1.4-11-1.4-11l-0.3-3l0.1,0.1c0,0-0.9-18.2-1.1-26c-0.2-7.8-3.5-18.3-4.8-23.9
	c-1.3-5.7-1.7-16.8-1.5-30.2c0.2-13.8-0.8-24.6-3.2-28c-2.8-4-8.4-5.4-10.6-5.9c-1.7-0.5-3.6-1-5.6-1.6c0,0,0,0,0-0.1
	c2.5-6.5,2.5-13.8,0.1-20.4c-0.7-1.9-1.5-3.7-2-5.7c-0.7-3-0.4-6-0.5-9.1c-0.2-5.4-0.6-12.2-3.2-17.1c-2.1-4-5.2-8-10-8.4
	c-1.1-0.1-1.6,0.2-2.5-0.4c-1-0.6-3.1-2.4-6.3-2.9c-9.5-1.5-17.7,4.1-21.6,12.7c-2.9,6.3-3.1,13.4-2.9,20.3c0.1,2.9,0.2,5.8-1,8.4
	c-1.7,3.8-5.9,5.9-8.3,9.3c-1.9,2.7-2.5,6.2-2.7,9.5c-0.1,2.2,0,4.4,0.5,6.5c-1.1,0.5-2.3,1.2-3.3,2.1l0,0l0,0
	c-0.2,0.1-0.3,0.3-0.5,0.5l0,0c-0.1,0.1-0.3,0.3-0.4,0.4l-0.1,0.1c-0.1,0.1-0.2,0.2-0.3,0.4c0,0.1-0.1,0.1-0.1,0.2
	c-0.1,0.2-0.3,0.4-0.4,0.5c-2.4,3.4-3.4,14.6-3.2,28.4c0.2,13.5-0.2,24.6-1.5,30.2c-1.3,5.7-4.6,16.2-4.8,23.9c0,0.2,0,0.3,0,0.5
	v0.1c0,0.2,0,0.4,0,0.5v0.1c0,0.2,0,0.3,0,0.5v0.1c0,0.2,0,0.4,0,0.6v0.1c0,0.2,0,0.4,0,0.5v0.1c0,0.2,0,0.4,0,0.6
	c0,0.1,0,0.1,0,0.2c0,0.2,0,0.4,0,0.6l0,0c0,0.2,0,0.5,0,0.7v0.1c0,0.2,0,0.5,0,0.7l0,0c0,0.3,0,0.5,0,0.8l0,0c0,0.5,0,1-0.1,1.6
	v0.1c0,0.8-0.1,1.6-0.1,2.5l0,0c0,0.3,0,0.5,0,0.8l0,0c-0.3,7.1-0.7,13.9-0.7,13.9l0,0L308,183c0,0-1.2,7.5-1.4,11
	c-0.1,2.3,0.5,5.8,2.1,8.8c2.9,5.2,7.2,7.8,7.2,7.8c0.7,0.7,4.9,1,2.6-1.9c-4.7-5.8-4.1-8.5-4.1-8.5s-0.7-4.8,0.6-4.9
	c1.1-0.1,2.4,2.3,2.8,3.6c0.9,2.3,1.4,5.8,2.9,5c0.6-0.3,0.3-1,0.2-2.4c-0.1-0.7,0.1-1.9,0-2.6c-0.1-0.6-1-3.8-1.3-4.7
	c-0.3-1-1.8-4.7-2.2-5.7c-0.5-1.1-0.9-3.1-0.9-4.6s2.5-10.9,3-12.7c0.4-1.8,10.5-27.9,10.5-38.6c0-5.3,0.4-13.5,0.7-21.2
	c1,5.3,2.2,11.4,3,14.1c1.1,3.7,1.5,12.3-1.5,18.5c-0.2,0.4-0.4,0.7-0.6,1.1c-0.9,1.6-1.8,3.1-2.5,4.7c-7.4,14.6-8.1,27.2-8.1,36.4
	c0,1.5,0.1,3,0.2,4.8l0,0c0-0.2,0-0.4,0-0.5c0.4,5.5,1.5,13,3.7,25.9c-0.2-0.8-0.3-1.2-0.3-1.2c1.7,10.2,4.2,23.8,7.6,42.6
	c0.9,4.8,1.1,9.7,0.7,14.6c-0.8,9,0.2,21.9,5.8,49.9c2.3,11.4,1.2,17.7-0.7,21.6l0,0c-2.7,5.5-6.9,6.2-5.5,9.9
	c2.2,2.6,13,1.7,17.7,1.5c1.3-0.1,2.4-0.2,3.1-2c0.5-1.3,0.6-2.1-1.7-7.5c-1.4-3.2-1.3-8.6-1.3-8.6s3.4-46.8,3.4-53.5
	c0-6.5-0.4-11.1-0.9-14.1c-0.5-2.9-0.5-5.8-0.2-8.7c0.5-4.3,1-10.2,1.5-16.8c0,0.2,0,0.4,0,0.6c2.7-33.6,3.2-55.3,3.2-55.3h4
	l-0.1,0.1c0,0,1.3,50.6,4.3,71.8c0.4,2.8,0.4,5.7,0,8.5c-0.4,2.9-0.9,7.4-0.9,13.9c0,6.2,3,49.9,3,49.9s0.4,5-0.3,9.5
	c-0.1,0.3-0.1,0.6-0.2,0.9c0,0,0.1-0.5,0.3-1.2c-0.1,0.9-0.3,1.8-0.6,2.6c-1.3,4.1-2,5.7-1.9,7.2c0.1,1.4,1.2,2.5,2.6,2.5
	c4.7,0.2,16.8,1.2,18.1-1.4c2.9-6.3-12.9-4.3-6.2-31.6c6.7-27.7,7.4-40.7,6.3-49.9c-0.6-4.9-0.5-9.8,0.2-14.7
	c6.1-39.8,12.2-57.5,12.2-72.3c0-11.4-0.9-18.8-2.6-24.7l0,0c-0.1-0.4-0.2-0.8-0.4-1.2l0,0c-0.4-1.2-0.8-2.3-1.2-3.4l0,0
	c-0.1-0.4-0.3-0.7-0.4-1.1l0,0c-0.3-0.7-0.6-1.4-1-2.1l0,0c-0.2-0.3-0.3-0.7-0.5-1c0,0,0,0,0-0.1c-0.2-0.3-0.3-0.7-0.5-1
	c0,0,0,0,0-0.1c-0.4-0.7-0.7-1.4-1.1-2.1c0,0,0,0,0-0.1c-0.2-0.3-0.4-0.7-0.6-1v-0.1c-0.2-0.3-0.4-0.7-0.6-1v-0.1
	c-0.2-0.4-0.4-0.7-0.6-1.1c-2.8-4.9-2.7-14-1.8-19.7c0-0.2,0.1-0.3,0.1-0.5v-0.1c0-0.2,0.1-0.3,0.1-0.5v-0.1c0-0.2,0.1-0.3,0.1-0.5
	v-0.1c0-0.2,0.1-0.4,0.1-0.6v-0.1c0-0.2,0.1-0.4,0.1-0.6c0,0,0,0,0-0.1c0-0.2,0.1-0.4,0.1-0.7v-0.1c0-0.2,0.1-0.5,0.1-0.7l0,0
	c0.1-0.2,0.1-0.5,0.2-0.7v-0.1c0.1-0.2,0.1-0.5,0.2-0.8v-0.1c0.1-0.2,0.1-0.5,0.2-0.7v-0.1c0.1-0.3,0.1-0.5,0.2-0.8v-0.1
	c0.1-0.3,0.1-0.5,0.2-0.8l0,0c0.1-0.3,0.1-0.6,0.2-0.8c0-0.1,0-0.1,0-0.2c0.1-0.3,0.1-0.6,0.2-0.8c0,0,0,0,0-0.1
	c0.1-0.3,0.1-0.5,0.2-0.8c0-0.1,0-0.1,0-0.2s0.1-0.3,0.1-0.4c0,0.3,0,0.6,0,0.9c0,0.1,0,0.1,0,0.2c0,0.4,0,0.8,0.1,1.2v0.1
	c0,0.4,0,0.8,0.1,1.3v0.1c0,0.4,0,0.8,0.1,1.3c0,0.1,0,0.1,0,0.2c0,0.4,0,0.8,0.1,1.2v0.1c0,0.4,0,0.8,0.1,1.3v0.1
	c0,0.4,0,0.9,0,1.3l0,0c0,0.4,0,0.8,0,1.2v0.1c0,0.4,0,0.8,0,1.2v0.1c0,0.4,0,0.8,0,1.1c0,0.1,0,0.1,0,0.2c0,0.4,0,0.7,0,1.1
	c0,0.1,0,0.1,0,0.2c0,0.4,0,0.7,0,1c0,0.1,0,0.1,0,0.2c0,0.3,0,0.7,0,1c0,0.1,0,0.1,0,0.2c0,0.3,0,0.6,0,1v0.1c0,0.3,0,0.6,0,0.9
	v0.1c0,0.3,0,0.6,0,0.9c0,0.2,0,0.5,0,0.7v0.1c0,0.2,0,0.5,0,0.7v0.1c0,0.3,0,0.5,0.1,0.8v0.1c0,0.3,0.1,0.5,0.1,0.8v0.1
	c0,0.3,0.1,0.6,0.1,0.9c0,0.1,0,0.1,0,0.2c0,0.3,0.1,0.6,0.1,0.9c0,0.1,0,0.1,0,0.2c0.1,0.3,0.1,0.6,0.2,1l0,0
	c0.1,0.3,0.1,0.6,0.2,1c0,0.1,0,0.1,0,0.2c0.1,0.3,0.1,0.6,0.2,1c0,0.1,0,0.1,0,0.2c0.1,0.3,0.1,0.7,0.2,1v0.1
	c0.1,0.3,0.2,0.7,0.2,1v0.1c0.1,0.3,0.2,0.7,0.3,1c0,0.1,0,0.1,0.1,0.2c0.1,0.3,0.2,0.7,0.3,1c0,0.1,0,0.1,0,0.2
	c0.1,0.4,0.2,0.7,0.3,1.1c0,0,0,0,0,0.1c0.1,0.4,0.2,0.7,0.3,1.1c0,0.1,0,0.1,0,0.2c0.1,0.4,0.2,0.7,0.3,1.1c0,0.1,0,0.1,0.1,0.2
	c0.1,0.4,0.2,0.7,0.3,1.1c0,0.1,0,0.1,0,0.2c0.1,0.4,0.2,0.7,0.3,1.1v0.1c0.1,0.4,0.2,0.7,0.3,1.1c0,0.1,0,0.1,0.1,0.2
	c0.1,0.3,0.2,0.7,0.3,1c0,0.1,0,0.1,0.1,0.2c0.1,0.4,0.2,0.7,0.3,1.1c0,0,0,0,0,0.1c0.1,0.3,0.2,0.7,0.3,1c0,0.1,0,0.1,0,0.2
	c0.1,0.3,0.2,0.7,0.3,1c0,0.1,0,0.1,0.1,0.2c0.1,0.3,0.2,0.7,0.3,1v0.1c0.1,0.3,0.2,0.6,0.3,1c0,0,0,0,0,0.1
	c0.1,0.3,0.2,0.6,0.3,0.9c0,0.1,0,0.1,0.1,0.2c0.1,0.3,0.2,0.6,0.3,0.9c0,0.1,0,0.1,0.1,0.2c0.1,0.3,0.2,0.6,0.3,0.9v0.1
	c0.1,0.3,0.2,0.5,0.3,0.8v0.1c0.1,0.3,0.2,0.5,0.3,0.8c0,0.1,0,0.1,0.1,0.2c0.1,0.3,0.2,0.5,0.3,0.7v0.1c0.1,0.2,0.2,0.5,0.2,0.7
	l0,0c0.8,2.3,1.5,4.7,2.1,7l0,0c0.1,0.4,0.2,0.8,0.3,1.2c0,0.1,0,0.1,0,0.2c0.1,0.3,0.2,0.6,0.2,1c0,0.1,0.1,0.2,0.1,0.3
	c0.1,0.3,0.1,0.6,0.2,0.8c0,0.1,0,0.2,0.1,0.3c0.1,0.3,0.2,0.7,0.2,1c0,0,0,0,0,0.1l0.4,1.9c0.3,1.3,0.5,2.4,0.7,3.2
	c0.4,2.4-0.6,3.6-0.9,4.6c-0.3,1-1.9,4.7-2.2,5.7s-1.3,4.1-1.3,4.7c-0.1,0.7,0.1,1.9,0,2.6c-0.1,1.4-0.4,2.1,0.2,2.4
	c1.6,0.8,2-2.8,2.9-5c0.5-1.2,1.7-3.7,2.8-3.6c1.3,0.1,0.6,4.9,0.6,4.9s0.6,2.7-4.1,8.5c-2.4,2.9,1.8,2.6,2.6,1.9
	c0,0,4.3-2.6,7.2-7.8C412.1,200.5,412.7,196.9,412.6,194.6z"/>
<circle class="st7" cx="359.5" cy="25.8" r="14.7"/>
<circle class="st7" cx="359.5" cy="156.7" r="14.7"/>
<g>
	<path class="st8" d="M363.2,34.3c0,9.5-7.3,9.5-7.3,19.1c0,9.5,7.3,9.5,7.3,19.1s-7.3,9.6-7.3,19.1c0,9.6,7.3,9.6,7.3,19.1
		c0,9.6-7.3,9.6-7.3,19.1c0,9.6,7.3,9.6,7.3,19.1"/>
</g>
<g>
	<path class="st8" d="M355.9,148.9c0-9.5,7.3-9.5,7.3-19.1c0-9.5-7.3-9.5-7.3-19.1s7.3-9.6,7.3-19.1c0-9.6-7.3-9.6-7.3-19.1
		c0-9.6,7.3-9.6,7.3-19.1s-7.3-9.6-7.3-19.1"/>
</g>
<circle class="st9" cx="359.5" cy="25.8" r="9.2"/>
<circle class="st9" cx="359.5" cy="156.7" r="9.2"/>
</svg>
