<?xml version="1.0" encoding="utf-8"?>
<!-- Generator: Adobe Illustrator 22.0.0, SVG Export Plug-In . SVG Version: 6.00 Build 0)  -->
<svg version="1.1" id="Layer_1" xmlns="http://www.w3.org/2000/svg" xmlns:xlink="http://www.w3.org/1999/xlink" x="0px" y="0px"
	 viewBox="0 0 360 300" style="enable-background:new 0 0 360 300;" xml:space="preserve">
<style type="text/css">
	.st0{opacity:0.1;}
	.st1{fill:#FB3942;}
	.st2{opacity:0.3;}
	.st3{opacity:0.8;}
	.st4{fill:url(#SVGID_1_);}
	.st5{fill:#FFFFFF;}
</style>
<g class="st0">
	<path class="st1" d="M120.8,110c0-1.1,3.5-2.4,3.5-3.5c-0.1-1.1-3.8-1.8-3.9-2.9c-0.2-1.1,3.2-2.9,2.9-4c-0.2-1.1-4-1.3-4.3-2.3
		c-0.3-1.1,2.7-3.3,2.3-4.4c-0.4-1-4.1-0.6-4.6-1.6c-0.5-1,2.2-3.7,1.6-4.6c-0.6-1-4.2,0-4.8-0.9c-0.6-0.9,1.6-4,0.9-4.8
		c-0.7-0.9-4.2,0.6-4.9-0.2c-0.8-0.8,1-4.2,0.2-4.9c-0.8-0.8-4,1.2-4.9,0.5c-0.9-0.7,0.4-4.3-0.6-4.9c-0.9-0.6-3.8,1.8-4.8,1.2
		c-1-0.6-0.3-4.3-1.3-4.7c-1-0.5-3.5,2.4-4.5,1.9c-1-0.4-0.9-4.2-2-4.5c-1.1-0.3-3.1,2.9-4.2,2.6c-1.1-0.2-1.5-4-2.6-4.1
		c-1.1-0.2-2.6,3.3-3.7,3.2c-1.1-0.1-2.1-3.7-3.2-3.7c-1.1,0-2.1,3.6-3.2,3.7c-1.1,0.1-2.6-3.4-3.7-3.2c-1.1,0.2-1.6,3.9-2.6,4.1
		C67,68.2,65,65,63.9,65.3c-1.1,0.3-0.9,4.1-2,4.5c-1,0.4-3.5-2.4-4.5-1.9c-1,0.5-0.3,4.2-1.3,4.7c-1,0.6-3.8-1.9-4.8-1.2
		c-0.9,0.6,0.3,4.2-0.6,4.9c-0.9,0.7-4.1-1.3-4.9-0.5c-0.8,0.8,0.9,4.1,0.2,4.9c-0.8,0.8-4.2-0.7-4.9,0.2c-0.7,0.9,1.5,3.9,0.9,4.8
		c-0.6,0.9-4.3,0-4.8,0.9c-0.6,1,2.1,3.6,1.6,4.6c-0.5,1-4.2,0.6-4.6,1.6c-0.4,1,2.6,3.3,2.3,4.4c-0.3,1.1-4.1,1.2-4.3,2.3
		c-0.2,1.1,3.1,2.8,2.9,4c-0.2,1.1-3.9,1.8-3.9,2.9c-0.1,1.1,3.5,2.4,3.5,3.5c0,1.1-3.5,2.4-3.5,3.5c0.1,1.1,3.8,1.8,3.9,2.9
		c0.2,1.1-3.2,2.9-2.9,4c0.2,1.1,4,1.3,4.3,2.3c0.3,1.1-2.7,3.3-2.3,4.4c0.4,1,4.1,0.6,4.6,1.6c0.5,1-2.2,3.7-1.6,4.6
		c0.6,1,4.2,0,4.8,0.9c0.6,0.9-1.6,4-0.9,4.8c0.7,0.9,4.2-0.6,4.9,0.2c0.8,0.8-1,4.2-0.2,4.9c0.8,0.8,4-1.2,4.9-0.5
		c0.9,0.7-0.4,4.3,0.6,4.9c0.9,0.6,3.8-1.8,4.8-1.2c1,0.6,0.3,4.3,1.3,4.7c1,0.5,3.5-2.4,4.5-1.9c1,0.4,0.9,4.2,2,4.5
		c1.1,0.3,3.1-2.9,4.2-2.6c1.1,0.2,1.5,4,2.6,4.1c1.1,0.2,2.6-3.3,3.7-3.2c1.1,0.1,2.1,3.7,3.2,3.7c1.1,0,2.1-3.6,3.2-3.7
		c1.1-0.1,2.6,3.4,3.7,3.2c1.1-0.2,1.6-3.9,2.6-4.1c1.1-0.2,3.1,2.9,4.2,2.6c1.1-0.3,0.9-4.1,2-4.5c1-0.4,3.5,2.4,4.5,1.9
		c1-0.5,0.3-4.2,1.3-4.7c1-0.6,3.8,1.9,4.8,1.2c0.9-0.6-0.3-4.2,0.6-4.9c0.9-0.7,4.1,1.3,4.9,0.5c0.8-0.8-0.9-4.1-0.2-4.9
		c0.8-0.8,4.2,0.7,4.9-0.2c0.7-0.9-1.5-3.9-0.9-4.8c0.6-0.9,4.3,0,4.8-0.9c0.6-1-2.1-3.6-1.6-4.6c0.5-1,4.2-0.6,4.6-1.6
		c0.4-1-2.6-3.3-2.3-4.4c0.3-1.1,4.1-1.2,4.3-2.3c0.2-1.1-3.1-2.8-2.9-4c0.2-1.1,3.9-1.8,3.9-2.9C124.3,112.4,120.8,111.1,120.8,110
		z"/>
</g>
<g class="st2">
	<path class="st1" d="M108.3,110c0-0.8,3.6-1.8,3.5-2.6c-0.1-0.8-3.7-1.2-3.8-2c-0.1-0.8,3.3-2.3,3.1-3c-0.2-0.8-3.9-0.6-4.1-1.4
		c-0.2-0.8,2.9-2.7,2.6-3.5c-0.3-0.8-3.9-0.1-4.3-0.8c-0.4-0.7,2.4-3.1,2-3.8c-0.4-0.7-3.9,0.5-4.3-0.1c-0.5-0.7,1.9-3.5,1.4-4.1
		c-0.5-0.6-3.8,1.1-4.3,0.5c-0.6-0.6,1.4-3.7,0.8-4.3c-0.6-0.5-3.5,1.6-4.2,1.1c-0.6-0.5,0.9-3.9,0.2-4.3c-0.7-0.5-3.3,2.2-4,1.7
		c-0.7-0.4,0.3-4-0.5-4.3c-0.7-0.4-2.9,2.6-3.7,2.3c-0.7-0.3-0.3-4-1.1-4.2c-0.8-0.2-2.5,3-3.3,2.8c-0.8-0.2-0.9-3.9-1.7-4
		c-0.8-0.1-2,3.4-2.8,3.3c-0.8-0.1-1.5-3.7-2.3-3.7c-0.8,0-1.5,3.6-2.3,3.7c-0.8,0.1-2-3.4-2.8-3.3c-0.8,0.1-0.9,3.8-1.7,4
		c-0.8,0.2-2.5-3.1-3.3-2.8c-0.8,0.2-0.4,3.9-1.1,4.2c-0.8,0.3-2.9-2.7-3.7-2.3c-0.7,0.4,0.2,3.9-0.5,4.3c-0.7,0.4-3.3-2.2-4-1.7
		c-0.7,0.5,0.8,3.8,0.2,4.3c-0.6,0.5-3.6-1.7-4.2-1.1c-0.6,0.6,1.4,3.7,0.8,4.3c-0.5,0.6-3.8-1.1-4.3-0.5c-0.5,0.6,1.9,3.4,1.4,4.1
		c-0.5,0.7-3.9-0.6-4.3,0.1c-0.4,0.7,2.4,3.1,2,3.8c-0.4,0.7-4,0-4.3,0.8c-0.3,0.7,2.8,2.7,2.6,3.5c-0.2,0.8-3.9,0.6-4.1,1.4
		c-0.2,0.8,3.2,2.2,3.1,3c-0.1,0.8-3.8,1.2-3.8,2c-0.1,0.8,3.5,1.7,3.5,2.6c0,0.8-3.6,1.8-3.5,2.6c0.1,0.8,3.7,1.2,3.8,2
		c0.1,0.8-3.3,2.3-3.1,3c0.2,0.8,3.9,0.6,4.1,1.4c0.2,0.8-2.9,2.7-2.6,3.5c0.3,0.8,3.9,0.1,4.3,0.8c0.4,0.7-2.4,3.1-2,3.8
		c0.4,0.7,3.9-0.5,4.3,0.1c0.5,0.7-1.9,3.5-1.4,4.1c0.5,0.6,3.8-1.1,4.3-0.5c0.6,0.6-1.4,3.7-0.8,4.3c0.6,0.5,3.5-1.6,4.2-1.1
		c0.6,0.5-0.9,3.9-0.2,4.3c0.7,0.5,3.3-2.2,4-1.7c0.7,0.4-0.3,4,0.5,4.3c0.7,0.4,2.9-2.6,3.7-2.3c0.7,0.3,0.3,4,1.1,4.2
		c0.8,0.2,2.5-3,3.3-2.8c0.8,0.2,0.9,3.9,1.7,4c0.8,0.1,2-3.4,2.8-3.3c0.8,0.1,1.5,3.7,2.3,3.7c0.8,0,1.5-3.6,2.3-3.7
		c0.8-0.1,2,3.4,2.8,3.3c0.8-0.1,0.9-3.8,1.7-4c0.8-0.2,2.5,3.1,3.3,2.8c0.8-0.2,0.4-3.9,1.1-4.2c0.8-0.3,2.9,2.7,3.7,2.3
		c0.7-0.4-0.2-3.9,0.5-4.3c0.7-0.4,3.3,2.2,4,1.7c0.7-0.5-0.8-3.8-0.2-4.3c0.6-0.5,3.6,1.7,4.2,1.1c0.6-0.6-1.4-3.7-0.8-4.3
		c0.5-0.6,3.8,1.1,4.3,0.5c0.5-0.6-1.9-3.4-1.4-4.1c0.5-0.7,3.9,0.6,4.3-0.1c0.4-0.7-2.4-3.1-2-3.8c0.4-0.7,4,0,4.3-0.8
		c0.3-0.7-2.8-2.7-2.6-3.5c0.2-0.8,3.9-0.6,4.1-1.4c0.2-0.8-3.2-2.2-3.1-3c0.1-0.8,3.8-1.2,3.8-2C111.9,111.7,108.3,110.8,108.3,110
		z"/>
</g>
<g class="st3">
	<radialGradient id="SVGID_1_" cx="77.659" cy="109.9753" r="21.7234" gradientUnits="userSpaceOnUse">
		<stop  offset="0" style="stop-color:#FF2832;stop-opacity:0.2"/>
		<stop  offset="1" style="stop-color:#FF2832"/>
	</radialGradient>
	<path class="st4" d="M95.8,110c0-0.5,3.6-1.1,3.5-1.6c0-0.5-3.7-0.6-3.7-1.1c-0.1-0.5,3.4-1.6,3.3-2.1c-0.1-0.5-3.7,0-3.9-0.5
		c-0.1-0.5,3.1-2.1,2.9-2.6c-0.2-0.5-3.7,0.5-3.9,0.1c-0.2-0.4,2.7-2.6,2.5-3c-0.2-0.4-3.6,1.1-3.8,0.7c-0.3-0.4,2.3-2.9,2-3.3
		C94.4,96,91.3,98,91,97.6c-0.3-0.4,1.8-3.3,1.5-3.6c-0.4-0.3-3.1,2.1-3.5,1.7c-0.4-0.3,1.3-3.5,0.9-3.8c-0.4-0.3-2.7,2.5-3.2,2.2
		c-0.4-0.2,0.8-3.7,0.4-3.9c-0.4-0.2-2.3,2.9-2.8,2.7c-0.5-0.2,0.3-3.7-0.2-3.9c-0.5-0.1-1.9,3.2-2.4,3.1c-0.5-0.1-0.3-3.7-0.8-3.8
		c-0.5-0.1-1.4,3.4-1.9,3.4c-0.5,0-0.9-3.6-1.4-3.6c-0.5,0-0.9,3.6-1.4,3.6c-0.5,0-1.4-3.5-1.9-3.4c-0.5,0.1-0.3,3.7-0.8,3.8
		c-0.5,0.1-1.9-3.2-2.4-3.1c-0.5,0.1,0.2,3.7-0.2,3.9c-0.5,0.2-2.4-2.9-2.8-2.7c-0.4,0.2,0.8,3.6,0.4,3.9c-0.4,0.2-2.8-2.5-3.2-2.2
		c-0.4,0.3,1.3,3.5,0.9,3.8c-0.4,0.3-3.1-2.1-3.5-1.7c-0.4,0.3,1.8,3.2,1.5,3.6C64,98,61,96,60.7,96.4c-0.3,0.4,2.3,2.9,2,3.3
		c-0.3,0.4-3.6-1.1-3.8-0.6c-0.2,0.4,2.7,2.5,2.5,3c-0.2,0.4-3.7-0.5-3.9-0.1c-0.2,0.5,3,2.1,2.9,2.6c-0.1,0.5-3.7,0-3.9,0.5
		c-0.1,0.5,3.3,1.6,3.3,2.1c-0.1,0.5-3.7,0.6-3.7,1.1c0,0.5,3.5,1.1,3.5,1.6c0,0.5-3.6,1.1-3.5,1.6c0,0.5,3.7,0.6,3.7,1.1
		c0.1,0.5-3.4,1.6-3.3,2.1c0.1,0.5,3.7,0,3.9,0.5c0.1,0.5-3.1,2.1-2.9,2.6c0.2,0.5,3.7-0.5,3.9-0.1c0.2,0.4-2.7,2.6-2.5,3
		c0.2,0.4,3.6-1.1,3.8-0.7c0.3,0.4-2.3,2.9-2,3.3c0.3,0.4,3.4-1.6,3.7-1.2c0.3,0.4-1.8,3.3-1.5,3.6c0.4,0.3,3.1-2.1,3.5-1.7
		c0.4,0.3-1.3,3.5-0.9,3.8c0.4,0.3,2.7-2.5,3.2-2.2c0.4,0.2-0.8,3.7-0.4,3.9c0.4,0.2,2.3-2.9,2.8-2.7c0.5,0.2-0.3,3.7,0.2,3.9
		c0.5,0.1,1.9-3.2,2.4-3.1c0.5,0.1,0.3,3.7,0.8,3.8c0.5,0.1,1.4-3.4,1.9-3.4c0.5,0,0.9,3.6,1.4,3.6c0.5,0,0.9-3.6,1.4-3.6
		c0.5,0,1.4,3.5,1.9,3.4c0.5-0.1,0.3-3.7,0.8-3.8c0.5-0.1,1.9,3.2,2.4,3.1c0.5-0.1-0.2-3.7,0.2-3.9c0.5-0.2,2.4,2.9,2.8,2.7
		c0.4-0.2-0.8-3.6-0.4-3.9c0.4-0.2,2.8,2.5,3.2,2.2c0.4-0.3-1.3-3.5-0.9-3.8c0.4-0.3,3.1,2.1,3.5,1.7c0.4-0.3-1.8-3.2-1.5-3.6
		c0.3-0.4,3.4,1.6,3.7,1.2c0.3-0.4-2.3-2.9-2-3.3c0.3-0.4,3.6,1.1,3.8,0.6c0.2-0.4-2.7-2.5-2.5-3c0.2-0.4,3.7,0.5,3.9,0.1
		c0.2-0.5-3-2.1-2.9-2.6c0.1-0.5,3.7,0,3.9-0.5c0.1-0.5-3.3-1.6-3.3-2.1c0.1-0.5,3.7-0.6,3.7-1.1C99.4,111.1,95.8,110.5,95.8,110z"
		/>
</g>
<g>
	<path class="st5" d="M84.1,110c0-0.4,3.2-1,3.1-1.4c-0.1-0.4-3.3-0.1-3.4-0.4c-0.1-0.4,2.8-1.9,2.6-2.2c-0.2-0.4-3.2,0.9-3.4,0.5
		c-0.2-0.3,2.1-2.6,1.9-2.9c-0.3-0.3-2.8,1.7-3.1,1.5c-0.3-0.3,1.3-3.1,1-3.3c-0.3-0.2-2.2,2.4-2.6,2.3c-0.3-0.2,0.4-3.3,0-3.4
		c-0.4-0.1-1.4,3-1.8,2.9c-0.4-0.1-0.5-3.3-0.9-3.3c-0.4,0-0.5,3.2-0.9,3.3c-0.4,0.1-1.4-3-1.8-2.9c-0.4,0.1,0.4,3.3,0,3.4
		c-0.4,0.2-2.2-2.5-2.6-2.3c-0.3,0.2,1.3,3,1,3.3c-0.3,0.3-2.8-1.8-3.1-1.5c-0.3,0.3,2.1,2.5,1.9,2.9c-0.2,0.3-3.2-0.9-3.4-0.5
		c-0.2,0.3,2.7,1.8,2.6,2.2c-0.1,0.4-3.3,0.1-3.4,0.4c-0.1,0.4,3.1,1,3.1,1.4c0,0.4-3.2,1-3.1,1.4c0.1,0.4,3.3,0.1,3.4,0.4
		c0.1,0.4-2.8,1.9-2.6,2.2c0.2,0.4,3.2-0.9,3.4-0.5c0.2,0.3-2.1,2.6-1.9,2.9c0.3,0.3,2.8-1.7,3.1-1.5c0.3,0.3-1.3,3.1-1,3.3
		c0.3,0.2,2.2-2.4,2.6-2.3c0.3,0.2-0.4,3.3,0,3.4c0.4,0.1,1.4-3,1.8-2.9c0.4,0.1,0.5,3.3,0.9,3.3c0.4,0,0.5-3.2,0.9-3.3
		c0.4-0.1,1.4,3,1.8,2.9c0.4-0.1-0.4-3.3,0-3.4c0.4-0.2,2.2,2.5,2.6,2.3c0.3-0.2-1.3-3-1-3.3c0.3-0.3,2.8,1.8,3.1,1.5
		c0.3-0.3-2.1-2.5-1.9-2.9c0.2-0.3,3.2,0.9,3.4,0.5c0.2-0.3-2.7-1.8-2.6-2.2c0.1-0.4,3.3-0.1,3.4-0.4C87.3,111,84.1,110.4,84.1,110z
		"/>
</g>
</svg>
