<?xml version="1.0" encoding="utf-8"?>
<!-- Generator: Adobe Illustrator 22.0.0, SVG Export Plug-In . SVG Version: 6.00 Build 0)  -->
<svg version="1.1" id="Layer_1" xmlns="http://www.w3.org/2000/svg" xmlns:xlink="http://www.w3.org/1999/xlink" x="0px" y="0px"
	 viewBox="0 0 345.4 273.1" style="enable-background:new 0 0 345.4 273.1;" xml:space="preserve">
<style type="text/css">
	.st0{fill:url(#SVGID_1_);}
	.st1{fill:url(#SVGID_2_);}
	.st2{fill:url(#SVGID_3_);}
	.st3{fill:#FF2832;}
	.st4{fill:#FFC000;}
	.st5{fill:#009632;}
</style>
<linearGradient id="SVGID_1_" gradientUnits="userSpaceOnUse" x1="68.8813" y1="259.6111" x2="68.8813" y2="107.9848">
	<stop  offset="0" style="stop-color:#FF2832;stop-opacity:0.2"/>
	<stop  offset="1" style="stop-color:#FF2832"/>
</linearGradient>
<path class="st0" d="M95,190.9c-0.1-1.5-0.7-4.7-0.7-4.7l-0.2-1.3l0,0c0,0-0.7-7.7-0.8-11c-0.2-3.3-1.6-7.2-2.3-9.6
	c-0.7-2.4,1.4-7.6-0.4-14.1c-1.1-4.1,0-7.8-2.2-10.7c-2.4-3.1-5-2.8-6-2.9l0,0c-1.3-0.2-2.7-0.4-3.6-0.8c-2.2-1-3.5-1.9-4.8-2.5
	c-0.9-0.4-1-3.1-1-4.6c0.7-0.5,1.3-1,1.6-1.4c0.4-0.7,0.8-2.6,1-4.4c0.2,0.1,0.4,0,0.7-0.2c0.8-0.4,1.1-2.8,0.5-3.8
	c-0.1-0.1-0.1-0.2-0.2-0.2c0.3-2.3,0.6-6.3-0.6-8c-1.7-2.6-5.6-2.7-6.8-2.8c-1.7-0.2-4.8-0.1-5.6,1.8c-3.6,0.4-3.2,6-2.6,9
	c-0.1,0.1-0.1,0.1-0.1,0.2c-0.5,1.1-0.3,3.4,0.5,3.8c0.4,0.2,0.7,0.2,0.8,0.2c0.2,1.7,0.5,3.7,1,4.4c0.3,0.4,0.8,1,1.6,1.4
	c0.1,1.6-0.1,4.2-1,4.6c-1.3,0.5-2.6,1.5-4.8,2.5c-0.9,0.4-2.3,0.6-3.6,0.8c-1.1,0.1-3.7-0.2-6,2.9c-2.2,2.8-1.1,6.7-2.2,10.7
	c-1.9,6.5,0.1,11.6-0.5,14c-0.7,2.4-2,6.3-2.3,9.6c-0.2,3.3-0.8,11-0.8,11l0,0l-0.2,1.3c0,0-0.6,3.2-0.7,4.7c-0.1,1,0.1,2.5,0.8,3.8
	c1.1,2.3,3.5,4,3.5,4c0.3,0.4,2.1,0.5,1.1-0.8c-1.9-2.5-2.2-4.2-2.2-4.2s-0.2-2,0.4-2c0.5-0.1,1,1,1.1,1.6c0.4,1,0.5,2.5,1.1,2.2
	c0.2-0.1,0.2-0.4,0.1-1c0-0.3,0.1-0.8,0.1-1.1c-0.1-0.2-0.4-1.6-0.5-2c-0.1-0.4-0.7-2-0.8-2.5c-0.2-0.5-0.4-1.3-0.3-2
	s1.1-4.4,1.7-5.6c0.4-0.8,4.1-5.9,4.8-16.1c0.2-2.4,0.8-5.8,1.1-9c0.3,1.5,0.5,2.9,0.6,4.1c0.1,3.4,1.1,8.2,0.8,10.7
	c-0.7,5.8-2.2,5.6-2.2,15.2c0,6.3-0.2,18,3,31.9c0.5,2,0.1,4.9-0.2,7c-0.5,4,0.7,9.2,3.1,21.1c2.3,11.4-4.7,10.1-3.5,12.8
	c0.5,1.1,7,0.8,9,0.7c0.6-0.1,1.1-0.5,1.1-1.1c0.1-0.6-0.2-1.3-0.8-3.1c-0.7-2-0.4-5.1-0.4-5.1s1.3-18.6,1.3-21.3c0-3-0.2-5-0.4-6.2
	c-0.2-1-0.2-2,0-3.1c1.9-8.4,1.9-29.7,1.9-29.7h2c0,0,0.1,21.3,1.9,29.7c0.2,1,0.2,2,0,3.1c-0.2,1.2-0.4,3.2-0.4,6.2
	c0,2.6,1.3,21.3,1.3,21.3s0.2,3.1-0.4,5.1c-0.5,1.7-0.8,2.5-0.8,3.1c0.1,0.6,0.5,1.1,1.1,1.1c2,0.1,8.4,0.4,9-0.7
	c1.2-2.7-5.9-1.4-3.5-12.8c2.5-11.9,3.5-17.1,3.1-21.1c-0.2-2.1-0.7-4.9-0.2-7c3.2-13.9,3-25.6,3-31.9c0-9.6-1.5-9.4-2.2-15.2
	c-0.3-2.5,0.7-7.4,0.8-10.7c0.1-1.1,0.3-2.6,0.6-4.1c0.4,3.2,1,6.7,1.1,9c0.7,10.1,4.7,15.5,5,16.2c0.4,1,1.4,4.7,1.4,5.4
	c0.1,0.7-0.1,1.5-0.3,2c-0.1,0.4-0.7,2-0.8,2.5c-0.1,0.4-0.5,1.7-0.5,2s0.1,0.8,0.1,1.1c-0.1,0.6-0.1,0.9,0.1,1
	c0.7,0.3,0.8-1.2,1.1-2.2c0.2-0.5,0.7-1.6,1.1-1.6c0.5,0.1,0.4,2,0.4,2s-0.2,1.7-2.2,4.2c-1,1.3,0.8,1.1,1.1,0.8c0,0,2.3-1.7,3.5-4
	C94.9,193.4,95.1,191.9,95,190.9z"/>
<linearGradient id="SVGID_2_" gradientUnits="userSpaceOnUse" x1="271.9807" y1="128.0528" x2="271.9807" y2="276.3221" gradientTransform="matrix(1 0 0 -1 0 387.6639)">
	<stop  offset="5.000000e-04" style="stop-color:#009632;stop-opacity:0.3"/>
	<stop  offset="1" style="stop-color:#009632"/>
</linearGradient>
<path class="st1" d="M294.2,192.3c-0.1-1.5-0.6-4.6-0.6-4.6l-0.1-1.2l0.1,0.1c0,0-0.4-7.6-0.5-10.9c-0.1-3.2-1.5-7.6-2-10
	c-0.5-2.4-0.7-7-0.6-12.6c0.1-5.7-0.4-10.3-1.3-11.7c-1.2-1.6-3.5-2.2-4.4-2.5c-0.7-0.2-1.5-0.4-2.3-0.6c0,0,0,0,0-0.1
	c1.1-2.7,1.1-5.7,0.1-8.5c-0.3-0.8-0.6-1.5-0.8-2.4c-0.3-1.2-0.2-2.5-0.2-3.8c-0.1-2.2-0.2-5.1-1.3-7.2c-0.9-1.6-2.2-3.3-4.2-3.5
	c-0.5-0.1-0.6,0.1-1.1-0.2s-1.3-1-2.6-1.2c-4-0.6-7.4,1.7-9,5.3c-1.2,2.6-1.3,5.6-1.2,8.5c0.1,1.2,0.1,2.4-0.4,3.5
	c-0.7,1.6-2.5,2.5-3.5,3.9c-0.8,1.1-1.1,2.6-1.1,4c-0.1,0.9,0,1.8,0.2,2.7c-0.5,0.2-0.9,0.5-1.3,0.9l0,0l0,0
	c-0.1,0.1-0.1,0.1-0.2,0.2l0,0c-0.1,0.1-0.1,0.1-0.2,0.2l-0.1,0.1c-0.1,0.1-0.1,0.1-0.1,0.2c0,0.1-0.1,0.1-0.1,0.1
	c-0.1,0.1-0.1,0.2-0.2,0.2c-1,1.4-1.4,6.1-1.3,11.8c0.1,5.6-0.1,10.3-0.6,12.6c-0.5,2.4-1.9,6.7-2,10c0,0.1,0,0.1,0,0.2v0.1
	c0,0.1,0,0.2,0,0.2v0.1c0,0.1,0,0.1,0,0.2v0.1c0,0.1,0,0.2,0,0.2v0.1c0,0.1,0,0.2,0,0.2v0.1c0,0.1,0,0.2,0,0.2s0,0.1,0,0.1
	c0,0.1,0,0.2,0,0.2l0,0c0,0.1,0,0.2,0,0.3v0.1c0,0.1,0,0.2,0,0.3l0,0c0,0.1,0,0.2,0,0.4l0,0c0,0.2,0,0.4-0.1,0.6v0.1
	c0,0.4-0.1,0.6-0.1,1.1l0,0c0,0.1,0,0.2,0,0.4l0,0c-0.1,3-0.3,5.8-0.3,5.8l0,0l-0.1,1.2c0,0-0.5,3.1-0.6,4.6
	c-0.1,0.9,0.2,2.4,0.9,3.7c1.2,2.2,3,3.3,3,3.3c0.3,0.3,2.1,0.4,1.1-0.8c-1.9-2.4-1.7-3.6-1.7-3.6s-0.3-2,0.2-2.1
	c0.5-0.1,1,0.9,1.2,1.5c0.4,0.9,0.6,2.4,1.2,2.1c0.2-0.1,0.1-0.4,0.1-1c-0.1-0.3,0.1-0.8,0-1.1c-0.1-0.2-0.4-1.6-0.5-1.9
	c-0.1-0.4-0.8-1.9-0.9-2.4c-0.2-0.5-0.4-1.3-0.4-1.9c0-0.6,1.1-4.6,1.2-5.3c0.2-0.8,4.4-11.7,4.4-16.1c0-2.2,0.2-5.6,0.3-8.9
	c0.4,2.2,0.9,4.8,1.2,5.9c0.5,1.5,0.6,5.2-0.6,7.7c-0.1,0.2-0.2,0.3-0.2,0.5c-0.4,0.6-0.8,1.3-1.1,1.9c-3.1,6.1-3.4,11.4-3.4,15.2
	c0,0.6,0.1,1.2,0.1,2l0,0c0-0.1,0-0.2,0-0.2c0.2,2.3,0.6,5.5,1.5,10.8c-0.1-0.4-0.1-0.5-0.1-0.5c0.7,4.3,1.8,9.9,3.2,17.8
	c0.4,2,0.5,4,0.3,6.1c-0.4,3.8,0.1,9.1,2.4,20.8c0.9,4.8,0.5,7.4-0.3,9l0,0c-1.1,2.3-2.9,2.6-2.3,4.1c0.9,1.1,5.5,0.7,7.4,0.6
	c0.5-0.1,1-0.1,1.3-0.8c0.2-0.5,0.2-0.9-0.7-3.1c-0.6-1.3-0.5-3.6-0.5-3.6s1.4-19.5,1.4-22.3c0-2.7-0.2-4.6-0.4-5.9
	c-0.2-1.2-0.2-2.4-0.1-3.6c0.2-1.8,0.4-4.3,0.6-7c0,0.1,0,0.2,0,0.2c1.1-14,1.3-23.1,1.3-23.1h1.6l-0.1,0.1c0,0,0.5,21.1,1.8,30
	c0.2,1.2,0.2,2.4,0,3.6c-0.2,1.2-0.4,3.1-0.4,5.8c0,2.6,1.2,20.8,1.2,20.8s0.2,2.1-0.1,4c-0.1,0.1-0.1,0.2-0.1,0.4
	c0,0,0.1-0.2,0.1-0.5c-0.1,0.4-0.1,0.8-0.2,1.1c-0.5,1.7-0.8,2.4-0.8,3c0.1,0.6,0.5,1.1,1.1,1.1c1.9,0.1,7,0.5,7.6-0.6
	c1.2-2.6-5.4-1.8-2.6-13.2c2.8-11.6,3.1-17,2.6-20.8c-0.2-2.1-0.2-4.1,0.1-6.2c2.5-16.6,5.1-24,5.1-30.2c0-4.8-0.4-7.9-1.1-10.3l0,0
	c-0.1-0.2-0.1-0.4-0.2-0.5l0,0c-0.2-0.5-0.4-0.9-0.5-1.4l0,0c-0.1-0.2-0.1-0.3-0.2-0.5l0,0c-0.1-0.3-0.2-0.6-0.4-0.9l0,0
	c-0.1-0.1-0.1-0.3-0.2-0.4c0,0,0,0,0-0.1c-0.1-0.1-0.1-0.3-0.2-0.4c0,0,0,0,0-0.1c-0.2-0.3-0.3-0.6-0.5-0.9c0,0,0,0,0-0.1
	c-0.1-0.1-0.2-0.3-0.2-0.4v-0.1c-0.1-0.1-0.2-0.3-0.2-0.4V172c-0.1-0.2-0.2-0.3-0.2-0.5c-1.2-2.1-1.1-5.9-0.8-8.2
	c0-0.1,0.1-0.1,0.1-0.2v-0.1c0-0.1,0.1-0.1,0.1-0.2v-0.1c0-0.1,0.1-0.1,0.1-0.2v0.1c0-0.1,0.1-0.2,0.1-0.2v-0.1
	c0-0.1,0.1-0.2,0.1-0.2c0,0,0,0,0-0.1s0.1-0.2,0.1-0.3v-0.1c0-0.1,0.1-0.2,0.1-0.3l0,0c0.1-0.1,0.1-0.2,0.1-0.3V161
	c0.1-0.1,0.1-0.2,0.1-0.4v-0.1c0.1-0.1,0.1-0.2,0.1-0.3v-0.1c0.1-0.1,0.1-0.2,0.1-0.4v-0.1c0.1-0.1,0.1-0.2,0.1-0.4l0,0
	c0.1-0.1,0.1-0.2,0.1-0.4c0-0.1,0-0.1,0-0.1c0.1-0.1,0.1-0.2,0.1-0.4c0,0,0,0,0-0.1c0.1-0.1,0.1-0.2,0.1-0.4c0-0.1,0-0.1,0-0.1
	c0-0.1,0.1-0.1,0.1-0.2c0,0.1,0,0.2,0,0.4c0,0.1,0,0.1,0,0.1c0,0.2,0,0.4,0.1,0.5v0.1c0,0.2,0,0.4,0.1,0.5v0.1c0,0.2,0,0.4,0.1,0.5
	c0,0.1,0,0.1,0,0.1c0,0.2,0,0.4,0.1,0.5v0.1c0,0.2,0,0.4,0.1,0.5v0.1c0,0.2,0,0.4,0,0.5l0,0c0,0.2,0,0.4,0,0.5v0.1
	c0,0.2,0,0.4,0,0.5v0.1c0,0.2,0,0.4,0,0.5c0,0.1,0,0.1,0,0.1c0,0.2,0,0.3,0,0.5c0,0.1,0,0.1,0,0.1c0,0.2,0,0.3,0,0.4
	c0,0.1,0,0.1,0,0.1c0,0.1,0,0.3,0,0.4c0,0.1,0,0.1,0,0.1c0,0.1,0,0.2,0,0.4v0.1c0,0.1,0,0.2,0,0.4v0.1c0,0.1,0,0.2,0,0.4
	c0,0.1,0,0.2,0,0.3v0.1c0,0.1,0,0.2,0,0.3v0.1c0,0.1,0,0.2,0.1,0.4v0.1c0,0.1,0.1,0.2,0.1,0.4v0.1c0,0.1,0.1,0.2,0.1,0.4
	c0,0.1,0,0.1,0,0.1c0,0.1,0.1,0.2,0.1,0.4c0,0.1,0,0.1,0,0.1c0.1,0.1,0.1,0.2,0.1,0.4l0,0c0.1,0.1,0.1,0.2,0.1,0.4
	c0,0.1,0,0.1,0,0.1c0.1,0.1,0.1,0.2,0.1,0.4c0,0.1,0,0.1,0,0.1c0.1,0.1,0.1,0.3,0.1,0.4v0.1c0.1,0.1,0.1,0.3,0.1,0.4v0.1
	c0.1,0.1,0.1,0.3,0.1,0.4c0,0.1,0,0.1,0.1,0.1c0.1,0.1,0.1,0.3,0.1,0.4c0,0.1,0,0.1,0,0.1c0.1,0.2,0.1,0.3,0.1,0.5c0,0,0,0,0,0.1
	c0.1,0.2,0.1,0.3,0.1,0.5c0,0.1,0,0.1,0,0.1c0.1,0.2,0.1,0.3,0.1,0.5c0,0.1,0,0.1,0.1,0.1c0.1,0.2,0.1,0.3,0.1,0.5
	c0,0.1,0,0.1,0,0.1c0.1,0.2,0.1,0.3,0.1,0.5v0.1c0.1,0.2,0.1,0.3,0.1,0.5c0,0.1,0,0.1,0.1,0.1c0.1,0.1,0.1,0.3,0.1,0.4
	c0,0.1,0,0.1,0.1,0.1c0.1,0.2,0.1,0.3,0.1,0.5c0,0,0,0,0,0.1c0.1,0.1,0.1,0.3,0.1,0.4c0,0.1,0,0.1,0,0.1c0.1,0.1,0.1,0.3,0.1,0.4
	c0,0.1,0,0.1,0.1,0.1c0.1,0.1,0.1,0.3,0.1,0.4v0.1c0.1,0.1,0.1,0.2,0.1,0.4c0,0,0,0,0,0.1c0.1,0.1,0.1,0.2,0.1,0.4
	c0,0.1,0,0.1,0.1,0.1c0.1,0.1,0.1,0.2,0.1,0.4c0,0.1,0,0.1,0.1,0.1c0.1,0.1,0.1,0.2,0.1,0.4v0.1c0.1,0.1,0.1,0.2,0.1,0.4v0.1
	c0.1,0.1,0.1,0.2,0.1,0.4c0,0.1,0,0.1,0.1,0.1c0.1,0.1,0.1,0.2,0.1,0.3v0.1c0.1,0.1,0.1,0.2,0.1,0.3l0,0c0.4,0.9,0.6,1.9,0.9,2.9
	l0,0c0.1,0.2,0.1,0.4,0.1,0.5c0,0.1,0,0.1,0,0.1c0.1,0.1,0.1,0.2,0.1,0.4c0,0.1,0.1,0.1,0.1,0.1c0.1,0.1,0.1,0.2,0.1,0.4
	c0,0.1,0,0.1,0.1,0.1c0.1,0.1,0.1,0.3,0.1,0.4c0,0,0,0,0,0.1l0.2,0.8c0.1,0.5,0.2,1,0.3,1.3c0.2,1-0.2,1.5-0.4,1.9s-0.8,1.9-0.9,2.4
	c-0.1,0.4-0.5,1.7-0.5,1.9c-0.1,0.3,0.1,0.8,0,1.1c-0.1,0.6-0.2,0.9,0.1,1c0.6,0.4,0.8-1.2,1.2-2.1c0.2-0.5,0.7-1.5,1.2-1.5
	c0.5,0.1,0.2,2.1,0.2,2.1s0.2,1.1-1.7,3.6c-1,1.2,0.8,1.1,1.1,0.8c0,0,1.8-1.1,3-3.3C293.9,194.7,294.2,193.2,294.2,192.3z"/>
<linearGradient id="SVGID_3_" gradientUnits="userSpaceOnUse" x1="173.1035" y1="128.0528" x2="173.1035" y2="387.6639" gradientTransform="matrix(1 0 0 -1 0 387.6639)">
	<stop  offset="0" style="stop-color:#FFC000;stop-opacity:0.3"/>
	<stop  offset="1" style="stop-color:#FFC000"/>
</linearGradient>
<path class="st2" d="M211.9,141.7c-0.1-2.6-1-8-1-8l-0.2-2.2l0.1,0.1c0,0-0.6-13.4-0.8-19c-0.2-5.6-2.6-13.4-3.5-17.5
	c-0.9-4.2-1.2-12.3-1.1-22.1c0.1-10.1-0.6-18-2.4-20.4c-2.1-2.9-6.2-3.9-7.7-4.3c-1.2-0.4-2.7-0.7-4.1-1.1c0,0,0,0,0-0.1
	c1.8-4.7,1.8-10.1,0.1-14.9c-0.5-1.4-1.1-2.7-1.4-4.2c-0.5-2.2-0.3-4.4-0.4-6.7c-0.1-3.9-0.4-8.9-2.4-12.5c-1.5-2.9-3.8-5.9-7.3-6.2
	c-0.8-0.1-1.1,0.1-1.8-0.3s-2.3-1.7-4.6-2.2c-7-1.1-12.9,3-15.8,9.2c-2.2,4.6-2.3,9.8-2.2,14.9c0.1,2.2,0.1,4.2-0.7,6.2
	c-1.2,2.8-4.3,4.3-6.1,6.8c-1.4,2-1.8,4.5-2,7c-0.1,1.6,0,3.2,0.4,4.7c-0.8,0.4-1.6,0.9-2.4,1.5l0,0l0,0c-0.1,0.1-0.2,0.2-0.4,0.4
	l0,0c-0.1,0.1-0.2,0.2-0.3,0.3l-0.1,0.1c-0.1,0.1-0.1,0.1-0.2,0.3c0,0.1-0.1,0.1-0.1,0.1c-0.1,0.1-0.2,0.3-0.3,0.4
	c-1.7,2.5-2.5,10.7-2.4,20.7c0.1,9.9-0.1,18-1.1,22.1c-0.9,4.2-3.4,11.8-3.5,17.5c0,0.1,0,0.2,0,0.4v0.1c0,0.1,0,0.3,0,0.4v0.1
	c0,0.1,0,0.2,0,0.4v0.1c0,0.1,0,0.3,0,0.4v0.1c0,0.1,0,0.3,0,0.4v0.1c0,0.1,0,0.3,0,0.4c0,0.1,0,0.1,0,0.1c0,0.1,0,0.3,0,0.4l0,0
	c0,0.1,0,0.4,0,0.5v0.1c0,0.1,0,0.4,0,0.5l0,0c0,0.2,0,0.4,0,0.6l0,0c0,0.4,0,0.7-0.1,1.1v0.1c0,0.6-0.1,1.1-0.1,1.8l0,0
	c0,0.2,0,0.4,0,0.6l0,0c-0.2,5.2-0.5,10.2-0.5,10.2l0,0l-0.2,2.2c0,0-0.9,5.4-1,8c-0.1,1.6,0.4,4.2,1.5,6.5c2.2,3.8,5.2,5.8,5.2,5.8
	c0.5,0.5,3.6,0.7,2-1.4c-3.4-4.2-3-6.3-3-6.3s-0.5-3.5,0.4-3.6c0.8-0.1,1.7,1.6,2.1,2.7c0.6,1.6,1,4.2,2.2,3.7
	c0.4-0.2,0.2-0.7,0.1-1.7c-0.1-0.5,0.1-1.4,0-2c-0.1-0.4-0.7-2.8-0.9-3.4c-0.2-0.7-1.3-3.4-1.6-4.2c-0.4-0.8-0.6-2.3-0.6-3.4
	s1.8-8,2.2-9.2c0.3-1.3,7.7-20.4,7.7-28.2c0-3.9,0.3-9.9,0.5-15.5c0.7,3.9,1.6,8.3,2.2,10.3c0.8,2.7,1.1,9-1.1,13.6
	c-0.1,0.3-0.3,0.5-0.4,0.8c-0.6,1.1-1.3,2.3-1.8,3.4c-5.4,10.7-6,19.9-6,26.6c0,1.1,0.1,2.2,0.1,3.5l0,0c0-0.1,0-0.3,0-0.4
	c0.3,4,1.1,9.6,2.7,18.9c-0.1-0.6-0.2-0.9-0.2-0.9c1.2,7.5,3.1,17.4,5.5,31.1c0.6,3.5,0.8,7.1,0.5,10.7c-0.6,6.6,0.1,16,4.2,36.5
	c1.6,8.3,0.9,12.9-0.5,15.8l0,0c-2,4-5,4.5-4,7.2c1.6,2,9.6,1.2,12.9,1.1c0.9-0.1,1.7-0.1,2.3-1.4c0.4-0.9,0.4-1.5-1.2-5.4
	c-1-2.4-0.9-6.3-0.9-6.3s2.5-34.2,2.5-39.1c0-4.7-0.3-8.1-0.6-10.3c-0.4-2.2-0.4-4.2-0.1-6.4c0.4-3.2,0.7-7.5,1.1-12.3
	c0,0.1,0,0.3,0,0.4c2-24.5,2.4-40.5,2.4-40.5h2.9l0.1-0.1c0,0,0.9,37,3.2,52.5c0.3,2.1,0.3,4.2,0,6.3c-0.3,2.2-0.6,5.4-0.6,10.2
	c0,4.5,2.2,36.5,2.2,36.5s0.3,3.7-0.2,7c-0.1,0.2-0.1,0.4-0.1,0.6c0,0,0.1-0.4,0.2-0.9c-0.1,0.6-0.2,1.3-0.4,2
	c-0.9,3-1.4,4.2-1.4,5.2c0.1,1,0.9,1.8,2,1.8c3.4,0.1,12.3,0.9,13.2-1c2.2-4.6-9.4-3.2-4.5-23.1c4.9-20.2,5.4-29.8,4.6-36.5
	c-0.4-3.6-0.4-7.2,0.1-10.8c4.4-29.1,8.9-42,8.9-52.9c0-8.3-0.6-13.8-2-18.1l0,0c-0.1-0.3-0.1-0.6-0.3-0.9l0,0
	c-0.3-0.9-0.6-1.6-0.9-2.5l0,0c-0.1-0.3-0.2-0.5-0.3-0.8l0,0c-0.2-0.5-0.4-1-0.7-1.5l0,0c-0.1-0.2-0.2-0.5-0.4-0.7c0,0,0,0,0-0.1
	c-0.1-0.2-0.2-0.5-0.4-0.7c0,0,0,0,0-0.1c-0.3-0.5-0.5-1-0.8-1.5c0,0,0,0,0-0.1c-0.1-0.2-0.3-0.5-0.4-0.7v-0.1
	c-0.1-0.2-0.3-0.5-0.4-0.7v-0.1c-0.1-0.3-0.3-0.5-0.4-0.8c-2.1-3.6-2-10.3-1.3-14.4c0-0.1,0.1-0.2,0.1-0.4v-0.1
	c0-0.1,0.1-0.2,0.1-0.4v-0.1c0-0.1,0.1-0.2,0.1-0.4v0.3c0-0.1,0.1-0.3,0.1-0.4v-0.1c0-0.1,0.1-0.3,0.1-0.4c0,0,0,0,0-0.1
	s0.1-0.3,0.1-0.5v-0.1c0-0.1,0.1-0.4,0.1-0.5l0,0c0.1-0.1,0.1-0.4,0.1-0.5V87c0.1-0.1,0.1-0.4,0.1-0.6v-0.1c0.1-0.1,0.1-0.4,0.1-0.5
	v-0.1c0.1-0.2,0.1-0.4,0.1-0.6v-0.1c0.1-0.2,0.1-0.4,0.1-0.6l0,0c0.1-0.2,0.1-0.4,0.1-0.6c0-0.1,0-0.1,0-0.1
	c0.1-0.2,0.1-0.4,0.1-0.6c0,0,0,0,0-0.1c0.1-0.2,0.1-0.4,0.1-0.6c0-0.1,0-0.1,0-0.1c0-0.1,0.1-0.2,0.1-0.3c0,0.2,0,0.4,0,0.6
	c0,0.1,0,0.1,0,0.1c0,0.3,0,0.6,0.1,0.9v0.1c0,0.3,0,0.6,0.1,0.9v0.1c0,0.3,0,0.6,0.1,0.9c0,0.1,0,0.1,0,0.1c0,0.3,0,0.6,0.1,0.9
	v0.1c0,0.3,0,0.6,0.1,0.9v0.1c0,0.3,0,0.6,0,0.9l0,0c0,0.3,0,0.6,0,0.9v0.1c0,0.3,0,0.6,0,0.9v0.1c0,0.3,0,0.6,0,0.8
	c0,0.1,0,0.1,0,0.1c0,0.3,0,0.5,0,0.8c0,0.1,0,0.1,0,0.1c0,0.3,0,0.5,0,0.7c0,0.1,0,0.1,0,0.1c0,0.2,0,0.5,0,0.7c0,0.1,0,0.1,0,0.1
	c0,0.2,0,0.4,0,0.7V95c0,0.2,0,0.4,0,0.6v0.1c0,0.2,0,0.4,0,0.6c0,0.1,0,0.4,0,0.5v0.1c0,0.1,0,0.4,0,0.5v0.1c0,0.2,0,0.4,0.1,0.6
	v0.1c0,0.2,0.1,0.4,0.1,0.6V99c0,0.2,0.1,0.4,0.1,0.6c0,0.1,0,0.1,0,0.1c0,0.2,0.1,0.4,0.1,0.6c0,0.1,0,0.1,0,0.1
	c0.1,0.2,0.1,0.4,0.1,0.7l0,0c0.1,0.2,0.1,0.4,0.1,0.7c0,0.1,0,0.1,0,0.1c0.1,0.2,0.1,0.4,0.1,0.7c0,0.1,0,0.1,0,0.1
	c0.1,0.2,0.1,0.5,0.1,0.7v0.1c0.1,0.2,0.1,0.5,0.1,0.7v0.1c0.1,0.2,0.1,0.5,0.2,0.7c0,0.1,0,0.1,0.1,0.1c0.1,0.2,0.1,0.5,0.2,0.7
	c0,0.1,0,0.1,0,0.1c0.1,0.3,0.1,0.5,0.2,0.8c0,0,0,0,0,0.1c0.1,0.3,0.1,0.5,0.2,0.8c0,0.1,0,0.1,0,0.1c0.1,0.3,0.1,0.5,0.2,0.8
	c0,0.1,0,0.1,0.1,0.1c0.1,0.3,0.1,0.5,0.2,0.8c0,0.1,0,0.1,0,0.1c0.1,0.3,0.1,0.5,0.2,0.8v0.1c0.1,0.3,0.1,0.5,0.2,0.8
	c0,0.1,0,0.1,0.1,0.1c0.1,0.2,0.1,0.5,0.2,0.7c0,0.1,0,0.1,0.1,0.1c0.1,0.3,0.1,0.5,0.2,0.8c0,0,0,0,0,0.1c0.1,0.2,0.1,0.5,0.2,0.7
	c0,0.1,0,0.1,0,0.1c0.1,0.2,0.1,0.5,0.2,0.7c0,0.1,0,0.1,0.1,0.1c0.1,0.2,0.1,0.5,0.2,0.7v0.1c0.1,0.2,0.1,0.4,0.2,0.7
	c0,0,0,0,0,0.1c0.1,0.2,0.1,0.4,0.2,0.6c0,0.1,0,0.1,0.1,0.1c0.1,0.2,0.1,0.4,0.2,0.6c0,0.1,0,0.1,0.1,0.1c0.1,0.2,0.1,0.4,0.2,0.6
	v0.1c0.1,0.2,0.1,0.4,0.2,0.6v0.1c0.1,0.2,0.1,0.4,0.2,0.6c0,0.1,0,0.1,0.1,0.1c0.1,0.2,0.1,0.4,0.2,0.5v0.1
	c0.1,0.1,0.1,0.4,0.1,0.5l0,0c0.6,1.6,1.1,3.4,1.5,5.1l0,0c0.1,0.3,0.1,0.6,0.2,0.9c0,0.1,0,0.1,0,0.1c0.1,0.2,0.1,0.4,0.1,0.7
	c0,0.1,0.1,0.1,0.1,0.2c0.1,0.2,0.1,0.4,0.1,0.6c0,0.1,0,0.1,0.1,0.2c0.1,0.2,0.1,0.5,0.1,0.7c0,0,0,0,0,0.1l0.3,1.4
	c0.2,0.9,0.4,1.7,0.5,2.4c0.3,1.7-0.4,2.7-0.6,3.4c-0.2,0.7-1.4,3.4-1.6,4.2c-0.2,0.7-0.9,3-0.9,3.4c-0.1,0.5,0.1,1.4,0,2
	c-0.1,1-0.3,1.5,0.1,1.7c1.1,0.6,1.4-2.1,2.2-3.7c0.4-0.9,1.2-2.7,2.1-2.7c0.9,0.1,0.4,3.6,0.4,3.6s0.4,2-3,6.3
	c-1.7,2.2,1.3,2,2,1.4c0,0,3.2-2,5.2-5.8C211.5,146,212,143.3,211.9,141.7z"/>
<g>
	<path class="st3" d="M115.8,222.7c0.5,0,0.9,0.1,1.2,0.2c0.2,0.1,0.4,0.5,0.4,1v7.1c-0.4,0.5-0.8,0.8-1.1,0.8c-0.7,0-1.3-0.2-2-0.7
		c-0.7-0.5-1.5-1.2-2.3-2.2l-1.8-2.1c-0.6-0.7-1.1-1.1-1.6-1.5c-0.5-0.3-1.2-0.5-1.9-0.5c-0.7,0-1.3,0.2-1.8,0.7
		c-0.5,0.5-0.7,1-0.7,1.7c0,0.7,0.2,1.3,0.6,1.8c0.4,0.5,0.9,1,1.6,1.3c-0.1,0.6-0.3,1-0.6,1.2c-0.4-0.2-0.8-0.4-1.2-0.7
		c-0.4-0.3-0.7-0.6-1-1c-0.3-0.4-0.5-0.8-0.6-1.3c-0.1-0.5-0.2-1-0.2-1.6c0-0.6,0.1-1.1,0.3-1.6c0.2-0.5,0.5-0.9,0.8-1.3
		c0.4-0.4,0.8-0.6,1.3-0.8c0.5-0.2,1-0.3,1.6-0.3c0.6,0,1.1,0.1,1.5,0.2c0.4,0.1,0.8,0.3,1.2,0.6c0.4,0.3,0.7,0.6,1.1,0.9
		c0.3,0.3,0.7,0.7,1.1,1.1l1.5,1.8c1.3,1.5,2.3,2.3,3,2.4c0-0.4-0.1-0.8-0.1-1.3c0-0.4,0-0.9,0-1.4V222.7z"/>
	<path class="st3" d="M102.8,219.1v-8.7c0.4-0.2,0.7-0.3,1-0.3c0.3,0,0.6,0.1,0.9,0.3l1,0.7c1.9,1.3,3.6,2.2,5.3,2.9
		c1.6,0.7,3.5,1.1,5.7,1.3l0.7,0.1c0.1,0.2,0.1,0.5,0.1,0.9s0,0.7-0.1,0.9l-0.9-0.1c-3.6-0.4-7-1.7-10.3-3.9l-0.3-0.2
		c-0.3-0.2-0.8-0.6-1.6-1.2l-0.1,0.1c0.1,0.4,0.2,1.6,0.2,3.6v3.7c-0.2,0-0.4,0.1-0.7,0.1C103.4,219.2,103.1,219.2,102.8,219.1z"/>
	<path class="st3" d="M117.2,207.3c-0.2,0.1-0.5,0.2-1,0.2c-0.3,0-0.6,0-0.7-0.1c-0.2-0.1-0.3-0.2-0.4-0.3c-0.1-0.1-0.1-0.3-0.1-0.4
		c0-0.2,0-0.3,0-0.5c0-0.2,0-0.4,0-0.5c0-0.2,0.1-0.3,0.1-0.4c0.1-0.1,0.2-0.2,0.4-0.3c0.2-0.1,0.4-0.1,0.7-0.1c0.3,0,0.5,0,0.7,0.1
		c0.2,0,0.3,0.1,0.4,0.2c0.1,0.1,0.1,0.2,0.1,0.4c0,0.2,0,0.4,0,0.6C117.5,206.6,117.4,207,117.2,207.3z"/>
	<path class="st3" d="M115.9,197.6l-1.4,0h-6.3c0,0-0.9,0-2.8-0.1c1.1,0.8,2,2,2.6,3.4c-0.3,0.4-0.6,0.6-1,0.7
		c-0.6-1-1.3-1.9-2.1-2.6c-0.8-0.7-1.5-1.2-2.1-1.5c-0.1-0.2-0.1-0.5-0.1-0.8c0-0.3,0-0.6,0.1-0.8h11.7l1.4,0l0-1.2V193
		c0.2,0,0.5-0.1,0.7-0.1c0.2,0,0.5,0,0.7,0.1v7.9c-0.2,0-0.5,0.1-0.7,0.1c-0.2,0-0.5,0-0.7-0.1v-2.2L115.9,197.6z"/>
	<path class="st3" d="M102.7,183.6c0.7-0.7,1.9-1.1,3.5-1.1c1.5,0,2.6,0.3,3.4,0.9c0.7,0.6,1.1,1.4,1.1,2.5c0,1-0.4,1.8-1.1,2.4
		c-0.7,0.6-1.8,0.9-3.4,0.9c-1.5,0-2.6-0.3-3.3-0.9c-0.7-0.6-1.1-1.4-1.1-2.5C101.8,184.9,102.1,184.1,102.7,183.6z M117.3,185.7
		l-15.3-8.4c-0.1-0.2-0.1-0.5-0.1-0.8c0-0.2,0-0.3,0-0.5c0-0.1,0-0.3,0.1-0.4l15.3,8.4c0,0.1,0.1,0.2,0.1,0.4c0,0.1,0,0.3,0,0.5
		c0,0.2,0,0.3,0,0.5C117.4,185.5,117.4,185.7,117.3,185.7z M102.9,185.9c0,1.2,1.1,1.8,3.3,1.8c2.2,0,3.2-0.6,3.2-1.8
		c0-1.2-1.1-1.8-3.2-1.8C104,184,102.9,184.7,102.9,185.9z M116.7,173.2c0.6,0.6,0.9,1.4,0.9,2.3c0,1-0.4,1.9-1.1,2.5
		c-0.7,0.6-1.8,0.9-3.4,0.9c-1.5,0-2.6-0.3-3.3-0.9c-0.7-0.6-1.1-1.4-1.1-2.5s0.4-1.9,1.1-2.5c0.7-0.6,1.8-0.9,3.3-0.9
		C114.8,172.2,116,172.5,116.7,173.2z M109.9,175.5c0,1.2,1.1,1.8,3.3,1.8c2.2,0,3.2-0.6,3.2-1.8c0-1.2-1.1-1.8-3.2-1.8
		C111,173.7,109.9,174.3,109.9,175.5z"/>
</g>
<g>
	<path class="st3" d="M25.9,270.8l0.5,1.1c0.2,0.5,0.4,0.8,0.6,0.9c-0.1,0.2-0.3,0.3-0.5,0.3c-0.2,0-0.4,0-0.5-0.1
		c-0.1-0.1-0.2-0.3-0.3-0.5l-0.6-1.3c-0.2-0.4-0.3-0.6-0.5-0.7c-0.2-0.1-0.4-0.2-0.7-0.2c-0.3,0-0.5,0-0.8,0v2.7c-0.1,0-0.3,0-0.4,0
		s-0.3,0-0.4,0v-9l0.1-0.1h0.3c0.2,0,0.3,0,0.4,0.1c0.1,0.1,0.1,0.3,0.1,0.5v5l0.5,0c0.1,0,0.2-0.1,0.3-0.2l1.3-1.9
		c0.1-0.2,0.2-0.3,0.3-0.4c0.1-0.1,0.2-0.1,0.3-0.1c0.1,0,0.3,0,0.5,0l0.1,0.1l-1.6,2.3c-0.1,0.2-0.2,0.3-0.3,0.3
		c0.3,0.1,0.5,0.2,0.7,0.4C25.6,270.2,25.8,270.4,25.9,270.8z"/>
	<path class="st3" d="M28,267.3c0.1-0.2,0.2-0.4,0.4-0.5c0.5,0.2,0.8,0.5,0.9,1.1c0.3-0.7,0.9-1.1,1.6-1.1c0.2,0,0.4,0,0.6,0
		c0,0.4-0.1,0.6-0.2,0.9c-0.1,0-0.2,0-0.4,0c-0.7,0-1.2,0.4-1.5,1.1v4.1c-0.1,0-0.3,0-0.5,0c-0.2,0-0.3,0-0.5,0v-4.4
		C28.5,268,28.3,267.6,28,267.3z"/>
	<path class="st3" d="M32.7,264.8c0.1-0.1,0.3-0.1,0.6-0.1c0.2,0,0.4,0,0.5,0.1c0.1,0.1,0.1,0.2,0.1,0.5s0,0.4-0.1,0.5
		c-0.1,0.1-0.3,0.1-0.5,0.1c-0.2,0-0.4,0-0.5-0.1c-0.1-0.1-0.2-0.2-0.2-0.5C32.6,265.1,32.7,264.9,32.7,264.8z M33.9,267.8v5.2
		c-0.1,0-0.3,0-0.5,0s-0.3,0-0.5,0v-4.8c0-0.2,0-0.4-0.1-0.5c-0.1-0.1-0.2-0.1-0.4-0.1h-0.1c0-0.1,0-0.2,0-0.3c0-0.1,0-0.2,0-0.3
		c0.2,0,0.3,0,0.4,0c0.1,0,0.2,0,0.2,0h0.1c0.3,0,0.5,0.1,0.6,0.2C33.8,267.3,33.9,267.5,33.9,267.8z"/>
	<path class="st3" d="M38.7,266.9c0,0.1,0,0.2,0,0.4c0,0.1,0,0.2,0,0.4l-1.6,0v4.1c0,0.3,0.2,0.5,0.5,0.5h0.9
		c0.1,0.1,0.1,0.3,0.1,0.4s0,0.2,0,0.3c-0.4,0-0.8,0.1-1.2,0.1c-0.8,0-1.2-0.3-1.2-1v-4.4l-0.9,0c0-0.1,0-0.2,0-0.4
		c0-0.1,0-0.2,0-0.4l0.9,0v-1.3c0-0.2,0-0.4,0.1-0.5c0.1-0.1,0.2-0.1,0.4-0.1H37l0.1,0.1v1.8L38.7,266.9z"/>
	<path class="st3" d="M40.1,264.8c0.1-0.1,0.3-0.1,0.6-0.1c0.2,0,0.4,0,0.5,0.1c0.1,0.1,0.1,0.2,0.1,0.5s0,0.4-0.1,0.5
		c-0.1,0.1-0.3,0.1-0.5,0.1c-0.2,0-0.4,0-0.5-0.1c-0.1-0.1-0.2-0.2-0.2-0.5C40,265.1,40,264.9,40.1,264.8z M41.3,267.8v5.2
		c-0.1,0-0.3,0-0.5,0s-0.3,0-0.5,0v-4.8c0-0.2,0-0.4-0.1-0.5c-0.1-0.1-0.2-0.1-0.4-0.1h-0.1c0-0.1,0-0.2,0-0.3c0-0.1,0-0.2,0-0.3
		c0.2,0,0.3,0,0.4,0c0.1,0,0.2,0,0.2,0h0.1c0.3,0,0.5,0.1,0.6,0.2C41.2,267.3,41.3,267.5,41.3,267.8z"/>
	<path class="st3" d="M42.8,272.5c0-0.3,0.1-0.5,0.4-0.7c0.4,0.2,0.7,0.4,1,0.4c0.3,0.1,0.6,0.1,0.8,0.1c0.2,0,0.4,0,0.5-0.1
		s0.3-0.1,0.4-0.2c0.1-0.1,0.2-0.2,0.2-0.3c0.1-0.1,0.1-0.2,0.1-0.3c0-0.2-0.1-0.5-0.2-0.6c-0.2-0.2-0.4-0.3-0.7-0.4l-0.7-0.3
		c-0.5-0.2-0.9-0.4-1.2-0.7c-0.3-0.3-0.4-0.6-0.4-1c0-0.3,0.1-0.5,0.2-0.7c0.1-0.2,0.3-0.4,0.4-0.5c0.2-0.1,0.4-0.3,0.7-0.3
		c0.3-0.1,0.5-0.1,0.8-0.1c0.6,0,1.2,0.1,1.8,0.4c0,0.3-0.1,0.5-0.3,0.7c-0.3-0.1-0.6-0.2-0.9-0.3c-0.3-0.1-0.5-0.1-0.7-0.1
		c-0.4,0-0.7,0.1-0.9,0.3c-0.2,0.2-0.3,0.4-0.3,0.6c0,0.2,0.1,0.4,0.2,0.6c0.1,0.1,0.4,0.3,0.7,0.4l0.7,0.3c1,0.4,1.5,1,1.5,1.8
		c0,0.6-0.2,1-0.6,1.3c-0.4,0.3-1,0.5-1.7,0.5C44.2,273.1,43.5,272.9,42.8,272.5z"/>
	<path class="st3" d="M52.1,269.1v-0.1c0-0.2,0-0.4-0.1-0.5c0-0.2-0.1-0.3-0.2-0.5c-0.1-0.1-0.2-0.2-0.4-0.3
		c-0.2-0.1-0.4-0.1-0.6-0.1c-0.5,0-0.8,0.2-1.1,0.6c-0.3,0.4-0.4,1-0.4,1.8c0,0.8,0.1,1.4,0.4,1.8c0.3,0.4,0.6,0.6,1.1,0.6
		c0.5,0,1-0.2,1.7-0.7c0.2,0.1,0.4,0.3,0.4,0.6c-0.6,0.6-1.3,0.9-2.1,0.9c-0.4,0-0.7-0.1-1-0.2c-0.3-0.2-0.5-0.4-0.8-0.6
		c-0.2-0.3-0.4-0.6-0.5-0.9c-0.1-0.4-0.2-0.8-0.2-1.2c0-0.6,0.1-1.1,0.2-1.5c0.1-0.4,0.3-0.8,0.5-1c0.2-0.3,0.5-0.5,0.8-0.6
		c0.3-0.1,0.6-0.2,1-0.2c0.4,0,0.7,0.1,0.9,0.2c0.3,0.1,0.5,0.3,0.7,0.4s0.3,0.4,0.4,0.6c0.1,0.2,0.1,0.4,0.1,0.6
		c0,0.4-0.2,0.6-0.5,0.6C52.4,269.1,52.2,269.1,52.1,269.1z"/>
	<path class="st3" d="M59.2,268.8v3c0,0.5,0,0.8,0.1,1c-0.1,0.1-0.3,0.2-0.6,0.2c-0.3,0-0.5-0.2-0.5-0.6V269c0-0.5-0.1-0.9-0.2-1.1
		c-0.1-0.2-0.4-0.3-0.7-0.3s-0.7,0.1-1,0.3c-0.4,0.2-0.6,0.4-0.9,0.7v4.4c-0.1,0-0.3,0-0.5,0c-0.2,0-0.3,0-0.4,0v-9l0.1-0.1H55
		c0.2,0,0.3,0,0.4,0.1c0.1,0.1,0.1,0.3,0.1,0.5v3.2c0.3-0.3,0.6-0.5,1-0.6c0.4-0.2,0.8-0.2,1.1-0.2c0.6,0,1,0.2,1.2,0.5
		C59,267.7,59.2,268.2,59.2,268.8z"/>
	<path class="st3" d="M65.6,270.2h-3.8c0,1.4,0.6,2.1,1.6,2.1c0.6,0,1.2-0.2,1.8-0.5c0.2,0.2,0.3,0.4,0.3,0.6
		c-0.7,0.5-1.4,0.7-2.3,0.7c-0.4,0-0.8-0.1-1.1-0.2c-0.3-0.2-0.6-0.4-0.7-0.7c-0.2-0.3-0.3-0.6-0.4-1c-0.1-0.4-0.1-0.8-0.1-1.3
		c0-0.5,0.1-0.9,0.2-1.3c0.1-0.4,0.3-0.7,0.5-1c0.2-0.3,0.5-0.5,0.8-0.7c0.3-0.2,0.6-0.2,1-0.2c0.4,0,0.7,0.1,1,0.2
		c0.3,0.1,0.6,0.3,0.8,0.6c0.2,0.2,0.4,0.5,0.5,0.8c0.1,0.3,0.2,0.7,0.2,1c0,0.1,0,0.3,0,0.4C65.6,270,65.6,270.1,65.6,270.2z
		 M61.8,269.5h2.9v-0.2c0-0.6-0.1-1-0.4-1.4c-0.2-0.3-0.6-0.5-1.1-0.5c-0.5,0-0.8,0.2-1.1,0.6C62,268.4,61.8,268.9,61.8,269.5z"/>
	<path class="st3" d="M67.1,267.3c0.1-0.2,0.2-0.4,0.4-0.5c0.5,0.2,0.8,0.5,0.9,1.1c0.3-0.7,0.9-1.1,1.6-1.1c0.2,0,0.4,0,0.6,0
		c0,0.4-0.1,0.6-0.2,0.9c-0.1,0-0.2,0-0.4,0c-0.7,0-1.2,0.4-1.5,1.1v4.1c-0.1,0-0.3,0-0.5,0c-0.2,0-0.3,0-0.5,0v-4.4
		C67.6,268,67.4,267.6,67.1,267.3z"/>
	<path class="st3" d="M74.7,273L74.7,273l-0.1-8.3l0.1-0.1l2.4,0c0.9,0,1.6,0.2,2,0.6c0.4,0.4,0.6,0.9,0.6,1.6
		c0,0.4-0.1,0.8-0.3,1.1c-0.2,0.3-0.5,0.5-0.9,0.7c0.2,0.1,0.4,0.2,0.6,0.3c0.2,0.1,0.4,0.3,0.5,0.5c0.1,0.2,0.3,0.4,0.3,0.7
		c0.1,0.3,0.1,0.5,0.1,0.8c0,0.3-0.1,0.6-0.2,0.8c-0.1,0.3-0.3,0.5-0.5,0.7c-0.2,0.2-0.5,0.4-0.9,0.5c-0.4,0.1-0.8,0.2-1.3,0.2
		L74.7,273z M75.6,265.3v2.9h1.5c0.3,0,0.6,0,0.8-0.1s0.4-0.2,0.5-0.3c0.1-0.1,0.2-0.3,0.3-0.5c0.1-0.2,0.1-0.4,0.1-0.6
		c0-0.9-0.5-1.4-1.6-1.4c-0.4,0-0.7,0-0.9,0C76,265.3,75.7,265.3,75.6,265.3z M75.6,272.2l1.7,0c0.3,0,0.6,0,0.9-0.1
		c0.2-0.1,0.4-0.2,0.5-0.4c0.1-0.1,0.2-0.3,0.3-0.5c0.1-0.2,0.1-0.4,0.1-0.6c0-0.2,0-0.4-0.1-0.6c-0.1-0.2-0.2-0.4-0.3-0.5
		c-0.1-0.2-0.3-0.3-0.6-0.4c-0.2-0.1-0.5-0.2-0.9-0.2h-1.6V272.2z"/>
	<path class="st3" d="M86.2,270.2h-3.8c0,1.4,0.6,2.1,1.6,2.1c0.6,0,1.2-0.2,1.8-0.5c0.2,0.2,0.3,0.4,0.3,0.6
		c-0.7,0.5-1.4,0.7-2.3,0.7c-0.4,0-0.8-0.1-1.1-0.2c-0.3-0.2-0.6-0.4-0.7-0.7c-0.2-0.3-0.3-0.6-0.4-1s-0.1-0.8-0.1-1.3
		c0-0.5,0.1-0.9,0.2-1.3c0.1-0.4,0.3-0.7,0.5-1c0.2-0.3,0.5-0.5,0.8-0.7c0.3-0.2,0.6-0.2,1-0.2c0.4,0,0.7,0.1,1,0.2
		c0.3,0.1,0.6,0.3,0.8,0.6c0.2,0.2,0.4,0.5,0.5,0.8c0.1,0.3,0.2,0.7,0.2,1c0,0.1,0,0.3,0,0.4C86.3,270,86.3,270.1,86.2,270.2z
		 M82.4,269.5h2.9v-0.2c0-0.6-0.1-1-0.4-1.4c-0.2-0.3-0.6-0.5-1.1-0.5c-0.5,0-0.8,0.2-1.1,0.6C82.6,268.4,82.5,268.9,82.4,269.5z"/>
	<path class="st3" d="M87.8,267.3c0.1-0.2,0.2-0.4,0.4-0.5c0.5,0.2,0.8,0.5,0.9,1.1c0.3-0.7,0.9-1.1,1.6-1.1c0.2,0,0.4,0,0.6,0
		c0,0.4-0.1,0.6-0.2,0.9c-0.1,0-0.2,0-0.4,0c-0.7,0-1.2,0.4-1.5,1.1v4.1c-0.1,0-0.3,0-0.5,0c-0.2,0-0.3,0-0.5,0v-4.4
		C88.2,268,88.1,267.6,87.8,267.3z"/>
	<path class="st3" d="M96.5,270.2h-3.8c0,1.4,0.6,2.1,1.6,2.1c0.6,0,1.2-0.2,1.8-0.5c0.2,0.2,0.3,0.4,0.3,0.6
		c-0.7,0.5-1.4,0.7-2.3,0.7c-0.4,0-0.8-0.1-1.1-0.2c-0.3-0.2-0.6-0.4-0.7-0.7c-0.2-0.3-0.3-0.6-0.4-1s-0.1-0.8-0.1-1.3
		c0-0.5,0.1-0.9,0.2-1.3c0.1-0.4,0.3-0.7,0.5-1c0.2-0.3,0.5-0.5,0.8-0.7c0.3-0.2,0.6-0.2,1-0.2c0.4,0,0.7,0.1,1,0.2
		c0.3,0.1,0.6,0.3,0.8,0.6c0.2,0.2,0.4,0.5,0.5,0.8c0.1,0.3,0.2,0.7,0.2,1c0,0.1,0,0.3,0,0.4C96.5,270,96.5,270.1,96.5,270.2z
		 M92.7,269.5h2.9v-0.2c0-0.6-0.1-1-0.4-1.4c-0.2-0.3-0.6-0.5-1.1-0.5c-0.5,0-0.8,0.2-1.1,0.6C92.9,268.4,92.7,268.9,92.7,269.5z"/>
	<path class="st3" d="M98.2,264.8c0.1-0.1,0.3-0.1,0.6-0.1c0.2,0,0.4,0,0.5,0.1c0.1,0.1,0.1,0.2,0.1,0.5s0,0.4-0.1,0.5
		c-0.1,0.1-0.3,0.1-0.5,0.1c-0.2,0-0.4,0-0.5-0.1c-0.1-0.1-0.2-0.2-0.2-0.5C98.1,265.1,98.1,264.9,98.2,264.8z M99.4,267.8v5.2
		c-0.1,0-0.3,0-0.5,0c-0.2,0-0.3,0-0.5,0v-4.8c0-0.2,0-0.4-0.1-0.5c-0.1-0.1-0.2-0.1-0.4-0.1h-0.1c0-0.1,0-0.2,0-0.3
		c0-0.1,0-0.2,0-0.3c0.2,0,0.3,0,0.4,0c0.1,0,0.2,0,0.2,0h0.1c0.3,0,0.5,0.1,0.6,0.2C99.3,267.3,99.4,267.5,99.4,267.8z"/>
	<path class="st3" d="M104.8,269.1v-0.1c0-0.2,0-0.4-0.1-0.5c0-0.2-0.1-0.3-0.2-0.5c-0.1-0.1-0.2-0.2-0.4-0.3
		c-0.2-0.1-0.4-0.1-0.6-0.1c-0.5,0-0.8,0.2-1.1,0.6c-0.3,0.4-0.4,1-0.4,1.8c0,0.8,0.1,1.4,0.4,1.8c0.3,0.4,0.6,0.6,1.1,0.6
		c0.5,0,1-0.2,1.7-0.7c0.2,0.1,0.4,0.3,0.4,0.6c-0.6,0.6-1.3,0.9-2.1,0.9c-0.4,0-0.7-0.1-1-0.2c-0.3-0.2-0.5-0.4-0.8-0.6
		c-0.2-0.3-0.4-0.6-0.5-0.9c-0.1-0.4-0.2-0.8-0.2-1.2c0-0.6,0.1-1.1,0.2-1.5s0.3-0.8,0.5-1c0.2-0.3,0.5-0.5,0.8-0.6
		c0.3-0.1,0.6-0.2,1-0.2c0.4,0,0.7,0.1,0.9,0.2c0.3,0.1,0.5,0.3,0.7,0.4c0.2,0.2,0.3,0.4,0.4,0.6c0.1,0.2,0.1,0.4,0.1,0.6
		c0,0.4-0.2,0.6-0.5,0.6C105.1,269.1,105,269.1,104.8,269.1z"/>
	<path class="st3" d="M111.9,268.8v3c0,0.5,0,0.8,0.1,1c-0.1,0.1-0.3,0.2-0.6,0.2c-0.3,0-0.5-0.2-0.5-0.6V269c0-0.5-0.1-0.9-0.2-1.1
		c-0.1-0.2-0.4-0.3-0.7-0.3c-0.3,0-0.7,0.1-1,0.3c-0.4,0.2-0.6,0.4-0.9,0.7v4.4c-0.1,0-0.3,0-0.5,0c-0.2,0-0.3,0-0.4,0v-9l0.1-0.1
		h0.3c0.2,0,0.3,0,0.4,0.1c0.1,0.1,0.1,0.3,0.1,0.5v3.2c0.3-0.3,0.6-0.5,1-0.6c0.4-0.2,0.8-0.2,1.1-0.2c0.6,0,1,0.2,1.2,0.5
		C111.8,267.7,111.9,268.2,111.9,268.8z"/>
</g>
<g>
	<path class="st4" d="M216.2,223.9l1,0h2.4c0,0.3,0.1,0.5,0.1,0.8c0,0.3,0,0.6-0.1,0.8h-2.4l-1,0l0,0.9v4.4c-0.5,0.3-0.8,0.4-1,0.4
		c-0.2,0-0.6-0.2-1.4-0.5l-8.9-3.9c-0.1-0.2-0.1-0.5,0-0.8c0.1-0.3,0.1-0.6,0.3-0.8l7.3,3.2c1.2,0.6,2,0.9,2.3,1.1l0.1,0
		c0-0.8-0.1-1.6-0.1-2.3v-1.6l-0.9,0h-2.3c-0.8,0-1.2-0.4-1.2-1.1V224l0.1-0.1h3.4l0.9,0l0-0.9v-1.5c0.2,0,0.4,0,0.7,0
		c0.3,0,0.5,0,0.8,0.1v1.4L216.2,223.9z"/>
	<path class="st4" d="M218.5,217.5l-0.4,0.3c-0.2,0.2-0.5,0.3-0.9,0.5c-0.4,0.2-0.8,0.3-1.4,0.4c-0.5,0.1-1.1,0.2-1.7,0.3
		c-0.6,0.1-1.3,0.1-2,0.1c-1.1,0-2.2-0.1-3.1-0.4c-0.9-0.2-1.7-0.6-2.3-1.1c-0.6-0.5-1.1-1.1-1.5-1.7c-0.3-0.7-0.5-1.5-0.5-2.4
		c0-1.3,0.2-2.3,0.7-3c0.6,0.1,1,0.3,1.2,0.7c-0.3,0.8-0.5,1.5-0.5,2.3c0,0.7,0.1,1.2,0.4,1.7c0.3,0.5,0.6,0.9,1.1,1.2
		c0.5,0.3,1,0.5,1.6,0.7c0.6,0.2,1.3,0.2,2.1,0.3c-1-1-1.5-2.1-1.5-3.4c0-1.3,0.4-2.3,1.2-3.1c0.8-0.7,2-1.1,3.5-1.1
		c0.7,0,1.4,0.1,2.1,0.3c0.6,0.2,1.2,0.5,1.6,0.9c0.5,0.4,0.8,0.9,1.1,1.4s0.4,1.2,0.4,1.8C219.8,215.7,219.4,216.7,218.5,217.5z
		 M211.4,214.3c0,0.5,0.1,1.1,0.4,1.6c0.3,0.6,0.7,1.1,1.2,1.5h0.4c0.8,0,1.5-0.1,2.1-0.2c0.6-0.1,1.2-0.3,1.6-0.6
		c0.4-0.3,0.8-0.6,1-1c0.2-0.4,0.4-0.8,0.4-1.4c0-0.8-0.3-1.5-1-2c-0.6-0.5-1.5-0.7-2.6-0.7C212.6,211.5,211.4,212.4,211.4,214.3z"
		/>
	<path class="st4" d="M219.5,207c-0.2,0.1-0.5,0.2-1,0.2c-0.3,0-0.6,0-0.7-0.1c-0.2-0.1-0.3-0.2-0.4-0.3c-0.1-0.1-0.1-0.3-0.1-0.4
		s0-0.3,0-0.5c0-0.2,0-0.4,0-0.5c0-0.2,0.1-0.3,0.1-0.4c0.1-0.1,0.2-0.2,0.4-0.3c0.2-0.1,0.4-0.1,0.7-0.1c0.3,0,0.5,0,0.7,0.1
		c0.2,0,0.3,0.1,0.4,0.2c0.1,0.1,0.1,0.2,0.1,0.4c0,0.2,0,0.4,0,0.6C219.7,206.3,219.7,206.7,219.5,207z"/>
	<path class="st4" d="M216.2,194.6l1,0h2.4c0,0.3,0.1,0.5,0.1,0.8s0,0.6-0.1,0.8h-2.4l-1,0l0,0.9v4.4c-0.5,0.3-0.8,0.4-1,0.4
		c-0.2,0-0.6-0.2-1.4-0.5l-8.9-3.9c-0.1-0.2-0.1-0.5,0-0.8c0.1-0.3,0.1-0.6,0.3-0.8l7.3,3.2c1.2,0.6,2,0.9,2.3,1.1l0.1,0
		c0-0.8-0.1-1.6-0.1-2.3v-1.6l-0.9,0h-2.3c-0.8,0-1.2-0.4-1.2-1.1v-0.5l0.1-0.1h3.4l0.9,0l0-0.9v-1.5c0.2,0,0.4,0,0.7,0
		c0.3,0,0.5,0,0.8,0.1v1.4L216.2,194.6z"/>
	<path class="st4" d="M204.9,183.3c0.7-0.7,1.9-1.1,3.5-1.1c1.5,0,2.6,0.3,3.4,0.9c0.7,0.6,1.1,1.4,1.1,2.5c0,1-0.4,1.8-1.1,2.4
		s-1.8,0.9-3.4,0.9c-1.5,0-2.6-0.3-3.3-0.9c-0.7-0.6-1.1-1.4-1.1-2.5C204,184.6,204.3,183.8,204.9,183.3z M219.6,185.4l-15.3-8.4
		c-0.1-0.2-0.1-0.5-0.1-0.8c0-0.2,0-0.3,0-0.5c0-0.1,0-0.3,0.1-0.4l15.3,8.4c0,0.1,0.1,0.2,0.1,0.4c0,0.1,0,0.3,0,0.5
		c0,0.2,0,0.3,0,0.5C219.7,185.2,219.6,185.4,219.6,185.4z M205.2,185.6c0,1.2,1.1,1.8,3.3,1.8c2.2,0,3.2-0.6,3.2-1.8
		c0-1.2-1.1-1.8-3.2-1.8C206.3,183.7,205.2,184.4,205.2,185.6z M218.9,172.9c0.6,0.6,0.9,1.4,0.9,2.3c0,1-0.4,1.9-1.1,2.5
		c-0.7,0.6-1.8,0.9-3.4,0.9c-1.5,0-2.6-0.3-3.3-0.9c-0.7-0.6-1.1-1.4-1.1-2.5s0.4-1.9,1.1-2.5c0.7-0.6,1.8-0.9,3.3-0.9
		C217,171.9,218.2,172.2,218.9,172.9z M212.1,175.2c0,1.2,1.1,1.8,3.3,1.8c2.2,0,3.2-0.6,3.2-1.8c0-1.2-1.1-1.8-3.2-1.8
		C213.2,173.4,212.1,174,212.1,175.2z"/>
</g>
<g>
	<path class="st4" d="M128.7,272.5c0-0.3,0.1-0.5,0.4-0.7c0.4,0.2,0.7,0.4,1,0.4c0.3,0.1,0.6,0.1,0.8,0.1c0.2,0,0.4,0,0.5-0.1
		c0.2-0.1,0.3-0.1,0.4-0.2c0.1-0.1,0.2-0.2,0.2-0.3c0.1-0.1,0.1-0.2,0.1-0.3c0-0.2-0.1-0.5-0.2-0.6s-0.4-0.3-0.7-0.4l-0.7-0.3
		c-0.5-0.2-0.9-0.4-1.2-0.7c-0.3-0.3-0.4-0.6-0.4-1c0-0.3,0.1-0.5,0.2-0.7c0.1-0.2,0.3-0.4,0.4-0.5c0.2-0.1,0.4-0.3,0.7-0.3
		c0.3-0.1,0.5-0.1,0.8-0.1c0.6,0,1.2,0.1,1.8,0.4c0,0.3-0.1,0.5-0.3,0.7c-0.3-0.1-0.6-0.2-0.9-0.3c-0.3-0.1-0.5-0.1-0.7-0.1
		c-0.4,0-0.7,0.1-0.9,0.3c-0.2,0.2-0.3,0.4-0.3,0.6c0,0.2,0.1,0.4,0.2,0.6c0.1,0.1,0.4,0.3,0.7,0.4l0.7,0.3c1,0.4,1.5,1,1.5,1.8
		c0,0.6-0.2,1-0.6,1.3c-0.4,0.3-1,0.5-1.7,0.5C130,273.1,129.4,272.9,128.7,272.5z"/>
	<path class="st4" d="M139,270.2h-3.8c0,1.4,0.6,2.1,1.6,2.1c0.6,0,1.2-0.2,1.8-0.5c0.2,0.2,0.3,0.4,0.3,0.6
		c-0.7,0.5-1.4,0.7-2.3,0.7c-0.4,0-0.8-0.1-1.1-0.2c-0.3-0.2-0.6-0.4-0.7-0.7c-0.2-0.3-0.3-0.6-0.4-1s-0.1-0.8-0.1-1.3
		c0-0.5,0.1-0.9,0.2-1.3c0.1-0.4,0.3-0.7,0.5-1c0.2-0.3,0.5-0.5,0.8-0.7c0.3-0.2,0.6-0.2,1-0.2c0.4,0,0.7,0.1,1,0.2
		c0.3,0.1,0.6,0.3,0.8,0.6c0.2,0.2,0.4,0.5,0.5,0.8c0.1,0.3,0.2,0.7,0.2,1c0,0.1,0,0.3,0,0.4C139.1,270,139,270.1,139,270.2z
		 M135.2,269.5h2.9v-0.2c0-0.6-0.1-1-0.4-1.4c-0.2-0.3-0.6-0.5-1.1-0.5c-0.5,0-0.8,0.2-1.1,0.6C135.4,268.4,135.2,268.9,135.2,269.5
		z"/>
	<path class="st4" d="M145.5,268.7v3.1c0,0.5,0,0.8,0.1,1c-0.1,0.1-0.3,0.2-0.6,0.2c-0.3,0-0.5-0.2-0.5-0.6V269
		c0-0.5-0.1-0.9-0.2-1.1c-0.1-0.2-0.4-0.3-0.7-0.3c-0.3,0-0.7,0.1-1,0.3c-0.4,0.2-0.6,0.4-0.9,0.7v4.4c-0.1,0-0.3,0-0.5,0
		s-0.3,0-0.5,0v-6l0.1-0.1h0.3c0.2,0,0.3,0.1,0.4,0.2c0.1,0.1,0.1,0.3,0.1,0.5v0.2c0.3-0.3,0.6-0.5,1-0.6c0.4-0.2,0.8-0.2,1.1-0.2
		c0.6,0,1,0.2,1.2,0.5C145.4,267.7,145.5,268.2,145.5,268.7z"/>
	<path class="st4" d="M147,272.5c0-0.3,0.1-0.5,0.4-0.7c0.4,0.2,0.7,0.4,1,0.4c0.3,0.1,0.6,0.1,0.8,0.1c0.2,0,0.4,0,0.5-0.1
		c0.2-0.1,0.3-0.1,0.4-0.2c0.1-0.1,0.2-0.2,0.2-0.3c0.1-0.1,0.1-0.2,0.1-0.3c0-0.2-0.1-0.5-0.2-0.6s-0.4-0.3-0.7-0.4l-0.7-0.3
		c-0.5-0.2-0.9-0.4-1.2-0.7c-0.3-0.3-0.4-0.6-0.4-1c0-0.3,0.1-0.5,0.2-0.7c0.1-0.2,0.3-0.4,0.4-0.5c0.2-0.1,0.4-0.3,0.7-0.3
		c0.3-0.1,0.5-0.1,0.8-0.1c0.6,0,1.2,0.1,1.8,0.4c0,0.3-0.1,0.5-0.3,0.7c-0.3-0.1-0.6-0.2-0.9-0.3c-0.3-0.1-0.5-0.1-0.7-0.1
		c-0.4,0-0.7,0.1-0.9,0.3c-0.2,0.2-0.3,0.4-0.3,0.6c0,0.2,0.1,0.4,0.2,0.6c0.1,0.1,0.4,0.3,0.7,0.4l0.7,0.3c1,0.4,1.5,1,1.5,1.8
		c0,0.6-0.2,1-0.6,1.3c-0.4,0.3-1,0.5-1.7,0.5C148.3,273.1,147.6,272.9,147,272.5z"/>
	<path class="st4" d="M152.7,264.8c0.1-0.1,0.3-0.1,0.6-0.1c0.2,0,0.4,0,0.5,0.1c0.1,0.1,0.1,0.2,0.1,0.5c0,0.2,0,0.4-0.1,0.5
		c-0.1,0.1-0.3,0.1-0.5,0.1c-0.2,0-0.4,0-0.5-0.1c-0.1-0.1-0.2-0.2-0.2-0.5C152.7,265.1,152.7,264.9,152.7,264.8z M153.9,267.8v5.2
		c-0.1,0-0.3,0-0.5,0s-0.3,0-0.5,0v-4.8c0-0.2,0-0.4-0.1-0.5s-0.2-0.1-0.4-0.1h-0.1c0-0.1,0-0.2,0-0.3c0-0.1,0-0.2,0-0.3
		c0.2,0,0.3,0,0.4,0c0.1,0,0.2,0,0.2,0h0.1c0.3,0,0.5,0.1,0.6,0.2C153.9,267.3,153.9,267.5,153.9,267.8z"/>
	<path class="st4" d="M156.1,272.7V264l0.1-0.1h0.3c0.2,0,0.3,0,0.4,0.1c0.1,0.1,0.1,0.3,0.1,0.5v3c0.5-0.5,1.1-0.8,1.8-0.8
		c0.7,0,1.2,0.3,1.5,0.8c0.4,0.6,0.5,1.3,0.5,2.3c0,0.5-0.1,0.9-0.2,1.3c-0.1,0.4-0.3,0.7-0.6,1c-0.2,0.3-0.5,0.5-0.8,0.6
		c-0.3,0.1-0.7,0.2-1,0.2C157.5,273,156.8,272.9,156.1,272.7z M157,268.5v3.7c0.4,0.1,0.8,0.2,1.2,0.2c0.5,0,0.9-0.2,1.2-0.6
		c0.3-0.4,0.5-1,0.5-1.8c0-0.4,0-0.7-0.1-1c-0.1-0.3-0.2-0.5-0.3-0.7c-0.1-0.2-0.3-0.3-0.4-0.4c-0.1-0.1-0.3-0.1-0.5-0.1
		c-0.3,0-0.7,0.1-0.9,0.2C157.4,268,157.2,268.2,157,268.5z"/>
	<path class="st4" d="M163.9,272.2h0.5c0,0.1,0.1,0.2,0.1,0.3c0,0.1,0,0.2,0,0.3c0,0.1,0,0.1,0,0.1c0,0,0,0.1,0,0.1
		c-0.1,0-0.3,0-0.4,0.1c-0.1,0-0.2,0-0.4,0c-0.3,0-0.6-0.1-0.8-0.2c-0.2-0.2-0.3-0.4-0.3-0.8v-8l0.1-0.1h0.3c0.2,0,0.3,0,0.4,0.1
		c0.1,0.1,0.1,0.3,0.1,0.5v7.2C163.4,272.1,163.6,272.2,163.9,272.2z"/>
	<path class="st4" d="M170.2,270.2h-3.8c0,1.4,0.6,2.1,1.6,2.1c0.6,0,1.2-0.2,1.8-0.5c0.2,0.2,0.3,0.4,0.3,0.6
		c-0.7,0.5-1.4,0.7-2.3,0.7c-0.4,0-0.8-0.1-1.1-0.2c-0.3-0.2-0.6-0.4-0.7-0.7c-0.2-0.3-0.3-0.6-0.4-1s-0.1-0.8-0.1-1.3
		c0-0.5,0.1-0.9,0.2-1.3c0.1-0.4,0.3-0.7,0.5-1c0.2-0.3,0.5-0.5,0.8-0.7c0.3-0.2,0.6-0.2,1-0.2c0.4,0,0.7,0.1,1,0.2
		c0.3,0.1,0.6,0.3,0.8,0.6c0.2,0.2,0.4,0.5,0.5,0.8c0.1,0.3,0.2,0.7,0.2,1c0,0.1,0,0.3,0,0.4C170.3,270,170.3,270.1,170.2,270.2z
		 M166.4,269.5h2.9v-0.2c0-0.6-0.1-1-0.4-1.4c-0.2-0.3-0.6-0.5-1.1-0.5c-0.5,0-0.8,0.2-1.1,0.6C166.6,268.4,166.5,268.9,166.4,269.5
		z"/>
	<path class="st4" d="M171.8,267.3c0.1-0.2,0.2-0.4,0.4-0.5c0.5,0.2,0.8,0.5,0.9,1.1c0.3-0.7,0.9-1.1,1.6-1.1c0.2,0,0.4,0,0.6,0
		c0,0.4-0.1,0.6-0.2,0.9c-0.1,0-0.2,0-0.4,0c-0.7,0-1.2,0.4-1.5,1.1v4.1c-0.1,0-0.3,0-0.5,0c-0.2,0-0.3,0-0.5,0v-4.4
		C172.2,268,172.1,267.6,171.8,267.3z"/>
	<path class="st4" d="M179.4,273L179.4,273l-0.1-8.3l0.1-0.1l2.4,0c0.9,0,1.6,0.2,2,0.6c0.4,0.4,0.6,0.9,0.6,1.6
		c0,0.4-0.1,0.8-0.3,1.1c-0.2,0.3-0.5,0.5-0.9,0.7c0.2,0.1,0.4,0.2,0.6,0.3c0.2,0.1,0.4,0.3,0.5,0.5c0.1,0.2,0.3,0.4,0.3,0.7
		c0.1,0.3,0.1,0.5,0.1,0.8c0,0.3-0.1,0.6-0.2,0.8c-0.1,0.3-0.3,0.5-0.5,0.7c-0.2,0.2-0.5,0.4-0.9,0.5c-0.4,0.1-0.8,0.2-1.3,0.2
		L179.4,273z M180.2,265.3v2.9h1.5c0.3,0,0.6,0,0.8-0.1c0.2-0.1,0.4-0.2,0.5-0.3c0.1-0.1,0.2-0.3,0.3-0.5s0.1-0.4,0.1-0.6
		c0-0.9-0.5-1.4-1.6-1.4c-0.4,0-0.7,0-0.9,0C180.6,265.3,180.4,265.3,180.2,265.3z M180.2,272.2l1.7,0c0.3,0,0.6,0,0.9-0.1
		c0.2-0.1,0.4-0.2,0.5-0.4c0.1-0.1,0.2-0.3,0.3-0.5c0.1-0.2,0.1-0.4,0.1-0.6c0-0.2,0-0.4-0.1-0.6c-0.1-0.2-0.2-0.4-0.3-0.5
		c-0.1-0.2-0.3-0.3-0.6-0.4c-0.2-0.1-0.5-0.2-0.9-0.2h-1.6V272.2z"/>
	<path class="st4" d="M190.9,270.2h-3.8c0,1.4,0.6,2.1,1.6,2.1c0.6,0,1.2-0.2,1.8-0.5c0.2,0.2,0.3,0.4,0.3,0.6
		c-0.7,0.5-1.4,0.7-2.3,0.7c-0.4,0-0.8-0.1-1.1-0.2c-0.3-0.2-0.6-0.4-0.7-0.7c-0.2-0.3-0.3-0.6-0.4-1s-0.1-0.8-0.1-1.3
		c0-0.5,0.1-0.9,0.2-1.3c0.1-0.4,0.3-0.7,0.5-1c0.2-0.3,0.5-0.5,0.8-0.7c0.3-0.2,0.6-0.2,1-0.2c0.4,0,0.7,0.1,1,0.2s0.6,0.3,0.8,0.6
		c0.2,0.2,0.4,0.5,0.5,0.8c0.1,0.3,0.2,0.7,0.2,1c0,0.1,0,0.3,0,0.4C190.9,270,190.9,270.1,190.9,270.2z M187.1,269.5h2.9v-0.2
		c0-0.6-0.1-1-0.4-1.4c-0.2-0.3-0.6-0.5-1.1-0.5c-0.5,0-0.8,0.2-1.1,0.6C187.2,268.4,187.1,268.9,187.1,269.5z"/>
	<path class="st4" d="M192.4,267.3c0.1-0.2,0.2-0.4,0.4-0.5c0.5,0.2,0.8,0.5,0.9,1.1c0.3-0.7,0.9-1.1,1.6-1.1c0.2,0,0.4,0,0.6,0
		c0,0.4-0.1,0.6-0.2,0.9c-0.1,0-0.2,0-0.4,0c-0.7,0-1.2,0.4-1.5,1.1v4.1c-0.1,0-0.3,0-0.5,0c-0.2,0-0.3,0-0.5,0v-4.4
		C192.8,268,192.7,267.6,192.4,267.3z"/>
	<path class="st4" d="M201.1,270.2h-3.8c0,1.4,0.6,2.1,1.6,2.1c0.6,0,1.2-0.2,1.8-0.5c0.2,0.2,0.3,0.4,0.3,0.6
		c-0.7,0.5-1.4,0.7-2.3,0.7c-0.4,0-0.8-0.1-1.1-0.2c-0.3-0.2-0.6-0.4-0.7-0.7c-0.2-0.3-0.3-0.6-0.4-1s-0.1-0.8-0.1-1.3
		c0-0.5,0.1-0.9,0.2-1.3c0.1-0.4,0.3-0.7,0.5-1c0.2-0.3,0.5-0.5,0.8-0.7c0.3-0.2,0.6-0.2,1-0.2c0.4,0,0.7,0.1,1,0.2
		c0.3,0.1,0.6,0.3,0.8,0.6c0.2,0.2,0.4,0.5,0.5,0.8c0.1,0.3,0.2,0.7,0.2,1c0,0.1,0,0.3,0,0.4C201.2,270,201.2,270.1,201.1,270.2z
		 M197.3,269.5h2.9v-0.2c0-0.6-0.1-1-0.4-1.4c-0.2-0.3-0.6-0.5-1.1-0.5c-0.5,0-0.8,0.2-1.1,0.6C197.5,268.4,197.4,268.9,197.3,269.5
		z"/>
	<path class="st4" d="M202.8,264.8c0.1-0.1,0.3-0.1,0.6-0.1c0.2,0,0.4,0,0.5,0.1c0.1,0.1,0.1,0.2,0.1,0.5c0,0.2,0,0.4-0.1,0.5
		c-0.1,0.1-0.3,0.1-0.5,0.1c-0.2,0-0.4,0-0.5-0.1c-0.1-0.1-0.2-0.2-0.2-0.5C202.7,265.1,202.8,264.9,202.8,264.8z M204,267.8v5.2
		c-0.1,0-0.3,0-0.5,0s-0.3,0-0.5,0v-4.8c0-0.2,0-0.4-0.1-0.5c-0.1-0.1-0.2-0.1-0.4-0.1h-0.1c0-0.1,0-0.2,0-0.3c0-0.1,0-0.2,0-0.3
		c0.2,0,0.3,0,0.4,0c0.1,0,0.2,0,0.2,0h0.1c0.3,0,0.5,0.1,0.6,0.2C203.9,267.3,204,267.5,204,267.8z"/>
	<path class="st4" d="M209.4,269.1v-0.1c0-0.2,0-0.4-0.1-0.5c0-0.2-0.1-0.3-0.2-0.5c-0.1-0.1-0.2-0.2-0.4-0.3
		c-0.2-0.1-0.4-0.1-0.6-0.1c-0.5,0-0.8,0.2-1.1,0.6c-0.3,0.4-0.4,1-0.4,1.8c0,0.8,0.1,1.4,0.4,1.8c0.3,0.4,0.6,0.6,1.1,0.6
		c0.5,0,1-0.2,1.7-0.7c0.2,0.1,0.4,0.3,0.4,0.6c-0.6,0.6-1.3,0.9-2.1,0.9c-0.4,0-0.7-0.1-1-0.2c-0.3-0.2-0.5-0.4-0.8-0.6
		c-0.2-0.3-0.4-0.6-0.5-0.9c-0.1-0.4-0.2-0.8-0.2-1.2c0-0.6,0.1-1.1,0.2-1.5s0.3-0.8,0.5-1c0.2-0.3,0.5-0.5,0.8-0.6
		c0.3-0.1,0.6-0.2,1-0.2c0.4,0,0.7,0.1,0.9,0.2c0.3,0.1,0.5,0.3,0.7,0.4c0.2,0.2,0.3,0.4,0.4,0.6c0.1,0.2,0.1,0.4,0.1,0.6
		c0,0.4-0.2,0.6-0.5,0.6C209.7,269.1,209.6,269.1,209.4,269.1z"/>
	<path class="st4" d="M216.5,268.8v3c0,0.5,0,0.8,0.1,1c-0.1,0.1-0.3,0.2-0.6,0.2c-0.3,0-0.5-0.2-0.5-0.6V269c0-0.5-0.1-0.9-0.2-1.1
		c-0.1-0.2-0.4-0.3-0.7-0.3s-0.7,0.1-1,0.3c-0.4,0.2-0.6,0.4-0.9,0.7v4.4c-0.1,0-0.3,0-0.5,0c-0.2,0-0.3,0-0.4,0v-9l0.1-0.1h0.3
		c0.2,0,0.3,0,0.4,0.1c0.1,0.1,0.1,0.3,0.1,0.5v3.2c0.3-0.3,0.6-0.5,1-0.6c0.4-0.2,0.8-0.2,1.1-0.2c0.6,0,1,0.2,1.2,0.5
		C216.4,267.7,216.5,268.2,216.5,268.8z"/>
</g>
<g>
	<path class="st5" d="M316.9,222.4c0.5,0,0.9,0.1,1.2,0.2c0.2,0.1,0.4,0.5,0.4,1v7.1c-0.4,0.5-0.8,0.8-1.1,0.8c-0.7,0-1.3-0.2-2-0.7
		c-0.7-0.5-1.5-1.2-2.3-2.2l-1.8-2.1c-0.6-0.7-1.1-1.1-1.6-1.5s-1.2-0.5-1.9-0.5c-0.7,0-1.3,0.2-1.8,0.7c-0.5,0.5-0.7,1-0.7,1.7
		s0.2,1.3,0.6,1.8c0.4,0.5,0.9,1,1.6,1.3c-0.1,0.6-0.3,1-0.6,1.2c-0.4-0.2-0.8-0.4-1.2-0.7c-0.4-0.3-0.7-0.6-1-1
		c-0.3-0.4-0.5-0.8-0.6-1.3s-0.2-1-0.2-1.6c0-0.6,0.1-1.1,0.3-1.6c0.2-0.5,0.5-0.9,0.8-1.3c0.4-0.4,0.8-0.6,1.3-0.8
		c0.5-0.2,1-0.3,1.6-0.3c0.6,0,1.1,0.1,1.5,0.2c0.4,0.1,0.8,0.3,1.2,0.6c0.4,0.3,0.7,0.6,1.1,0.9c0.3,0.3,0.7,0.7,1.1,1.1l1.5,1.8
		c1.3,1.5,2.3,2.3,3,2.4c0-0.4-0.1-0.8-0.1-1.3c0-0.4,0-0.9,0-1.4V222.4z"/>
	<path class="st5" d="M317.4,218l-0.4,0.3c-0.2,0.2-0.5,0.3-0.9,0.5c-0.4,0.2-0.8,0.3-1.4,0.4c-0.5,0.1-1.1,0.2-1.7,0.3
		c-0.6,0.1-1.3,0.1-2,0.1c-1.1,0-2.2-0.1-3.1-0.4c-0.9-0.2-1.7-0.6-2.3-1.1c-0.6-0.5-1.1-1.1-1.5-1.7c-0.3-0.7-0.5-1.5-0.5-2.4
		c0-1.3,0.2-2.3,0.7-3c0.6,0.1,1,0.3,1.2,0.7c-0.3,0.8-0.5,1.5-0.5,2.3c0,0.7,0.1,1.2,0.4,1.7c0.3,0.5,0.6,0.9,1.1,1.2
		c0.5,0.3,1,0.5,1.6,0.7c0.6,0.2,1.3,0.2,2.1,0.3c-1-1-1.5-2.1-1.5-3.4c0-1.3,0.4-2.3,1.2-3.1c0.8-0.7,2-1.1,3.5-1.1
		c0.7,0,1.4,0.1,2.1,0.3c0.6,0.2,1.2,0.5,1.6,0.9c0.5,0.4,0.8,0.9,1.1,1.4c0.3,0.6,0.4,1.2,0.4,1.8
		C318.7,216.2,318.2,217.3,317.4,218z M310.2,214.8c0,0.5,0.1,1.1,0.4,1.6c0.3,0.6,0.7,1.1,1.2,1.5h0.4c0.8,0,1.5-0.1,2.1-0.2
		c0.6-0.1,1.2-0.3,1.6-0.6c0.4-0.3,0.8-0.6,1-1c0.2-0.4,0.4-0.8,0.4-1.4c0-0.8-0.3-1.5-1-2c-0.6-0.5-1.5-0.7-2.6-0.7
		C311.4,212.1,310.2,213,310.2,214.8z"/>
	<path class="st5" d="M318.3,207.5c-0.2,0.1-0.5,0.2-1,0.2c-0.3,0-0.6,0-0.7-0.1c-0.2-0.1-0.3-0.2-0.4-0.3c-0.1-0.1-0.1-0.3-0.1-0.4
		c0-0.2,0-0.3,0-0.5c0-0.2,0-0.4,0-0.5c0-0.2,0.1-0.3,0.1-0.4c0.1-0.1,0.2-0.2,0.4-0.3c0.2-0.1,0.4-0.1,0.7-0.1c0.3,0,0.5,0,0.7,0.1
		c0.2,0,0.3,0.1,0.4,0.2c0.1,0.1,0.1,0.2,0.1,0.4c0,0.2,0,0.4,0,0.6C318.5,206.8,318.5,207.2,318.3,207.5z"/>
	<path class="st5" d="M303.9,193.9c0.3-0.1,0.5-0.1,0.7-0.1c0.5,0,0.8,0.3,0.8,0.8v4c0,0.3,0,0.5,0,0.7c0,0.2,0,0.4,0,0.5h1.4
		l2.6,0.2c-0.4-0.8-0.6-1.6-0.6-2.4c0-1.3,0.4-2.4,1.2-3.2c0.8-0.8,2-1.2,3.6-1.2c0.8,0,1.5,0.1,2.1,0.4c0.6,0.2,1.2,0.6,1.6,1.1
		c0.4,0.5,0.8,1,1,1.6c0.2,0.6,0.4,1.3,0.4,2c0,1.5-0.4,2.8-1.3,3.9c-0.5-0.1-0.9-0.3-1.2-0.8c0.4-0.6,0.7-1.1,0.8-1.6
		c0.2-0.5,0.3-1,0.3-1.5c0-0.9-0.3-1.7-1-2.3c-0.6-0.6-1.6-0.9-2.7-0.9c-0.6,0-1.1,0.1-1.6,0.2c-0.4,0.2-0.8,0.4-1,0.7
		c-0.3,0.3-0.4,0.6-0.6,1c-0.1,0.4-0.2,0.8-0.2,1.3c0,0.9,0.4,1.8,1.1,2.7c0,0.3-0.2,0.6-0.6,0.8l-6.7-0.3l-0.1-0.1V193.9z"/>
	<path class="st5" d="M303.7,183.8c0.7-0.7,1.9-1.1,3.5-1.1c1.5,0,2.6,0.3,3.4,0.9c0.7,0.6,1.1,1.4,1.1,2.5c0,1-0.4,1.8-1.1,2.4
		c-0.7,0.6-1.8,0.9-3.4,0.9c-1.5,0-2.6-0.3-3.3-0.9c-0.7-0.6-1.1-1.4-1.1-2.5C302.8,185.1,303.1,184.4,303.7,183.8z M318.4,186
		l-15.3-8.4c-0.1-0.2-0.1-0.5-0.1-0.8c0-0.2,0-0.3,0-0.5c0-0.1,0-0.3,0.1-0.4l15.3,8.4c0,0.1,0.1,0.2,0.1,0.4c0,0.1,0,0.3,0,0.5
		c0,0.2,0,0.3,0,0.5C318.5,185.8,318.4,185.9,318.4,186z M304,186.1c0,1.2,1.1,1.8,3.3,1.8c2.2,0,3.2-0.6,3.2-1.8
		c0-1.2-1.1-1.8-3.2-1.8C305.1,184.3,304,184.9,304,186.1z M317.8,173.5c0.6,0.6,0.9,1.4,0.9,2.3c0,1-0.4,1.9-1.1,2.5
		c-0.7,0.6-1.8,0.9-3.4,0.9c-1.5,0-2.6-0.3-3.3-0.9c-0.7-0.6-1.1-1.4-1.1-2.5s0.4-1.9,1.1-2.5c0.7-0.6,1.8-0.9,3.3-0.9
		C315.8,172.4,317,172.8,317.8,173.5z M311,175.8c0,1.2,1.1,1.8,3.3,1.8c2.2,0,3.2-0.6,3.2-1.8c0-1.2-1.1-1.8-3.2-1.8
		C312,174,311,174.6,311,175.8z"/>
</g>
<g>
	<path class="st5" d="M236.1,264.9c0.1-0.3,0.3-0.5,0.7-0.6c0.2,0.1,0.3,0.3,0.4,0.5c-0.2,0.2-0.3,0.7-0.3,1.3v3.9
		c0,0.6-0.1,1.1-0.2,1.5c-0.1,0.4-0.3,0.7-0.4,1c-0.2,0.3-0.4,0.4-0.7,0.6c-0.3,0.1-0.6,0.2-1,0.2c-0.8,0-1.5-0.1-2.1-0.4
		c0-0.3,0.1-0.5,0.3-0.7c0.6,0.3,1.1,0.4,1.7,0.4c0.3,0,0.6,0,0.8-0.1c0.2-0.1,0.4-0.2,0.5-0.4c0.1-0.2,0.2-0.4,0.3-0.6
		c0-0.2,0.1-0.5,0.1-0.8v-0.7c-0.5,0.5-1.1,0.8-1.8,0.8c-0.7,0-1.2-0.3-1.5-0.8c-0.4-0.6-0.5-1.3-0.5-2.3c0-0.5,0.1-0.9,0.2-1.3
		c0.1-0.4,0.3-0.7,0.5-1c0.2-0.3,0.5-0.5,0.7-0.6c0.3-0.1,0.6-0.2,0.9-0.2C235.1,264.2,235.6,264.4,236.1,264.9z M236,268.8v-3.2
		c-0.2-0.2-0.5-0.4-0.7-0.5c-0.2-0.1-0.5-0.2-0.7-0.2c-0.5,0-0.8,0.2-1.1,0.6c-0.3,0.4-0.4,1-0.4,1.8c0,0.8,0.1,1.4,0.4,1.8
		c0.2,0.4,0.5,0.6,0.9,0.6c0.3,0,0.7-0.1,1-0.3C235.5,269.3,235.8,269.1,236,268.8z"/>
	<path class="st5" d="M238.7,264.8c0.1-0.2,0.2-0.4,0.4-0.5c0.5,0.2,0.8,0.5,0.9,1.1c0.3-0.7,0.9-1.1,1.6-1.1c0.2,0,0.4,0,0.6,0
		c0,0.4-0.1,0.6-0.2,0.9c-0.1,0-0.2,0-0.4,0c-0.7,0-1.2,0.4-1.5,1.1v4.1c-0.1,0-0.3,0-0.5,0c-0.2,0-0.3,0-0.5,0V266
		C239.1,265.5,239,265.1,238.7,264.8z"/>
	<path class="st5" d="M246.2,262.5c0.1-0.1,0.3-0.1,0.5-0.1c0.3,0,0.4,0.1,0.5,0.2c0.1,0.1,0.1,0.2,0.1,0.4c0,0.2,0,0.3-0.1,0.4
		c-0.1,0.1-0.2,0.1-0.5,0.1c-0.1,0-0.2,0-0.3,0c-0.1,0-0.1-0.1-0.2-0.1s-0.1-0.1-0.1-0.2c0-0.1,0-0.1,0-0.2
		C246.1,262.8,246.1,262.7,246.2,262.5z M244,262.5c0.1,0,0.1-0.1,0.2-0.1c0.1,0,0.2,0,0.3,0c0.2,0,0.4,0,0.5,0.1
		c0,0.1,0,0.1,0.1,0.2c0,0.1,0,0.1,0,0.2c0,0.2,0,0.3-0.1,0.4c-0.1,0.1-0.2,0.1-0.5,0.1c-0.1,0-0.2,0-0.3,0c-0.1,0-0.1-0.1-0.2-0.1
		c0,0-0.1-0.1-0.1-0.2c0-0.1,0-0.1,0-0.2C243.9,262.8,244,262.7,244,262.5z M243.3,268.6v-3.1c0-0.4,0-0.8-0.1-1
		c0.1-0.1,0.3-0.2,0.6-0.2c0.3,0,0.5,0.2,0.5,0.6v3.4c0,0.5,0.1,0.9,0.2,1.1c0.1,0.2,0.4,0.3,0.7,0.3c0.3,0,0.7-0.1,1-0.3
		c0.4-0.2,0.6-0.4,0.9-0.7v-4.4c0,0,0.1,0,0.2,0c0.1,0,0.2,0,0.3,0s0.2,0,0.3,0s0.1,0,0.2,0v4.3c0,0.7,0.1,1.1,0.3,1.3
		c-0.1,0.2-0.2,0.4-0.4,0.5c-0.4-0.1-0.7-0.4-0.8-0.9c-0.3,0.3-0.6,0.5-1,0.7s-0.8,0.3-1.2,0.3c-0.6,0-1-0.2-1.2-0.5
		C243.4,269.6,243.3,269.2,243.3,268.6z"/>
	<path class="st5" d="M254.7,266.2v3.1c0,0.5,0,0.8,0.1,1c-0.1,0.1-0.3,0.2-0.6,0.2c-0.3,0-0.5-0.2-0.5-0.6v-3.4
		c0-0.5-0.1-0.9-0.2-1.1c-0.1-0.2-0.4-0.3-0.7-0.3c-0.3,0-0.7,0.1-1,0.3c-0.4,0.2-0.6,0.4-0.9,0.7v4.4c-0.1,0-0.3,0-0.5,0
		s-0.3,0-0.5,0v-6l0.1-0.1h0.3c0.2,0,0.3,0.1,0.4,0.2c0.1,0.1,0.1,0.3,0.1,0.5v0.2c0.3-0.3,0.6-0.5,1-0.6c0.4-0.2,0.8-0.2,1.1-0.2
		c0.6,0,1,0.2,1.2,0.5C254.6,265.1,254.7,265.6,254.7,266.2z"/>
	<path class="st5" d="M261.1,267.7h-3.8c0,1.4,0.6,2.1,1.6,2.1c0.6,0,1.2-0.2,1.8-0.5c0.2,0.2,0.3,0.4,0.3,0.6
		c-0.7,0.5-1.4,0.7-2.3,0.7c-0.4,0-0.8-0.1-1.1-0.2c-0.3-0.2-0.6-0.4-0.7-0.7c-0.2-0.3-0.3-0.6-0.4-1c-0.1-0.4-0.1-0.8-0.1-1.3
		c0-0.5,0.1-0.9,0.2-1.3c0.1-0.4,0.3-0.7,0.5-1c0.2-0.3,0.5-0.5,0.8-0.7c0.3-0.2,0.6-0.2,1-0.2c0.4,0,0.7,0.1,1,0.2s0.6,0.3,0.8,0.6
		c0.2,0.2,0.4,0.5,0.5,0.8c0.1,0.3,0.2,0.7,0.2,1c0,0.1,0,0.3,0,0.4C261.2,267.4,261.2,267.5,261.1,267.7z M257.3,267h2.9v-0.2
		c0-0.6-0.1-1-0.4-1.4c-0.2-0.3-0.6-0.5-1.1-0.5c-0.5,0-0.8,0.2-1.1,0.6C257.5,265.8,257.4,266.3,257.3,267z"/>
	<path class="st5" d="M262.7,264.8c0.1-0.2,0.2-0.4,0.4-0.5c0.5,0.2,0.8,0.5,0.9,1.1c0.3-0.7,0.9-1.1,1.6-1.1c0.2,0,0.4,0,0.6,0
		c0,0.4-0.1,0.6-0.2,0.9c-0.1,0-0.2,0-0.4,0c-0.7,0-1.2,0.4-1.5,1.1v4.1c-0.1,0-0.3,0-0.5,0c-0.2,0-0.3,0-0.5,0V266
		C263.1,265.5,263,265.1,262.7,264.8z"/>
	<path class="st5" d="M270.3,270.4L270.3,270.4l-0.1-8.3l0.1-0.1l2.4,0c0.9,0,1.6,0.2,2,0.6c0.4,0.4,0.6,0.9,0.6,1.6
		c0,0.4-0.1,0.8-0.3,1.1s-0.5,0.5-0.9,0.7c0.2,0.1,0.4,0.2,0.6,0.3c0.2,0.1,0.4,0.3,0.5,0.5c0.1,0.2,0.3,0.4,0.3,0.7
		c0.1,0.3,0.1,0.5,0.1,0.8c0,0.3-0.1,0.6-0.2,0.8c-0.1,0.3-0.3,0.5-0.5,0.7c-0.2,0.2-0.5,0.4-0.9,0.5c-0.4,0.1-0.8,0.2-1.3,0.2
		L270.3,270.4z M271.1,262.7v2.9h1.5c0.3,0,0.6,0,0.8-0.1c0.2-0.1,0.4-0.2,0.5-0.3c0.1-0.1,0.2-0.3,0.3-0.5c0.1-0.2,0.1-0.4,0.1-0.6
		c0-0.9-0.5-1.4-1.6-1.4c-0.4,0-0.7,0-0.9,0S271.3,262.7,271.1,262.7z M271.1,269.7l1.7,0c0.3,0,0.6,0,0.9-0.1
		c0.2-0.1,0.4-0.2,0.5-0.4c0.1-0.1,0.2-0.3,0.3-0.5s0.1-0.4,0.1-0.6c0-0.2,0-0.4-0.1-0.6c-0.1-0.2-0.2-0.4-0.3-0.5
		c-0.1-0.2-0.3-0.3-0.6-0.4c-0.2-0.1-0.5-0.2-0.9-0.2h-1.6V269.7z"/>
	<path class="st5" d="M281.8,267.7H278c0,1.4,0.6,2.1,1.6,2.1c0.6,0,1.2-0.2,1.8-0.5c0.2,0.2,0.3,0.4,0.3,0.6
		c-0.7,0.5-1.4,0.7-2.3,0.7c-0.4,0-0.8-0.1-1.1-0.2c-0.3-0.2-0.6-0.4-0.7-0.7c-0.2-0.3-0.3-0.6-0.4-1c-0.1-0.4-0.1-0.8-0.1-1.3
		c0-0.5,0.1-0.9,0.2-1.3c0.1-0.4,0.3-0.7,0.5-1c0.2-0.3,0.5-0.5,0.8-0.7c0.3-0.2,0.6-0.2,1-0.2c0.4,0,0.7,0.1,1,0.2
		c0.3,0.1,0.6,0.3,0.8,0.6c0.2,0.2,0.4,0.5,0.5,0.8c0.1,0.3,0.2,0.7,0.2,1c0,0.1,0,0.3,0,0.4C281.8,267.4,281.8,267.5,281.8,267.7z
		 M278,267h2.9v-0.2c0-0.6-0.1-1-0.4-1.4c-0.2-0.3-0.6-0.5-1.1-0.5c-0.5,0-0.8,0.2-1.1,0.6C278.1,265.8,278,266.3,278,267z"/>
	<path class="st5" d="M283.3,264.8c0.1-0.2,0.2-0.4,0.4-0.5c0.5,0.2,0.8,0.5,0.9,1.1c0.3-0.7,0.9-1.1,1.6-1.1c0.2,0,0.4,0,0.6,0
		c0,0.4-0.1,0.6-0.2,0.9c-0.1,0-0.2,0-0.4,0c-0.7,0-1.2,0.4-1.5,1.1v4.1c-0.1,0-0.3,0-0.5,0c-0.2,0-0.3,0-0.5,0V266
		C283.7,265.5,283.6,265.1,283.3,264.8z"/>
	<path class="st5" d="M292.1,267.7h-3.8c0,1.4,0.6,2.1,1.6,2.1c0.6,0,1.2-0.2,1.8-0.5c0.2,0.2,0.3,0.4,0.3,0.6
		c-0.7,0.5-1.4,0.7-2.3,0.7c-0.4,0-0.8-0.1-1.1-0.2c-0.3-0.2-0.6-0.4-0.7-0.7c-0.2-0.3-0.3-0.6-0.4-1c-0.1-0.4-0.1-0.8-0.1-1.3
		c0-0.5,0.1-0.9,0.2-1.3c0.1-0.4,0.3-0.7,0.5-1c0.2-0.3,0.5-0.5,0.8-0.7c0.3-0.2,0.6-0.2,1-0.2c0.4,0,0.7,0.1,1,0.2s0.6,0.3,0.8,0.6
		c0.2,0.2,0.4,0.5,0.5,0.8c0.1,0.3,0.2,0.7,0.2,1c0,0.1,0,0.3,0,0.4C292.1,267.4,292.1,267.5,292.1,267.7z M288.2,267h2.9v-0.2
		c0-0.6-0.1-1-0.4-1.4c-0.2-0.3-0.6-0.5-1.1-0.5c-0.5,0-0.8,0.2-1.1,0.6C288.4,265.8,288.3,266.3,288.2,267z"/>
	<path class="st5" d="M293.7,262.2c0.1-0.1,0.3-0.1,0.6-0.1c0.2,0,0.4,0,0.5,0.1c0.1,0.1,0.1,0.2,0.1,0.5c0,0.2,0,0.4-0.1,0.5
		c-0.1,0.1-0.3,0.1-0.5,0.1c-0.2,0-0.4,0-0.5-0.1c-0.1-0.1-0.2-0.2-0.2-0.5C293.6,262.5,293.7,262.4,293.7,262.2z M294.9,265.2v5.2
		c-0.1,0-0.3,0-0.5,0s-0.3,0-0.5,0v-4.8c0-0.2,0-0.4-0.1-0.5s-0.2-0.1-0.4-0.1h-0.1c0-0.1,0-0.2,0-0.3c0-0.1,0-0.2,0-0.3
		c0.2,0,0.3,0,0.4,0s0.2,0,0.2,0h0.1c0.3,0,0.5,0.1,0.6,0.2C294.8,264.7,294.9,264.9,294.9,265.2z"/>
	<path class="st5" d="M300.3,266.5v-0.1c0-0.2,0-0.4-0.1-0.5c0-0.2-0.1-0.3-0.2-0.5c-0.1-0.1-0.2-0.2-0.4-0.3
		c-0.2-0.1-0.4-0.1-0.6-0.1c-0.5,0-0.8,0.2-1.1,0.6c-0.3,0.4-0.4,1-0.4,1.8c0,0.8,0.1,1.4,0.4,1.8c0.3,0.4,0.6,0.6,1.1,0.6
		c0.5,0,1-0.2,1.7-0.7c0.2,0.1,0.4,0.3,0.4,0.6c-0.6,0.6-1.3,0.9-2.1,0.9c-0.4,0-0.7-0.1-1-0.2c-0.3-0.2-0.5-0.4-0.8-0.6
		c-0.2-0.3-0.4-0.6-0.5-0.9c-0.1-0.4-0.2-0.8-0.2-1.2c0-0.6,0.1-1.1,0.2-1.5c0.1-0.4,0.3-0.8,0.5-1c0.2-0.3,0.5-0.5,0.8-0.6
		s0.6-0.2,1-0.2c0.4,0,0.7,0.1,0.9,0.2c0.3,0.1,0.5,0.3,0.7,0.4c0.2,0.2,0.3,0.4,0.4,0.6c0.1,0.2,0.1,0.4,0.1,0.6
		c0,0.4-0.2,0.6-0.5,0.6C300.6,266.5,300.5,266.5,300.3,266.5z"/>
	<path class="st5" d="M307.4,266.2v3c0,0.5,0,0.8,0.1,1c-0.1,0.1-0.3,0.2-0.6,0.2c-0.3,0-0.5-0.2-0.5-0.6v-3.4
		c0-0.5-0.1-0.9-0.2-1.1c-0.1-0.2-0.4-0.3-0.7-0.3s-0.7,0.1-1,0.3c-0.4,0.2-0.6,0.4-0.9,0.7v4.4c-0.1,0-0.3,0-0.5,0
		c-0.2,0-0.3,0-0.4,0v-9l0.1-0.1h0.3c0.2,0,0.3,0,0.4,0.1s0.1,0.3,0.1,0.5v3.2c0.3-0.3,0.6-0.5,1-0.6c0.4-0.2,0.8-0.2,1.1-0.2
		c0.6,0,1,0.2,1.2,0.5C307.3,265.1,307.4,265.6,307.4,266.2z"/>
</g>
</svg>
