<?xml version="1.0" encoding="utf-8"?>
<!-- Generator: Adobe Illustrator 22.0.0, SVG Export Plug-In . SVG Version: 6.00 Build 0)  -->
<svg version="1.1" id="Layer_1" xmlns="http://www.w3.org/2000/svg" xmlns:xlink="http://www.w3.org/1999/xlink" x="0px" y="0px"
	 viewBox="0 0 360 360" style="enable-background:new 0 0 360 360;" xml:space="preserve">
<style type="text/css">
	.st0{opacity:0.1;}
	.st1{fill:#FB3942;}
	.st2{opacity:0.3;}
	.st3{enable-background:new    ;}
	.st4{fill:#FFFFFF;}
	.st5{opacity:0.8;}
	.st6{fill:url(#SVGID_1_);}
</style>
<g class="st0">
	<path class="st1" d="M127.5,67c0-1.6,7-3.5,6.9-5c-0.1-1.6-7.4-2.4-7.6-4c-0.2-1.6,6.5-4.5,6.1-6c-0.4-1.6-7.6-1.3-8.1-2.8
		c-0.5-1.5,5.7-5.4,5.1-6.9c-0.6-1.5-7.7-0.1-8.4-1.5c-0.7-1.4,4.8-6.2,4-7.6c-0.8-1.4-7.7,1.1-8.6-0.3c-0.9-1.3,3.9-6.8,2.9-8.1
		c-1-1.2-7.4,2.2-8.5,1c-1.1-1.2,2.8-7.3,1.6-8.4c-1.2-1.1-7,3.3-8.3,2.3c-1.2-1,1.7-7.7,0.4-8.6c-1.3-0.9-6.5,4.3-7.8,3.5
		c-1.4-0.8,0.5-7.8-0.9-8.5c-1.4-0.7-5.7,5.2-7.2,4.6c-1.5-0.6-0.6-7.8-2.2-8.3c-1.5-0.5-4.9,6-6.5,5.6c-1.5-0.4-1.8-7.6-3.4-7.9
		c-1.6-0.2-3.9,6.7-5.5,6.5C70,6.6,68.6-0.6,67-0.6c-1.6,0-2.9,7.2-4.5,7.3c-1.6,0.1-4-6.8-5.5-6.5c-1.6,0.2-1.8,7.5-3.4,7.9
		C52,8.4,48.6,2,47.1,2.4c-1.5,0.5-0.7,7.7-2.2,8.3c-1.5,0.6-5.8-5.3-7.2-4.6c-1.4,0.7,0.5,7.7-0.9,8.5c-1.4,0.8-6.5-4.4-7.8-3.5
		c-1.3,0.9,1.6,7.6,0.4,8.6c-1.2,1-7.1-3.3-8.3-2.3c-1.2,1.1,2.7,7.2,1.6,8.4c-1.1,1.2-7.5-2.3-8.5-1c-1,1.2,3.8,6.8,2.9,8.1
		c-0.9,1.3-7.8-1.1-8.6,0.3c-0.8,1.4,4.7,6.1,4,7.6c-0.7,1.4-7.8,0.1-8.4,1.5c-0.6,1.5,5.6,5.3,5.1,6.9c-0.5,1.5-7.7,1.2-8.1,2.8
		c-0.4,1.5,6.3,4.4,6.1,6c-0.2,1.6-7.5,2.4-7.6,4c-0.1,1.6,6.9,3.4,6.9,5c0,1.6-7,3.5-6.9,5c0.1,1.6,7.4,2.4,7.6,4
		c0.2,1.6-6.5,4.5-6.1,6c0.4,1.6,7.6,1.3,8.1,2.8c0.5,1.5-5.7,5.4-5.1,6.9c0.6,1.5,7.7,0.1,8.4,1.5c0.7,1.4-4.8,6.2-4,7.6
		c0.8,1.4,7.7-1.1,8.6,0.3c0.9,1.3-3.9,6.8-2.9,8.1c1,1.2,7.4-2.2,8.5-1c1.1,1.2-2.8,7.3-1.6,8.4c1.2,1.1,7-3.3,8.3-2.3
		c1.2,1-1.7,7.7-0.4,8.6c1.3,0.9,6.5-4.3,7.8-3.5c1.4,0.8-0.5,7.8,0.9,8.5c1.4,0.7,5.7-5.2,7.2-4.6c1.5,0.6,0.6,7.8,2.2,8.3
		c1.5,0.5,4.9-6,6.5-5.6c1.5,0.4,1.8,7.6,3.4,7.9c1.6,0.2,3.9-6.7,5.5-6.5c1.6,0.1,2.9,7.3,4.5,7.3c1.6,0,2.9-7.2,4.5-7.3
		c1.6-0.1,4,6.8,5.5,6.5c1.6-0.2,1.8-7.5,3.4-7.9c1.6-0.4,4.9,6.1,6.5,5.6c1.5-0.5,0.7-7.7,2.2-8.3c1.5-0.6,5.8,5.3,7.2,4.6
		c1.4-0.7-0.5-7.7,0.9-8.5c1.4-0.8,6.5,4.4,7.8,3.5c1.3-0.9-1.6-7.6-0.4-8.6c1.2-1,7.1,3.3,8.3,2.3c1.2-1.1-2.7-7.2-1.6-8.4
		c1.1-1.2,7.5,2.3,8.5,1c1-1.2-3.8-6.8-2.9-8.1c0.9-1.3,7.8,1.1,8.6-0.3c0.8-1.4-4.7-6.1-4-7.6c0.7-1.4,7.8-0.1,8.4-1.5
		c0.6-1.5-5.6-5.3-5.1-6.9c0.5-1.5,7.7-1.2,8.1-2.8c0.4-1.5-6.3-4.4-6.1-6c0.2-1.6,7.5-2.4,7.6-4C134.5,70.5,127.5,68.6,127.5,67z"
		/>
</g>
<g class="st2">
	<path class="st1" d="M109.7,67c0-1.2,7.1-2.6,7-3.7c-0.1-1.2-7.3-1.5-7.4-2.6c-0.2-1.1,6.6-3.6,6.3-4.7c-0.3-1.1-7.4-0.4-7.8-1.5
		c-0.3-1.1,6-4.5,5.6-5.6c-0.4-1.1-7.4,0.7-7.9-0.3c-0.5-1,5.2-5.4,4.7-6.4c-0.6-1-7.2,1.8-7.9,0.9c-0.7-1,4.4-6.1,3.7-7
		c-0.7-0.9-6.9,2.9-7.6,2c-0.8-0.8,3.4-6.7,2.6-7.5c-0.8-0.8-6.4,3.8-7.3,3.1c-0.9-0.7,2.4-7.1,1.4-7.8c-1-0.6-5.7,4.8-6.7,4.2
		c-1-0.6,1.3-7.4,0.3-7.9c-1-0.5-4.9,5.6-6,5.1c-1.1-0.4,0.2-7.5-0.9-7.9c-1.1-0.3-4,6.2-5.2,6c-1.1-0.3-0.9-7.5-2.1-7.6
		c-1.1-0.2-3.1,6.8-4.2,6.7c-1.1-0.1-2-7.2-3.2-7.2c-1.2,0-2.1,7.1-3.2,7.2c-1.2,0.1-3.1-6.9-4.2-6.7c-1.1,0.2-1,7.4-2.1,7.6
		c-1.1,0.3-4.1-6.3-5.2-6c-1.1,0.3,0.2,7.4-0.9,7.9c-1.1,0.4-5-5.6-6-5.1c-1,0.5,1.3,7.3,0.3,7.9c-1,0.6-5.8-4.8-6.7-4.2
		c-1,0.7,2.3,7.1,1.4,7.8c-0.9,0.7-6.4-3.9-7.3-3.1c-0.8,0.8,3.4,6.6,2.6,7.5c-0.8,0.8-6.9-2.9-7.6-2c-0.7,0.9,4.3,6.1,3.7,7
		c-0.6,1-7.3-1.9-7.9-0.9c-0.6,1,5.2,5.3,4.7,6.4c-0.5,1-7.5-0.8-7.9,0.3c-0.4,1.1,5.9,4.5,5.6,5.6c-0.3,1.1-7.5,0.4-7.8,1.5
		c-0.3,1.1,6.5,3.6,6.3,4.7c-0.2,1.1-7.4,1.5-7.4,2.6c-0.1,1.1,7,2.6,7,3.7c0,1.2-7.1,2.6-7,3.7c0.1,1.2,7.3,1.5,7.4,2.6
		c0.2,1.1-6.6,3.6-6.3,4.7c0.3,1.1,7.4,0.4,7.8,1.5c0.3,1.1-6,4.5-5.6,5.6c0.4,1.1,7.4-0.7,7.9,0.3c0.5,1-5.2,5.4-4.7,6.4
		c0.6,1,7.2-1.8,7.9-0.9c0.7,1-4.4,6.1-3.7,7c0.7,0.9,6.9-2.9,7.6-2c0.8,0.8-3.4,6.7-2.6,7.5c0.8,0.8,6.4-3.8,7.3-3.1
		c0.9,0.7-2.4,7.1-1.4,7.8c1,0.6,5.7-4.8,6.7-4.2c1,0.6-1.3,7.4-0.3,7.9c1,0.5,4.9-5.6,6-5.1c1.1,0.4-0.2,7.5,0.9,7.9
		c1.1,0.3,4-6.2,5.2-6c1.1,0.3,0.9,7.5,2.1,7.6c1.1,0.2,3.1-6.8,4.2-6.7c1.1,0.1,2,7.2,3.2,7.2c1.2,0,2.1-7.1,3.2-7.2
		c1.2-0.1,3.1,6.9,4.2,6.7c1.1-0.2,1-7.4,2.1-7.6c1.1-0.3,4.1,6.3,5.2,6c1.1-0.3-0.2-7.4,0.9-7.9c1.1-0.4,5,5.6,6,5.1
		c1-0.5-1.3-7.3-0.3-7.9c1-0.6,5.8,4.8,6.7,4.2c1-0.7-2.3-7.1-1.4-7.8c0.9-0.7,6.4,3.9,7.3,3.1c0.8-0.8-3.4-6.6-2.6-7.5
		c0.8-0.8,6.9,2.9,7.6,2c0.7-0.9-4.3-6.1-3.7-7c0.6-1,7.3,1.9,7.9,0.9c0.6-1-5.2-5.3-4.7-6.4c0.5-1,7.5,0.8,7.9-0.3
		c0.4-1.1-5.9-4.5-5.6-5.6c0.3-1.1,7.5-0.4,7.8-1.5c0.3-1.1-6.5-3.6-6.3-4.7c0.2-1.1,7.4-1.5,7.4-2.6
		C116.8,69.6,109.7,68.2,109.7,67z"/>
</g>
<g>
	<path class="st1" d="M91.9,67c0-0.7,7.1-1.7,7-2.4c-0.1-0.7-7.2-0.6-7.3-1.3c-0.1-0.7,6.7-2.7,6.6-3.4c-0.2-0.7-7.2,0.5-7.4-0.2
		c-0.2-0.7,6.3-3.7,6-4.4c-0.3-0.7-7.1,1.5-7.4,0.9c-0.3-0.6,5.6-4.6,5.3-5.2c-0.4-0.6-6.8,2.6-7.2,2c-0.4-0.6,4.9-5.4,4.5-5.9
		c-0.4-0.6-6.3,3.5-6.8,3c-0.5-0.5,4-6,3.5-6.5c-0.5-0.5-5.7,4.4-6.3,4c-0.6-0.4,3.1-6.6,2.5-7c-0.6-0.4-5,5.2-5.6,4.9
		c-0.6-0.4,2.1-7,1.4-7.3c-0.6-0.3-4.1,5.9-4.8,5.7c-0.7-0.3,1-7.2,0.3-7.4c-0.7-0.2-3.2,6.5-3.9,6.3c-0.7-0.2-0.1-7.3-0.8-7.4
		c-0.7-0.1-2.2,6.9-2.9,6.8C68.2,42.1,67.7,35,67,35c-0.7,0-1.2,7.1-1.9,7.2c-0.7,0.1-2.2-6.9-2.9-6.8c-0.7,0.1-0.1,7.2-0.8,7.4
		c-0.7,0.2-3.2-6.5-3.9-6.3c-0.7,0.2,1,7.2,0.3,7.4c-0.7,0.3-4.2-6-4.8-5.7c-0.6,0.3,2.1,6.9,1.4,7.3c-0.6,0.4-5-5.3-5.6-4.9
		c-0.6,0.4,3.1,6.5,2.5,7c-0.6,0.4-5.7-4.5-6.3-4c-0.5,0.5,4,6,3.5,6.5c-0.5,0.5-6.3-3.6-6.8-3c-0.4,0.6,4.9,5.4,4.5,5.9
		c-0.4,0.6-6.8-2.6-7.2-2c-0.4,0.6,5.6,4.6,5.3,5.2c-0.3,0.6-7.1-1.6-7.4-0.9c-0.3,0.7,6.2,3.7,6,4.4c-0.2,0.7-7.3-0.5-7.4,0.2
		c-0.2,0.7,6.7,2.7,6.6,3.4c-0.1,0.7-7.2,0.6-7.3,1.3c-0.1,0.7,7,1.7,7,2.4c0,0.7-7.1,1.7-7,2.4c0.1,0.7,7.2,0.6,7.3,1.3
		c0.1,0.7-6.7,2.7-6.6,3.4c0.2,0.7,7.2-0.5,7.4,0.2c0.2,0.7-6.3,3.7-6,4.4c0.3,0.7,7.1-1.5,7.4-0.9c0.3,0.6-5.6,4.6-5.3,5.2
		c0.4,0.6,6.8-2.6,7.2-2c0.4,0.6-4.9,5.4-4.5,5.9c0.4,0.6,6.3-3.5,6.8-3c0.5,0.5-4,6-3.5,6.5c0.5,0.5,5.7-4.4,6.3-4
		c0.6,0.4-3.1,6.6-2.5,7c0.6,0.4,5-5.2,5.6-4.9c0.6,0.4-2.1,7-1.4,7.3c0.6,0.3,4.1-5.9,4.8-5.7c0.7,0.3-1,7.2-0.3,7.4
		c0.7,0.2,3.2-6.5,3.9-6.3c0.7,0.2,0.1,7.3,0.8,7.4c0.7,0.1,2.2-6.9,2.9-6.8c0.7,0.1,1.1,7.2,1.9,7.2c0.7,0,1.2-7.1,1.9-7.2
		c0.7-0.1,2.2,6.9,2.9,6.8c0.7-0.1,0.1-7.2,0.8-7.4c0.7-0.2,3.2,6.5,3.9,6.3c0.7-0.2-1-7.2-0.3-7.4c0.7-0.3,4.2,6,4.8,5.7
		c0.6-0.3-2.1-6.9-1.4-7.3c0.6-0.4,5,5.3,5.6,4.9c0.6-0.4-3.1-6.5-2.5-7c0.6-0.4,5.7,4.5,6.3,4c0.5-0.5-4-6-3.5-6.5
		c0.5-0.5,6.3,3.6,6.8,3c0.4-0.6-4.9-5.4-4.5-5.9c0.4-0.6,6.8,2.6,7.2,2c0.4-0.6-5.6-4.6-5.3-5.2c0.3-0.6,7.1,1.6,7.4,0.9
		c0.3-0.7-6.2-3.7-6-4.4c0.2-0.7,7.3,0.5,7.4-0.2c0.2-0.7-6.7-2.7-6.6-3.4c0.1-0.7,7.2-0.6,7.3-1.3C99,68.7,91.9,67.7,91.9,67z"/>
</g>
<g class="st3">
	<path class="st4" d="M63.6,59.4c0.1,0.3,0.1,0.6,0.1,0.9c0,0.7-0.3,1-1,1h-4.5v1.1l-0.1,2.1c0.6-0.3,1.2-0.4,1.9-0.4
		c1.3,0,2.4,0.4,3.2,1.2c0.8,0.8,1.2,1.9,1.2,3.5c0,0.7-0.1,1.4-0.4,2c-0.3,0.6-0.6,1.1-1.1,1.5c-0.4,0.4-1,0.7-1.6,1
		c-0.6,0.2-1.2,0.3-1.9,0.3c-1.6,0-3-0.5-4-1.4c0-0.2,0.2-0.5,0.3-0.8c0.2-0.3,0.4-0.5,0.6-0.7c0.5,0.4,1,0.6,1.5,0.8
		c0.5,0.2,0.9,0.2,1.4,0.2c0.8,0,1.5-0.3,2-0.8c0.5-0.6,0.8-1.3,0.8-2.3c0-0.5-0.1-0.9-0.2-1.3c-0.1-0.4-0.3-0.7-0.6-0.9
		c-0.3-0.2-0.5-0.4-0.8-0.5c-0.3-0.1-0.6-0.2-1-0.2c-0.4,0-0.8,0.1-1.2,0.2c-0.4,0.1-0.8,0.4-1.2,0.7c-0.2,0-0.4-0.1-0.6-0.3
		c-0.2-0.2-0.4-0.3-0.5-0.5l0.3-6.4l0.1-0.2H63.6z"/>
	<path class="st4" d="M73.5,65.5l3.3,0c1.1,0,1.6,0.5,1.6,1.5v5.6c-1.6,0.6-3.4,0.9-5.3,0.9c-1.1,0-2-0.2-2.8-0.6s-1.4-0.9-1.9-1.6
		c-0.9-1.4-1.3-3.1-1.3-5.2c0-1.3,0.2-2.5,0.5-3.5c0.4-1,0.8-1.8,1.5-2.4c1.2-1.2,2.7-1.8,4.3-1.8c1.9,0,3.6,0.5,5,1.6
		c-0.1,0.7-0.5,1.3-1.1,1.7c-1.2-0.9-2.5-1.3-3.9-1.3c-1.2,0-2.1,0.5-2.9,1.4c-0.7,0.9-1.1,2.4-1.1,4.4c0,3.7,1.4,5.6,4.1,5.6
		c1,0,1.9-0.1,2.7-0.4v-2.4c0-0.6,0-1.1,0-1.4h-1.9c-0.7,0-1.1-0.3-1.1-1C73.4,66.1,73.4,65.8,73.5,65.5z"/>
</g>
<g class="st0">
	<path class="st1" d="M353.5,88c0-2.1,7-4.5,6.8-6.6c-0.2-2.1-7.4-3.5-7.7-5.5c-0.3-2.1,6.2-5.5,5.8-7.6c-0.5-2.1-7.9-2.3-8.5-4.3
		c-0.6-2,5.4-6.4,4.6-8.3c-0.8-2-8.1-1.1-9-3c-0.9-1.9,4.3-7.1,3.3-8.9c-1.1-1.8-8.2,0.1-9.4-1.6c-1.2-1.8,3.2-7.7,1.9-9.3
		c-1.3-1.7-8.1,1.4-9.5-0.2c-1.4-1.6,2.1-8.1,0.5-9.5c-1.6-1.4-7.8,2.5-9.4,1.2c-1.7-1.3,0.8-8.3-0.9-9.5c-1.7-1.2-7.3,3.7-9.2,2.6
		c-1.8-1.1-0.4-8.3-2.3-9.2c-1.9-0.9-6.7,4.7-8.7,3.9c-2-0.8-1.6-8.2-3.7-8.8c-2-0.6-5.9,5.7-8,5.2c-2.1-0.5-2.8-7.8-4.9-8.1
		c-2.1-0.3-5,6.5-7.1,6.3c-2.1-0.2-4-7.3-6.1-7.3s-4,7.2-6.1,7.3c-2.1,0.2-5-6.6-7.1-6.3c-2.1,0.3-2.9,7.7-4.9,8.1
		c-2.1,0.5-6-5.8-8-5.2c-2,0.6-1.7,8-3.7,8.8c-2,0.8-6.8-4.9-8.7-3.9c-1.9,0.9-0.5,8.2-2.3,9.2c-1.8,1.1-7.4-3.8-9.2-2.6
		c-1.8,1.2,0.8,8.1-0.9,9.5c-1.7,1.3-7.9-2.7-9.4-1.2c-1.6,1.4,2,7.9,0.5,9.5c-1.4,1.6-8.2-1.5-9.5,0.2c-1.3,1.7,3.1,7.6,1.9,9.3
		c-1.2,1.7-8.3-0.2-9.4,1.6c-1.1,1.8,4.2,7,3.3,8.9c-0.9,1.9-8.3,1-9,3c-0.8,2,5.2,6.3,4.6,8.3c-0.6,2-8,2.2-8.5,4.3
		c-0.5,2.1,6.1,5.4,5.8,7.6c-0.3,2.1-7.6,3.4-7.7,5.5c-0.2,2.1,6.8,4.5,6.8,6.6s-7,4.5-6.8,6.6c0.2,2.1,7.4,3.5,7.7,5.5
		c0.3,2.1-6.2,5.5-5.8,7.6c0.5,2.1,7.9,2.3,8.5,4.3c0.6,2-5.4,6.4-4.6,8.3c0.8,2,8.1,1.1,9,3c0.9,1.9-4.3,7.1-3.3,8.9
		c1.1,1.8,8.2-0.1,9.4,1.6c1.2,1.8-3.2,7.7-1.9,9.3c1.3,1.7,8.1-1.4,9.5,0.2c1.4,1.6-2.1,8.1-0.5,9.5c1.6,1.4,7.8-2.5,9.4-1.2
		c1.7,1.3-0.8,8.3,0.9,9.5c1.7,1.2,7.3-3.7,9.2-2.6c1.8,1.1,0.4,8.3,2.3,9.2c1.9,0.9,6.7-4.7,8.7-3.9c2,0.8,1.6,8.2,3.7,8.8
		c2,0.6,5.9-5.7,8-5.2c2.1,0.5,2.8,7.8,4.9,8.1c2.1,0.3,5-6.5,7.1-6.3c2.1,0.2,4,7.3,6.1,7.3s4-7.2,6.1-7.3c2.1-0.2,5,6.6,7.1,6.3
		c2.1-0.3,2.9-7.7,4.9-8.1c2.1-0.5,6,5.8,8,5.2c2-0.6,1.7-8,3.7-8.8c2-0.8,6.8,4.9,8.7,3.9c1.9-0.9,0.5-8.2,2.3-9.2
		c1.8-1.1,7.4,3.8,9.2,2.6c1.8-1.2-0.8-8.1,0.9-9.5c1.7-1.3,7.9,2.7,9.4,1.2c1.6-1.4-2-7.9-0.5-9.5c1.4-1.6,8.2,1.5,9.5-0.2
		c1.3-1.7-3.1-7.6-1.9-9.3c1.2-1.7,8.3,0.2,9.4-1.6c1.1-1.8-4.2-7-3.3-8.9c0.9-1.9,8.3-1,9-3c0.8-2-5.2-6.3-4.6-8.3
		c0.6-2,8-2.2,8.5-4.3c0.5-2.1-6.1-5.4-5.8-7.6c0.3-2.1,7.6-3.4,7.7-5.5C360.5,92.5,353.5,90.1,353.5,88z"/>
</g>
<g class="st2">
	<path class="st1" d="M334.6,88c0-1.7,7-3.6,6.9-5.2c-0.1-1.7-7.3-2.5-7.6-4.1c-0.2-1.6,6.4-4.6,6-6.2c-0.4-1.6-7.6-1.4-8.1-2.9
		c-0.5-1.6,5.6-5.5,5-7c-0.6-1.5-7.8-0.2-8.5-1.7c-0.7-1.5,4.8-6.3,3.9-7.7c-0.8-1.4-7.7,0.9-8.6-0.4c-0.9-1.4,3.8-6.9,2.8-8.2
		c-1-1.3-7.5,2.1-8.6,0.9c-1.1-1.2,2.7-7.4,1.5-8.5c-1.2-1.1-7.1,3.2-8.4,2.1c-1.3-1,1.6-7.7,0.2-8.6c-1.4-0.9-6.5,4.2-8,3.4
		c-1.4-0.8,0.4-7.9-1.1-8.6c-1.5-0.7-5.8,5.1-7.4,4.5c-1.5-0.6-0.7-7.8-2.3-8.3c-1.6-0.5-5,5.9-6.6,5.6c-1.6-0.4-1.9-7.6-3.6-7.9
		c-1.6-0.2-4,6.6-5.7,6.5c-1.6-0.1-3-7.3-4.7-7.3c-1.7,0-3,7.1-4.7,7.3c-1.7,0.1-4.1-6.7-5.7-6.5c-1.6,0.2-2,7.5-3.6,7.9
		c-1.6,0.4-5-6-6.6-5.6c-1.6,0.5-0.8,7.7-2.3,8.3c-1.5,0.6-5.9-5.2-7.4-4.5c-1.5,0.7,0.4,7.7-1.1,8.6c-1.4,0.8-6.6-4.3-8-3.4
		c-1.4,0.9,1.5,7.6,0.2,8.6c-1.3,1-7.2-3.3-8.4-2.1c-1.2,1.1,2.6,7.3,1.5,8.5c-1.1,1.2-7.6-2.2-8.6-0.9c-1,1.3,3.7,6.8,2.8,8.2
		c-0.9,1.4-7.8-1-8.6,0.4c-0.8,1.4,4.7,6.2,3.9,7.7c-0.7,1.5-7.9,0.2-8.5,1.7c-0.6,1.5,5.5,5.4,5,7c-0.5,1.6-7.7,1.3-8.1,2.9
		c-0.4,1.6,6.3,4.5,6,6.2c-0.2,1.6-7.5,2.5-7.6,4.1c-0.1,1.6,6.9,3.5,6.9,5.2c0,1.7-7,3.6-6.9,5.2c0.1,1.7,7.3,2.5,7.6,4.1
		c0.2,1.6-6.4,4.6-6,6.2c0.4,1.6,7.6,1.4,8.1,2.9c0.5,1.6-5.6,5.5-5,7c0.6,1.5,7.8,0.2,8.5,1.7c0.7,1.5-4.8,6.3-3.9,7.7
		c0.8,1.4,7.7-0.9,8.6,0.4c0.9,1.4-3.8,6.9-2.8,8.2c1,1.3,7.5-2.1,8.6-0.9c1.1,1.2-2.7,7.4-1.5,8.5c1.2,1.1,7.1-3.2,8.4-2.1
		c1.3,1-1.6,7.7-0.2,8.6c1.4,0.9,6.5-4.2,8-3.4c1.4,0.8-0.4,7.9,1.1,8.6c1.5,0.7,5.8-5.1,7.4-4.5c1.5,0.6,0.7,7.8,2.3,8.3
		c1.6,0.5,5-5.9,6.6-5.6c1.6,0.4,1.9,7.6,3.6,7.9c1.6,0.2,4-6.6,5.7-6.5c1.6,0.1,3,7.3,4.7,7.3c1.7,0,3-7.1,4.7-7.3
		c1.7-0.1,4.1,6.7,5.7,6.5c1.6-0.2,2-7.5,3.6-7.9c1.6-0.4,5,6,6.6,5.6c1.6-0.5,0.8-7.7,2.3-8.3c1.5-0.6,5.9,5.2,7.4,4.5
		c1.5-0.7-0.4-7.7,1.1-8.6c1.4-0.8,6.6,4.3,8,3.4c1.4-0.9-1.5-7.6-0.2-8.6c1.3-1,7.2,3.3,8.4,2.1c1.2-1.1-2.6-7.3-1.5-8.5
		c1.1-1.2,7.6,2.2,8.6,0.9c1-1.3-3.7-6.8-2.8-8.2c0.9-1.4,7.8,1,8.6-0.4c0.8-1.4-4.7-6.2-3.9-7.7c0.7-1.5,7.9-0.2,8.5-1.7
		c0.6-1.5-5.5-5.4-5-7c0.5-1.6,7.7-1.3,8.1-2.9c0.4-1.6-6.3-4.5-6-6.2c0.2-1.6,7.5-2.5,7.6-4.1C341.6,91.6,334.6,89.7,334.6,88z"/>
</g>
<g>
	<path class="st1" d="M315.7,88c0-1.2,7-2.6,6.9-3.8c-0.1-1.2-7.3-1.6-7.4-2.7c-0.2-1.2,6.6-3.6,6.3-4.8c-0.3-1.2-7.4-0.5-7.8-1.6
		c-0.3-1.1,5.9-4.6,5.5-5.7c-0.4-1.1-7.4,0.7-7.9-0.4c-0.5-1.1,5.2-5.4,4.6-6.4c-0.6-1-7.2,1.8-7.9,0.8c-0.7-1,4.3-6.1,3.6-7
		c-0.7-0.9-6.9,2.8-7.7,1.9c-0.8-0.9,3.4-6.7,2.5-7.5c-0.9-0.8-6.4,3.8-7.3,3.1c-0.9-0.7,2.3-7.1,1.4-7.8c-1-0.7-5.7,4.7-6.8,4.1
		c-1-0.6,1.3-7.4,0.2-7.9c-1.1-0.5-5,5.5-6.1,5.1c-1.1-0.4,0.1-7.5-1-7.8c-1.1-0.3-4.1,6.2-5.2,5.9c-1.1-0.3-1-7.4-2.2-7.6
		c-1.2-0.2-3.1,6.7-4.3,6.6c-1.2-0.1-2.1-7.2-3.3-7.2c-1.2,0-2.1,7.1-3.3,7.2c-1.2,0.1-3.1-6.8-4.3-6.6c-1.2,0.2-1,7.3-2.2,7.6
		c-1.2,0.3-4.1-6.3-5.2-5.9c-1.1,0.3,0.1,7.4-1,7.8c-1.1,0.4-5-5.6-6.1-5.1c-1.1,0.5,1.2,7.3,0.2,7.9c-1,0.6-5.8-4.8-6.8-4.1
		c-1,0.7,2.3,7.1,1.4,7.8c-0.9,0.7-6.4-3.9-7.3-3.1c-0.9,0.8,3.3,6.6,2.5,7.5c-0.8,0.9-6.9-2.9-7.7-1.9c-0.7,0.9,4.3,6.1,3.6,7
		c-0.7,1-7.3-1.8-7.9-0.8c-0.6,1,5.1,5.4,4.6,6.4c-0.5,1.1-7.5-0.7-7.9,0.4c-0.4,1.1,5.9,4.5,5.5,5.7c-0.3,1.1-7.5,0.4-7.8,1.6
		c-0.3,1.1,6.5,3.6,6.3,4.8c-0.2,1.2-7.3,1.5-7.4,2.7c-0.1,1.2,6.9,2.6,6.9,3.8c0,1.2-7,2.6-6.9,3.8c0.1,1.2,7.3,1.6,7.4,2.7
		c0.2,1.2-6.6,3.6-6.3,4.8c0.3,1.2,7.4,0.5,7.8,1.6c0.3,1.1-5.9,4.6-5.5,5.7c0.4,1.1,7.4-0.7,7.9,0.4c0.5,1.1-5.2,5.4-4.6,6.4
		c0.6,1,7.2-1.8,7.9-0.8c0.7,1-4.3,6.1-3.6,7c0.7,0.9,6.9-2.8,7.7-1.9c0.8,0.9-3.4,6.7-2.5,7.5c0.9,0.8,6.4-3.8,7.3-3.1
		c0.9,0.7-2.3,7.1-1.4,7.8c1,0.7,5.7-4.7,6.8-4.1c1,0.6-1.3,7.4-0.2,7.9c1.1,0.5,5-5.5,6.1-5.1c1.1,0.4-0.1,7.5,1,7.8
		c1.1,0.3,4.1-6.2,5.2-5.9c1.1,0.3,1,7.4,2.2,7.6c1.2,0.2,3.1-6.7,4.3-6.6c1.2,0.1,2.1,7.2,3.3,7.2c1.2,0,2.1-7.1,3.3-7.2
		c1.2-0.1,3.1,6.8,4.3,6.6c1.2-0.2,1-7.3,2.2-7.6c1.2-0.3,4.1,6.3,5.2,5.9c1.1-0.3-0.1-7.4,1-7.8c1.1-0.4,5,5.6,6.1,5.1
		c1.1-0.5-1.2-7.3-0.2-7.9c1-0.6,5.8,4.8,6.8,4.1c1-0.7-2.3-7.1-1.4-7.8c0.9-0.7,6.4,3.9,7.3,3.1c0.9-0.8-3.3-6.6-2.5-7.5
		c0.8-0.9,6.9,2.9,7.7,1.9c0.7-0.9-4.3-6.1-3.6-7c0.7-1,7.3,1.8,7.9,0.8c0.6-1-5.1-5.4-4.6-6.4c0.5-1.1,7.5,0.7,7.9-0.4
		c0.4-1.1-5.9-4.5-5.5-5.7c0.3-1.1,7.5-0.4,7.8-1.6c0.3-1.1-6.5-3.6-6.3-4.8c0.2-1.2,7.3-1.5,7.4-2.7
		C322.7,90.6,315.7,89.2,315.7,88z"/>
</g>
<g class="st3">
	<path class="st4" d="M241.7,79.5l4.5-0.1c1.5,0,2.6,0.4,3.5,1.1c0.8,0.7,1.3,1.8,1.3,3.1c0,0.9-0.2,1.7-0.7,2.4
		c-0.5,0.7-1.1,1.1-1.9,1.4c0.7,0.2,1.1,0.8,1.5,1.8l0.9,2.4c0.3,0.7,0.6,1.2,0.9,1.5c-0.3,0.5-0.8,0.7-1.5,0.7
		c-0.4,0-0.7-0.1-0.9-0.3c-0.2-0.2-0.4-0.6-0.6-1l-1-2.8c-0.2-0.6-0.5-1-0.8-1.3c-0.3-0.3-0.7-0.4-1.3-0.4h-1.7v5.7
		c-0.3,0.1-0.7,0.1-1.1,0.1c-0.4,0-0.8,0-1.1-0.1V79.6L241.7,79.5z M243.7,81.1v5.1c1.1,0,1.8,0,2.3,0c0.9,0,1.6-0.2,2-0.7
		c0.4-0.5,0.6-1.1,0.6-1.8c0-1.7-0.8-2.5-2.5-2.5C244.9,81.1,244.2,81.1,243.7,81.1z"/>
	<path class="st4" d="M256.4,90.8l0,1.1c0.4,0,0.9-0.1,1.4-0.1h5.4c0,0.4,0,0.7-0.1,0.9c-0.1,0.7-0.6,1-1.4,1h-6.2
		c-0.4,0-0.7-0.1-0.9-0.4c-0.2-0.2-0.3-0.6-0.3-1V79.6l0.1-0.1h8.4c0,0.2,0.1,0.5,0.1,0.9c0,0.4-0.1,0.7-0.2,1h-6.2l0,1.4v2.9l1.3,0
		h3.9c0.1,0.3,0.1,0.6,0.1,0.9c0,0.4,0,0.7-0.1,0.9h-3.9c-0.5,0-1,0-1.3,0V90.8z"/>
	<path class="st4" d="M267.4,92.7c-1.5-1.3-2.2-3.3-2.2-6.1c0-1.1,0.1-2.2,0.4-3.1c0.3-0.9,0.6-1.7,1.1-2.3c0.5-0.6,1.1-1.1,1.8-1.5
		s1.6-0.5,2.5-0.5c0.9,0,1.8,0.2,2.5,0.5c0.7,0.3,1.3,0.8,1.8,1.5c0.5,0.6,0.9,1.4,1.1,2.3c0.3,0.9,0.4,1.9,0.4,3.1
		c0,1.1-0.1,2.2-0.4,3.1c-0.3,0.9-0.6,1.7-1.1,2.3c-0.5,0.6-1.1,1.1-1.8,1.5c-0.7,0.3-1.6,0.5-2.5,0.5
		C269.5,93.9,268.3,93.5,267.4,92.7z M268.1,82.8c-0.2,0.6-0.4,1.2-0.5,1.8c-0.1,0.6-0.1,1.2-0.1,1.8c0,0.7,0,1.4,0.1,2.1
		c0.1,0.7,0.3,1.3,0.5,1.8c0.3,0.5,0.6,1,1.1,1.3c0.5,0.3,1,0.5,1.7,0.5c0.8,0,1.4-0.2,1.8-0.6c0.4-0.4,0.8-0.9,1-1.4
		c0.2-0.6,0.4-1.2,0.5-1.8c0.1-0.7,0.1-1.2,0.1-1.8c0-0.6,0-1.2-0.1-1.8c-0.1-0.7-0.2-1.3-0.5-1.8c-0.2-0.6-0.6-1-1-1.4
		c-0.5-0.4-1.1-0.6-1.8-0.6c-0.7,0-1.3,0.2-1.8,0.5C268.7,81.8,268.4,82.3,268.1,82.8z"/>
	<path class="st4" d="M280,79.5l4.5-0.1c1.5,0,2.6,0.4,3.5,1.1c0.8,0.7,1.3,1.8,1.3,3.1c0,0.9-0.2,1.7-0.7,2.4
		c-0.5,0.7-1.1,1.1-1.9,1.4c0.7,0.2,1.1,0.8,1.5,1.8l0.9,2.4c0.3,0.7,0.6,1.2,0.9,1.5c-0.3,0.5-0.8,0.7-1.5,0.7
		c-0.4,0-0.7-0.1-0.9-0.3c-0.2-0.2-0.4-0.6-0.6-1l-1-2.8c-0.2-0.6-0.5-1-0.8-1.3c-0.3-0.3-0.7-0.4-1.3-0.4h-1.7v5.7
		c-0.3,0.1-0.7,0.1-1.1,0.1c-0.4,0-0.8,0-1.1-0.1V79.6L280,79.5z M282.1,81.1v5.1c1.1,0,1.8,0,2.3,0c0.9,0,1.6-0.2,2-0.7
		c0.4-0.5,0.6-1.1,0.6-1.8c0-1.7-0.8-2.5-2.5-2.5C283.3,81.1,282.6,81.1,282.1,81.1z"/>
	<path class="st4" d="M297.6,86.2l3.2,0c1.1,0,1.6,0.5,1.6,1.5V93c-1.6,0.6-3.3,0.9-5.1,0.9c-1,0-1.9-0.2-2.7-0.6
		c-0.8-0.4-1.4-0.9-1.9-1.6c-0.9-1.3-1.3-3-1.3-5.1c0-1.3,0.2-2.4,0.5-3.4c0.3-1,0.8-1.8,1.4-2.3c1.2-1.2,2.6-1.7,4.2-1.7
		c1.9,0,3.5,0.5,4.8,1.5c-0.1,0.7-0.5,1.2-1.1,1.7c-1.1-0.9-2.4-1.3-3.8-1.3c-1.2,0-2.1,0.5-2.8,1.4c-0.7,0.9-1.1,2.3-1.1,4.2
		c0,3.6,1.3,5.4,4,5.4c1,0,1.9-0.1,2.6-0.4v-2.3c0-0.6,0-1.1,0-1.3h-1.8c-0.7,0-1-0.3-1-1C297.5,86.8,297.5,86.5,297.6,86.2z"/>
</g>
<g class="st0">
	<path class="st1" d="M224.9,250.3c0-2.7,7-5.6,6.8-8.2c-0.2-2.7-7.6-4.5-7.9-7.1c-0.4-2.6,6.1-6.6,5.5-9.2
		c-0.6-2.6-8.1-3.3-8.9-5.9c-0.8-2.6,5-7.4,4.1-9.9c-1-2.5-8.6-2.1-9.7-4.5c-1.2-2.4,3.9-8.1,2.5-10.4c-1.3-2.3-8.8-0.8-10.3-3
		c-1.5-2.2,2.6-8.6,1-10.6c-1.7-2.1-8.8,0.5-10.6-1.4c-1.8-2,1.3-8.9-0.6-10.7c-1.9-1.8-8.6,1.8-10.7,0.2c-2.1-1.7,0-9-2.2-10.5
		c-2.2-1.5-8.2,3.1-10.5,1.8c-2.3-1.3-1.3-8.9-3.7-10c-2.4-1.2-7.7,4.3-10.2,3.3c-2.5-1-2.6-8.6-5.2-9.3c-2.5-0.8-6.9,5.4-9.5,4.8
		c-2.6-0.6-3.9-8.1-6.5-8.5c-2.6-0.4-6,6.4-8.7,6.2c-2.6-0.2-5-7.4-7.7-7.4c-2.7,0-5.1,7.2-7.7,7.4c-2.7,0.2-6.1-6.6-8.7-6.2
		c-2.6,0.4-3.9,7.9-6.5,8.5c-2.6,0.6-7-5.6-9.5-4.8c-2.6,0.8-2.7,8.4-5.2,9.3c-2.5,1-7.8-4.5-10.2-3.3c-2.4,1.2-1.4,8.7-3.7,10
		c-2.3,1.3-8.3-3.3-10.5-1.8c-2.2,1.5-0.1,8.8-2.2,10.5c-2.1,1.7-8.7-2-10.7-0.2c-2,1.8,1.2,8.7-0.6,10.7c-1.8,1.9-8.9-0.7-10.6,1.4
		c-1.7,2.1,2.5,8.4,1,10.6c-1.5,2.2-8.9,0.7-10.3,3c-1.3,2.3,3.7,8,2.5,10.4c-1.2,2.4-8.7,2-9.7,4.5c-1,2.5,4.9,7.3,4.1,9.9
		c-0.8,2.5-8.3,3.3-8.9,5.9c-0.6,2.6,5.9,6.5,5.5,9.2c-0.4,2.6-7.8,4.5-7.9,7.1c-0.2,2.6,6.8,5.6,6.8,8.2c0,2.7-7,5.6-6.8,8.2
		c0.2,2.7,7.6,4.5,7.9,7.1c0.4,2.6-6.1,6.6-5.5,9.2c0.6,2.6,8.1,3.3,8.9,5.9c0.8,2.6-5,7.4-4.1,9.9c1,2.5,8.6,2.1,9.7,4.5
		c1.2,2.4-3.9,8.1-2.5,10.4c1.3,2.3,8.8,0.8,10.3,3c1.5,2.2-2.6,8.6-1,10.6c1.7,2.1,8.8-0.5,10.6,1.4c1.8,2-1.3,8.9,0.6,10.7
		c1.9,1.8,8.6-1.8,10.7-0.2c2.1,1.7,0,9,2.2,10.5c2.2,1.5,8.2-3.1,10.5-1.8c2.3,1.3,1.3,8.9,3.7,10c2.4,1.2,7.7-4.3,10.2-3.3
		c2.5,1,2.6,8.6,5.2,9.3c2.5,0.8,6.9-5.4,9.5-4.8c2.6,0.6,3.9,8.1,6.5,8.5c2.6,0.4,6-6.4,8.7-6.2c2.6,0.2,5,7.4,7.7,7.4
		c2.7,0,5.1-7.2,7.7-7.4c2.7-0.2,6.1,6.6,8.7,6.2c2.6-0.4,3.9-7.9,6.5-8.5c2.6-0.6,7,5.6,9.5,4.8c2.6-0.8,2.7-8.4,5.2-9.3
		c2.5-1,7.8,4.5,10.2,3.3c2.4-1.2,1.4-8.7,3.7-10c2.3-1.3,8.3,3.3,10.5,1.8c2.2-1.5,0.1-8.8,2.2-10.5c2.1-1.7,8.7,2,10.7,0.2
		c2-1.8-1.2-8.7,0.6-10.7c1.8-1.9,8.9,0.7,10.6-1.4c1.7-2.1-2.5-8.4-1-10.6c1.5-2.2,8.9-0.7,10.3-3c1.3-2.3-3.7-8-2.5-10.4
		c1.2-2.4,8.7-2,9.7-4.5c1-2.5-4.9-7.3-4.1-9.9c0.8-2.5,8.3-3.3,8.9-5.9c0.6-2.6-5.9-6.5-5.5-9.2c0.4-2.6,7.8-4.5,7.9-7.1
		C231.9,255.9,224.9,253,224.9,250.3z"/>
</g>
<g class="st2">
	<path class="st1" d="M201.2,250.3c0-2.1,7-4.4,6.9-6.5c-0.2-2.1-7.4-3.3-7.8-5.4c-0.3-2.1,6.3-5.4,5.8-7.4c-0.5-2-7.9-2.2-8.5-4.2
		c-0.6-2,5.4-6.3,4.7-8.2c-0.8-1.9-8.1-1-9-2.8c-0.9-1.9,4.4-7,3.4-8.8c-1-1.8-8.2,0.2-9.3-1.5c-1.2-1.7,3.3-7.6,2-9.2
		c-1.3-1.6-8,1.5-9.4-0.1c-1.4-1.5,2.2-8,0.6-9.4c-1.5-1.4-7.7,2.6-9.3,1.3c-1.6-1.3,0.9-8.2-0.8-9.4c-1.7-1.2-7.2,3.7-9,2.7
		c-1.8-1-0.3-8.3-2.2-9.2c-1.9-0.9-6.6,4.8-8.5,4c-1.9-0.8-1.5-8.1-3.5-8.8c-2-0.6-5.8,5.7-7.8,5.3c-2-0.5-2.7-7.8-4.8-8.1
		c-2-0.3-4.9,6.5-7,6.4c-2-0.2-3.9-7.3-5.9-7.3s-3.9,7.2-5.9,7.3c-2.1,0.2-4.9-6.7-7-6.4c-2.1,0.3-2.8,7.7-4.8,8.1
		c-2,0.5-5.9-5.9-7.8-5.3c-2,0.6-1.6,8-3.5,8.8c-1.9,0.8-6.7-4.9-8.5-4c-1.9,0.9-0.4,8.2-2.2,9.2c-1.8,1-7.3-3.9-9-2.7
		c-1.7,1.2,0.8,8.1-0.8,9.4c-1.6,1.3-7.8-2.7-9.3-1.3c-1.5,1.4,2,7.9,0.6,9.4c-1.4,1.5-8.1-1.6-9.4,0.1c-1.3,1.6,3.2,7.5,2,9.2
		c-1.2,1.7-8.3-0.3-9.3,1.5c-1,1.8,4.3,6.9,3.4,8.8c-0.9,1.9-8.2,0.9-9,2.8c-0.8,1.9,5.3,6.2,4.7,8.2c-0.6,2-8,2.1-8.5,4.2
		c-0.5,2,6.1,5.4,5.8,7.4c-0.3,2-7.6,3.3-7.8,5.4c-0.2,2,6.9,4.4,6.9,6.5c0,2.1-7,4.4-6.9,6.5c0.2,2.1,7.4,3.3,7.8,5.4
		c0.3,2.1-6.3,5.4-5.8,7.4c0.5,2,7.9,2.2,8.5,4.2c0.6,2-5.4,6.3-4.7,8.2c0.8,1.9,8.1,1,9,2.8c0.9,1.9-4.4,7-3.4,8.8
		c1,1.8,8.2-0.2,9.3,1.5c1.2,1.7-3.3,7.6-2,9.2c1.3,1.6,8-1.5,9.4,0.1c1.4,1.5-2.2,8-0.6,9.4c1.5,1.4,7.7-2.6,9.3-1.3
		c1.6,1.3-0.9,8.2,0.8,9.4c1.7,1.2,7.2-3.7,9-2.7c1.8,1,0.3,8.3,2.2,9.2c1.9,0.9,6.6-4.8,8.5-4c1.9,0.8,1.5,8.1,3.5,8.8
		c2,0.6,5.8-5.7,7.8-5.3c2,0.5,2.7,7.8,4.8,8.1c2,0.3,4.9-6.5,7-6.4c2,0.2,3.9,7.3,5.9,7.3s3.9-7.2,5.9-7.3c2.1-0.2,4.9,6.7,7,6.4
		c2.1-0.3,2.8-7.7,4.8-8.1c2-0.5,5.9,5.9,7.8,5.3c2-0.6,1.6-8,3.5-8.8c1.9-0.8,6.7,4.9,8.5,4c1.9-0.9,0.4-8.2,2.2-9.2
		c1.8-1,7.3,3.9,9,2.7c1.7-1.2-0.8-8.1,0.8-9.4c1.6-1.3,7.8,2.7,9.3,1.3c1.5-1.4-2-7.9-0.6-9.4c1.4-1.5,8.1,1.6,9.4-0.1
		c1.3-1.6-3.2-7.5-2-9.2c1.2-1.7,8.3,0.3,9.3-1.5c1-1.8-4.3-6.9-3.4-8.8c0.9-1.9,8.2-0.9,9-2.8c0.8-1.9-5.3-6.2-4.7-8.2
		c0.6-2,8-2.1,8.5-4.2c0.5-2-6.1-5.4-5.8-7.4c0.3-2,7.6-3.3,7.8-5.4C208.2,254.7,201.2,252.4,201.2,250.3z"/>
</g>
<g>
	<path class="st1" d="M177.5,250.3c0-1.5,7-3.2,6.9-4.7c-0.1-1.5-7.3-2.2-7.6-3.6c-0.2-1.5,6.5-4.2,6.2-5.7c-0.3-1.4-7.6-1-8-2.4
		c-0.4-1.4,5.8-5.2,5.2-6.5c-0.5-1.4-7.6,0.1-8.3-1.2c-0.6-1.3,4.9-6,4.2-7.2c-0.7-1.3-7.5,1.3-8.4,0c-0.8-1.2,4-6.6,3.1-7.8
		c-0.9-1.2-7.3,2.4-8.3,1.3c-1-1.1,3-7.2,1.9-8.2c-1.1-1-6.8,3.4-8,2.5c-1.2-0.9,1.9-7.5,0.7-8.4c-1.2-0.8-6.3,4.4-7.5,3.7
		c-1.3-0.7,0.7-7.7-0.6-8.4c-1.3-0.6-5.5,5.3-6.9,4.7c-1.4-0.5-0.4-7.7-1.8-8.2c-1.4-0.4-4.7,6.1-6.1,5.7c-1.4-0.3-1.6-7.6-3-7.8
		c-1.5-0.2-3.7,6.7-5.2,6.6c-1.5-0.1-2.7-7.3-4.2-7.3c-1.5,0-2.7,7.2-4.2,7.3c-1.5,0.1-3.7-6.8-5.2-6.6c-1.5,0.2-1.6,7.5-3,7.8
		c-1.4,0.3-4.7-6.2-6.1-5.7c-1.4,0.4-0.5,7.6-1.8,8.2c-1.4,0.5-5.6-5.4-6.9-4.7c-1.3,0.6,0.7,7.6-0.6,8.4c-1.3,0.7-6.3-4.5-7.5-3.7
		c-1.2,0.8,1.8,7.4,0.7,8.4c-1.2,0.9-6.9-3.5-8-2.5c-1.1,1,2.9,7.1,1.9,8.2c-1,1.1-7.4-2.4-8.3-1.3c-0.9,1.2,3.9,6.6,3.1,7.8
		c-0.8,1.2-7.6-1.3-8.4,0c-0.7,1.3,4.9,5.9,4.2,7.2c-0.6,1.3-7.7-0.2-8.3,1.2c-0.5,1.4,5.7,5.1,5.2,6.5c-0.4,1.4-7.7,1-8,2.4
		c-0.3,1.4,6.4,4.2,6.2,5.7c-0.2,1.5-7.4,2.1-7.6,3.6c-0.1,1.5,6.9,3.2,6.9,4.7c0,1.5-7,3.2-6.9,4.7c0.1,1.5,7.3,2.2,7.6,3.6
		c0.2,1.5-6.5,4.2-6.2,5.7c0.3,1.4,7.6,1,8,2.4c0.4,1.4-5.8,5.2-5.2,6.5c0.5,1.4,7.6-0.1,8.3,1.2c0.6,1.3-4.9,6-4.2,7.2
		c0.7,1.3,7.5-1.3,8.4,0c0.8,1.2-4,6.6-3.1,7.8c0.9,1.2,7.3-2.4,8.3-1.3c1,1.1-3,7.2-1.9,8.2c1.1,1,6.8-3.4,8-2.5
		c1.2,0.9-1.9,7.5-0.7,8.4c1.2,0.8,6.3-4.4,7.5-3.7c1.3,0.7-0.7,7.7,0.6,8.4c1.3,0.6,5.5-5.3,6.9-4.7c1.4,0.5,0.4,7.7,1.8,8.2
		c1.4,0.4,4.7-6.1,6.1-5.7c1.4,0.3,1.6,7.6,3,7.8c1.5,0.2,3.7-6.7,5.2-6.6c1.5,0.1,2.7,7.3,4.2,7.3c1.5,0,2.7-7.2,4.2-7.3
		c1.5-0.1,3.7,6.8,5.2,6.6c1.5-0.2,1.6-7.5,3-7.8c1.4-0.3,4.7,6.2,6.1,5.7c1.4-0.4,0.5-7.6,1.8-8.2c1.4-0.5,5.6,5.4,6.9,4.7
		c1.3-0.6-0.7-7.6,0.6-8.4c1.3-0.7,6.3,4.5,7.5,3.7c1.2-0.8-1.8-7.4-0.7-8.4c1.2-0.9,6.9,3.5,8,2.5c1.1-1-2.9-7.1-1.9-8.2
		c1-1.1,7.4,2.4,8.3,1.3c0.9-1.2-3.9-6.6-3.1-7.8c0.8-1.2,7.6,1.3,8.4,0c0.7-1.3-4.9-5.9-4.2-7.2c0.6-1.3,7.7,0.2,8.3-1.2
		c0.5-1.4-5.7-5.1-5.2-6.5c0.4-1.4,7.7-1,8-2.4c0.3-1.4-6.4-4.2-6.2-5.7c0.2-1.5,7.4-2.1,7.6-3.6
		C184.5,253.5,177.5,251.8,177.5,250.3z"/>
</g>
<g class="st3">
	<path class="st4" d="M78.1,255.8c0.1-0.9,0.5-1.6,1.2-2.1c1.8,1.2,3.6,1.8,5.2,1.8c1,0,1.8-0.2,2.4-0.7c0.6-0.5,0.9-1,0.9-1.8
		c0-1.2-0.8-2.1-2.4-2.8l-3.1-1.3c-2.4-1-3.6-2.5-3.6-4.5c0-0.7,0.1-1.4,0.4-2c0.3-0.6,0.7-1.2,1.2-1.6c0.5-0.5,1.2-0.8,1.9-1.1
		c0.7-0.2,1.6-0.4,2.4-0.4c1.8,0,3.6,0.5,5.4,1.4c0,0.8-0.4,1.6-1,2.2c-1.7-0.8-3.2-1.2-4.5-1.2c-0.9,0-1.7,0.2-2.3,0.7
		s-0.9,1-0.9,1.6c0,0.6,0.2,1.1,0.5,1.5c0.4,0.4,0.9,0.7,1.6,1l3,1.3c1.3,0.6,2.3,1.2,2.9,2c0.7,0.8,1,1.7,1,2.8
		c0,1.6-0.5,2.8-1.6,3.8c-1.1,1-2.7,1.4-4.9,1.4C82,257.7,80,257.1,78.1,255.8z"/>
	<path class="st4" d="M101.5,241.9l-1.5,0v15.5c-0.4,0.1-0.9,0.1-1.4,0.1c-0.5,0-1,0-1.4-0.1v-13.6l0-1.9h0l-1.5,0h-3.1
		c-0.1-0.4-0.1-0.8-0.1-1.2c0-0.4,0-0.8,0.1-1.2h12c0.1,0.4,0.2,0.8,0.2,1.2c0,0.8-0.5,1.1-1.6,1.1H101.5z"/>
	<path class="st4" d="M107.7,239.6l5.6-0.1c1.8,0,3.3,0.5,4.3,1.4c1.1,0.9,1.6,2.2,1.6,4c0,1.2-0.3,2.2-0.9,3
		c-0.6,0.8-1.4,1.4-2.4,1.7c0.8,0.3,1.4,1,1.9,2.2l1.1,3.1c0.3,0.9,0.7,1.5,1.2,1.9c-0.4,0.6-1,0.9-1.9,0.9c-0.5,0-0.9-0.1-1.1-0.4
		c-0.3-0.3-0.5-0.7-0.7-1.3l-1.3-3.5c-0.3-0.7-0.6-1.2-1-1.6c-0.4-0.4-0.9-0.5-1.7-0.5h-2.1v7.2c-0.4,0.1-0.8,0.1-1.4,0.1
		c-0.6,0-1,0-1.4-0.1v-17.7L107.7,239.6z M110.3,241.6v6.4c1.4,0,2.3-0.1,2.9-0.1c1.2,0,2-0.3,2.5-0.9c0.5-0.6,0.7-1.3,0.7-2.2
		c0-2.1-1.1-3.2-3.2-3.2C111.9,241.7,110.9,241.7,110.3,241.6z"/>
	<path class="st4" d="M126.2,253.8l0,1.3c0.5-0.1,1.1-0.1,1.7-0.1h6.8c0,0.5,0,0.8-0.1,1.1c-0.2,0.9-0.7,1.3-1.8,1.3H125
		c-0.5,0-0.9-0.2-1.2-0.5c-0.3-0.3-0.4-0.7-0.4-1.3v-16l0.2-0.2h10.5c0.1,0.3,0.1,0.6,0.1,1.1s-0.1,0.9-0.2,1.2h-7.8l0,1.7v3.7
		l1.6,0h4.9c0.1,0.3,0.1,0.7,0.1,1.2c0,0.5,0,0.8-0.1,1.1h-4.9c-0.7,0-1.2,0-1.6,0V253.8z"/>
	<path class="st4" d="M136.9,255.8c0.1-0.9,0.5-1.6,1.2-2.1c1.8,1.2,3.6,1.8,5.2,1.8c1,0,1.8-0.2,2.4-0.7c0.6-0.5,0.9-1,0.9-1.8
		c0-1.2-0.8-2.1-2.4-2.8l-3.1-1.3c-2.4-1-3.6-2.5-3.6-4.5c0-0.7,0.1-1.4,0.4-2c0.3-0.6,0.7-1.2,1.2-1.6c0.5-0.5,1.2-0.8,1.9-1.1
		c0.7-0.2,1.6-0.4,2.4-0.4c1.8,0,3.6,0.5,5.4,1.4c0,0.8-0.4,1.6-1,2.2c-1.7-0.8-3.2-1.2-4.5-1.2c-0.9,0-1.7,0.2-2.3,0.7
		s-0.9,1-0.9,1.6c0,0.6,0.2,1.1,0.5,1.5c0.4,0.4,0.9,0.7,1.6,1l3,1.3c1.3,0.6,2.3,1.2,2.9,2c0.7,0.8,1,1.7,1,2.8
		c0,1.6-0.5,2.8-1.6,3.8c-1.1,1-2.7,1.4-4.9,1.4C140.8,257.7,138.8,257.1,136.9,255.8z"/>
	<path class="st4" d="M151.7,255.8c0.1-0.9,0.5-1.6,1.2-2.1c1.8,1.2,3.6,1.8,5.2,1.8c1,0,1.8-0.2,2.4-0.7c0.6-0.5,0.9-1,0.9-1.8
		c0-1.2-0.8-2.1-2.4-2.8l-3.1-1.3c-2.4-1-3.6-2.5-3.6-4.5c0-0.7,0.1-1.4,0.4-2c0.3-0.6,0.7-1.2,1.2-1.6c0.5-0.5,1.2-0.8,1.9-1.1
		c0.7-0.2,1.6-0.4,2.4-0.4c1.8,0,3.6,0.5,5.4,1.4c0,0.8-0.4,1.6-1,2.2c-1.7-0.8-3.2-1.2-4.5-1.2c-0.9,0-1.7,0.2-2.3,0.7
		s-0.9,1-0.9,1.6c0,0.6,0.2,1.1,0.5,1.5c0.4,0.4,0.9,0.7,1.6,1l3,1.3c1.3,0.6,2.3,1.2,2.9,2c0.7,0.8,1,1.7,1,2.8
		c0,1.6-0.5,2.8-1.6,3.8c-1.1,1-2.7,1.4-4.9,1.4C155.6,257.7,153.5,257.1,151.7,255.8z"/>
</g>
<g class="st0">
	<path class="st1" d="M350.3,281.8c0-1.3,7.1-2.8,7-4.1c-0.1-1.3-7.3-1.8-7.5-3c-0.2-1.3,6.6-3.8,6.3-5.1c-0.3-1.2-7.5-0.6-7.9-1.8
		c-0.4-1.2,5.9-4.8,5.5-5.9c-0.5-1.2-7.5,0.5-8-0.6c-0.6-1.1,5.1-5.6,4.5-6.7c-0.6-1.1-7.3,1.6-8,0.6c-0.7-1.1,4.2-6.3,3.5-7.3
		c-0.8-1-7,2.7-7.9,1.8c-0.9-0.9,3.3-6.9,2.3-7.7c-0.9-0.9-6.5,3.7-7.5,2.9c-1-0.8,2.2-7.3,1.2-8c-1-0.7-5.9,4.6-7,4
		c-1.1-0.6,1.1-7.5,0-8.1c-1.1-0.6-5.2,5.5-6.3,5c-1.2-0.5,0-7.6-1.3-8c-1.2-0.4-4.3,6.2-5.5,5.9c-1.2-0.3-1.2-7.5-2.4-7.7
		c-1.2-0.2-3.3,6.7-4.6,6.6c-1.3-0.1-2.3-7.2-3.5-7.2c-1.3,0-2.3,7.2-3.5,7.2c-1.3,0.1-3.3-6.8-4.6-6.6c-1.3,0.2-1.2,7.4-2.4,7.7
		c-1.2,0.3-4.3-6.3-5.5-5.9c-1.2,0.4-0.1,7.5-1.3,8c-1.2,0.5-5.2-5.5-6.3-5c-1.1,0.6,1.1,7.4,0,8.1c-1.1,0.6-6-4.7-7-4
		c-1.1,0.7,2.2,7.2,1.2,8c-1,0.8-6.6-3.8-7.5-2.9c-0.9,0.9,3.2,6.8,2.3,7.7c-0.9,0.9-7.1-2.7-7.9-1.8c-0.8,1,4.2,6.2,3.5,7.3
		c-0.7,1-7.4-1.7-8-0.6c-0.6,1.1,5.1,5.5,4.5,6.7c-0.6,1.1-7.6-0.5-8,0.6c-0.5,1.2,5.8,4.7,5.5,5.9c-0.4,1.2-7.6,0.6-7.9,1.8
		c-0.3,1.2,6.5,3.8,6.3,5.1c-0.2,1.2-7.4,1.7-7.5,3c-0.1,1.3,7,2.8,7,4.1c0,1.3-7.1,2.8-7,4.1c0.1,1.3,7.3,1.8,7.5,3
		c0.2,1.3-6.6,3.8-6.3,5.1c0.3,1.2,7.5,0.6,7.9,1.8c0.4,1.2-5.9,4.8-5.5,5.9c0.5,1.2,7.5-0.5,8,0.6c0.6,1.1-5.1,5.6-4.5,6.7
		c0.6,1.1,7.3-1.6,8-0.6c0.7,1.1-4.2,6.3-3.5,7.3c0.8,1,7-2.7,7.9-1.8c0.9,0.9-3.3,6.9-2.3,7.7c0.9,0.9,6.5-3.7,7.5-2.9
		c1,0.8-2.2,7.3-1.2,8c1,0.7,5.9-4.6,7-4c1.1,0.6-1.1,7.5,0,8.1c1.1,0.6,5.2-5.5,6.3-5c1.2,0.5,0,7.6,1.3,8c1.2,0.4,4.3-6.2,5.5-5.9
		c1.2,0.3,1.2,7.5,2.4,7.7c1.2,0.2,3.3-6.7,4.6-6.6c1.3,0.1,2.3,7.2,3.5,7.2c1.3,0,2.3-7.2,3.5-7.2c1.3-0.1,3.3,6.8,4.6,6.6
		c1.3-0.2,1.2-7.4,2.4-7.7c1.2-0.3,4.3,6.3,5.5,5.9c1.2-0.4,0.1-7.5,1.3-8c1.2-0.5,5.2,5.5,6.3,5c1.1-0.6-1.1-7.4,0-8.1
		c1.1-0.6,6,4.7,7,4c1.1-0.7-2.2-7.2-1.2-8c1-0.8,6.6,3.8,7.5,2.9c0.9-0.9-3.2-6.8-2.3-7.7c0.9-0.9,7.1,2.7,7.9,1.8
		c0.8-1-4.2-6.2-3.5-7.3c0.7-1,7.4,1.7,8,0.6c0.6-1.1-5.1-5.5-4.5-6.7c0.6-1.1,7.6,0.5,8-0.6c0.5-1.2-5.8-4.7-5.5-5.9
		c0.4-1.2,7.6-0.6,7.9-1.8c0.3-1.2-6.5-3.8-6.3-5.1c0.2-1.2,7.4-1.7,7.5-3C357.3,284.6,350.3,283.1,350.3,281.8z"/>
</g>
<g class="st2">
	<path class="st1" d="M329.3,281.8c0-0.8,7.1-1.8,7-2.5c-0.1-0.8-7.2-0.7-7.3-1.4c-0.1-0.7,6.7-2.8,6.6-3.5
		c-0.2-0.7-7.2,0.4-7.4-0.3c-0.2-0.7,6.2-3.8,6-4.5c-0.3-0.7-7.1,1.5-7.4,0.8c-0.3-0.7,5.6-4.7,5.2-5.3c-0.4-0.6-6.8,2.5-7.2,1.9
		c-0.4-0.6,4.8-5.4,4.4-6c-0.5-0.6-6.3,3.5-6.9,2.9c-0.5-0.5,4-6.1,3.4-6.6c-0.5-0.5-5.8,4.4-6.3,3.9c-0.6-0.5,3-6.6,2.4-7.1
		c-0.6-0.4-5,5.2-5.7,4.8c-0.6-0.4,2-7,1.3-7.3c-0.7-0.3-4.2,5.9-4.9,5.6c-0.7-0.3,0.9-7.2,0.2-7.5c-0.7-0.2-3.3,6.5-4,6.3
		c-0.7-0.2-0.1-7.3-0.9-7.4c-0.7-0.1-2.3,6.9-3,6.8c-0.7-0.1-1.2-7.2-2-7.2c-0.8,0-1.2,7.1-2,7.2c-0.8,0.1-2.3-6.9-3-6.8
		c-0.7,0.1-0.2,7.2-0.9,7.4c-0.7,0.2-3.3-6.5-4-6.3c-0.7,0.2,0.9,7.2,0.2,7.5c-0.7,0.3-4.2-5.9-4.9-5.6c-0.7,0.3,2,7,1.3,7.3
		c-0.6,0.4-5.1-5.2-5.7-4.8c-0.6,0.4,3,6.6,2.4,7.1c-0.6,0.5-5.8-4.4-6.3-3.9c-0.5,0.5,3.9,6.1,3.4,6.6c-0.5,0.5-6.4-3.5-6.9-2.9
		c-0.5,0.6,4.8,5.4,4.4,6c-0.4,0.6-6.8-2.5-7.2-1.9c-0.4,0.6,5.6,4.6,5.2,5.3c-0.3,0.7-7.1-1.5-7.4-0.8c-0.3,0.7,6.2,3.7,6,4.5
		c-0.2,0.7-7.3-0.4-7.4,0.3c-0.2,0.7,6.7,2.8,6.6,3.5c-0.1,0.7-7.3,0.7-7.3,1.4c-0.1,0.7,7,1.8,7,2.5c0,0.8-7.1,1.8-7,2.5
		c0.1,0.8,7.2,0.7,7.3,1.4c0.1,0.7-6.7,2.8-6.6,3.5c0.2,0.7,7.2-0.4,7.4,0.3c0.2,0.7-6.2,3.8-6,4.5c0.3,0.7,7.1-1.5,7.4-0.8
		c0.3,0.7-5.6,4.7-5.2,5.3c0.4,0.6,6.8-2.5,7.2-1.9c0.4,0.6-4.8,5.4-4.4,6c0.5,0.6,6.3-3.5,6.9-2.9c0.5,0.5-4,6.1-3.4,6.6
		c0.5,0.5,5.8-4.4,6.3-3.9c0.6,0.5-3,6.6-2.4,7.1c0.6,0.4,5-5.2,5.7-4.8c0.6,0.4-2,7-1.3,7.3c0.7,0.3,4.2-5.9,4.9-5.6
		c0.7,0.3-0.9,7.2-0.2,7.5c0.7,0.2,3.3-6.5,4-6.3c0.7,0.2,0.1,7.3,0.9,7.4c0.7,0.1,2.3-6.9,3-6.8c0.7,0.1,1.2,7.2,2,7.2
		c0.8,0,1.2-7.1,2-7.2c0.8-0.1,2.3,6.9,3,6.8c0.7-0.1,0.2-7.2,0.9-7.4c0.7-0.2,3.3,6.5,4,6.3c0.7-0.2-0.9-7.2-0.2-7.5
		c0.7-0.3,4.2,5.9,4.9,5.6c0.7-0.3-2-7-1.3-7.3c0.6-0.4,5.1,5.2,5.7,4.8c0.6-0.4-3-6.6-2.4-7.1c0.6-0.5,5.8,4.4,6.3,3.9
		c0.5-0.5-3.9-6.1-3.4-6.6c0.5-0.5,6.4,3.5,6.9,2.9c0.5-0.6-4.8-5.4-4.4-6c0.4-0.6,6.8,2.5,7.2,1.9c0.4-0.6-5.6-4.6-5.2-5.3
		c0.3-0.7,7.1,1.5,7.4,0.8c0.3-0.7-6.2-3.7-6-4.5c0.2-0.7,7.3,0.4,7.4-0.3c0.2-0.7-6.7-2.8-6.6-3.5c0.1-0.7,7.3-0.7,7.3-1.4
		C336.4,283.6,329.3,282.6,329.3,281.8z"/>
</g>
<g class="st5">
	<radialGradient id="SVGID_1_" cx="302.8744" cy="281.8009" r="21.9942" gradientUnits="userSpaceOnUse">
		<stop  offset="0" style="stop-color:#FF2832;stop-opacity:0.2"/>
		<stop  offset="1" style="stop-color:#FF2832"/>
	</radialGradient>
	<path class="st6" d="M317.8,281.8c0-0.5,7.1-1.2,7.1-1.6c0-0.5-7.2-0.1-7.2-0.6c-0.1-0.5,6.8-2.2,6.7-2.7c-0.1-0.5-7.1,0.9-7.2,0.5
		c-0.1-0.4,6.4-3.2,6.3-3.7c-0.2-0.4-6.9,2-7.1,1.6c-0.2-0.4,5.9-4.2,5.6-4.5c-0.2-0.4-6.5,3-6.8,2.6c-0.3-0.4,5.2-5,4.9-5.3
		c-0.3-0.4-6,3.9-6.3,3.6c-0.3-0.3,4.4-5.7,4-6c-0.3-0.3-5.3,4.8-5.7,4.5c-0.4-0.3,3.5-6.3,3.1-6.5c-0.4-0.3-4.6,5.5-5,5.3
		c-0.4-0.2,2.5-6.7,2.1-6.9c-0.4-0.2-3.7,6.1-4.1,6c-0.4-0.2,1.5-7,1-7.2c-0.4-0.1-2.7,6.6-3.2,6.5c-0.4-0.1,0.4-7.2,0-7.2
		c-0.5-0.1-1.7,6.9-2.2,6.9c-0.5,0-0.7-7.2-1.1-7.2c-0.5,0-0.7,7.1-1.1,7.2c-0.5,0-1.7-7-2.2-6.9c-0.5,0.1,0.4,7.1,0,7.2
		c-0.5,0.1-2.7-6.6-3.2-6.5c-0.4,0.1,1.5,7,1,7.2c-0.4,0.2-3.7-6.2-4.1-6c-0.4,0.2,2.5,6.7,2.1,6.9c-0.4,0.2-4.6-5.5-5-5.3
		c-0.4,0.3,3.5,6.3,3.1,6.5c-0.4,0.3-5.3-4.8-5.7-4.5c-0.3,0.3,4.4,5.7,4.1,6c-0.3,0.3-6-4-6.3-3.6c-0.3,0.4,5.2,5,4.9,5.3
		c-0.3,0.4-6.5-3-6.8-2.6c-0.2,0.4,5.8,4.1,5.6,4.5c-0.2,0.4-6.9-2-7.1-1.6c-0.2,0.4,6.4,3.2,6.3,3.7c-0.1,0.4-7.1-1-7.2-0.5
		c-0.1,0.4,6.8,2.2,6.7,2.7c-0.1,0.5-7.2,0.1-7.2,0.6c0,0.5,7.1,1.2,7.1,1.6c0,0.5-7.1,1.2-7.1,1.6c0,0.5,7.2,0.1,7.2,0.6
		c0.1,0.5-6.8,2.2-6.7,2.7c0.1,0.5,7.1-0.9,7.2-0.5c0.1,0.4-6.4,3.2-6.3,3.7c0.2,0.4,6.9-2,7.1-1.6c0.2,0.4-5.9,4.2-5.6,4.5
		c0.2,0.4,6.5-3,6.8-2.6c0.3,0.4-5.2,5-4.9,5.3c0.3,0.4,6-3.9,6.3-3.6c0.3,0.3-4.4,5.7-4,6c0.3,0.3,5.3-4.8,5.7-4.5
		c0.4,0.3-3.5,6.3-3.1,6.5c0.4,0.3,4.6-5.5,5-5.3c0.4,0.2-2.5,6.7-2.1,6.9c0.4,0.2,3.7-6.1,4.1-6c0.4,0.2-1.5,7-1,7.2
		c0.4,0.1,2.7-6.6,3.2-6.5c0.4,0.1-0.4,7.2,0,7.2c0.5,0.1,1.7-6.9,2.2-6.9c0.5,0,0.7,7.2,1.1,7.2c0.5,0,0.7-7.1,1.1-7.2
		c0.5,0,1.7,7,2.2,6.9c0.5-0.1-0.4-7.1,0-7.2c0.5-0.1,2.7,6.6,3.2,6.5c0.4-0.1-1.5-7-1-7.2c0.4-0.2,3.7,6.2,4.1,6
		c0.4-0.2-2.5-6.7-2.1-6.9c0.4-0.2,4.6,5.5,5,5.3c0.4-0.3-3.5-6.3-3.1-6.5c0.4-0.3,5.3,4.8,5.7,4.5c0.3-0.3-4.4-5.7-4.1-6
		c0.3-0.3,6,4,6.3,3.6c0.3-0.4-5.2-5-4.9-5.3c0.3-0.4,6.5,3,6.8,2.6c0.2-0.4-5.8-4.1-5.6-4.5c0.2-0.4,6.9,2,7.1,1.6
		c0.2-0.4-6.4-3.2-6.3-3.7c0.1-0.4,7.1,1,7.2,0.5c0.1-0.4-6.8-2.2-6.7-2.7c0.1-0.5,7.2-0.1,7.2-0.6
		C324.9,283,317.8,282.3,317.8,281.8z"/>
</g>
<g>
	<path class="st4" d="M308.5,281.8c0-0.3,2.8-0.9,2.7-1.2c0-0.3-2.9-0.1-3-0.4c-0.1-0.3,2.4-1.6,2.3-1.9c-0.1-0.3-2.8,0.7-2.9,0.5
		c-0.2-0.3,1.9-2.2,1.6-2.5c-0.2-0.3-2.4,1.5-2.7,1.3c-0.3-0.2,1.2-2.7,0.9-2.8c-0.3-0.2-1.9,2.1-2.2,2c-0.3-0.1,0.4-2.9,0-3
		c-0.3-0.1-1.2,2.6-1.6,2.5c-0.3,0-0.5-2.9-0.8-2.9c-0.3,0-0.5,2.8-0.8,2.9c-0.3,0-1.3-2.6-1.6-2.5c-0.3,0.1,0.3,2.8,0,3
		c-0.3,0.1-1.9-2.2-2.2-2c-0.3,0.2,1.1,2.6,0.9,2.8c-0.3,0.2-2.5-1.5-2.7-1.3c-0.2,0.3,1.8,2.2,1.6,2.5c-0.2,0.3-2.8-0.8-2.9-0.5
		c-0.1,0.3,2.4,1.6,2.3,1.9c-0.1,0.3-2.9,0.1-3,0.4c0,0.3,2.7,0.9,2.7,1.2c0,0.3-2.8,0.9-2.7,1.2c0,0.3,2.9,0.1,3,0.4
		c0.1,0.3-2.4,1.6-2.3,1.9c0.1,0.3,2.8-0.7,2.9-0.5c0.2,0.3-1.9,2.2-1.6,2.5c0.2,0.3,2.4-1.5,2.7-1.3c0.3,0.2-1.2,2.7-0.9,2.8
		c0.3,0.2,1.9-2.1,2.2-2c0.3,0.1-0.4,2.9,0,3c0.3,0.1,1.2-2.6,1.6-2.5c0.3,0,0.5,2.9,0.8,2.9c0.3,0,0.5-2.8,0.8-2.9
		c0.3,0,1.3,2.6,1.6,2.5c0.3-0.1-0.3-2.8,0-3c0.3-0.1,1.9,2.2,2.2,2c0.3-0.2-1.1-2.6-0.9-2.8c0.3-0.2,2.5,1.5,2.7,1.3
		c0.2-0.3-1.8-2.2-1.6-2.5c0.2-0.3,2.8,0.8,2.9,0.5c0.1-0.3-2.4-1.6-2.3-1.9c0.1-0.3,2.9-0.1,3-0.4
		C311.3,282.7,308.5,282.1,308.5,281.8z"/>
</g>
</svg>
