<?xml version="1.0" encoding="utf-8"?>
<!-- Generator: Adobe Illustrator 22.0.0, SVG Export Plug-In . SVG Version: 6.00 Build 0)  -->
<svg version="1.1" id="Layer_1" xmlns="http://www.w3.org/2000/svg" xmlns:xlink="http://www.w3.org/1999/xlink" x="0px" y="0px"
	 viewBox="0 0 360 310.9" style="enable-background:new 0 0 360 310.9;" xml:space="preserve">
<style type="text/css">
	
		.st0{opacity:0.7;fill-rule:evenodd;clip-rule:evenodd;fill:none;stroke:url(#SVGID_1_);stroke-width:4;stroke-linecap:round;stroke-miterlimit:10;}
	.st1{opacity:0.2;}
	.st2{fill:#009632;}
	.st3{opacity:0.6;}
	.st4{opacity:0.4;}
	.st5{opacity:0.8;}
</style>
<linearGradient id="SVGID_1_" gradientUnits="userSpaceOnUse" x1="17.1133" y1="125.5179" x2="299.5315" y2="125.5179">
	<stop  offset="0" style="stop-color:#009632;stop-opacity:0.2"/>
	<stop  offset="0.999" style="stop-color:#009632"/>
</linearGradient>
<path class="st0" d="M19.1,184.4c138.5,65.2,250.2-45.7,278.4-137.3"/>
<g class="st1">
	<path class="st2" d="M35.8,179.6c-0.4-1.6,0.2-3.6-0.6-4.9c-0.8-1.4-2.9-1.7-4.1-2.8c-1.1-1.1-1.6-3.2-3-4c-1.4-0.8-3.4,0-4.9-0.4
		c-1.5-0.4-2.9-2-4.5-2c-1.5,0-2.9,1.7-4.5,2.1c-1.6,0.4-3.6-0.2-4.9,0.6c-1.4,0.8-1.7,2.9-2.8,4.1c-1.1,1.1-3.2,1.6-4,3
		c-0.8,1.4,0,3.4-0.4,4.9c-0.4,1.5-2,2.9-2,4.5c0,1.5,1.7,2.9,2.1,4.5c0.4,1.6-0.2,3.6,0.6,4.9c0.8,1.4,2.9,1.7,4.1,2.8
		c1.1,1.1,1.6,3.2,3,4c1.4,0.8,3.4,0,4.9,0.4c1.5,0.4,2.9,2,4.5,2c1.5,0,2.9-1.7,4.5-2.1c1.6-0.4,3.6,0.2,4.9-0.6
		c1.4-0.8,1.7-2.9,2.8-4.1c1.1-1.1,3.2-1.6,4-3c0.8-1.4,0-3.4,0.4-4.9c0.4-1.5,2-2.9,2-4.5C37.9,182.5,36.3,181.1,35.8,179.6z"/>
</g>
<g class="st1">
	<path class="st2" d="M35.1,184.4c0-1.5,1.1-3.1,0.7-4.5c-0.4-1.4-2.2-2.3-2.9-3.5c-0.7-1.3-0.6-3.2-1.6-4.2c-1-1-3-0.9-4.2-1.6
		c-1.2-0.7-2.1-2.5-3.5-2.9c-1.4-0.4-3,0.7-4.5,0.7c-1.5,0-3.1-1.1-4.5-0.7c-1.4,0.4-2.3,2.2-3.5,2.9c-1.3,0.7-3.2,0.6-4.2,1.6
		c-1,1-0.9,3-1.6,4.2c-0.7,1.2-2.5,2.1-2.9,3.5c-0.4,1.4,0.7,3,0.7,4.5c0,1.5-1.1,3.1-0.7,4.5c0.4,1.4,2.2,2.3,2.9,3.5
		c0.7,1.3,0.6,3.2,1.6,4.2c1,1,3,0.9,4.2,1.6c1.2,0.7,2.1,2.5,3.5,2.9c1.4,0.4,3-0.7,4.5-0.7c1.5,0,3.1,1.1,4.5,0.7
		c1.4-0.4,2.3-2.2,3.5-2.9c1.3-0.7,3.2-0.6,4.2-1.6c1-1,0.9-3,1.6-4.2c0.7-1.2,2.5-2.1,2.9-3.5C36.2,187.5,35.1,185.9,35.1,184.4z"
		/>
</g>
<g class="st1">
	<path class="st2" d="M253.1,150.8c-0.9-3.1,0.5-7.2-1.1-9.8c-1.7-2.7-5.9-3.4-8.1-5.6c-2.3-2.2-3.1-6.4-5.9-7.9
		c-2.8-1.5-6.8,0-9.8-0.8c-3-0.8-5.9-4-9.1-3.9c-3.1,0.1-5.8,3.4-8.9,4.3c-3.1,0.9-7.2-0.5-9.8,1.1c-2.7,1.7-3.4,5.9-5.6,8.1
		c-2.2,2.3-6.4,3.1-7.9,5.9s0,6.8-0.8,9.8c-0.8,3-4,5.9-3.9,9.1c0.1,3.1,3.4,5.8,4.3,8.9c0.9,3.1-0.5,7.2,1.1,9.8
		c1.7,2.7,5.9,3.4,8.1,5.6c2.3,2.2,3.1,6.4,5.9,7.9c2.8,1.5,6.8,0,9.8,0.8c3,0.8,5.9,4,9.1,3.9c3.1-0.1,5.8-3.4,8.9-4.3
		c3.1-0.9,7.2,0.5,9.8-1.1c2.7-1.7,3.4-5.9,5.6-8.1c2.2-2.3,6.4-3.1,7.9-5.9c1.5-2.8,0-6.8,0.8-9.8c0.8-3,4-5.9,3.9-9.1
		C257.3,156.6,254,153.9,253.1,150.8z"/>
</g>
<g class="st3">
	<path class="st2" d="M251.6,160.4c0-3,2.2-6.2,1.5-9c-0.8-2.8-4.3-4.5-5.8-7c-1.5-2.5-1.2-6.4-3.2-8.5s-6-1.7-8.5-3.2
		c-2.5-1.4-4.2-5-7-5.8c-2.7-0.7-6,1.5-9,1.5c-3,0-6.2-2.2-9-1.5c-2.8,0.8-4.5,4.3-7,5.8c-2.5,1.5-6.4,1.2-8.5,3.2
		c-2,2-1.7,6-3.2,8.5c-1.4,2.5-5,4.2-5.8,7c-0.7,2.7,1.5,6,1.5,9c0,3-2.2,6.2-1.5,9c0.8,2.8,4.3,4.5,5.8,7c1.5,2.5,1.2,6.4,3.2,8.5
		s6,1.7,8.5,3.2c2.5,1.4,4.2,5,7,5.8c2.7,0.7,6-1.5,9-1.5c3,0,6.2,2.2,9,1.5c2.8-0.8,4.5-4.3,7-5.8c2.5-1.5,6.4-1.2,8.5-3.2
		c2-2,1.7-6,3.2-8.5c1.4-2.5,5-4.2,5.8-7C253.8,166.6,251.6,163.4,251.6,160.4z"/>
</g>
<g class="st1">
	<path class="st2" d="M137.9,196.6c-0.7-2.3,0.3-5.4-0.9-7.4c-1.2-2.1-4.4-2.6-6.1-4.2c-1.7-1.6-2.4-4.8-4.4-5.9
		c-2.1-1.1-5.1,0-7.4-0.6c-2.3-0.6-4.4-3-6.8-2.9c-2.3,0-4.4,2.5-6.7,3.2c-2.3,0.7-5.4-0.3-7.4,0.9c-2.1,1.2-2.6,4.4-4.2,6.1
		c-1.6,1.7-4.8,2.4-5.9,4.4c-1.1,2.1,0,5.1-0.6,7.4c-0.6,2.3-3,4.4-2.9,6.8c0,2.3,2.5,4.4,3.2,6.7c0.7,2.3-0.3,5.4,0.9,7.4
		c1.2,2.1,4.4,2.6,6.1,4.2c1.7,1.6,2.4,4.8,4.4,5.9c2.1,1.1,5.1,0,7.4,0.6c2.3,0.6,4.4,3,6.8,2.9c2.3,0,4.4-2.5,6.7-3.2
		c2.3-0.7,5.4,0.3,7.4-0.9c2.1-1.2,2.6-4.4,4.2-6.1c1.6-1.7,4.8-2.4,5.9-4.4c1.1-2.1,0-5.1,0.6-7.4c0.6-2.3,3-4.4,2.9-6.8
		C141,201,138.5,199,137.9,196.6z"/>
</g>
<g class="st4">
	<path class="st2" d="M136.8,203.8c0-2.2,1.7-4.7,1.1-6.7c-0.6-2.1-3.2-3.4-4.3-5.3c-1.1-1.9-0.9-4.8-2.4-6.4
		c-1.5-1.5-4.5-1.3-6.4-2.4c-1.9-1.1-3.1-3.8-5.3-4.3c-2.1-0.6-4.5,1.1-6.7,1.1c-2.2,0-4.7-1.7-6.7-1.1c-2.1,0.6-3.4,3.2-5.3,4.3
		c-1.9,1.1-4.8,0.9-6.4,2.4c-1.5,1.5-1.3,4.5-2.4,6.4c-1.1,1.9-3.8,3.1-4.3,5.3c-0.6,2.1,1.1,4.5,1.1,6.7c0,2.2-1.7,4.7-1.1,6.7
		c0.6,2.1,3.2,3.4,4.3,5.3c1.1,1.9,0.9,4.8,2.4,6.4c1.5,1.5,4.5,1.3,6.4,2.4c1.9,1.1,3.1,3.8,5.3,4.3c2.1,0.6,4.5-1.1,6.7-1.1
		c2.2,0,4.7,1.7,6.7,1.1c2.1-0.6,3.4-3.2,5.3-4.3c1.9-1.1,4.8-0.9,6.4-2.4c1.5-1.5,1.3-4.5,2.4-6.4c1.1-1.9,3.8-3.1,4.3-5.3
		C138.4,208.5,136.8,206.1,136.8,203.8z"/>
</g>
<g class="st1">
	<path class="st2" d="M339.3,35c-1.1-3.9,0.6-9-1.4-12.3c-2.1-3.4-7.4-4.3-10.2-7c-2.9-2.7-3.9-8-7.4-9.9c-3.4-1.9-8.5,0-12.3-1
		c-3.8-0.9-7.3-5-11.3-4.9c-3.9,0.1-7.3,4.2-11.1,5.3c-3.9,1.1-9-0.6-12.3,1.4c-3.4,2.1-4.3,7.4-7,10.2c-2.7,2.9-8,3.9-9.9,7.4
		c-1.9,3.4,0,8.5-1,12.3c-0.9,3.8-5,7.3-4.9,11.3c0.1,3.9,4.2,7.3,5.3,11.1c1.1,3.9-0.6,9,1.4,12.3c2.1,3.4,7.4,4.3,10.2,7
		c2.9,2.7,3.9,8,7.4,9.9c3.4,1.9,8.5,0,12.3,1c3.8,0.9,7.3,5,11.3,4.9c3.9-0.1,7.3-4.2,11.1-5.3c3.9-1.1,9,0.6,12.3-1.4
		c3.4-2.1,4.3-7.4,7-10.2c2.7-2.9,8-3.9,9.9-7.4c1.9-3.4,0-8.5,1-12.3c0.9-3.8,5-7.3,4.9-11.3C344.5,42.3,340.4,38.9,339.3,35z"/>
</g>
<g class="st5">
	<path class="st2" d="M337.4,47.1c0-3.7,2.8-7.8,1.9-11.2c-0.9-3.6-5.4-5.7-7.2-8.8c-1.8-3.2-1.4-8.1-4-10.6
		c-2.6-2.6-7.5-2.2-10.6-4c-3.1-1.8-5.2-6.3-8.8-7.2c-3.4-0.9-7.5,1.9-11.2,1.9c-3.7,0-7.8-2.8-11.2-1.9c-3.6,0.9-5.7,5.4-8.8,7.2
		c-3.2,1.8-8.1,1.4-10.6,4c-2.6,2.6-2.2,7.5-4,10.6c-1.8,3.1-6.3,5.2-7.2,8.8c-0.9,3.4,1.9,7.5,1.9,11.2c0,3.7-2.8,7.8-1.9,11.2
		c0.9,3.6,5.4,5.7,7.2,8.8c1.8,3.2,1.4,8.1,4,10.6c2.6,2.6,7.5,2.2,10.6,4c3.1,1.8,5.2,6.3,8.8,7.2c3.4,0.9,7.5-1.9,11.2-1.9
		c3.7,0,7.8,2.8,11.2,1.9c3.6-0.9,5.7-5.4,8.8-7.2c3.2-1.8,8.1-1.4,10.6-4c2.6-2.6,2.2-7.5,4-10.6c1.8-3.1,6.3-5.2,7.2-8.8
		C340.2,54.8,337.4,50.8,337.4,47.1z"/>
</g>
</svg>
