<?xml version="1.0" encoding="utf-8"?>
<!-- Generator: Adobe Illustrator 22.0.0, SVG Export Plug-In . SVG Version: 6.00 Build 0)  -->
<svg version="1.1" id="Layer_1" xmlns="http://www.w3.org/2000/svg" xmlns:xlink="http://www.w3.org/1999/xlink" x="0px" y="0px"
	 viewBox="0 0 1440 780" style="enable-background:new 0 0 1440 780;" xml:space="preserve">
<style type="text/css">
	.st0{fill:#EFEBEA;}
	.st1{opacity:0.2;fill:#FF2832;enable-background:new    ;}
	.st2{fill:none;stroke:#FF2832;stroke-width:1.0406;stroke-miterlimit:10;}
	.st3{fill:#FF2832;}
	.st4{opacity:0.2;fill:#009632;enable-background:new    ;}
	.st5{fill:none;stroke:#009632;stroke-width:1.0406;stroke-miterlimit:10;}
	.st6{fill:#009632;}
	.st7{opacity:0.2;fill:#FFC800;enable-background:new    ;}
	.st8{fill:none;stroke:#FFC800;stroke-width:1.0406;stroke-miterlimit:10;}
	.st9{fill:#FFC800;}
	.st10{fill:none;}
</style>
<g>
	<g>
		<path class="st0" d="M441.1,207.2c-0.3-3.5-1.7-11-1.7-11l-0.4-2.9l0,0c0,0-1.6-18.1-2-25.9c-0.5-7.7-3.8-16.9-5.3-22.5
			s3.3-17.8-1-33c-2.5-9.5,0-18.4-5.1-25c-5.6-7.2-11.6-6.4-14.1-6.8l0,0c-2.9-0.5-6.3-1-8.4-1.9c-5.1-2.2-8.3-4.4-11.2-5.7
			c-2.1-0.9-2.3-7.1-2.2-10.8c1.7-1.1,3-2.3,3.7-3.3c1-1.6,1.8-6.1,2.2-10.2c0.4,0.1,0.9,0,1.7-0.4c1.9-0.9,2.5-6.4,1.2-8.9
			c-0.1-0.2-0.2-0.4-0.4-0.6c0.7-5.5,1.4-14.7-1.4-18.8c-4-6.1-13-6.3-16-6.6c-4-0.4-11.2-0.3-13,4.2c-8.4,0.8-7.4,14.1-6.2,21.2
			c-0.1,0.1-0.2,0.3-0.3,0.5c-1.3,2.5-0.7,7.9,1.2,8.9c0.9,0.4,1.5,0.5,1.8,0.4c0.4,4.1,1.2,8.6,2.2,10.2c0.7,1,1.9,2.2,3.6,3.3
			c0.1,3.7-0.1,9.9-2.2,10.8c-2.9,1.3-6.1,3.5-11.2,5.7c-2.1,0.9-5.5,1.4-8.4,1.9c-2.5,0.3-8.6-0.4-14.1,6.8
			c-5.1,6.6-2.7,15.6-5.1,25c-4.3,15.3,0.5,27.4-1,33s-4.8,14.8-5.3,22.5s-2,25.9-2,25.9l0,0l-0.4,2.9c0,0-1.4,7.5-1.7,11
			c-0.2,2.3,0.3,5.8,1.8,8.9c2.7,5.3,8.1,9.3,8.1,9.3c0.7,0.8,4.9,1.2,2.6-1.8c-4.5-5.9-5-9.9-5-9.9s-0.6-4.8,0.8-4.8
			c1.1-0.1,2.3,2.4,2.7,3.6c0.8,2.3,1.1,5.9,2.7,5.1c0.6-0.3,0.4-1,0.3-2.4c0-0.7,0.2-1.9,0.1-2.6c-0.1-0.6-0.9-3.8-1.2-4.8
			c-0.3-1-1.6-4.8-2-5.8c-0.4-1.1-0.8-3.1-0.7-4.6c0.1-1.5,2.7-10.4,3.9-13c0.8-1.9,9.7-13.9,11.3-37.6c0.4-5.6,1.8-13.5,2.7-21.1
			c0.7,3.5,1.3,6.9,1.4,9.5c0.3,7.8,2.6,19.3,1.9,25.2c-1.6,13.6-5.1,13.2-5.1,35.6c0,14.8-0.6,42.2,7,74.9
			c1.1,4.8,0.1,11.4-0.5,16.3c-1.1,9.2,1.6,21.5,7.2,49.4c5.4,26.8-11.1,23.7-8.3,30c1.2,2.6,16.3,1.8,21,1.6
			c1.4-0.1,2.5-1.2,2.6-2.5c0.1-1.4-0.6-3-1.9-7.2c-1.5-4.8-0.9-11.9-0.9-11.9s3-43.6,3-49.8c0-7-0.5-11.7-1-14.5
			c-0.4-2.4-0.6-4.8,0-7.2c4.4-19.6,4.4-69.6,4.4-69.7h4.7c0,0,0.1,50,4.4,69.7c0.5,2.4,0.4,4.8,0,7.2c-0.5,2.8-1,7.5-1,14.5
			c0,6.2,3,49.8,3,49.8s0.6,7.1-0.9,11.9c-1.3,4.1-2,5.7-1.9,7.2c0.1,1.4,1.2,2.5,2.6,2.5c4.7,0.2,19.8,1,21-1.6
			c2.8-6.3-13.7-3.2-8.3-30c5.7-27.9,8.3-40.2,7.2-49.4c-0.6-4.9-1.6-11.5-0.5-16.3c7.6-32.6,7-60.1,7-74.9
			c0-22.5-3.5-22.1-5.1-35.6c-0.7-5.8,1.7-17.3,1.9-25.2c0.1-2.6,0.7-6,1.4-9.5c0.9,7.6,2.3,15.6,2.7,21.1
			c1.6,23.7,11,36.4,11.8,38.1c0.9,2.2,3.4,11,3.4,12.6c0.1,1.5-0.3,3.5-0.7,4.6c-0.3,1-1.7,4.8-2,5.8s-1.1,4.1-1.2,4.8
			s0.2,1.9,0.1,2.6c-0.1,1.4-0.3,2.1,0.3,2.4c1.6,0.7,1.9-2.8,2.7-5.1c0.4-1.2,1.6-3.7,2.7-3.6c1.3,0.1,0.8,4.8,0.8,4.8
			s-0.5,4-5,9.9c-2.3,3,1.9,2.6,2.6,1.8c0,0,5.4-4.1,8.1-9.3C440.9,213,441.3,209.5,441.1,207.2z"/>
		<circle class="st1" cx="379.7" cy="37.9" r="14.7"/>
		<circle class="st1" cx="379.7" cy="168.7" r="14.7"/>
		<g>
			<path class="st2" d="M383.5,46.4c0,9.5-7.3,9.5-7.3,19.1c0,9.5,7.3,9.5,7.3,19.1s-7.3,9.6-7.3,19.1c0,9.6,7.3,9.6,7.3,19.1
				c0,9.6-7.3,9.6-7.3,19.1s7.3,9.6,7.3,19.1"/>
		</g>
		<g>
			<path class="st2" d="M376.2,161c0-9.5,7.3-9.5,7.3-19.1c0-9.5-7.3-9.5-7.3-19.1s7.3-9.6,7.3-19.1c0-9.6-7.3-9.6-7.3-19.1
				c0-9.6,7.3-9.6,7.3-19.1s-7.3-9.6-7.3-19.1"/>
		</g>
		<circle class="st3" cx="379.7" cy="37.9" r="9.2"/>
		<circle class="st3" cx="379.7" cy="168.7" r="9.2"/>
	</g>
	<g>
		<path class="st0" d="M716.6,207.2c-0.3-3.5-1.7-11-1.7-11l-0.4-2.9l0,0c0,0-1.6-18.1-2-25.9c-0.5-7.7-3.8-16.9-5.3-22.5
			s3.3-17.8-1-33c-2.5-9.5,0-18.4-5.1-25c-5.6-7.2-11.6-6.4-14.1-6.8l0,0c-2.9-0.5-6.3-1-8.4-1.9c-5.1-2.2-8.3-4.4-11.2-5.7
			c-2.1-0.9-2.3-7.1-2.2-10.8c1.7-1.1,3-2.3,3.7-3.3c1-1.6,1.8-6.1,2.2-10.2c0.4,0.1,0.9,0,1.7-0.4c1.9-0.9,2.5-6.4,1.2-8.9
			c-0.1-0.2-0.2-0.4-0.4-0.6c0.7-5.5,1.4-14.7-1.4-18.8c-4-6.1-13-6.3-16-6.6c-4-0.4-11.2-0.3-13,4.2c-8.4,0.8-7.4,14.1-6.2,21.2
			c-0.1,0.1-0.2,0.3-0.3,0.5c-1.3,2.5-0.7,7.9,1.2,8.9c0.9,0.4,1.5,0.5,1.8,0.4c0.4,4.1,1.2,8.6,2.2,10.2c0.7,1,1.9,2.2,3.6,3.3
			c0.1,3.7-0.1,9.9-2.2,10.8c-2.9,1.3-6.1,3.5-11.2,5.7c-2.1,0.9-5.5,1.4-8.4,1.9c-2.5,0.3-8.6-0.4-14.1,6.8
			c-5.1,6.6-2.7,15.6-5.1,25c-4.3,15.3,0.5,27.4-1,33s-4.8,14.8-5.3,22.5s-2,25.9-2,25.9l0,0l-0.4,2.9c0,0-1.4,7.5-1.7,11
			c-0.2,2.3,0.3,5.8,1.8,8.9c2.7,5.3,8.1,9.3,8.1,9.3c0.7,0.8,4.9,1.2,2.6-1.8c-4.5-5.9-5-9.9-5-9.9s-0.6-4.8,0.8-4.8
			c1.1-0.1,2.3,2.4,2.7,3.6c0.8,2.3,1.1,5.9,2.7,5.1c0.6-0.3,0.4-1,0.3-2.4c0-0.7,0.2-1.9,0.1-2.6c-0.1-0.6-0.9-3.8-1.2-4.8
			s-1.6-4.8-2-5.8c-0.4-1.1-0.8-3.1-0.7-4.6s2.7-10.4,3.9-13c0.8-1.9,9.7-13.9,11.3-37.6c0.4-5.6,1.8-13.5,2.7-21.1
			c0.7,3.5,1.3,6.9,1.4,9.5c0.3,7.8,2.6,19.3,1.9,25.2c-1.6,13.6-5.1,13.2-5.1,35.6c0,14.8-0.6,42.2,7,74.9
			c1.1,4.8,0.1,11.4-0.5,16.3c-1.1,9.2,1.6,21.5,7.2,49.4c5.4,26.8-11.1,23.7-8.3,30c1.2,2.6,16.3,1.8,21,1.6
			c1.4-0.1,2.5-1.2,2.6-2.5c0.1-1.4-0.6-3-1.9-7.2c-1.5-4.8-0.9-11.9-0.9-11.9s3-43.6,3-49.8c0-7-0.5-11.7-1-14.5
			c-0.4-2.4-0.6-4.8,0-7.2c4.4-19.6,4.4-69.6,4.4-69.7h4.7c0,0,0.1,50,4.4,69.7c0.5,2.4,0.4,4.8,0,7.2c-0.5,2.8-1,7.5-1,14.5
			c0,6.2,3,49.8,3,49.8s0.6,7.1-0.9,11.9c-1.3,4.1-2,5.7-1.9,7.2c0.1,1.4,1.2,2.5,2.6,2.5c4.7,0.2,19.8,1,21-1.6
			c2.8-6.3-13.7-3.2-8.3-30c5.7-27.9,8.3-40.2,7.2-49.4c-0.6-4.9-1.6-11.5-0.5-16.3c7.6-32.6,7-60.1,7-74.9
			c0-22.5-3.5-22.1-5.1-35.6c-0.7-5.8,1.7-17.3,1.9-25.2c0.1-2.6,0.7-6,1.4-9.5c0.9,7.6,2.3,15.6,2.7,21.1
			c1.6,23.7,11,36.4,11.8,38.1c0.9,2.2,3.4,11,3.4,12.6c0.1,1.5-0.3,3.5-0.7,4.6c-0.3,1-1.7,4.8-2,5.8s-1.1,4.1-1.2,4.8
			c-0.1,0.7,0.2,1.9,0.1,2.6c-0.1,1.4-0.3,2.1,0.3,2.4c1.6,0.7,1.9-2.8,2.7-5.1c0.4-1.2,1.6-3.7,2.7-3.6c1.3,0.1,0.8,4.8,0.8,4.8
			s-0.5,4-5,9.9c-2.3,3,1.9,2.6,2.6,1.8c0,0,5.4-4.1,8.1-9.3C716.3,213,716.8,209.5,716.6,207.2z"/>
		<circle class="st1" cx="655.2" cy="37.9" r="14.7"/>
		<circle class="st1" cx="655.2" cy="168.7" r="14.7"/>
		<g>
			<path class="st2" d="M658.9,46.4c0,9.5-7.3,9.5-7.3,19.1c0,9.5,7.3,9.5,7.3,19.1s-7.3,9.6-7.3,19.1c0,9.6,7.3,9.6,7.3,19.1
				c0,9.6-7.3,9.6-7.3,19.1s7.3,9.6,7.3,19.1"/>
		</g>
		<g>
			<path class="st2" d="M651.7,161c0-9.5,7.3-9.5,7.3-19.1c0-9.5-7.3-9.5-7.3-19.1s7.3-9.6,7.3-19.1c0-9.6-7.3-9.6-7.3-19.1
				c0-9.6,7.3-9.6,7.3-19.1s-7.3-9.6-7.3-19.1"/>
		</g>
		<circle class="st3" cx="655.2" cy="37.9" r="9.2"/>
		<circle class="st3" cx="655.2" cy="168.7" r="9.2"/>
	</g>
	<g>
		<path class="st0" d="M570.7,206.8c-0.2-3.5-1.4-11-1.4-11l-0.3-3l0.1,0.1c0,0-0.9-18.2-1.1-26c-0.2-7.8-3.5-18.3-4.8-23.9
			c-1.3-5.7-1.7-16.8-1.5-30.2c0.2-13.8-0.8-24.6-3.2-28c-2.8-4-8.4-5.4-10.6-5.9c-1.7-0.5-3.6-1-5.6-1.6c0,0,0,0,0-0.1
			c2.5-6.5,2.5-13.8,0.1-20.4c-0.7-1.9-1.5-3.7-2-5.7c-0.7-3-0.4-6-0.5-9.1c-0.2-5.4-0.6-12.2-3.2-17.1c-2.1-4-5.2-8-10-8.4
			c-1.1-0.1-1.6,0.2-2.5-0.4c-1-0.6-3.1-2.4-6.3-2.9c-9.5-1.5-17.7,4.1-21.6,12.7c-2.9,6.3-3.1,13.4-2.9,20.3c0.1,2.9,0.2,5.8-1,8.4
			c-1.7,3.8-5.9,5.9-8.3,9.3c-1.9,2.7-2.5,6.2-2.7,9.5c-0.1,2.2,0,4.4,0.5,6.5c-1.1,0.5-2.3,1.2-3.3,2.1l0,0l0,0
			c-0.2,0.1-0.3,0.3-0.5,0.5l0,0c-0.1,0.1-0.3,0.3-0.4,0.4l-0.1,0.1c-0.1,0.1-0.2,0.2-0.3,0.4c0,0.1-0.1,0.1-0.1,0.2
			c-0.1,0.2-0.3,0.4-0.4,0.5c-2.4,3.4-3.4,14.6-3.2,28.4c0.2,13.5-0.2,24.6-1.5,30.2c-1.3,5.7-4.6,16.2-4.8,23.9c0,0.2,0,0.3,0,0.5
			v0.1c0,0.2,0,0.4,0,0.5v0.1c0,0.2,0,0.3,0,0.5v0.1c0,0.2,0,0.4,0,0.6v0.1c0,0.2,0,0.4,0,0.5v0.1c0,0.2,0,0.4,0,0.6
			c0,0.1,0,0.1,0,0.2c0,0.2,0,0.4,0,0.6l0,0c0,0.2,0,0.5,0,0.7v0.1c0,0.2,0,0.5,0,0.7l0,0c0,0.3,0,0.5,0,0.8l0,0c0,0.5,0,1-0.1,1.6
			v0.1c0,0.8-0.1,1.6-0.1,2.5l0,0c0,0.3,0,0.5,0,0.8l0,0c-0.3,7.1-0.7,13.9-0.7,13.9l0,0l-0.3,2.9c0,0-1.2,7.5-1.4,11
			c-0.1,2.3,0.5,5.8,2.1,8.8c2.9,5.2,7.2,7.8,7.2,7.8c0.7,0.7,4.9,1,2.6-1.9c-4.7-5.8-4.1-8.5-4.1-8.5s-0.7-4.8,0.6-4.9
			c1.1-0.1,2.4,2.3,2.8,3.6c0.9,2.3,1.4,5.8,2.9,5c0.6-0.3,0.3-1,0.2-2.4c-0.1-0.7,0.1-1.9,0-2.6c-0.1-0.6-1-3.8-1.3-4.7
			c-0.3-1-1.8-4.7-2.2-5.7c-0.5-1.1-0.9-3.1-0.9-4.6s2.5-10.9,3-12.7c0.4-1.8,10.5-27.9,10.5-38.6c0-5.3,0.4-13.5,0.7-21.2
			c1,5.3,2.2,11.4,3,14.1c1.1,3.7,1.5,12.3-1.5,18.5c-0.2,0.4-0.4,0.7-0.6,1.1c-0.9,1.6-1.8,3.1-2.5,4.7
			c-7.4,14.6-8.1,27.2-8.1,36.4c0,1.5,0.1,3,0.2,4.8l0,0c0-0.2,0-0.4,0-0.5c0.4,5.5,1.5,13,3.7,25.9c-0.2-0.8-0.3-1.2-0.3-1.2
			c1.7,10.2,4.2,23.8,7.6,42.6c0.9,4.8,1.1,9.7,0.7,14.6c-0.8,9,0.2,21.9,5.8,49.9c2.3,11.4,1.2,17.7-0.7,21.6l0,0
			c-2.7,5.5-6.9,6.2-5.5,9.9c2.2,2.6,13,1.7,17.7,1.5c1.3-0.1,2.4-0.2,3.1-2c0.5-1.3,0.6-2.1-1.7-7.5c-1.4-3.2-1.3-8.6-1.3-8.6
			s3.4-46.8,3.4-53.5c0-6.5-0.4-11.1-0.9-14.1c-0.5-2.9-0.5-5.8-0.2-8.7c0.5-4.3,1-10.2,1.5-16.8c0,0.2,0,0.4,0,0.6
			c2.7-33.6,3.2-55.3,3.2-55.3h4l-0.1,0.1c0,0,1.3,50.6,4.3,71.8c0.4,2.8,0.4,5.7,0,8.5c-0.4,2.9-0.9,7.4-0.9,13.9
			c0,6.2,3,49.9,3,49.9s0.4,5-0.3,9.5c-0.1,0.3-0.1,0.6-0.2,0.9c0,0,0.1-0.5,0.3-1.2c-0.1,0.9-0.3,1.8-0.6,2.6
			c-1.3,4.1-2,5.7-1.9,7.2c0.1,1.4,1.2,2.5,2.6,2.5c4.7,0.2,16.8,1.2,18.1-1.4c2.9-6.3-12.9-4.3-6.2-31.6
			c6.7-27.7,7.4-40.7,6.3-49.9c-0.6-4.9-0.5-9.8,0.2-14.7c6.1-39.8,12.2-57.5,12.2-72.3c0-11.4-0.9-18.8-2.6-24.7l0,0
			c-0.1-0.4-0.2-0.8-0.4-1.2l0,0c-0.4-1.2-0.8-2.3-1.2-3.4l0,0c-0.1-0.4-0.3-0.7-0.4-1.1l0,0c-0.3-0.7-0.6-1.4-1-2.1l0,0
			c-0.2-0.3-0.3-0.7-0.5-1c0,0,0,0,0-0.1c-0.2-0.3-0.3-0.7-0.5-1c0,0,0,0,0-0.1c-0.4-0.7-0.7-1.4-1.1-2.1c0,0,0,0,0-0.1
			c-0.2-0.3-0.4-0.7-0.6-1v-0.1c-0.2-0.3-0.4-0.7-0.6-1v-0.1c-0.2-0.4-0.4-0.7-0.6-1.1c-2.8-4.9-2.7-14-1.8-19.7
			c0-0.2,0.1-0.3,0.1-0.5v-0.1c0-0.2,0.1-0.3,0.1-0.5v-0.1c0-0.2,0.1-0.3,0.1-0.5v-0.1c0-0.2,0.1-0.4,0.1-0.6V135
			c0-0.2,0.1-0.4,0.1-0.6c0,0,0,0,0-0.1c0-0.2,0.1-0.4,0.1-0.7v-0.1c0-0.2,0.1-0.5,0.1-0.7l0,0c0.1-0.2,0.1-0.5,0.2-0.7V132
			c0.1-0.2,0.1-0.5,0.2-0.8v-0.1c0.1-0.2,0.1-0.5,0.2-0.7v-0.1c0.1-0.3,0.1-0.5,0.2-0.8v-0.1c0.1-0.3,0.1-0.5,0.2-0.8l0,0
			c0.1-0.3,0.1-0.6,0.2-0.8c0-0.1,0-0.1,0-0.2c0.1-0.3,0.1-0.6,0.2-0.8c0,0,0,0,0-0.1c0.1-0.3,0.1-0.5,0.2-0.8c0-0.1,0-0.1,0-0.2
			s0.1-0.3,0.1-0.4c0,0.3,0,0.6,0,0.9c0,0.1,0,0.1,0,0.2c0,0.4,0,0.8,0.1,1.2v0.1c0,0.4,0,0.8,0.1,1.3v0.1c0,0.4,0,0.8,0.1,1.3
			c0,0.1,0,0.1,0,0.2c0,0.4,0,0.8,0.1,1.2v0.1c0,0.4,0,0.8,0.1,1.3v0.1c0,0.4,0,0.9,0,1.3l0,0c0,0.4,0,0.8,0,1.2v0.1
			c0,0.4,0,0.8,0,1.2v0.1c0,0.4,0,0.8,0,1.1c0,0.1,0,0.1,0,0.2c0,0.4,0,0.7,0,1.1c0,0.1,0,0.1,0,0.2c0,0.4,0,0.7,0,1
			c0,0.1,0,0.1,0,0.2c0,0.3,0,0.7,0,1c0,0.1,0,0.1,0,0.2c0,0.3,0,0.6,0,1v0.1c0,0.3,0,0.6,0,0.9v0.1c0,0.3,0,0.6,0,0.9
			c0,0.2,0,0.5,0,0.7v0.1c0,0.2,0,0.5,0,0.7v0.1c0,0.3,0,0.5,0.1,0.8v0.1c0,0.3,0.1,0.5,0.1,0.8v0.1c0,0.3,0.1,0.6,0.1,0.9
			c0,0.1,0,0.1,0,0.2c0,0.3,0.1,0.6,0.1,0.9c0,0.1,0,0.1,0,0.2c0.1,0.3,0.1,0.6,0.2,1l0,0c0.1,0.3,0.1,0.6,0.2,1c0,0.1,0,0.1,0,0.2
			c0.1,0.3,0.1,0.6,0.2,1c0,0.1,0,0.1,0,0.2c0.1,0.3,0.1,0.7,0.2,1v0.1c0.1,0.3,0.2,0.7,0.2,1v0.1c0.1,0.3,0.2,0.7,0.3,1
			c0,0.1,0,0.1,0.1,0.2c0.1,0.3,0.2,0.7,0.3,1c0,0.1,0,0.1,0,0.2c0.1,0.4,0.2,0.7,0.3,1.1c0,0,0,0,0,0.1c0.1,0.4,0.2,0.7,0.3,1.1
			c0,0.1,0,0.1,0,0.2c0.1,0.4,0.2,0.7,0.3,1.1c0,0.1,0,0.1,0.1,0.2c0.1,0.4,0.2,0.7,0.3,1.1c0,0.1,0,0.1,0,0.2
			c0.1,0.4,0.2,0.7,0.3,1.1v0.1c0.1,0.4,0.2,0.7,0.3,1.1c0,0.1,0,0.1,0.1,0.2c0.1,0.3,0.2,0.7,0.3,1c0,0.1,0,0.1,0.1,0.2
			c0.1,0.4,0.2,0.7,0.3,1.1c0,0,0,0,0,0.1c0.1,0.3,0.2,0.7,0.3,1c0,0.1,0,0.1,0,0.2c0.1,0.3,0.2,0.7,0.3,1c0,0.1,0,0.1,0.1,0.2
			c0.1,0.3,0.2,0.7,0.3,1v0.1c0.1,0.3,0.2,0.6,0.3,1c0,0,0,0,0,0.1c0.1,0.3,0.2,0.6,0.3,0.9c0,0.1,0,0.1,0.1,0.2
			c0.1,0.3,0.2,0.6,0.3,0.9c0,0.1,0,0.1,0.1,0.2c0.1,0.3,0.2,0.6,0.3,0.9v0.1c0.1,0.3,0.2,0.5,0.3,0.8v0.1c0.1,0.3,0.2,0.5,0.3,0.8
			c0,0.1,0,0.1,0.1,0.2c0.1,0.3,0.2,0.5,0.3,0.7v0.1c0.1,0.2,0.2,0.5,0.2,0.7l0,0c0.8,2.3,1.5,4.7,2.1,7l0,0
			c0.1,0.4,0.2,0.8,0.3,1.2c0,0.1,0,0.1,0,0.2c0.1,0.3,0.2,0.6,0.2,1c0,0.1,0.1,0.2,0.1,0.3c0.1,0.3,0.1,0.6,0.2,0.8
			c0,0.1,0,0.2,0.1,0.3c0.1,0.3,0.2,0.7,0.2,1c0,0,0,0,0,0.1l0.4,1.9c0.3,1.3,0.5,2.4,0.7,3.2c0.4,2.4-0.6,3.6-0.9,4.6
			c-0.3,1-1.9,4.7-2.2,5.7s-1.3,4.1-1.3,4.7c-0.1,0.7,0.1,1.9,0,2.6c-0.1,1.4-0.4,2.1,0.2,2.4c1.6,0.8,2-2.8,2.9-5
			c0.5-1.2,1.7-3.7,2.8-3.6c1.3,0.1,0.6,4.9,0.6,4.9s0.6,2.7-4.1,8.5c-2.4,2.9,1.8,2.6,2.6,1.9c0,0,4.3-2.6,7.2-7.8
			C570.2,212.6,570.8,209,570.7,206.8z"/>
		<circle class="st1" cx="517.6" cy="37.9" r="14.7"/>
		<circle class="st1" cx="517.6" cy="168.8" r="14.7"/>
		<g>
			<path class="st2" d="M521.3,46.4c0,9.5-7.3,9.5-7.3,19.1c0,9.5,7.3,9.5,7.3,19.1s-7.3,9.6-7.3,19.1c0,9.6,7.3,9.6,7.3,19.1
				c0,9.6-7.3,9.6-7.3,19.1s7.3,9.6,7.3,19.1"/>
		</g>
		<g>
			<path class="st2" d="M514,161c0-9.5,7.3-9.5,7.3-19.1c0-9.5-7.3-9.5-7.3-19.1s7.3-9.6,7.3-19.1c0-9.6-7.3-9.6-7.3-19.1
				c0-9.6,7.3-9.6,7.3-19.1S514,56,514,46.4"/>
		</g>
		<circle class="st3" cx="517.6" cy="37.9" r="9.2"/>
		<circle class="st3" cx="517.6" cy="168.8" r="9.2"/>
	</g>
	<g>
		<path class="st0" d="M992.1,207.2c-0.3-3.5-1.7-11-1.7-11l-0.4-2.9l0,0c0,0-1.6-18.1-2-25.9c-0.5-7.7-3.8-16.9-5.3-22.5
			s3.3-17.8-1-33c-2.5-9.5,0-18.4-5.1-25c-5.6-7.2-11.6-6.4-14.1-6.8l0,0c-2.9-0.5-6.3-1-8.4-1.9c-5.1-2.2-8.3-4.4-11.2-5.7
			c-2.1-0.9-2.3-7.1-2.2-10.8c1.7-1.1,3-2.3,3.7-3.3c1-1.6,1.8-6.1,2.2-10.2c0.4,0.1,0.9,0,1.7-0.4c1.9-0.9,2.5-6.4,1.2-8.9
			c-0.1-0.2-0.2-0.4-0.4-0.6c0.7-5.5,1.4-14.7-1.4-18.8c-4-6.1-13-6.3-16-6.6c-4-0.4-11.2-0.3-13,4.2c-8.4,0.8-7.4,14.1-6.2,21.2
			c-0.1,0.1-0.2,0.3-0.3,0.5c-1.3,2.5-0.7,7.9,1.2,8.9c0.9,0.4,1.5,0.5,1.8,0.4c0.4,4.1,1.2,8.6,2.2,10.2c0.7,1,1.9,2.2,3.6,3.3
			c0.1,3.7-0.1,9.9-2.2,10.8c-2.9,1.3-6.1,3.5-11.2,5.7c-2.1,0.9-5.5,1.4-8.4,1.9c-2.5,0.3-8.6-0.4-14.1,6.8
			c-5.1,6.6-2.7,15.6-5.1,25c-4.3,15.3,0.5,27.4-1,33s-4.8,14.8-5.3,22.5s-2,25.9-2,25.9l0,0l-0.4,2.9c0,0-1.4,7.5-1.7,11
			c-0.2,2.3,0.3,5.8,1.8,8.9c2.7,5.3,8.1,9.3,8.1,9.3c0.7,0.8,4.9,1.2,2.6-1.8c-4.5-5.9-5-9.9-5-9.9s-0.6-4.8,0.8-4.8
			c1.1-0.1,2.3,2.4,2.7,3.6c0.8,2.3,1.1,5.9,2.7,5.1c0.6-0.3,0.4-1,0.3-2.4c0-0.7,0.2-1.9,0.1-2.6c-0.1-0.6-0.9-3.8-1.2-4.8
			s-1.6-4.8-2-5.8c-0.4-1.1-0.8-3.1-0.7-4.6s2.7-10.4,3.9-13c0.8-1.9,9.7-13.9,11.3-37.6c0.4-5.6,1.8-13.5,2.7-21.1
			c0.7,3.5,1.3,6.9,1.4,9.5c0.3,7.8,2.6,19.3,1.9,25.2c-1.6,13.6-5.1,13.2-5.1,35.6c0,14.8-0.6,42.2,7,74.9
			c1.1,4.8,0.1,11.4-0.5,16.3c-1.1,9.2,1.6,21.5,7.2,49.4c5.4,26.8-11.1,23.7-8.3,30c1.2,2.6,16.3,1.8,21,1.6
			c1.4-0.1,2.5-1.2,2.6-2.5c0.1-1.4-0.6-3-1.9-7.2c-1.5-4.8-0.9-11.9-0.9-11.9s3-43.6,3-49.8c0-7-0.5-11.7-1-14.5
			c-0.4-2.4-0.6-4.8,0-7.2c4.4-19.6,4.4-69.6,4.4-69.7h4.7c0,0,0.1,50,4.4,69.7c0.5,2.4,0.4,4.8,0,7.2c-0.5,2.8-1,7.5-1,14.5
			c0,6.2,3,49.8,3,49.8s0.6,7.1-0.9,11.9c-1.3,4.1-2,5.7-1.9,7.2c0.1,1.4,1.2,2.5,2.6,2.5c4.7,0.2,19.8,1,21-1.6
			c2.8-6.3-13.7-3.2-8.3-30c5.7-27.9,8.3-40.2,7.2-49.4c-0.6-4.9-1.6-11.5-0.5-16.3c7.6-32.6,7-60.1,7-74.9
			c0-22.5-3.5-22.1-5.1-35.6c-0.7-5.8,1.7-17.3,1.9-25.2c0.1-2.6,0.7-6,1.4-9.5c0.9,7.6,2.3,15.6,2.7,21.1
			c1.6,23.7,11,36.4,11.8,38.1c0.9,2.2,3.4,11,3.4,12.6c0.1,1.5-0.3,3.5-0.7,4.6c-0.3,1-1.7,4.8-2,5.8s-1.1,4.1-1.2,4.8
			c-0.1,0.7,0.2,1.9,0.1,2.6c-0.1,1.4-0.3,2.1,0.3,2.4c1.6,0.7,1.9-2.8,2.7-5.1c0.4-1.2,1.6-3.7,2.7-3.6c1.3,0.1,0.8,4.8,0.8,4.8
			s-0.5,4-5,9.9c-2.3,3,1.9,2.6,2.6,1.8c0,0,5.4-4.1,8.1-9.3C991.8,213,992.3,209.5,992.1,207.2z"/>
		<circle class="st4" cx="930.7" cy="37.9" r="14.7"/>
		<circle class="st4" cx="930.7" cy="168.7" r="14.7"/>
		<g>
			<path class="st5" d="M934.4,46.4c0,9.5-7.3,9.5-7.3,19.1c0,9.5,7.3,9.5,7.3,19.1s-7.3,9.6-7.3,19.1c0,9.6,7.3,9.6,7.3,19.1
				c0,9.6-7.3,9.6-7.3,19.1s7.3,9.6,7.3,19.1"/>
		</g>
		<g>
			<path class="st5" d="M927.1,161c0-9.5,7.3-9.5,7.3-19.1c0-9.5-7.3-9.5-7.3-19.1s7.3-9.6,7.3-19.1c0-9.6-7.3-9.6-7.3-19.1
				c0-9.6,7.3-9.6,7.3-19.1s-7.3-9.6-7.3-19.1"/>
		</g>
		<circle class="st6" cx="930.7" cy="37.9" r="9.2"/>
		<circle class="st6" cx="930.7" cy="168.7" r="9.2"/>
	</g>
	<g>
		<path class="st0" d="M846.2,206.8c-0.2-3.5-1.4-11-1.4-11l-0.3-3l0.1,0.1c0,0-0.9-18.2-1.1-26c-0.2-7.8-3.5-18.3-4.8-23.9
			c-1.3-5.7-1.7-16.8-1.5-30.2c0.2-13.8-0.8-24.6-3.2-28c-2.8-4-8.4-5.4-10.6-5.9c-1.7-0.5-3.6-1-5.6-1.6c0,0,0,0,0-0.1
			c2.5-6.5,2.5-13.8,0.1-20.4c-0.7-1.9-1.5-3.7-2-5.7c-0.7-3-0.4-6-0.5-9.1c-0.2-5.4-0.6-12.2-3.2-17.1c-2.1-4-5.2-8-10-8.4
			c-1.1-0.1-1.6,0.2-2.5-0.4c-1-0.6-3.1-2.4-6.3-2.9c-9.5-1.5-17.7,4.1-21.6,12.7c-2.9,6.3-3.1,13.4-2.9,20.3c0.1,2.9,0.2,5.8-1,8.4
			c-1.7,3.8-5.9,5.9-8.3,9.3c-1.9,2.7-2.5,6.2-2.7,9.5c-0.1,2.2,0,4.4,0.5,6.5c-1.1,0.5-2.3,1.2-3.3,2.1l0,0l0,0
			c-0.2,0.1-0.3,0.3-0.5,0.5l0,0c-0.1,0.1-0.3,0.3-0.4,0.4l-0.1,0.1c-0.1,0.1-0.2,0.2-0.3,0.4c0,0.1-0.1,0.1-0.1,0.2
			c-0.1,0.2-0.3,0.4-0.4,0.5c-2.4,3.4-3.4,14.6-3.2,28.4c0.2,13.5-0.2,24.6-1.5,30.2c-1.3,5.7-4.6,16.2-4.8,23.9c0,0.2,0,0.3,0,0.5
			v0.1c0,0.2,0,0.4,0,0.5v0.1c0,0.2,0,0.3,0,0.5v0.1c0,0.2,0,0.4,0,0.6v0.1c0,0.2,0,0.4,0,0.5v0.1c0,0.2,0,0.4,0,0.6
			c0,0.1,0,0.1,0,0.2c0,0.2,0,0.4,0,0.6l0,0c0,0.2,0,0.5,0,0.7v0.1c0,0.2,0,0.5,0,0.7l0,0c0,0.3,0,0.5,0,0.8l0,0c0,0.5,0,1-0.1,1.6
			v0.1c0,0.8-0.1,1.6-0.1,2.5l0,0c0,0.3,0,0.5,0,0.8l0,0c-0.3,7.1-0.7,13.9-0.7,13.9l0,0l-0.3,2.9c0,0-1.2,7.5-1.4,11
			c-0.1,2.3,0.5,5.8,2.1,8.8c2.9,5.2,7.2,7.8,7.2,7.8c0.7,0.7,4.9,1,2.6-1.9c-4.7-5.8-4.1-8.5-4.1-8.5s-0.7-4.8,0.6-4.9
			c1.1-0.1,2.4,2.3,2.8,3.6c0.9,2.3,1.4,5.8,2.9,5c0.6-0.3,0.3-1,0.2-2.4c-0.1-0.7,0.1-1.9,0-2.6c-0.1-0.6-1-3.8-1.3-4.7
			c-0.3-1-1.8-4.7-2.2-5.7c-0.5-1.1-0.9-3.1-0.9-4.6s2.5-10.9,3-12.7c0.4-1.8,10.5-27.9,10.5-38.6c0-5.3,0.4-13.5,0.7-21.2
			c1,5.3,2.2,11.4,3,14.1c1.1,3.7,1.5,12.3-1.5,18.5c-0.2,0.4-0.4,0.7-0.6,1.1c-0.9,1.6-1.8,3.1-2.5,4.7
			c-7.4,14.6-8.1,27.2-8.1,36.4c0,1.5,0.1,3,0.2,4.8l0,0c0-0.2,0-0.4,0-0.5c0.4,5.5,1.5,13,3.7,25.9c-0.2-0.8-0.3-1.2-0.3-1.2
			c1.7,10.2,4.2,23.8,7.6,42.6c0.9,4.8,1.1,9.7,0.7,14.6c-0.8,9,0.2,21.9,5.8,49.9c2.3,11.4,1.2,17.7-0.7,21.6l0,0
			c-2.7,5.5-6.9,6.2-5.5,9.9c2.2,2.6,13,1.7,17.7,1.5c1.3-0.1,2.4-0.2,3.1-2c0.5-1.3,0.6-2.1-1.7-7.5c-1.4-3.2-1.3-8.6-1.3-8.6
			s3.4-46.8,3.4-53.5c0-6.5-0.4-11.1-0.9-14.1c-0.5-2.9-0.5-5.8-0.2-8.7c0.5-4.3,1-10.2,1.5-16.8c0,0.2,0,0.4,0,0.6
			c2.7-33.6,3.2-55.3,3.2-55.3h4l-0.1,0.1c0,0,1.3,50.6,4.3,71.8c0.4,2.8,0.4,5.7,0,8.5c-0.4,2.9-0.9,7.4-0.9,13.9
			c0,6.2,3,49.9,3,49.9s0.4,5-0.3,9.5c-0.1,0.3-0.1,0.6-0.2,0.9c0,0,0.1-0.5,0.3-1.2c-0.1,0.9-0.3,1.8-0.6,2.6
			c-1.3,4.1-2,5.7-1.9,7.2c0.1,1.4,1.2,2.5,2.6,2.5c4.7,0.2,16.8,1.2,18.1-1.4c2.9-6.3-12.9-4.3-6.2-31.6
			c6.7-27.7,7.4-40.7,6.3-49.9c-0.6-4.9-0.5-9.8,0.2-14.7c6.1-39.8,12.2-57.5,12.2-72.3c0-11.4-0.9-18.8-2.6-24.7l0,0
			c-0.1-0.4-0.2-0.8-0.4-1.2l0,0c-0.4-1.2-0.8-2.3-1.2-3.4l0,0c-0.1-0.4-0.3-0.7-0.4-1.1l0,0c-0.3-0.7-0.6-1.4-1-2.1l0,0
			c-0.2-0.3-0.3-0.7-0.5-1c0,0,0,0,0-0.1c-0.2-0.3-0.3-0.7-0.5-1c0,0,0,0,0-0.1c-0.4-0.7-0.7-1.4-1.1-2.1c0,0,0,0,0-0.1
			c-0.2-0.3-0.4-0.7-0.6-1v-0.1c-0.2-0.3-0.4-0.7-0.6-1v-0.1c-0.2-0.4-0.4-0.7-0.6-1.1c-2.8-4.9-2.7-14-1.8-19.7
			c0-0.2,0.1-0.3,0.1-0.5v-0.1c0-0.2,0.1-0.3,0.1-0.5v-0.1c0-0.2,0.1-0.3,0.1-0.5v-0.1c0-0.2,0.1-0.4,0.1-0.6V135
			c0-0.2,0.1-0.4,0.1-0.6c0,0,0,0,0-0.1c0-0.2,0.1-0.4,0.1-0.7v-0.1c0-0.2,0.1-0.5,0.1-0.7l0,0c0.1-0.2,0.1-0.5,0.2-0.7V132
			c0.1-0.2,0.1-0.5,0.2-0.8v-0.1c0.1-0.2,0.1-0.5,0.2-0.7v-0.1c0.1-0.3,0.1-0.5,0.2-0.8v-0.1c0.1-0.3,0.1-0.5,0.2-0.8l0,0
			c0.1-0.3,0.1-0.6,0.2-0.8c0-0.1,0-0.1,0-0.2c0.1-0.3,0.1-0.6,0.2-0.8c0,0,0,0,0-0.1c0.1-0.3,0.1-0.5,0.2-0.8c0-0.1,0-0.1,0-0.2
			s0.1-0.3,0.1-0.4c0,0.3,0,0.6,0,0.9c0,0.1,0,0.1,0,0.2c0,0.4,0,0.8,0.1,1.2v0.1c0,0.4,0,0.8,0.1,1.3v0.1c0,0.4,0,0.8,0.1,1.3
			c0,0.1,0,0.1,0,0.2c0,0.4,0,0.8,0.1,1.2v0.1c0,0.4,0,0.8,0.1,1.3v0.1c0,0.4,0,0.9,0,1.3l0,0c0,0.4,0,0.8,0,1.2v0.1
			c0,0.4,0,0.8,0,1.2v0.1c0,0.4,0,0.8,0,1.1c0,0.1,0,0.1,0,0.2c0,0.4,0,0.7,0,1.1c0,0.1,0,0.1,0,0.2c0,0.4,0,0.7,0,1
			c0,0.1,0,0.1,0,0.2c0,0.3,0,0.7,0,1c0,0.1,0,0.1,0,0.2c0,0.3,0,0.6,0,1v0.1c0,0.3,0,0.6,0,0.9v0.1c0,0.3,0,0.6,0,0.9
			c0,0.2,0,0.5,0,0.7v0.1c0,0.2,0,0.5,0,0.7v0.1c0,0.3,0,0.5,0.1,0.8v0.1c0,0.3,0.1,0.5,0.1,0.8v0.1c0,0.3,0.1,0.6,0.1,0.9
			c0,0.1,0,0.1,0,0.2c0,0.3,0.1,0.6,0.1,0.9c0,0.1,0,0.1,0,0.2c0.1,0.3,0.1,0.6,0.2,1l0,0c0.1,0.3,0.1,0.6,0.2,1c0,0.1,0,0.1,0,0.2
			c0.1,0.3,0.1,0.6,0.2,1c0,0.1,0,0.1,0,0.2c0.1,0.3,0.1,0.7,0.2,1v0.1c0.1,0.3,0.2,0.7,0.2,1v0.1c0.1,0.3,0.2,0.7,0.3,1
			c0,0.1,0,0.1,0.1,0.2c0.1,0.3,0.2,0.7,0.3,1c0,0.1,0,0.1,0,0.2c0.1,0.4,0.2,0.7,0.3,1.1c0,0,0,0,0,0.1c0.1,0.4,0.2,0.7,0.3,1.1
			c0,0.1,0,0.1,0,0.2c0.1,0.4,0.2,0.7,0.3,1.1c0,0.1,0,0.1,0.1,0.2c0.1,0.4,0.2,0.7,0.3,1.1c0,0.1,0,0.1,0,0.2
			c0.1,0.4,0.2,0.7,0.3,1.1v0.1c0.1,0.4,0.2,0.7,0.3,1.1c0,0.1,0,0.1,0.1,0.2c0.1,0.3,0.2,0.7,0.3,1c0,0.1,0,0.1,0.1,0.2
			c0.1,0.4,0.2,0.7,0.3,1.1c0,0,0,0,0,0.1c0.1,0.3,0.2,0.7,0.3,1c0,0.1,0,0.1,0,0.2c0.1,0.3,0.2,0.7,0.3,1c0,0.1,0,0.1,0.1,0.2
			c0.1,0.3,0.2,0.7,0.3,1v0.1c0.1,0.3,0.2,0.6,0.3,1c0,0,0,0,0,0.1c0.1,0.3,0.2,0.6,0.3,0.9c0,0.1,0,0.1,0.1,0.2
			c0.1,0.3,0.2,0.6,0.3,0.9c0,0.1,0,0.1,0.1,0.2c0.1,0.3,0.2,0.6,0.3,0.9v0.1c0.1,0.3,0.2,0.5,0.3,0.8v0.1c0.1,0.3,0.2,0.5,0.3,0.8
			c0,0.1,0,0.1,0.1,0.2c0.1,0.3,0.2,0.5,0.3,0.7v0.1c0.1,0.2,0.2,0.5,0.2,0.7l0,0c0.8,2.3,1.5,4.7,2.1,7l0,0
			c0.1,0.4,0.2,0.8,0.3,1.2c0,0.1,0,0.1,0,0.2c0.1,0.3,0.2,0.6,0.2,1c0,0.1,0.1,0.2,0.1,0.3c0.1,0.3,0.1,0.6,0.2,0.8
			c0,0.1,0,0.2,0.1,0.3c0.1,0.3,0.2,0.7,0.2,1c0,0,0,0,0,0.1l0.4,1.9c0.3,1.3,0.5,2.4,0.7,3.2c0.4,2.4-0.6,3.6-0.9,4.6
			c-0.3,1-1.9,4.7-2.2,5.7s-1.3,4.1-1.3,4.7c-0.1,0.7,0.1,1.9,0,2.6c-0.1,1.4-0.4,2.1,0.2,2.4c1.6,0.8,2-2.8,2.9-5
			c0.5-1.2,1.7-3.7,2.8-3.6c1.3,0.1,0.6,4.9,0.6,4.9s0.6,2.7-4.1,8.5c-2.4,2.9,1.8,2.6,2.6,1.9c0,0,4.3-2.6,7.2-7.8
			C845.7,212.6,846.3,209,846.2,206.8z"/>
		<circle class="st4" cx="793" cy="37.9" r="14.7"/>
		<circle class="st4" cx="793" cy="168.8" r="14.7"/>
		<g>
			<path class="st5" d="M796.8,46.4c0,9.5-7.3,9.5-7.3,19.1c0,9.5,7.3,9.5,7.3,19.1s-7.3,9.6-7.3,19.1c0,9.6,7.3,9.6,7.3,19.1
				c0,9.6-7.3,9.6-7.3,19.1s7.3,9.6,7.3,19.1"/>
		</g>
		<g>
			<path class="st5" d="M789.5,161c0-9.5,7.3-9.5,7.3-19.1c0-9.5-7.3-9.5-7.3-19.1s7.3-9.6,7.3-19.1c0-9.6-7.3-9.6-7.3-19.1
				c0-9.6,7.3-9.6,7.3-19.1s-7.3-9.6-7.3-19.1"/>
		</g>
		<circle class="st6" cx="793" cy="37.9" r="9.2"/>
		<circle class="st6" cx="793" cy="168.8" r="9.2"/>
	</g>
	<g>
		<path class="st0" d="M1121.7,206.8c-0.2-3.5-1.4-11-1.4-11l-0.3-3l0.1,0.1c0,0-0.9-18.2-1.1-26s-3.5-18.3-4.8-23.9
			c-1.3-5.7-1.7-16.8-1.5-30.2c0.2-13.8-0.8-24.6-3.2-28c-2.8-4-8.4-5.4-10.6-5.9c-1.7-0.5-3.6-1-5.6-1.6c0,0,0,0,0-0.1
			c2.5-6.5,2.5-13.8,0.1-20.4c-0.7-1.9-1.5-3.7-2-5.7c-0.7-3-0.4-6-0.5-9.1c-0.2-5.4-0.6-12.2-3.2-17.1c-2.1-4-5.2-8-10-8.4
			c-1.1-0.1-1.6,0.2-2.5-0.4c-1-0.6-3.1-2.4-6.3-2.9c-9.5-1.5-17.7,4.1-21.6,12.7c-2.9,6.3-3.1,13.4-2.9,20.3c0.1,2.9,0.2,5.8-1,8.4
			c-1.7,3.8-5.9,5.9-8.3,9.3c-1.9,2.7-2.5,6.2-2.7,9.5c-0.1,2.2,0,4.4,0.5,6.5c-1.1,0.5-2.3,1.2-3.3,2.1l0,0l0,0
			c-0.2,0.1-0.3,0.3-0.5,0.5l0,0c-0.1,0.1-0.3,0.3-0.4,0.4l-0.1,0.1c-0.1,0.1-0.2,0.2-0.3,0.4c0,0.1-0.1,0.1-0.1,0.2
			c-0.1,0.2-0.3,0.4-0.4,0.5c-2.4,3.4-3.4,14.6-3.2,28.4c0.2,13.5-0.2,24.6-1.5,30.2c-1.3,5.7-4.6,16.2-4.8,23.9c0,0.2,0,0.3,0,0.5
			v0.1c0,0.2,0,0.4,0,0.5v0.1c0,0.2,0,0.3,0,0.5v0.1c0,0.2,0,0.4,0,0.6v0.1c0,0.2,0,0.4,0,0.5v0.1c0,0.2,0,0.4,0,0.6
			c0,0.1,0,0.1,0,0.2c0,0.2,0,0.4,0,0.6l0,0c0,0.2,0,0.5,0,0.7v0.1c0,0.2,0,0.5,0,0.7l0,0c0,0.3,0,0.5,0,0.8l0,0c0,0.5,0,1-0.1,1.6
			v0.1c0,0.8-0.1,1.6-0.1,2.5l0,0c0,0.3,0,0.5,0,0.8l0,0c-0.3,7.1-0.7,13.9-0.7,13.9l0,0l-0.3,2.9c0,0-1.2,7.5-1.4,11
			c-0.1,2.3,0.5,5.8,2.1,8.8c2.9,5.2,7.2,7.8,7.2,7.8c0.7,0.7,4.9,1,2.6-1.9c-4.7-5.8-4.1-8.5-4.1-8.5s-0.7-4.8,0.6-4.9
			c1.1-0.1,2.4,2.3,2.8,3.6c0.9,2.3,1.4,5.8,2.9,5c0.6-0.3,0.3-1,0.2-2.4c-0.1-0.7,0.1-1.9,0-2.6c-0.1-0.6-1-3.8-1.3-4.7
			c-0.3-1-1.8-4.7-2.2-5.7c-0.5-1.1-0.9-3.1-0.9-4.6s2.5-10.9,3-12.7c0.4-1.8,10.5-27.9,10.5-38.6c0-5.3,0.4-13.5,0.7-21.2
			c1,5.3,2.2,11.4,3,14.1c1.1,3.7,1.5,12.3-1.5,18.5c-0.2,0.4-0.4,0.7-0.6,1.1c-0.9,1.6-1.8,3.1-2.5,4.7
			c-7.4,14.6-8.1,27.2-8.1,36.4c0,1.5,0.1,3,0.2,4.8l0,0c0-0.2,0-0.4,0-0.5c0.4,5.5,1.5,13,3.7,25.9c-0.2-0.8-0.3-1.2-0.3-1.2
			c1.7,10.2,4.2,23.8,7.6,42.6c0.9,4.8,1.1,9.7,0.7,14.6c-0.8,9,0.2,21.9,5.8,49.9c2.3,11.4,1.2,17.7-0.7,21.6l0,0
			c-2.7,5.5-6.9,6.2-5.5,9.9c2.2,2.6,13,1.7,17.7,1.5c1.3-0.1,2.4-0.2,3.1-2c0.5-1.3,0.6-2.1-1.7-7.5c-1.4-3.2-1.3-8.6-1.3-8.6
			s3.4-46.8,3.4-53.5c0-6.5-0.4-11.1-0.9-14.1c-0.5-2.9-0.5-5.8-0.2-8.7c0.5-4.3,1-10.2,1.5-16.8c0,0.2,0,0.4,0,0.6
			c2.7-33.6,3.2-55.3,3.2-55.3h4l-0.1,0.1c0,0,1.3,50.6,4.3,71.8c0.4,2.8,0.4,5.7,0,8.5c-0.4,2.9-0.9,7.4-0.9,13.9
			c0,6.2,3,49.9,3,49.9s0.4,5-0.3,9.5c-0.1,0.3-0.1,0.6-0.2,0.9c0,0,0.1-0.5,0.3-1.2c-0.1,0.9-0.3,1.8-0.6,2.6
			c-1.3,4.1-2,5.7-1.9,7.2c0.1,1.4,1.2,2.5,2.6,2.5c4.7,0.2,16.8,1.2,18.1-1.4c2.9-6.3-12.9-4.3-6.2-31.6
			c6.7-27.7,7.4-40.7,6.3-49.9c-0.6-4.9-0.5-9.8,0.2-14.7c6.1-39.8,12.2-57.5,12.2-72.3c0-11.4-0.9-18.8-2.6-24.7l0,0
			c-0.1-0.4-0.2-0.8-0.4-1.2l0,0c-0.4-1.2-0.8-2.3-1.2-3.4l0,0c-0.1-0.4-0.3-0.7-0.4-1.1l0,0c-0.3-0.7-0.6-1.4-1-2.1l0,0
			c-0.2-0.3-0.3-0.7-0.5-1c0,0,0,0,0-0.1c-0.2-0.3-0.3-0.7-0.5-1c0,0,0,0,0-0.1c-0.4-0.7-0.7-1.4-1.1-2.1c0,0,0,0,0-0.1
			c-0.2-0.3-0.4-0.7-0.6-1v-0.1c-0.2-0.3-0.4-0.7-0.6-1v-0.1c-0.2-0.4-0.4-0.7-0.6-1.1c-2.8-4.9-2.7-14-1.8-19.7
			c0-0.2,0.1-0.3,0.1-0.5v-0.1c0-0.2,0.1-0.3,0.1-0.5v-0.1c0-0.2,0.1-0.3,0.1-0.5v-0.1c0-0.2,0.1-0.4,0.1-0.6V135
			c0-0.2,0.1-0.4,0.1-0.6c0,0,0,0,0-0.1c0-0.2,0.1-0.4,0.1-0.7v-0.1c0-0.2,0.1-0.5,0.1-0.7l0,0c0.1-0.2,0.1-0.5,0.2-0.7V132
			c0.1-0.2,0.1-0.5,0.2-0.8v-0.1c0.1-0.2,0.1-0.5,0.2-0.7v-0.1c0.1-0.3,0.1-0.5,0.2-0.8v-0.1c0.1-0.3,0.1-0.5,0.2-0.8l0,0
			c0.1-0.3,0.1-0.6,0.2-0.8c0-0.1,0-0.1,0-0.2c0.1-0.3,0.1-0.6,0.2-0.8c0,0,0,0,0-0.1c0.1-0.3,0.1-0.5,0.2-0.8c0-0.1,0-0.1,0-0.2
			s0.1-0.3,0.1-0.4c0,0.3,0,0.6,0,0.9c0,0.1,0,0.1,0,0.2c0,0.4,0,0.8,0.1,1.2v0.1c0,0.4,0,0.8,0.1,1.3v0.1c0,0.4,0,0.8,0.1,1.3
			c0,0.1,0,0.1,0,0.2c0,0.4,0,0.8,0.1,1.2v0.1c0,0.4,0,0.8,0.1,1.3v0.1c0,0.4,0,0.9,0,1.3l0,0c0,0.4,0,0.8,0,1.2v0.1
			c0,0.4,0,0.8,0,1.2v0.1c0,0.4,0,0.8,0,1.1c0,0.1,0,0.1,0,0.2c0,0.4,0,0.7,0,1.1c0,0.1,0,0.1,0,0.2c0,0.4,0,0.7,0,1
			c0,0.1,0,0.1,0,0.2c0,0.3,0,0.7,0,1c0,0.1,0,0.1,0,0.2c0,0.3,0,0.6,0,1v0.1c0,0.3,0,0.6,0,0.9v0.1c0,0.3,0,0.6,0,0.9
			c0,0.2,0,0.5,0,0.7v0.1c0,0.2,0,0.5,0,0.7v0.1c0,0.3,0,0.5,0.1,0.8v0.1c0,0.3,0.1,0.5,0.1,0.8v0.1c0,0.3,0.1,0.6,0.1,0.9
			c0,0.1,0,0.1,0,0.2c0,0.3,0.1,0.6,0.1,0.9c0,0.1,0,0.1,0,0.2c0.1,0.3,0.1,0.6,0.2,1l0,0c0.1,0.3,0.1,0.6,0.2,1c0,0.1,0,0.1,0,0.2
			c0.1,0.3,0.1,0.6,0.2,1c0,0.1,0,0.1,0,0.2c0.1,0.3,0.1,0.7,0.2,1v0.1c0.1,0.3,0.2,0.7,0.2,1v0.1c0.1,0.3,0.2,0.7,0.3,1
			c0,0.1,0,0.1,0.1,0.2c0.1,0.3,0.2,0.7,0.3,1c0,0.1,0,0.1,0,0.2c0.1,0.4,0.2,0.7,0.3,1.1c0,0,0,0,0,0.1c0.1,0.4,0.2,0.7,0.3,1.1
			c0,0.1,0,0.1,0,0.2c0.1,0.4,0.2,0.7,0.3,1.1c0,0.1,0,0.1,0.1,0.2c0.1,0.4,0.2,0.7,0.3,1.1c0,0.1,0,0.1,0,0.2
			c0.1,0.4,0.2,0.7,0.3,1.1v0.1c0.1,0.4,0.2,0.7,0.3,1.1c0,0.1,0,0.1,0.1,0.2c0.1,0.3,0.2,0.7,0.3,1c0,0.1,0,0.1,0.1,0.2
			c0.1,0.4,0.2,0.7,0.3,1.1c0,0,0,0,0,0.1c0.1,0.3,0.2,0.7,0.3,1c0,0.1,0,0.1,0,0.2c0.1,0.3,0.2,0.7,0.3,1c0,0.1,0,0.1,0.1,0.2
			c0.1,0.3,0.2,0.7,0.3,1v0.1c0.1,0.3,0.2,0.6,0.3,1c0,0,0,0,0,0.1c0.1,0.3,0.2,0.6,0.3,0.9c0,0.1,0,0.1,0.1,0.2
			c0.1,0.3,0.2,0.6,0.3,0.9c0,0.1,0,0.1,0.1,0.2c0.1,0.3,0.2,0.6,0.3,0.9v0.1c0.1,0.3,0.2,0.5,0.3,0.8v0.1c0.1,0.3,0.2,0.5,0.3,0.8
			c0,0.1,0,0.1,0.1,0.2c0.1,0.3,0.2,0.5,0.3,0.7v0.1c0.1,0.2,0.2,0.5,0.2,0.7l0,0c0.8,2.3,1.5,4.7,2.1,7l0,0
			c0.1,0.4,0.2,0.8,0.3,1.2c0,0.1,0,0.1,0,0.2c0.1,0.3,0.2,0.6,0.2,1c0,0.1,0.1,0.2,0.1,0.3c0.1,0.3,0.1,0.6,0.2,0.8
			c0,0.1,0,0.2,0.1,0.3c0.1,0.3,0.2,0.7,0.2,1c0,0,0,0,0,0.1l0.4,1.9c0.3,1.3,0.5,2.4,0.7,3.2c0.4,2.4-0.6,3.6-0.9,4.6
			s-1.9,4.7-2.2,5.7c-0.3,1-1.3,4.1-1.3,4.7c-0.1,0.7,0.1,1.9,0,2.6c-0.1,1.4-0.4,2.1,0.2,2.4c1.6,0.8,2-2.8,2.9-5
			c0.5-1.2,1.7-3.7,2.8-3.6c1.3,0.1,0.6,4.9,0.6,4.9s0.6,2.7-4.1,8.5c-2.4,2.9,1.8,2.6,2.6,1.9c0,0,4.3-2.6,7.2-7.8
			C1121.2,212.6,1121.8,209,1121.7,206.8z"/>
		<circle class="st4" cx="1068.5" cy="37.9" r="14.7"/>
		<circle class="st4" cx="1068.5" cy="168.8" r="14.7"/>
		<g>
			<path class="st5" d="M1072.3,46.4c0,9.5-7.3,9.5-7.3,19.1c0,9.5,7.3,9.5,7.3,19.1s-7.3,9.6-7.3,19.1c0,9.6,7.3,9.6,7.3,19.1
				c0,9.6-7.3,9.6-7.3,19.1s7.3,9.6,7.3,19.1"/>
		</g>
		<g>
			<path class="st5" d="M1065,161c0-9.5,7.3-9.5,7.3-19.1c0-9.5-7.3-9.5-7.3-19.1s7.3-9.6,7.3-19.1c0-9.6-7.3-9.6-7.3-19.1
				c0-9.6,7.3-9.6,7.3-19.1s-7.3-9.6-7.3-19.1"/>
		</g>
		<circle class="st6" cx="1068.5" cy="37.9" r="9.2"/>
		<circle class="st6" cx="1068.5" cy="168.8" r="9.2"/>
	</g>
	<g>
		<path class="st0" d="M441.1,580.6c-0.3-3.5-1.7-11-1.7-11l-0.4-2.9l0,0c0,0-1.6-18.1-2-25.9c-0.5-7.7-3.8-16.9-5.3-22.5
			s3.3-17.8-1-33c-2.5-9.5,0-18.4-5.1-25c-5.6-7.2-11.6-6.4-14.1-6.8l0,0c-2.9-0.5-6.3-1-8.4-1.9c-5.1-2.2-8.3-4.4-11.2-5.7
			c-2.1-0.9-2.3-7.1-2.2-10.8c1.7-1.1,3-2.3,3.7-3.3c1-1.6,1.8-6.1,2.2-10.2c0.4,0.1,0.9,0,1.7-0.4c1.9-0.9,2.5-6.4,1.2-8.9
			c-0.1-0.2-0.2-0.4-0.4-0.6c0.7-5.5,1.4-14.7-1.4-18.8c-4-6.1-13-6.3-16-6.6c-4-0.4-11.2-0.3-13,4.2c-8.4,0.8-7.4,14.1-6.2,21.2
			c-0.1,0.1-0.2,0.3-0.3,0.5c-1.3,2.5-0.7,7.9,1.2,8.9c0.9,0.4,1.5,0.5,1.8,0.4c0.4,4.1,1.2,8.6,2.2,10.2c0.7,1,1.9,2.2,3.6,3.3
			c0.1,3.7-0.1,9.9-2.2,10.8c-2.9,1.3-6.1,3.5-11.2,5.7c-2.1,0.9-5.5,1.4-8.4,1.9c-2.5,0.3-8.6-0.4-14.1,6.8
			c-5.1,6.6-2.7,15.6-5.1,25c-4.3,15.3,0.5,27.4-1,33s-4.8,14.8-5.3,22.5s-2,25.9-2,25.9l0,0l-0.4,2.9c0,0-1.4,7.5-1.7,11
			c-0.2,2.3,0.3,5.8,1.8,8.9c2.7,5.3,8.1,9.3,8.1,9.3c0.7,0.8,4.9,1.2,2.6-1.8c-4.5-5.9-5-9.9-5-9.9s-0.6-4.8,0.8-4.8
			c1.1-0.1,2.3,2.4,2.7,3.6c0.8,2.3,1.1,5.9,2.7,5.1c0.6-0.3,0.4-1,0.3-2.4c0-0.7,0.2-1.9,0.1-2.6c-0.1-0.6-0.9-3.8-1.2-4.8
			c-0.3-1-1.6-4.8-2-5.8c-0.4-1.1-0.8-3.1-0.7-4.6c0.1-1.5,2.7-10.4,3.9-13c0.8-1.9,9.7-13.9,11.3-37.6c0.4-5.6,1.8-13.5,2.7-21.1
			c0.7,3.5,1.3,6.9,1.4,9.5c0.3,7.8,2.6,19.3,1.9,25.2c-1.6,13.6-5.1,13.2-5.1,35.6c0,14.8-0.6,42.2,7,74.9
			c1.1,4.8,0.1,11.4-0.5,16.3c-1.1,9.2,1.6,21.5,7.2,49.4c5.4,26.8-11.1,23.7-8.3,30c1.2,2.6,16.3,1.8,21,1.6
			c1.4-0.1,2.5-1.2,2.6-2.5c0.1-1.4-0.6-3-1.9-7.2c-1.5-4.8-0.9-11.9-0.9-11.9s3-43.6,3-49.8c0-7-0.5-11.7-1-14.5
			c-0.4-2.4-0.6-4.8,0-7.2c4.4-19.6,4.4-69.6,4.4-69.7h4.7c0,0,0.1,50,4.4,69.7c0.5,2.4,0.4,4.8,0,7.2c-0.5,2.8-1,7.5-1,14.5
			c0,6.2,3,49.8,3,49.8s0.6,7.1-0.9,11.9c-1.3,4.1-2,5.7-1.9,7.2c0.1,1.4,1.2,2.5,2.6,2.5c4.7,0.2,19.8,1,21-1.6
			c2.8-6.3-13.7-3.2-8.3-30c5.7-27.9,8.3-40.2,7.2-49.4c-0.6-4.9-1.6-11.5-0.5-16.3c7.6-32.6,7-60.1,7-74.9
			c0-22.5-3.5-22.1-5.1-35.6c-0.7-5.8,1.7-17.3,1.9-25.2c0.1-2.6,0.7-6,1.4-9.5c0.9,7.6,2.3,15.6,2.7,21.1
			c1.6,23.7,11,36.4,11.8,38.1c0.9,2.2,3.4,11,3.4,12.6s-0.3,3.5-0.7,4.6c-0.3,1-1.7,4.8-2,5.8s-1.1,4.1-1.2,4.8s0.2,1.9,0.1,2.6
			c-0.1,1.4-0.3,2.1,0.3,2.4c1.6,0.7,1.9-2.8,2.7-5.1c0.4-1.2,1.6-3.7,2.7-3.6c1.3,0.1,0.8,4.8,0.8,4.8s-0.5,4-5,9.9
			c-2.3,3,1.9,2.6,2.6,1.8c0,0,5.4-4.1,8.1-9.3C440.9,586.4,441.3,582.9,441.1,580.6z"/>
		<circle class="st7" cx="379.7" cy="411.3" r="14.7"/>
		<circle class="st7" cx="379.7" cy="542.1" r="14.7"/>
		<g>
			<path class="st8" d="M383.5,419.8c0,9.5-7.3,9.5-7.3,19.1c0,9.5,7.3,9.5,7.3,19.1s-7.3,9.6-7.3,19.1c0,9.6,7.3,9.6,7.3,19.1
				c0,9.6-7.3,9.6-7.3,19.1c0,9.5,7.3,9.6,7.3,19.1"/>
		</g>
		<g>
			<path class="st8" d="M376.2,534.4c0-9.5,7.3-9.5,7.3-19.1c0-9.5-7.3-9.5-7.3-19.1s7.3-9.6,7.3-19.1c0-9.6-7.3-9.6-7.3-19.1
				c0-9.6,7.3-9.6,7.3-19.1c0-9.6-7.3-9.6-7.3-19.1"/>
		</g>
		<circle class="st9" cx="379.7" cy="411.3" r="9.2"/>
		<circle class="st9" cx="379.7" cy="542.1" r="9.2"/>
	</g>
	<g>
		<path class="st0" d="M716.6,580.6c-0.3-3.5-1.7-11-1.7-11l-0.4-2.9l0,0c0,0-1.6-18.1-2-25.9c-0.5-7.7-3.8-16.9-5.3-22.5
			s3.3-17.8-1-33c-2.5-9.5,0-18.4-5.1-25c-5.6-7.2-11.6-6.4-14.1-6.8l0,0c-2.9-0.5-6.3-1-8.4-1.9c-5.1-2.2-8.3-4.4-11.2-5.7
			c-2.1-0.9-2.3-7.1-2.2-10.8c1.7-1.1,3-2.3,3.7-3.3c1-1.6,1.8-6.1,2.2-10.2c0.4,0.1,0.9,0,1.7-0.4c1.9-0.9,2.5-6.4,1.2-8.9
			c-0.1-0.2-0.2-0.4-0.4-0.6c0.7-5.5,1.4-14.7-1.4-18.8c-4-6.1-13-6.3-16-6.6c-4-0.4-11.2-0.3-13,4.2c-8.4,0.8-7.4,14.1-6.2,21.2
			c-0.1,0.1-0.2,0.3-0.3,0.5c-1.3,2.5-0.7,7.9,1.2,8.9c0.9,0.4,1.5,0.5,1.8,0.4c0.4,4.1,1.2,8.6,2.2,10.2c0.7,1,1.9,2.2,3.6,3.3
			c0.1,3.7-0.1,9.9-2.2,10.8c-2.9,1.3-6.1,3.5-11.2,5.7c-2.1,0.9-5.5,1.4-8.4,1.9c-2.5,0.3-8.6-0.4-14.1,6.8
			c-5.1,6.6-2.7,15.6-5.1,25c-4.3,15.3,0.5,27.4-1,33s-4.8,14.8-5.3,22.5s-2,25.9-2,25.9l0,0l-0.4,2.9c0,0-1.4,7.5-1.7,11
			c-0.2,2.3,0.3,5.8,1.8,8.9c2.7,5.3,8.1,9.3,8.1,9.3c0.7,0.8,4.9,1.2,2.6-1.8c-4.5-5.9-5-9.9-5-9.9s-0.6-4.8,0.8-4.8
			c1.1-0.1,2.3,2.4,2.7,3.6c0.8,2.3,1.1,5.9,2.7,5.1c0.6-0.3,0.4-1,0.3-2.4c0-0.7,0.2-1.9,0.1-2.6c-0.1-0.6-0.9-3.8-1.2-4.8
			s-1.6-4.8-2-5.8c-0.4-1.1-0.8-3.1-0.7-4.6s2.7-10.4,3.9-13c0.8-1.9,9.7-13.9,11.3-37.6c0.4-5.6,1.8-13.5,2.7-21.1
			c0.7,3.5,1.3,6.9,1.4,9.5c0.3,7.8,2.6,19.3,1.9,25.2c-1.6,13.6-5.1,13.2-5.1,35.6c0,14.8-0.6,42.2,7,74.9
			c1.1,4.8,0.1,11.4-0.5,16.3c-1.1,9.2,1.6,21.5,7.2,49.4c5.4,26.8-11.1,23.7-8.3,30c1.2,2.6,16.3,1.8,21,1.6
			c1.4-0.1,2.5-1.2,2.6-2.5c0.1-1.4-0.6-3-1.9-7.2c-1.5-4.8-0.9-11.9-0.9-11.9s3-43.6,3-49.8c0-7-0.5-11.7-1-14.5
			c-0.4-2.4-0.6-4.8,0-7.2c4.4-19.6,4.4-69.6,4.4-69.7h4.7c0,0,0.1,50,4.4,69.7c0.5,2.4,0.4,4.8,0,7.2c-0.5,2.8-1,7.5-1,14.5
			c0,6.2,3,49.8,3,49.8s0.6,7.1-0.9,11.9c-1.3,4.1-2,5.7-1.9,7.2c0.1,1.4,1.2,2.5,2.6,2.5c4.7,0.2,19.8,1,21-1.6
			c2.8-6.3-13.7-3.2-8.3-30c5.7-27.9,8.3-40.2,7.2-49.4c-0.6-4.9-1.6-11.5-0.5-16.3c7.6-32.6,7-60.1,7-74.9
			c0-22.5-3.5-22.1-5.1-35.6c-0.7-5.8,1.7-17.3,1.9-25.2c0.1-2.6,0.7-6,1.4-9.5c0.9,7.6,2.3,15.6,2.7,21.1
			c1.6,23.7,11,36.4,11.8,38.1c0.9,2.2,3.4,11,3.4,12.6c0.1,1.5-0.3,3.5-0.7,4.6c-0.3,1-1.7,4.8-2,5.8s-1.1,4.1-1.2,4.8
			c-0.1,0.7,0.2,1.9,0.1,2.6c-0.1,1.4-0.3,2.1,0.3,2.4c1.6,0.7,1.9-2.8,2.7-5.1c0.4-1.2,1.6-3.7,2.7-3.6c1.3,0.1,0.8,4.8,0.8,4.8
			s-0.5,4-5,9.9c-2.3,3,1.9,2.6,2.6,1.8c0,0,5.4-4.1,8.1-9.3C716.3,586.4,716.8,582.9,716.6,580.6z"/>
		<circle class="st7" cx="655.2" cy="411.3" r="14.7"/>
		<circle class="st7" cx="655.2" cy="542.1" r="14.7"/>
		<g>
			<path class="st8" d="M658.9,419.8c0,9.5-7.3,9.5-7.3,19.1c0,9.5,7.3,9.5,7.3,19.1s-7.3,9.6-7.3,19.1c0,9.6,7.3,9.6,7.3,19.1
				c0,9.6-7.3,9.6-7.3,19.1c0,9.5,7.3,9.6,7.3,19.1"/>
		</g>
		<g>
			<path class="st8" d="M651.7,534.4c0-9.5,7.3-9.5,7.3-19.1c0-9.5-7.3-9.5-7.3-19.1s7.3-9.6,7.3-19.1c0-9.6-7.3-9.6-7.3-19.1
				c0-9.6,7.3-9.6,7.3-19.1c0-9.6-7.3-9.6-7.3-19.1"/>
		</g>
		<circle class="st9" cx="655.2" cy="411.3" r="9.2"/>
		<circle class="st9" cx="655.2" cy="542.1" r="9.2"/>
	</g>
	<g>
		<path class="st0" d="M570.7,580.1c-0.2-3.5-1.4-11-1.4-11l-0.3-3l0.1,0.1c0,0-0.9-18.2-1.1-26c-0.2-7.8-3.5-18.3-4.8-23.9
			c-1.3-5.7-1.7-16.8-1.5-30.2c0.2-13.8-0.8-24.6-3.2-28c-2.8-4-8.4-5.4-10.6-5.9c-1.7-0.5-3.6-1-5.6-1.6c0,0,0,0,0-0.1
			c2.5-6.5,2.5-13.8,0.1-20.4c-0.7-1.9-1.5-3.7-2-5.7c-0.7-3-0.4-6-0.5-9.1c-0.2-5.4-0.6-12.2-3.2-17.1c-2.1-4-5.2-8-10-8.4
			c-1.1-0.1-1.6,0.2-2.5-0.4c-1-0.6-3.1-2.4-6.3-2.9c-9.5-1.5-17.7,4.1-21.6,12.7c-2.9,6.3-3.1,13.4-2.9,20.3c0.1,2.9,0.2,5.8-1,8.4
			c-1.7,3.8-5.9,5.9-8.3,9.3c-1.9,2.7-2.5,6.2-2.7,9.5c-0.1,2.2,0,4.4,0.5,6.5c-1.1,0.5-2.3,1.2-3.3,2.1l0,0l0,0
			c-0.2,0.1-0.3,0.3-0.5,0.5l0,0c-0.1,0.1-0.3,0.3-0.4,0.4l-0.1,0.1c-0.1,0.1-0.2,0.2-0.3,0.4c0,0.1-0.1,0.1-0.1,0.2
			c-0.1,0.2-0.3,0.4-0.4,0.5c-2.4,3.4-3.4,14.6-3.2,28.4c0.2,13.5-0.2,24.6-1.5,30.2c-1.3,5.7-4.6,16.2-4.8,23.9c0,0.2,0,0.3,0,0.5
			v0.1c0,0.2,0,0.4,0,0.5v0.1c0,0.2,0,0.3,0,0.5v0.1c0,0.2,0,0.4,0,0.6v0.1c0,0.2,0,0.4,0,0.5v0.1c0,0.2,0,0.4,0,0.6
			c0,0.1,0,0.1,0,0.2c0,0.2,0,0.4,0,0.6l0,0c0,0.2,0,0.5,0,0.7v0.1c0,0.2,0,0.5,0,0.7l0,0c0,0.3,0,0.5,0,0.8l0,0c0,0.5,0,1-0.1,1.6
			v0.1c0,0.8-0.1,1.6-0.1,2.5l0,0c0,0.3,0,0.5,0,0.8l0,0c-0.3,7.1-0.7,13.9-0.7,13.9l0,0l-0.3,2.9c0,0-1.2,7.5-1.4,11
			c-0.1,2.3,0.5,5.8,2.1,8.8c2.9,5.2,7.2,7.8,7.2,7.8c0.7,0.7,4.9,1,2.6-1.9c-4.7-5.8-4.1-8.5-4.1-8.5s-0.7-4.8,0.6-4.9
			c1.1-0.1,2.4,2.3,2.8,3.6c0.9,2.3,1.4,5.8,2.9,5c0.6-0.3,0.3-1,0.2-2.4c-0.1-0.7,0.1-1.9,0-2.6c-0.1-0.6-1-3.8-1.3-4.7
			c-0.3-1-1.8-4.7-2.2-5.7c-0.5-1.1-0.9-3.1-0.9-4.6s2.5-10.9,3-12.7c0.4-1.8,10.5-27.9,10.5-38.6c0-5.3,0.4-13.5,0.7-21.2
			c1,5.3,2.2,11.4,3,14.1c1.1,3.7,1.5,12.3-1.5,18.5c-0.2,0.4-0.4,0.7-0.6,1.1c-0.9,1.6-1.8,3.1-2.5,4.7
			c-7.4,14.6-8.1,27.2-8.1,36.4c0,1.5,0.1,3,0.2,4.8l0,0c0-0.2,0-0.4,0-0.5c0.4,5.5,1.5,13,3.7,25.9c-0.2-0.8-0.3-1.2-0.3-1.2
			c1.7,10.2,4.2,23.8,7.6,42.6c0.9,4.8,1.1,9.7,0.7,14.6c-0.8,9,0.2,21.9,5.8,49.9c2.3,11.4,1.2,17.7-0.7,21.6l0,0
			c-2.7,5.5-6.9,6.2-5.5,9.9c2.2,2.6,13,1.7,17.7,1.5c1.3-0.1,2.4-0.2,3.1-2c0.5-1.3,0.6-2.1-1.7-7.5c-1.4-3.2-1.3-8.6-1.3-8.6
			s3.4-46.8,3.4-53.5c0-6.5-0.4-11.1-0.9-14.1c-0.5-2.9-0.5-5.8-0.2-8.7c0.5-4.3,1-10.2,1.5-16.8c0,0.2,0,0.4,0,0.6
			c2.7-33.6,3.2-55.3,3.2-55.3h4l-0.1,0.1c0,0,1.3,50.6,4.3,71.8c0.4,2.8,0.4,5.7,0,8.5c-0.4,2.9-0.9,7.4-0.9,13.9
			c0,6.2,3,49.9,3,49.9s0.4,5-0.3,9.5c-0.1,0.3-0.1,0.6-0.2,0.9c0,0,0.1-0.5,0.3-1.2c-0.1,0.9-0.3,1.8-0.6,2.6
			c-1.3,4.1-2,5.7-1.9,7.2c0.1,1.4,1.2,2.5,2.6,2.5c4.7,0.2,16.8,1.2,18.1-1.4c2.9-6.3-12.9-4.3-6.2-31.6
			c6.7-27.7,7.4-40.7,6.3-49.9c-0.6-4.9-0.5-9.8,0.2-14.7c6.1-39.8,12.2-57.5,12.2-72.3c0-11.4-0.9-18.8-2.6-24.7l0,0
			c-0.1-0.4-0.2-0.8-0.4-1.2l0,0c-0.4-1.2-0.8-2.3-1.2-3.4l0,0c-0.1-0.4-0.3-0.7-0.4-1.1l0,0c-0.3-0.7-0.6-1.4-1-2.1l0,0
			c-0.2-0.3-0.3-0.7-0.5-1c0,0,0,0,0-0.1c-0.2-0.3-0.3-0.7-0.5-1c0,0,0,0,0-0.1c-0.4-0.7-0.7-1.4-1.1-2.1c0,0,0,0,0-0.1
			c-0.2-0.3-0.4-0.7-0.6-1v-0.1c-0.2-0.3-0.4-0.7-0.6-1v-0.1c-0.2-0.4-0.4-0.7-0.6-1.1c-2.8-4.9-2.7-14-1.8-19.7
			c0-0.2,0.1-0.3,0.1-0.5v-0.1c0-0.2,0.1-0.3,0.1-0.5v-0.1c0-0.2,0.1-0.3,0.1-0.5V509c0-0.2,0.1-0.4,0.1-0.6v-0.1
			c0-0.2,0.1-0.4,0.1-0.6c0,0,0,0,0-0.1c0-0.2,0.1-0.4,0.1-0.7v-0.1c0-0.2,0.1-0.5,0.1-0.7l0,0c0.1-0.2,0.1-0.5,0.2-0.7v-0.1
			c0.1-0.2,0.1-0.5,0.2-0.8v-0.1c0.1-0.2,0.1-0.5,0.2-0.7v-0.1c0.1-0.3,0.1-0.5,0.2-0.8v-0.1c0.1-0.3,0.1-0.5,0.2-0.8l0,0
			c0.1-0.3,0.1-0.6,0.2-0.8c0-0.1,0-0.1,0-0.2c0.1-0.3,0.1-0.6,0.2-0.8c0,0,0,0,0-0.1c0.1-0.3,0.1-0.5,0.2-0.8c0-0.1,0-0.1,0-0.2
			s0.1-0.3,0.1-0.4c0,0.3,0,0.6,0,0.9c0,0.1,0,0.1,0,0.2c0,0.4,0,0.8,0.1,1.2v0.1c0,0.4,0,0.8,0.1,1.3v0.1c0,0.4,0,0.8,0.1,1.3
			c0,0.1,0,0.1,0,0.2c0,0.4,0,0.8,0.1,1.2v0.1c0,0.4,0,0.8,0.1,1.3v0.1c0,0.4,0,0.9,0,1.3l0,0c0,0.4,0,0.8,0,1.2v0.1
			c0,0.4,0,0.8,0,1.2v0.1c0,0.4,0,0.8,0,1.1c0,0.1,0,0.1,0,0.2c0,0.4,0,0.7,0,1.1c0,0.1,0,0.1,0,0.2c0,0.4,0,0.7,0,1
			c0,0.1,0,0.1,0,0.2c0,0.3,0,0.7,0,1c0,0.1,0,0.1,0,0.2c0,0.3,0,0.6,0,1v0.1c0,0.3,0,0.6,0,0.9v0.1c0,0.3,0,0.6,0,0.9
			c0,0.2,0,0.5,0,0.7v0.1c0,0.2,0,0.5,0,0.7v0.1c0,0.3,0,0.5,0.1,0.8v0.1c0,0.3,0.1,0.5,0.1,0.8v0.1c0,0.3,0.1,0.6,0.1,0.9
			c0,0.1,0,0.1,0,0.2c0,0.3,0.1,0.6,0.1,0.9c0,0.1,0,0.1,0,0.2c0.1,0.3,0.1,0.6,0.2,1l0,0c0.1,0.3,0.1,0.6,0.2,1c0,0.1,0,0.1,0,0.2
			c0.1,0.3,0.1,0.6,0.2,1c0,0.1,0,0.1,0,0.2c0.1,0.3,0.1,0.7,0.2,1v0.1c0.1,0.3,0.2,0.7,0.2,1v0.1c0.1,0.3,0.2,0.7,0.3,1
			c0,0.1,0,0.1,0.1,0.2c0.1,0.3,0.2,0.7,0.3,1c0,0.1,0,0.1,0,0.2c0.1,0.4,0.2,0.7,0.3,1.1c0,0,0,0,0,0.1c0.1,0.4,0.2,0.7,0.3,1.1
			c0,0.1,0,0.1,0,0.2c0.1,0.4,0.2,0.7,0.3,1.1c0,0.1,0,0.1,0.1,0.2c0.1,0.4,0.2,0.7,0.3,1.1c0,0.1,0,0.1,0,0.2
			c0.1,0.4,0.2,0.7,0.3,1.1v0.1c0.1,0.4,0.2,0.7,0.3,1.1c0,0.1,0,0.1,0.1,0.2c0.1,0.3,0.2,0.7,0.3,1c0,0.1,0,0.1,0.1,0.2
			c0.1,0.4,0.2,0.7,0.3,1.1c0,0,0,0,0,0.1c0.1,0.3,0.2,0.7,0.3,1c0,0.1,0,0.1,0,0.2c0.1,0.3,0.2,0.7,0.3,1c0,0.1,0,0.1,0.1,0.2
			c0.1,0.3,0.2,0.7,0.3,1v0.1c0.1,0.3,0.2,0.6,0.3,1c0,0,0,0,0,0.1c0.1,0.3,0.2,0.6,0.3,0.9c0,0.1,0,0.1,0.1,0.2
			c0.1,0.3,0.2,0.6,0.3,0.9c0,0.1,0,0.1,0.1,0.2c0.1,0.3,0.2,0.6,0.3,0.9v0.1c0.1,0.3,0.2,0.5,0.3,0.8v0.1c0.1,0.3,0.2,0.5,0.3,0.8
			c0,0.1,0,0.1,0.1,0.2c0.1,0.3,0.2,0.5,0.3,0.7v0.1c0.1,0.2,0.2,0.5,0.2,0.7l0,0c0.8,2.3,1.5,4.7,2.1,7l0,0
			c0.1,0.4,0.2,0.8,0.3,1.2c0,0.1,0,0.1,0,0.2c0.1,0.3,0.2,0.6,0.2,1c0,0.1,0.1,0.2,0.1,0.3c0.1,0.3,0.1,0.6,0.2,0.8
			c0,0.1,0,0.2,0.1,0.3c0.1,0.3,0.2,0.7,0.2,1c0,0,0,0,0,0.1l0.4,1.9c0.3,1.3,0.5,2.4,0.7,3.2c0.4,2.4-0.6,3.6-0.9,4.6
			c-0.3,1-1.9,4.7-2.2,5.7s-1.3,4.1-1.3,4.7c-0.1,0.7,0.1,1.9,0,2.6c-0.1,1.4-0.4,2.1,0.2,2.4c1.6,0.8,2-2.8,2.9-5
			c0.5-1.2,1.7-3.7,2.8-3.6c1.3,0.1,0.6,4.9,0.6,4.9s0.6,2.7-4.1,8.5c-2.4,2.9,1.8,2.6,2.6,1.9c0,0,4.3-2.6,7.2-7.8
			C570.2,586,570.8,582.4,570.7,580.1z"/>
		<circle class="st7" cx="517.6" cy="411.3" r="14.7"/>
		<circle class="st7" cx="517.6" cy="542.2" r="14.7"/>
		<g>
			<path class="st8" d="M521.3,419.8c0,9.5-7.3,9.5-7.3,19.1c0,9.5,7.3,9.5,7.3,19.1s-7.3,9.6-7.3,19.1c0,9.6,7.3,9.6,7.3,19.1
				c0,9.6-7.3,9.6-7.3,19.1c0,9.6,7.3,9.6,7.3,19.1"/>
		</g>
		<g>
			<path class="st8" d="M514,534.4c0-9.5,7.3-9.5,7.3-19.1c0-9.5-7.3-9.5-7.3-19.1s7.3-9.6,7.3-19.1c0-9.6-7.3-9.6-7.3-19.1
				c0-9.6,7.3-9.6,7.3-19.1s-7.3-9.6-7.3-19.1"/>
		</g>
		<circle class="st9" cx="517.6" cy="411.3" r="9.2"/>
		<circle class="st9" cx="517.6" cy="542.2" r="9.2"/>
	</g>
	<g>
		<path class="st0" d="M992.1,580.6c-0.3-3.5-1.7-11-1.7-11l-0.4-2.9l0,0c0,0-1.6-18.1-2-25.9c-0.5-7.7-3.8-16.9-5.3-22.5
			s3.3-17.8-1-33c-2.5-9.5,0-18.4-5.1-25c-5.6-7.2-11.6-6.4-14.1-6.8l0,0c-2.9-0.5-6.3-1-8.4-1.9c-5.1-2.2-8.3-4.4-11.2-5.7
			c-2.1-0.9-2.3-7.1-2.2-10.8c1.7-1.1,3-2.3,3.7-3.3c1-1.6,1.8-6.1,2.2-10.2c0.4,0.1,0.9,0,1.7-0.4c1.9-0.9,2.5-6.4,1.2-8.9
			c-0.1-0.2-0.2-0.4-0.4-0.6c0.7-5.5,1.4-14.7-1.4-18.8c-4-6.1-13-6.3-16-6.6c-4-0.4-11.2-0.3-13,4.2c-8.4,0.8-7.4,14.1-6.2,21.2
			c-0.1,0.1-0.2,0.3-0.3,0.5c-1.3,2.5-0.7,7.9,1.2,8.9c0.9,0.4,1.5,0.5,1.8,0.4c0.4,4.1,1.2,8.6,2.2,10.2c0.7,1,1.9,2.2,3.6,3.3
			c0.1,3.7-0.1,9.9-2.2,10.8c-2.9,1.3-6.1,3.5-11.2,5.7c-2.1,0.9-5.5,1.4-8.4,1.9c-2.5,0.3-8.6-0.4-14.1,6.8
			c-5.1,6.6-2.7,15.6-5.1,25c-4.3,15.3,0.5,27.4-1,33s-4.8,14.8-5.3,22.5s-2,25.9-2,25.9l0,0l-0.4,2.9c0,0-1.4,7.5-1.7,11
			c-0.2,2.3,0.3,5.8,1.8,8.9c2.7,5.3,8.1,9.3,8.1,9.3c0.7,0.8,4.9,1.2,2.6-1.8c-4.5-5.9-5-9.9-5-9.9s-0.6-4.8,0.8-4.8
			c1.1-0.1,2.3,2.4,2.7,3.6c0.8,2.3,1.1,5.9,2.7,5.1c0.6-0.3,0.4-1,0.3-2.4c0-0.7,0.2-1.9,0.1-2.6c-0.1-0.6-0.9-3.8-1.2-4.8
			s-1.6-4.8-2-5.8c-0.4-1.1-0.8-3.1-0.7-4.6s2.7-10.4,3.9-13c0.8-1.9,9.7-13.9,11.3-37.6c0.4-5.6,1.8-13.5,2.7-21.1
			c0.7,3.5,1.3,6.9,1.4,9.5c0.3,7.8,2.6,19.3,1.9,25.2c-1.6,13.6-5.1,13.2-5.1,35.6c0,14.8-0.6,42.2,7,74.9
			c1.1,4.8,0.1,11.4-0.5,16.3c-1.1,9.2,1.6,21.5,7.2,49.4c5.4,26.8-11.1,23.7-8.3,30c1.2,2.6,16.3,1.8,21,1.6
			c1.4-0.1,2.5-1.2,2.6-2.5c0.1-1.4-0.6-3-1.9-7.2c-1.5-4.8-0.9-11.9-0.9-11.9s3-43.6,3-49.8c0-7-0.5-11.7-1-14.5
			c-0.4-2.4-0.6-4.8,0-7.2c4.4-19.6,4.4-69.6,4.4-69.7h4.7c0,0,0.1,50,4.4,69.7c0.5,2.4,0.4,4.8,0,7.2c-0.5,2.8-1,7.5-1,14.5
			c0,6.2,3,49.8,3,49.8s0.6,7.1-0.9,11.9c-1.3,4.1-2,5.7-1.9,7.2c0.1,1.4,1.2,2.5,2.6,2.5c4.7,0.2,19.8,1,21-1.6
			c2.8-6.3-13.7-3.2-8.3-30c5.7-27.9,8.3-40.2,7.2-49.4c-0.6-4.9-1.6-11.5-0.5-16.3c7.6-32.6,7-60.1,7-74.9
			c0-22.5-3.5-22.1-5.1-35.6c-0.7-5.8,1.7-17.3,1.9-25.2c0.1-2.6,0.7-6,1.4-9.5c0.9,7.6,2.3,15.6,2.7,21.1
			c1.6,23.7,11,36.4,11.8,38.1c0.9,2.2,3.4,11,3.4,12.6c0.1,1.5-0.3,3.5-0.7,4.6c-0.3,1-1.7,4.8-2,5.8s-1.1,4.1-1.2,4.8
			c-0.1,0.7,0.2,1.9,0.1,2.6c-0.1,1.4-0.3,2.1,0.3,2.4c1.6,0.7,1.9-2.8,2.7-5.1c0.4-1.2,1.6-3.7,2.7-3.6c1.3,0.1,0.8,4.8,0.8,4.8
			s-0.5,4-5,9.9c-2.3,3,1.9,2.6,2.6,1.8c0,0,5.4-4.1,8.1-9.3C991.8,586.4,992.3,582.9,992.1,580.6z"/>
		<circle class="st7" cx="930.7" cy="411.3" r="14.7"/>
		<circle class="st7" cx="930.7" cy="542.1" r="14.7"/>
		<g>
			<path class="st8" d="M934.4,419.8c0,9.5-7.3,9.5-7.3,19.1c0,9.5,7.3,9.5,7.3,19.1s-7.3,9.6-7.3,19.1c0,9.6,7.3,9.6,7.3,19.1
				c0,9.6-7.3,9.6-7.3,19.1c0,9.5,7.3,9.6,7.3,19.1"/>
		</g>
		<g>
			<path class="st8" d="M927.1,534.4c0-9.5,7.3-9.5,7.3-19.1c0-9.5-7.3-9.5-7.3-19.1s7.3-9.6,7.3-19.1c0-9.6-7.3-9.6-7.3-19.1
				c0-9.6,7.3-9.6,7.3-19.1c0-9.6-7.3-9.6-7.3-19.1"/>
		</g>
		<circle class="st9" cx="930.7" cy="411.3" r="9.2"/>
		<circle class="st9" cx="930.7" cy="542.1" r="9.2"/>
	</g>
	<g>
		<path class="st0" d="M846.2,580.1c-0.2-3.5-1.4-11-1.4-11l-0.3-3l0.1,0.1c0,0-0.9-18.2-1.1-26c-0.2-7.8-3.5-18.3-4.8-23.9
			c-1.3-5.7-1.7-16.8-1.5-30.2c0.2-13.8-0.8-24.6-3.2-28c-2.8-4-8.4-5.4-10.6-5.9c-1.7-0.5-3.6-1-5.6-1.6c0,0,0,0,0-0.1
			c2.5-6.5,2.5-13.8,0.1-20.4c-0.7-1.9-1.5-3.7-2-5.7c-0.7-3-0.4-6-0.5-9.1c-0.2-5.4-0.6-12.2-3.2-17.1c-2.1-4-5.2-8-10-8.4
			c-1.1-0.1-1.6,0.2-2.5-0.4c-1-0.6-3.1-2.4-6.3-2.9c-9.5-1.5-17.7,4.1-21.6,12.7c-2.9,6.3-3.1,13.4-2.9,20.3c0.1,2.9,0.2,5.8-1,8.4
			c-1.7,3.8-5.9,5.9-8.3,9.3c-1.9,2.7-2.5,6.2-2.7,9.5c-0.1,2.2,0,4.4,0.5,6.5c-1.1,0.5-2.3,1.2-3.3,2.1l0,0l0,0
			c-0.2,0.1-0.3,0.3-0.5,0.5l0,0c-0.1,0.1-0.3,0.3-0.4,0.4l-0.1,0.1c-0.1,0.1-0.2,0.2-0.3,0.4c0,0.1-0.1,0.1-0.1,0.2
			c-0.1,0.2-0.3,0.4-0.4,0.5c-2.4,3.4-3.4,14.6-3.2,28.4c0.2,13.5-0.2,24.6-1.5,30.2c-1.3,5.7-4.6,16.2-4.8,23.9c0,0.2,0,0.3,0,0.5
			v0.1c0,0.2,0,0.4,0,0.5v0.1c0,0.2,0,0.3,0,0.5v0.1c0,0.2,0,0.4,0,0.6v0.1c0,0.2,0,0.4,0,0.5v0.1c0,0.2,0,0.4,0,0.6
			c0,0.1,0,0.1,0,0.2c0,0.2,0,0.4,0,0.6l0,0c0,0.2,0,0.5,0,0.7v0.1c0,0.2,0,0.5,0,0.7l0,0c0,0.3,0,0.5,0,0.8l0,0c0,0.5,0,1-0.1,1.6
			v0.1c0,0.8-0.1,1.6-0.1,2.5l0,0c0,0.3,0,0.5,0,0.8l0,0c-0.3,7.1-0.7,13.9-0.7,13.9l0,0l-0.3,2.9c0,0-1.2,7.5-1.4,11
			c-0.1,2.3,0.5,5.8,2.1,8.8c2.9,5.2,7.2,7.8,7.2,7.8c0.7,0.7,4.9,1,2.6-1.9c-4.7-5.8-4.1-8.5-4.1-8.5s-0.7-4.8,0.6-4.9
			c1.1-0.1,2.4,2.3,2.8,3.6c0.9,2.3,1.4,5.8,2.9,5c0.6-0.3,0.3-1,0.2-2.4c-0.1-0.7,0.1-1.9,0-2.6c-0.1-0.6-1-3.8-1.3-4.7
			c-0.3-1-1.8-4.7-2.2-5.7c-0.5-1.1-0.9-3.1-0.9-4.6s2.5-10.9,3-12.7c0.4-1.8,10.5-27.9,10.5-38.6c0-5.3,0.4-13.5,0.7-21.2
			c1,5.3,2.2,11.4,3,14.1c1.1,3.7,1.5,12.3-1.5,18.5c-0.2,0.4-0.4,0.7-0.6,1.1c-0.9,1.6-1.8,3.1-2.5,4.7
			c-7.4,14.6-8.1,27.2-8.1,36.4c0,1.5,0.1,3,0.2,4.8l0,0c0-0.2,0-0.4,0-0.5c0.4,5.5,1.5,13,3.7,25.9c-0.2-0.8-0.3-1.2-0.3-1.2
			c1.7,10.2,4.2,23.8,7.6,42.6c0.9,4.8,1.1,9.7,0.7,14.6c-0.8,9,0.2,21.9,5.8,49.9c2.3,11.4,1.2,17.7-0.7,21.6l0,0
			c-2.7,5.5-6.9,6.2-5.5,9.9c2.2,2.6,13,1.7,17.7,1.5c1.3-0.1,2.4-0.2,3.1-2c0.5-1.3,0.6-2.1-1.7-7.5c-1.4-3.2-1.3-8.6-1.3-8.6
			s3.4-46.8,3.4-53.5c0-6.5-0.4-11.1-0.9-14.1c-0.5-2.9-0.5-5.8-0.2-8.7c0.5-4.3,1-10.2,1.5-16.8c0,0.2,0,0.4,0,0.6
			c2.7-33.6,3.2-55.3,3.2-55.3h4l-0.1,0.1c0,0,1.3,50.6,4.3,71.8c0.4,2.8,0.4,5.7,0,8.5c-0.4,2.9-0.9,7.4-0.9,13.9
			c0,6.2,3,49.9,3,49.9s0.4,5-0.3,9.5c-0.1,0.3-0.1,0.6-0.2,0.9c0,0,0.1-0.5,0.3-1.2c-0.1,0.9-0.3,1.8-0.6,2.6
			c-1.3,4.1-2,5.7-1.9,7.2c0.1,1.4,1.2,2.5,2.6,2.5c4.7,0.2,16.8,1.2,18.1-1.4c2.9-6.3-12.9-4.3-6.2-31.6
			c6.7-27.7,7.4-40.7,6.3-49.9c-0.6-4.9-0.5-9.8,0.2-14.7c6.1-39.8,12.2-57.5,12.2-72.3c0-11.4-0.9-18.8-2.6-24.7l0,0
			c-0.1-0.4-0.2-0.8-0.4-1.2l0,0c-0.4-1.2-0.8-2.3-1.2-3.4l0,0c-0.1-0.4-0.3-0.7-0.4-1.1l0,0c-0.3-0.7-0.6-1.4-1-2.1l0,0
			c-0.2-0.3-0.3-0.7-0.5-1c0,0,0,0,0-0.1c-0.2-0.3-0.3-0.7-0.5-1c0,0,0,0,0-0.1c-0.4-0.7-0.7-1.4-1.1-2.1c0,0,0,0,0-0.1
			c-0.2-0.3-0.4-0.7-0.6-1v-0.1c-0.2-0.3-0.4-0.7-0.6-1v-0.1c-0.2-0.4-0.4-0.7-0.6-1.1c-2.8-4.9-2.7-14-1.8-19.7
			c0-0.2,0.1-0.3,0.1-0.5v-0.1c0-0.2,0.1-0.3,0.1-0.5v-0.1c0-0.2,0.1-0.3,0.1-0.5V509c0-0.2,0.1-0.4,0.1-0.6v-0.1
			c0-0.2,0.1-0.4,0.1-0.6c0,0,0,0,0-0.1c0-0.2,0.1-0.4,0.1-0.7v-0.1c0-0.2,0.1-0.5,0.1-0.7l0,0c0.1-0.2,0.1-0.5,0.2-0.7v-0.1
			c0.1-0.2,0.1-0.5,0.2-0.8v-0.1c0.1-0.2,0.1-0.5,0.2-0.7v-0.1c0.1-0.3,0.1-0.5,0.2-0.8v-0.1c0.1-0.3,0.1-0.5,0.2-0.8l0,0
			c0.1-0.3,0.1-0.6,0.2-0.8c0-0.1,0-0.1,0-0.2c0.1-0.3,0.1-0.6,0.2-0.8c0,0,0,0,0-0.1c0.1-0.3,0.1-0.5,0.2-0.8c0-0.1,0-0.1,0-0.2
			s0.1-0.3,0.1-0.4c0,0.3,0,0.6,0,0.9c0,0.1,0,0.1,0,0.2c0,0.4,0,0.8,0.1,1.2v0.1c0,0.4,0,0.8,0.1,1.3v0.1c0,0.4,0,0.8,0.1,1.3
			c0,0.1,0,0.1,0,0.2c0,0.4,0,0.8,0.1,1.2v0.1c0,0.4,0,0.8,0.1,1.3v0.1c0,0.4,0,0.9,0,1.3l0,0c0,0.4,0,0.8,0,1.2v0.1
			c0,0.4,0,0.8,0,1.2v0.1c0,0.4,0,0.8,0,1.1c0,0.1,0,0.1,0,0.2c0,0.4,0,0.7,0,1.1c0,0.1,0,0.1,0,0.2c0,0.4,0,0.7,0,1
			c0,0.1,0,0.1,0,0.2c0,0.3,0,0.7,0,1c0,0.1,0,0.1,0,0.2c0,0.3,0,0.6,0,1v0.1c0,0.3,0,0.6,0,0.9v0.1c0,0.3,0,0.6,0,0.9
			c0,0.2,0,0.5,0,0.7v0.1c0,0.2,0,0.5,0,0.7v0.1c0,0.3,0,0.5,0.1,0.8v0.1c0,0.3,0.1,0.5,0.1,0.8v0.1c0,0.3,0.1,0.6,0.1,0.9
			c0,0.1,0,0.1,0,0.2c0,0.3,0.1,0.6,0.1,0.9c0,0.1,0,0.1,0,0.2c0.1,0.3,0.1,0.6,0.2,1l0,0c0.1,0.3,0.1,0.6,0.2,1c0,0.1,0,0.1,0,0.2
			c0.1,0.3,0.1,0.6,0.2,1c0,0.1,0,0.1,0,0.2c0.1,0.3,0.1,0.7,0.2,1v0.1c0.1,0.3,0.2,0.7,0.2,1v0.1c0.1,0.3,0.2,0.7,0.3,1
			c0,0.1,0,0.1,0.1,0.2c0.1,0.3,0.2,0.7,0.3,1c0,0.1,0,0.1,0,0.2c0.1,0.4,0.2,0.7,0.3,1.1c0,0,0,0,0,0.1c0.1,0.4,0.2,0.7,0.3,1.1
			c0,0.1,0,0.1,0,0.2c0.1,0.4,0.2,0.7,0.3,1.1c0,0.1,0,0.1,0.1,0.2c0.1,0.4,0.2,0.7,0.3,1.1c0,0.1,0,0.1,0,0.2
			c0.1,0.4,0.2,0.7,0.3,1.1v0.1c0.1,0.4,0.2,0.7,0.3,1.1c0,0.1,0,0.1,0.1,0.2c0.1,0.3,0.2,0.7,0.3,1c0,0.1,0,0.1,0.1,0.2
			c0.1,0.4,0.2,0.7,0.3,1.1c0,0,0,0,0,0.1c0.1,0.3,0.2,0.7,0.3,1c0,0.1,0,0.1,0,0.2c0.1,0.3,0.2,0.7,0.3,1c0,0.1,0,0.1,0.1,0.2
			c0.1,0.3,0.2,0.7,0.3,1v0.1c0.1,0.3,0.2,0.6,0.3,1c0,0,0,0,0,0.1c0.1,0.3,0.2,0.6,0.3,0.9c0,0.1,0,0.1,0.1,0.2
			c0.1,0.3,0.2,0.6,0.3,0.9c0,0.1,0,0.1,0.1,0.2c0.1,0.3,0.2,0.6,0.3,0.9v0.1c0.1,0.3,0.2,0.5,0.3,0.8v0.1c0.1,0.3,0.2,0.5,0.3,0.8
			c0,0.1,0,0.1,0.1,0.2c0.1,0.3,0.2,0.5,0.3,0.7v0.1c0.1,0.2,0.2,0.5,0.2,0.7l0,0c0.8,2.3,1.5,4.7,2.1,7l0,0
			c0.1,0.4,0.2,0.8,0.3,1.2c0,0.1,0,0.1,0,0.2c0.1,0.3,0.2,0.6,0.2,1c0,0.1,0.1,0.2,0.1,0.3c0.1,0.3,0.1,0.6,0.2,0.8
			c0,0.1,0,0.2,0.1,0.3c0.1,0.3,0.2,0.7,0.2,1c0,0,0,0,0,0.1l0.4,1.9c0.3,1.3,0.5,2.4,0.7,3.2c0.4,2.4-0.6,3.6-0.9,4.6
			c-0.3,1-1.9,4.7-2.2,5.7s-1.3,4.1-1.3,4.7c-0.1,0.7,0.1,1.9,0,2.6c-0.1,1.4-0.4,2.1,0.2,2.4c1.6,0.8,2-2.8,2.9-5
			c0.5-1.2,1.7-3.7,2.8-3.6c1.3,0.1,0.6,4.9,0.6,4.9s0.6,2.7-4.1,8.5c-2.4,2.9,1.8,2.6,2.6,1.9c0,0,4.3-2.6,7.2-7.8
			C845.7,586,846.3,582.4,846.2,580.1z"/>
		<circle class="st7" cx="793" cy="411.3" r="14.7"/>
		<circle class="st7" cx="793" cy="542.2" r="14.7"/>
		<g>
			<path class="st8" d="M796.8,419.8c0,9.5-7.3,9.5-7.3,19.1c0,9.5,7.3,9.5,7.3,19.1s-7.3,9.6-7.3,19.1c0,9.6,7.3,9.6,7.3,19.1
				c0,9.6-7.3,9.6-7.3,19.1c0,9.6,7.3,9.6,7.3,19.1"/>
		</g>
		<g>
			<path class="st8" d="M789.5,534.4c0-9.5,7.3-9.5,7.3-19.1c0-9.5-7.3-9.5-7.3-19.1s7.3-9.6,7.3-19.1c0-9.6-7.3-9.6-7.3-19.1
				c0-9.6,7.3-9.6,7.3-19.1s-7.3-9.6-7.3-19.1"/>
		</g>
		<circle class="st9" cx="793" cy="411.3" r="9.2"/>
		<circle class="st9" cx="793" cy="542.2" r="9.2"/>
	</g>
	<g>
		<path class="st0" d="M1121.7,580.1c-0.2-3.5-1.4-11-1.4-11l-0.3-3l0.1,0.1c0,0-0.9-18.2-1.1-26s-3.5-18.3-4.8-23.9
			c-1.3-5.7-1.7-16.8-1.5-30.2c0.2-13.8-0.8-24.6-3.2-28c-2.8-4-8.4-5.4-10.6-5.9c-1.7-0.5-3.6-1-5.6-1.6c0,0,0,0,0-0.1
			c2.5-6.5,2.5-13.8,0.1-20.4c-0.7-1.9-1.5-3.7-2-5.7c-0.7-3-0.4-6-0.5-9.1c-0.2-5.4-0.6-12.2-3.2-17.1c-2.1-4-5.2-8-10-8.4
			c-1.1-0.1-1.6,0.2-2.5-0.4c-1-0.6-3.1-2.4-6.3-2.9c-9.5-1.5-17.7,4.1-21.6,12.7c-2.9,6.3-3.1,13.4-2.9,20.3c0.1,2.9,0.2,5.8-1,8.4
			c-1.7,3.8-5.9,5.9-8.3,9.3c-1.9,2.7-2.5,6.2-2.7,9.5c-0.1,2.2,0,4.4,0.5,6.5c-1.1,0.5-2.3,1.2-3.3,2.1l0,0l0,0
			c-0.2,0.1-0.3,0.3-0.5,0.5l0,0c-0.1,0.1-0.3,0.3-0.4,0.4l-0.1,0.1c-0.1,0.1-0.2,0.2-0.3,0.4c0,0.1-0.1,0.1-0.1,0.2
			c-0.1,0.2-0.3,0.4-0.4,0.5c-2.4,3.4-3.4,14.6-3.2,28.4c0.2,13.5-0.2,24.6-1.5,30.2c-1.3,5.7-4.6,16.2-4.8,23.9c0,0.2,0,0.3,0,0.5
			v0.1c0,0.2,0,0.4,0,0.5v0.1c0,0.2,0,0.3,0,0.5v0.1c0,0.2,0,0.4,0,0.6v0.1c0,0.2,0,0.4,0,0.5v0.1c0,0.2,0,0.4,0,0.6
			c0,0.1,0,0.1,0,0.2c0,0.2,0,0.4,0,0.6l0,0c0,0.2,0,0.5,0,0.7v0.1c0,0.2,0,0.5,0,0.7l0,0c0,0.3,0,0.5,0,0.8l0,0c0,0.5,0,1-0.1,1.6
			v0.1c0,0.8-0.1,1.6-0.1,2.5l0,0c0,0.3,0,0.5,0,0.8l0,0c-0.3,7.1-0.7,13.9-0.7,13.9l0,0l-0.3,2.9c0,0-1.2,7.5-1.4,11
			c-0.1,2.3,0.5,5.8,2.1,8.8c2.9,5.2,7.2,7.8,7.2,7.8c0.7,0.7,4.9,1,2.6-1.9c-4.7-5.8-4.1-8.5-4.1-8.5s-0.7-4.8,0.6-4.9
			c1.1-0.1,2.4,2.3,2.8,3.6c0.9,2.3,1.4,5.8,2.9,5c0.6-0.3,0.3-1,0.2-2.4c-0.1-0.7,0.1-1.9,0-2.6c-0.1-0.6-1-3.8-1.3-4.7
			s-1.8-4.7-2.2-5.7c-0.5-1.1-0.9-3.1-0.9-4.6s2.5-10.9,3-12.7c0.4-1.8,10.5-27.9,10.5-38.6c0-5.3,0.4-13.5,0.7-21.2
			c1,5.3,2.2,11.4,3,14.1c1.1,3.7,1.5,12.3-1.5,18.5c-0.2,0.4-0.4,0.7-0.6,1.1c-0.9,1.6-1.8,3.1-2.5,4.7
			c-7.4,14.6-8.1,27.2-8.1,36.4c0,1.5,0.1,3,0.2,4.8l0,0c0-0.2,0-0.4,0-0.5c0.4,5.5,1.5,13,3.7,25.9c-0.2-0.8-0.3-1.2-0.3-1.2
			c1.7,10.2,4.2,23.8,7.6,42.6c0.9,4.8,1.1,9.7,0.7,14.6c-0.8,9,0.2,21.9,5.8,49.9c2.3,11.4,1.2,17.7-0.7,21.6l0,0
			c-2.7,5.5-6.9,6.2-5.5,9.9c2.2,2.6,13,1.7,17.7,1.5c1.3-0.1,2.4-0.2,3.1-2c0.5-1.3,0.6-2.1-1.7-7.5c-1.4-3.2-1.3-8.6-1.3-8.6
			s3.4-46.8,3.4-53.5c0-6.5-0.4-11.1-0.9-14.1c-0.5-2.9-0.5-5.8-0.2-8.7c0.5-4.3,1-10.2,1.5-16.8c0,0.2,0,0.4,0,0.6
			c2.7-33.6,3.2-55.3,3.2-55.3h4l-0.1,0.1c0,0,1.3,50.6,4.3,71.8c0.4,2.8,0.4,5.7,0,8.5c-0.4,2.9-0.9,7.4-0.9,13.9
			c0,6.2,3,49.9,3,49.9s0.4,5-0.3,9.5c-0.1,0.3-0.1,0.6-0.2,0.9c0,0,0.1-0.5,0.3-1.2c-0.1,0.9-0.3,1.8-0.6,2.6
			c-1.3,4.1-2,5.7-1.9,7.2c0.1,1.4,1.2,2.5,2.6,2.5c4.7,0.2,16.8,1.2,18.1-1.4c2.9-6.3-12.9-4.3-6.2-31.6
			c6.7-27.7,7.4-40.7,6.3-49.9c-0.6-4.9-0.5-9.8,0.2-14.7c6.1-39.8,12.2-57.5,12.2-72.3c0-11.4-0.9-18.8-2.6-24.7l0,0
			c-0.1-0.4-0.2-0.8-0.4-1.2l0,0c-0.4-1.2-0.8-2.3-1.2-3.4l0,0c-0.1-0.4-0.3-0.7-0.4-1.1l0,0c-0.3-0.7-0.6-1.4-1-2.1l0,0
			c-0.2-0.3-0.3-0.7-0.5-1c0,0,0,0,0-0.1c-0.2-0.3-0.3-0.7-0.5-1c0,0,0,0,0-0.1c-0.4-0.7-0.7-1.4-1.1-2.1c0,0,0,0,0-0.1
			c-0.2-0.3-0.4-0.7-0.6-1v-0.1c-0.2-0.3-0.4-0.7-0.6-1v-0.1c-0.2-0.4-0.4-0.7-0.6-1.1c-2.8-4.9-2.7-14-1.8-19.7
			c0-0.2,0.1-0.3,0.1-0.5v-0.1c0-0.2,0.1-0.3,0.1-0.5v-0.1c0-0.2,0.1-0.3,0.1-0.5V509c0-0.2,0.1-0.4,0.1-0.6v-0.1
			c0-0.2,0.1-0.4,0.1-0.6c0,0,0,0,0-0.1c0-0.2,0.1-0.4,0.1-0.7v-0.1c0-0.2,0.1-0.5,0.1-0.7l0,0c0.1-0.2,0.1-0.5,0.2-0.7v-0.1
			c0.1-0.2,0.1-0.5,0.2-0.8v-0.1c0.1-0.2,0.1-0.5,0.2-0.7v-0.1c0.1-0.3,0.1-0.5,0.2-0.8v-0.1c0.1-0.3,0.1-0.5,0.2-0.8l0,0
			c0.1-0.3,0.1-0.6,0.2-0.8c0-0.1,0-0.1,0-0.2c0.1-0.3,0.1-0.6,0.2-0.8c0,0,0,0,0-0.1c0.1-0.3,0.1-0.5,0.2-0.8c0-0.1,0-0.1,0-0.2
			s0.1-0.3,0.1-0.4c0,0.3,0,0.6,0,0.9c0,0.1,0,0.1,0,0.2c0,0.4,0,0.8,0.1,1.2v0.1c0,0.4,0,0.8,0.1,1.3v0.1c0,0.4,0,0.8,0.1,1.3
			c0,0.1,0,0.1,0,0.2c0,0.4,0,0.8,0.1,1.2v0.1c0,0.4,0,0.8,0.1,1.3v0.1c0,0.4,0,0.9,0,1.3l0,0c0,0.4,0,0.8,0,1.2v0.1
			c0,0.4,0,0.8,0,1.2v0.1c0,0.4,0,0.8,0,1.1c0,0.1,0,0.1,0,0.2c0,0.4,0,0.7,0,1.1c0,0.1,0,0.1,0,0.2c0,0.4,0,0.7,0,1
			c0,0.1,0,0.1,0,0.2c0,0.3,0,0.7,0,1c0,0.1,0,0.1,0,0.2c0,0.3,0,0.6,0,1v0.1c0,0.3,0,0.6,0,0.9v0.1c0,0.3,0,0.6,0,0.9
			c0,0.2,0,0.5,0,0.7v0.1c0,0.2,0,0.5,0,0.7v0.1c0,0.3,0,0.5,0.1,0.8v0.1c0,0.3,0.1,0.5,0.1,0.8v0.1c0,0.3,0.1,0.6,0.1,0.9
			c0,0.1,0,0.1,0,0.2c0,0.3,0.1,0.6,0.1,0.9c0,0.1,0,0.1,0,0.2c0.1,0.3,0.1,0.6,0.2,1l0,0c0.1,0.3,0.1,0.6,0.2,1c0,0.1,0,0.1,0,0.2
			c0.1,0.3,0.1,0.6,0.2,1c0,0.1,0,0.1,0,0.2c0.1,0.3,0.1,0.7,0.2,1v0.1c0.1,0.3,0.2,0.7,0.2,1v0.1c0.1,0.3,0.2,0.7,0.3,1
			c0,0.1,0,0.1,0.1,0.2c0.1,0.3,0.2,0.7,0.3,1c0,0.1,0,0.1,0,0.2c0.1,0.4,0.2,0.7,0.3,1.1c0,0,0,0,0,0.1c0.1,0.4,0.2,0.7,0.3,1.1
			c0,0.1,0,0.1,0,0.2c0.1,0.4,0.2,0.7,0.3,1.1c0,0.1,0,0.1,0.1,0.2c0.1,0.4,0.2,0.7,0.3,1.1c0,0.1,0,0.1,0,0.2
			c0.1,0.4,0.2,0.7,0.3,1.1v0.1c0.1,0.4,0.2,0.7,0.3,1.1c0,0.1,0,0.1,0.1,0.2c0.1,0.3,0.2,0.7,0.3,1c0,0.1,0,0.1,0.1,0.2
			c0.1,0.4,0.2,0.7,0.3,1.1c0,0,0,0,0,0.1c0.1,0.3,0.2,0.7,0.3,1c0,0.1,0,0.1,0,0.2c0.1,0.3,0.2,0.7,0.3,1c0,0.1,0,0.1,0.1,0.2
			c0.1,0.3,0.2,0.7,0.3,1v0.1c0.1,0.3,0.2,0.6,0.3,1c0,0,0,0,0,0.1c0.1,0.3,0.2,0.6,0.3,0.9c0,0.1,0,0.1,0.1,0.2
			c0.1,0.3,0.2,0.6,0.3,0.9c0,0.1,0,0.1,0.1,0.2c0.1,0.3,0.2,0.6,0.3,0.9v0.1c0.1,0.3,0.2,0.5,0.3,0.8v0.1c0.1,0.3,0.2,0.5,0.3,0.8
			c0,0.1,0,0.1,0.1,0.2c0.1,0.3,0.2,0.5,0.3,0.7v0.1c0.1,0.2,0.2,0.5,0.2,0.7l0,0c0.8,2.3,1.5,4.7,2.1,7l0,0
			c0.1,0.4,0.2,0.8,0.3,1.2c0,0.1,0,0.1,0,0.2c0.1,0.3,0.2,0.6,0.2,1c0,0.1,0.1,0.2,0.1,0.3c0.1,0.3,0.1,0.6,0.2,0.8
			c0,0.1,0,0.2,0.1,0.3c0.1,0.3,0.2,0.7,0.2,1c0,0,0,0,0,0.1l0.4,1.9c0.3,1.3,0.5,2.4,0.7,3.2c0.4,2.4-0.6,3.6-0.9,4.6
			s-1.9,4.7-2.2,5.7s-1.3,4.1-1.3,4.7c-0.1,0.7,0.1,1.9,0,2.6c-0.1,1.4-0.4,2.1,0.2,2.4c1.6,0.8,2-2.8,2.9-5
			c0.5-1.2,1.7-3.7,2.8-3.6c1.3,0.1,0.6,4.9,0.6,4.9s0.6,2.7-4.1,8.5c-2.4,2.9,1.8,2.6,2.6,1.9c0,0,4.3-2.6,7.2-7.8
			C1121.2,586,1121.8,582.4,1121.7,580.1z"/>
		<circle class="st7" cx="1068.5" cy="411.3" r="14.7"/>
		<circle class="st7" cx="1068.5" cy="542.2" r="14.7"/>
		<g>
			<path class="st8" d="M1072.3,419.8c0,9.5-7.3,9.5-7.3,19.1c0,9.5,7.3,9.5,7.3,19.1s-7.3,9.6-7.3,19.1c0,9.6,7.3,9.6,7.3,19.1
				c0,9.6-7.3,9.6-7.3,19.1c0,9.6,7.3,9.6,7.3,19.1"/>
		</g>
		<g>
			<path class="st8" d="M1065,534.4c0-9.5,7.3-9.5,7.3-19.1c0-9.5-7.3-9.5-7.3-19.1s7.3-9.6,7.3-19.1c0-9.6-7.3-9.6-7.3-19.1
				c0-9.6,7.3-9.6,7.3-19.1s-7.3-9.6-7.3-19.1"/>
		</g>
		<circle class="st9" cx="1068.5" cy="411.3" r="9.2"/>
		<circle class="st9" cx="1068.5" cy="542.2" r="9.2"/>
	</g>
</g>
<polygon class="st10" points="1188,532.1 1178,532.1 1178,532.1 "/>
<g>
	<g>
		<path class="st3" d="M143.4,163.9c0,1.7-0.3,3-0.8,3.9c-0.5,0.9-1.6,1.4-3.3,1.4h-18.1c-1.6-1.4-2.4-2.7-2.4-3.8
			c0-3.1,2.4-6.8,7.3-11.1l5.7-5c1.5-1.3,2.6-2.6,3.3-3.9c0.7-1.3,1.1-2.7,1.1-3.9c0-1.7-0.5-3.1-1.6-4.2c-1-1-2.4-1.6-4-1.6
			s-3,0.5-4.2,1.5c-1.2,1-2.1,2.4-2.8,4c-0.8,0-1.7-0.2-2.5-0.6c-0.9-0.4-1.5-0.8-1.9-1.4c0.4-1.2,1-2.3,1.7-3.4
			c0.7-1,1.6-1.9,2.7-2.7c1-0.8,2.2-1.4,3.5-1.8c1.3-0.4,2.8-0.7,4.4-0.7c1.6,0,3,0.3,4.3,0.8c1.3,0.5,2.5,1.3,3.5,2.2
			c1,1,1.7,2.1,2.3,3.3c0.5,1.3,0.8,2.6,0.8,4.1c0,1.5-0.2,2.8-0.5,3.9c-0.3,1.1-0.8,2.1-1.4,3.1c-0.6,1-1.4,1.9-2.3,2.8
			c-0.9,0.9-2,1.8-3.1,2.9l-4.5,3.8c-3.4,3-5.3,5.2-5.7,6.8c1.5-0.2,2.9-0.3,4.2-0.3c1.3-0.1,2.4-0.1,3.5-0.1H143.4z"/>
		<path class="st3" d="M150.6,131.4h23.1c0.7,1.5,1.1,2.7,1.1,3.6c0,0.9-0.3,1.8-0.9,2.7l-2,2.9c-3,4.4-5.2,8.6-6.8,12.6
			c-1.6,4.1-2.7,8.7-3.2,13.9l-0.2,2.1c-0.9,0.2-1.9,0.3-3,0.3c-1.1,0-2.2-0.1-3.3-0.3l0.2-2.4c0.9-9.2,4.1-17.6,9.5-25.4l0.6-0.9
			c0.8-1.2,1.9-2.6,3.3-4.1l-0.2-0.2c-1.6,0.4-4.5,0.5-8.9,0.5h-9.6c-0.2-0.7-0.3-1.5-0.3-2.4S150.3,132.4,150.6,131.4z"/>
		<path class="st3" d="M181.6,163.1c1-0.5,2.2-0.8,3.6-0.8c0.7,0,1.2,0,1.7,0.1c0.5,0.1,1,0.2,1.3,0.4c0.4,0.2,0.7,0.5,0.8,1
			c0.1,0.5,0.2,1.2,0.2,2.1c0,0.8,0,1.5-0.1,2c-0.1,0.5-0.3,0.9-0.7,1.1c-0.3,0.2-0.8,0.3-1.3,0.4c-0.5,0.1-1.1,0.1-1.9,0.1
			c-0.7,0-1.4,0-1.9-0.1c-0.5-0.1-1-0.2-1.4-0.4c-0.4-0.2-0.6-0.5-0.8-1c-0.1-0.5-0.2-1.2-0.2-2.1
			C181,164.8,181.2,163.8,181.6,163.1z"/>
		<path class="st3" d="M207,164.2l-0.1-3.9V147c0-0.6,0.1-3,0.3-7.1c-2.2,2.7-5,4.8-8.4,6.3c-1.4-0.8-2.3-2-2.6-3.6
			c5.4-3.4,9.1-7.1,10.9-11.2c0.8-0.2,1.8-0.3,2.8-0.3c1.1,0,2,0.1,2.9,0.3v28.9l-0.1,3.9l3.4-0.1h4c0.2,0.7,0.2,1.6,0.2,2.5
			c0,1-0.1,1.8-0.2,2.5h-22c-0.2-0.8-0.2-1.6-0.2-2.6c0-0.9,0.1-1.8,0.2-2.5h5.4L207,164.2z"/>
		<path class="st3" d="M242,131.1c1.9,1.9,2.9,5.1,2.9,9.6c0,4.1-0.8,7.1-2.4,9.1c-1.6,1.9-3.9,2.9-6.8,2.9s-5.2-1-6.8-2.9
			c-1.6-1.9-2.4-4.9-2.4-9.1c0-4.1,0.8-7.1,2.4-9c1.6-1.9,3.8-2.9,6.8-2.9C238.3,128.7,240.4,129.5,242,131.1z M235.7,132.7
			c-2.6,0-3.9,2.7-3.9,8c0,5.3,1.3,7.9,3.9,7.9c2.6,0,4-2.6,4-7.9C239.6,135.3,238.3,132.7,235.7,132.7z M236.2,169.2l22-39.8
			c0.7-0.2,1.5-0.3,2.4-0.3c1.6,0,2.7,0.1,3.4,0.3l-21.9,39.8c-0.7,0.2-1.5,0.3-2.5,0.3c-0.8,0-1.5,0-2.1-0.1
			C237,169.4,236.5,169.3,236.2,169.2z M270.9,167.5c-1.6,1.6-3.7,2.4-6.3,2.4c-3.1,0-5.4-1-6.9-3c-1.5-2-2.3-5-2.3-9
			c0-4,0.8-7,2.4-9c1.6-1.9,3.8-2.9,6.8-2.9c2.9,0,5.2,1,6.8,2.9c1.6,1.9,2.4,4.9,2.4,9.1C273.8,162.4,272.8,165.6,270.9,167.5z
			 M268.7,158c0-5.3-1.3-8-4-8c-2.7,0-4,2.7-4,8c0,5.3,1.3,7.9,4,7.9C267.3,165.9,268.7,163.3,268.7,158z"/>
		<path class="st3" d="M134,205l1.2,2.9c0.5,1.4,1.1,2.4,1.7,2.8c-0.7,0.8-1.5,1.1-2.4,1.1c-0.6,0-1.1-0.2-1.4-0.5
			c-0.3-0.3-0.6-0.8-0.9-1.6l-1.4-3.5c-0.4-0.9-0.8-1.5-1.2-1.9c-0.4-0.3-0.9-0.5-1.5-0.5s-1.2,0-2,0.1v7.5c-0.4,0.1-1,0.1-1.8,0.1
			c-0.7,0-1.3,0-1.8-0.1v-25.7l0.2-0.2h1.4c0.7,0,1.2,0.2,1.5,0.5s0.4,1,0.4,1.8V201l1.2-0.1c0.4,0,0.7-0.2,0.8-0.5l3.1-4.9
			c0.6-1,1.3-1.6,2.3-1.6s1.6,0,2,0l0.2,0.3l-3.8,6.1c-0.4,0.6-0.7,1-1.2,1.4C132.2,202.2,133.3,203.2,134,205z"/>
		<path class="st3" d="M139.2,195.8c0.2-0.9,0.7-1.5,1.3-1.9c1.6,0.4,2.7,1.4,3.2,3.1c0.9-2.1,2.5-3.1,4.6-3.1
			c0.6,0,1.2,0.1,1.9,0.2c0,1.4-0.3,2.5-0.9,3.5c-0.2-0.1-0.7-0.1-1.4-0.2c-1.6,0-2.9,0.9-3.8,2.7v11.5c-0.4,0.1-1.1,0.1-1.8,0.1
			s-1.4,0-1.8-0.1v-12.1C140.5,197.8,140.1,196.6,139.2,195.8z"/>
		<path class="st3" d="M157.9,197.1v14.4c-0.4,0.1-1.1,0.1-1.8,0.1c-0.8,0-1.4,0-1.8-0.1v-12.9c0-0.7-0.1-1.1-0.4-1.4
			c-0.2-0.3-0.6-0.4-1.2-0.4h-0.4c-0.1-0.5-0.2-1-0.2-1.3s0.1-0.8,0.2-1.3c0.8-0.1,1.5-0.1,2.2-0.1h0.5c0.9,0,1.6,0.3,2.1,0.8
			C157.7,195.4,157.9,196.2,157.9,197.1z M153.5,190.8c-0.2-0.4-0.3-0.9-0.3-1.6c0-1,0.2-1.5,0.5-1.7c0.4-0.2,0.9-0.3,1.8-0.3
			c0.9,0,1.5,0.1,1.8,0.4c0.3,0.2,0.4,0.8,0.4,1.7c0,0.8-0.2,1.4-0.4,1.6c-0.3,0.2-0.9,0.4-1.8,0.4
			C154.6,191.3,153.9,191.1,153.5,190.8z"/>
		<path class="st3" d="M171.8,194.1c0.1,0.4,0.2,0.9,0.2,1.4c0,0.5-0.1,1-0.2,1.3l-4.3-0.1v10.5c0,1,0.5,1.5,1.4,1.5h2.4
			c0.2,0.5,0.3,1.1,0.3,1.6c0,0.5,0,0.9-0.1,1.1c-1.4,0.2-2.7,0.2-4,0.2c-2.5,0-3.7-1.2-3.7-3.6v-11.3l-2.6,0
			c-0.1-0.4-0.1-0.8-0.1-1.3c0-0.5,0-0.9,0.1-1.4l2.6,0.1V191c0-0.8,0.1-1.4,0.4-1.8c0.3-0.4,0.8-0.5,1.5-0.5h1.4l0.2,0.2v5.2
			L171.8,194.1z"/>
		<path class="st3" d="M180.2,197.1v14.4c-0.4,0.1-1.1,0.1-1.8,0.1c-0.8,0-1.4,0-1.8-0.1v-12.9c0-0.7-0.1-1.1-0.4-1.4
			c-0.2-0.3-0.6-0.4-1.2-0.4h-0.4c-0.1-0.5-0.2-1-0.2-1.3s0.1-0.8,0.2-1.3c0.8-0.1,1.5-0.1,2.2-0.1h0.5c0.9,0,1.6,0.3,2.1,0.8
			C179.9,195.4,180.2,196.2,180.2,197.1z M175.8,190.8c-0.2-0.4-0.3-0.9-0.3-1.6c0-1,0.2-1.5,0.5-1.7c0.4-0.2,0.9-0.3,1.8-0.3
			c0.9,0,1.5,0.1,1.8,0.4c0.3,0.2,0.4,0.8,0.4,1.7c0,0.8-0.2,1.4-0.4,1.6c-0.3,0.2-0.9,0.4-1.8,0.4
			C176.8,191.3,176.2,191.1,175.8,190.8z"/>
		<path class="st3" d="M184,210.2c0-0.4,0.2-0.9,0.4-1.4c0.2-0.5,0.5-0.9,0.8-1.2c1.9,1,3.4,1.6,4.6,1.6c1.2,0,2.1-0.2,2.7-0.6
			c0.6-0.4,0.9-0.9,0.9-1.6c0-1-0.7-1.8-2.2-2.4l-2-0.7c-3-1.1-4.5-2.8-4.5-5c0-1.6,0.6-2.9,1.7-3.8c1.2-0.9,2.7-1.4,4.6-1.4
			c1.9,0,3.8,0.4,5.7,1.3c0,0.5-0.1,1-0.3,1.5c-0.2,0.5-0.5,0.9-0.8,1.2c-1.7-0.8-3.2-1.2-4.7-1.2c-0.8,0-1.4,0.2-1.9,0.6
			c-0.5,0.4-0.7,0.8-0.7,1.4s0.2,1,0.5,1.3c0.3,0.3,0.9,0.6,1.7,0.9l2.1,0.8c3,1.2,4.5,2.9,4.5,5.3c0,1.6-0.6,2.9-1.9,3.8
			c-1.2,0.9-2.9,1.4-5.1,1.4C188,212,185.9,211.4,184,210.2z"/>
		<path class="st3" d="M210.3,200.9v-0.4c0-2.7-1-4-3.1-4c-1.1,0-2,0.5-2.6,1.6c-0.6,1.1-0.9,2.7-0.9,4.8c0,4,1.3,6.1,4,6.1
			c1.3,0,2.7-0.6,4.3-1.8c0.3,0.2,0.6,0.5,0.9,0.9c0.3,0.4,0.5,0.8,0.6,1.2c-1.7,1.7-3.8,2.6-6.3,2.6c-1.2,0-2.3-0.2-3.2-0.7
			c-0.9-0.5-1.7-1.1-2.3-1.9c-0.6-0.8-1-1.8-1.3-3c-0.3-1.2-0.4-2.4-0.4-3.8c0-1.4,0.2-2.7,0.6-3.8c0.4-1.1,0.9-2.1,1.6-2.8
			c0.7-0.8,1.4-1.3,2.3-1.7s1.8-0.6,2.8-0.6c1,0,1.9,0.2,2.7,0.5c0.8,0.3,1.5,0.7,2,1.2c0.6,0.5,1,1.1,1.3,1.7
			c0.3,0.6,0.4,1.3,0.4,2c0,1.3-0.6,2-1.8,2C211.2,201,210.7,200.9,210.3,200.9z"/>
		<path class="st3" d="M231.5,199.6v8.2c0,1.4,0.2,2.5,0.6,3.2c-0.7,0.5-1.4,0.8-2.2,0.8c-0.8,0-1.3-0.2-1.6-0.6
			c-0.3-0.4-0.4-1-0.4-1.7v-8.9c0-1.2-0.2-2.1-0.5-2.6c-0.3-0.5-0.9-0.8-1.6-0.8c-0.8,0-1.6,0.2-2.4,0.6c-0.8,0.4-1.5,0.9-2.1,1.6
			v12.2c-0.2,0-0.5,0.1-0.8,0.1c-0.3,0-0.6,0-1,0c-0.3,0-0.7,0-1,0c-0.3,0-0.6-0.1-0.8-0.1v-25.7l0.2-0.2h1.4c0.7,0,1.2,0.2,1.5,0.5
			s0.4,1,0.4,1.8v8.2c1.7-1.6,3.6-2.3,5.6-2.3c1.6,0,2.8,0.5,3.5,1.6C231.1,196.5,231.5,197.9,231.5,199.6z"/>
		<path class="st3" d="M249.8,204h-10.4c0.1,1.6,0.4,2.9,1,3.7c0.6,0.9,1.7,1.3,3.2,1.3c0.7,0,1.5-0.1,2.3-0.3
			c0.8-0.2,1.7-0.6,2.5-1c0.6,0.5,1,1.3,1.2,2.3c-1.9,1.3-4.1,2-6.6,2c-1.3,0-2.5-0.2-3.4-0.7c-0.9-0.5-1.7-1.1-2.2-1.9
			c-0.6-0.8-1-1.8-1.3-2.9s-0.4-2.4-0.4-3.7c0-1.3,0.2-2.5,0.5-3.6c0.3-1.1,0.8-2.1,1.4-2.9c0.6-0.8,1.4-1.4,2.3-1.9
			s1.9-0.7,3.1-0.7s2.1,0.2,3,0.6c0.9,0.4,1.6,0.9,2.2,1.6c0.6,0.7,1.1,1.5,1.4,2.4c0.3,0.9,0.5,1.9,0.5,3c0,0.5,0,0.9-0.1,1.4
			C249.9,203.1,249.9,203.5,249.8,204z M243,196.4c-2.2,0-3.4,1.7-3.6,5h7.1v-0.5c0-1.3-0.3-2.4-0.9-3.3
			C245.1,196.8,244.2,196.4,243,196.4z"/>
		<path class="st3" d="M253.5,195.8c0.2-0.9,0.7-1.5,1.3-1.9c1.6,0.4,2.7,1.4,3.2,3.1c0.9-2.1,2.5-3.1,4.6-3.1
			c0.6,0,1.2,0.1,1.9,0.2c0,1.4-0.3,2.5-0.9,3.5c-0.2-0.1-0.7-0.1-1.4-0.2c-1.6,0-2.9,0.9-3.8,2.7v11.5c-0.4,0.1-1.1,0.1-1.8,0.1
			s-1.4,0-1.8-0.1v-12.1C254.8,197.8,254.4,196.6,253.5,195.8z"/>
		<path class="st3" d="M150.2,254l-7.8-0.1l-0.2-0.3V230l0.2-0.2l7.3-0.1c2.6,0,4.5,0.6,5.8,1.7c1.3,1.1,1.9,2.7,1.9,4.7
			c0,1.1-0.3,2.1-0.9,3c-0.6,0.9-1.4,1.5-2.4,1.9c0.6,0.2,1.2,0.5,1.7,0.9c0.6,0.4,1,0.9,1.4,1.4c0.4,0.5,0.7,1.1,1,1.8
			s0.4,1.4,0.4,2.1c0,2.1-0.7,3.7-2.1,5C155.1,253.4,153,254,150.2,254z M145.9,232.5v7.3h3.7c0.7,0,1.4-0.1,1.9-0.3
			c0.5-0.2,0.9-0.4,1.2-0.8c0.3-0.3,0.5-0.7,0.7-1.2s0.2-0.9,0.2-1.4c0-2.4-1.3-3.6-4-3.6c-0.9,0-1.6,0-2.3,0
			S146.3,232.5,145.9,232.5z M145.9,251.2l4.3,0c0.9,0,1.6-0.1,2.2-0.4c0.6-0.2,1.1-0.5,1.4-0.9c0.4-0.4,0.6-0.8,0.8-1.3
			c0.2-0.5,0.2-1,0.2-1.6c0-0.5-0.1-1-0.3-1.5s-0.5-1-0.8-1.4c-0.4-0.4-0.9-0.7-1.5-1c-0.6-0.2-1.3-0.4-2.2-0.4h-4.1V251.2z"/>
		<path class="st3" d="M176,246.3h-10.4c0.1,1.6,0.4,2.9,1,3.7c0.6,0.9,1.7,1.3,3.2,1.3c0.7,0,1.5-0.1,2.3-0.3
			c0.8-0.2,1.7-0.6,2.5-1c0.6,0.5,1,1.3,1.2,2.3c-1.9,1.3-4.1,2-6.6,2c-1.3,0-2.5-0.2-3.4-0.7c-0.9-0.5-1.7-1.1-2.2-1.9
			c-0.6-0.8-1-1.8-1.3-2.9s-0.4-2.4-0.4-3.7c0-1.3,0.2-2.5,0.5-3.6c0.3-1.1,0.8-2.1,1.4-2.9c0.6-0.8,1.4-1.4,2.3-1.9
			s1.9-0.7,3.1-0.7s2.1,0.2,3,0.6c0.9,0.4,1.6,0.9,2.2,1.6c0.6,0.7,1.1,1.5,1.4,2.4c0.3,0.9,0.5,1.9,0.5,3c0,0.5,0,0.9-0.1,1.4
			C176.2,245.4,176.1,245.9,176,246.3z M169.2,238.7c-2.2,0-3.4,1.7-3.6,5h7.1v-0.5c0-1.3-0.3-2.4-0.9-3.3
			C171.3,239.1,170.4,238.7,169.2,238.7z"/>
		<path class="st3" d="M179.7,238.1c0.2-0.9,0.7-1.5,1.3-1.9c1.6,0.4,2.7,1.4,3.2,3.1c0.9-2.1,2.5-3.1,4.6-3.1
			c0.6,0,1.2,0.1,1.9,0.2c0,1.4-0.3,2.5-0.9,3.5c-0.2-0.1-0.7-0.1-1.4-0.2c-1.6,0-2.9,0.9-3.8,2.7v11.5c-0.4,0.1-1.1,0.1-1.8,0.1
			s-1.4,0-1.8-0.1v-12.1C181,240.2,180.6,239,179.7,238.1z"/>
		<path class="st3" d="M205.9,246.3h-10.4c0.1,1.6,0.4,2.9,1,3.7c0.6,0.9,1.7,1.3,3.2,1.3c0.7,0,1.5-0.1,2.3-0.3
			c0.8-0.2,1.7-0.6,2.5-1c0.6,0.5,1,1.3,1.2,2.3c-1.9,1.3-4.1,2-6.6,2c-1.3,0-2.5-0.2-3.4-0.7c-0.9-0.5-1.7-1.1-2.2-1.9
			c-0.6-0.8-1-1.8-1.3-2.9s-0.4-2.4-0.4-3.7c0-1.3,0.2-2.5,0.5-3.6c0.3-1.1,0.8-2.1,1.4-2.9c0.6-0.8,1.4-1.4,2.3-1.9
			s1.9-0.7,3.1-0.7s2.1,0.2,3,0.6c0.9,0.4,1.6,0.9,2.2,1.6c0.6,0.7,1.1,1.5,1.4,2.4c0.3,0.9,0.5,1.9,0.5,3c0,0.5,0,0.9-0.1,1.4
			C206.1,245.4,206,245.9,205.9,246.3z M199.2,238.7c-2.2,0-3.4,1.7-3.6,5h7.1v-0.5c0-1.3-0.3-2.4-0.9-3.3
			C201.3,239.1,200.4,238.7,199.2,238.7z"/>
		<path class="st3" d="M214.8,239.5v14.4c-0.4,0.1-1.1,0.1-1.8,0.1c-0.8,0-1.4,0-1.8-0.1V241c0-0.7-0.1-1.1-0.4-1.4
			c-0.2-0.3-0.6-0.4-1.2-0.4h-0.4c-0.1-0.5-0.2-1-0.2-1.3s0.1-0.8,0.2-1.3c0.8-0.1,1.5-0.1,2.2-0.1h0.5c0.9,0,1.6,0.3,2.1,0.8
			C214.5,237.8,214.8,238.5,214.8,239.5z M210.4,233.2c-0.2-0.4-0.3-0.9-0.3-1.6c0-1,0.2-1.5,0.5-1.7c0.4-0.2,0.9-0.3,1.8-0.3
			c0.9,0,1.5,0.1,1.8,0.4c0.3,0.2,0.4,0.8,0.4,1.7c0,0.8-0.2,1.4-0.4,1.6c-0.3,0.2-0.9,0.4-1.8,0.4
			C211.4,233.6,210.8,233.5,210.4,233.2z"/>
		<path class="st3" d="M229.4,243.2v-0.4c0-2.7-1-4-3.1-4c-1.1,0-2,0.5-2.6,1.6c-0.6,1.1-0.9,2.7-0.9,4.8c0,4,1.3,6.1,4,6.1
			c1.3,0,2.7-0.6,4.3-1.8c0.3,0.2,0.6,0.5,0.9,0.9c0.3,0.4,0.5,0.8,0.6,1.2c-1.7,1.7-3.8,2.6-6.3,2.6c-1.2,0-2.3-0.2-3.2-0.7
			c-0.9-0.5-1.7-1.1-2.3-1.9c-0.6-0.8-1-1.8-1.3-3c-0.3-1.2-0.4-2.4-0.4-3.8c0-1.4,0.2-2.7,0.6-3.8c0.4-1.1,0.9-2.1,1.6-2.8
			c0.7-0.8,1.4-1.3,2.3-1.7s1.8-0.6,2.8-0.6c1,0,1.9,0.2,2.7,0.5c0.8,0.3,1.5,0.7,2,1.2c0.6,0.5,1,1.1,1.3,1.7
			c0.3,0.6,0.4,1.3,0.4,2c0,1.3-0.6,2-1.8,2C230.3,243.3,229.8,243.3,229.4,243.2z"/>
		<path class="st3" d="M250.7,241.9v8.2c0,1.4,0.2,2.5,0.6,3.2c-0.7,0.5-1.4,0.8-2.2,0.8c-0.8,0-1.3-0.2-1.6-0.6
			c-0.3-0.4-0.4-1-0.4-1.7v-8.9c0-1.2-0.2-2.1-0.5-2.6c-0.3-0.5-0.9-0.8-1.6-0.8c-0.8,0-1.6,0.2-2.4,0.6c-0.8,0.4-1.5,0.9-2.1,1.6
			v12.2c-0.2,0-0.5,0.1-0.8,0.1c-0.3,0-0.6,0-1,0c-0.3,0-0.7,0-1,0c-0.3,0-0.6-0.1-0.8-0.1v-25.7l0.2-0.2h1.4c0.7,0,1.2,0.2,1.5,0.5
			s0.4,1,0.4,1.8v8.2c1.7-1.6,3.6-2.3,5.6-2.3c1.6,0,2.8,0.5,3.5,1.6C250.3,238.8,250.7,240.2,250.7,241.9z"/>
	</g>
</g>
<g>
	<path class="st6" d="M1188.9,163.9c0,1.7-0.3,3-0.8,3.9c-0.5,0.9-1.6,1.4-3.3,1.4h-18.1c-1.6-1.4-2.4-2.7-2.4-3.8
		c0-3.1,2.4-6.8,7.3-11.1l5.7-5c1.5-1.3,2.6-2.6,3.3-3.9c0.7-1.3,1.1-2.7,1.1-3.9c0-1.7-0.5-3.1-1.6-4.2s-2.4-1.6-4-1.6
		s-3,0.5-4.2,1.5c-1.2,1-2.1,2.4-2.8,4c-0.8,0-1.7-0.2-2.5-0.6c-0.9-0.4-1.5-0.8-1.9-1.4c0.4-1.2,1-2.3,1.7-3.4
		c0.7-1,1.6-1.9,2.7-2.7c1-0.8,2.2-1.4,3.5-1.8c1.3-0.4,2.8-0.7,4.4-0.7c1.6,0,3,0.3,4.3,0.8c1.3,0.5,2.5,1.3,3.5,2.2
		c1,1,1.7,2.1,2.3,3.3c0.5,1.3,0.8,2.6,0.8,4.1c0,1.5-0.2,2.8-0.5,3.9c-0.3,1.1-0.8,2.1-1.4,3.1c-0.6,1-1.4,1.9-2.3,2.8
		c-0.9,0.9-2,1.8-3.1,2.9l-4.5,3.8c-3.4,3-5.3,5.2-5.7,6.8c1.5-0.2,2.9-0.3,4.2-0.3c1.3-0.1,2.4-0.1,3.5-0.1H1188.9z"/>
	<path class="st6" d="M1199.1,166.2c-0.7-0.9-1.3-1.8-1.8-2.9c-0.5-1-0.9-2.1-1.3-3.4c-0.3-1.2-0.6-2.7-0.8-4.3
		c-0.2-1.6-0.2-3.5-0.2-5.6c0-3,0.3-5.8,1-8.2c0.7-2.4,1.6-4.5,2.9-6.1c1.3-1.7,2.8-3,4.7-3.8c1.9-0.9,4-1.3,6.5-1.3
		c3.4,0,6.2,0.6,8.4,1.8c-0.2,2-0.9,3.4-2.2,4.2c-1.9-0.9-3.8-1.3-5.9-1.3c-3,0-5.2,1.1-6.7,3.2s-2.3,5-2.4,8.6
		c2.4-2.2,5.2-3.3,8.5-3.3c3.3,0,5.9,1,7.8,3.1c1.9,2.1,2.8,5.2,2.8,9.3c0,2-0.3,3.8-0.9,5.5c-0.6,1.7-1.4,3.1-2.5,4.3
		c-1.1,1.2-2.4,2.1-3.9,2.8c-1.5,0.7-3.3,1-5.2,1C1204.1,170,1201.2,168.7,1199.1,166.2z M1208.2,149c-2.5,0-4.8,1.1-6.9,3.3v0.9
		c0,4,0.6,7,1.7,9c1.2,2,2.9,3.1,5.1,3.1c1.9,0,3.3-0.7,4.4-2.2c1.1-1.5,1.6-3.5,1.6-6.1C1214.2,151.7,1212.2,149,1208.2,149z"/>
	<path class="st6" d="M1227.1,163.1c1-0.5,2.2-0.8,3.6-0.8c0.7,0,1.2,0,1.7,0.1c0.5,0.1,1,0.2,1.3,0.4c0.4,0.2,0.7,0.5,0.8,1
		c0.1,0.5,0.2,1.2,0.2,2.1c0,0.8,0,1.5-0.1,2c-0.1,0.5-0.3,0.9-0.7,1.1c-0.3,0.2-0.8,0.3-1.3,0.4c-0.5,0.1-1.1,0.1-1.9,0.1
		c-0.7,0-1.4,0-1.9-0.1c-0.5-0.1-1-0.2-1.4-0.4c-0.4-0.2-0.6-0.5-0.8-1c-0.1-0.5-0.2-1.2-0.2-2.1
		C1226.5,164.8,1226.7,163.8,1227.1,163.1z"/>
	<path class="st6" d="M1263.9,131.4c0.3,0.8,0.4,1.6,0.4,2.5c0,1.8-0.9,2.7-2.7,2.7h-12.3v2.9l-0.4,5.6c1.7-0.7,3.4-1,5.1-1
		c3.6,0,6.5,1.1,8.6,3.2c2.1,2.2,3.2,5.3,3.2,9.4c0,2-0.4,3.8-1.1,5.5s-1.7,3-2.9,4.2c-1.2,1.1-2.6,2-4.3,2.7
		c-1.6,0.6-3.3,0.9-5.1,0.9c-4.5,0-8.1-1.2-11-3.7c0.1-0.7,0.4-1.4,0.9-2.2c0.5-0.8,1-1.4,1.6-1.8c1.4,1,2.8,1.7,4.1,2.1
		c1.3,0.4,2.6,0.7,3.7,0.7c2.3,0,4.1-0.8,5.5-2.3c1.4-1.5,2.1-3.6,2.1-6.2c0-1.4-0.2-2.5-0.6-3.5s-0.9-1.8-1.6-2.4
		c-0.7-0.6-1.5-1.1-2.3-1.4c-0.8-0.3-1.7-0.4-2.7-0.4c-1,0-2.1,0.2-3.3,0.6c-1.1,0.4-2.2,1.1-3.3,2c-0.5-0.1-1.1-0.3-1.7-0.7
		c-0.6-0.4-1-0.8-1.3-1.3l0.8-17.5l0.4-0.4H1263.9z"/>
	<path class="st6" d="M1287.5,131.1c1.9,1.9,2.9,5.1,2.9,9.6c0,4.1-0.8,7.1-2.4,9.1c-1.6,1.9-3.9,2.9-6.8,2.9s-5.2-1-6.8-2.9
		c-1.6-1.9-2.4-4.9-2.4-9.1c0-4.1,0.8-7.1,2.4-9c1.6-1.9,3.8-2.9,6.8-2.9C1283.8,128.7,1285.9,129.5,1287.5,131.1z M1281.2,132.7
		c-2.6,0-3.9,2.7-3.9,8c0,5.3,1.3,7.9,3.9,7.9c2.6,0,4-2.6,4-7.9C1285.1,135.3,1283.8,132.7,1281.2,132.7z M1281.7,169.2l22-39.8
		c0.7-0.2,1.5-0.3,2.4-0.3c1.6,0,2.7,0.1,3.4,0.3l-21.9,39.8c-0.7,0.2-1.5,0.3-2.5,0.3c-0.8,0-1.5,0-2.1-0.1
		C1282.5,169.4,1282,169.3,1281.7,169.2z M1316.4,167.5c-1.6,1.6-3.7,2.4-6.3,2.4c-3.1,0-5.4-1-6.9-3c-1.5-2-2.3-5-2.3-9
		c0-4,0.8-7,2.4-9c1.6-1.9,3.8-2.9,6.8-2.9s5.2,1,6.8,2.9c1.6,1.9,2.4,4.9,2.4,9.1C1319.3,162.4,1318.3,165.6,1316.4,167.5z
		 M1314.2,158c0-5.3-1.3-8-4-8s-4,2.7-4,8c0,5.3,1.3,7.9,4,7.9S1314.2,163.3,1314.2,158z"/>
	<path class="st6" d="M1200.5,195.5c0.5-0.8,1.3-1.4,2.4-1.6c0.3,0.2,0.6,0.5,0.8,0.8c0.3,0.4,0.4,0.7,0.5,1c-0.7,0.6-1,1.8-1,3.4
		v10.4c0,1.8-0.1,3.3-0.4,4.6c-0.3,1.2-0.7,2.3-1.4,3s-1.4,1.3-2.3,1.7c-0.9,0.3-2.1,0.5-3.4,0.5c-2.1,0-4.1-0.4-6.1-1.2
		c0-1.1,0.3-2,1-2.8c1.5,0.7,3.1,1.1,4.8,1.1c1.7,0,2.8-0.4,3.4-1.3c0.6-0.9,0.9-2.1,0.9-3.6V210c-1.4,1.3-3,1.9-4.9,1.9
		c-1.9,0-3.3-0.8-4.4-2.4c-1-1.6-1.6-3.9-1.6-6.7c0-1.4,0.2-2.7,0.5-3.8c0.4-1.1,0.8-2.1,1.5-2.8s1.4-1.4,2.2-1.8
		c0.8-0.4,1.7-0.6,2.6-0.6C1197.6,193.7,1199.2,194.3,1200.5,195.5z M1199.8,206.7v-8.6c-1.2-1.1-2.3-1.6-3.5-1.6
		c-1.1,0-2,0.5-2.7,1.6s-1,2.6-1,4.7c0,2.1,0.3,3.6,0.9,4.5c0.6,1,1.4,1.4,2.3,1.4C1197.3,208.8,1198.6,208.1,1199.8,206.7z"/>
	<path class="st6" d="M1207.8,195.8c0.2-0.9,0.7-1.5,1.3-1.9c1.6,0.4,2.7,1.4,3.2,3.1c0.9-2.1,2.5-3.1,4.6-3.1
		c0.6,0,1.2,0.1,1.9,0.2c0,1.4-0.3,2.5-0.9,3.5c-0.2-0.1-0.7-0.1-1.4-0.2c-1.6,0-2.9,0.9-3.8,2.7v11.5c-0.4,0.1-1.1,0.1-1.8,0.1
		c-0.8,0-1.4,0-1.8-0.1v-12.1C1209.1,197.8,1208.6,196.6,1207.8,195.8z"/>
	<path class="st6" d="M1221.6,206.1v-8.2c0-1.4-0.2-2.5-0.6-3.2c0.6-0.5,1.4-0.8,2.3-0.8c1.3,0,1.9,0.8,1.9,2.3v9
		c0,1.2,0.2,2.1,0.5,2.6c0.3,0.5,0.8,0.8,1.6,0.8c0.8,0,1.6-0.2,2.4-0.6c0.8-0.4,1.5-0.9,2.2-1.6v-12.3c0.7-0.1,1.3-0.1,1.8-0.1
		s1.2,0,1.9,0.1v12.5c0,1.6,0.3,2.8,1,3.4c-0.3,0.8-0.7,1.5-1.4,1.8c-1.5-0.3-2.5-1.1-3-2.5c-1.8,1.7-3.8,2.6-5.9,2.6
		c-1.6,0-2.7-0.5-3.5-1.6C1222,209.2,1221.6,207.8,1221.6,206.1z M1223.5,191.3c-0.1-0.2-0.2-0.4-0.2-0.6c0-0.2-0.1-0.5-0.1-0.7
		c0-0.8,0.2-1.3,0.5-1.5c0.4-0.2,0.8-0.3,1.4-0.3c0.7,0,1.2,0.1,1.5,0.4c0.3,0.2,0.4,0.7,0.4,1.5c0,0.8-0.1,1.2-0.4,1.5
		c-0.3,0.2-0.8,0.3-1.6,0.3C1224.4,191.8,1223.8,191.6,1223.5,191.3z M1230,191.3c-0.1-0.2-0.2-0.4-0.2-0.7c0-0.2-0.1-0.5-0.1-0.7
		c0-0.8,0.1-1.2,0.4-1.5c0.3-0.2,0.8-0.4,1.6-0.4c0.7,0,1.2,0.1,1.5,0.3c0.3,0.2,0.5,0.7,0.5,1.6c0,0.8-0.1,1.3-0.4,1.5
		c-0.3,0.2-0.8,0.3-1.5,0.3C1231,191.8,1230.5,191.6,1230,191.3z"/>
	<path class="st6" d="M1254.9,199.6v8.2c0,1.4,0.2,2.5,0.6,3.2c-0.6,0.5-1.3,0.8-2.2,0.8c-0.8,0-1.3-0.2-1.6-0.6
		c-0.3-0.4-0.4-1-0.4-1.7v-9c0-1.2-0.2-2.1-0.5-2.6c-0.3-0.5-0.9-0.8-1.6-0.8c-0.8,0-1.6,0.2-2.4,0.6s-1.5,0.9-2.1,1.6v12.2
		c-0.4,0.1-1,0.1-1.8,0.1c-0.4,0-0.7,0-1,0c-0.3,0-0.6-0.1-0.8-0.1v-17.4l0.2-0.2h1.4c1.3,0,1.9,0.7,2,2.2c1.7-1.6,3.6-2.4,5.6-2.4
		c1.6,0,2.8,0.5,3.5,1.6C1254.5,196.4,1254.9,197.8,1254.9,199.6z"/>
	<path class="st6" d="M1273.2,204h-10.4c0.1,1.6,0.4,2.9,1,3.7c0.6,0.9,1.7,1.3,3.2,1.3c0.7,0,1.5-0.1,2.3-0.3
		c0.8-0.2,1.7-0.6,2.5-1c0.6,0.5,1,1.3,1.2,2.3c-1.9,1.3-4.1,2-6.6,2c-1.3,0-2.5-0.2-3.4-0.7c-0.9-0.5-1.7-1.1-2.2-1.9
		c-0.6-0.8-1-1.8-1.3-2.9c-0.3-1.1-0.4-2.4-0.4-3.7c0-1.3,0.2-2.5,0.5-3.6c0.3-1.1,0.8-2.1,1.4-2.9c0.6-0.8,1.4-1.4,2.3-1.9
		c0.9-0.5,1.9-0.7,3.1-0.7s2.1,0.2,3,0.6c0.9,0.4,1.6,0.9,2.2,1.6s1.1,1.5,1.4,2.4c0.3,0.9,0.5,1.9,0.5,3c0,0.5,0,0.9-0.1,1.4
		S1273.3,203.5,1273.2,204z M1266.4,196.4c-2.2,0-3.4,1.7-3.6,5h7.1v-0.5c0-1.3-0.3-2.4-0.9-3.3
		C1268.5,196.8,1267.6,196.4,1266.4,196.4z"/>
	<path class="st6" d="M1276.9,195.8c0.2-0.9,0.7-1.5,1.3-1.9c1.6,0.4,2.7,1.4,3.2,3.1c0.9-2.1,2.5-3.1,4.6-3.1
		c0.6,0,1.2,0.1,1.9,0.2c0,1.4-0.3,2.5-0.9,3.5c-0.2-0.1-0.7-0.1-1.4-0.2c-1.6,0-2.9,0.9-3.8,2.7v11.5c-0.4,0.1-1.1,0.1-1.8,0.1
		c-0.8,0-1.4,0-1.8-0.1v-12.1C1278.2,197.8,1277.8,196.6,1276.9,195.8z"/>
	<path class="st6" d="M1195.7,254l-7.8-0.1l-0.2-0.3V230l0.2-0.2l7.3-0.1c2.6,0,4.5,0.6,5.8,1.7c1.3,1.1,1.9,2.7,1.9,4.7
		c0,1.1-0.3,2.1-0.9,3s-1.4,1.5-2.4,1.9c0.6,0.2,1.2,0.5,1.7,0.9c0.6,0.4,1,0.9,1.4,1.4c0.4,0.5,0.7,1.1,1,1.8s0.4,1.4,0.4,2.1
		c0,2.1-0.7,3.7-2.1,5C1200.6,253.4,1198.5,254,1195.7,254z M1191.4,232.5v7.3h3.7c0.7,0,1.4-0.1,1.9-0.3c0.5-0.2,0.9-0.4,1.2-0.8
		c0.3-0.3,0.5-0.7,0.7-1.2s0.2-0.9,0.2-1.4c0-2.4-1.3-3.6-4-3.6c-0.9,0-1.6,0-2.3,0C1192.3,232.5,1191.8,232.5,1191.4,232.5z
		 M1191.4,251.2l4.3,0c0.9,0,1.6-0.1,2.2-0.4c0.6-0.2,1.1-0.5,1.4-0.9c0.4-0.4,0.6-0.8,0.8-1.3c0.2-0.5,0.2-1,0.2-1.6
		c0-0.5-0.1-1-0.3-1.5c-0.2-0.5-0.5-1-0.8-1.4c-0.4-0.4-0.9-0.7-1.5-1c-0.6-0.2-1.3-0.4-2.2-0.4h-4.1V251.2z"/>
	<path class="st6" d="M1221.5,246.3h-10.4c0.1,1.6,0.4,2.9,1,3.7c0.6,0.9,1.7,1.3,3.2,1.3c0.7,0,1.5-0.1,2.3-0.3
		c0.8-0.2,1.7-0.6,2.5-1c0.6,0.5,1,1.3,1.2,2.3c-1.9,1.3-4.1,2-6.6,2c-1.3,0-2.5-0.2-3.4-0.7c-0.9-0.5-1.7-1.1-2.2-1.9
		c-0.6-0.8-1-1.8-1.3-2.9c-0.3-1.1-0.4-2.4-0.4-3.7c0-1.3,0.2-2.5,0.5-3.6c0.3-1.1,0.8-2.1,1.4-2.9c0.6-0.8,1.4-1.4,2.3-1.9
		c0.9-0.5,1.9-0.7,3.1-0.7s2.1,0.2,3,0.6c0.9,0.4,1.6,0.9,2.2,1.6s1.1,1.5,1.4,2.4c0.3,0.9,0.5,1.9,0.5,3c0,0.5,0,0.9-0.1,1.4
		S1221.6,245.9,1221.5,246.3z M1214.7,238.7c-2.2,0-3.4,1.7-3.6,5h7.1v-0.5c0-1.3-0.3-2.4-0.9-3.3
		C1216.8,239.1,1215.9,238.7,1214.7,238.7z"/>
	<path class="st6" d="M1225.2,238.1c0.2-0.9,0.7-1.5,1.3-1.9c1.6,0.4,2.7,1.4,3.2,3.1c0.9-2.1,2.5-3.1,4.6-3.1
		c0.6,0,1.2,0.1,1.9,0.2c0,1.4-0.3,2.5-0.9,3.5c-0.2-0.1-0.7-0.1-1.4-0.2c-1.6,0-2.9,0.9-3.8,2.7v11.5c-0.4,0.1-1.1,0.1-1.8,0.1
		c-0.8,0-1.4,0-1.8-0.1v-12.1C1226.5,240.2,1226.1,239,1225.2,238.1z"/>
	<path class="st6" d="M1251.5,246.3h-10.4c0.1,1.6,0.4,2.9,1,3.7c0.6,0.9,1.7,1.3,3.2,1.3c0.7,0,1.5-0.1,2.3-0.3
		c0.8-0.2,1.7-0.6,2.5-1c0.6,0.5,1,1.3,1.2,2.3c-1.9,1.3-4.1,2-6.6,2c-1.3,0-2.5-0.2-3.4-0.7c-0.9-0.5-1.7-1.1-2.2-1.9
		c-0.6-0.8-1-1.8-1.3-2.9c-0.3-1.1-0.4-2.4-0.4-3.7c0-1.3,0.2-2.5,0.5-3.6c0.3-1.1,0.8-2.1,1.4-2.9c0.6-0.8,1.4-1.4,2.3-1.9
		c0.9-0.5,1.9-0.7,3.1-0.7s2.1,0.2,3,0.6c0.9,0.4,1.6,0.9,2.2,1.6s1.1,1.5,1.4,2.4c0.3,0.9,0.5,1.9,0.5,3c0,0.5,0,0.9-0.1,1.4
		S1251.5,245.9,1251.5,246.3z M1244.7,238.7c-2.2,0-3.4,1.7-3.6,5h7.1v-0.5c0-1.3-0.3-2.4-0.9-3.3
		C1246.8,239.1,1245.9,238.7,1244.7,238.7z"/>
	<path class="st6" d="M1260.3,239.5v14.4c-0.4,0.1-1.1,0.1-1.8,0.1c-0.8,0-1.4,0-1.8-0.1V241c0-0.7-0.1-1.1-0.4-1.4
		c-0.2-0.3-0.6-0.4-1.2-0.4h-0.4c-0.1-0.5-0.2-1-0.2-1.3s0.1-0.8,0.2-1.3c0.8-0.1,1.5-0.1,2.2-0.1h0.5c0.9,0,1.6,0.3,2.1,0.8
		S1260.3,238.5,1260.3,239.5z M1255.9,233.2c-0.2-0.4-0.3-0.9-0.3-1.6c0-1,0.2-1.5,0.5-1.7s0.9-0.3,1.8-0.3c0.9,0,1.5,0.1,1.8,0.4
		c0.3,0.2,0.4,0.8,0.4,1.7c0,0.8-0.2,1.4-0.4,1.6c-0.3,0.2-0.9,0.4-1.8,0.4C1257,233.6,1256.3,233.5,1255.9,233.2z"/>
	<path class="st6" d="M1274.9,243.2v-0.4c0-2.7-1-4-3.1-4c-1.1,0-2,0.5-2.6,1.6c-0.6,1.1-0.9,2.7-0.9,4.8c0,4,1.3,6.1,4,6.1
		c1.3,0,2.7-0.6,4.3-1.8c0.3,0.2,0.6,0.5,0.9,0.9s0.5,0.8,0.6,1.2c-1.7,1.7-3.8,2.6-6.3,2.6c-1.2,0-2.3-0.2-3.2-0.7
		c-0.9-0.5-1.7-1.1-2.3-1.9c-0.6-0.8-1-1.8-1.3-3c-0.3-1.2-0.4-2.4-0.4-3.8c0-1.4,0.2-2.7,0.6-3.8c0.4-1.1,0.9-2.1,1.6-2.8
		c0.7-0.8,1.4-1.3,2.3-1.7s1.8-0.6,2.8-0.6c1,0,1.9,0.2,2.7,0.5c0.8,0.3,1.5,0.7,2,1.2c0.6,0.5,1,1.1,1.3,1.7s0.4,1.3,0.4,2
		c0,1.3-0.6,2-1.8,2C1275.8,243.3,1275.3,243.3,1274.9,243.2z"/>
	<path class="st6" d="M1296.2,241.9v8.2c0,1.4,0.2,2.5,0.6,3.2c-0.7,0.5-1.4,0.8-2.2,0.8c-0.8,0-1.3-0.2-1.6-0.6
		c-0.3-0.4-0.4-1-0.4-1.7v-8.9c0-1.2-0.2-2.1-0.5-2.6c-0.3-0.5-0.9-0.8-1.6-0.8s-1.6,0.2-2.4,0.6s-1.5,0.9-2.1,1.6v12.2
		c-0.2,0-0.5,0.1-0.8,0.1c-0.3,0-0.6,0-1,0c-0.3,0-0.7,0-1,0c-0.3,0-0.6-0.1-0.8-0.1v-25.7l0.2-0.2h1.4c0.7,0,1.2,0.2,1.5,0.5
		s0.4,1,0.4,1.8v8.2c1.7-1.6,3.6-2.3,5.6-2.3c1.6,0,2.8,0.5,3.5,1.6C1295.8,238.8,1296.2,240.2,1296.2,241.9z"/>
</g>
<g>
	<path class="st9" d="M132.1,534.5l0.1,3.1v5c-0.9,0.2-1.9,0.2-3,0.2c-1.1,0-2.1-0.1-2.9-0.2v-5l0.1-3.1l-3.1,0.1h-10.3
		c-0.9-1.5-1.4-2.6-1.4-3.4c0-0.7,0.4-2,1.2-4l9.9-22.8c0.9-0.2,1.9-0.2,3.1,0c1.2,0.2,2,0.6,2.6,1.1l-6.7,15.5
		c-1.7,4-3.1,6.8-4.1,8.5l0.2,0.2c2.4-0.2,4.7-0.3,6.6-0.3h2.2c0-0.4-0.1-1-0.1-1.9v-4.5c0-1.4,0.4-2.6,1-3.4
		c0.7-0.8,1.7-1.3,2.9-1.3h1.6l0.3,0.3v7.7l-0.1,3.1l2.7-0.1h3.1c0.1,0.8,0.2,1.7,0.2,2.5c0,0.9-0.1,1.7-0.4,2.6h-2.9L132.1,534.5z"
		/>
	<path class="st9" d="M147.2,539.7c-0.7-0.9-1.3-1.8-1.8-2.9c-0.5-1-0.9-2.1-1.3-3.4c-0.3-1.2-0.6-2.7-0.8-4.3
		c-0.2-1.6-0.2-3.5-0.2-5.6c0-3,0.3-5.8,1-8.2c0.7-2.4,1.6-4.4,2.9-6.1c1.3-1.7,2.8-3,4.7-3.8c1.9-0.9,4-1.3,6.5-1.3
		c3.4,0,6.2,0.6,8.4,1.8c-0.2,2-0.9,3.4-2.2,4.2c-1.9-0.9-3.8-1.3-5.9-1.3c-3,0-5.2,1.1-6.7,3.2c-1.5,2.1-2.3,5-2.4,8.6
		c2.4-2.2,5.2-3.3,8.5-3.3c3.3,0,5.9,1,7.8,3.1s2.8,5.2,2.8,9.3c0,2-0.3,3.8-0.9,5.5c-0.6,1.7-1.4,3.1-2.5,4.3
		c-1.1,1.2-2.4,2.1-3.9,2.8c-1.5,0.7-3.3,1-5.2,1C152.2,543.4,149.3,542.1,147.2,539.7z M156.3,522.5c-2.5,0-4.8,1.1-6.9,3.3v0.9
		c0,4,0.6,7,1.7,9c1.2,2,2.9,3.1,5.1,3.1c1.9,0,3.3-0.7,4.4-2.2c1.1-1.5,1.6-3.5,1.6-6.1C162.3,525.1,160.3,522.5,156.3,522.5z"/>
	<path class="st9" d="M175.2,536.6c1-0.5,2.2-0.8,3.6-0.8c0.7,0,1.2,0,1.7,0.1c0.5,0.1,1,0.2,1.3,0.4c0.4,0.2,0.7,0.5,0.8,1
		c0.1,0.5,0.2,1.2,0.2,2.1c0,0.8,0,1.5-0.1,2c-0.1,0.5-0.3,0.9-0.7,1.1c-0.3,0.2-0.8,0.3-1.3,0.4c-0.5,0.1-1.1,0.1-1.9,0.1
		c-0.7,0-1.4,0-1.9-0.1c-0.5-0.1-1-0.2-1.4-0.4c-0.4-0.2-0.6-0.5-0.8-1c-0.1-0.5-0.2-1.2-0.2-2.1
		C174.6,538.2,174.8,537.2,175.2,536.6z"/>
	<path class="st9" d="M209.3,534.5l0.1,3.1v5c-0.9,0.2-1.9,0.2-3,0.2c-1.1,0-2.1-0.1-2.9-0.2v-5l0.1-3.1l-3.1,0.1H190
		c-0.9-1.5-1.4-2.6-1.4-3.4c0-0.7,0.4-2,1.2-4l9.9-22.8c0.9-0.2,1.9-0.2,3.1,0c1.2,0.2,2,0.6,2.6,1.1l-6.7,15.5
		c-1.7,4-3.1,6.8-4.1,8.5l0.2,0.2c2.4-0.2,4.7-0.3,6.6-0.3h2.2c0-0.4-0.1-1-0.1-1.9v-4.5c0-1.4,0.4-2.6,1-3.4
		c0.7-0.8,1.7-1.3,2.9-1.3h1.6l0.3,0.3v7.7l-0.1,3.1l2.7-0.1h3.1c0.1,0.8,0.2,1.7,0.2,2.5c0,0.9-0.1,1.7-0.4,2.6h-2.9L209.3,534.5z"
		/>
	<path class="st9" d="M235.6,504.5c1.9,1.9,2.9,5.1,2.9,9.6c0,4.1-0.8,7.1-2.4,9.1c-1.6,1.9-3.9,2.9-6.8,2.9s-5.2-1-6.8-2.9
		c-1.6-1.9-2.4-4.9-2.4-9.1c0-4.1,0.8-7.1,2.4-9c1.6-1.9,3.8-2.9,6.8-2.9C231.9,502.1,234,502.9,235.6,504.5z M229.2,506.1
		c-2.6,0-3.9,2.7-3.9,8c0,5.3,1.3,7.9,3.9,7.9c2.6,0,4-2.6,4-7.9C233.2,508.7,231.9,506.1,229.2,506.1z M229.8,542.6l22-39.8
		c0.7-0.2,1.5-0.3,2.4-0.3c1.6,0,2.7,0.1,3.4,0.3l-21.9,39.8c-0.7,0.2-1.5,0.3-2.5,0.3c-0.8,0-1.5,0-2.1-0.1
		C230.6,542.8,230.1,542.7,229.8,542.6z M264.5,540.9c-1.6,1.6-3.7,2.4-6.3,2.4c-3.1,0-5.4-1-6.9-3c-1.5-2-2.3-5-2.3-9
		c0-4,0.8-7,2.4-9c1.6-1.9,3.8-2.9,6.8-2.9c2.9,0,5.2,1,6.8,2.9c1.6,1.9,2.4,4.9,2.4,9.1C267.4,535.8,266.4,539,264.5,540.9z
		 M262.2,531.4c0-5.3-1.3-8-4-8c-2.7,0-4,2.7-4,8c0,5.3,1.3,7.9,4,7.9C260.9,539.4,262.2,536.7,262.2,531.4z"/>
	<path class="st9" d="M128.9,583.7c0-0.4,0.2-0.9,0.4-1.4c0.2-0.5,0.5-0.9,0.8-1.2c1.9,1,3.4,1.6,4.6,1.6c1.2,0,2.1-0.2,2.7-0.6
		c0.6-0.4,0.9-0.9,0.9-1.6c0-1-0.7-1.8-2.2-2.4l-2-0.7c-3-1.1-4.5-2.8-4.5-5c0-1.6,0.6-2.9,1.7-3.8c1.2-0.9,2.7-1.4,4.6-1.4
		c1.9,0,3.8,0.4,5.7,1.3c0,0.5-0.1,1-0.3,1.5c-0.2,0.5-0.5,0.9-0.8,1.2c-1.7-0.8-3.2-1.2-4.7-1.2c-0.8,0-1.4,0.2-1.9,0.6
		c-0.5,0.4-0.7,0.8-0.7,1.4s0.2,1,0.5,1.3s0.9,0.6,1.7,0.9l2.1,0.8c3,1.2,4.5,2.9,4.5,5.3c0,1.6-0.6,2.9-1.9,3.8s-2.9,1.4-5.1,1.4
		C132.9,585.4,130.8,584.8,128.9,583.7z"/>
	<path class="st9" d="M158.9,577.4h-10.4c0.1,1.6,0.4,2.9,1,3.7s1.7,1.3,3.2,1.3c0.7,0,1.5-0.1,2.3-0.3c0.8-0.2,1.7-0.6,2.5-1
		c0.6,0.5,1,1.3,1.2,2.3c-1.9,1.3-4.1,2-6.6,2c-1.3,0-2.5-0.2-3.4-0.7c-0.9-0.5-1.7-1.1-2.2-1.9c-0.6-0.8-1-1.8-1.3-2.9
		c-0.3-1.1-0.4-2.4-0.4-3.7c0-1.3,0.2-2.5,0.5-3.6c0.3-1.1,0.8-2.1,1.4-2.9c0.6-0.8,1.4-1.4,2.3-1.9c0.9-0.5,1.9-0.7,3.1-0.7
		s2.1,0.2,3,0.6s1.6,0.9,2.2,1.6c0.6,0.7,1.1,1.5,1.4,2.4c0.3,0.9,0.5,1.9,0.5,3c0,0.5,0,0.9-0.1,1.4
		C159.1,576.5,159,576.9,158.9,577.4z M152.1,569.8c-2.2,0-3.4,1.7-3.6,5h7.1v-0.5c0-1.3-0.3-2.4-0.9-3.3
		C154.2,570.2,153.3,569.8,152.1,569.8z"/>
	<path class="st9" d="M177.5,573v8.2c0,1.4,0.2,2.5,0.6,3.2c-0.6,0.5-1.3,0.8-2.2,0.8c-0.8,0-1.3-0.2-1.6-0.6
		c-0.3-0.4-0.4-1-0.4-1.7v-9c0-1.2-0.2-2.1-0.5-2.6c-0.3-0.5-0.9-0.8-1.6-0.8c-0.8,0-1.6,0.2-2.4,0.6c-0.8,0.4-1.5,0.9-2.1,1.6V585
		c-0.4,0.1-1,0.1-1.8,0.1c-0.4,0-0.7,0-1,0s-0.6-0.1-0.8-0.1v-17.4l0.2-0.2h1.4c1.3,0,1.9,0.7,2,2.2c1.7-1.6,3.6-2.4,5.6-2.4
		c1.6,0,2.8,0.5,3.5,1.6C177.1,569.8,177.5,571.2,177.5,573z"/>
	<path class="st9" d="M181.2,583.7c0-0.4,0.2-0.9,0.4-1.4c0.2-0.5,0.5-0.9,0.8-1.2c1.9,1,3.4,1.6,4.6,1.6c1.2,0,2.1-0.2,2.7-0.6
		c0.6-0.4,0.9-0.9,0.9-1.6c0-1-0.7-1.8-2.2-2.4l-2-0.7c-3-1.1-4.5-2.8-4.5-5c0-1.6,0.6-2.9,1.7-3.8c1.2-0.9,2.7-1.4,4.6-1.4
		c1.9,0,3.8,0.4,5.7,1.3c0,0.5-0.1,1-0.3,1.5c-0.2,0.5-0.5,0.9-0.8,1.2c-1.7-0.8-3.2-1.2-4.7-1.2c-0.8,0-1.4,0.2-1.9,0.6
		c-0.5,0.4-0.7,0.8-0.7,1.4s0.2,1,0.5,1.3s0.9,0.6,1.7,0.9l2.1,0.8c3,1.2,4.5,2.9,4.5,5.3c0,1.6-0.6,2.9-1.9,3.8s-2.9,1.4-5.1,1.4
		C185.2,585.4,183.2,584.8,181.2,583.7z"/>
	<path class="st9" d="M202.5,570.6V585c-0.4,0.1-1.1,0.1-1.8,0.1c-0.8,0-1.4,0-1.8-0.1V572c0-0.7-0.1-1.1-0.4-1.4
		c-0.2-0.3-0.6-0.4-1.2-0.4H197c-0.1-0.5-0.2-1-0.2-1.3s0.1-0.8,0.2-1.3c0.8-0.1,1.5-0.1,2.2-0.1h0.5c0.9,0,1.6,0.3,2.1,0.8
		C202.3,568.8,202.5,569.6,202.5,570.6z M198.1,564.3c-0.2-0.4-0.3-0.9-0.3-1.6c0-1,0.2-1.5,0.5-1.7c0.4-0.2,0.9-0.3,1.8-0.3
		c0.9,0,1.5,0.1,1.8,0.4c0.3,0.2,0.4,0.8,0.4,1.7c0,0.8-0.2,1.4-0.4,1.6c-0.3,0.2-0.9,0.4-1.8,0.4
		C199.2,564.7,198.5,564.6,198.1,564.3z"/>
	<path class="st9" d="M208,584.1v-24.8l0.2-0.2h1.4c0.7,0,1.2,0.2,1.5,0.5c0.3,0.4,0.4,1,0.4,1.8v7.7c1.4-1.2,3-1.8,4.9-1.8
		c1.9,0,3.3,0.8,4.4,2.4c1,1.6,1.5,3.9,1.5,6.8c0,1.4-0.2,2.6-0.6,3.7c-0.4,1.1-1,2-1.7,2.8c-0.7,0.8-1.5,1.3-2.5,1.7
		c-1,0.4-2,0.6-3.1,0.6C212.2,585.2,210,584.9,208,584.1z M215.4,570.3c-1.4,0-2.7,0.7-3.8,2v9.8c0.9,0.3,1.9,0.4,3,0.4
		c1.2,0,2.1-0.6,2.9-1.7c0.8-1.1,1.1-2.7,1.1-4.7c0-2-0.3-3.5-0.9-4.5C217.1,570.8,216.4,570.3,215.4,570.3z"/>
	<path class="st9" d="M231.5,582.2h1.3c0.2,0.6,0.3,1.1,0.3,1.6s0,0.8-0.1,1.1c-0.9,0.2-1.9,0.2-3,0.2c-2.3,0-3.5-1.2-3.5-3.6v-22.2
		l0.2-0.2h1.4c0.7,0,1.2,0.2,1.5,0.5c0.3,0.4,0.4,1,0.4,1.8v19.3C230.1,581.7,230.6,582.2,231.5,582.2z"/>
	<path class="st9" d="M249.5,577.4h-10.4c0.1,1.6,0.4,2.9,1,3.7s1.7,1.3,3.2,1.3c0.7,0,1.5-0.1,2.3-0.3c0.8-0.2,1.7-0.6,2.5-1
		c0.6,0.5,1,1.3,1.2,2.3c-1.9,1.3-4.1,2-6.6,2c-1.3,0-2.5-0.2-3.4-0.7c-0.9-0.5-1.7-1.1-2.2-1.9c-0.6-0.8-1-1.8-1.3-2.9
		c-0.3-1.1-0.4-2.4-0.4-3.7c0-1.3,0.2-2.5,0.5-3.6c0.3-1.1,0.8-2.1,1.4-2.9c0.6-0.8,1.4-1.4,2.3-1.9c0.9-0.5,1.9-0.7,3.1-0.7
		s2.1,0.2,3,0.6s1.6,0.9,2.2,1.6c0.6,0.7,1.1,1.5,1.4,2.4c0.3,0.9,0.5,1.9,0.5,3c0,0.5,0,0.9-0.1,1.4
		C249.7,576.5,249.6,576.9,249.5,577.4z M242.8,569.8c-2.2,0-3.4,1.7-3.6,5h7.1v-0.5c0-1.3-0.3-2.4-0.9-3.3
		C244.8,570.2,244,569.8,242.8,569.8z"/>
	<path class="st9" d="M253.3,569.2c0.2-0.9,0.7-1.5,1.3-1.9c1.6,0.4,2.7,1.4,3.2,3.1c0.9-2.1,2.5-3.1,4.6-3.1c0.6,0,1.2,0.1,1.9,0.2
		c0,1.4-0.3,2.5-0.9,3.5c-0.2-0.1-0.7-0.1-1.4-0.2c-1.6,0-2.9,0.9-3.8,2.7V585c-0.4,0.1-1.1,0.1-1.8,0.1s-1.4,0-1.8-0.1v-12.1
		C254.6,571.3,254.1,570.1,253.3,569.2z"/>
	<path class="st9" d="M150.2,627.4l-7.8-0.1l-0.2-0.3v-23.7l0.2-0.2l7.3-0.1c2.6,0,4.5,0.6,5.8,1.7s1.9,2.7,1.9,4.7
		c0,1.1-0.3,2.1-0.9,3c-0.6,0.9-1.4,1.5-2.4,1.9c0.6,0.2,1.2,0.5,1.7,0.9c0.6,0.4,1,0.9,1.4,1.4s0.7,1.1,1,1.8s0.4,1.4,0.4,2.1
		c0,2.1-0.7,3.7-2.1,5C155.1,626.8,153,627.4,150.2,627.4z M145.9,605.9v7.3h3.7c0.7,0,1.4-0.1,1.9-0.3c0.5-0.2,0.9-0.4,1.2-0.8
		c0.3-0.3,0.5-0.7,0.7-1.2c0.1-0.4,0.2-0.9,0.2-1.4c0-2.4-1.3-3.6-4-3.6c-0.9,0-1.6,0-2.3,0S146.3,605.9,145.9,605.9z M145.9,624.6
		l4.3,0c0.9,0,1.6-0.1,2.2-0.4c0.6-0.2,1.1-0.5,1.4-0.9c0.4-0.4,0.6-0.8,0.8-1.3c0.2-0.5,0.2-1,0.2-1.6c0-0.5-0.1-1-0.3-1.5
		c-0.2-0.5-0.5-1-0.8-1.4c-0.4-0.4-0.9-0.7-1.5-1s-1.3-0.4-2.2-0.4h-4.1V624.6z"/>
	<path class="st9" d="M176,619.7h-10.4c0.1,1.6,0.4,2.9,1,3.7s1.7,1.3,3.2,1.3c0.7,0,1.5-0.1,2.3-0.3c0.8-0.2,1.7-0.6,2.5-1
		c0.6,0.5,1,1.3,1.2,2.3c-1.9,1.3-4.1,2-6.6,2c-1.3,0-2.5-0.2-3.4-0.7c-0.9-0.5-1.7-1.1-2.2-1.9c-0.6-0.8-1-1.8-1.3-2.9
		c-0.3-1.1-0.4-2.4-0.4-3.7c0-1.3,0.2-2.5,0.5-3.6c0.3-1.1,0.8-2.1,1.4-2.9c0.6-0.8,1.4-1.4,2.3-1.9c0.9-0.5,1.9-0.7,3.1-0.7
		s2.1,0.2,3,0.6s1.6,0.9,2.2,1.6c0.6,0.7,1.1,1.5,1.4,2.4c0.3,0.9,0.5,1.9,0.5,3c0,0.5,0,0.9-0.1,1.4
		C176.2,618.8,176.1,619.3,176,619.7z M169.2,612.1c-2.2,0-3.4,1.7-3.6,5h7.1v-0.5c0-1.3-0.3-2.4-0.9-3.3
		C171.3,612.5,170.4,612.1,169.2,612.1z"/>
	<path class="st9" d="M179.7,611.6c0.2-0.9,0.7-1.5,1.3-1.9c1.6,0.4,2.7,1.4,3.2,3.1c0.9-2.1,2.5-3.1,4.6-3.1c0.6,0,1.2,0.1,1.9,0.2
		c0,1.4-0.3,2.5-0.9,3.5c-0.2-0.1-0.7-0.1-1.4-0.2c-1.6,0-2.9,0.9-3.8,2.7v11.5c-0.4,0.1-1.1,0.1-1.8,0.1s-1.4,0-1.8-0.1v-12.1
		C181,613.6,180.6,612.4,179.7,611.6z"/>
	<path class="st9" d="M205.9,619.7h-10.4c0.1,1.6,0.4,2.9,1,3.7s1.7,1.3,3.2,1.3c0.7,0,1.5-0.1,2.3-0.3c0.8-0.2,1.7-0.6,2.5-1
		c0.6,0.5,1,1.3,1.2,2.3c-1.9,1.3-4.1,2-6.6,2c-1.3,0-2.5-0.2-3.4-0.7c-0.9-0.5-1.7-1.1-2.2-1.9c-0.6-0.8-1-1.8-1.3-2.9
		c-0.3-1.1-0.4-2.4-0.4-3.7c0-1.3,0.2-2.5,0.5-3.6c0.3-1.1,0.8-2.1,1.4-2.9c0.6-0.8,1.4-1.4,2.3-1.9c0.9-0.5,1.9-0.7,3.1-0.7
		s2.1,0.2,3,0.6s1.6,0.9,2.2,1.6c0.6,0.7,1.1,1.5,1.4,2.4c0.3,0.9,0.5,1.9,0.5,3c0,0.5,0,0.9-0.1,1.4
		C206.1,618.8,206,619.3,205.9,619.7z M199.2,612.1c-2.2,0-3.4,1.7-3.6,5h7.1v-0.5c0-1.3-0.3-2.4-0.9-3.3
		C201.3,612.5,200.4,612.1,199.2,612.1z"/>
	<path class="st9" d="M214.8,612.9v14.4c-0.4,0.1-1.1,0.1-1.8,0.1c-0.8,0-1.4,0-1.8-0.1v-12.9c0-0.7-0.1-1.1-0.4-1.4
		c-0.2-0.3-0.6-0.4-1.2-0.4h-0.4c-0.1-0.5-0.2-1-0.2-1.3s0.1-0.8,0.2-1.3c0.8-0.1,1.5-0.1,2.2-0.1h0.5c0.9,0,1.6,0.3,2.1,0.8
		C214.5,611.2,214.8,611.9,214.8,612.9z M210.4,606.6c-0.2-0.4-0.3-0.9-0.3-1.6c0-1,0.2-1.5,0.5-1.7c0.4-0.2,0.9-0.3,1.8-0.3
		c0.9,0,1.5,0.1,1.8,0.4c0.3,0.2,0.4,0.8,0.4,1.7c0,0.8-0.2,1.4-0.4,1.6c-0.3,0.2-0.9,0.4-1.8,0.4
		C211.4,607,210.8,606.9,210.4,606.6z"/>
	<path class="st9" d="M229.4,616.6v-0.4c0-2.7-1-4-3.1-4c-1.1,0-2,0.5-2.6,1.6c-0.6,1.1-0.9,2.7-0.9,4.8c0,4,1.3,6.1,4,6.1
		c1.3,0,2.7-0.6,4.3-1.8c0.3,0.2,0.6,0.5,0.9,0.9c0.3,0.4,0.5,0.8,0.6,1.2c-1.7,1.7-3.8,2.6-6.3,2.6c-1.2,0-2.3-0.2-3.2-0.7
		c-0.9-0.5-1.7-1.1-2.3-1.9s-1-1.8-1.3-3c-0.3-1.2-0.4-2.4-0.4-3.8c0-1.4,0.2-2.7,0.6-3.8c0.4-1.1,0.9-2.1,1.6-2.8
		c0.7-0.8,1.4-1.3,2.3-1.7c0.9-0.4,1.8-0.6,2.8-0.6c1,0,1.9,0.2,2.7,0.5c0.8,0.3,1.5,0.7,2,1.2c0.6,0.5,1,1.1,1.3,1.7
		c0.3,0.6,0.4,1.3,0.4,2c0,1.3-0.6,2-1.8,2C230.3,616.7,229.8,616.7,229.4,616.6z"/>
	<path class="st9" d="M250.7,615.4v8.2c0,1.4,0.2,2.5,0.6,3.2c-0.7,0.5-1.4,0.8-2.2,0.8c-0.8,0-1.3-0.2-1.6-0.6
		c-0.3-0.4-0.4-1-0.4-1.7v-8.9c0-1.2-0.2-2.1-0.5-2.6c-0.3-0.5-0.9-0.8-1.6-0.8c-0.8,0-1.6,0.2-2.4,0.6c-0.8,0.4-1.5,0.9-2.1,1.6
		v12.2c-0.2,0-0.5,0.1-0.8,0.1c-0.3,0-0.6,0-1,0c-0.3,0-0.7,0-1,0c-0.3,0-0.6-0.1-0.8-0.1v-25.7l0.2-0.2h1.4c0.7,0,1.2,0.2,1.5,0.5
		s0.4,1,0.4,1.8v8.2c1.7-1.6,3.6-2.3,5.6-2.3c1.6,0,2.8,0.5,3.5,1.6C250.3,612.2,250.7,613.6,250.7,615.4z"/>
</g>
</svg>
