<?xml version="1.0" encoding="utf-8"?>
<!-- Generator: Adobe Illustrator 22.0.0, SVG Export Plug-In . SVG Version: 6.00 Build 0)  -->
<svg version="1.1" id="Layer_1" xmlns="http://www.w3.org/2000/svg" xmlns:xlink="http://www.w3.org/1999/xlink" x="0px" y="0px"
	 viewBox="0 0 275.2 204.2" style="enable-background:new 0 0 275.2 204.2;" xml:space="preserve">
<style type="text/css">
	.st0{fill:url(#SVGID_1_);}
	.st1{fill:url(#SVGID_2_);}
	.st2{fill:#FFC000;}
	.st3{font-family:'Signika-Light';}
	.st4{font-size:10px;}
	.st5{fill:url(#SVGID_3_);}
	.st6{fill:#FF2832;}
	.st7{fill:url(#SVGID_4_);}
	.st8{fill:#009632;}
</style>
<g>
	
		<linearGradient id="SVGID_1_" gradientUnits="userSpaceOnUse" x1="173.0016" y1="46.4214" x2="173.0016" y2="211.5" gradientTransform="matrix(1 0 0 -1 0 211.5)">
		<stop  offset="0" style="stop-color:#FFC000;stop-opacity:0.3"/>
		<stop  offset="1" style="stop-color:#FFC000"/>
	</linearGradient>
	<path class="st0" d="M201.4,90.3c-0.1-1.6-0.8-5.1-0.8-5.1l-0.2-1.4l0,0c0,0-0.7-8.4-0.9-12c-0.3-3.6-1.8-7.8-2.5-10.4
		c-0.7-2.6,1.5-8.3-0.5-15.3c-1.2-4.4,0-8.5-2.3-11.6c-2.6-3.3-5.4-3-6.5-3.1l0,0c-1.4-0.3-2.9-0.5-3.9-0.9c-2.3-1-3.8-2-5.2-2.7
		c-1-0.4-1-3.3-1-5c0.8-0.5,1.4-1,1.7-1.5c0.5-0.7,0.8-2.8,1-4.8c0.2,0.1,0.4,0,0.8-0.2c0.9-0.4,1.2-3,0.6-4.1
		c-0.1-0.1-0.1-0.2-0.2-0.3c0.3-2.5,0.7-6.8-0.7-8.7c-1.8-2.8-6.1-2.9-7.4-3.1c-1.8-0.2-5.2-0.1-6.1,2c-3.9,0.4-3.5,6.5-2.9,9.8
		c-0.1,0.1-0.1,0.1-0.1,0.3c-0.6,1.2-0.3,3.7,0.6,4.1c0.4,0.2,0.7,0.3,0.8,0.2c0.2,1.9,0.6,4,1,4.8c0.3,0.5,0.9,1,1.7,1.5
		c0.1,1.7-0.1,4.6-1,5c-1.4,0.6-2.8,1.6-5.2,2.7c-1,0.4-2.5,0.7-3.9,0.9c-1.2,0.1-4-0.2-6.5,3.1c-2.3,3.1-1.2,7.2-2.3,11.6
		c-2,7.1,0.3,12.7-0.5,15.3c-0.7,2.6-2.2,6.8-2.5,10.4s-0.9,12-0.9,12l0,0l-0.2,1.4c0,0-0.7,3.5-0.8,5.1c-0.1,1,0.1,2.7,0.8,4.1
		c1.2,2.5,3.8,4.3,3.8,4.3c0.3,0.4,2.3,0.6,1.2-0.8c-2.1-2.7-2.3-4.6-2.3-4.6s-0.3-2.2,0.4-2.2c0.5-0.1,1,1.1,1.2,1.7
		c0.4,1,0.5,2.7,1.2,2.3c0.3-0.1,0.2-0.5,0.1-1.1c0-0.3,0.1-0.9,0.1-1.2c-0.1-0.3-0.4-1.8-0.6-2.2c-0.1-0.5-0.7-2.2-0.9-2.7
		c-0.2-0.5-0.4-1.4-0.3-2.2c0.1-0.7,1.2-4.8,1.8-6.1c0.4-0.9,4.5-6.5,5.2-17.5c0.2-2.6,0.8-6.3,1.2-9.8c0.3,1.6,0.6,3.2,0.7,4.4
		c0.1,3.7,1.2,8.9,0.9,11.7c-0.7,6.3-2.3,6.1-2.3,16.5c0,6.8-0.3,19.6,3.3,34.8c0.5,2.2,0.1,5.3-0.3,7.6c-0.5,4.3,0.7,10,3.3,23
		c2.5,12.5-5.2,11-3.8,14c0.6,1.2,7.6,0.8,9.8,0.7c0.7-0.1,1.2-0.6,1.2-1.2c0.1-0.7-0.3-1.4-0.9-3.3c-0.7-2.2-0.4-5.5-0.4-5.5
		s1.4-20.2,1.4-23.1c0-3.3-0.3-5.4-0.5-6.7c-0.2-1.1-0.3-2.2,0-3.3c2-9.1,2-32.3,2-32.3h2.2c0,0,0.1,23.2,2,32.3
		c0.3,1.1,0.2,2.2,0,3.3c-0.3,1.3-0.5,3.5-0.5,6.7c0,2.9,1.4,23.1,1.4,23.1s0.3,3.3-0.4,5.5c-0.6,1.9-0.9,2.7-0.9,3.3
		c0.1,0.7,0.6,1.2,1.2,1.2c2.2,0.1,9.2,0.5,9.8-0.7c1.3-2.9-6.4-1.5-3.8-14c2.7-13,3.8-18.6,3.3-23c-0.3-2.3-0.7-5.3-0.3-7.6
		c3.5-15.1,3.3-27.9,3.3-34.8c0-10.4-1.6-10.2-2.3-16.5c-0.3-2.7,0.8-8,0.9-11.7c0.1-1.2,0.3-2.8,0.7-4.4c0.4,3.5,1,7.2,1.2,9.8
		c0.7,11,5.1,16.9,5.5,17.7c0.4,1,1.6,5.1,1.6,5.9c0,0.7-0.1,1.6-0.3,2.2c-0.1,0.5-0.8,2.2-0.9,2.7c-0.1,0.5-0.5,1.9-0.6,2.2
		s0.1,0.9,0.1,1.2c-0.1,0.7-0.1,1,0.1,1.1c0.7,0.3,0.9-1.3,1.2-2.3c0.2-0.6,0.7-1.7,1.2-1.7c0.6,0.1,0.4,2.2,0.4,2.2
		s-0.3,1.8-2.3,4.6c-1,1.4,0.9,1.2,1.2,0.8c0,0,2.5-1.9,3.8-4.3C201.3,93,201.5,91.4,201.4,90.3z"/>
	
		<linearGradient id="SVGID_2_" gradientUnits="userSpaceOnUse" x1="107.9484" y1="46.6631" x2="107.9484" y2="211.5" gradientTransform="matrix(1 0 0 -1 0 211.5)">
		<stop  offset="0" style="stop-color:#FFC000;stop-opacity:0.3"/>
		<stop  offset="1" style="stop-color:#FFC000"/>
	</linearGradient>
	<path class="st1" d="M121.2,66.8c-1.3-2.3-1.2-6.5-0.8-9.1l1-5.7c0,0,0.8,7.7,2.2,11.7c1.8,5,4.3,13.2,5.5,19.5
		c0.2,0.6,0.3,1.1,0.4,1.5c0.2,1.1-0.2,1.7-0.3,2.2c-0.1,0.5-0.8,2.2-0.9,2.7c-0.1,0.5-0.5,1.9-0.5,2.2c-0.1,0.3,0.1,0.9,0,1.2
		c0,0.7-0.2,1,0.1,1.1c0.7,0.4,0.9-1.3,1.3-2.4c0.2-0.6,0.7-1.7,1.2-1.7c0.6,0,0.3,2.3,0.3,2.3s0.3,1.2-1.7,4
		c-1.1,1.4,0.9,1.2,1.3,0.9c0,0,2-1.3,3.2-3.8c0.9-1.1,1.2-2.8,1.1-3.9c-0.1-1.6-0.8-5.1-0.8-5.1l-0.2-1.4l0.1,0.1c0,0-0.7-8.5-1-12
		c-0.3-3.6-1.9-8.4-2.6-11c-0.7-2.7-1.1-7.8-1.2-14c-0.2-6.4-0.8-11.4-2-12.9c-1.4-1.8-4-2.3-5-2.6c-0.8-0.2-1.7-0.4-2.6-0.6
		c0,0,0,0,0-0.1c1.2-3,1.2-6.4,0.1-9.5c-0.3-0.9-0.7-1.7-0.9-2.7c-0.3-1.4-0.2-2.8-0.3-4.2c-0.1-2.5-0.3-5.7-1.5-8
		c-1-1.8-2.4-3.7-4.6-3.9c-0.5-0.1-0.7,0.1-1.2-0.2c-0.5-0.3-1.4-1.1-2.9-1.4c-4.4-0.7-8.2,1.9-10,5.9c-1.4,2.9-1.4,6.2-1.4,9.5
		c0.1,1.4,0.1,2.7-0.5,3.9c-0.8,1.8-2.7,2.7-3.8,4.3c-0.9,1.2-1.2,2.9-1.2,4.4c-0.1,1,0,2,0.3,3c-0.5,0.3-1.1,0.6-1.5,0.9
		c-0.1,0.1-0.1,0.1-0.3,0.3c-0.1,0.1-0.1,0.1-0.2,0.2l-0.1,0.1C89,32.6,89,32.6,89,32.7c0,0.1-0.1,0.1-0.1,0.1
		c-0.1,0.1-0.1,0.2-0.2,0.3c-1.2,1.5-1.8,6.7-1.9,13.1c-0.1,6.3-0.4,11.4-1.1,14c-0.7,2.7-2.4,7.4-2.5,11c0,0.1,0,0.1,0,0.3l0,0.1
		c0,0.1,0,0.2,0,0.3l0,0.1c0,0.1,0,0.1,0,0.3l0,0.1c0,0.1,0,0.2,0,0.3l0,0.1c0,0.1,0,0.2,0,0.3l0,0.1c0,0.1,0,0.2,0,0.3
		c0,0.1,0,0.1,0,0.1c0,0.1,0,0.2,0,0.3c0,0.1,0,0.3,0,0.3l0,0.1c0,0.1,0,0.3,0,0.3c0,0.1,0,0.3,0,0.4c0,0.3,0,0.5-0.1,0.7l0,0.1
		c0,0.4-0.1,0.7-0.1,1.2c0,0.1,0,0.3,0,0.4c-0.2,3.3-0.5,6.4-0.5,6.4l-0.2,1.4c0,0-0.7,3.4-0.8,5.1c-0.1,1,0.2,2.7,0.9,4.1
		c1.3,2.5,3.2,3.7,3.2,3.7c0.3,0.3,2.3,0.5,1.3-0.9c-2.1-2.7-1.8-4-1.8-4s-0.3-2.2,0.3-2.3c0.5,0,1.1,1.1,1.3,1.7
		c0.4,1.1,0.6,2.7,1.3,2.4c0.3-0.1,0.1-0.5,0.1-1.1c-0.1-0.3,0.1-0.9,0-1.2c-0.1-0.3-0.4-1.8-0.5-2.2c-0.1-0.5-0.8-2.2-1-2.7
		c-0.2-0.5-0.3-1.4-0.3-2.2s1.3-5,1.5-5.8c0.2-0.8,5.3-12.8,5.4-17.8c0.1-2.5,1.1-6.3,1.2-9.9c0.5,2.5,1,5.3,1.4,6.5
		c0.5,1.7,0.7,5.7-0.7,8.6c-0.1,0.2-0.2,0.3-0.3,0.5c-0.4,0.7-0.8,1.4-1.2,2.2c-3.5,6.8-3.8,12.7-3.8,16.9c0,0.7,0.1,1.4,0.1,2.2
		c0-0.1,0-0.2,0-0.3c0.2,2.5,0.7,6.1,1.7,12c-0.1-0.4-0.1-0.6-0.1-0.6c0.8,4.8,2,11,3.5,19.8c0.4,2.2,0.5,4.5,0.3,6.8
		c-0.4,4.2,0.1,10.2,2.7,23.1c1,5.3,0.6,8.2-0.3,10c-1.2,2.5-3.2,2.9-2.5,4.6c1,1.2,6.1,0.8,8.2,0.7c0.6-0.1,1.1-0.1,1.4-0.9
		c0.3-0.6,0.3-1-0.8-3.5c-0.7-1.5-0.6-4-0.6-4s1.6-21.7,1.6-24.8c0-3-0.2-5.2-0.4-6.5c-0.3-1.4-0.3-2.7-0.1-4c0.3-2,0.5-4.8,0.7-7.8
		c0,0.1,0,0.2,0,0.3c1.2-15.6,1.5-25.7,1.5-25.7h1.8l0.1-0.1c0,0,0.6,23.5,2,33.3c0.2,1.3,0.2,2.7,0,4c-0.2,1.4-0.4,3.5-0.4,6.5
		c0,2.9,1.4,23.1,1.4,23.1s0.2,2.3-0.1,4.4c-0.1,0.1-0.1,0.3-0.1,0.4c0,0,0.1-0.3,0.1-0.6c-0.1,0.4-0.1,0.8-0.3,1.2
		c-0.6,1.9-0.9,2.7-0.9,3.3c0.1,0.7,0.6,1.2,1.2,1.2c2.2,0.1,7.8,0.6,8.4-0.7c1.4-2.9-6-2-2.9-14.7c3.1-12.8,3.5-18.9,2.9-23.1
		c-0.3-2.3-0.3-4.6,0.1-6.8c2.8-18.5,5.7-26.7,5.7-33.6C125.7,75.6,121.2,66.8,121.2,66.8z"/>
</g>
<text transform="matrix(1 0 0 1 104.9492 189.7012)"><tspan x="0" y="0" class="st2 st3 st4">sensibler Bereich</tspan><tspan x="22.7" y="12" class="st2 st3 st4">46.</tspan><tspan x="35.8" y="12" class="st2 st3 st4">4</tspan><tspan x="41.6" y="12" class="st2 st3 st4">%</tspan></text>
<linearGradient id="SVGID_3_" gradientUnits="userSpaceOnUse" x1="37.2141" y1="165.0135" x2="37.2141" y2="0">
	<stop  offset="0" style="stop-color:#FF2832;stop-opacity:0.2"/>
	<stop  offset="1" style="stop-color:#FF2832"/>
</linearGradient>
<path class="st5" d="M65.7,90.3c-0.1-1.6-0.8-5.1-0.8-5.1l-0.2-1.4l0,0c0,0-0.7-8.4-0.9-12c-0.3-3.6-1.8-7.8-2.5-10.4
	c-0.7-2.6,1.5-8.3-0.5-15.3c-1.2-4.4,0-8.5-2.3-11.6c-2.6-3.3-5.4-3-6.5-3.1l0,0c-1.4-0.3-2.9-0.5-3.9-0.9c-2.3-1-3.8-2-5.2-2.7
	c-1-0.4-1-3.3-1-5c0.8-0.5,1.4-1,1.7-1.5c0.5-0.7,0.8-2.8,1-4.8c0.2,0.1,0.4,0,0.8-0.2c0.9-0.4,1.2-3,0.6-4.1
	c-0.1-0.1-0.1-0.2-0.2-0.3C46,9.3,46.4,5,45.1,3.1c-1.8-2.8-6.1-2.9-7.4-3.1c-1.8-0.2-5.2-0.1-6.1,2c-3.9,0.4-3.5,6.5-2.9,9.8
	c-0.1,0.1-0.1,0.1-0.1,0.3c-0.6,1.2-0.3,3.7,0.6,4.1c0.4,0.2,0.7,0.3,0.8,0.2c0.2,1.9,0.6,4,1,4.8c0.3,0.5,0.9,1,1.7,1.5
	c0.1,1.7-0.1,4.6-1,5c-1.4,0.6-2.8,1.6-5.2,2.7c-1,0.4-2.5,0.7-3.9,0.9c-1.2,0.1-4-0.2-6.5,3.1c-2.3,3.1-1.2,7.2-2.3,11.6
	c-2.1,7,0.1,12.7-0.6,15.3c-0.7,2.6-2.2,6.8-2.5,10.4c-0.3,3.6-0.9,12-0.9,12l0,0l-0.2,1.4c0,0-0.7,3.5-0.8,5.1
	c-0.1,1,0.1,2.7,0.8,4.1c1.2,2.5,3.8,4.3,3.8,4.3c0.3,0.4,2.3,0.6,1.2-0.8c-2.1-2.7-2.3-4.6-2.3-4.6S12,91,12.7,91
	c0.5-0.1,1,1.1,1.2,1.7c0.4,1,0.5,2.7,1.2,2.3c0.3-0.1,0.2-0.5,0.1-1.1c0-0.3,0.1-0.9,0.1-1.2c-0.1-0.3-0.4-1.8-0.6-2.2
	c-0.1-0.5-0.7-2.2-0.9-2.7c-0.2-0.5-0.4-1.4-0.3-2.2c0.1-0.7,1.2-4.8,1.8-6.1c0.4-0.9,4.5-6.5,5.2-17.5c0.2-2.6,0.8-6.3,1.2-9.8
	c0.3,1.6,0.6,3.2,0.7,4.4c0.1,3.7,1.2,8.9,0.9,11.7c-0.7,6.3-2.3,6.1-2.3,16.5c0,6.8-0.3,19.6,3.3,34.8c0.5,2.2,0.1,5.3-0.3,7.6
	c-0.5,4.3,0.7,10,3.3,23c2.5,12.5-5.2,11-3.8,14c0.6,1.2,7.6,0.8,9.8,0.7c0.7-0.1,1.2-0.6,1.2-1.2c0.1-0.7-0.3-1.4-0.9-3.3
	c-0.7-2.2-0.4-5.5-0.4-5.5s1.4-20.2,1.4-23.1c0-3.3-0.3-5.4-0.5-6.7c-0.2-1.1-0.3-2.2,0-3.3c2-9.1,2-32.3,2-32.3h2.2
	c0,0,0.1,23.2,2,32.3c0.3,1.1,0.2,2.2,0,3.3c-0.3,1.3-0.5,3.5-0.5,6.7c0,2.9,1.4,23.1,1.4,23.1s0.3,3.3-0.4,5.5
	c-0.6,1.9-0.9,2.7-0.9,3.3c0.1,0.7,0.6,1.2,1.2,1.2c2.2,0.1,9.2,0.5,9.8-0.7c1.3-2.9-6.4-1.5-3.8-14c2.7-13,3.8-18.6,3.3-23
	c-0.3-2.3-0.7-5.3-0.3-7.6c3.5-15.1,3.3-27.9,3.3-34.8c0-10.4-1.6-10.2-2.3-16.5c-0.3-2.7,0.8-8,0.9-11.7c0.1-1.2,0.3-2.8,0.7-4.4
	c0.4,3.5,1,7.2,1.2,9.8c0.7,11,5.1,16.9,5.5,17.7c0.4,1,1.6,5.1,1.6,5.9c0.1,0.7-0.1,1.6-0.3,2.2c-0.1,0.5-0.8,2.2-0.9,2.7
	c-0.1,0.5-0.5,1.9-0.6,2.2c-0.1,0.3,0.1,0.9,0.1,1.2c-0.1,0.7-0.1,1,0.1,1.1c0.7,0.3,0.9-1.3,1.2-2.3c0.2-0.6,0.7-1.7,1.2-1.7
	c0.6,0.1,0.4,2.2,0.4,2.2s-0.3,1.8-2.3,4.6c-1,1.4,0.9,1.2,1.2,0.8c0,0,2.5-1.9,3.8-4.3C65.5,93,65.7,91.4,65.7,90.3z"/>
<text transform="matrix(1 0 0 1 -2.040863e-04 189.7009)"><tspan x="0" y="0" class="st6 st3 st4">kritischer Bereich</tspan><tspan x="23.5" y="12" class="st6 st3 st4">27.</tspan><tspan x="36.6" y="12" class="st6 st3 st4">1</tspan><tspan x="42.4" y="12" class="st6 st3 st4">%</tspan></text>
<linearGradient id="SVGID_4_" gradientUnits="userSpaceOnUse" x1="243.8634" y1="46.6631" x2="243.8634" y2="211.5" gradientTransform="matrix(1 0 0 -1 0 211.5)">
	<stop  offset="5.000000e-04" style="stop-color:#009632;stop-opacity:0.3"/>
	<stop  offset="1" style="stop-color:#009632"/>
</linearGradient>
<path class="st7" d="M257.1,66.8c-1.3-2.3-1.2-6.5-0.8-9.1l1-5.7c0,0,0.8,7.7,2.2,11.7c1.8,5,4.3,13.2,5.5,19.5
	c0.2,0.6,0.3,1.1,0.4,1.5c0.2,1.1-0.2,1.7-0.3,2.2c-0.1,0.5-0.8,2.2-0.9,2.7c-0.1,0.5-0.5,1.9-0.5,2.2c-0.1,0.3,0.1,0.9,0,1.2
	c0,0.7-0.2,1,0.1,1.1c0.7,0.4,0.9-1.3,1.3-2.4c0.2-0.6,0.7-1.7,1.2-1.7c0.6,0,0.3,2.3,0.3,2.3s0.3,1.2-1.7,4
	c-1.1,1.4,0.9,1.2,1.3,0.9c0,0,2-1.3,3.2-3.8c0.9-1.1,1.2-2.8,1.1-3.9c-0.1-1.6-0.8-5.1-0.8-5.1l-0.2-1.4l0.1,0.1c0,0-0.7-8.5-1-12
	c-0.3-3.6-1.9-8.4-2.6-11c-0.7-2.7-1.1-7.8-1.2-14c-0.2-6.4-0.8-11.4-2-12.9c-1.4-1.8-4-2.3-5-2.6c-0.8-0.2-1.7-0.4-2.6-0.6
	c0,0,0,0,0-0.1c1.2-3,1.2-6.4,0.1-9.5c-0.3-0.9-0.7-1.7-0.9-2.7c-0.3-1.4-0.2-2.8-0.3-4.2c-0.1-2.5-0.3-5.7-1.5-8
	c-1-1.8-2.4-3.7-4.6-3.9c-0.5-0.1-0.7,0.1-1.2-0.2c-0.5-0.3-1.4-1.1-2.9-1.4c-4.4-0.7-8.2,1.9-10,5.9c-1.4,2.9-1.4,6.2-1.4,9.5
	c0.1,1.4,0.1,2.7-0.5,3.9c-0.8,1.8-2.7,2.7-3.8,4.3c-0.9,1.2-1.2,2.9-1.2,4.4c-0.1,1,0,2,0.3,3c-0.5,0.3-1.1,0.6-1.5,0.9
	c-0.1,0.1-0.1,0.1-0.3,0.3c-0.1,0.1-0.1,0.1-0.2,0.2l-0.1,0.1c-0.1,0.1-0.1,0.1-0.1,0.2c0,0.1-0.1,0.1-0.1,0.1
	c-0.1,0.1-0.1,0.2-0.2,0.3c-1.2,1.5-1.8,6.7-1.9,13.1c-0.1,6.3-0.4,11.4-1.1,14c-0.7,2.7-2.4,7.4-2.5,11c0,0.1,0,0.1,0,0.3l0,0.1
	c0,0.1,0,0.2,0,0.3l0,0.1c0,0.1,0,0.1,0,0.3l0,0.1c0,0.1,0,0.2,0,0.3l0,0.1c0,0.1,0,0.2,0,0.3l0,0.1c0,0.1,0,0.2,0,0.3
	c0,0.1,0,0.1,0,0.1c0,0.1,0,0.2,0,0.3c0,0.1,0,0.3,0,0.3l0,0.1c0,0.1,0,0.3,0,0.3c0,0.1,0,0.3,0,0.4c0,0.3,0,0.5-0.1,0.7l0,0.1
	c0,0.4-0.1,0.7-0.1,1.2c0,0.1,0,0.3,0,0.4c-0.2,3.3-0.5,6.4-0.5,6.4l-0.2,1.4c0,0-0.7,3.4-0.8,5.1c-0.1,1,0.2,2.7,0.9,4.1
	c1.3,2.5,3.2,3.7,3.2,3.7c0.3,0.3,2.3,0.5,1.3-0.9c-2.1-2.7-1.8-4-1.8-4s-0.3-2.2,0.3-2.3c0.5,0,1.1,1.1,1.3,1.7
	c0.4,1.1,0.6,2.7,1.3,2.4c0.3-0.1,0.1-0.5,0.1-1.1c-0.1-0.3,0.1-0.9,0-1.2c-0.1-0.3-0.4-1.8-0.5-2.2c-0.1-0.5-0.8-2.2-1-2.7
	c-0.2-0.5-0.3-1.4-0.3-2.2s1.3-5,1.5-5.8c0.2-0.8,5.3-12.8,5.4-17.8c0.1-2.5,1.1-6.3,1.2-9.9c0.5,2.5,1,5.3,1.4,6.5
	c0.5,1.7,0.7,5.7-0.7,8.6c-0.1,0.2-0.2,0.3-0.3,0.5c-0.4,0.7-0.8,1.4-1.2,2.2c-3.5,6.8-3.8,12.7-3.8,16.9c0,0.7,0.1,1.4,0.1,2.2
	c0-0.1,0-0.2,0-0.3c0.2,2.5,0.7,6.1,1.7,12c-0.1-0.4-0.1-0.6-0.1-0.6c0.8,4.8,2,11,3.5,19.8c0.4,2.2,0.5,4.5,0.3,6.8
	c-0.4,4.2,0.1,10.2,2.7,23.1c1,5.3,0.6,8.2-0.3,10c-1.2,2.5-3.2,2.9-2.5,4.6c1,1.2,6.1,0.8,8.2,0.7c0.6-0.1,1.1-0.1,1.4-0.9
	c0.3-0.6,0.3-1-0.8-3.5c-0.7-1.5-0.6-4-0.6-4s1.6-21.7,1.6-24.8c0-3-0.2-5.2-0.4-6.5c-0.3-1.4-0.3-2.7-0.1-4c0.3-2,0.5-4.8,0.7-7.8
	c0,0.1,0,0.2,0,0.3c1.2-15.6,1.5-25.7,1.5-25.7h1.8l0.1-0.1c0,0,0.6,23.5,2,33.3c0.2,1.3,0.2,2.7,0,4c-0.2,1.4-0.4,3.5-0.4,6.5
	c0,2.9,1.4,23.1,1.4,23.1s0.2,2.3-0.1,4.4c-0.1,0.1-0.1,0.3-0.1,0.4c0,0,0.1-0.3,0.1-0.6c-0.1,0.4-0.1,0.8-0.3,1.2
	c-0.6,1.9-0.9,2.7-0.9,3.3c0.1,0.7,0.6,1.2,1.2,1.2c2.2,0.1,7.8,0.6,8.4-0.7c1.4-2.9-6-2-2.9-14.7c3.1-12.8,3.5-18.9,2.9-23.1
	c-0.3-2.3-0.3-4.6,0.1-6.8c2.8-18.5,5.7-26.7,5.7-33.6C261.6,75.6,257.1,66.8,257.1,66.8z"/>
<text transform="matrix(1 0 0 1 212.5042 189.7012)"><tspan x="0" y="0" class="st8 st3 st4">grüner Bereich</tspan><tspan x="17.6" y="12" class="st8 st3 st4">26.</tspan><tspan x="30.7" y="12" class="st8 st3 st4">5</tspan><tspan x="36.5" y="12" class="st8 st3 st4">%</tspan></text>
</svg>
