<?xml version="1.0" encoding="utf-8"?>
<!-- Generator: Adobe Illustrator 22.0.0, SVG Export Plug-In . SVG Version: 6.00 Build 0)  -->
<svg version="1.1" id="Layer_1" xmlns="http://www.w3.org/2000/svg" xmlns:xlink="http://www.w3.org/1999/xlink" x="0px" y="0px"
	 viewBox="0 0 500 800" style="enable-background:new 0 0 500 800;" xml:space="preserve">
<style type="text/css">
	.st0{fill:#EFEBEA;}
	.st1{opacity:0.2;fill:#969696;enable-background:new    ;}
	.st2{fill:#969696;}
	.st3{fill:none;stroke:#FF2832;stroke-width:3.7479;stroke-miterlimit:10;}
	.st4{fill:#FF2832;}
</style>
<path class="st0" d="M451.1,715.1c-31.3-15.8-54.8-30.5-76.4-40.2c-21.7-9.7-23.9-72.9-23-110.9c18.2-11,31-23.4,38-34
	c10.6-16.4,18.5-62.7,23-104.7c4,0.4,9.3,0,17.2-4c19.4-9.7,26-66.3,12.8-91.4c-1.4-2.2-2.7-4.4-4-5.7c7.5-57,14.1-151.6-14.1-194
	C383,66.7,290.7,64,259.4,61.3c-41.7-3.6-115.9-3.2-134.5,43.7c-87.5,8.4-76.4,144.9-64.5,218.7c-1.4,1.4-2.2,3.2-3.5,5.3
	c-13.2,25.7-7,81.7,12.8,91.4c8.8,4.4,15,4.9,19,4c4,42.4,11.9,88.7,23,105c7,10.6,19.4,23,37.2,33.6c1.4,38-0.9,101.6-22.5,111.8
	c-22.1,9.7-45.5,24.3-77.3,40.2c56.4,40.7,125.8,65,200.9,65S394.5,755.8,451.1,715.1z"/>
<circle class="st1" cx="249.9" cy="283.5" r="170.6"/>
<g>
	<g>
		<path class="st2" d="M245.6,416.8c-6.2,0-12.3-3.5-18.5-4.4c-4.5-0.6-9.5,0.1-14-0.1c-1.7-0.1-3.3-0.3-5-0.8
			c-6.2-1.8-11-7-16.4-9.7c-5.7-2.7-12.8-2.7-18.2-6.2s-8.4-9.7-13.2-14.1c-4.9-4-11.5-6.2-15.8-11c-4-4.9-5.3-12-8.8-17.2
			c-3.5-5.3-9.3-9.3-12-15c-2.7-5.7-1.8-12.8-3.5-19c-1.8-6.2-6.2-11.5-7-17.6c-0.9-6.2,1.8-12.8,1.8-19s-2.7-12.8-1.8-19
			c0.9-6.2,5.3-12,7-17.6c1.8-6.2,0.9-13.2,3.5-19c2.7-5.7,8.4-9.7,12-15c3.5-5.3,4.4-12.3,8.8-17.2c4-4.9,11-7,15.8-11
			c4.9-4,8-10.6,13.2-14.1s12.3-3.5,18.2-6.2c5.9-2.7,10.6-8,16.4-9.7c6.2-1.8,12.8,0,19-0.9c6.2-0.9,12.3-4.4,18.5-4.4"/>
	</g>
	<g>
		<path class="st2" d="M254.3,148.8c6.2,0,12.3,3.5,18.5,4.4s13.2-0.9,19,0.9c6.2,1.8,11,7,16.4,9.7c5.7,2.7,12.8,2.7,18.2,6.2
			c5.3,3.5,8.4,9.7,13.2,14.1c4.9,4,11.5,6.2,15.8,11c4,4.9,5.3,12,8.8,17.2c3.5,5.2,9.3,9.3,12,15c2.7,5.7,1.8,12.8,3.5,19
			c1.8,6.2,6.2,11.5,7,17.6c0.9,6.2-1.8,12.8-1.8,19s2.7,12.8,1.8,19c-0.9,6.2-5.3,12-7,17.6c-1.8,6.2-0.9,13.2-3.5,19
			c-2.7,5.7-8.4,9.7-12,15c-3.5,5.3-4.4,12.3-8.8,17.2c-4,4.9-11,7-15.8,11c-4.9,4-8,10.6-13.2,14.1c-5.3,3.5-12.3,3.5-18.2,6.2
			c-5.7,2.7-10.6,8-16.4,9.7c-1.6,0.5-3.3,0.7-5,0.8c-4.7,0.3-9.5-0.5-14,0.1c-6.2,0.9-12.3,4.4-18.5,4.4"/>
	</g>
</g>
<path class="st3" d="M258.9,405.9c0,27-17.6,27-17.6,53.3c0,27,17.6,27,17.6,53.3c0,27-17.6,27-17.6,53.3c0,27,17.6,27,17.6,53.3
	c0,27-17.6,27-17.6,53.8c0,27,17.6,27,17.6,53.3c0,27-17.6,27-17.6,53.8"/>
<path class="st3" d="M241.1,405.9c0,27,17.6,27,17.6,53.3c0,27-17.6,27-17.6,53.3c0,27,17.6,27,17.6,53.3c0,27-17.6,27-17.6,53.3
	c0,27,17.6,27,17.6,53.8c0,27-17.6,27-17.6,53.3c0,27,17.6,27,17.6,53.8"/>
<path class="st4" d="M287,412.5c0.3-1.8,0.5-3.7,0.5-5.6c0-20.7-16.7-37.4-37.4-37.4s-37.4,16.7-37.4,37.4c0,1.8,0.1,3.6,0.4,5.4
	c0,0,9.5-0.5,14,0.1c6.2,0.9,12.3,4.4,18.5,4.4l8.8,0.4c6.2,0,12.3-3.5,18.5-4.4C277.5,412.2,287,412.5,287,412.5z"/>
</svg>
