<?xml version="1.0" encoding="utf-8"?>
<!-- Generator: Adobe Illustrator 22.0.0, SVG Export Plug-In . SVG Version: 6.00 Build 0)  -->
<svg version="1.1" id="Layer_1" xmlns="http://www.w3.org/2000/svg" xmlns:xlink="http://www.w3.org/1999/xlink" x="0px" y="0px"
	 viewBox="0 0 360 360" style="enable-background:new 0 0 360 360;" xml:space="preserve">
<style type="text/css">
	.st0{opacity:0.1;}
	.st1{fill:#FB3942;}
	.st2{opacity:0.3;}
	.st3{enable-background:new    ;}
	.st4{fill:#FFFFFF;}
</style>
<g class="st0">
	<path class="st1" d="M194.9,237.6c0-2.2,5.7-4.6,5.6-6.7c-0.2-2.2-6.2-3.7-6.5-5.9c-0.3-2.2,5-5.4,4.5-7.5
		c-0.5-2.1-6.7-2.7-7.3-4.8c-0.6-2.1,4.1-6.1,3.3-8.1c-0.8-2-7-1.7-8-3.7c-0.9-2,3.2-6.6,2.1-8.5c-1.1-1.9-7.2-0.6-8.4-2.4
		c-1.2-1.8,2.2-7,0.8-8.7c-1.4-1.7-7.2,0.4-8.7-1.2c-1.5-1.6,1.1-7.3-0.5-8.7c-1.6-1.5-7,1.5-8.8,0.1c-1.7-1.4,0-7.3-1.8-8.6
		c-1.8-1.2-6.7,2.5-8.6,1.4c-1.9-1.1-1.1-7.3-3.1-8.2c-2-0.9-6.3,3.5-8.3,2.7c-2-0.8-2.2-7-4.2-7.7c-2.1-0.6-5.7,4.4-7.8,3.9
		c-2.1-0.5-3.2-6.6-5.3-6.9c-2.1-0.3-5,5.2-7.1,5.1c-2.2-0.2-4.1-6.1-6.3-6.1s-4.2,5.9-6.3,6.1c-2.2,0.2-5-5.4-7.1-5.1
		c-2.2,0.3-3.2,6.4-5.3,6.9c-2.1,0.5-5.7-4.6-7.8-3.9c-2.1,0.6-2.2,6.9-4.2,7.7c-2,0.8-6.4-3.7-8.3-2.7c-2,0.9-1.2,7.1-3.1,8.2
		c-1.9,1.1-6.8-2.7-8.6-1.4c-1.8,1.2-0.1,7.2-1.8,8.6c-1.7,1.4-7.2-1.6-8.8-0.1c-1.6,1.5,1,7.1-0.5,8.7c-1.5,1.6-7.3-0.6-8.7,1.2
		c-1.4,1.7,2,6.9,0.8,8.7c-1.2,1.8-7.3,0.5-8.4,2.4c-1.1,1.9,3,6.5,2.1,8.5c-0.9,2-7.2,1.6-8,3.7c-0.8,2,4,6,3.3,8.1
		c-0.6,2.1-6.8,2.7-7.3,4.8c-0.5,2.1,4.8,5.3,4.5,7.5c-0.3,2.1-6.3,3.7-6.5,5.9c-0.2,2.2,5.6,4.5,5.6,6.7c0,2.2-5.7,4.6-5.6,6.7
		c0.2,2.2,6.2,3.7,6.5,5.9c0.3,2.2-5,5.4-4.5,7.5c0.5,2.1,6.7,2.7,7.3,4.8c0.6,2.1-4.1,6.1-3.3,8.1c0.8,2,7,1.7,8,3.7
		c0.9,2-3.2,6.6-2.1,8.5c1.1,1.9,7.2,0.6,8.4,2.4c1.2,1.8-2.2,7-0.8,8.7c1.4,1.7,7.2-0.4,8.7,1.2c1.5,1.6-1.1,7.3,0.5,8.7
		c1.6,1.5,7-1.5,8.8-0.1c1.7,1.4,0,7.3,1.8,8.6c1.8,1.2,6.7-2.5,8.6-1.4c1.9,1.1,1.1,7.3,3.1,8.2c2,0.9,6.3-3.5,8.3-2.7
		c2,0.8,2.2,7,4.2,7.7c2.1,0.6,5.7-4.4,7.8-3.9c2.1,0.5,3.2,6.6,5.3,6.9c2.1,0.3,5-5.2,7.1-5.1c2.2,0.2,4.1,6.1,6.3,6.1
		c2.2,0,4.2-5.9,6.3-6.1c2.2-0.2,5,5.4,7.1,5.1c2.2-0.3,3.2-6.4,5.3-6.9c2.1-0.5,5.7,4.6,7.8,3.9c2.1-0.6,2.2-6.9,4.2-7.7
		c2-0.8,6.4,3.7,8.3,2.7c2-0.9,1.2-7.1,3.1-8.2c1.9-1.1,6.8,2.7,8.6,1.4c1.8-1.2,0.1-7.2,1.8-8.6c1.7-1.4,7.2,1.6,8.8,0.1
		c1.6-1.5-1-7.1,0.5-8.7c1.5-1.6,7.3,0.6,8.7-1.2c1.4-1.7-2-6.9-0.8-8.7c1.2-1.8,7.3-0.5,8.4-2.4c1.1-1.9-3-6.5-2.1-8.5
		c0.9-2,7.2-1.6,8-3.7c0.8-2-4-6-3.3-8.1c0.6-2.1,6.8-2.7,7.3-4.8c0.5-2.1-4.8-5.3-4.5-7.5c0.3-2.1,6.3-3.7,6.5-5.9
		C200.6,242.1,194.9,239.8,194.9,237.6z"/>
</g>
<g class="st2">
	<path class="st1" d="M175.4,237.6c0-1.7,5.8-3.6,5.6-5.3c-0.1-1.7-6.1-2.7-6.3-4.4c-0.3-1.7,5.2-4.4,4.8-6.1
		c-0.4-1.7-6.4-1.8-6.9-3.4c-0.5-1.6,4.4-5.1,3.8-6.7c-0.6-1.6-6.6-0.8-7.4-2.3c-0.7-1.5,3.6-5.8,2.8-7.2c-0.9-1.5-6.7,0.2-7.6-1.2
		c-1-1.4,2.7-6.2,1.7-7.5c-1.1-1.3-6.6,1.2-7.7-0.1c-1.2-1.2,1.8-6.6,0.5-7.7c-1.2-1.2-6.3,2.2-7.7,1.1c-1.3-1.1,0.8-6.7-0.6-7.7
		c-1.4-1-5.9,3.1-7.4,2.2c-1.5-0.8-0.2-6.8-1.8-7.5c-1.5-0.7-5.4,3.9-7,3.3c-1.6-0.6-1.2-6.7-2.9-7.2c-1.6-0.5-4.8,4.7-6.4,4.3
		c-1.6-0.4-2.2-6.4-3.9-6.7c-1.7-0.2-4,5.3-5.7,5.2c-1.7-0.1-3.2-6-4.9-6c-1.7,0-3.2,5.9-4.9,6c-1.7,0.1-4-5.5-5.7-5.2
		c-1.7,0.3-2.3,6.3-3.9,6.7c-1.7,0.4-4.8-4.8-6.4-4.3c-1.6,0.5-1.3,6.6-2.9,7.2c-1.6,0.6-5.5-4-7-3.3c-1.5,0.7-0.3,6.7-1.8,7.5
		c-1.5,0.9-6-3.2-7.4-2.2c-1.4,1,0.7,6.6-0.6,7.7c-1.3,1.1-6.4-2.2-7.7-1.1c-1.2,1.2,1.7,6.5,0.5,7.7c-1.2,1.2-6.7-1.3-7.7,0.1
		c-1.1,1.3,2.6,6.1,1.7,7.5c-1,1.4-6.8-0.3-7.6,1.2c-0.8,1.5,3.5,5.7,2.8,7.2c-0.7,1.5-6.7,0.7-7.4,2.3c-0.6,1.6,4.3,5.1,3.8,6.7
		c-0.5,1.6-6.6,1.7-6.9,3.4c-0.4,1.6,5,4.4,4.8,6.1c-0.2,1.7-6.2,2.7-6.3,4.4c-0.1,1.7,5.6,3.6,5.6,5.3c0,1.7-5.8,3.6-5.6,5.3
		c0.1,1.7,6.1,2.7,6.3,4.4c0.3,1.7-5.2,4.4-4.8,6.1c0.4,1.7,6.4,1.8,6.9,3.4c0.5,1.6-4.4,5.1-3.8,6.7c0.6,1.6,6.6,0.8,7.4,2.3
		c0.7,1.5-3.6,5.8-2.8,7.2c0.9,1.5,6.7-0.2,7.6,1.2c1,1.4-2.7,6.2-1.7,7.5c1.1,1.3,6.6-1.2,7.7,0.1c1.2,1.2-1.8,6.6-0.5,7.7
		c1.2,1.2,6.3-2.2,7.7-1.1c1.3,1.1-0.8,6.7,0.6,7.7c1.4,1,5.9-3.1,7.4-2.2c1.5,0.8,0.2,6.8,1.8,7.5c1.5,0.7,5.4-3.9,7-3.3
		c1.6,0.6,1.2,6.7,2.9,7.2c1.6,0.5,4.8-4.7,6.4-4.3c1.6,0.4,2.2,6.4,3.9,6.7c1.7,0.2,4-5.3,5.7-5.2c1.7,0.1,3.2,6,4.9,6
		c1.7,0,3.2-5.9,4.9-6c1.7-0.1,4,5.5,5.7,5.2c1.7-0.3,2.3-6.3,3.9-6.7c1.7-0.4,4.8,4.8,6.4,4.3c1.6-0.5,1.3-6.6,2.9-7.2
		c1.6-0.6,5.5,4,7,3.3c1.5-0.7,0.3-6.7,1.8-7.5c1.5-0.9,6,3.2,7.4,2.2c1.4-1-0.7-6.6,0.6-7.7c1.3-1.1,6.4,2.2,7.7,1.1
		c1.2-1.2-1.7-6.5-0.5-7.7c1.2-1.2,6.7,1.3,7.7-0.1c1.1-1.3-2.6-6.1-1.7-7.5c1-1.4,6.8,0.3,7.6-1.2c0.8-1.5-3.5-5.7-2.8-7.2
		c0.7-1.5,6.7-0.7,7.4-2.3c0.6-1.6-4.3-5.1-3.8-6.7c0.5-1.6,6.6-1.7,6.9-3.4c0.4-1.6-5-4.4-4.8-6.1c0.2-1.7,6.2-2.7,6.3-4.4
		C181.2,241.2,175.4,239.3,175.4,237.6z"/>
</g>
<g>
	<path class="st1" d="M156,237.6c0-1.2,5.8-2.6,5.7-3.8c-0.1-1.2-6-1.8-6.2-3c-0.2-1.2,5.3-3.5,5.1-4.6c-0.3-1.2-6.2-0.9-6.6-2
		c-0.4-1.2,4.7-4.2,4.3-5.4c-0.4-1.1-6.3,0.1-6.8-1c-0.5-1.1,4.1-4.9,3.4-5.9c-0.6-1-6.2,1-6.9,0c-0.7-1,3.3-5.4,2.5-6.4
		c-0.8-0.9-6,1.9-6.8,1c-0.8-0.9,2.4-5.9,1.5-6.7c-0.9-0.8-5.6,2.8-6.6,2c-0.9-0.8,1.5-6.2,0.5-6.8c-1-0.7-5.1,3.6-6.2,3
		c-1-0.6,0.6-6.3-0.5-6.8c-1.1-0.5-4.5,4.3-5.7,3.9c-1.1-0.4-0.3-6.3-1.5-6.7c-1.2-0.4-3.8,5-5,4.7c-1.2-0.3-1.3-6.2-2.5-6.4
		c-1.2-0.2-3,5.5-4.3,5.4c-1.2-0.1-2.2-6-3.4-6c-1.2,0-2.2,5.9-3.4,6c-1.2,0.1-3.1-5.6-4.3-5.4c-1.2,0.2-1.3,6.1-2.5,6.4
		c-1.2,0.3-3.9-5-5-4.7c-1.2,0.4-0.4,6.3-1.5,6.7c-1.1,0.4-4.6-4.4-5.7-3.9c-1.1,0.5,0.6,6.2-0.5,6.8c-1,0.6-5.2-3.7-6.2-3
		c-1,0.7,1.5,6.1,0.5,6.8c-0.9,0.8-5.7-2.9-6.6-2c-0.9,0.8,2.4,5.8,1.5,6.7c-0.8,0.9-6-2-6.8-1c-0.8,0.9,3.2,5.4,2.5,6.4
		c-0.7,1-6.3-1.1-6.9,0c-0.6,1,4,4.8,3.4,5.9c-0.5,1.1-6.3-0.1-6.8,1c-0.4,1.1,4.7,4.2,4.3,5.3c-0.4,1.2-6.3,0.8-6.6,2
		c-0.3,1.2,5.2,3.4,5.1,4.6c-0.2,1.2-6.1,1.7-6.2,3c-0.1,1.2,5.7,2.6,5.7,3.8c0,1.2-5.8,2.6-5.7,3.8c0.1,1.2,6,1.8,6.2,3
		c0.2,1.2-5.3,3.5-5.1,4.6c0.3,1.2,6.2,0.9,6.6,2c0.4,1.2-4.7,4.2-4.3,5.4c0.4,1.1,6.3-0.1,6.8,1c0.5,1.1-4.1,4.9-3.4,5.9
		c0.6,1,6.2-1,6.9,0c0.7,1-3.3,5.4-2.5,6.4c0.8,0.9,6-1.9,6.8-1c0.8,0.9-2.4,5.9-1.5,6.7c0.9,0.8,5.6-2.8,6.6-2
		c0.9,0.8-1.5,6.2-0.5,6.8c1,0.7,5.1-3.6,6.2-3c1,0.6-0.6,6.3,0.5,6.8c1.1,0.5,4.5-4.3,5.7-3.9c1.1,0.4,0.3,6.3,1.5,6.7
		c1.2,0.4,3.8-5,5-4.7c1.2,0.3,1.3,6.2,2.5,6.4c1.2,0.2,3-5.5,4.3-5.4c1.2,0.1,2.2,6,3.4,6c1.2,0,2.2-5.9,3.4-6
		c1.2-0.1,3.1,5.6,4.3,5.4c1.2-0.2,1.3-6.1,2.5-6.4c1.2-0.3,3.9,5,5,4.7c1.2-0.4,0.4-6.3,1.5-6.7c1.1-0.4,4.6,4.4,5.7,3.9
		c1.1-0.5-0.6-6.2,0.5-6.8c1-0.6,5.2,3.7,6.2,3c1-0.7-1.5-6.1-0.5-6.8c0.9-0.8,5.7,2.9,6.6,2c0.9-0.8-2.4-5.8-1.5-6.7
		c0.8-0.9,6,2,6.8,1c0.8-0.9-3.2-5.4-2.5-6.4c0.7-1,6.3,1.1,6.9,0c0.6-1-4-4.8-3.4-5.9c0.5-1.1,6.3,0.1,6.8-1
		c0.4-1.1-4.7-4.2-4.3-5.3c0.4-1.2,6.3-0.8,6.6-2c0.3-1.2-5.2-3.4-5.1-4.6c0.2-1.2,6.1-1.7,6.2-3C161.8,240.2,156,238.8,156,237.6z"
		/>
</g>
<g class="st3">
	<path class="st4" d="M74.6,242.1c0.1-0.7,0.4-1.3,1-1.8c1.5,1,2.9,1.5,4.3,1.5c0.8,0,1.5-0.2,2-0.6c0.5-0.4,0.7-0.9,0.7-1.5
		c0-1-0.6-1.8-1.9-2.3l-2.5-1.1c-2-0.8-2.9-2.1-2.9-3.7c0-0.6,0.1-1.1,0.4-1.6s0.6-1,1-1.3c0.4-0.4,0.9-0.7,1.5-0.9s1.3-0.3,2-0.3
		c1.5,0,3,0.4,4.4,1.1c0,0.7-0.3,1.3-0.8,1.8c-1.4-0.7-2.6-1-3.7-1c-0.8,0-1.4,0.2-1.9,0.6c-0.5,0.4-0.7,0.8-0.7,1.3
		c0,0.5,0.1,0.9,0.4,1.2c0.3,0.3,0.7,0.6,1.3,0.8l2.5,1.1c1.1,0.5,1.9,1,2.4,1.7c0.5,0.6,0.8,1.4,0.8,2.3c0,1.3-0.4,2.3-1.3,3.1
		c-0.9,0.8-2.2,1.2-4,1.2C77.8,243.7,76.2,243.1,74.6,242.1z"/>
	<path class="st4" d="M93.8,230.7l-1.2,0v12.7c-0.3,0.1-0.7,0.1-1.2,0.1c-0.4,0-0.8,0-1.2-0.1v-11.1l0-1.6h0l-1.2,0h-2.5
		c-0.1-0.3-0.1-0.6-0.1-1c0-0.3,0-0.7,0.1-1h9.8c0.1,0.3,0.1,0.7,0.1,1c0,0.6-0.4,0.9-1.3,0.9H93.8z"/>
	<path class="st4" d="M98.9,228.8l4.6-0.1c1.5,0,2.7,0.4,3.6,1.1c0.9,0.8,1.3,1.8,1.3,3.2c0,1-0.3,1.8-0.8,2.5
		c-0.5,0.7-1.2,1.2-2,1.4c0.7,0.2,1.2,0.8,1.5,1.8l0.9,2.5c0.3,0.7,0.6,1.3,1,1.5c-0.3,0.5-0.8,0.7-1.5,0.7c-0.4,0-0.7-0.1-0.9-0.3
		c-0.2-0.2-0.4-0.6-0.6-1.1l-1.1-2.9c-0.2-0.6-0.5-1-0.8-1.3c-0.3-0.3-0.8-0.4-1.4-0.4H101v5.9c-0.3,0.1-0.7,0.1-1.1,0.1
		c-0.5,0-0.8,0-1.1-0.1v-14.5L98.9,228.8z M101,230.5v5.2c1.1,0,1.9,0,2.4,0c1,0,1.6-0.2,2-0.7c0.4-0.5,0.6-1.1,0.6-1.8
		c0-1.7-0.9-2.6-2.6-2.6C102.3,230.5,101.5,230.5,101,230.5z"/>
	<path class="st4" d="M114,240.4l0,1.1c0.4,0,0.9-0.1,1.4-0.1h5.5c0,0.4,0,0.7-0.1,0.9c-0.1,0.7-0.6,1.1-1.5,1.1h-6.3
		c-0.4,0-0.7-0.1-1-0.4c-0.2-0.2-0.4-0.6-0.4-1v-13.1l0.1-0.1h8.6c0,0.2,0.1,0.5,0.1,0.9s-0.1,0.7-0.2,1H114l0,1.4v3l1.3,0h4
		c0.1,0.3,0.1,0.6,0.1,1s0,0.7-0.1,0.9h-4c-0.6,0-1,0-1.3,0V240.4z"/>
	<path class="st4" d="M122.8,242.1c0.1-0.7,0.4-1.3,1-1.8c1.5,1,2.9,1.5,4.3,1.5c0.8,0,1.5-0.2,2-0.6c0.5-0.4,0.7-0.9,0.7-1.5
		c0-1-0.6-1.8-1.9-2.3l-2.5-1.1c-2-0.8-2.9-2.1-2.9-3.7c0-0.6,0.1-1.1,0.4-1.6s0.6-1,1-1.3c0.4-0.4,0.9-0.7,1.5-0.9s1.3-0.3,2-0.3
		c1.5,0,3,0.4,4.4,1.1c0,0.7-0.3,1.3-0.8,1.8c-1.4-0.7-2.6-1-3.7-1c-0.8,0-1.4,0.2-1.9,0.6c-0.5,0.4-0.7,0.8-0.7,1.3
		c0,0.5,0.1,0.9,0.4,1.2c0.3,0.3,0.7,0.6,1.3,0.8l2.5,1.1c1.1,0.5,1.9,1,2.4,1.7c0.5,0.6,0.8,1.4,0.8,2.3c0,1.3-0.4,2.3-1.3,3.1
		c-0.9,0.8-2.2,1.2-4,1.2C126,243.7,124.3,243.1,122.8,242.1z"/>
	<path class="st4" d="M134.9,242.1c0.1-0.7,0.4-1.3,1-1.8c1.5,1,2.9,1.5,4.3,1.5c0.8,0,1.5-0.2,2-0.6c0.5-0.4,0.7-0.9,0.7-1.5
		c0-1-0.6-1.8-1.9-2.3l-2.5-1.1c-2-0.8-2.9-2.1-2.9-3.7c0-0.6,0.1-1.1,0.4-1.6c0.2-0.5,0.6-1,1-1.3c0.4-0.4,0.9-0.7,1.5-0.9
		s1.3-0.3,2-0.3c1.5,0,3,0.4,4.4,1.1c0,0.7-0.3,1.3-0.8,1.8c-1.4-0.7-2.6-1-3.7-1c-0.8,0-1.4,0.2-1.9,0.6c-0.5,0.4-0.7,0.8-0.7,1.3
		c0,0.5,0.1,0.9,0.4,1.2c0.3,0.3,0.7,0.6,1.3,0.8l2.5,1.1c1.1,0.5,1.9,1,2.4,1.7c0.5,0.6,0.8,1.4,0.8,2.3c0,1.3-0.4,2.3-1.3,3.1
		c-0.9,0.8-2.2,1.2-4,1.2C138.1,243.7,136.4,243.1,134.9,242.1z"/>
</g>
</svg>
