<?xml version="1.0" encoding="utf-8"?>
<!-- Generator: Adobe Illustrator 22.0.0, SVG Export Plug-In . SVG Version: 6.00 Build 0)  -->
<svg version="1.1" id="Layer_1" xmlns="http://www.w3.org/2000/svg" xmlns:xlink="http://www.w3.org/1999/xlink" x="0px" y="0px"
	 viewBox="0 0 271.9 197.4" style="enable-background:new 0 0 271.9 197.4;" xml:space="preserve">
<style type="text/css">
	.st0{fill:url(#SVGID_1_);}
	.st1{fill:url(#SVGID_2_);}
	.st2{fill:url(#SVGID_3_);}
	.st3{fill:url(#SVGID_4_);}
	.st4{enable-background:new    ;}
	.st5{fill:#FF2832;}
	.st6{fill:#FFC000;}
	.st7{fill:#009632;}
</style>
<linearGradient id="SVGID_1_" gradientUnits="userSpaceOnUse" x1="28.4747" y1="165.0135" x2="28.4747" y2="0">
	<stop  offset="0" style="stop-color:#FF2832;stop-opacity:0.2"/>
	<stop  offset="1" style="stop-color:#FF2832"/>
</linearGradient>
<path class="st0" d="M56.9,90.3c-0.1-1.6-0.8-5.1-0.8-5.1L56,83.8l0,0c0,0-0.7-8.4-0.9-12c-0.3-3.6-1.8-7.8-2.5-10.4
	c-0.7-2.6,1.5-8.3-0.5-15.3c-1.2-4.4,0-8.5-2.3-11.6c-2.6-3.3-5.4-3-6.5-3.1l0,0c-1.4-0.3-2.9-0.5-3.9-0.9c-2.3-1-3.8-2-5.2-2.7
	c-1-0.4-1-3.3-1-5c0.8-0.5,1.4-1,1.7-1.5c0.5-0.7,0.8-2.8,1-4.8c0.2,0.1,0.4,0,0.8-0.2c0.9-0.4,1.2-3,0.6-4.1
	c-0.1-0.1-0.1-0.2-0.2-0.3c0.3-2.5,0.7-6.8-0.7-8.7c-1.8-2.8-6.1-2.9-7.4-3.1c-1.8-0.2-5.2-0.1-6.1,2c-3.9,0.4-3.5,6.5-2.9,9.8
	c-0.1,0.1-0.1,0.1-0.1,0.3c-0.6,1.2-0.3,3.7,0.6,4.1c0.4,0.2,0.7,0.3,0.8,0.2c0.2,1.9,0.6,4,1,4.8c0.3,0.5,0.9,1,1.7,1.5
	c0.1,1.7-0.1,4.6-1,5c-1.4,0.6-2.8,1.6-5.2,2.7c-1,0.4-2.5,0.7-3.9,0.9c-1.2,0.1-4-0.2-6.5,3.1C5,37.5,6.1,41.7,5,46
	c-2.1,7,0.1,12.7-0.6,15.3c-0.7,2.6-2.2,6.8-2.5,10.4S1,83.7,1,83.7l0,0l-0.2,1.4c0,0-0.7,3.5-0.8,5.1c-0.1,1,0.1,2.7,0.8,4.1
	c1.2,2.5,3.8,4.3,3.8,4.3C5,99,6.9,99.2,5.9,97.8c-2.1-2.7-2.3-4.6-2.3-4.6S3.3,91,3.9,91c0.5-0.1,1,1.1,1.2,1.7
	c0.4,1,0.5,2.7,1.2,2.3c0.3-0.1,0.2-0.5,0.1-1.1c0-0.3,0.1-0.9,0.1-1.2c-0.1-0.3-0.4-1.8-0.6-2.2c-0.1-0.5-0.7-2.2-0.9-2.7
	c-0.2-0.5-0.4-1.4-0.3-2.2c0.1-0.7,1.2-4.8,1.8-6.1c0.4-0.9,4.5-6.5,5.2-17.5c0.2-2.6,0.8-6.3,1.2-9.8c0.3,1.6,0.6,3.2,0.7,4.4
	c0.1,3.7,1.2,8.9,0.9,11.7c-0.7,6.3-2.3,6.1-2.3,16.5c0,6.8-0.3,19.6,3.3,34.8c0.5,2.2,0.1,5.3-0.3,7.6c-0.5,4.3,0.7,10,3.3,23
	c2.5,12.5-5.2,11-3.8,14c0.6,1.2,7.6,0.8,9.8,0.7c0.7-0.1,1.2-0.6,1.2-1.2c0.1-0.7-0.3-1.4-0.9-3.3c-0.7-2.2-0.4-5.5-0.4-5.5
	s1.4-20.2,1.4-23.1c0-3.3-0.3-5.4-0.5-6.7c-0.2-1.1-0.3-2.2,0-3.3c2-9.1,2-32.3,2-32.3h2.2c0,0,0.1,23.2,2,32.3
	c0.3,1.1,0.2,2.2,0,3.3c-0.3,1.3-0.5,3.5-0.5,6.7c0,2.9,1.4,23.1,1.4,23.1s0.3,3.3-0.4,5.5c-0.6,1.9-0.9,2.7-0.9,3.3
	c0.1,0.7,0.6,1.2,1.2,1.2c2.2,0.1,9.2,0.5,9.8-0.7c1.3-2.9-6.4-1.5-3.8-14c2.7-13,3.8-18.6,3.3-23c-0.3-2.3-0.7-5.3-0.3-7.6
	c3.5-15.1,3.3-27.9,3.3-34.8c0-10.4-1.6-10.2-2.3-16.5c-0.3-2.7,0.8-8,0.9-11.7c0.1-1.2,0.3-2.8,0.7-4.4c0.4,3.5,1,7.2,1.2,9.8
	c0.7,11,5.1,16.9,5.5,17.7c0.4,1,1.6,5.1,1.6,5.9c0.1,0.7-0.1,1.6-0.3,2.2c-0.1,0.5-0.8,2.2-0.9,2.7c-0.1,0.5-0.5,1.9-0.6,2.2
	c-0.1,0.3,0.1,0.9,0.1,1.2c-0.1,0.7-0.1,1,0.1,1.1c0.7,0.3,0.9-1.3,1.2-2.3C52,92.1,52.5,91,53,91c0.6,0.1,0.4,2.2,0.4,2.2
	s-0.3,1.8-2.3,4.6c-1,1.4,0.9,1.2,1.2,0.8c0,0,2.5-1.9,3.8-4.3C56.8,93,57,91.4,56.9,90.3z"/>
<linearGradient id="SVGID_2_" gradientUnits="userSpaceOnUse" x1="240.8592" y1="46.6631" x2="240.8592" y2="211.5" gradientTransform="matrix(1 0 0 -1 0 211.5)">
	<stop  offset="5.000000e-04" style="stop-color:#009632;stop-opacity:0.3"/>
	<stop  offset="1" style="stop-color:#009632"/>
</linearGradient>
<path class="st1" d="M265.5,90c-0.1-1.6-0.7-5.1-0.7-5.1l-0.1-1.4l0.1,0.1c0,0-0.4-8.5-0.5-12.1s-1.6-8.5-2.2-11.1
	c-0.6-2.7-0.8-7.8-0.7-14c0.1-6.4-0.4-11.4-1.5-13c-1.3-1.8-3.9-2.5-4.9-2.7c-0.8-0.3-1.7-0.5-2.6-0.7c0,0,0,0,0-0.1
	c1.2-3,1.2-6.4,0.1-9.5c-0.3-0.9-0.7-1.7-0.9-2.7c-0.3-1.4-0.2-2.8-0.3-4.2c-0.1-2.5-0.3-5.7-1.5-8c-1-1.8-2.4-3.7-4.6-3.9
	c-0.5-0.1-0.7,0.1-1.2-0.2s-1.4-1.1-2.9-1.4c-4.4-0.7-8.2,1.9-10,5.9c-1.4,2.9-1.4,6.2-1.4,9.5c0.1,1.4,0.1,2.7-0.5,3.9
	c-0.8,1.8-2.7,2.7-3.8,4.3c-0.9,1.2-1.2,2.9-1.2,4.4c-0.1,1,0,2,0.3,3c-0.5,0.3-1,0.6-1.5,1l0,0l0,0c-0.1,0.1-0.1,0.1-0.3,0.3l0,0
	c-0.1,0.1-0.1,0.1-0.2,0.2l-0.1,0.1c-0.1,0.1-0.1,0.1-0.1,0.2c0,0.1-0.1,0.1-0.1,0.1c-0.1,0.1-0.1,0.2-0.2,0.3
	c-1.1,1.6-1.6,6.8-1.5,13.2c0.1,6.3-0.1,11.4-0.7,14c-0.6,2.7-2.2,7.5-2.2,11.1c0,0.1,0,0.1,0,0.3v0.1c0,0.1,0,0.2,0,0.3V72
	c0,0.1,0,0.1,0,0.3v0.1c0,0.1,0,0.2,0,0.3v0.1c0,0.1,0,0.2,0,0.3V73c0,0.1,0,0.2,0,0.3s0,0.1,0,0.1c0,0.1,0,0.2,0,0.3l0,0
	c0,0.1,0,0.3,0,0.3V74c0,0.1,0,0.3,0,0.3l0,0c0,0.1,0,0.3,0,0.4l0,0c0,0.3,0,0.5-0.1,0.7v0.1c0,0.4-0.1,0.7-0.1,1.2l0,0
	c0,0.1,0,0.3,0,0.4l0,0c-0.1,3.3-0.3,6.5-0.3,6.5l0,0l-0.1,1.4c0,0-0.6,3.5-0.7,5.1c-0.1,1,0.3,2.7,1,4.1c1.4,2.4,3.3,3.7,3.3,3.7
	c0.3,0.3,2.3,0.5,1.2-0.9c-2.2-2.7-1.9-4-1.9-4s-0.3-2.2,0.3-2.3c0.5-0.1,1.1,1,1.3,1.7c0.4,1,0.7,2.7,1.4,2.3
	c0.3-0.1,0.1-0.5,0.1-1.1c-0.1-0.3,0.1-0.9,0-1.2c-0.1-0.3-0.5-1.8-0.6-2.2c-0.1-0.5-0.8-2.2-1-2.7c-0.3-0.5-0.4-1.4-0.4-2.2
	c0-0.7,1.2-5.1,1.4-5.9c0.2-0.8,4.9-13,4.9-17.9c0-2.5,0.2-6.3,0.3-9.8c0.5,2.5,1,5.3,1.4,6.5c0.5,1.7,0.7,5.7-0.7,8.6
	c-0.1,0.2-0.2,0.3-0.3,0.5c-0.4,0.7-0.8,1.4-1.2,2.2c-3.5,6.8-3.8,12.7-3.8,16.9c0,0.7,0.1,1.4,0.1,2.2l0,0c0-0.1,0-0.2,0-0.3
	c0.2,2.5,0.7,6.1,1.7,12c-0.1-0.4-0.1-0.6-0.1-0.6c0.8,4.8,2,11,3.5,19.8c0.4,2.2,0.5,4.5,0.3,6.8c-0.4,4.2,0.1,10.2,2.7,23.1
	c1,5.3,0.6,8.2-0.3,10l0,0c-1.2,2.5-3.2,2.9-2.5,4.6c1,1.2,6.1,0.8,8.2,0.7c0.6-0.1,1.1-0.1,1.4-0.9c0.3-0.6,0.3-1-0.8-3.5
	c-0.7-1.5-0.6-4-0.6-4s1.6-21.7,1.6-24.8c0-3-0.2-5.2-0.4-6.5c-0.3-1.4-0.3-2.7-0.1-4c0.3-2,0.5-4.8,0.7-7.8c0,0.1,0,0.2,0,0.3
	c1.2-15.6,1.5-25.7,1.5-25.7h1.8l-0.1,0.1c0,0,0.6,23.5,2,33.3c0.2,1.3,0.2,2.7,0,4c-0.2,1.4-0.4,3.5-0.4,6.5
	c0,2.9,1.4,23.1,1.4,23.1s0.2,2.3-0.1,4.4c-0.1,0.1-0.1,0.3-0.1,0.4c0,0,0.1-0.3,0.1-0.6c-0.1,0.4-0.1,0.8-0.3,1.2
	c-0.6,1.9-0.9,2.7-0.9,3.3c0.1,0.7,0.6,1.2,1.2,1.2c2.2,0.1,7.8,0.6,8.4-0.7c1.4-2.9-6-2-2.9-14.7c3.1-12.8,3.5-18.9,2.9-23.1
	c-0.3-2.3-0.3-4.6,0.1-6.8c2.8-18.5,5.7-26.7,5.7-33.6c0-5.3-0.4-8.7-1.2-11.5l0,0c-0.1-0.2-0.1-0.4-0.2-0.6l0,0
	c-0.2-0.6-0.4-1-0.6-1.6l0,0c-0.1-0.2-0.1-0.3-0.2-0.5l0,0c-0.1-0.3-0.3-0.7-0.5-1l0,0c-0.1-0.1-0.1-0.3-0.3-0.5c0,0,0,0,0-0.1
	c-0.1-0.1-0.1-0.3-0.3-0.5c0,0,0,0,0-0.1c-0.2-0.3-0.3-0.7-0.5-1c0,0,0,0,0-0.1c-0.1-0.1-0.2-0.3-0.3-0.5V68
	c-0.1-0.1-0.2-0.3-0.3-0.5v-0.1c-0.1-0.2-0.2-0.3-0.3-0.5c-1.3-2.3-1.2-6.5-0.8-9.1c0-0.1,0.1-0.1,0.1-0.3v-0.1
	c0-0.1,0.1-0.1,0.1-0.3v-0.1c0-0.1,0.1-0.1,0.1-0.3V57c0-0.1,0.1-0.2,0.1-0.3v-0.1c0-0.1,0.1-0.2,0.1-0.3c0,0,0,0,0-0.1
	c0-0.1,0.1-0.2,0.1-0.3v-0.1c0-0.1,0.1-0.3,0.1-0.3l0,0c0.1-0.1,0.1-0.3,0.1-0.3v-0.1c0.1-0.1,0.1-0.3,0.1-0.4v-0.1
	c0.1-0.1,0.1-0.3,0.1-0.3v-0.1c0.1-0.1,0.1-0.3,0.1-0.4v-0.1c0.1-0.1,0.1-0.3,0.1-0.4l0,0c0.1-0.1,0.1-0.3,0.1-0.4
	c0-0.1,0-0.1,0-0.1c0.1-0.1,0.1-0.3,0.1-0.4c0,0,0,0,0-0.1c0.1-0.1,0.1-0.3,0.1-0.4c0-0.1,0-0.1,0-0.1c0-0.1,0.1-0.1,0.1-0.2
	c0,0.1,0,0.3,0,0.4c0,0.1,0,0.1,0,0.1c0,0.2,0,0.4,0.1,0.6v0.1c0,0.2,0,0.4,0.1,0.6v0.1c0,0.2,0,0.4,0.1,0.6c0,0.1,0,0.1,0,0.1
	c0,0.2,0,0.4,0.1,0.6V55c0,0.2,0,0.4,0.1,0.6v0.1c0,0.2,0,0.4,0,0.6l0,0c0,0.2,0,0.4,0,0.6v0.1c0,0.2,0,0.4,0,0.6v0.1
	c0,0.2,0,0.4,0,0.5c0,0.1,0,0.1,0,0.1c0,0.2,0,0.3,0,0.5c0,0.1,0,0.1,0,0.1c0,0.2,0,0.3,0,0.5c0,0.1,0,0.1,0,0.1c0,0.1,0,0.3,0,0.5
	c0,0.1,0,0.1,0,0.1c0,0.1,0,0.3,0,0.5v0.1c0,0.1,0,0.3,0,0.4v0.1c0,0.1,0,0.3,0,0.4c0,0.1,0,0.3,0,0.3v0.1c0,0.1,0,0.3,0,0.3v0.1
	c0,0.1,0,0.3,0.1,0.4v0.1c0,0.1,0.1,0.3,0.1,0.4v0.1c0,0.1,0.1,0.3,0.1,0.4c0,0.1,0,0.1,0,0.1c0,0.1,0.1,0.3,0.1,0.4
	c0,0.1,0,0.1,0,0.1c0.1,0.1,0.1,0.3,0.1,0.5l0,0c0.1,0.1,0.1,0.3,0.1,0.5c0,0.1,0,0.1,0,0.1c0.1,0.1,0.1,0.3,0.1,0.5
	c0,0.1,0,0.1,0,0.1c0.1,0.1,0.1,0.3,0.1,0.5v0.1c0.1,0.1,0.1,0.3,0.1,0.5v0.1c0.1,0.1,0.1,0.3,0.1,0.5c0,0.1,0,0.1,0.1,0.1
	c0.1,0.1,0.1,0.3,0.1,0.5c0,0.1,0,0.1,0,0.1c0.1,0.2,0.1,0.3,0.1,0.5c0,0,0,0,0,0.1c0.1,0.2,0.1,0.3,0.1,0.5c0,0.1,0,0.1,0,0.1
	c0.1,0.2,0.1,0.3,0.1,0.5c0,0.1,0,0.1,0.1,0.1c0.1,0.2,0.1,0.3,0.1,0.5c0,0.1,0,0.1,0,0.1c0.1,0.2,0.1,0.3,0.1,0.5v0.1
	c0.1,0.2,0.1,0.3,0.1,0.5c0,0.1,0,0.1,0.1,0.1c0.1,0.1,0.1,0.3,0.1,0.5c0,0.1,0,0.1,0.1,0.1c0.1,0.2,0.1,0.3,0.1,0.5c0,0,0,0,0,0.1
	c0.1,0.1,0.1,0.3,0.1,0.5c0,0.1,0,0.1,0,0.1c0.1,0.1,0.1,0.3,0.1,0.5c0,0.1,0,0.1,0.1,0.1c0.1,0.1,0.1,0.3,0.1,0.5v0.1
	c0.1,0.1,0.1,0.3,0.1,0.5c0,0,0,0,0,0.1c0.1,0.1,0.1,0.3,0.1,0.4c0,0.1,0,0.1,0.1,0.1c0.1,0.1,0.1,0.3,0.1,0.4c0,0.1,0,0.1,0.1,0.1
	c0.1,0.1,0.1,0.3,0.1,0.4v0.1c0.1,0.1,0.1,0.3,0.1,0.4v0.1c0.1,0.1,0.1,0.3,0.1,0.4c0,0.1,0,0.1,0.1,0.1c0.1,0.1,0.1,0.3,0.1,0.3
	v0.1c0.1,0.1,0.1,0.3,0.1,0.3l0,0c0.4,1,0.7,2.2,1,3.3l0,0c0.1,0.2,0.1,0.4,0.1,0.6c0,0.1,0,0.1,0,0.1c0.1,0.1,0.1,0.3,0.1,0.5
	c0,0.1,0.1,0.1,0.1,0.1c0.1,0.1,0.1,0.3,0.1,0.4c0,0.1,0,0.1,0.1,0.1c0.1,0.1,0.1,0.3,0.1,0.5c0,0,0,0,0,0.1l0.2,0.9
	c0.1,0.6,0.3,1.1,0.3,1.5c0.2,1.1-0.3,1.7-0.4,2.2c-0.1,0.5-0.9,2.2-1,2.7c-0.1,0.5-0.6,1.9-0.6,2.2c-0.1,0.3,0.1,0.9,0,1.2
	c-0.1,0.7-0.2,1,0.1,1.1c0.7,0.4,0.9-1.3,1.4-2.3c0.3-0.6,0.8-1.7,1.3-1.7c0.6,0.1,0.3,2.3,0.3,2.3s0.3,1.2-1.9,4
	c-1.1,1.4,0.8,1.2,1.2,0.9c0,0,2-1.2,3.3-3.7C265.2,92.6,265.6,91,265.5,90z"/>
<linearGradient id="SVGID_3_" gradientUnits="userSpaceOnUse" x1="163.6842" y1="46.4214" x2="163.6842" y2="211.5" gradientTransform="matrix(1 0 0 -1 0 211.5)">
	<stop  offset="0" style="stop-color:#FFC000;stop-opacity:0.3"/>
	<stop  offset="1" style="stop-color:#FFC000"/>
</linearGradient>
<path class="st2" d="M192.1,90.3c-0.1-1.6-0.8-5.1-0.8-5.1l-0.2-1.4l0,0c0,0-0.7-8.4-0.9-12c-0.3-3.6-1.8-7.8-2.5-10.4
	c-0.7-2.6,1.5-8.3-0.5-15.3c-1.2-4.4,0-8.5-2.3-11.6c-2.6-3.3-5.4-3-6.5-3.1l0,0c-1.4-0.3-2.9-0.5-3.9-0.9c-2.3-1-3.8-2-5.2-2.7
	c-1-0.4-1-3.3-1-5c0.8-0.5,1.4-1,1.7-1.5c0.5-0.7,0.8-2.8,1-4.8c0.2,0.1,0.4,0,0.8-0.2c0.9-0.4,1.2-3,0.6-4.1
	c-0.1-0.1-0.1-0.2-0.2-0.3c0.3-2.5,0.7-6.8-0.7-8.7c-1.8-2.8-6.1-2.9-7.4-3.1c-1.8-0.2-5.2-0.1-6.1,2c-3.9,0.4-3.5,6.5-2.9,9.8
	c-0.1,0.1-0.1,0.1-0.1,0.3c-0.6,1.2-0.3,3.7,0.6,4.1c0.4,0.2,0.7,0.3,0.8,0.2c0.2,1.9,0.6,4,1,4.8c0.3,0.5,0.9,1,1.7,1.5
	c0.1,1.7-0.1,4.6-1,5c-1.4,0.6-2.8,1.6-5.2,2.7c-1,0.4-2.5,0.7-3.9,0.9c-1.2,0.1-4-0.2-6.5,3.1c-2.3,3.1-1.2,7.2-2.3,11.6
	c-2,7.1,0.3,12.7-0.5,15.3c-0.7,2.6-2.2,6.8-2.5,10.4s-0.9,12-0.9,12l0,0l-0.2,1.4c0,0-0.7,3.5-0.8,5.1c-0.1,1,0.1,2.7,0.8,4.1
	c1.2,2.5,3.8,4.3,3.8,4.3c0.3,0.4,2.3,0.6,1.2-0.8c-2.1-2.7-2.3-4.6-2.3-4.6s-0.3-2.2,0.4-2.2c0.5-0.1,1,1.1,1.2,1.7
	c0.4,1,0.5,2.7,1.2,2.3c0.3-0.1,0.2-0.5,0.1-1.1c0-0.3,0.1-0.9,0.1-1.2c-0.1-0.3-0.4-1.8-0.6-2.2c-0.1-0.5-0.7-2.2-0.9-2.7
	c-0.2-0.5-0.4-1.4-0.3-2.2c0.1-0.7,1.2-4.8,1.8-6.1c0.4-0.9,4.5-6.5,5.2-17.5c0.2-2.6,0.8-6.3,1.2-9.8c0.3,1.6,0.6,3.2,0.7,4.4
	c0.1,3.7,1.2,8.9,0.9,11.7c-0.7,6.3-2.3,6.1-2.3,16.5c0,6.8-0.3,19.6,3.3,34.8c0.5,2.2,0.1,5.3-0.3,7.6c-0.5,4.3,0.7,10,3.3,23
	c2.5,12.5-5.2,11-3.8,14c0.6,1.2,7.6,0.8,9.8,0.7c0.7-0.1,1.2-0.6,1.2-1.2c0.1-0.7-0.3-1.4-0.9-3.3c-0.7-2.2-0.4-5.5-0.4-5.5
	s1.4-20.2,1.4-23.1c0-3.3-0.3-5.4-0.5-6.7c-0.2-1.1-0.3-2.2,0-3.3c2-9.1,2-32.3,2-32.3h2.2c0,0,0.1,23.2,2,32.3
	c0.3,1.1,0.2,2.2,0,3.3c-0.3,1.3-0.5,3.5-0.5,6.7c0,2.9,1.4,23.1,1.4,23.1s0.3,3.3-0.4,5.5c-0.6,1.9-0.9,2.7-0.9,3.3
	c0.1,0.7,0.6,1.2,1.2,1.2c2.2,0.1,9.2,0.5,9.8-0.7c1.3-2.9-6.4-1.5-3.8-14c2.7-13,3.8-18.6,3.3-23c-0.3-2.3-0.7-5.3-0.3-7.6
	c3.5-15.1,3.3-27.9,3.3-34.8c0-10.4-1.6-10.2-2.3-16.5c-0.3-2.7,0.8-8,0.9-11.7c0.1-1.2,0.3-2.8,0.7-4.4c0.4,3.5,1,7.2,1.2,9.8
	c0.7,11,5.1,16.9,5.5,17.7c0.4,1,1.6,5.1,1.6,5.9c0,0.7-0.1,1.6-0.3,2.2c-0.1,0.5-0.8,2.2-0.9,2.7c-0.1,0.5-0.5,1.9-0.6,2.2
	c-0.1,0.3,0.1,0.9,0.1,1.2c-0.1,0.7-0.1,1,0.1,1.1c0.7,0.3,0.9-1.3,1.2-2.3c0.2-0.6,0.7-1.7,1.2-1.7c0.6,0.1,0.4,2.2,0.4,2.2
	s-0.3,1.8-2.3,4.6c-1,1.4,0.9,1.2,1.2,0.8c0,0,2.5-1.9,3.8-4.3C192,93,192.1,91.4,192.1,90.3z"/>
<linearGradient id="SVGID_4_" gradientUnits="userSpaceOnUse" x1="106.6273" y1="46.6631" x2="106.6273" y2="211.5" gradientTransform="matrix(1 0 0 -1 0 211.5)">
	<stop  offset="0" style="stop-color:#FFC000;stop-opacity:0.3"/>
	<stop  offset="1" style="stop-color:#FFC000"/>
</linearGradient>
<path class="st3" d="M131.3,90c-0.1-1.6-0.7-5.1-0.7-5.1l-0.1-1.4l0.1,0.1c0,0-0.4-8.5-0.5-12.1s-1.6-8.5-2.2-11.1
	c-0.6-2.7-0.8-7.8-0.7-14c0.1-6.4-0.4-11.4-1.5-13c-1.3-1.8-3.9-2.5-4.9-2.7c-0.8-0.3-1.7-0.5-2.6-0.7c0,0,0,0,0-0.1
	c1.2-3,1.2-6.4,0.1-9.5c-0.3-0.9-0.7-1.7-0.9-2.7c-0.3-1.4-0.2-2.8-0.3-4.2c-0.1-2.5-0.3-5.7-1.5-8c-1-1.8-2.4-3.7-4.6-3.9
	c-0.5-0.1-0.7,0.1-1.2-0.2c-0.5-0.3-1.4-1.1-2.9-1.4c-4.4-0.7-8.2,1.9-10,5.9c-1.4,2.9-1.4,6.2-1.4,9.5c0.1,1.4,0.1,2.7-0.5,3.9
	c-0.8,1.8-2.7,2.7-3.8,4.3c-0.9,1.2-1.2,2.9-1.2,4.4c-0.1,1,0,2,0.3,3c-0.5,0.3-1,0.6-1.5,1l0,0l0,0c-0.1,0.1-0.1,0.1-0.3,0.3l0,0
	c-0.1,0.1-0.1,0.1-0.2,0.2L88,32.6c-0.1,0.1-0.1,0.1-0.1,0.2c0,0.1-0.1,0.1-0.1,0.1c-0.1,0.1-0.1,0.2-0.2,0.3
	c-1.1,1.6-1.6,6.8-1.5,13.2c0.1,6.3-0.1,11.4-0.7,14c-0.6,2.7-2.2,7.5-2.2,11.1c0,0.1,0,0.1,0,0.3v0.1c0,0.1,0,0.2,0,0.3V72
	c0,0.1,0,0.1,0,0.3v0.1c0,0.1,0,0.2,0,0.3v0.1c0,0.1,0,0.2,0,0.3V73c0,0.1,0,0.2,0,0.3s0,0.1,0,0.1c0,0.1,0,0.2,0,0.3l0,0
	c0,0.1,0,0.3,0,0.3V74c0,0.1,0,0.3,0,0.3l0,0c0,0.1,0,0.3,0,0.4l0,0c0,0.3,0,0.5-0.1,0.7v0.1c0,0.4-0.1,0.7-0.1,1.2l0,0
	c0,0.1,0,0.3,0,0.4l0,0c-0.1,3.3-0.3,6.5-0.3,6.5l0,0l-0.1,1.4c0,0-0.6,3.5-0.7,5.1c-0.1,1,0.3,2.7,1,4.1c1.4,2.4,3.3,3.7,3.3,3.7
	c0.3,0.3,2.3,0.5,1.2-0.9c-2.2-2.7-1.9-4-1.9-4s-0.3-2.2,0.3-2.3c0.5-0.1,1.1,1,1.3,1.7c0.4,1,0.7,2.7,1.4,2.3
	c0.3-0.1,0.1-0.5,0.1-1.1c-0.1-0.3,0.1-0.9,0-1.2c-0.1-0.3-0.5-1.8-0.6-2.2c-0.1-0.5-0.8-2.2-1-2.7c-0.3-0.5-0.4-1.4-0.4-2.2
	c0-0.7,1.2-5.1,1.4-5.9c0.2-0.8,4.9-13,4.9-17.9c0-2.5,0.2-6.3,0.3-9.8c0.5,2.5,1,5.3,1.4,6.5c0.5,1.7,0.7,5.7-0.7,8.6
	c-0.1,0.2-0.2,0.3-0.3,0.5c-0.4,0.7-0.8,1.4-1.2,2.2c-3.5,6.8-3.8,12.7-3.8,16.9c0,0.7,0.1,1.4,0.1,2.2l0,0c0-0.1,0-0.2,0-0.3
	c0.2,2.5,0.7,6.1,1.7,12c-0.1-0.4-0.1-0.6-0.1-0.6c0.8,4.8,2,11,3.5,19.8c0.4,2.2,0.5,4.5,0.3,6.8c-0.4,4.2,0.1,10.2,2.7,23.1
	c1,5.3,0.6,8.2-0.3,10l0,0c-1.2,2.5-3.2,2.9-2.5,4.6c1,1.2,6.1,0.8,8.2,0.7c0.6-0.1,1.1-0.1,1.4-0.9c0.3-0.6,0.3-1-0.8-3.5
	c-0.7-1.5-0.6-4-0.6-4s1.6-21.7,1.6-24.8c0-3-0.2-5.2-0.4-6.5c-0.3-1.4-0.3-2.7-0.1-4c0.3-2,0.5-4.8,0.7-7.8c0,0.1,0,0.2,0,0.3
	c1.2-15.6,1.5-25.7,1.5-25.7h1.8l0.1-0.1c0,0,0.6,23.5,2,33.3c0.2,1.3,0.2,2.7,0,4c-0.2,1.4-0.4,3.5-0.4,6.5
	c0,2.9,1.4,23.1,1.4,23.1s0.2,2.3-0.1,4.4c-0.1,0.1-0.1,0.3-0.1,0.4c0,0,0.1-0.3,0.1-0.6c-0.1,0.4-0.1,0.8-0.3,1.2
	c-0.6,1.9-0.9,2.7-0.9,3.3c0.1,0.7,0.6,1.2,1.2,1.2c2.2,0.1,7.8,0.6,8.4-0.7c1.4-2.9-6-2-2.9-14.7c3.1-12.8,3.5-18.9,2.9-23.1
	c-0.3-2.3-0.3-4.6,0.1-6.8c2.8-18.5,5.7-26.7,5.7-33.6c0-5.3-0.4-8.7-1.2-11.5l0,0c-0.1-0.2-0.1-0.4-0.2-0.6l0,0
	c-0.2-0.6-0.4-1-0.6-1.6l0,0c-0.1-0.2-0.1-0.3-0.2-0.5l0,0c-0.1-0.3-0.3-0.7-0.5-1l0,0c-0.1-0.1-0.1-0.3-0.3-0.5c0,0,0,0,0-0.1
	c-0.1-0.1-0.1-0.3-0.3-0.5c0,0,0,0,0-0.1c-0.2-0.3-0.3-0.7-0.5-1c0,0,0,0,0-0.1c-0.1-0.1-0.2-0.3-0.3-0.5v-0.1
	c-0.1-0.1-0.2-0.3-0.3-0.5v-0.1c-0.1-0.2-0.2-0.3-0.3-0.5c-1.3-2.3-1.2-6.5-0.8-9.1c0-0.1,0.1-0.1,0.1-0.3v-0.1
	c0-0.1,0.1-0.1,0.1-0.3V57c0-0.1,0.1-0.1,0.1-0.3V57c0-0.1,0.1-0.2,0.1-0.3v-0.1c0-0.1,0.1-0.2,0.1-0.3c0,0,0,0,0-0.1
	c0-0.1,0.1-0.2,0.1-0.3v-0.1c0-0.1,0.1-0.3,0.1-0.3l0,0c0.1-0.1,0.1-0.3,0.1-0.3v-0.1c0.1-0.1,0.1-0.3,0.1-0.4v-0.1
	c0.1-0.1,0.1-0.3,0.1-0.3v-0.1c0.1-0.1,0.1-0.3,0.1-0.4v-0.1c0.1-0.1,0.1-0.3,0.1-0.4l0,0c0.1-0.1,0.1-0.3,0.1-0.4
	c0-0.1,0-0.1,0-0.1c0.1-0.1,0.1-0.3,0.1-0.4c0,0,0,0,0-0.1c0.1-0.1,0.1-0.3,0.1-0.4c0-0.1,0-0.1,0-0.1c0-0.1,0.1-0.1,0.1-0.2
	c0,0.1,0,0.3,0,0.4c0,0.1,0,0.1,0,0.1c0,0.2,0,0.4,0.1,0.6v0.1c0,0.2,0,0.4,0.1,0.6v0.1c0,0.2,0,0.4,0.1,0.6c0,0.1,0,0.1,0,0.1
	c0,0.2,0,0.4,0.1,0.6V55c0,0.2,0,0.4,0.1,0.6v0.1c0,0.2,0,0.4,0,0.6l0,0c0,0.2,0,0.4,0,0.6v0.1c0,0.2,0,0.4,0,0.6v0.1
	c0,0.2,0,0.4,0,0.5c0,0.1,0,0.1,0,0.1c0,0.2,0,0.3,0,0.5c0,0.1,0,0.1,0,0.1c0,0.2,0,0.3,0,0.5c0,0.1,0,0.1,0,0.1c0,0.1,0,0.3,0,0.5
	c0,0.1,0,0.1,0,0.1c0,0.1,0,0.3,0,0.5v0.1c0,0.1,0,0.3,0,0.4v0.1c0,0.1,0,0.3,0,0.4c0,0.1,0,0.3,0,0.3v0.1c0,0.1,0,0.3,0,0.3v0.1
	c0,0.1,0,0.3,0.1,0.4v0.1c0,0.1,0.1,0.3,0.1,0.4v0.1c0,0.1,0.1,0.3,0.1,0.4c0,0.1,0,0.1,0,0.1c0,0.1,0.1,0.3,0.1,0.4
	c0,0.1,0,0.1,0,0.1c0.1,0.1,0.1,0.3,0.1,0.5l0,0c0.1,0.1,0.1,0.3,0.1,0.5c0,0.1,0,0.1,0,0.1c0.1,0.1,0.1,0.3,0.1,0.5
	c0,0.1,0,0.1,0,0.1c0.1,0.1,0.1,0.3,0.1,0.5v0.1c0.1,0.1,0.1,0.3,0.1,0.5v0.1c0.1,0.1,0.1,0.3,0.1,0.5c0,0.1,0,0.1,0.1,0.1
	c0.1,0.1,0.1,0.3,0.1,0.5c0,0.1,0,0.1,0,0.1c0.1,0.2,0.1,0.3,0.1,0.5c0,0,0,0,0,0.1c0.1,0.2,0.1,0.3,0.1,0.5c0,0.1,0,0.1,0,0.1
	c0.1,0.2,0.1,0.3,0.1,0.5c0,0.1,0,0.1,0.1,0.1c0.1,0.2,0.1,0.3,0.1,0.5c0,0.1,0,0.1,0,0.1c0.1,0.2,0.1,0.3,0.1,0.5v0.1
	c0.1,0.2,0.1,0.3,0.1,0.5c0,0.1,0,0.1,0.1,0.1c0.1,0.1,0.1,0.3,0.1,0.5c0,0.1,0,0.1,0.1,0.1c0.1,0.2,0.1,0.3,0.1,0.5c0,0,0,0,0,0.1
	c0.1,0.1,0.1,0.3,0.1,0.5c0,0.1,0,0.1,0,0.1c0.1,0.1,0.1,0.3,0.1,0.5c0,0.1,0,0.1,0.1,0.1c0.1,0.1,0.1,0.3,0.1,0.5v0.1
	c0.1,0.1,0.1,0.3,0.1,0.5c0,0,0,0,0,0.1c0.1,0.1,0.1,0.3,0.1,0.4c0,0.1,0,0.1,0.1,0.1c0.1,0.1,0.1,0.3,0.1,0.4c0,0.1,0,0.1,0.1,0.1
	c0.1,0.1,0.1,0.3,0.1,0.4v0.1c0.1,0.1,0.1,0.3,0.1,0.4v0.1c0.1,0.1,0.1,0.3,0.1,0.4c0,0.1,0,0.1,0.1,0.1c0.1,0.1,0.1,0.3,0.1,0.3
	v0.1c0.1,0.1,0.1,0.3,0.1,0.3l0,0c0.4,1,0.7,2.2,1,3.3l0,0c0.1,0.2,0.1,0.4,0.1,0.6c0,0.1,0,0.1,0,0.1c0.1,0.1,0.1,0.3,0.1,0.5
	c0,0.1,0.1,0.1,0.1,0.1c0.1,0.1,0.1,0.3,0.1,0.4c0,0.1,0,0.1,0.1,0.1c0.1,0.1,0.1,0.3,0.1,0.5c0,0,0,0,0,0.1l0.2,0.9
	c0.1,0.6,0.3,1.1,0.3,1.5c0.2,1.1-0.3,1.7-0.4,2.2c-0.1,0.5-0.9,2.2-1,2.7c-0.1,0.5-0.6,1.9-0.6,2.2c-0.1,0.3,0.1,0.9,0,1.2
	c-0.1,0.7-0.2,1,0.1,1.1c0.7,0.4,0.9-1.3,1.4-2.3c0.3-0.6,0.8-1.7,1.3-1.7c0.6,0.1,0.3,2.3,0.3,2.3s0.3,1.2-1.9,4
	c-1.1,1.4,0.8,1.2,1.2,0.9c0,0,2-1.2,3.3-3.7C131,92.7,131.3,91,131.3,90z"/>
<g class="st4">
	<path class="st5" d="M9.6,183.4c0,0.5-0.1,0.9-0.2,1.2c-0.1,0.2-0.5,0.4-1,0.4H1.3c-0.5-0.4-0.8-0.8-0.8-1.1c0-0.7,0.2-1.3,0.7-2
		c0.5-0.7,1.2-1.5,2.2-2.3l2.1-1.8c0.7-0.6,1.1-1.1,1.5-1.6c0.3-0.5,0.5-1.2,0.5-1.9c0-0.7-0.2-1.3-0.7-1.8c-0.5-0.5-1-0.7-1.7-0.7
		s-1.3,0.2-1.8,0.6c-0.5,0.4-1,0.9-1.3,1.6c-0.6-0.1-1-0.3-1.2-0.6c0.2-0.4,0.4-0.8,0.7-1.2c0.3-0.4,0.6-0.7,1-1
		c0.4-0.3,0.8-0.5,1.3-0.6c0.5-0.1,1-0.2,1.6-0.2c0.6,0,1.1,0.1,1.6,0.3c0.5,0.2,0.9,0.5,1.3,0.8c0.4,0.4,0.6,0.8,0.8,1.3
		c0.2,0.5,0.3,1,0.3,1.6c0,0.6-0.1,1.1-0.2,1.5c-0.1,0.4-0.3,0.8-0.6,1.2c-0.3,0.4-0.6,0.7-0.9,1.1c-0.3,0.3-0.7,0.7-1.1,1.1
		l-1.8,1.5c-1.5,1.3-2.3,2.3-2.4,3c0.4,0,0.8-0.1,1.3-0.1c0.4,0,0.9,0,1.4,0H9.6z"/>
	<path class="st5" d="M12.7,170.4h8.7c0.2,0.4,0.3,0.7,0.3,1c0,0.3-0.1,0.6-0.3,0.9l-0.7,1c-1.3,1.9-2.2,3.6-2.9,5.3
		c-0.7,1.6-1.1,3.5-1.3,5.7l-0.1,0.7c-0.2,0.1-0.5,0.1-0.9,0.1c-0.4,0-0.7,0-0.9-0.1l0.1-0.9c0.4-3.6,1.7-7,3.9-10.3l0.2-0.3
		c0.2-0.3,0.6-0.8,1.2-1.6l-0.1-0.1c-0.4,0.1-1.6,0.2-3.6,0.2h-3.7c0-0.2-0.1-0.4-0.1-0.7C12.5,171,12.6,170.7,12.7,170.4z"/>
	<path class="st5" d="M24.5,184.9c-0.1-0.2-0.2-0.5-0.2-1c0-0.3,0-0.6,0.1-0.7c0.1-0.2,0.2-0.3,0.3-0.4c0.1-0.1,0.3-0.1,0.4-0.1
		c0.2,0,0.3,0,0.5,0c0.2,0,0.4,0,0.5,0c0.2,0,0.3,0.1,0.4,0.1c0.1,0.1,0.2,0.2,0.3,0.4c0.1,0.2,0.1,0.4,0.1,0.7c0,0.3,0,0.5-0.1,0.7
		c0,0.2-0.1,0.3-0.2,0.4c-0.1,0.1-0.2,0.1-0.4,0.1c-0.2,0-0.4,0-0.6,0C25.2,185.1,24.8,185,24.5,184.9z"/>
	<path class="st5" d="M34.2,183.5l0-1.4v-6.3c0,0,0-0.9,0.1-2.8c-0.8,1.1-2,2-3.4,2.6c-0.4-0.3-0.6-0.6-0.7-1c1-0.6,1.9-1.3,2.6-2.1
		c0.7-0.8,1.2-1.5,1.5-2.1c0.2-0.1,0.5-0.1,0.8-0.1c0.3,0,0.6,0,0.8,0.1v11.7l0,1.4l1.2,0h1.7c0,0.2,0.1,0.5,0.1,0.7
		c0,0.2,0,0.5-0.1,0.7h-7.9c0-0.2-0.1-0.5-0.1-0.7c0-0.2,0-0.5,0.1-0.7H33L34.2,183.5z"/>
	<path class="st5" d="M48.2,170.3c0.7,0.7,1.1,1.9,1.1,3.5c0,1.5-0.3,2.6-0.9,3.4c-0.6,0.7-1.4,1.1-2.5,1.1c-1,0-1.8-0.4-2.4-1.1
		c-0.6-0.7-0.9-1.8-0.9-3.4c0-1.5,0.3-2.6,0.9-3.3c0.6-0.7,1.4-1.1,2.5-1.1C46.9,169.4,47.6,169.7,48.2,170.3z M46,184.9l8.4-15.3
		c0.2-0.1,0.5-0.1,0.8-0.1c0.2,0,0.3,0,0.5,0c0.1,0,0.3,0,0.4,0.1l-8.4,15.3c-0.1,0-0.2,0.1-0.4,0.1c-0.1,0-0.3,0-0.5,0
		c-0.2,0-0.3,0-0.5,0C46.2,185,46.1,185,46,184.9z M45.9,170.6c-1.2,0-1.8,1.1-1.8,3.3c0,2.2,0.6,3.2,1.8,3.2c1.2,0,1.8-1.1,1.8-3.2
		C47.7,171.6,47.1,170.6,45.9,170.6z M58.5,184.3c-0.6,0.6-1.4,0.9-2.3,0.9c-1,0-1.9-0.4-2.5-1.1c-0.6-0.7-0.9-1.8-0.9-3.4
		c0-1.5,0.3-2.6,0.9-3.3s1.4-1.1,2.5-1.1s1.9,0.4,2.5,1.1c0.6,0.7,0.9,1.8,0.9,3.3C59.6,182.4,59.2,183.6,58.5,184.3z M56.2,177.5
		c-1.2,0-1.8,1.1-1.8,3.3c0,2.2,0.6,3.2,1.8,3.2c1.2,0,1.8-1.1,1.8-3.2C58,178.6,57.4,177.5,56.2,177.5z"/>
	<path class="st5" d="M2.9,195.1l0.4,0.9c0.2,0.4,0.3,0.6,0.5,0.7c-0.1,0.1-0.3,0.2-0.4,0.2s-0.3,0-0.4-0.1
		c-0.1-0.1-0.2-0.2-0.2-0.4l-0.5-1c-0.1-0.3-0.3-0.5-0.4-0.6c-0.1-0.1-0.3-0.1-0.5-0.1c-0.2,0-0.4,0-0.6,0v2.2c-0.1,0-0.2,0-0.4,0
		s-0.3,0-0.4,0v-7.3l0.1-0.1h0.3c0.2,0,0.3,0,0.3,0.1c0.1,0.1,0.1,0.2,0.1,0.4v4l0.4,0c0.1,0,0.2,0,0.2-0.1l1.1-1.6
		c0.1-0.1,0.2-0.2,0.2-0.3c0.1-0.1,0.2-0.1,0.3-0.1c0.1,0,0.2,0,0.4,0l0.1,0.1l-1.3,1.8c-0.1,0.1-0.2,0.2-0.2,0.3
		c0.2,0,0.4,0.1,0.6,0.3C2.6,194.6,2.8,194.8,2.9,195.1z"/>
	<path class="st5" d="M4.6,192.3c0-0.2,0.2-0.3,0.3-0.4c0.4,0.1,0.6,0.4,0.7,0.9c0.3-0.6,0.7-0.9,1.3-0.9c0.1,0,0.3,0,0.5,0
		c0,0.3-0.1,0.5-0.2,0.7c-0.1,0-0.2,0-0.3,0c-0.5,0-0.9,0.3-1.2,0.9v3.3c-0.1,0-0.2,0-0.4,0c-0.1,0-0.3,0-0.4,0v-3.5
		C5,192.9,4.8,192.5,4.6,192.3z"/>
	<path class="st5" d="M8.4,190.3c0.1-0.1,0.3-0.1,0.5-0.1c0.2,0,0.3,0,0.4,0.1c0.1,0.1,0.1,0.2,0.1,0.4c0,0.2,0,0.3-0.1,0.4
		c-0.1,0.1-0.2,0.1-0.4,0.1c-0.2,0-0.3,0-0.4-0.1c-0.1,0-0.1-0.2-0.1-0.4C8.3,190.5,8.3,190.4,8.4,190.3z M9.4,192.7v4.2
		c-0.1,0-0.2,0-0.4,0c-0.1,0-0.3,0-0.4,0V193c0-0.2,0-0.3-0.1-0.4c-0.1-0.1-0.2-0.1-0.3-0.1H8.1c0-0.1,0-0.2,0-0.3
		c0-0.1,0-0.2,0-0.3c0.1,0,0.2,0,0.3,0c0.1,0,0.1,0,0.2,0h0.1c0.2,0,0.4,0.1,0.5,0.2C9.3,192.3,9.4,192.4,9.4,192.7z"/>
	<path class="st5" d="M13.2,192c0,0.1,0,0.2,0,0.3c0,0.1,0,0.2,0,0.3l-1.3,0v3.3c0,0.3,0.1,0.4,0.4,0.4h0.8c0,0.1,0.1,0.2,0.1,0.3
		c0,0.1,0,0.2,0,0.2c-0.3,0-0.6,0.1-0.9,0.1c-0.6,0-1-0.3-1-0.8v-3.5l-0.7,0c0-0.1,0-0.2,0-0.3c0-0.1,0-0.2,0-0.3l0.7,0v-1
		c0-0.2,0-0.3,0.1-0.4c0.1-0.1,0.2-0.1,0.3-0.1h0.3l0.1,0.1v1.5L13.2,192z"/>
	<path class="st5" d="M14.4,190.3c0.1-0.1,0.3-0.1,0.5-0.1c0.2,0,0.3,0,0.4,0.1c0.1,0.1,0.1,0.2,0.1,0.4c0,0.2,0,0.3-0.1,0.4
		c-0.1,0.1-0.2,0.1-0.4,0.1c-0.2,0-0.3,0-0.4-0.1s-0.1-0.2-0.1-0.4C14.3,190.5,14.3,190.4,14.4,190.3z M15.3,192.7v4.2
		c-0.1,0-0.2,0-0.4,0c-0.1,0-0.3,0-0.4,0V193c0-0.2,0-0.3-0.1-0.4c-0.1-0.1-0.2-0.1-0.3-0.1h-0.1c0-0.1,0-0.2,0-0.3
		c0-0.1,0-0.2,0-0.3c0.1,0,0.2,0,0.3,0c0.1,0,0.1,0,0.2,0h0.1c0.2,0,0.4,0.1,0.5,0.2C15.3,192.3,15.3,192.4,15.3,192.7z"/>
	<path class="st5" d="M16.5,196.5c0-0.2,0.1-0.4,0.3-0.5c0.3,0.2,0.6,0.3,0.8,0.4c0.2,0.1,0.5,0.1,0.6,0.1c0.2,0,0.3,0,0.4-0.1
		s0.2-0.1,0.3-0.2c0.1-0.1,0.2-0.1,0.2-0.2c0-0.1,0.1-0.2,0.1-0.3c0-0.2-0.1-0.4-0.2-0.5c-0.1-0.1-0.3-0.3-0.5-0.3l-0.6-0.2
		c-0.4-0.2-0.7-0.4-1-0.6s-0.3-0.5-0.3-0.8c0-0.2,0-0.4,0.1-0.6c0.1-0.2,0.2-0.3,0.4-0.4c0.2-0.1,0.3-0.2,0.5-0.3
		c0.2-0.1,0.4-0.1,0.7-0.1c0.5,0,1,0.1,1.5,0.3c0,0.2-0.1,0.4-0.2,0.6c-0.3-0.1-0.5-0.2-0.7-0.2s-0.4-0.1-0.6-0.1
		c-0.3,0-0.5,0.1-0.7,0.2c-0.2,0.1-0.2,0.3-0.2,0.5c0,0.2,0.1,0.3,0.2,0.5c0.1,0.1,0.3,0.2,0.6,0.3l0.6,0.2c0.8,0.3,1.2,0.8,1.2,1.4
		c0,0.4-0.2,0.8-0.5,1c-0.3,0.2-0.8,0.4-1.4,0.4C17.6,197,17.1,196.8,16.5,196.5z"/>
	<path class="st5" d="M24,193.7v-0.1c0-0.1,0-0.3-0.1-0.4c0-0.1-0.1-0.3-0.2-0.4c-0.1-0.1-0.2-0.2-0.3-0.3c-0.1-0.1-0.3-0.1-0.5-0.1
		c-0.4,0-0.7,0.2-0.9,0.5c-0.2,0.3-0.3,0.8-0.3,1.5c0,0.6,0.1,1.1,0.3,1.4c0.2,0.3,0.5,0.5,0.9,0.5c0.4,0,0.8-0.2,1.3-0.6
		c0.2,0.1,0.3,0.3,0.3,0.5c-0.5,0.5-1.1,0.7-1.7,0.7c-0.3,0-0.6-0.1-0.8-0.2c-0.2-0.1-0.4-0.3-0.6-0.5c-0.2-0.2-0.3-0.5-0.4-0.8
		c-0.1-0.3-0.1-0.6-0.1-0.9c0-0.5,0.1-0.9,0.2-1.2s0.2-0.6,0.4-0.8c0.2-0.2,0.4-0.4,0.6-0.5c0.2-0.1,0.5-0.2,0.8-0.2
		c0.3,0,0.5,0,0.7,0.1c0.2,0.1,0.4,0.2,0.5,0.3c0.1,0.1,0.3,0.3,0.3,0.5c0.1,0.2,0.1,0.3,0.1,0.5c0,0.3-0.1,0.5-0.4,0.5
		C24.3,193.7,24.1,193.7,24,193.7z"/>
	<path class="st5" d="M29.7,193.5v2.5c0,0.4,0,0.7,0.1,0.8c-0.1,0.1-0.3,0.2-0.5,0.2c-0.3,0-0.4-0.2-0.4-0.5v-2.7
		c0-0.4-0.1-0.7-0.2-0.9c-0.1-0.2-0.3-0.3-0.6-0.3c-0.3,0-0.5,0.1-0.8,0.2c-0.3,0.1-0.5,0.3-0.7,0.6v3.5c-0.1,0-0.2,0-0.4,0
		c-0.1,0-0.3,0-0.4,0v-7.3l0.1-0.1h0.3c0.2,0,0.3,0,0.3,0.1c0.1,0.1,0.1,0.2,0.1,0.4v2.6c0.2-0.2,0.5-0.4,0.8-0.5
		c0.3-0.1,0.6-0.2,0.9-0.2c0.4,0,0.8,0.1,1,0.4C29.6,192.6,29.7,193,29.7,193.5z"/>
	<path class="st5" d="M34.9,194.6h-3.1c0,1.1,0.5,1.7,1.3,1.7c0.5,0,0.9-0.1,1.4-0.4c0.1,0.1,0.2,0.3,0.3,0.5
		c-0.5,0.4-1.2,0.6-1.8,0.6c-0.3,0-0.6-0.1-0.9-0.2c-0.2-0.1-0.4-0.3-0.6-0.5c-0.2-0.2-0.3-0.5-0.3-0.8c-0.1-0.3-0.1-0.7-0.1-1
		c0-0.4,0-0.7,0.1-1c0.1-0.3,0.2-0.6,0.4-0.8s0.4-0.4,0.6-0.5c0.2-0.1,0.5-0.2,0.8-0.2c0.3,0,0.6,0.1,0.8,0.2
		c0.2,0.1,0.4,0.3,0.6,0.4c0.2,0.2,0.3,0.4,0.4,0.7c0.1,0.3,0.1,0.5,0.1,0.8c0,0.1,0,0.2,0,0.3C35,194.4,35,194.5,34.9,194.6z
		 M31.9,194.1h2.4v-0.1c0-0.5-0.1-0.8-0.3-1.1c-0.2-0.3-0.5-0.4-0.9-0.4c-0.4,0-0.7,0.1-0.9,0.4C32,193.2,31.9,193.6,31.9,194.1z"/>
	<path class="st5" d="M36.2,192.3c0-0.2,0.2-0.3,0.3-0.4c0.4,0.1,0.6,0.4,0.7,0.9c0.3-0.6,0.7-0.9,1.3-0.9c0.1,0,0.3,0,0.5,0
		c0,0.3-0.1,0.5-0.2,0.7c-0.1,0-0.2,0-0.3,0c-0.5,0-0.9,0.3-1.2,0.9v3.3c-0.1,0-0.2,0-0.4,0c-0.1,0-0.3,0-0.4,0v-3.5
		C36.5,192.9,36.4,192.5,36.2,192.3z"/>
	<path class="st5" d="M42.3,196.9L42.3,196.9l-0.1-6.7l0.1-0.1l1.9,0c0.7,0,1.3,0.2,1.6,0.5c0.3,0.3,0.5,0.8,0.5,1.3
		c0,0.3-0.1,0.6-0.3,0.9c-0.2,0.3-0.4,0.4-0.7,0.5c0.2,0.1,0.3,0.1,0.5,0.2c0.2,0.1,0.3,0.2,0.4,0.4c0.1,0.2,0.2,0.3,0.3,0.5
		c0.1,0.2,0.1,0.4,0.1,0.7c0,0.2,0,0.5-0.1,0.7c-0.1,0.2-0.2,0.4-0.4,0.6c-0.2,0.2-0.4,0.3-0.7,0.4c-0.3,0.1-0.6,0.2-1,0.2
		L42.3,196.9z M43,190.6v2.3h1.2c0.2,0,0.5,0,0.6-0.1c0.2-0.1,0.3-0.1,0.4-0.2c0.1-0.1,0.2-0.2,0.2-0.4c0-0.1,0.1-0.3,0.1-0.4
		c0-0.8-0.4-1.1-1.3-1.1c-0.3,0-0.6,0-0.8,0S43.1,190.7,43,190.6z M43,196.3l1.4,0c0.3,0,0.5,0,0.7-0.1c0.2-0.1,0.3-0.2,0.4-0.3
		c0.1-0.1,0.2-0.3,0.2-0.4c0-0.2,0.1-0.3,0.1-0.5c0-0.1,0-0.3-0.1-0.5c-0.1-0.2-0.1-0.3-0.3-0.4c-0.1-0.1-0.3-0.2-0.5-0.3
		c-0.2-0.1-0.4-0.1-0.7-0.1H43V196.3z"/>
	<path class="st5" d="M51.6,194.6h-3.1c0,1.1,0.5,1.7,1.3,1.7c0.5,0,0.9-0.1,1.4-0.4c0.1,0.1,0.2,0.3,0.3,0.5
		c-0.5,0.4-1.2,0.6-1.8,0.6c-0.3,0-0.6-0.1-0.9-0.2c-0.2-0.1-0.4-0.3-0.6-0.5c-0.2-0.2-0.3-0.5-0.3-0.8s-0.1-0.7-0.1-1
		c0-0.4,0-0.7,0.1-1c0.1-0.3,0.2-0.6,0.4-0.8s0.4-0.4,0.6-0.5c0.2-0.1,0.5-0.2,0.8-0.2c0.3,0,0.6,0.1,0.8,0.2
		c0.2,0.1,0.4,0.3,0.6,0.4c0.2,0.2,0.3,0.4,0.4,0.7c0.1,0.3,0.1,0.5,0.1,0.8c0,0.1,0,0.2,0,0.3C51.6,194.4,51.6,194.5,51.6,194.6z
		 M48.5,194.1h2.4v-0.1c0-0.5-0.1-0.8-0.3-1.1c-0.2-0.3-0.5-0.4-0.9-0.4c-0.4,0-0.7,0.1-0.9,0.4C48.7,193.2,48.6,193.6,48.5,194.1z"
		/>
	<path class="st5" d="M52.8,192.3c0-0.2,0.2-0.3,0.3-0.4c0.4,0.1,0.6,0.4,0.7,0.9c0.3-0.6,0.7-0.9,1.3-0.9c0.1,0,0.3,0,0.5,0
		c0,0.3-0.1,0.5-0.2,0.7c-0.1,0-0.2,0-0.3,0c-0.5,0-0.9,0.3-1.2,0.9v3.3c-0.1,0-0.2,0-0.4,0c-0.1,0-0.3,0-0.4,0v-3.5
		C53.2,192.9,53.1,192.5,52.8,192.3z"/>
	<path class="st5" d="M59.9,194.6h-3.1c0,1.1,0.5,1.7,1.3,1.7c0.5,0,0.9-0.1,1.4-0.4c0.1,0.1,0.2,0.3,0.3,0.5
		c-0.5,0.4-1.2,0.6-1.8,0.6c-0.3,0-0.6-0.1-0.9-0.2c-0.2-0.1-0.4-0.3-0.6-0.5c-0.2-0.2-0.3-0.5-0.3-0.8s-0.1-0.7-0.1-1
		c0-0.4,0-0.7,0.1-1c0.1-0.3,0.2-0.6,0.4-0.8s0.4-0.4,0.6-0.5c0.2-0.1,0.5-0.2,0.8-0.2c0.3,0,0.6,0.1,0.8,0.2
		c0.2,0.1,0.4,0.3,0.6,0.4c0.2,0.2,0.3,0.4,0.4,0.7c0.1,0.3,0.1,0.5,0.1,0.8c0,0.1,0,0.2,0,0.3C59.9,194.4,59.9,194.5,59.9,194.6z
		 M56.8,194.1h2.4v-0.1c0-0.5-0.1-0.8-0.3-1.1c-0.2-0.3-0.5-0.4-0.9-0.4c-0.4,0-0.7,0.1-0.9,0.4C57,193.2,56.9,193.6,56.8,194.1z"/>
	<path class="st5" d="M61.3,190.3c0.1-0.1,0.3-0.1,0.5-0.1c0.2,0,0.3,0,0.4,0.1c0.1,0.1,0.1,0.2,0.1,0.4c0,0.2,0,0.3-0.1,0.4
		c-0.1,0.1-0.2,0.1-0.4,0.1c-0.2,0-0.3,0-0.4-0.1s-0.1-0.2-0.1-0.4C61.2,190.5,61.2,190.4,61.3,190.3z M62.2,192.7v4.2
		c-0.1,0-0.2,0-0.4,0c-0.1,0-0.3,0-0.4,0V193c0-0.2,0-0.3-0.1-0.4c-0.1-0.1-0.2-0.1-0.3-0.1H61c0-0.1,0-0.2,0-0.3c0-0.1,0-0.2,0-0.3
		c0.1,0,0.2,0,0.3,0c0.1,0,0.1,0,0.2,0h0.1c0.2,0,0.4,0.1,0.5,0.2C62.2,192.3,62.2,192.4,62.2,192.7z"/>
	<path class="st5" d="M66.6,193.7v-0.1c0-0.1,0-0.3-0.1-0.4c0-0.1-0.1-0.3-0.2-0.4c-0.1-0.1-0.2-0.2-0.3-0.3
		c-0.1-0.1-0.3-0.1-0.5-0.1c-0.4,0-0.7,0.2-0.9,0.5c-0.2,0.3-0.3,0.8-0.3,1.5c0,0.6,0.1,1.1,0.3,1.4c0.2,0.3,0.5,0.5,0.9,0.5
		c0.4,0,0.8-0.2,1.3-0.6c0.2,0.1,0.3,0.3,0.3,0.5c-0.5,0.5-1.1,0.7-1.7,0.7c-0.3,0-0.6-0.1-0.8-0.2s-0.4-0.3-0.6-0.5
		c-0.2-0.2-0.3-0.5-0.4-0.8c-0.1-0.3-0.1-0.6-0.1-0.9c0-0.5,0.1-0.9,0.2-1.2c0.1-0.3,0.2-0.6,0.4-0.8c0.2-0.2,0.4-0.4,0.6-0.5
		c0.2-0.1,0.5-0.2,0.8-0.2c0.3,0,0.5,0,0.7,0.1c0.2,0.1,0.4,0.2,0.5,0.3c0.1,0.1,0.3,0.3,0.3,0.5c0.1,0.2,0.1,0.3,0.1,0.5
		c0,0.3-0.1,0.5-0.4,0.5C66.8,193.7,66.7,193.7,66.6,193.7z"/>
	<path class="st5" d="M72.3,193.5v2.5c0,0.4,0,0.7,0.1,0.8c-0.1,0.1-0.3,0.2-0.5,0.2c-0.3,0-0.4-0.2-0.4-0.5v-2.7
		c0-0.4-0.1-0.7-0.2-0.9c-0.1-0.2-0.3-0.3-0.6-0.3c-0.3,0-0.5,0.1-0.8,0.2c-0.3,0.1-0.5,0.3-0.7,0.6v3.5c-0.1,0-0.2,0-0.4,0
		c-0.1,0-0.3,0-0.4,0v-7.3l0.1-0.1H69c0.2,0,0.3,0,0.3,0.1c0.1,0.1,0.1,0.2,0.1,0.4v2.6c0.2-0.2,0.5-0.4,0.8-0.5
		c0.3-0.1,0.6-0.2,0.9-0.2c0.4,0,0.8,0.1,1,0.4C72.2,192.6,72.3,193,72.3,193.5z"/>
</g>
<g class="st4">
	<path class="st6" d="M103.5,180.9l0,1v2.4c-0.3,0-0.5,0.1-0.8,0.1c-0.3,0-0.6,0-0.8-0.1v-2.4l0-1l-0.9,0h-4.4
		c-0.3-0.5-0.4-0.8-0.4-1c0-0.2,0.2-0.6,0.5-1.4l3.9-8.9c0.2-0.1,0.5-0.1,0.8,0c0.3,0.1,0.6,0.1,0.8,0.3l-3.2,7.3
		c-0.6,1.2-0.9,2-1.1,2.3l0,0.1c0.8,0,1.6-0.1,2.3-0.1h1.6l0-0.9v-2.3c0-0.8,0.4-1.2,1.1-1.2h0.5l0.1,0.1v3.4l0,0.9l0.9,0h1.5
		c0,0.2,0,0.4,0,0.7c0,0.3,0,0.5-0.1,0.8h-1.4L103.5,180.9z"/>
	<path class="st6" d="M109.9,183.3l-0.3-0.4c-0.2-0.2-0.3-0.5-0.5-0.9c-0.2-0.4-0.3-0.8-0.4-1.4c-0.1-0.5-0.2-1.1-0.3-1.7
		c-0.1-0.6-0.1-1.3-0.1-2c0-1.1,0.1-2.2,0.4-3.1c0.2-0.9,0.6-1.7,1.1-2.3c0.5-0.6,1.1-1.1,1.7-1.5c0.7-0.3,1.5-0.5,2.4-0.5
		c1.3,0,2.3,0.2,3,0.7c-0.1,0.6-0.3,1-0.7,1.2c-0.8-0.3-1.5-0.5-2.3-0.5c-0.7,0-1.2,0.1-1.7,0.4c-0.5,0.3-0.9,0.6-1.2,1.1
		c-0.3,0.5-0.5,1-0.7,1.6c-0.2,0.6-0.2,1.3-0.3,2.1c1-1,2.1-1.5,3.4-1.5c1.3,0,2.3,0.4,3.1,1.2c0.7,0.8,1.1,2,1.1,3.5
		c0,0.7-0.1,1.4-0.3,2.1c-0.2,0.6-0.5,1.2-0.9,1.6c-0.4,0.5-0.9,0.8-1.4,1.1c-0.6,0.3-1.2,0.4-1.8,0.4
		C111.7,184.6,110.7,184.1,109.9,183.3z M113.1,176.1c-0.5,0-1.1,0.1-1.6,0.4c-0.6,0.3-1.1,0.7-1.5,1.2v0.4c0,0.8,0.1,1.5,0.2,2.1
		c0.1,0.6,0.3,1.2,0.6,1.6c0.3,0.4,0.6,0.8,1,1c0.4,0.2,0.8,0.4,1.4,0.4c0.8,0,1.5-0.3,2-1c0.5-0.6,0.7-1.5,0.7-2.6
		C115.9,177.3,114.9,176.1,113.1,176.1z"/>
	<path class="st6" d="M120.4,184.2c-0.1-0.2-0.2-0.5-0.2-1c0-0.3,0-0.6,0.1-0.7c0.1-0.2,0.2-0.3,0.3-0.4c0.1-0.1,0.3-0.1,0.4-0.1
		s0.3,0,0.5,0c0.2,0,0.4,0,0.5,0c0.2,0,0.3,0.1,0.4,0.1c0.1,0.1,0.2,0.2,0.3,0.4c0.1,0.2,0.1,0.4,0.1,0.7c0,0.3,0,0.5-0.1,0.7
		c0,0.2-0.1,0.3-0.2,0.4c-0.1,0.1-0.2,0.1-0.4,0.1c-0.2,0-0.4,0-0.6,0C121.1,184.4,120.7,184.4,120.4,184.2z"/>
	<path class="st6" d="M132.8,180.9l0,1v2.4c-0.3,0-0.5,0.1-0.8,0.1s-0.6,0-0.8-0.1v-2.4l0-1l-0.9,0h-4.4c-0.3-0.5-0.4-0.8-0.4-1
		c0-0.2,0.2-0.6,0.5-1.4l3.9-8.9c0.2-0.1,0.5-0.1,0.8,0c0.3,0.1,0.6,0.1,0.8,0.3l-3.2,7.3c-0.6,1.2-0.9,2-1.1,2.3l0,0.1
		c0.8,0,1.6-0.1,2.3-0.1h1.6l0-0.9v-2.3c0-0.8,0.4-1.2,1.1-1.2h0.5l0.1,0.1v3.4l0,0.9l0.9,0h1.5c0,0.2,0,0.4,0,0.7
		c0,0.3,0,0.5-0.1,0.8h-1.4L132.8,180.9z"/>
	<path class="st6" d="M144.1,169.6c0.7,0.7,1.1,1.9,1.1,3.5c0,1.5-0.3,2.6-0.9,3.4c-0.6,0.7-1.4,1.1-2.5,1.1c-1,0-1.8-0.4-2.4-1.1
		s-0.9-1.8-0.9-3.4c0-1.5,0.3-2.6,0.9-3.3c0.6-0.7,1.4-1.1,2.5-1.1C142.8,168.7,143.6,169,144.1,169.6z M141.9,184.3l8.4-15.3
		c0.2-0.1,0.5-0.1,0.8-0.1c0.2,0,0.3,0,0.5,0c0.1,0,0.3,0,0.4,0.1l-8.4,15.3c-0.1,0-0.2,0.1-0.4,0.1c-0.1,0-0.3,0-0.5,0
		c-0.2,0-0.3,0-0.5,0C142.2,184.4,142,184.3,141.9,184.3z M141.8,169.9c-1.2,0-1.8,1.1-1.8,3.3c0,2.2,0.6,3.2,1.8,3.2
		c1.2,0,1.8-1.1,1.8-3.2C143.6,171,143,169.9,141.8,169.9z M154.5,183.7c-0.6,0.6-1.4,0.9-2.3,0.9c-1,0-1.9-0.4-2.5-1.1
		c-0.6-0.7-0.9-1.8-0.9-3.4c0-1.5,0.3-2.6,0.9-3.3c0.6-0.7,1.4-1.1,2.5-1.1s1.9,0.4,2.5,1.1c0.6,0.7,0.9,1.8,0.9,3.3
		C155.5,181.7,155.2,182.9,154.5,183.7z M152.1,176.9c-1.2,0-1.8,1.1-1.8,3.3c0,2.2,0.6,3.2,1.8,3.2c1.2,0,1.8-1.1,1.8-3.2
		C154,177.9,153.4,176.9,152.1,176.9z"/>
	<path class="st6" d="M95.4,195.8c0-0.2,0.1-0.4,0.3-0.5c0.3,0.2,0.6,0.3,0.8,0.4c0.2,0.1,0.5,0.1,0.6,0.1c0.2,0,0.3,0,0.4-0.1
		c0.1,0,0.2-0.1,0.3-0.2c0.1-0.1,0.2-0.1,0.2-0.2c0-0.1,0.1-0.2,0.1-0.3c0-0.2-0.1-0.4-0.2-0.5s-0.3-0.3-0.5-0.3l-0.6-0.2
		c-0.4-0.2-0.7-0.4-1-0.6c-0.2-0.2-0.3-0.5-0.3-0.8c0-0.2,0-0.4,0.1-0.6c0.1-0.2,0.2-0.3,0.4-0.4c0.2-0.1,0.3-0.2,0.5-0.3
		c0.2-0.1,0.4-0.1,0.7-0.1c0.5,0,1,0.1,1.5,0.3c0,0.2-0.1,0.4-0.2,0.6c-0.3-0.1-0.5-0.2-0.7-0.2c-0.2,0-0.4-0.1-0.6-0.1
		c-0.3,0-0.5,0.1-0.7,0.2c-0.2,0.1-0.2,0.3-0.2,0.5c0,0.2,0.1,0.3,0.2,0.5c0.1,0.1,0.3,0.2,0.6,0.3l0.6,0.2c0.8,0.3,1.2,0.8,1.2,1.4
		c0,0.4-0.2,0.8-0.5,1s-0.8,0.4-1.4,0.4C96.5,196.3,96,196.2,95.4,195.8z"/>
	<path class="st6" d="M103.8,194h-3.1c0,1.1,0.5,1.7,1.3,1.7c0.5,0,0.9-0.1,1.4-0.4c0.1,0.1,0.2,0.3,0.3,0.5
		c-0.5,0.4-1.2,0.6-1.8,0.6c-0.3,0-0.6-0.1-0.9-0.2c-0.2-0.1-0.4-0.3-0.6-0.5c-0.2-0.2-0.3-0.5-0.3-0.8c-0.1-0.3-0.1-0.7-0.1-1
		c0-0.4,0-0.7,0.1-1c0.1-0.3,0.2-0.6,0.4-0.8c0.2-0.2,0.4-0.4,0.6-0.5c0.2-0.1,0.5-0.2,0.8-0.2c0.3,0,0.6,0.1,0.8,0.2
		c0.2,0.1,0.4,0.3,0.6,0.4c0.2,0.2,0.3,0.4,0.4,0.7c0.1,0.3,0.1,0.5,0.1,0.8c0,0.1,0,0.2,0,0.3C103.8,193.8,103.8,193.9,103.8,194z
		 M100.7,193.4h2.4v-0.1c0-0.5-0.1-0.8-0.3-1.1c-0.2-0.3-0.5-0.4-0.9-0.4c-0.4,0-0.7,0.1-0.9,0.4
		C100.8,192.5,100.7,192.9,100.7,193.4z"/>
	<path class="st6" d="M109,192.8v2.5c0,0.4,0,0.7,0.1,0.8c-0.1,0.1-0.3,0.2-0.5,0.2c-0.3,0-0.4-0.2-0.4-0.5V193c0-0.4,0-0.7-0.1-0.9
		c-0.1-0.2-0.3-0.3-0.6-0.3c-0.3,0-0.5,0.1-0.8,0.2c-0.3,0.1-0.5,0.3-0.7,0.6v3.5c-0.1,0-0.2,0-0.4,0c-0.1,0-0.3,0-0.4,0v-4.9
		l0.1-0.1h0.3c0.2,0,0.3,0,0.3,0.1c0.1,0.1,0.1,0.2,0.1,0.4v0.1c0.2-0.2,0.5-0.4,0.8-0.5c0.3-0.1,0.6-0.2,0.9-0.2
		c0.4,0,0.8,0.1,1,0.4C108.9,192,109,192.3,109,192.8z"/>
	<path class="st6" d="M110.2,195.8c0-0.2,0.1-0.4,0.3-0.5c0.3,0.2,0.6,0.3,0.8,0.4c0.2,0.1,0.5,0.1,0.6,0.1c0.2,0,0.3,0,0.4-0.1
		c0.1,0,0.2-0.1,0.3-0.2c0.1-0.1,0.2-0.1,0.2-0.2c0-0.1,0.1-0.2,0.1-0.3c0-0.2-0.1-0.4-0.2-0.5s-0.3-0.3-0.5-0.3l-0.6-0.2
		c-0.4-0.2-0.7-0.4-1-0.6c-0.2-0.2-0.3-0.5-0.3-0.8c0-0.2,0-0.4,0.1-0.6c0.1-0.2,0.2-0.3,0.4-0.4c0.2-0.1,0.3-0.2,0.5-0.3
		c0.2-0.1,0.4-0.1,0.7-0.1c0.5,0,1,0.1,1.5,0.3c0,0.2-0.1,0.4-0.2,0.6c-0.3-0.1-0.5-0.2-0.7-0.2c-0.2,0-0.4-0.1-0.6-0.1
		c-0.3,0-0.5,0.1-0.7,0.2c-0.2,0.1-0.2,0.3-0.2,0.5c0,0.2,0.1,0.3,0.2,0.5c0.1,0.1,0.3,0.2,0.6,0.3l0.6,0.2c0.8,0.3,1.2,0.8,1.2,1.4
		c0,0.4-0.2,0.8-0.5,1c-0.3,0.2-0.8,0.4-1.4,0.4C111.2,196.3,110.7,196.2,110.2,195.8z"/>
	<path class="st6" d="M114.8,189.6c0.1-0.1,0.3-0.1,0.5-0.1c0.2,0,0.3,0,0.4,0.1c0.1,0.1,0.1,0.2,0.1,0.4s0,0.3-0.1,0.4
		c-0.1,0.1-0.2,0.1-0.4,0.1c-0.2,0-0.3,0-0.4-0.1c-0.1-0.1-0.1-0.2-0.1-0.4C114.8,189.9,114.8,189.7,114.8,189.6z M115.8,192v4.2
		c-0.1,0-0.2,0-0.4,0s-0.3,0-0.4,0v-3.8c0-0.2,0-0.3-0.1-0.4s-0.2-0.1-0.3-0.1h-0.1c0-0.1,0-0.2,0-0.3c0-0.1,0-0.2,0-0.3
		c0.1,0,0.2,0,0.3,0c0.1,0,0.1,0,0.2,0h0.1c0.2,0,0.4,0.1,0.5,0.2C115.8,191.6,115.8,191.8,115.8,192z"/>
	<path class="st6" d="M117.5,196v-7l0.1-0.1h0.3c0.2,0,0.3,0,0.3,0.1c0.1,0.1,0.1,0.2,0.1,0.4v2.5c0.4-0.4,0.9-0.6,1.4-0.6
		c0.5,0,1,0.2,1.2,0.7c0.3,0.4,0.4,1.1,0.4,1.9c0,0.4-0.1,0.8-0.2,1.1c-0.1,0.3-0.3,0.6-0.5,0.8c-0.2,0.2-0.4,0.4-0.7,0.5
		c-0.3,0.1-0.5,0.2-0.8,0.2C118.7,196.3,118.1,196.2,117.5,196z M118.3,192.6v3c0.3,0.1,0.6,0.2,1,0.2c0.4,0,0.7-0.2,1-0.5
		c0.3-0.3,0.4-0.8,0.4-1.5c0-0.3,0-0.6-0.1-0.8c-0.1-0.2-0.1-0.4-0.2-0.6c-0.1-0.2-0.2-0.3-0.3-0.3c-0.1-0.1-0.2-0.1-0.4-0.1
		c-0.3,0-0.5,0.1-0.8,0.2C118.6,192.2,118.4,192.4,118.3,192.6z"/>
	<path class="st6" d="M123.8,195.6h0.4c0,0.1,0,0.1,0.1,0.2c0,0.1,0,0.1,0,0.2c0,0,0,0.1,0,0.1c0,0,0,0,0,0.1c-0.1,0-0.2,0-0.3,0.1
		c-0.1,0-0.2,0-0.3,0c-0.3,0-0.5-0.1-0.7-0.2c-0.2-0.1-0.3-0.3-0.3-0.7V189l0.1-0.1h0.3c0.2,0,0.3,0,0.3,0.1
		c0.1,0.1,0.1,0.2,0.1,0.4v5.8C123.5,195.5,123.6,195.6,123.8,195.6z"/>
	<path class="st6" d="M129,194h-3.1c0,1.1,0.5,1.7,1.3,1.7c0.5,0,0.9-0.1,1.4-0.4c0.1,0.1,0.2,0.3,0.3,0.5c-0.5,0.4-1.2,0.6-1.8,0.6
		c-0.3,0-0.6-0.1-0.9-0.2c-0.2-0.1-0.4-0.3-0.6-0.5c-0.2-0.2-0.3-0.5-0.3-0.8c-0.1-0.3-0.1-0.7-0.1-1c0-0.4,0-0.7,0.1-1
		c0.1-0.3,0.2-0.6,0.4-0.8c0.2-0.2,0.4-0.4,0.6-0.5c0.2-0.1,0.5-0.2,0.8-0.2c0.3,0,0.6,0.1,0.8,0.2c0.2,0.1,0.4,0.3,0.6,0.4
		c0.2,0.2,0.3,0.4,0.4,0.7c0.1,0.3,0.1,0.5,0.1,0.8c0,0.1,0,0.2,0,0.3C129,193.8,129,193.9,129,194z M125.9,193.4h2.4v-0.1
		c0-0.5-0.1-0.8-0.3-1.1c-0.2-0.3-0.5-0.4-0.9-0.4c-0.4,0-0.7,0.1-0.9,0.4C126,192.5,125.9,192.9,125.9,193.4z"/>
	<path class="st6" d="M130.2,191.7c0-0.2,0.2-0.3,0.3-0.4c0.4,0.1,0.6,0.4,0.7,0.9c0.3-0.6,0.7-0.9,1.3-0.9c0.1,0,0.3,0,0.5,0
		c0,0.3-0.1,0.5-0.2,0.7c-0.1,0-0.2,0-0.3,0c-0.5,0-0.9,0.3-1.2,0.9v3.3c-0.1,0-0.2,0-0.4,0c-0.1,0-0.3,0-0.4,0v-3.5
		C130.6,192.2,130.4,191.9,130.2,191.7z"/>
	<path class="st6" d="M136.3,196.2L136.3,196.2l-0.1-6.7l0.1-0.1l1.9,0c0.7,0,1.3,0.2,1.6,0.5c0.3,0.3,0.5,0.8,0.5,1.3
		c0,0.3-0.1,0.6-0.3,0.9c-0.2,0.3-0.4,0.4-0.7,0.5c0.2,0.1,0.3,0.1,0.5,0.2c0.2,0.1,0.3,0.2,0.4,0.4c0.1,0.2,0.2,0.3,0.3,0.5
		c0.1,0.2,0.1,0.4,0.1,0.7c0,0.2,0,0.5-0.1,0.7c-0.1,0.2-0.2,0.4-0.4,0.6c-0.2,0.2-0.4,0.3-0.7,0.4c-0.3,0.1-0.6,0.2-1,0.2
		L136.3,196.2z M137,190v2.3h1.2c0.2,0,0.5,0,0.6-0.1c0.2-0.1,0.3-0.1,0.4-0.2c0.1-0.1,0.2-0.2,0.2-0.4s0.1-0.3,0.1-0.4
		c0-0.8-0.4-1.1-1.3-1.1c-0.3,0-0.6,0-0.8,0S137.2,190,137,190z M137,195.6l1.4,0c0.3,0,0.5,0,0.7-0.1c0.2-0.1,0.3-0.2,0.4-0.3
		c0.1-0.1,0.2-0.3,0.2-0.4c0-0.2,0.1-0.3,0.1-0.5c0-0.1,0-0.3-0.1-0.5c-0.1-0.2-0.1-0.3-0.3-0.4c-0.1-0.1-0.3-0.2-0.5-0.3
		c-0.2-0.1-0.4-0.1-0.7-0.1H137V195.6z"/>
	<path class="st6" d="M145.6,194h-3.1c0,1.1,0.5,1.7,1.3,1.7c0.5,0,0.9-0.1,1.4-0.4c0.1,0.1,0.2,0.3,0.3,0.5
		c-0.5,0.4-1.2,0.6-1.8,0.6c-0.3,0-0.6-0.1-0.9-0.2c-0.2-0.1-0.4-0.3-0.6-0.5c-0.2-0.2-0.3-0.5-0.3-0.8c-0.1-0.3-0.1-0.7-0.1-1
		c0-0.4,0-0.7,0.1-1c0.1-0.3,0.2-0.6,0.4-0.8c0.2-0.2,0.4-0.4,0.6-0.5c0.2-0.1,0.5-0.2,0.8-0.2c0.3,0,0.6,0.1,0.8,0.2
		c0.2,0.1,0.4,0.3,0.6,0.4c0.2,0.2,0.3,0.4,0.4,0.7c0.1,0.3,0.1,0.5,0.1,0.8c0,0.1,0,0.2,0,0.3C145.7,193.8,145.6,193.9,145.6,194z
		 M142.6,193.4h2.4v-0.1c0-0.5-0.1-0.8-0.3-1.1c-0.2-0.3-0.5-0.4-0.9-0.4c-0.4,0-0.7,0.1-0.9,0.4
		C142.7,192.5,142.6,192.9,142.6,193.4z"/>
	<path class="st6" d="M146.9,191.7c0-0.2,0.2-0.3,0.3-0.4c0.4,0.1,0.6,0.4,0.7,0.9c0.3-0.6,0.7-0.9,1.3-0.9c0.1,0,0.3,0,0.5,0
		c0,0.3-0.1,0.5-0.2,0.7c-0.1,0-0.2,0-0.3,0c-0.5,0-0.9,0.3-1.2,0.9v3.3c-0.1,0-0.2,0-0.4,0c-0.1,0-0.3,0-0.4,0v-3.5
		C147.2,192.2,147.1,191.9,146.9,191.7z"/>
	<path class="st6" d="M153.9,194h-3.1c0,1.1,0.5,1.7,1.3,1.7c0.5,0,0.9-0.1,1.4-0.4c0.1,0.1,0.2,0.3,0.3,0.5
		c-0.5,0.4-1.2,0.6-1.8,0.6c-0.3,0-0.6-0.1-0.9-0.2c-0.2-0.1-0.4-0.3-0.6-0.5c-0.2-0.2-0.3-0.5-0.3-0.8c-0.1-0.3-0.1-0.7-0.1-1
		c0-0.4,0-0.7,0.1-1c0.1-0.3,0.2-0.6,0.4-0.8c0.2-0.2,0.4-0.4,0.6-0.5c0.2-0.1,0.5-0.2,0.8-0.2c0.3,0,0.6,0.1,0.8,0.2
		c0.2,0.1,0.4,0.3,0.6,0.4c0.2,0.2,0.3,0.4,0.4,0.7c0.1,0.3,0.1,0.5,0.1,0.8c0,0.1,0,0.2,0,0.3C154,193.8,153.9,193.9,153.9,194z
		 M150.8,193.4h2.4v-0.1c0-0.5-0.1-0.8-0.3-1.1c-0.2-0.3-0.5-0.4-0.9-0.4c-0.4,0-0.7,0.1-0.9,0.4C151,192.5,150.9,192.9,150.8,193.4
		z"/>
	<path class="st6" d="M155.3,189.6c0.1-0.1,0.3-0.1,0.5-0.1c0.2,0,0.3,0,0.4,0.1c0.1,0.1,0.1,0.2,0.1,0.4s0,0.3-0.1,0.4
		c-0.1,0.1-0.2,0.1-0.4,0.1c-0.2,0-0.3,0-0.4-0.1c-0.1-0.1-0.1-0.2-0.1-0.4C155.2,189.9,155.2,189.7,155.3,189.6z M156.2,192v4.2
		c-0.1,0-0.2,0-0.4,0s-0.3,0-0.4,0v-3.8c0-0.2,0-0.3-0.1-0.4s-0.2-0.1-0.3-0.1H155c0-0.1,0-0.2,0-0.3c0-0.1,0-0.2,0-0.3
		c0.1,0,0.2,0,0.3,0c0.1,0,0.1,0,0.2,0h0.1c0.2,0,0.4,0.1,0.5,0.2C156.2,191.6,156.2,191.8,156.2,192z"/>
	<path class="st6" d="M160.6,193.1V193c0-0.1,0-0.3-0.1-0.4c0-0.1-0.1-0.3-0.2-0.4c-0.1-0.1-0.2-0.2-0.3-0.3
		c-0.1-0.1-0.3-0.1-0.5-0.1c-0.4,0-0.7,0.2-0.9,0.5c-0.2,0.3-0.3,0.8-0.3,1.5c0,0.6,0.1,1.1,0.3,1.4c0.2,0.3,0.5,0.5,0.9,0.5
		c0.4,0,0.8-0.2,1.3-0.6c0.2,0.1,0.3,0.3,0.3,0.5c-0.5,0.5-1.1,0.7-1.7,0.7c-0.3,0-0.6-0.1-0.8-0.2c-0.2-0.1-0.4-0.3-0.6-0.5
		c-0.2-0.2-0.3-0.5-0.4-0.8c-0.1-0.3-0.1-0.6-0.1-1c0-0.5,0.1-0.9,0.2-1.2c0.1-0.3,0.2-0.6,0.4-0.8c0.2-0.2,0.4-0.4,0.6-0.5
		c0.2-0.1,0.5-0.2,0.8-0.2c0.3,0,0.5,0,0.7,0.1c0.2,0.1,0.4,0.2,0.5,0.3s0.3,0.3,0.3,0.5c0.1,0.2,0.1,0.3,0.1,0.5
		c0,0.3-0.1,0.5-0.4,0.5C160.9,193.1,160.8,193.1,160.6,193.1z"/>
	<path class="st6" d="M166.4,192.8v2.5c0,0.4,0,0.7,0.1,0.8c-0.1,0.1-0.3,0.2-0.5,0.2c-0.3,0-0.4-0.2-0.4-0.5V193
		c0-0.4-0.1-0.7-0.2-0.9c-0.1-0.2-0.3-0.3-0.6-0.3c-0.3,0-0.5,0.1-0.8,0.2c-0.3,0.1-0.5,0.3-0.7,0.6v3.5c-0.1,0-0.2,0-0.4,0
		c-0.1,0-0.3,0-0.4,0V189l0.1-0.1h0.3c0.2,0,0.3,0,0.3,0.1s0.1,0.2,0.1,0.4v2.6c0.2-0.2,0.5-0.4,0.8-0.5c0.3-0.1,0.6-0.2,0.9-0.2
		c0.4,0,0.8,0.1,1,0.4C166.3,192,166.4,192.4,166.4,192.8z"/>
</g>
<g class="st4">
	<path class="st7" d="M220.9,181.7c0,0.5-0.1,0.9-0.2,1.2s-0.5,0.4-1,0.4h-7.1c-0.5-0.4-0.8-0.8-0.8-1.1c0-0.7,0.2-1.3,0.7-2
		c0.5-0.7,1.2-1.5,2.2-2.3l2.1-1.8c0.7-0.6,1.1-1.1,1.5-1.6c0.3-0.5,0.5-1.2,0.5-1.9c0-0.7-0.2-1.3-0.7-1.8c-0.5-0.5-1-0.7-1.7-0.7
		c-0.7,0-1.3,0.2-1.8,0.6c-0.5,0.4-1,0.9-1.3,1.6c-0.6-0.1-1-0.3-1.2-0.6c0.2-0.4,0.4-0.8,0.7-1.2c0.3-0.4,0.6-0.7,1-1
		c0.4-0.3,0.8-0.5,1.3-0.6c0.5-0.1,1-0.2,1.6-0.2c0.6,0,1.1,0.1,1.6,0.3c0.5,0.2,0.9,0.5,1.3,0.8c0.4,0.4,0.6,0.8,0.8,1.3
		c0.2,0.5,0.3,1,0.3,1.6c0,0.6-0.1,1.1-0.2,1.5c-0.1,0.4-0.3,0.8-0.6,1.2c-0.3,0.4-0.6,0.7-0.9,1.1c-0.3,0.3-0.7,0.7-1.1,1.1
		l-1.8,1.5c-1.5,1.3-2.3,2.3-2.4,3c0.4,0,0.8-0.1,1.3-0.1c0.4,0,0.9,0,1.4,0H220.9z"/>
	<path class="st7" d="M225.3,182.2l-0.3-0.4c-0.2-0.2-0.3-0.5-0.5-0.9c-0.2-0.4-0.3-0.8-0.4-1.4c-0.1-0.5-0.2-1.1-0.3-1.7
		c-0.1-0.6-0.1-1.3-0.1-2c0-1.1,0.1-2.2,0.4-3.1c0.2-0.9,0.6-1.7,1.1-2.3c0.5-0.6,1.1-1.1,1.7-1.5c0.7-0.3,1.5-0.5,2.4-0.5
		c1.3,0,2.3,0.2,3,0.7c-0.1,0.6-0.3,1-0.7,1.2c-0.8-0.3-1.5-0.5-2.3-0.5c-0.7,0-1.2,0.1-1.7,0.4c-0.5,0.3-0.9,0.6-1.2,1.1
		s-0.5,1-0.7,1.6c-0.2,0.6-0.2,1.3-0.3,2.1c1-1,2.1-1.5,3.4-1.5c1.3,0,2.3,0.4,3.1,1.2c0.7,0.8,1.1,2,1.1,3.5c0,0.7-0.1,1.4-0.3,2.1
		c-0.2,0.6-0.5,1.2-0.9,1.6c-0.4,0.5-0.9,0.8-1.4,1.1c-0.6,0.3-1.2,0.4-1.8,0.4C227.2,183.5,226.1,183.1,225.3,182.2z M228.5,175.1
		c-0.5,0-1.1,0.1-1.6,0.4c-0.6,0.3-1.1,0.7-1.5,1.2v0.4c0,0.8,0.1,1.5,0.2,2.1c0.1,0.6,0.3,1.2,0.6,1.6c0.3,0.4,0.6,0.8,1,1
		s0.8,0.4,1.4,0.4c0.8,0,1.5-0.3,2-1c0.5-0.6,0.7-1.5,0.7-2.6C231.3,176.2,230.4,175.1,228.5,175.1z"/>
	<path class="st7" d="M235.8,183.2c-0.1-0.2-0.2-0.5-0.2-1c0-0.3,0-0.6,0.1-0.7c0.1-0.2,0.2-0.3,0.3-0.4c0.1-0.1,0.3-0.1,0.4-0.1
		c0.2,0,0.3,0,0.5,0c0.2,0,0.4,0,0.5,0c0.2,0,0.3,0.1,0.4,0.1c0.1,0.1,0.2,0.2,0.3,0.4c0.1,0.2,0.1,0.4,0.1,0.7c0,0.3,0,0.5-0.1,0.7
		c0,0.2-0.1,0.3-0.2,0.4c-0.1,0.1-0.2,0.1-0.4,0.1c-0.2,0-0.4,0-0.6,0C236.5,183.4,236.1,183.3,235.8,183.2z"/>
	<path class="st7" d="M249.5,168.7c0.1,0.3,0.1,0.5,0.1,0.7c0,0.5-0.3,0.8-0.8,0.8h-4c-0.3,0-0.5,0-0.7,0c-0.2,0-0.4,0-0.5,0v1.4
		l-0.2,2.6c0.8-0.4,1.6-0.6,2.4-0.6c1.3,0,2.4,0.4,3.2,1.2c0.8,0.8,1.2,2,1.2,3.6c0,0.8-0.1,1.5-0.4,2.1c-0.2,0.6-0.6,1.2-1.1,1.6
		c-0.5,0.4-1,0.8-1.6,1c-0.6,0.2-1.3,0.4-2,0.4c-1.5,0-2.8-0.4-3.9-1.3c0.1-0.5,0.3-0.9,0.8-1.2c0.6,0.4,1.1,0.7,1.6,0.8
		c0.5,0.2,1,0.3,1.5,0.3c0.9,0,1.7-0.3,2.3-1c0.6-0.6,0.9-1.6,0.9-2.7c0-0.6-0.1-1.1-0.2-1.6c-0.2-0.4-0.4-0.8-0.7-1
		c-0.3-0.3-0.6-0.4-1-0.6c-0.4-0.1-0.8-0.2-1.3-0.2c-0.9,0-1.8,0.4-2.7,1.1c-0.3,0-0.6-0.2-0.8-0.6l0.3-6.7l0.1-0.1H249.5z"/>
	<path class="st7" d="M259.5,168.6c0.7,0.7,1.1,1.9,1.1,3.5c0,1.5-0.3,2.6-0.9,3.4c-0.6,0.7-1.4,1.1-2.5,1.1c-1,0-1.8-0.4-2.4-1.1
		s-0.9-1.8-0.9-3.4c0-1.5,0.3-2.6,0.9-3.3c0.6-0.7,1.4-1.1,2.5-1.1C258.2,167.7,259,168,259.5,168.6z M257.4,183.2l8.4-15.3
		c0.2-0.1,0.5-0.1,0.8-0.1c0.2,0,0.3,0,0.5,0c0.1,0,0.3,0,0.4,0.1l-8.4,15.3c-0.1,0-0.2,0.1-0.4,0.1c-0.1,0-0.3,0-0.5,0
		c-0.2,0-0.3,0-0.5,0C257.6,183.3,257.5,183.3,257.4,183.2z M257.2,168.9c-1.2,0-1.8,1.1-1.8,3.3c0,2.2,0.6,3.2,1.8,3.2
		c1.2,0,1.8-1.1,1.8-3.2C259.1,170,258.5,168.9,257.2,168.9z M269.9,182.6c-0.6,0.6-1.4,0.9-2.3,0.9c-1,0-1.9-0.4-2.5-1.1
		c-0.6-0.7-0.9-1.8-0.9-3.4c0-1.5,0.3-2.6,0.9-3.3c0.6-0.7,1.4-1.1,2.5-1.1c1.1,0,1.9,0.4,2.5,1.1c0.6,0.7,0.9,1.8,0.9,3.3
		C270.9,180.7,270.6,181.9,269.9,182.6z M267.6,175.8c-1.2,0-1.8,1.1-1.8,3.3c0,2.2,0.6,3.2,1.8,3.2c1.2,0,1.8-1.1,1.8-3.2
		C269.4,176.9,268.8,175.8,267.6,175.8z"/>
	<path class="st7" d="M214.2,190.7c0.1-0.2,0.3-0.4,0.5-0.5c0.2,0.1,0.3,0.2,0.3,0.4c-0.2,0.2-0.3,0.5-0.3,1.1v3.1
		c0,0.5,0,0.9-0.1,1.2c-0.1,0.3-0.2,0.6-0.4,0.8c-0.2,0.2-0.4,0.4-0.6,0.4c-0.2,0.1-0.5,0.1-0.8,0.1c-0.6,0-1.2-0.1-1.7-0.3
		c0-0.2,0.1-0.4,0.2-0.6c0.4,0.2,0.9,0.3,1.4,0.3c0.3,0,0.5,0,0.7-0.1c0.2-0.1,0.3-0.2,0.4-0.3s0.2-0.3,0.2-0.5
		c0-0.2,0.1-0.4,0.1-0.7v-0.6c-0.4,0.4-0.9,0.7-1.5,0.7c-0.5,0-1-0.2-1.2-0.7c-0.3-0.4-0.4-1.1-0.4-1.9c0-0.4,0.1-0.8,0.2-1.1
		c0.1-0.3,0.2-0.6,0.4-0.8c0.2-0.2,0.4-0.4,0.6-0.5c0.2-0.1,0.5-0.2,0.7-0.2C213.4,190.2,213.8,190.4,214.2,190.7z M214.1,193.9
		v-2.6c-0.2-0.2-0.4-0.3-0.6-0.4c-0.2-0.1-0.4-0.1-0.6-0.1c-0.4,0-0.7,0.2-0.9,0.5c-0.2,0.3-0.3,0.8-0.3,1.5c0,0.6,0.1,1.1,0.3,1.4
		c0.2,0.3,0.4,0.5,0.7,0.5c0.3,0,0.5-0.1,0.8-0.2C213.8,194.3,214,194.1,214.1,193.9z"/>
	<path class="st7" d="M216.3,190.6c0-0.2,0.2-0.3,0.3-0.4c0.4,0.1,0.6,0.4,0.7,0.9c0.3-0.6,0.7-0.9,1.3-0.9c0.1,0,0.3,0,0.5,0
		c0,0.3-0.1,0.5-0.2,0.7c-0.1,0-0.2,0-0.3,0c-0.5,0-0.9,0.3-1.2,0.9v3.3c-0.1,0-0.2,0-0.4,0c-0.1,0-0.3,0-0.4,0v-3.5
		C216.7,191.2,216.5,190.9,216.3,190.6z"/>
	<path class="st7" d="M222.4,188.8c0.1-0.1,0.2-0.1,0.4-0.1c0.2,0,0.3,0,0.4,0.1c0,0.1,0.1,0.2,0.1,0.3c0,0.1,0,0.2-0.1,0.3
		c-0.1,0.1-0.2,0.1-0.4,0.1c-0.1,0-0.2,0-0.3,0c-0.1,0-0.1-0.1-0.1-0.1c0,0,0-0.1-0.1-0.1c0,0,0-0.1,0-0.2
		C222.3,189,222.3,188.9,222.4,188.8z M220.6,188.8c0,0,0.1-0.1,0.2-0.1c0.1,0,0.1,0,0.2,0c0.2,0,0.3,0,0.4,0.1c0,0.1,0,0.1,0.1,0.2
		c0,0.1,0,0.1,0,0.2c0,0.1,0,0.2-0.1,0.3c-0.1,0.1-0.2,0.1-0.4,0.1c-0.1,0-0.2,0-0.3,0c-0.1,0-0.1-0.1-0.1-0.1c0,0,0-0.1-0.1-0.1
		c0-0.1,0-0.1,0-0.2C220.5,189,220.5,188.9,220.6,188.8z M220,193.7v-2.5c0-0.4,0-0.6-0.1-0.8c0.1-0.1,0.3-0.2,0.5-0.2
		c0.3,0,0.4,0.2,0.4,0.5v2.8c0,0.4,0.1,0.7,0.2,0.9c0.1,0.2,0.3,0.2,0.6,0.2c0.3,0,0.5-0.1,0.8-0.2c0.3-0.1,0.5-0.3,0.7-0.6v-3.5
		c0,0,0.1,0,0.2,0c0.1,0,0.1,0,0.2,0s0.1,0,0.2,0c0.1,0,0.1,0,0.2,0v3.5c0,0.5,0.1,0.9,0.3,1.1c-0.1,0.2-0.2,0.3-0.3,0.4
		c-0.3-0.1-0.5-0.4-0.6-0.7c-0.2,0.2-0.5,0.4-0.8,0.5s-0.6,0.2-0.9,0.2c-0.4,0-0.8-0.1-1-0.4C220.1,194.6,220,194.2,220,193.7z"/>
	<path class="st7" d="M229.2,191.8v2.5c0,0.4,0,0.7,0.1,0.8c-0.1,0.1-0.3,0.2-0.5,0.2c-0.3,0-0.4-0.2-0.4-0.5V192
		c0-0.4,0-0.7-0.1-0.9c-0.1-0.2-0.3-0.3-0.6-0.3c-0.3,0-0.5,0.1-0.8,0.2c-0.3,0.1-0.5,0.3-0.7,0.6v3.5c-0.1,0-0.2,0-0.4,0
		c-0.1,0-0.3,0-0.4,0v-4.9l0.1-0.1h0.3c0.2,0,0.3,0,0.3,0.1c0.1,0.1,0.1,0.2,0.1,0.4v0.1c0.2-0.2,0.5-0.4,0.8-0.5
		c0.3-0.1,0.6-0.2,0.9-0.2c0.4,0,0.8,0.1,1,0.4S229.2,191.3,229.2,191.8z"/>
	<path class="st7" d="M234.4,193h-3.1c0,1.1,0.5,1.7,1.3,1.7c0.5,0,0.9-0.1,1.4-0.4c0.1,0.1,0.2,0.3,0.3,0.5
		c-0.5,0.4-1.2,0.6-1.8,0.6c-0.3,0-0.6-0.1-0.9-0.2c-0.2-0.1-0.4-0.3-0.6-0.5c-0.2-0.2-0.3-0.5-0.3-0.8s-0.1-0.7-0.1-1
		c0-0.4,0-0.7,0.1-1c0.1-0.3,0.2-0.6,0.4-0.8c0.2-0.2,0.4-0.4,0.6-0.5c0.2-0.1,0.5-0.2,0.8-0.2c0.3,0,0.6,0.1,0.8,0.2
		c0.2,0.1,0.4,0.3,0.6,0.4c0.2,0.2,0.3,0.4,0.4,0.7c0.1,0.3,0.1,0.5,0.1,0.8c0,0.1,0,0.2,0,0.3C234.5,192.8,234.4,192.9,234.4,193z
		 M231.3,192.4h2.4v-0.1c0-0.5-0.1-0.8-0.3-1.1c-0.2-0.3-0.5-0.4-0.9-0.4c-0.4,0-0.7,0.1-0.9,0.4
		C231.5,191.5,231.4,191.9,231.3,192.4z"/>
	<path class="st7" d="M235.7,190.6c0-0.2,0.2-0.3,0.3-0.4c0.4,0.1,0.6,0.4,0.7,0.9c0.3-0.6,0.7-0.9,1.3-0.9c0.1,0,0.3,0,0.5,0
		c0,0.3-0.1,0.5-0.2,0.7c-0.1,0-0.2,0-0.3,0c-0.5,0-0.9,0.3-1.2,0.9v3.3c-0.1,0-0.2,0-0.4,0c-0.1,0-0.3,0-0.4,0v-3.5
		C236,191.2,235.9,190.9,235.7,190.6z"/>
	<path class="st7" d="M241.8,195.2L241.8,195.2l-0.1-6.7l0.1-0.1l1.9,0c0.7,0,1.3,0.2,1.6,0.5c0.3,0.3,0.5,0.8,0.5,1.3
		c0,0.3-0.1,0.6-0.3,0.9s-0.4,0.4-0.7,0.5c0.2,0.1,0.3,0.1,0.5,0.2c0.2,0.1,0.3,0.2,0.4,0.4c0.1,0.2,0.2,0.3,0.3,0.5
		c0.1,0.2,0.1,0.4,0.1,0.7c0,0.2,0,0.5-0.1,0.7c-0.1,0.2-0.2,0.4-0.4,0.6c-0.2,0.2-0.4,0.3-0.7,0.4c-0.3,0.1-0.6,0.2-1,0.2
		L241.8,195.2z M242.5,189v2.3h1.2c0.2,0,0.5,0,0.6-0.1c0.2-0.1,0.3-0.1,0.4-0.2c0.1-0.1,0.2-0.2,0.2-0.4c0-0.1,0.1-0.3,0.1-0.4
		c0-0.8-0.4-1.1-1.3-1.1c-0.3,0-0.6,0-0.8,0S242.6,189,242.5,189z M242.5,194.6l1.4,0c0.3,0,0.5,0,0.7-0.1c0.2-0.1,0.3-0.2,0.4-0.3
		c0.1-0.1,0.2-0.3,0.2-0.4c0-0.2,0.1-0.3,0.1-0.5c0-0.1,0-0.3-0.1-0.5c-0.1-0.2-0.1-0.3-0.3-0.4c-0.1-0.1-0.3-0.2-0.5-0.3
		c-0.2-0.1-0.4-0.1-0.7-0.1h-1.3V194.6z"/>
	<path class="st7" d="M251.1,193H248c0,1.1,0.5,1.7,1.3,1.7c0.5,0,0.9-0.1,1.4-0.4c0.1,0.1,0.2,0.3,0.3,0.5
		c-0.5,0.4-1.2,0.6-1.8,0.6c-0.3,0-0.6-0.1-0.9-0.2c-0.2-0.1-0.4-0.3-0.6-0.5c-0.2-0.2-0.3-0.5-0.3-0.8s-0.1-0.7-0.1-1
		c0-0.4,0-0.7,0.1-1c0.1-0.3,0.2-0.6,0.4-0.8c0.2-0.2,0.4-0.4,0.6-0.5c0.2-0.1,0.5-0.2,0.8-0.2c0.3,0,0.6,0.1,0.8,0.2
		c0.2,0.1,0.4,0.3,0.6,0.4c0.2,0.2,0.3,0.4,0.4,0.7c0.1,0.3,0.1,0.5,0.1,0.8c0,0.1,0,0.2,0,0.3C251.1,192.8,251.1,192.9,251.1,193z
		 M248,192.4h2.4v-0.1c0-0.5-0.1-0.8-0.3-1.1c-0.2-0.3-0.5-0.4-0.9-0.4c-0.4,0-0.7,0.1-0.9,0.4C248.2,191.5,248,191.9,248,192.4z"/>
	<path class="st7" d="M252.3,190.6c0-0.2,0.2-0.3,0.3-0.4c0.4,0.1,0.6,0.4,0.7,0.9c0.3-0.6,0.7-0.9,1.3-0.9c0.1,0,0.3,0,0.5,0
		c0,0.3-0.1,0.5-0.2,0.7c-0.1,0-0.2,0-0.3,0c-0.5,0-0.9,0.3-1.2,0.9v3.3c-0.1,0-0.2,0-0.4,0c-0.1,0-0.3,0-0.4,0v-3.5
		C252.7,191.2,252.6,190.9,252.3,190.6z"/>
	<path class="st7" d="M259.4,193h-3.1c0,1.1,0.5,1.7,1.3,1.7c0.5,0,0.9-0.1,1.4-0.4c0.1,0.1,0.2,0.3,0.3,0.5
		c-0.5,0.4-1.2,0.6-1.8,0.6c-0.3,0-0.6-0.1-0.9-0.2c-0.2-0.1-0.4-0.3-0.6-0.5c-0.2-0.2-0.3-0.5-0.3-0.8s-0.1-0.7-0.1-1
		c0-0.4,0-0.7,0.1-1c0.1-0.3,0.2-0.6,0.4-0.8c0.2-0.2,0.4-0.4,0.6-0.5c0.2-0.1,0.5-0.2,0.8-0.2c0.3,0,0.6,0.1,0.8,0.2
		s0.4,0.3,0.6,0.4c0.2,0.2,0.3,0.4,0.4,0.7c0.1,0.3,0.1,0.5,0.1,0.8c0,0.1,0,0.2,0,0.3C259.4,192.8,259.4,192.9,259.4,193z
		 M256.3,192.4h2.4v-0.1c0-0.5-0.1-0.8-0.3-1.1c-0.2-0.3-0.5-0.4-0.9-0.4c-0.4,0-0.7,0.1-0.9,0.4
		C256.5,191.5,256.3,191.9,256.3,192.4z"/>
	<path class="st7" d="M260.7,188.6c0.1-0.1,0.3-0.1,0.5-0.1c0.2,0,0.3,0,0.4,0.1c0.1,0.1,0.1,0.2,0.1,0.4s0,0.3-0.1,0.4
		c-0.1,0.1-0.2,0.1-0.4,0.1c-0.2,0-0.3,0-0.4-0.1c-0.1-0.1-0.1-0.2-0.1-0.4C260.7,188.8,260.7,188.7,260.7,188.6z M261.7,191v4.2
		c-0.1,0-0.2,0-0.4,0s-0.3,0-0.4,0v-3.8c0-0.2,0-0.3-0.1-0.4c-0.1-0.1-0.2-0.1-0.3-0.1h-0.1c0-0.1,0-0.2,0-0.3c0-0.1,0-0.2,0-0.3
		c0.1,0,0.2,0,0.3,0c0.1,0,0.1,0,0.2,0h0.1c0.2,0,0.4,0.1,0.5,0.2C261.7,190.6,261.7,190.8,261.7,191z"/>
	<path class="st7" d="M266.1,192v-0.1c0-0.1,0-0.3-0.1-0.4c0-0.1-0.1-0.3-0.2-0.4c-0.1-0.1-0.2-0.2-0.3-0.3
		c-0.1-0.1-0.3-0.1-0.5-0.1c-0.4,0-0.7,0.2-0.9,0.5c-0.2,0.3-0.3,0.8-0.3,1.5c0,0.6,0.1,1.1,0.3,1.4c0.2,0.3,0.5,0.5,0.9,0.5
		c0.4,0,0.8-0.2,1.3-0.6c0.2,0.1,0.3,0.3,0.3,0.5c-0.5,0.5-1.1,0.7-1.7,0.7c-0.3,0-0.6-0.1-0.8-0.2c-0.2-0.1-0.4-0.3-0.6-0.5
		c-0.2-0.2-0.3-0.5-0.4-0.8c-0.1-0.3-0.1-0.6-0.1-1c0-0.5,0.1-0.9,0.2-1.2s0.2-0.6,0.4-0.8c0.2-0.2,0.4-0.4,0.6-0.5s0.5-0.2,0.8-0.2
		c0.3,0,0.5,0,0.7,0.1c0.2,0.1,0.4,0.2,0.5,0.3c0.1,0.1,0.3,0.3,0.3,0.5c0.1,0.2,0.1,0.3,0.1,0.5c0,0.3-0.1,0.5-0.4,0.5
		C266.3,192.1,266.2,192.1,266.1,192z"/>
	<path class="st7" d="M271.8,191.8v2.5c0,0.4,0,0.7,0.1,0.8c-0.1,0.1-0.3,0.2-0.5,0.2c-0.3,0-0.4-0.2-0.4-0.5V192
		c0-0.4-0.1-0.7-0.2-0.9c-0.1-0.2-0.3-0.3-0.6-0.3s-0.5,0.1-0.8,0.2c-0.3,0.1-0.5,0.3-0.7,0.6v3.5c-0.1,0-0.2,0-0.4,0
		c-0.1,0-0.3,0-0.4,0v-7.3l0.1-0.1h0.3c0.2,0,0.3,0,0.3,0.1s0.1,0.2,0.1,0.4v2.6c0.2-0.2,0.5-0.4,0.8-0.5c0.3-0.1,0.6-0.2,0.9-0.2
		c0.4,0,0.8,0.1,1,0.4C271.7,190.9,271.8,191.3,271.8,191.8z"/>
</g>
</svg>
