<?xml version="1.0" encoding="utf-8"?>
<!-- Generator: Adobe Illustrator 22.0.0, SVG Export Plug-In . SVG Version: 6.00 Build 0)  -->
<svg version="1.1" id="Layer_1" xmlns="http://www.w3.org/2000/svg" xmlns:xlink="http://www.w3.org/1999/xlink" x="0px" y="0px"
	 viewBox="0 0 360 360" style="enable-background:new 0 0 360 360;" xml:space="preserve">
<style type="text/css">
	.st0{opacity:0.1;}
	.st1{fill:#FB3942;}
	.st2{opacity:0.3;}
	.st3{enable-background:new    ;}
	.st4{fill:#FFFFFF;}
</style>
<g>
	<g class="st0">
		<path class="st1" d="M325.6,253.6c0-1.2,5.5-2.7,5.4-3.9c-0.1-1.2-5.7-1.9-5.9-3.1c-0.2-1.2,5-3.5,4.7-4.7c-0.3-1.2-5.9-1-6.3-2.2
			c-0.4-1.2,4.4-4.2,4-5.3c-0.5-1.2-6-0.1-6.5-1.2c-0.5-1.1,3.7-4.8,3.1-5.9c-0.6-1.1-5.9,0.8-6.6-0.2c-0.7-1,3-5.3,2.2-6.3
			c-0.8-1-5.7,1.7-6.6,0.8c-0.8-0.9,2.2-5.7,1.3-6.5c-0.9-0.8-5.4,2.5-6.4,1.8c-1-0.8,1.3-5.9,0.3-6.6c-1-0.7-5,3.3-6.1,2.7
			c-1.1-0.6,0.4-6.1-0.7-6.6c-1.1-0.5-4.4,4-5.6,3.6c-1.1-0.5-0.5-6.1-1.7-6.4c-1.2-0.4-3.8,4.6-5,4.4c-1.2-0.3-1.4-5.9-2.6-6.1
			c-1.2-0.2-3.1,5.1-4.3,5.1c-1.2-0.1-2.3-5.6-3.5-5.6c-1.2,0-2.3,5.5-3.5,5.6c-1.2,0.1-3.1-5.2-4.3-5.1c-1.2,0.2-1.4,5.8-2.6,6.1
			c-1.2,0.3-3.8-4.7-5-4.4c-1.2,0.4-0.5,6-1.7,6.4c-1.2,0.5-4.5-4.1-5.6-3.6c-1.1,0.5,0.4,6-0.7,6.6c-1.1,0.6-5-3.4-6.1-2.7
			c-1,0.7,1.3,5.9,0.3,6.6c-1,0.8-5.5-2.6-6.4-1.8c-0.9,0.8,2.1,5.6,1.3,6.5c-0.8,0.9-5.8-1.7-6.6-0.8c-0.8,1,2.9,5.2,2.2,6.3
			c-0.7,1-6-0.9-6.6,0.2c-0.6,1.1,3.7,4.7,3.1,5.9c-0.5,1.1-6.1,0-6.5,1.2c-0.5,1.1,4.3,4.1,4,5.3c-0.4,1.2-6,0.9-6.3,2.2
			c-0.3,1.2,4.9,3.4,4.7,4.7c-0.2,1.2-5.8,1.8-5.9,3.1c-0.1,1.2,5.4,2.7,5.4,3.9c0,1.2-5.5,2.7-5.4,3.9c0.1,1.2,5.7,1.9,5.9,3.1
			c0.2,1.2-5,3.5-4.7,4.7c0.3,1.2,5.9,1,6.3,2.2c0.4,1.2-4.4,4.2-4,5.3c0.5,1.2,6,0.1,6.5,1.2c0.5,1.1-3.7,4.8-3.1,5.9
			c0.6,1.1,5.9-0.8,6.6,0.2c0.7,1-3,5.3-2.2,6.3c0.8,1,5.7-1.7,6.6-0.8c0.8,0.9-2.2,5.7-1.3,6.5c0.9,0.8,5.4-2.5,6.4-1.8
			c1,0.8-1.3,5.9-0.3,6.6c1,0.7,5-3.3,6.1-2.7c1.1,0.6-0.4,6.1,0.7,6.6c1.1,0.5,4.4-4,5.6-3.6c1.1,0.5,0.5,6.1,1.7,6.4
			c1.2,0.4,3.8-4.6,5-4.4c1.2,0.3,1.4,5.9,2.6,6.1c1.2,0.2,3.1-5.1,4.3-5.1c1.2,0.1,2.3,5.6,3.5,5.6c1.2,0,2.3-5.5,3.5-5.6
			c1.2-0.1,3.1,5.2,4.3,5.1c1.2-0.2,1.4-5.8,2.6-6.1c1.2-0.3,3.8,4.7,5,4.4c1.2-0.4,0.5-6,1.7-6.4c1.2-0.5,4.5,4.1,5.6,3.6
			c1.1-0.5-0.4-6,0.7-6.6c1.1-0.6,5,3.4,6.1,2.7c1-0.7-1.3-5.9-0.3-6.6c1-0.8,5.5,2.6,6.4,1.8c0.9-0.8-2.1-5.6-1.3-6.5
			c0.8-0.9,5.8,1.7,6.6,0.8c0.8-1-2.9-5.2-2.2-6.3c0.7-1,6,0.9,6.6-0.2c0.6-1.1-3.7-4.7-3.1-5.9c0.5-1.1,6.1,0,6.5-1.2
			c0.5-1.1-4.3-4.1-4-5.3c0.4-1.2,6-0.9,6.3-2.2c0.3-1.2-4.9-3.4-4.7-4.7c0.2-1.2,5.8-1.8,5.9-3.1
			C331.1,256.2,325.6,254.8,325.6,253.6z"/>
	</g>
	<g class="st2">
		<path class="st1" d="M311.9,253.6c0-0.9,5.5-2,5.4-2.9c-0.1-0.9-5.6-1.2-5.8-2.1c-0.1-0.9,5.1-2.8,4.9-3.6c-0.2-0.9-5.7-0.3-6-1.2
			c-0.3-0.9,4.6-3.5,4.3-4.3c-0.3-0.8-5.7,0.6-6.1-0.3c-0.4-0.8,4.1-4.2,3.6-4.9c-0.4-0.8-5.6,1.4-6.1,0.7c-0.5-0.7,3.4-4.7,2.8-5.4
			c-0.6-0.7-5.3,2.2-5.9,1.6c-0.6-0.7,2.7-5.2,2-5.8c-0.7-0.6-4.9,3-5.6,2.4c-0.7-0.6,1.9-5.5,1.1-6c-0.7-0.5-4.4,3.7-5.2,3.2
			c-0.8-0.4,1-5.7,0.2-6.1c-0.8-0.4-3.8,4.3-4.7,4c-0.8-0.3,0.1-5.8-0.7-6.1c-0.8-0.3-3.1,4.8-4,4.6c-0.9-0.2-0.7-5.8-1.6-5.9
			c-0.9-0.1-2.4,5.2-3.3,5.2c-0.9-0.1-1.6-5.6-2.5-5.6c-0.9,0-1.6,5.5-2.5,5.6c-0.9,0.1-2.4-5.3-3.3-5.2c-0.9,0.1-0.7,5.7-1.6,5.9
			c-0.9,0.2-3.2-4.9-4-4.6c-0.9,0.3,0.1,5.8-0.7,6.1c-0.8,0.3-3.9-4.4-4.7-4c-0.8,0.4,1,5.7,0.2,6.1c-0.8,0.4-4.5-3.7-5.2-3.2
			c-0.7,0.5,1.8,5.5,1.1,6c-0.7,0.6-5-3-5.6-2.4c-0.7,0.6,2.6,5.1,2,5.8c-0.6,0.7-5.4-2.3-5.9-1.6c-0.6,0.7,3.3,4.7,2.8,5.4
			c-0.5,0.7-5.6-1.4-6.1-0.7c-0.4,0.8,4,4.1,3.6,4.9c-0.4,0.8-5.8-0.6-6.1,0.2c-0.3,0.8,4.6,3.5,4.3,4.3c-0.3,0.8-5.8,0.3-6,1.2
			c-0.2,0.9,5,2.8,4.9,3.6c-0.1,0.9-5.7,1.2-5.8,2.1c-0.1,0.9,5.4,2,5.4,2.9c0,0.9-5.5,2-5.4,2.9c0.1,0.9,5.6,1.2,5.8,2.1
			c0.1,0.9-5.1,2.8-4.9,3.6c0.2,0.9,5.7,0.3,6,1.2c0.3,0.9-4.6,3.5-4.3,4.3c0.3,0.8,5.7-0.6,6.1,0.3c0.4,0.8-4.1,4.2-3.6,4.9
			c0.4,0.8,5.6-1.4,6.1-0.7c0.5,0.7-3.4,4.7-2.8,5.4c0.6,0.7,5.3-2.2,5.9-1.6c0.6,0.7-2.7,5.2-2,5.8c0.7,0.6,4.9-3,5.6-2.4
			c0.7,0.6-1.9,5.5-1.1,6c0.7,0.5,4.4-3.7,5.2-3.2c0.8,0.4-1,5.7-0.2,6.1c0.8,0.4,3.8-4.3,4.7-4c0.8,0.3-0.1,5.8,0.7,6.1
			c0.8,0.3,3.1-4.8,4-4.6c0.9,0.2,0.7,5.8,1.6,5.9c0.9,0.1,2.4-5.2,3.3-5.2c0.9,0.1,1.6,5.6,2.5,5.6c0.9,0,1.6-5.5,2.5-5.6
			c0.9-0.1,2.4,5.3,3.3,5.2c0.9-0.1,0.7-5.7,1.6-5.9c0.9-0.2,3.2,4.9,4,4.6c0.9-0.3-0.1-5.8,0.7-6.1c0.8-0.3,3.9,4.4,4.7,4
			c0.8-0.4-1-5.7-0.2-6.1c0.8-0.4,4.5,3.7,5.2,3.2c0.7-0.5-1.8-5.5-1.1-6c0.7-0.6,5,3,5.6,2.4c0.7-0.6-2.6-5.1-2-5.8
			c0.6-0.7,5.4,2.3,5.9,1.6c0.6-0.7-3.3-4.7-2.8-5.4c0.5-0.7,5.6,1.4,6.1,0.7c0.4-0.8-4-4.1-3.6-4.9c0.4-0.8,5.8,0.6,6.1-0.3
			c0.3-0.8-4.6-3.5-4.3-4.3c0.3-0.8,5.8-0.3,6-1.2c0.2-0.9-5-2.8-4.9-3.6c0.1-0.9,5.7-1.2,5.8-2.1
			C317.3,255.6,311.9,254.5,311.9,253.6z"/>
	</g>
	<g>
		<path class="st1" d="M298.1,253.6c0-0.6,5.5-1.3,5.4-1.9c0-0.6-5.6-0.5-5.7-1c-0.1-0.5,5.2-2.1,5.1-2.6c-0.1-0.5-5.6,0.4-5.7-0.2
			c-0.2-0.5,4.8-2.9,4.6-3.4c-0.2-0.5-5.5,1.2-5.7,0.7c-0.2-0.5,4.4-3.6,4.1-4c-0.3-0.5-5.2,2-5.5,1.5c-0.3-0.5,3.8-4.2,3.4-4.6
			c-0.3-0.4-4.9,2.7-5.2,2.3c-0.4-0.4,3.1-4.7,2.7-5.1c-0.4-0.4-4.4,3.4-4.8,3.1c-0.4-0.3,2.4-5.1,1.9-5.4c-0.5-0.3-3.8,4.1-4.3,3.8
			c-0.5-0.3,1.6-5.4,1.1-5.6c-0.5-0.2-3.2,4.6-3.7,4.4c-0.5-0.2,0.8-5.6,0.3-5.7c-0.5-0.2-2.5,5-3,4.9c-0.5-0.1-0.1-5.6-0.6-5.7
			c-0.5-0.1-1.7,5.3-2.2,5.3c-0.5,0-0.9-5.6-1.4-5.6c-0.6,0-0.9,5.5-1.4,5.6c-0.6,0-1.7-5.4-2.2-5.3c-0.5,0.1-0.1,5.6-0.6,5.7
			c-0.5,0.1-2.5-5.1-3-4.9c-0.5,0.2,0.8,5.5,0.3,5.7c-0.5,0.2-3.2-4.6-3.7-4.4c-0.5,0.2,1.6,5.4,1.1,5.6c-0.5,0.3-3.9-4.1-4.3-3.8
			c-0.5,0.3,2.4,5.1,1.9,5.4c-0.4,0.3-4.4-3.5-4.8-3.1c-0.4,0.4,3.1,4.7,2.7,5.1c-0.4,0.4-4.9-2.8-5.2-2.3c-0.3,0.4,3.8,4.1,3.4,4.6
			c-0.3,0.5-5.3-2-5.5-1.5c-0.3,0.5,4.3,3.5,4.1,4c-0.2,0.5-5.5-1.2-5.7-0.7c-0.2,0.5,4.8,2.8,4.7,3.4c-0.2,0.5-5.6-0.4-5.7,0.2
			c-0.1,0.5,5.2,2.1,5.1,2.6c-0.1,0.5-5.6,0.5-5.7,1c0,0.5,5.4,1.3,5.4,1.8c0,0.6-5.5,1.3-5.4,1.9c0,0.6,5.6,0.5,5.7,1
			c0.1,0.5-5.2,2.1-5.1,2.6c0.1,0.5,5.6-0.4,5.7,0.2c0.2,0.5-4.8,2.9-4.6,3.4c0.2,0.5,5.5-1.2,5.7-0.7c0.2,0.5-4.4,3.6-4.1,4
			c0.3,0.5,5.2-2,5.5-1.5c0.3,0.5-3.8,4.2-3.4,4.6c0.3,0.4,4.9-2.7,5.2-2.3c0.4,0.4-3.1,4.7-2.7,5.1c0.4,0.4,4.4-3.4,4.8-3.1
			c0.4,0.3-2.4,5.1-1.9,5.4c0.5,0.3,3.8-4.1,4.3-3.8c0.5,0.3-1.6,5.4-1.1,5.6c0.5,0.2,3.2-4.6,3.7-4.4c0.5,0.2-0.8,5.6-0.3,5.7
			c0.5,0.2,2.5-5,3-4.9c0.5,0.1,0.1,5.6,0.6,5.7c0.5,0.1,1.7-5.3,2.2-5.3c0.5,0,0.9,5.6,1.4,5.6c0.6,0,0.9-5.5,1.4-5.6
			c0.6,0,1.7,5.4,2.2,5.3c0.5-0.1,0.1-5.6,0.6-5.7c0.5-0.1,2.5,5.1,3,4.9c0.5-0.2-0.8-5.5-0.3-5.7c0.5-0.2,3.2,4.6,3.7,4.4
			c0.5-0.2-1.6-5.4-1.1-5.6c0.5-0.3,3.9,4.1,4.3,3.8c0.5-0.3-2.4-5.1-1.9-5.4c0.4-0.3,4.4,3.5,4.8,3.1c0.4-0.4-3.1-4.7-2.7-5.1
			c0.4-0.4,4.9,2.8,5.2,2.3c0.3-0.4-3.8-4.1-3.4-4.6c0.3-0.5,5.3,2,5.5,1.5c0.3-0.5-4.3-3.5-4.1-4c0.2-0.5,5.5,1.2,5.7,0.7
			c0.2-0.5-4.8-2.8-4.7-3.4c0.2-0.5,5.6,0.4,5.7-0.2c0.1-0.5-5.2-2.1-5.1-2.6c0.1-0.5,5.6-0.5,5.7-1
			C303.6,254.9,298.1,254.1,298.1,253.6z"/>
	</g>
	<g class="st3">
		<path class="st4" d="M276.2,247.6c0.1,0.2,0.1,0.5,0.1,0.7c0,0.5-0.3,0.8-0.8,0.8h-3.5v0.8l-0.1,1.6c0.5-0.2,1-0.3,1.5-0.3
			c1,0,1.8,0.3,2.4,0.9c0.6,0.6,0.9,1.5,0.9,2.7c0,0.6-0.1,1.1-0.3,1.6c-0.2,0.5-0.5,0.9-0.8,1.2c-0.3,0.3-0.7,0.6-1.2,0.8
			c-0.5,0.2-0.9,0.3-1.5,0.3c-1.3,0-2.3-0.4-3.1-1.1c0-0.2,0.1-0.4,0.3-0.6c0.1-0.2,0.3-0.4,0.5-0.5c0.4,0.3,0.8,0.5,1.2,0.6
			c0.4,0.1,0.7,0.2,1.1,0.2c0.6,0,1.2-0.2,1.6-0.6c0.4-0.4,0.6-1,0.6-1.8c0-0.4-0.1-0.7-0.2-1c-0.1-0.3-0.3-0.5-0.5-0.7
			c-0.2-0.2-0.4-0.3-0.7-0.4c-0.2-0.1-0.5-0.1-0.8-0.1c-0.3,0-0.6,0.1-0.9,0.2c-0.3,0.1-0.6,0.3-0.9,0.6c-0.2,0-0.3-0.1-0.5-0.2
			c-0.2-0.1-0.3-0.2-0.4-0.4l0.2-5l0.1-0.1H276.2z"/>
		<path class="st4" d="M283.9,252.4l2.5,0c0.8,0,1.3,0.4,1.3,1.2v4.3c-1.2,0.5-2.6,0.7-4.1,0.7c-0.8,0-1.6-0.2-2.2-0.5
			c-0.6-0.3-1.1-0.7-1.5-1.3c-0.7-1.1-1-2.4-1-4.1c0-1,0.1-1.9,0.4-2.7c0.3-0.8,0.7-1.4,1.1-1.9c1-0.9,2.1-1.4,3.4-1.4
			c1.5,0,2.8,0.4,3.9,1.2c-0.1,0.6-0.4,1-0.8,1.3c-0.9-0.7-1.9-1-3-1c-0.9,0-1.7,0.4-2.2,1.1c-0.6,0.7-0.8,1.8-0.8,3.4
			c0,2.9,1.1,4.3,3.2,4.3c0.8,0,1.5-0.1,2.1-0.3V255c0-0.5,0-0.8,0-1.1h-1.5c-0.6,0-0.8-0.3-0.8-0.8
			C283.7,252.9,283.8,252.6,283.9,252.4z"/>
	</g>
	<g class="st0">
		<path class="st1" d="M293.5,108.8c0-1.7,5.4-3.5,5.3-5.1c-0.1-1.6-5.7-2.7-6-4.3c-0.2-1.6,4.8-4.3,4.5-5.8
			c-0.4-1.6-6.1-1.8-6.6-3.3c-0.5-1.6,4.1-4.9,3.5-6.5c-0.6-1.5-6.3-0.8-7-2.3c-0.7-1.5,3.4-5.5,2.5-6.9c-0.8-1.4-6.3,0.1-7.3-1.2
			c-0.9-1.4,2.5-5.9,1.5-7.2c-1-1.3-6.2,1-7.4-0.2c-1.1-1.2,1.6-6.2,0.4-7.4c-1.2-1.1-6,2-7.3,0.9c-1.3-1,0.7-6.4-0.7-7.3
			c-1.4-0.9-5.7,2.8-7.1,2c-1.4-0.8-0.3-6.4-1.8-7.1c-1.5-0.7-5.2,3.7-6.7,3.1c-1.5-0.6-1.3-6.3-2.8-6.8c-1.6-0.5-4.6,4.4-6.2,4
			c-1.6-0.4-2.2-6-3.8-6.3c-1.6-0.2-3.9,5-5.5,4.9c-1.6-0.1-3.1-5.7-4.7-5.7c-1.7,0-3.1,5.5-4.7,5.7c-1.6,0.1-3.9-5.1-5.5-4.9
			c-1.6,0.2-2.2,5.9-3.8,6.3c-1.6,0.4-4.6-4.5-6.2-4c-1.6,0.5-1.3,6.2-2.8,6.8c-1.5,0.6-5.2-3.8-6.7-3.1c-1.5,0.7-0.4,6.3-1.8,7.1
			c-1.4,0.8-5.7-2.9-7.1-2c-1.4,0.9,0.6,6.3-0.7,7.3c-1.3,1-6.1-2.1-7.3-0.9c-1.2,1.1,1.5,6.2,0.4,7.4c-1.1,1.2-6.3-1.1-7.4,0.2
			c-1,1.3,2.4,5.9,1.5,7.2c-0.9,1.4-6.4-0.2-7.3,1.2c-0.8,1.4,3.3,5.4,2.5,6.9c-0.7,1.5-6.4,0.8-7,2.3c-0.6,1.5,4,4.9,3.5,6.5
			c-0.5,1.6-6.2,1.7-6.6,3.3c-0.4,1.6,4.7,4.2,4.5,5.8c-0.2,1.6-5.9,2.6-6,4.3c-0.1,1.6,5.3,3.5,5.3,5.1c0,1.7-5.4,3.5-5.3,5.1
			c0.1,1.6,5.7,2.7,6,4.3c0.2,1.6-4.8,4.3-4.5,5.8c0.4,1.6,6.1,1.8,6.6,3.3c0.5,1.6-4.1,4.9-3.5,6.5c0.6,1.5,6.3,0.8,7,2.3
			c0.7,1.5-3.4,5.5-2.5,6.9c0.8,1.4,6.3-0.1,7.3,1.2c0.9,1.4-2.5,5.9-1.5,7.2c1,1.3,6.2-1,7.4,0.2c1.1,1.2-1.6,6.2-0.4,7.4
			c1.2,1.1,6-2,7.3-0.9c1.3,1-0.7,6.4,0.7,7.3c1.4,0.9,5.7-2.8,7.1-2c1.4,0.8,0.3,6.4,1.8,7.1c1.5,0.7,5.2-3.7,6.7-3.1
			c1.5,0.6,1.3,6.3,2.8,6.8c1.6,0.5,4.6-4.4,6.2-4c1.6,0.4,2.2,6,3.8,6.3c1.6,0.2,3.9-5,5.5-4.9c1.6,0.1,3.1,5.7,4.7,5.7
			c1.7,0,3.1-5.5,4.7-5.7c1.6-0.1,3.9,5.1,5.5,4.9c1.6-0.2,2.2-5.9,3.8-6.3c1.6-0.4,4.6,4.5,6.2,4c1.6-0.5,1.3-6.2,2.8-6.8
			c1.5-0.6,5.2,3.8,6.7,3.1c1.5-0.7,0.4-6.3,1.8-7.1c1.4-0.8,5.7,2.9,7.1,2c1.4-0.9-0.6-6.3,0.7-7.3c1.3-1,6.1,2.1,7.3,0.9
			c1.2-1.1-1.5-6.2-0.4-7.4c1.1-1.2,6.3,1.1,7.4-0.2c1-1.3-2.4-5.9-1.5-7.2c0.9-1.4,6.4,0.2,7.3-1.2c0.8-1.4-3.3-5.4-2.5-6.9
			c0.7-1.5,6.4-0.8,7-2.3c0.6-1.5-4-4.9-3.5-6.5c0.5-1.6,6.2-1.7,6.6-3.3c0.4-1.6-4.7-4.2-4.5-5.8c0.2-1.6,5.9-2.6,6-4.3
			C298.9,112.3,293.5,110.4,293.5,108.8z"/>
	</g>
	<g class="st2">
		<path class="st1" d="M278.9,108.8c0-1.3,5.4-2.8,5.3-4c-0.1-1.3-5.7-1.9-5.9-3.2c-0.2-1.3,5-3.5,4.7-4.8c-0.3-1.3-5.9-1.1-6.3-2.3
			c-0.4-1.2,4.4-4.2,3.9-5.4c-0.5-1.2-6-0.2-6.6-1.3c-0.6-1.2,3.7-4.8,3.1-5.9c-0.6-1.1-6,0.7-6.7-0.3c-0.7-1.1,2.9-5.3,2.1-6.3
			c-0.8-1-5.8,1.6-6.6,0.7c-0.9-0.9,2.1-5.7,1.2-6.6c-0.9-0.9-5.5,2.5-6.5,1.7c-1-0.8,1.2-6,0.2-6.7c-1.1-0.7-5.1,3.2-6.2,2.6
			c-1.1-0.6,0.3-6.1-0.8-6.6c-1.1-0.6-4.5,4-5.7,3.5c-1.2-0.5-0.6-6.1-1.8-6.4c-1.2-0.4-3.9,4.6-5.1,4.3c-1.2-0.3-1.5-5.9-2.7-6.1
			c-1.3-0.2-3.1,5.1-4.4,5c-1.3-0.1-2.3-5.6-3.6-5.6c-1.3,0-2.4,5.5-3.6,5.6c-1.3,0.1-3.2-5.2-4.4-5c-1.3,0.2-1.5,5.8-2.7,6.1
			c-1.3,0.3-3.9-4.7-5.1-4.3c-1.2,0.4-0.6,6-1.8,6.4c-1.2,0.5-4.6-4-5.7-3.5c-1.2,0.6,0.3,6-0.8,6.6c-1.1,0.6-5.1-3.3-6.2-2.6
			c-1.1,0.7,1.2,5.9,0.2,6.7c-1,0.8-5.5-2.5-6.5-1.7c-0.9,0.9,2,5.6,1.2,6.6c-0.9,0.9-5.9-1.7-6.6-0.7c-0.8,1,2.9,5.3,2.1,6.3
			c-0.7,1.1-6-0.8-6.7,0.3c-0.6,1.1,3.6,4.8,3.1,5.9c-0.6,1.1-6.1,0.1-6.6,1.3c-0.5,1.2,4.3,4.2,3.9,5.4c-0.4,1.2-6,1-6.3,2.3
			c-0.3,1.2,4.9,3.5,4.7,4.8c-0.2,1.3-5.8,1.9-5.9,3.2c-0.1,1.3,5.3,2.7,5.3,4c0,1.3-5.4,2.8-5.3,4c0.1,1.3,5.7,1.9,5.9,3.2
			c0.2,1.3-5,3.5-4.7,4.8c0.3,1.3,5.9,1.1,6.3,2.3c0.4,1.2-4.4,4.2-3.9,5.4c0.5,1.2,6,0.2,6.6,1.3c0.6,1.2-3.7,4.8-3.1,5.9
			c0.6,1.1,6-0.7,6.7,0.3c0.7,1.1-2.9,5.3-2.1,6.3c0.8,1,5.8-1.6,6.6-0.7c0.9,0.9-2.1,5.7-1.2,6.6c0.9,0.9,5.5-2.5,6.5-1.7
			c1,0.8-1.2,6-0.2,6.7c1.1,0.7,5.1-3.2,6.2-2.6c1.1,0.6-0.3,6.1,0.8,6.6c1.1,0.6,4.5-4,5.7-3.5c1.2,0.5,0.6,6.1,1.8,6.4
			c1.2,0.4,3.9-4.6,5.1-4.3c1.2,0.3,1.5,5.9,2.7,6.1c1.3,0.2,3.1-5.1,4.4-5c1.3,0.1,2.3,5.6,3.6,5.6c1.3,0,2.4-5.5,3.6-5.6
			c1.3-0.1,3.2,5.2,4.4,5c1.3-0.2,1.5-5.8,2.7-6.1c1.3-0.3,3.9,4.7,5.1,4.3c1.2-0.4,0.6-6,1.8-6.4c1.2-0.5,4.6,4,5.7,3.5
			c1.2-0.6-0.3-6,0.8-6.6c1.1-0.6,5.1,3.3,6.2,2.6c1.1-0.7-1.2-5.9-0.2-6.7c1-0.8,5.5,2.5,6.5,1.7c0.9-0.9-2-5.6-1.2-6.6
			c0.9-0.9,5.9,1.7,6.6,0.7c0.8-1-2.9-5.3-2.1-6.3c0.7-1.1,6,0.8,6.7-0.3c0.6-1.1-3.6-4.8-3.1-5.9c0.6-1.1,6.1-0.1,6.6-1.3
			c0.5-1.2-4.3-4.2-3.9-5.4c0.4-1.2,6-1,6.3-2.3c0.3-1.2-4.9-3.5-4.7-4.8c0.2-1.3,5.8-1.9,5.9-3.2
			C284.3,111.6,278.9,110.1,278.9,108.8z"/>
	</g>
	<g>
		<path class="st1" d="M264.3,108.8c0-0.9,5.4-2,5.4-2.9c-0.1-0.9-5.6-1.2-5.7-2.1c-0.1-0.9,5.1-2.8,4.9-3.7c-0.2-0.9-5.7-0.4-6-1.2
			c-0.3-0.9,4.6-3.5,4.3-4.4c-0.3-0.9-5.7,0.5-6.1-0.3c-0.4-0.8,4-4.2,3.6-5c-0.5-0.8-5.6,1.4-6.1,0.6c-0.5-0.8,3.3-4.7,2.8-5.5
			c-0.6-0.7-5.3,2.2-5.9,1.5c-0.6-0.7,2.6-5.2,1.9-5.8c-0.7-0.6-4.9,2.9-5.6,2.4c-0.7-0.6,1.8-5.5,1.1-6c-0.8-0.5-4.4,3.6-5.2,3.2
			c-0.8-0.5,1-5.7,0.1-6.1c-0.8-0.4-3.8,4.3-4.7,3.9c-0.8-0.3,0.1-5.8-0.8-6.1c-0.9-0.3-3.2,4.8-4.1,4.6c-0.9-0.2-0.8-5.8-1.7-5.9
			c-0.9-0.1-2.4,5.2-3.3,5.1c-0.9-0.1-1.6-5.6-2.5-5.6c-0.9,0-1.6,5.5-2.5,5.6c-0.9,0.1-2.4-5.3-3.3-5.1c-0.9,0.1-0.8,5.7-1.7,5.9
			c-0.9,0.2-3.2-4.9-4.1-4.6c-0.9,0.3,0.1,5.7-0.8,6.1c-0.9,0.3-3.9-4.3-4.7-3.9c-0.8,0.4,0.9,5.7,0.1,6.1c-0.8,0.5-4.5-3.7-5.2-3.2
			c-0.8,0.5,1.8,5.5,1.1,6c-0.7,0.6-5-3-5.6-2.4c-0.7,0.6,2.6,5.1,1.9,5.8c-0.6,0.7-5.4-2.2-5.9-1.5c-0.6,0.7,3.3,4.7,2.8,5.5
			c-0.5,0.8-5.6-1.4-6.1-0.6c-0.5,0.8,4,4.2,3.6,5c-0.4,0.8-5.8-0.5-6.1,0.3c-0.3,0.8,4.5,3.5,4.3,4.4c-0.3,0.9-5.8,0.3-6,1.2
			c-0.2,0.9,5,2.8,4.9,3.7c-0.1,0.9-5.7,1.2-5.7,2.1c-0.1,0.9,5.4,2,5.4,2.9c0,0.9-5.4,2-5.4,2.9c0.1,0.9,5.6,1.2,5.7,2.1
			c0.1,0.9-5.1,2.8-4.9,3.7c0.2,0.9,5.7,0.4,6,1.2c0.3,0.9-4.6,3.5-4.3,4.4c0.3,0.9,5.7-0.5,6.1,0.3c0.4,0.8-4,4.2-3.6,5
			c0.5,0.8,5.6-1.4,6.1-0.6c0.5,0.8-3.3,4.7-2.8,5.5c0.6,0.7,5.3-2.2,5.9-1.5c0.6,0.7-2.6,5.2-1.9,5.8c0.7,0.6,4.9-2.9,5.6-2.4
			c0.7,0.6-1.8,5.5-1.1,6c0.8,0.5,4.4-3.6,5.2-3.2c0.8,0.5-1,5.7-0.1,6.1c0.8,0.4,3.8-4.3,4.7-3.9c0.8,0.3-0.1,5.8,0.8,6.1
			c0.9,0.3,3.2-4.8,4.1-4.6c0.9,0.2,0.8,5.8,1.7,5.9c0.9,0.1,2.4-5.2,3.3-5.1c0.9,0.1,1.6,5.6,2.5,5.6c0.9,0,1.6-5.5,2.5-5.6
			c0.9-0.1,2.4,5.3,3.3,5.1c0.9-0.1,0.8-5.7,1.7-5.9c0.9-0.2,3.2,4.9,4.1,4.6c0.9-0.3-0.1-5.7,0.8-6.1c0.9-0.3,3.9,4.3,4.7,3.9
			c0.8-0.4-0.9-5.7-0.1-6.1c0.8-0.5,4.5,3.7,5.2,3.2c0.8-0.5-1.8-5.5-1.1-6c0.7-0.6,5,3,5.6,2.4c0.7-0.6-2.6-5.1-1.9-5.8
			c0.6-0.7,5.4,2.2,5.9,1.5c0.6-0.7-3.3-4.7-2.8-5.5c0.5-0.8,5.6,1.4,6.1,0.6c0.5-0.8-4-4.2-3.6-5c0.4-0.8,5.8,0.5,6.1-0.3
			c0.3-0.8-4.5-3.5-4.3-4.4c0.3-0.9,5.8-0.3,6-1.2c0.2-0.9-5-2.8-4.9-3.7c0.1-0.9,5.7-1.2,5.7-2.1
			C269.7,110.8,264.3,109.7,264.3,108.8z"/>
	</g>
	<g class="st3">
		<path class="st4" d="M207,102.2l3.5,0c1.1,0,2,0.3,2.7,0.9c0.6,0.6,1,1.4,1,2.4c0,0.7-0.2,1.3-0.6,1.9c-0.4,0.5-0.9,0.9-1.5,1.1
			c0.5,0.2,0.9,0.6,1.1,1.4l0.7,1.9c0.2,0.6,0.4,0.9,0.7,1.2c-0.2,0.4-0.6,0.5-1.2,0.5c-0.3,0-0.5-0.1-0.7-0.2
			c-0.2-0.2-0.3-0.4-0.4-0.8l-0.8-2.2c-0.2-0.4-0.4-0.8-0.6-1c-0.2-0.2-0.6-0.3-1-0.3h-1.3v4.4c-0.2,0-0.5,0.1-0.9,0.1
			c-0.3,0-0.6,0-0.8-0.1v-10.9L207,102.2z M208.6,103.5v3.9c0.8,0,1.4,0,1.8,0c0.7,0,1.2-0.2,1.5-0.5c0.3-0.4,0.4-0.8,0.4-1.4
			c0-1.3-0.7-1.9-2-1.9C209.5,103.5,209,103.5,208.6,103.5z"/>
		<path class="st4" d="M218.4,111l0,0.8c0.3,0,0.7,0,1.1,0h4.2c0,0.3,0,0.5,0,0.7c-0.1,0.5-0.5,0.8-1.1,0.8h-4.8
			c-0.3,0-0.5-0.1-0.7-0.3c-0.2-0.2-0.3-0.4-0.3-0.8v-9.8l0.1-0.1h6.5c0,0.2,0,0.4,0,0.7c0,0.3,0,0.5-0.1,0.8h-4.8l0,1v2.3l1,0h3
			c0.1,0.2,0.1,0.4,0.1,0.7c0,0.3,0,0.5-0.1,0.7h-3c-0.4,0-0.8,0-1,0V111z"/>
		<path class="st4" d="M226.9,112.4c-1.1-1-1.7-2.6-1.7-4.7c0-0.9,0.1-1.7,0.3-2.4c0.2-0.7,0.5-1.3,0.9-1.8c0.4-0.5,0.8-0.9,1.4-1.1
			c0.6-0.3,1.2-0.4,1.9-0.4c0.7,0,1.4,0.1,1.9,0.4c0.6,0.3,1,0.6,1.4,1.1c0.4,0.5,0.7,1.1,0.9,1.8c0.2,0.7,0.3,1.5,0.3,2.4
			c0,0.9-0.1,1.7-0.3,2.4c-0.2,0.7-0.5,1.3-0.9,1.8c-0.4,0.5-0.8,0.9-1.4,1.1c-0.6,0.3-1.2,0.4-1.9,0.4
			C228.6,113.4,227.6,113.1,226.9,112.4z M227.5,104.8c-0.2,0.5-0.3,0.9-0.4,1.4c-0.1,0.5-0.1,0.9-0.1,1.4c0,0.5,0,1.1,0.1,1.6
			c0.1,0.5,0.2,1,0.4,1.4c0.2,0.4,0.5,0.8,0.8,1c0.4,0.3,0.8,0.4,1.4,0.4c0.6,0,1.1-0.1,1.4-0.4c0.3-0.3,0.6-0.7,0.8-1.1
			c0.2-0.4,0.3-0.9,0.4-1.4c0.1-0.5,0.1-1,0.1-1.4c0-0.4,0-0.9-0.1-1.4c-0.1-0.5-0.2-1-0.4-1.4c-0.2-0.4-0.5-0.8-0.8-1.1
			c-0.4-0.3-0.8-0.4-1.4-0.4c-0.5,0-1,0.1-1.4,0.4C227.9,104,227.7,104.3,227.5,104.8z"/>
		<path class="st4" d="M236.7,102.2l3.5,0c1.1,0,2,0.3,2.7,0.9c0.6,0.6,1,1.4,1,2.4c0,0.7-0.2,1.3-0.6,1.9c-0.4,0.5-0.9,0.9-1.5,1.1
			c0.5,0.2,0.9,0.6,1.1,1.4l0.7,1.9c0.2,0.6,0.4,0.9,0.7,1.2c-0.2,0.4-0.6,0.5-1.2,0.5c-0.3,0-0.5-0.1-0.7-0.2
			c-0.2-0.2-0.3-0.4-0.4-0.8l-0.8-2.2c-0.2-0.4-0.4-0.8-0.6-1c-0.2-0.2-0.6-0.3-1-0.3h-1.3v4.4c-0.2,0-0.5,0.1-0.9,0.1
			c-0.3,0-0.6,0-0.8-0.1v-10.9L236.7,102.2z M238.3,103.5v3.9c0.8,0,1.4,0,1.8,0c0.7,0,1.2-0.2,1.5-0.5c0.3-0.4,0.4-0.8,0.4-1.4
			c0-1.3-0.7-1.9-2-1.9C239.3,103.5,238.7,103.5,238.3,103.5z"/>
		<path class="st4" d="M250.3,107.4l2.5,0c0.8,0,1.2,0.4,1.2,1.1v4.2c-1.2,0.5-2.5,0.7-4,0.7c-0.8,0-1.5-0.1-2.1-0.4
			c-0.6-0.3-1.1-0.7-1.4-1.2c-0.7-1-1-2.4-1-3.9c0-1,0.1-1.9,0.4-2.6c0.3-0.8,0.6-1.4,1.1-1.8c0.9-0.9,2-1.4,3.3-1.4
			c1.5,0,2.7,0.4,3.7,1.2c-0.1,0.5-0.4,1-0.8,1.3c-0.9-0.7-1.9-1-2.9-1c-0.9,0-1.6,0.3-2.2,1c-0.5,0.7-0.8,1.8-0.8,3.3
			c0,2.8,1,4.2,3.1,4.2c0.8,0,1.4-0.1,2-0.3v-1.8c0-0.5,0-0.8,0-1H251c-0.5,0-0.8-0.3-0.8-0.8C250.2,107.9,250.3,107.6,250.3,107.4z
			"/>
	</g>
	<g class="st0">
		<path class="st1" d="M194,234.4c0-2.1,5.4-4.3,5.3-6.4c-0.2-2.1-5.9-3.5-6.2-5.5c-0.3-2,4.7-5.1,4.3-7.1c-0.5-2-6.3-2.6-6.9-4.5
			c-0.6-2,3.9-5.7,3.2-7.6c-0.8-1.9-6.6-1.6-7.5-3.5c-0.9-1.9,3-6.3,2-8c-1-1.8-6.8-0.6-7.9-2.3c-1.2-1.7,2-6.6,0.8-8.2
			c-1.3-1.6-6.8,0.4-8.2-1.1c-1.4-1.5,1-6.9-0.5-8.3c-1.5-1.4-6.7,1.4-8.3,0.1c-1.6-1.3,0-6.9-1.7-8.1c-1.7-1.2-6.4,2.4-8.2,1.4
			c-1.8-1-1-6.9-2.9-7.8c-1.8-0.9-5.9,3.3-7.9,2.6c-1.9-0.8-2-6.6-4-7.2c-2-0.6-5.4,4.2-7.4,3.7c-2-0.5-3-6.2-5.1-6.5
			c-2-0.3-4.7,4.9-6.7,4.8c-2-0.2-3.9-5.7-6-5.7c-2.1,0-3.9,5.6-6,5.7c-2.1,0.2-4.7-5.1-6.7-4.8c-2,0.3-3.1,6.1-5.1,6.5
			c-2,0.5-5.4-4.3-7.4-3.7c-2,0.6-2.1,6.5-4,7.2c-1.9,0.8-6-3.5-7.9-2.6c-1.9,0.9-1.1,6.7-2.9,7.8c-1.8,1-6.5-2.5-8.2-1.4
			c-1.7,1.2-0.1,6.8-1.7,8.1c-1.6,1.3-6.8-1.5-8.3-0.1c-1.5,1.4,0.9,6.7-0.5,8.3c-1.4,1.5-6.9-0.5-8.2,1.1c-1.3,1.6,1.9,6.5,0.8,8.2
			c-1.2,1.7-6.9,0.5-7.9,2.3c-1,1.8,2.9,6.2,2,8c-0.9,1.8-6.8,1.5-7.5,3.5c-0.8,1.9,3.8,5.7,3.2,7.6c-0.6,2-6.5,2.5-6.9,4.5
			c-0.5,2,4.6,5,4.3,7.1c-0.3,2-6,3.5-6.2,5.5c-0.2,2,5.3,4.3,5.3,6.4c0,2.1-5.4,4.3-5.3,6.4c0.2,2.1,5.9,3.5,6.2,5.5
			c0.3,2-4.7,5.1-4.3,7.1c0.5,2,6.3,2.6,6.9,4.5c0.6,2-3.9,5.7-3.2,7.6c0.8,1.9,6.6,1.6,7.5,3.5c0.9,1.9-3,6.3-2,8
			c1,1.8,6.8,0.6,7.9,2.3c1.2,1.7-2,6.6-0.8,8.2c1.3,1.6,6.8-0.4,8.2,1.1c1.4,1.5-1,6.9,0.5,8.3c1.5,1.4,6.7-1.4,8.3-0.1
			c1.6,1.3,0,6.9,1.7,8.1c1.7,1.2,6.4-2.4,8.2-1.4c1.8,1,1,6.9,2.9,7.8c1.8,0.9,5.9-3.3,7.9-2.6c1.9,0.8,2,6.6,4,7.2
			c2,0.6,5.4-4.2,7.4-3.7c2,0.5,3,6.2,5.1,6.5c2,0.3,4.7-4.9,6.7-4.8c2,0.2,3.9,5.7,6,5.7c2.1,0,3.9-5.6,6-5.7
			c2.1-0.2,4.7,5.1,6.7,4.8c2-0.3,3.1-6.1,5.1-6.5c2-0.5,5.4,4.3,7.4,3.7c2-0.6,2.1-6.5,4-7.2c1.9-0.8,6,3.5,7.9,2.6
			c1.9-0.9,1.1-6.7,2.9-7.8c1.8-1,6.5,2.5,8.2,1.4c1.7-1.2,0.1-6.8,1.7-8.1c1.6-1.3,6.8,1.5,8.3,0.1c1.5-1.4-0.9-6.7,0.5-8.3
			c1.4-1.5,6.9,0.5,8.2-1.1c1.3-1.6-1.9-6.5-0.8-8.2c1.2-1.7,6.9-0.5,7.9-2.3c1-1.8-2.9-6.2-2-8c0.9-1.8,6.8-1.5,7.5-3.5
			c0.8-1.9-3.8-5.7-3.2-7.6c0.6-2,6.5-2.5,6.9-4.5c0.5-2-4.6-5-4.3-7.1c0.3-2,6-3.5,6.2-5.5C199.5,238.7,194,236.5,194,234.4z"/>
	</g>
	<g class="st2">
		<path class="st1" d="M175.7,234.4c0-1.6,5.4-3.4,5.3-5c-0.1-1.6-5.8-2.6-6-4.2c-0.2-1.6,4.9-4.2,4.5-5.7c-0.4-1.6-6.1-1.7-6.6-3.2
			c-0.5-1.5,4.2-4.9,3.6-6.4c-0.6-1.5-6.3-0.8-7-2.2c-0.7-1.4,3.4-5.4,2.6-6.8c-0.8-1.4-6.3,0.2-7.2-1.1c-0.9-1.3,2.6-5.9,1.6-7.1
			c-1-1.3-6.2,1.1-7.3,0c-1.1-1.2,1.7-6.2,0.5-7.3c-1.2-1.1-6,2-7.2,1c-1.3-1,0.7-6.4-0.6-7.3c-1.3-0.9-5.6,2.9-7,2.1
			c-1.4-0.8-0.2-6.4-1.7-7.1c-1.4-0.7-5.1,3.7-6.6,3.1c-1.5-0.6-1.2-6.3-2.7-6.8c-1.5-0.5-4.5,4.4-6.1,4.1c-1.6-0.4-2.1-6.1-3.7-6.3
			c-1.6-0.2-3.8,5.1-5.4,4.9c-1.6-0.1-3-5.7-4.6-5.7c-1.6,0-3,5.6-4.6,5.7c-1.6,0.1-3.8-5.2-5.4-4.9c-1.6,0.2-2.2,5.9-3.7,6.3
			c-1.6,0.4-4.5-4.5-6.1-4.1c-1.5,0.5-1.2,6.2-2.7,6.8c-1.5,0.6-5.2-3.8-6.6-3.1c-1.4,0.7-0.3,6.3-1.7,7.1c-1.4,0.8-5.7-3-7-2.1
			c-1.3,0.9,0.7,6.3-0.6,7.3c-1.3,1-6.1-2.1-7.2-1c-1.2,1.1,1.6,6.1,0.5,7.3c-1.1,1.2-6.3-1.2-7.3,0c-1,1.3,2.5,5.8,1.6,7.1
			c-0.9,1.3-6.4-0.3-7.2,1.1c-0.8,1.4,3.3,5.4,2.6,6.8c-0.7,1.4-6.4,0.7-7,2.2c-0.6,1.5,4.1,4.8,3.6,6.4c-0.5,1.5-6.2,1.7-6.6,3.2
			c-0.4,1.6,4.8,4.1,4.5,5.7c-0.2,1.6-5.9,2.6-6,4.2c-0.1,1.6,5.3,3.4,5.3,5c0,1.6-5.4,3.4-5.3,5c0.1,1.6,5.8,2.6,6,4.2
			c0.2,1.6-4.9,4.2-4.5,5.7c0.4,1.6,6.1,1.7,6.6,3.2c0.5,1.5-4.2,4.9-3.6,6.4c0.6,1.5,6.3,0.8,7,2.2c0.7,1.4-3.4,5.4-2.6,6.8
			c0.8,1.4,6.3-0.2,7.2,1.1c0.9,1.3-2.6,5.9-1.6,7.1c1,1.3,6.2-1.1,7.3,0c1.1,1.2-1.7,6.2-0.5,7.3c1.2,1.1,6-2,7.2-1
			c1.3,1-0.7,6.4,0.6,7.3c1.3,0.9,5.6-2.9,7-2.1c1.4,0.8,0.2,6.4,1.7,7.1c1.4,0.7,5.1-3.7,6.6-3.1c1.5,0.6,1.2,6.3,2.7,6.8
			c1.5,0.5,4.5-4.4,6.1-4.1c1.6,0.4,2.1,6.1,3.7,6.3c1.6,0.2,3.8-5.1,5.4-4.9c1.6,0.1,3,5.7,4.6,5.7c1.6,0,3-5.6,4.6-5.7
			c1.6-0.1,3.8,5.2,5.4,4.9c1.6-0.2,2.2-5.9,3.7-6.3c1.6-0.4,4.5,4.5,6.1,4.1c1.5-0.5,1.2-6.2,2.7-6.8c1.5-0.6,5.2,3.8,6.6,3.1
			c1.4-0.7,0.3-6.3,1.7-7.1c1.4-0.8,5.7,3,7,2.1c1.3-0.9-0.7-6.3,0.6-7.3c1.3-1,6.1,2.1,7.2,1c1.2-1.1-1.6-6.1-0.5-7.3
			c1.1-1.2,6.3,1.2,7.3,0c1-1.3-2.5-5.8-1.6-7.1c0.9-1.3,6.4,0.3,7.2-1.1c0.8-1.4-3.3-5.4-2.6-6.8c0.7-1.4,6.4-0.7,7-2.2
			c0.6-1.5-4.1-4.8-3.6-6.4c0.5-1.5,6.2-1.7,6.6-3.2c0.4-1.6-4.8-4.1-4.5-5.7c0.2-1.6,5.9-2.6,6-4.2
			C181.1,237.8,175.7,236,175.7,234.4z"/>
	</g>
	<g>
		<path class="st1" d="M157.3,234.4c0-1.2,5.5-2.5,5.4-3.6c-0.1-1.1-5.7-1.7-5.8-2.8c-0.2-1.1,5-3.3,4.8-4.4
			c-0.3-1.1-5.9-0.8-6.2-1.9c-0.3-1.1,4.5-4,4.1-5.1c-0.4-1.1-5.9,0.1-6.4-0.9c-0.5-1,3.8-4.6,3.3-5.6c-0.6-1-5.8,1-6.5,0
			c-0.6-0.9,3.1-5.1,2.4-6c-0.7-0.9-5.6,1.8-6.4,1c-0.8-0.8,2.3-5.5,1.5-6.3c-0.8-0.8-5.3,2.6-6.2,1.9c-0.9-0.7,1.5-5.8,0.5-6.5
			c-0.9-0.6-4.8,3.4-5.8,2.8c-1-0.6,0.6-6-0.5-6.5c-1-0.5-4.3,4.1-5.3,3.7c-1.1-0.4-0.3-6-1.4-6.3c-1.1-0.3-3.6,4.7-4.7,4.4
			c-1.1-0.3-1.2-5.9-2.4-6c-1.1-0.2-2.9,5.2-4,5.1c-1.1-0.1-2.1-5.6-3.2-5.6c-1.2,0-2.1,5.5-3.2,5.6c-1.1,0.1-2.9-5.3-4-5.1
			c-1.1,0.2-1.2,5.8-2.4,6c-1.1,0.3-3.6-4.8-4.7-4.4c-1.1,0.3-0.4,5.9-1.4,6.3c-1.1,0.4-4.3-4.2-5.3-3.7c-1,0.5,0.5,5.9-0.5,6.5
			c-1,0.6-4.9-3.5-5.8-2.8c-0.9,0.6,1.4,5.8,0.5,6.5c-0.9,0.7-5.4-2.7-6.2-1.9c-0.8,0.8,2.2,5.5,1.5,6.3c-0.8,0.8-5.7-1.9-6.4-1
			c-0.7,0.9,3,5.1,2.4,6c-0.6,0.9-5.9-1-6.5,0c-0.6,1,3.8,4.6,3.3,5.6c-0.5,1-6-0.1-6.4,0.9c-0.4,1.1,4.4,4,4.1,5.1
			c-0.3,1.1-5.9,0.8-6.2,1.9c-0.3,1.1,4.9,3.3,4.8,4.4c-0.2,1.1-5.8,1.7-5.8,2.8c-0.1,1.1,5.4,2.5,5.4,3.6c0,1.2-5.5,2.5-5.4,3.6
			c0.1,1.1,5.7,1.7,5.8,2.8c0.2,1.1-5,3.3-4.8,4.4c0.3,1.1,5.9,0.8,6.2,1.9c0.3,1.1-4.5,4-4.1,5.1c0.4,1.1,5.9-0.1,6.4,0.9
			c0.5,1-3.8,4.6-3.3,5.6c0.6,1,5.8-1,6.5,0c0.6,0.9-3.1,5.1-2.4,6c0.7,0.9,5.6-1.8,6.4-1c0.8,0.8-2.3,5.5-1.5,6.3
			c0.8,0.8,5.3-2.6,6.2-1.9c0.9,0.7-1.5,5.8-0.5,6.5c0.9,0.6,4.8-3.4,5.8-2.8c1,0.6-0.6,6,0.5,6.5c1,0.5,4.3-4.1,5.3-3.7
			c1.1,0.4,0.3,6,1.4,6.3c1.1,0.3,3.6-4.7,4.7-4.4c1.1,0.3,1.2,5.9,2.4,6c1.1,0.2,2.9-5.2,4-5.1c1.1,0.1,2.1,5.6,3.2,5.6
			c1.2,0,2.1-5.5,3.2-5.6c1.1-0.1,2.9,5.3,4,5.1c1.1-0.2,1.2-5.8,2.4-6c1.1-0.3,3.6,4.8,4.7,4.4c1.1-0.3,0.4-5.9,1.4-6.3
			c1.1-0.4,4.3,4.2,5.3,3.7c1-0.5-0.5-5.9,0.5-6.5c1-0.6,4.9,3.5,5.8,2.8c0.9-0.6-1.4-5.8-0.5-6.5c0.9-0.7,5.4,2.7,6.2,1.9
			c0.8-0.8-2.2-5.5-1.5-6.3c0.8-0.8,5.7,1.9,6.4,1c0.7-0.9-3-5.1-2.4-6c0.6-0.9,5.9,1,6.5,0c0.6-1-3.8-4.6-3.3-5.6
			c0.5-1,6,0.1,6.4-0.9c0.4-1.1-4.4-4-4.1-5.1c0.3-1.1,5.9-0.8,6.2-1.9c0.3-1.1-4.9-3.3-4.8-4.4c0.2-1.1,5.8-1.7,5.8-2.8
			C162.8,236.9,157.3,235.6,157.3,234.4z"/>
	</g>
	<g class="st3">
		<path class="st4" d="M80.4,238.7c0.1-0.7,0.4-1.2,0.9-1.7c1.4,0.9,2.8,1.4,4.1,1.4c0.8,0,1.4-0.2,1.9-0.5c0.5-0.3,0.7-0.8,0.7-1.4
			c0-0.9-0.6-1.7-1.8-2.2l-2.4-1c-1.8-0.8-2.8-2-2.8-3.5c0-0.6,0.1-1.1,0.3-1.5s0.5-0.9,0.9-1.3c0.4-0.4,0.9-0.6,1.5-0.8
			c0.6-0.2,1.2-0.3,1.9-0.3c1.4,0,2.8,0.3,4.2,1c0,0.6-0.3,1.2-0.8,1.7c-1.3-0.6-2.4-0.9-3.5-0.9c-0.7,0-1.3,0.2-1.8,0.5
			c-0.4,0.4-0.7,0.8-0.7,1.3c0,0.5,0.1,0.9,0.4,1.2c0.3,0.3,0.7,0.5,1.3,0.8l2.3,1c1,0.4,1.8,1,2.3,1.6c0.5,0.6,0.8,1.3,0.8,2.2
			c0,1.2-0.4,2.2-1.3,2.9c-0.8,0.7-2.1,1.1-3.8,1.1C83.4,240.2,81.8,239.7,80.4,238.7z"/>
		<path class="st4" d="M98.5,227.9l-1.2,0v12c-0.3,0.1-0.7,0.1-1.1,0.1c-0.4,0-0.8,0-1.1-0.1v-10.5l0-1.5h0l-1.2,0h-2.4
			c-0.1-0.3-0.1-0.6-0.1-0.9c0-0.3,0-0.6,0.1-0.9h9.3c0.1,0.3,0.1,0.6,0.1,0.9c0,0.6-0.4,0.9-1.2,0.9H98.5z"/>
		<path class="st4" d="M103.3,226.1l4.3-0.1c1.4,0,2.5,0.4,3.4,1.1c0.8,0.7,1.2,1.7,1.2,3.1c0,0.9-0.2,1.7-0.7,2.3
			c-0.5,0.7-1.1,1.1-1.9,1.3c0.6,0.2,1.1,0.8,1.4,1.7l0.9,2.4c0.3,0.7,0.6,1.2,0.9,1.5c-0.3,0.4-0.8,0.7-1.5,0.7
			c-0.4,0-0.7-0.1-0.9-0.3c-0.2-0.2-0.4-0.5-0.6-1l-1-2.7c-0.2-0.5-0.4-0.9-0.7-1.2c-0.3-0.3-0.7-0.4-1.3-0.4h-1.7v5.6
			c-0.3,0.1-0.6,0.1-1.1,0.1c-0.4,0-0.8,0-1-0.1v-13.7L103.3,226.1z M105.3,227.7v4.9c1,0,1.8,0,2.2,0c0.9,0,1.5-0.2,1.9-0.7
			c0.4-0.5,0.6-1,0.6-1.7c0-1.6-0.8-2.4-2.5-2.4C106.5,227.7,105.8,227.7,105.3,227.7z"/>
		<path class="st4" d="M117.6,237.1l0,1c0.4,0,0.8-0.1,1.3-0.1h5.2c0,0.4,0,0.6-0.1,0.8c-0.1,0.7-0.6,1-1.4,1h-6
			c-0.4,0-0.7-0.1-0.9-0.4c-0.2-0.2-0.3-0.6-0.3-1v-12.4l0.1-0.1h8.1c0,0.2,0.1,0.5,0.1,0.9s-0.1,0.7-0.2,1h-6.1l0,1.3v2.8l1.3,0
			h3.8c0.1,0.2,0.1,0.5,0.1,0.9s0,0.6-0.1,0.9h-3.8c-0.5,0-0.9,0-1.3,0V237.1z"/>
		<path class="st4" d="M125.9,238.7c0.1-0.7,0.4-1.2,0.9-1.7c1.4,0.9,2.8,1.4,4.1,1.4c0.8,0,1.4-0.2,1.9-0.5
			c0.5-0.3,0.7-0.8,0.7-1.4c0-0.9-0.6-1.7-1.8-2.2l-2.4-1c-1.8-0.8-2.8-2-2.8-3.5c0-0.6,0.1-1.1,0.3-1.5s0.5-0.9,0.9-1.3
			c0.4-0.4,0.9-0.6,1.5-0.8c0.6-0.2,1.2-0.3,1.9-0.3c1.4,0,2.8,0.3,4.2,1c0,0.6-0.3,1.2-0.8,1.7c-1.3-0.6-2.4-0.9-3.5-0.9
			c-0.7,0-1.3,0.2-1.8,0.5c-0.4,0.4-0.7,0.8-0.7,1.3c0,0.5,0.1,0.9,0.4,1.2c0.3,0.3,0.7,0.5,1.3,0.8l2.3,1c1,0.4,1.8,1,2.3,1.6
			c0.5,0.6,0.8,1.3,0.8,2.2c0,1.2-0.4,2.2-1.3,2.9c-0.8,0.7-2.1,1.1-3.8,1.1C128.9,240.2,127.4,239.7,125.9,238.7z"/>
		<path class="st4" d="M137.4,238.7c0.1-0.7,0.4-1.2,0.9-1.7c1.4,0.9,2.8,1.4,4.1,1.4c0.8,0,1.4-0.2,1.9-0.5
			c0.5-0.3,0.7-0.8,0.7-1.4c0-0.9-0.6-1.7-1.8-2.2l-2.4-1c-1.8-0.8-2.8-2-2.8-3.5c0-0.6,0.1-1.1,0.3-1.5s0.5-0.9,0.9-1.3
			c0.4-0.4,0.9-0.6,1.5-0.8c0.6-0.2,1.2-0.3,1.9-0.3c1.4,0,2.8,0.3,4.2,1c0,0.6-0.3,1.2-0.8,1.7c-1.3-0.6-2.4-0.9-3.5-0.9
			c-0.7,0-1.3,0.2-1.8,0.5s-0.7,0.8-0.7,1.3c0,0.5,0.1,0.9,0.4,1.2c0.3,0.3,0.7,0.5,1.3,0.8l2.3,1c1,0.4,1.8,1,2.3,1.6
			c0.5,0.6,0.8,1.3,0.8,2.2c0,1.2-0.4,2.2-1.3,2.9c-0.8,0.7-2.1,1.1-3.8,1.1C140.4,240.2,138.8,239.7,137.4,238.7z"/>
	</g>
</g>
</svg>
