<?xml version="1.0" encoding="utf-8"?>
<!-- Generator: Adobe Illustrator 22.0.0, SVG Export Plug-In . SVG Version: 6.00 Build 0)  -->
<svg version="1.1" id="Layer_1" xmlns="http://www.w3.org/2000/svg" xmlns:xlink="http://www.w3.org/1999/xlink" x="0px" y="0px"
	 viewBox="0 0 401.4 316.2" style="enable-background:new 0 0 401.4 316.2;" xml:space="preserve">
<style type="text/css">
	.st0{fill:url(#SVGID_1_);}
	.st1{fill:url(#SVGID_2_);}
	.st2{fill:url(#SVGID_3_);}
	.st3{fill:url(#SVGID_4_);}
	.st4{fill:#FF2832;}
	.st5{font-family:'Signika-Regular';}
	.st6{font-size:30.0317px;}
	.st7{letter-spacing:-3;}
	.st8{font-size:25px;}
	.st9{font-family:'Signika-Light';}
	.st10{font-size:10.5994px;}
	.st11{fill:#FFC000;}
	.st12{fill:#009632;}
</style>
<linearGradient id="SVGID_1_" gradientUnits="userSpaceOnUse" x1="43.6454" y1="316.2133" x2="43.6454" y2="62.9893">
	<stop  offset="0" style="stop-color:#FF2832;stop-opacity:0.3"/>
	<stop  offset="1" style="stop-color:#FF2832"/>
</linearGradient>
<path class="st0" d="M87.3,201.4c-0.2-2.5-1.2-7.8-1.2-7.8l-0.3-2.1l0,0c0,0-1.1-12.9-1.4-18.4c-0.4-5.5-2.7-12-3.8-16
	c-1.1-4,2.3-12.7-0.7-23.5c-1.8-6.8,0-13.1-3.6-17.8c-4-5.1-8.3-4.6-10-4.8l0,0c-2.1-0.4-4.5-0.7-6-1.4c-3.6-1.6-5.9-3.1-8-4.1
	c-1.5-0.6-1.6-5.1-1.6-7.7c1.2-0.8,2.1-1.6,2.6-2.3c0.7-1.1,1.3-4.3,1.6-7.3c0.3,0.1,0.6,0,1.2-0.3c1.4-0.6,1.8-4.6,0.9-6.3
	c-0.1-0.1-0.1-0.3-0.3-0.4c0.5-3.9,1-10.5-1-13.4c-2.8-4.3-9.3-4.5-11.4-4.7c-2.8-0.3-8-0.2-9.3,3c-6,0.6-5.3,10-4.4,15.1
	c-0.1,0.1-0.1,0.2-0.2,0.4c-0.9,1.8-0.5,5.6,0.9,6.3c0.6,0.3,1.1,0.4,1.3,0.3c0.3,2.9,0.9,6.1,1.6,7.3c0.5,0.7,1.4,1.6,2.6,2.3
	c0.1,2.6-0.1,7-1.6,7.7c-2.1,0.9-4.3,2.5-8,4.1c-1.5,0.6-3.9,1-6,1.4c-1.8,0.2-6.1-0.3-10,4.8c-3.6,4.7-1.9,11.1-3.6,17.8
	C4.4,144.4,7.8,153,6.7,157s-3.4,10.5-3.8,16s-1.4,18.4-1.4,18.4l0,0l-0.3,2.1c0,0-1,5.3-1.2,7.8c-0.1,1.6,0.2,4.1,1.3,6.3
	c1.9,3.8,5.8,6.6,5.8,6.6c0.5,0.6,3.5,0.9,1.9-1.3c-3.2-4.2-3.6-7-3.6-7s-0.4-3.4,0.6-3.4c0.8-0.1,1.6,1.7,1.9,2.6
	c0.6,1.6,0.8,4.2,1.9,3.6c0.4-0.2,0.3-0.7,0.2-1.7c0-0.5,0.1-1.4,0.1-1.9c-0.1-0.4-0.6-2.7-0.9-3.4c-0.2-0.7-1.1-3.4-1.4-4.1
	c-0.3-0.8-0.6-2.2-0.5-3.3s1.9-7.4,2.8-9.3c0.6-1.4,6.9-9.9,8-26.8c0.3-4,1.3-9.6,1.9-15c0.5,2.5,0.9,4.9,1,6.8
	c0.2,5.6,1.9,13.7,1.4,17.9c-1.1,9.7-3.6,9.4-3.6,25.3c0,10.5-0.4,30,5,53.3c0.8,3.4,0.1,8.1-0.4,11.6c-0.8,6.6,1.1,15.3,5.1,35.2
	c3.8,19.1-7.9,16.9-5.9,21.4c0.9,1.9,11.6,1.3,15,1.1c1-0.1,1.8-0.9,1.9-1.8c0.1-1-0.4-2.1-1.4-5.1c-1.1-3.4-0.6-8.5-0.6-8.5
	s2.1-31,2.1-35.5c0-5-0.4-8.3-0.7-10.3c-0.3-1.7-0.4-3.4,0-5.1c3.1-14,3.1-49.6,3.1-49.6h3.3c0,0,0.1,35.6,3.1,49.6
	c0.4,1.7,0.3,3.4,0,5.1c-0.4,2-0.7,5.3-0.7,10.3c0,4.4,2.1,35.5,2.1,35.5s0.4,5.1-0.6,8.5c-0.9,2.9-1.4,4.1-1.4,5.1
	c0.1,1,0.9,1.8,1.9,1.8c3.3,0.1,14.1,0.7,15-1.1c2-4.5-9.8-2.3-5.9-21.4c4.1-19.9,5.9-28.6,5.1-35.2c-0.4-3.5-1.1-8.2-0.4-11.6
	c5.4-23.2,5-42.8,5-53.3c0-16-2.5-15.7-3.6-25.3c-0.5-4.1,1.2-12.3,1.4-17.9c0.1-1.9,0.5-4.3,1-6.8c0.6,5.4,1.6,11.1,1.9,15
	c1.1,16.9,7.8,25.9,8.4,27.1c0.6,1.6,2.4,7.8,2.4,9c0.1,1.1-0.2,2.5-0.5,3.3c-0.2,0.7-1.2,3.4-1.4,4.1c-0.2,0.7-0.8,2.9-0.9,3.4
	s0.1,1.4,0.1,1.9c-0.1,1-0.2,1.5,0.2,1.7c1.1,0.5,1.4-2,1.9-3.6c0.3-0.9,1.1-2.6,1.9-2.6c0.9,0.1,0.6,3.4,0.6,3.4s-0.4,2.8-3.6,7
	c-1.6,2.1,1.4,1.9,1.9,1.3c0,0,3.8-2.9,5.8-6.6C87.1,205.6,87.4,203.1,87.3,201.4z"/>
<linearGradient id="SVGID_2_" gradientUnits="userSpaceOnUse" x1="362.2534" y1="316.2416" x2="362.2534" y2="63.5641">
	<stop  offset="5.000000e-04" style="stop-color:#009632;stop-opacity:0.3"/>
	<stop  offset="1" style="stop-color:#009632"/>
</linearGradient>
<path class="st1" d="M400,201.6c-0.1-2.5-1-7.8-1-7.8l-0.2-2.1l0.1,0.1c0,0-0.6-13-0.8-18.5s-2.5-13-3.4-17
	c-0.9-4.1-1.2-12-1.1-21.5c0.1-9.8-0.6-17.5-2.3-19.9c-2-2.8-6-3.8-7.5-4.2c-1.2-0.4-2.6-0.7-4-1.1c0,0,0,0,0-0.1
	c1.8-4.6,1.8-9.8,0.1-14.5c-0.5-1.4-1.1-2.6-1.4-4.1c-0.5-2.1-0.3-4.3-0.4-6.5c-0.1-3.8-0.4-8.7-2.3-12.2c-1.5-2.8-3.7-5.7-7.1-6
	c-0.8-0.1-1.1,0.1-1.8-0.3c-0.7-0.4-2.2-1.7-4.5-2.1c-6.8-1.1-12.6,2.9-15.4,9c-2.1,4.5-2.2,9.5-2.1,14.5c0.1,2.1,0.1,4.1-0.7,6
	c-1.2,2.7-4.2,4.2-5.9,6.6c-1.4,1.9-1.8,4.4-1.9,6.8c-0.1,1.6,0,3.1,0.4,4.6c-0.8,0.4-1.6,0.9-2.3,1.5l0,0l0,0
	c-0.1,0.1-0.2,0.2-0.4,0.4l0,0c-0.1,0.1-0.2,0.2-0.3,0.3l-0.1,0.1c-0.1,0.1-0.1,0.1-0.2,0.3c0,0.1-0.1,0.1-0.1,0.1
	c-0.1,0.1-0.2,0.3-0.3,0.4c-1.7,2.4-2.4,10.4-2.3,20.2c0.1,9.6-0.1,17.5-1.1,21.5c-0.9,4.1-3.3,11.5-3.4,17c0,0.1,0,0.2,0,0.4v0.1
	c0,0.1,0,0.3,0,0.4v0.1c0,0.1,0,0.2,0,0.4v0.1c0,0.1,0,0.3,0,0.4v0.1c0,0.1,0,0.3,0,0.4v0.1c0,0.1,0,0.3,0,0.4c0,0.1,0,0.1,0,0.1
	c0,0.1,0,0.3,0,0.4l0,0c0,0.1,0,0.4,0,0.5v0.1c0,0.1,0,0.4,0,0.5l0,0c0,0.2,0,0.4,0,0.6l0,0c0,0.4,0,0.7-0.1,1.1v0.1
	c0,0.6-0.1,1.1-0.1,1.8l0,0c0,0.2,0,0.4,0,0.6l0,0c-0.2,5.1-0.5,9.9-0.5,9.9l0,0l-0.2,2.1c0,0-0.9,5.3-1,7.8
	c-0.1,1.6,0.4,4.1,1.5,6.3c2.1,3.7,5.1,5.6,5.1,5.6c0.5,0.5,3.5,0.7,1.9-1.4c-3.3-4.1-2.9-6.1-2.9-6.1s-0.5-3.4,0.4-3.5
	c0.8-0.1,1.7,1.6,2,2.6c0.6,1.6,1,4.1,2.1,3.6c0.4-0.2,0.2-0.7,0.1-1.7c-0.1-0.5,0.1-1.4,0-1.9c-0.1-0.4-0.7-2.7-0.9-3.3
	c-0.2-0.7-1.3-3.3-1.6-4.1c-0.4-0.8-0.6-2.2-0.6-3.3c0-1.1,1.8-7.8,2.1-9c0.3-1.3,7.5-19.9,7.5-27.5c0-3.8,0.3-9.6,0.5-15.1
	c0.7,3.8,1.6,8.1,2.1,10c0.8,2.6,1.1,8.8-1.1,13.2c-0.1,0.3-0.3,0.5-0.4,0.8c-0.6,1.1-1.3,2.2-1.8,3.3c-5.3,10.4-5.8,19.4-5.8,25.9
	c0,1.1,0.1,2.1,0.1,3.4l0,0c0-0.1,0-0.3,0-0.4c0.3,3.9,1.1,9.3,2.6,18.4c-0.1-0.6-0.2-0.9-0.2-0.9c1.2,7.3,3,16.9,5.4,30.3
	c0.6,3.4,0.8,6.9,0.5,10.4c-0.6,6.4,0.1,15.6,4.1,35.5c1.6,8.1,0.9,12.6-0.5,15.4l0,0c-1.9,3.9-4.9,4.4-3.9,7
	c1.6,1.9,9.3,1.2,12.6,1.1c0.9-0.1,1.7-0.1,2.2-1.4c0.4-0.9,0.4-1.5-1.2-5.3c-1-2.3-0.9-6.1-0.9-6.1s2.4-33.3,2.4-38.1
	c0-4.6-0.3-7.9-0.6-10c-0.4-2.1-0.4-4.1-0.1-6.2c0.4-3.1,0.7-7.3,1.1-12c0,0.1,0,0.3,0,0.4c1.9-23.9,2.3-39.4,2.3-39.4h2.8l-0.1,0.1
	c0,0,0.9,36,3.1,51.1c0.3,2,0.3,4.1,0,6.1c-0.3,2.1-0.6,5.3-0.6,9.9c0,4.4,2.1,35.5,2.1,35.5s0.3,3.6-0.2,6.8
	c-0.1,0.2-0.1,0.4-0.1,0.6c0,0,0.1-0.4,0.2-0.9c-0.1,0.6-0.2,1.3-0.4,1.9c-0.9,2.9-1.4,4.1-1.4,5.1c0.1,1,0.9,1.8,1.9,1.8
	c3.3,0.1,12,0.9,12.9-1c2.1-4.5-9.2-3.1-4.4-22.5c4.8-19.7,5.3-29,4.5-35.5c-0.4-3.5-0.4-7,0.1-10.5c4.3-28.3,8.7-40.9,8.7-51.5
	c0-8.1-0.6-13.4-1.9-17.6l0,0c-0.1-0.3-0.1-0.6-0.3-0.9l0,0c-0.3-0.9-0.6-1.6-0.9-2.4l0,0c-0.1-0.3-0.2-0.5-0.3-0.8l0,0
	c-0.2-0.5-0.4-1-0.7-1.5l0,0c-0.1-0.2-0.2-0.5-0.4-0.7c0,0,0,0,0-0.1c-0.1-0.2-0.2-0.5-0.4-0.7c0,0,0,0,0-0.1
	c-0.3-0.5-0.5-1-0.8-1.5c0,0,0,0,0-0.1c-0.1-0.2-0.3-0.5-0.4-0.7v-0.1c-0.1-0.2-0.3-0.5-0.4-0.7v-0.1c-0.1-0.3-0.3-0.5-0.4-0.8
	c-2-3.5-1.9-10-1.3-14c0-0.1,0.1-0.2,0.1-0.4v-0.1c0-0.1,0.1-0.2,0.1-0.4v-0.1c0-0.1,0.1-0.2,0.1-0.4V151c0-0.1,0.1-0.3,0.1-0.4
	v-0.1c0-0.1,0.1-0.3,0.1-0.4c0,0,0,0,0-0.1c0-0.1,0.1-0.3,0.1-0.5v-0.1c0-0.1,0.1-0.4,0.1-0.5l0,0c0.1-0.1,0.1-0.4,0.1-0.5v-0.1
	c0.1-0.1,0.1-0.4,0.1-0.6v-0.1c0.1-0.1,0.1-0.4,0.1-0.5v-0.1c0.1-0.2,0.1-0.4,0.1-0.6v-0.1c0.1-0.2,0.1-0.4,0.1-0.6l0,0
	c0.1-0.2,0.1-0.4,0.1-0.6c0-0.1,0-0.1,0-0.1c0.1-0.2,0.1-0.4,0.1-0.6c0,0,0,0,0-0.1c0.1-0.2,0.1-0.4,0.1-0.6c0-0.1,0-0.1,0-0.1
	c0-0.1,0.1-0.2,0.1-0.3c0,0.2,0,0.4,0,0.6c0,0.1,0,0.1,0,0.1c0,0.3,0,0.6,0.1,0.9v0.1c0,0.3,0,0.6,0.1,0.9v0.1c0,0.3,0,0.6,0.1,0.9
	c0,0.1,0,0.1,0,0.1c0,0.3,0,0.6,0.1,0.9v0.1c0,0.3,0,0.6,0.1,0.9v0.1c0,0.3,0,0.6,0,0.9l0,0c0,0.3,0,0.6,0,0.9v0.1
	c0,0.3,0,0.6,0,0.9v0.1c0,0.3,0,0.6,0,0.8c0,0.1,0,0.1,0,0.1c0,0.3,0,0.5,0,0.8c0,0.1,0,0.1,0,0.1c0,0.3,0,0.5,0,0.7
	c0,0.1,0,0.1,0,0.1c0,0.2,0,0.5,0,0.7c0,0.1,0,0.1,0,0.1c0,0.2,0,0.4,0,0.7v0.1c0,0.2,0,0.4,0,0.6v0.1c0,0.2,0,0.4,0,0.6
	c0,0.1,0,0.4,0,0.5v0.1c0,0.1,0,0.4,0,0.5v0.1c0,0.2,0,0.4,0.1,0.6v0.1c0,0.2,0.1,0.4,0.1,0.6v0.1c0,0.2,0.1,0.4,0.1,0.6
	c0,0.1,0,0.1,0,0.1c0,0.2,0.1,0.4,0.1,0.6c0,0.1,0,0.1,0,0.1c0.1,0.2,0.1,0.4,0.1,0.7l0,0c0.1,0.2,0.1,0.4,0.1,0.7
	c0,0.1,0,0.1,0,0.1c0.1,0.2,0.1,0.4,0.1,0.7c0,0.1,0,0.1,0,0.1c0.1,0.2,0.1,0.5,0.1,0.7v0.1c0.1,0.2,0.1,0.5,0.1,0.7v0.1
	c0.1,0.2,0.1,0.5,0.2,0.7c0,0.1,0,0.1,0.1,0.1c0.1,0.2,0.1,0.5,0.2,0.7c0,0.1,0,0.1,0,0.1c0.1,0.3,0.1,0.5,0.2,0.8c0,0,0,0,0,0.1
	c0.1,0.3,0.1,0.5,0.2,0.8c0,0.1,0,0.1,0,0.1c0.1,0.3,0.1,0.5,0.2,0.8c0,0.1,0,0.1,0.1,0.1c0.1,0.3,0.1,0.5,0.2,0.8
	c0,0.1,0,0.1,0,0.1c0.1,0.3,0.1,0.5,0.2,0.8v0.1c0.1,0.3,0.1,0.5,0.2,0.8c0,0.1,0,0.1,0.1,0.1c0.1,0.2,0.1,0.5,0.2,0.7
	c0,0.1,0,0.1,0.1,0.1c0.1,0.3,0.1,0.5,0.2,0.8c0,0,0,0,0,0.1c0.1,0.2,0.1,0.5,0.2,0.7c0,0.1,0,0.1,0,0.1c0.1,0.2,0.1,0.5,0.2,0.7
	c0,0.1,0,0.1,0.1,0.1c0.1,0.2,0.1,0.5,0.2,0.7v0.1c0.1,0.2,0.1,0.4,0.2,0.7c0,0,0,0,0,0.1c0.1,0.2,0.1,0.4,0.2,0.6
	c0,0.1,0,0.1,0.1,0.1c0.1,0.2,0.1,0.4,0.2,0.6c0,0.1,0,0.1,0.1,0.1c0.1,0.2,0.1,0.4,0.2,0.6v0.1c0.1,0.2,0.1,0.4,0.2,0.6v0.1
	c0.1,0.2,0.1,0.4,0.2,0.6c0,0.1,0,0.1,0.1,0.1c0.1,0.2,0.1,0.4,0.2,0.5v0.1c0.1,0.1,0.1,0.4,0.1,0.5l0,0c0.6,1.6,1.1,3.3,1.5,5l0,0
	c0.1,0.3,0.1,0.6,0.2,0.9c0,0.1,0,0.1,0,0.1c0.1,0.2,0.1,0.4,0.1,0.7c0,0.1,0.1,0.1,0.1,0.2c0.1,0.2,0.1,0.4,0.1,0.6
	c0,0.1,0,0.1,0.1,0.2c0.1,0.2,0.1,0.5,0.1,0.7c0,0,0,0,0,0.1l0.3,1.4c0.2,0.9,0.4,1.7,0.5,2.3c0.3,1.7-0.4,2.6-0.6,3.3
	c-0.2,0.7-1.4,3.3-1.6,4.1c-0.2,0.7-0.9,2.9-0.9,3.3c-0.1,0.5,0.1,1.4,0,1.9c-0.1,1-0.3,1.5,0.1,1.7c1.1,0.6,1.4-2,2.1-3.6
	c0.4-0.9,1.2-2.6,2-2.6c0.9,0.1,0.4,3.5,0.4,3.5s0.4,1.9-2.9,6.1c-1.7,2.1,1.3,1.9,1.9,1.4c0,0,3.1-1.9,5.1-5.6
	C399.6,205.7,400.1,203.2,400,201.6z"/>
<linearGradient id="SVGID_3_" gradientUnits="userSpaceOnUse" x1="256.0508" y1="316.2133" x2="256.0508" y2="62.9893">
	<stop  offset="0" style="stop-color:#FFC000;stop-opacity:0.3"/>
	<stop  offset="1" style="stop-color:#FFC000"/>
</linearGradient>
<path class="st2" d="M299.7,201.4c-0.2-2.5-1.2-7.8-1.2-7.8l-0.3-2.1l0,0c0,0-1.1-12.9-1.4-18.4c-0.4-5.5-2.7-12-3.8-16
	s2.3-12.7-0.7-23.5c-1.8-6.8,0-13.1-3.6-17.8c-4-5.1-8.3-4.6-10-4.8l0,0c-2.1-0.4-4.5-0.7-6-1.4c-3.6-1.6-5.9-3.1-8-4.1
	c-1.5-0.6-1.6-5.1-1.6-7.7c1.2-0.8,2.1-1.6,2.6-2.3c0.7-1.1,1.3-4.3,1.6-7.3c0.3,0.1,0.6,0,1.2-0.3c1.4-0.6,1.8-4.6,0.9-6.3
	c-0.1-0.1-0.1-0.3-0.3-0.4c0.5-3.9,1-10.5-1-13.4c-2.8-4.3-9.3-4.5-11.4-4.7c-2.8-0.3-8-0.2-9.3,3c-6,0.6-5.3,10-4.4,15.1
	c-0.1,0.1-0.1,0.2-0.2,0.4c-0.9,1.8-0.5,5.6,0.9,6.3c0.6,0.3,1.1,0.4,1.3,0.3c0.3,2.9,0.9,6.1,1.6,7.3c0.5,0.7,1.4,1.6,2.6,2.3
	c0.1,2.6-0.1,7-1.6,7.7c-2.1,0.9-4.3,2.5-8,4.1c-1.5,0.6-3.9,1-6,1.4c-1.8,0.2-6.1-0.3-10,4.8c-3.6,4.7-1.9,11.1-3.6,17.8
	c-3.1,10.9,0.4,19.5-0.7,23.5s-3.4,10.5-3.8,16s-1.4,18.4-1.4,18.4l0,0l-0.3,2.1c0,0-1,5.3-1.2,7.8c-0.1,1.6,0.2,4.1,1.3,6.3
	c1.9,3.8,5.8,6.6,5.8,6.6c0.5,0.6,3.5,0.9,1.9-1.3c-3.2-4.2-3.6-7-3.6-7s-0.4-3.4,0.6-3.4c0.8-0.1,1.6,1.7,1.9,2.6
	c0.6,1.6,0.8,4.2,1.9,3.6c0.4-0.2,0.3-0.7,0.2-1.7c0-0.5,0.1-1.4,0.1-1.9c-0.1-0.4-0.6-2.7-0.9-3.4c-0.2-0.7-1.1-3.4-1.4-4.1
	c-0.3-0.8-0.6-2.2-0.5-3.3c0.1-1.1,1.9-7.4,2.8-9.3c0.6-1.4,6.9-9.9,8-26.8c0.3-4,1.3-9.6,1.9-15c0.5,2.5,0.9,4.9,1,6.8
	c0.2,5.6,1.9,13.7,1.4,17.9c-1.1,9.7-3.6,9.4-3.6,25.3c0,10.5-0.4,30,5,53.3c0.8,3.4,0.1,8.1-0.4,11.6c-0.8,6.6,1.1,15.3,5.1,35.2
	c3.8,19.1-7.9,16.9-5.9,21.4c0.9,1.9,11.6,1.3,15,1.1c1-0.1,1.8-0.9,1.9-1.8c0.1-1-0.4-2.1-1.4-5.1c-1.1-3.4-0.6-8.5-0.6-8.5
	s2.1-31,2.1-35.5c0-5-0.4-8.3-0.7-10.3c-0.3-1.7-0.4-3.4,0-5.1c3.1-14,3.1-49.6,3.1-49.6h3.3c0,0,0.1,35.6,3.1,49.6
	c0.4,1.7,0.3,3.4,0,5.1c-0.4,2-0.7,5.3-0.7,10.3c0,4.4,2.1,35.5,2.1,35.5s0.4,5.1-0.6,8.5c-0.9,2.9-1.4,4.1-1.4,5.1
	c0.1,1,0.9,1.8,1.9,1.8c3.3,0.1,14.1,0.7,15-1.1c2-4.5-9.8-2.3-5.9-21.4c4.1-19.9,5.9-28.6,5.1-35.2c-0.4-3.5-1.1-8.2-0.4-11.6
	c5.4-23.2,5-42.8,5-53.3c0-16-2.5-15.7-3.6-25.3c-0.5-4.1,1.2-12.3,1.4-17.9c0.1-1.9,0.5-4.3,1-6.8c0.6,5.4,1.6,11.1,1.9,15
	c1.1,16.9,7.8,25.9,8.4,27.1c0.6,1.6,2.4,7.8,2.4,9c0,1.1-0.2,2.5-0.5,3.3c-0.2,0.7-1.2,3.4-1.4,4.1c-0.2,0.7-0.8,2.9-0.9,3.4
	c-0.1,0.5,0.1,1.4,0.1,1.9c-0.1,1-0.2,1.5,0.2,1.7c1.1,0.5,1.4-2,1.9-3.6c0.3-0.9,1.1-2.6,1.9-2.6c0.9,0.1,0.6,3.4,0.6,3.4
	s-0.4,2.8-3.6,7c-1.6,2.1,1.4,1.9,1.9,1.3c0,0,3.8-2.9,5.8-6.6C299.5,205.6,299.8,203.1,299.7,201.4z"/>
<linearGradient id="SVGID_4_" gradientUnits="userSpaceOnUse" x1="149.8481" y1="316.2416" x2="149.8481" y2="63.5641">
	<stop  offset="0" style="stop-color:#FFC000;stop-opacity:0.3"/>
	<stop  offset="1" style="stop-color:#FFC000"/>
</linearGradient>
<path class="st3" d="M187.6,201.6c-0.1-2.5-1-7.8-1-7.8l-0.2-2.1l0.1,0.1c0,0-0.6-13-0.8-18.5s-2.5-13-3.4-17
	c-0.9-4.1-1.2-12-1.1-21.5c0.1-9.8-0.6-17.5-2.3-19.9c-2-2.8-6-3.8-7.5-4.2c-1.2-0.4-2.6-0.7-4-1.1c0,0,0,0,0-0.1
	c1.8-4.6,1.8-9.8,0.1-14.5c-0.5-1.4-1.1-2.6-1.4-4.1c-0.5-2.1-0.3-4.3-0.4-6.5c-0.1-3.8-0.4-8.7-2.3-12.2c-1.5-2.8-3.7-5.7-7.1-6
	c-0.8-0.1-1.1,0.1-1.8-0.3c-0.7-0.4-2.2-1.7-4.5-2.1c-6.8-1.1-12.6,2.9-15.4,9c-2.1,4.5-2.2,9.5-2.1,14.5c0.1,2.1,0.1,4.1-0.7,6
	c-1.2,2.7-4.2,4.2-5.9,6.6c-1.4,1.9-1.8,4.4-1.9,6.8c-0.1,1.6,0,3.1,0.4,4.6c-0.8,0.4-1.6,0.9-2.3,1.5l0,0l0,0
	c-0.1,0.1-0.2,0.2-0.4,0.4l0,0c-0.1,0.1-0.2,0.2-0.3,0.3l-0.1,0.1c-0.1,0.1-0.1,0.1-0.2,0.3c0,0.1-0.1,0.1-0.1,0.1
	c-0.1,0.1-0.2,0.3-0.3,0.4c-1.7,2.4-2.4,10.4-2.3,20.2c0.1,9.6-0.1,17.5-1.1,21.5c-0.9,4.1-3.3,11.5-3.4,17c0,0.1,0,0.2,0,0.4v0.1
	c0,0.1,0,0.3,0,0.4v0.1c0,0.1,0,0.2,0,0.4v0.1c0,0.1,0,0.3,0,0.4v0.1c0,0.1,0,0.3,0,0.4v0.1c0,0.1,0,0.3,0,0.4c0,0.1,0,0.1,0,0.1
	c0,0.1,0,0.3,0,0.4l0,0c0,0.1,0,0.4,0,0.5v0.1c0,0.1,0,0.4,0,0.5l0,0c0,0.2,0,0.4,0,0.6l0,0c0,0.4,0,0.7-0.1,1.1v0.1
	c0,0.6-0.1,1.1-0.1,1.8l0,0c0,0.2,0,0.4,0,0.6l0,0c-0.2,5.1-0.5,9.9-0.5,9.9l0,0l-0.2,2.1c0,0-0.9,5.3-1,7.8
	c-0.1,1.6,0.4,4.1,1.5,6.3c2.1,3.7,5.1,5.6,5.1,5.6c0.5,0.5,3.5,0.7,1.9-1.4c-3.3-4.1-2.9-6.1-2.9-6.1s-0.5-3.4,0.4-3.5
	c0.8-0.1,1.7,1.6,2,2.6c0.6,1.6,1,4.1,2.1,3.6c0.4-0.2,0.2-0.7,0.1-1.7c-0.1-0.5,0.1-1.4,0-1.9c-0.1-0.4-0.7-2.7-0.9-3.3
	c-0.2-0.7-1.3-3.3-1.6-4.1c-0.4-0.8-0.6-2.2-0.6-3.3c0-1.1,1.8-7.8,2.1-9c0.3-1.3,7.5-19.9,7.5-27.5c0-3.8,0.3-9.6,0.5-15.1
	c0.7,3.8,1.6,8.1,2.1,10c0.8,2.6,1.1,8.8-1.1,13.2c-0.1,0.3-0.3,0.5-0.4,0.8c-0.6,1.1-1.3,2.2-1.8,3.3c-5.3,10.4-5.8,19.4-5.8,25.9
	c0,1.1,0.1,2.1,0.1,3.4l0,0c0-0.1,0-0.3,0-0.4c0.3,3.9,1.1,9.3,2.6,18.4c-0.1-0.6-0.2-0.9-0.2-0.9c1.2,7.3,3,16.9,5.4,30.3
	c0.6,3.4,0.8,6.9,0.5,10.4c-0.6,6.4,0.1,15.6,4.1,35.5c1.6,8.1,0.9,12.6-0.5,15.4l0,0c-1.9,3.9-4.9,4.4-3.9,7
	c1.6,1.9,9.3,1.2,12.6,1.1c0.9-0.1,1.7-0.1,2.2-1.4c0.4-0.9,0.4-1.5-1.2-5.3c-1-2.3-0.9-6.1-0.9-6.1s2.4-33.3,2.4-38.1
	c0-4.6-0.3-7.9-0.6-10c-0.4-2.1-0.4-4.1-0.1-6.2c0.4-3.1,0.7-7.3,1.1-12c0,0.1,0,0.3,0,0.4c1.9-23.9,2.3-39.4,2.3-39.4h2.8L151,198
	c0,0,0.9,36,3.1,51.1c0.3,2,0.3,4.1,0,6.1c-0.3,2.1-0.6,5.3-0.6,9.9c0,4.4,2.1,35.5,2.1,35.5s0.3,3.6-0.2,6.8
	c-0.1,0.2-0.1,0.4-0.1,0.6c0,0,0.1-0.4,0.2-0.9c-0.1,0.6-0.2,1.3-0.4,1.9c-0.9,2.9-1.4,4.1-1.4,5.1c0.1,1,0.9,1.8,1.9,1.8
	c3.3,0.1,12,0.9,12.9-1c2.1-4.5-9.2-3.1-4.4-22.5c4.8-19.7,5.3-29,4.5-35.5c-0.4-3.5-0.4-7,0.1-10.5c4.3-28.3,8.7-40.9,8.7-51.5
	c0-8.1-0.6-13.4-1.9-17.6l0,0c-0.1-0.3-0.1-0.6-0.3-0.9l0,0c-0.3-0.9-0.6-1.6-0.9-2.4l0,0c-0.1-0.3-0.2-0.5-0.3-0.8l0,0
	c-0.2-0.5-0.4-1-0.7-1.5l0,0c-0.1-0.2-0.2-0.5-0.4-0.7c0,0,0,0,0-0.1c-0.1-0.2-0.2-0.5-0.4-0.7c0,0,0,0,0-0.1
	c-0.3-0.5-0.5-1-0.8-1.5c0,0,0,0,0-0.1c-0.1-0.2-0.3-0.5-0.4-0.7v-0.1c-0.1-0.2-0.3-0.5-0.4-0.7v-0.1c-0.1-0.3-0.3-0.5-0.4-0.8
	c-2-3.5-1.9-10-1.3-14c0-0.1,0.1-0.2,0.1-0.4v-0.1c0-0.1,0.1-0.2,0.1-0.4v-0.1c0-0.1,0.1-0.2,0.1-0.4V151c0-0.1,0.1-0.3,0.1-0.4
	v-0.1c0-0.1,0.1-0.3,0.1-0.4c0,0,0,0,0-0.1c0-0.1,0.1-0.3,0.1-0.5v-0.1c0-0.1,0.1-0.4,0.1-0.5l0,0c0.1-0.1,0.1-0.4,0.1-0.5v-0.1
	c0.1-0.1,0.1-0.4,0.1-0.6v-0.1c0.1-0.1,0.1-0.4,0.1-0.5v-0.1c0.1-0.2,0.1-0.4,0.1-0.6v-0.1c0.1-0.2,0.1-0.4,0.1-0.6l0,0
	c0.1-0.2,0.1-0.4,0.1-0.6c0-0.1,0-0.1,0-0.1c0.1-0.2,0.1-0.4,0.1-0.6c0,0,0,0,0-0.1c0.1-0.2,0.1-0.4,0.1-0.6c0-0.1,0-0.1,0-0.1
	c0-0.1,0.1-0.2,0.1-0.3c0,0.2,0,0.4,0,0.6c0,0.1,0,0.1,0,0.1c0,0.3,0,0.6,0.1,0.9v0.1c0,0.3,0,0.6,0.1,0.9v0.1c0,0.3,0,0.6,0.1,0.9
	c0,0.1,0,0.1,0,0.1c0,0.3,0,0.6,0.1,0.9v0.1c0,0.3,0,0.6,0.1,0.9v0.1c0,0.3,0,0.6,0,0.9l0,0c0,0.3,0,0.6,0,0.9v0.1
	c0,0.3,0,0.6,0,0.9v0.1c0,0.3,0,0.6,0,0.8c0,0.1,0,0.1,0,0.1c0,0.3,0,0.5,0,0.8c0,0.1,0,0.1,0,0.1c0,0.3,0,0.5,0,0.7
	c0,0.1,0,0.1,0,0.1c0,0.2,0,0.5,0,0.7c0,0.1,0,0.1,0,0.1c0,0.2,0,0.4,0,0.7v0.1c0,0.2,0,0.4,0,0.6v0.1c0,0.2,0,0.4,0,0.6
	c0,0.1,0,0.4,0,0.5v0.1c0,0.1,0,0.4,0,0.5v0.1c0,0.2,0,0.4,0.1,0.6v0.1c0,0.2,0.1,0.4,0.1,0.6v0.1c0,0.2,0.1,0.4,0.1,0.6
	c0,0.1,0,0.1,0,0.1c0,0.2,0.1,0.4,0.1,0.6c0,0.1,0,0.1,0,0.1c0.1,0.2,0.1,0.4,0.1,0.7l0,0c0.1,0.2,0.1,0.4,0.1,0.7
	c0,0.1,0,0.1,0,0.1c0.1,0.2,0.1,0.4,0.1,0.7c0,0.1,0,0.1,0,0.1c0.1,0.2,0.1,0.5,0.1,0.7v0.1c0.1,0.2,0.1,0.5,0.1,0.7v0.1
	c0.1,0.2,0.1,0.5,0.2,0.7c0,0.1,0,0.1,0.1,0.1c0.1,0.2,0.1,0.5,0.2,0.7c0,0.1,0,0.1,0,0.1c0.1,0.3,0.1,0.5,0.2,0.8c0,0,0,0,0,0.1
	c0.1,0.3,0.1,0.5,0.2,0.8c0,0.1,0,0.1,0,0.1c0.1,0.3,0.1,0.5,0.2,0.8c0,0.1,0,0.1,0.1,0.1c0.1,0.3,0.1,0.5,0.2,0.8
	c0,0.1,0,0.1,0,0.1c0.1,0.3,0.1,0.5,0.2,0.8v0.1c0.1,0.3,0.1,0.5,0.2,0.8c0,0.1,0,0.1,0.1,0.1c0.1,0.2,0.1,0.5,0.2,0.7
	c0,0.1,0,0.1,0.1,0.1c0.1,0.3,0.1,0.5,0.2,0.8c0,0,0,0,0,0.1c0.1,0.2,0.1,0.5,0.2,0.7c0,0.1,0,0.1,0,0.1c0.1,0.2,0.1,0.5,0.2,0.7
	c0,0.1,0,0.1,0.1,0.1c0.1,0.2,0.1,0.5,0.2,0.7v0.1c0.1,0.2,0.1,0.4,0.2,0.7c0,0,0,0,0,0.1c0.1,0.2,0.1,0.4,0.2,0.6
	c0,0.1,0,0.1,0.1,0.1c0.1,0.2,0.1,0.4,0.2,0.6c0,0.1,0,0.1,0.1,0.1c0.1,0.2,0.1,0.4,0.2,0.6v0.1c0.1,0.2,0.1,0.4,0.2,0.6v0.1
	c0.1,0.2,0.1,0.4,0.2,0.6c0,0.1,0,0.1,0.1,0.1c0.1,0.2,0.1,0.4,0.2,0.5v0.1c0.1,0.1,0.1,0.4,0.1,0.5l0,0c0.6,1.6,1.1,3.3,1.5,5l0,0
	c0.1,0.3,0.1,0.6,0.2,0.9c0,0.1,0,0.1,0,0.1c0.1,0.2,0.1,0.4,0.1,0.7c0,0.1,0.1,0.1,0.1,0.2c0.1,0.2,0.1,0.4,0.1,0.6
	c0,0.1,0,0.1,0.1,0.2c0.1,0.2,0.1,0.5,0.1,0.7c0,0,0,0,0,0.1l0.3,1.4c0.2,0.9,0.4,1.7,0.5,2.3c0.3,1.7-0.4,2.6-0.6,3.3
	c-0.2,0.7-1.4,3.3-1.6,4.1c-0.2,0.7-0.9,2.9-0.9,3.3c-0.1,0.5,0.1,1.4,0,1.9c-0.1,1-0.3,1.5,0.1,1.7c1.1,0.6,1.4-2,2.1-3.6
	c0.4-0.9,1.2-2.6,2-2.6c0.9,0.1,0.4,3.5,0.4,3.5s0.4,1.9-2.9,6.1c-1.7,2.1,1.3,1.9,1.9,1.4c0,0,3.1-1.9,5.1-5.6
	C187.2,205.8,187.7,203.2,187.6,201.6z"/>
<text transform="matrix(1 0 0 1 5.8353 25.2715)"><tspan x="0" y="0" class="st4 st5 st6">2</tspan><tspan x="15.9" y="0" class="st4 st5 st6 st7">7</tspan><tspan x="28.5" y="0" class="st4 st5 st6">.</tspan><tspan x="36.4" y="0" class="st4 st5 st6">1</tspan><tspan x="52.9" y="0" class="st4 st5 st8">%</tspan><tspan x="-1.6" y="14.1" class="st4 st9 st10">kritischer Bereich</tspan></text>
<text transform="matrix(1 0 0 1 161.1826 25.2715)"><tspan x="0" y="0" class="st11 st5 st6">46.4</tspan><tspan x="55.6" y="0" class="st11 st5 st8">%</tspan><tspan x="0.6" y="14.1" class="st11 st9 st10">sensibler Bereich</tspan></text>
<text transform="matrix(1 0 0 1 323.0923 25.2715)"><tspan x="0" y="0" class="st12 st5 st6">26.5</tspan><tspan x="55.6" y="0" class="st12 st5 st8">%</tspan><tspan x="5.9" y="14.1" class="st12 st9 st10">grüner Bereich</tspan></text>
</svg>
