<?xml version="1.0" encoding="utf-8"?>
<!-- Generator: Adobe Illustrator 22.0.0, SVG Export Plug-In . SVG Version: 6.00 Build 0)  -->
<svg version="1.1" id="Layer_1" xmlns="http://www.w3.org/2000/svg" xmlns:xlink="http://www.w3.org/1999/xlink" x="0px" y="0px"
	 viewBox="0 0 360 360" style="enable-background:new 0 0 360 360;" xml:space="preserve">
<style type="text/css">
	.st0{opacity:0.6;}
</style>
<g class="st0">
	<path d="M150.1,175.2c-0.2,0.1-0.4,0.3-0.6,0.4s-0.5,0.2-0.8,0.3s-0.5,0.1-0.8,0.2c-0.3,0-0.5,0.1-0.7,0.1s-0.6,0-1.3,0
		c-0.6,0-1.5,0-2.5-0.1l-0.1-0.1v-12.2l0.1-0.1c1.1,0,2.3-0.1,3.7-0.1c0.9,0,1.7,0.2,2.4,0.5s1.1,0.8,1.5,1.3c0.4,0.6,0.7,1.2,0.8,2
		c0.2,0.8,0.2,1.6,0.2,2.5c0,0.6,0,1.2-0.1,1.7s-0.2,1-0.3,1.4s-0.3,0.8-0.6,1.2S150.4,174.9,150.1,175.2z M144.6,174.9h2.4
		c0.7,0,1.3-0.1,1.7-0.4c0.4-0.3,0.8-0.6,1.1-1.1s0.4-1,0.5-1.5s0.2-1.1,0.2-1.7c0-0.8,0-1.6-0.1-2.2c-0.1-0.7-0.3-1.3-0.5-1.8
		c-0.3-0.5-0.6-0.9-1.1-1.2s-1-0.4-1.7-0.4h-2.4L144.6,174.9L144.6,174.9z"/>
	<path d="M156.1,168.3v7.7c-0.2,0-0.4,0.1-0.7,0.1s-0.5,0-0.7-0.1v-7c0-0.3-0.1-0.6-0.2-0.7c-0.1-0.1-0.3-0.2-0.6-0.2h-0.2
		c0-0.1-0.1-0.3-0.1-0.5s0-0.4,0.1-0.5c0.2,0,0.4,0,0.6-0.1s0.3,0,0.3,0h0.1c0.4,0,0.7,0.1,0.9,0.4
		C156,167.6,156.1,167.9,156.1,168.3z M154.3,164c0.2-0.1,0.5-0.2,0.8-0.2c0.4,0,0.6,0.1,0.7,0.2c0.1,0.1,0.2,0.3,0.2,0.7
		s-0.1,0.6-0.2,0.7s-0.4,0.2-0.7,0.2s-0.5,0-0.7-0.1s-0.3-0.3-0.3-0.7C154.2,164.4,154.3,164.2,154.3,164z"/>
	<path d="M165.7,172h-5.6c0.1,2.1,0.8,3.1,2.3,3.1c0.8,0,1.7-0.3,2.6-0.8c0.3,0.2,0.4,0.6,0.5,0.9c-1,0.7-2.1,1-3.3,1
		c-0.6,0-1.2-0.1-1.6-0.4c-0.4-0.2-0.8-0.6-1.1-1s-0.5-0.9-0.6-1.5s-0.2-1.2-0.2-1.9s0.1-1.3,0.2-1.9c0.2-0.6,0.4-1.1,0.7-1.5
		s0.7-0.7,1.1-1s0.9-0.3,1.5-0.3s1.1,0.1,1.5,0.3s0.8,0.5,1.1,0.8s0.5,0.8,0.7,1.2c0.2,0.5,0.2,1,0.2,1.5c0,0.2,0,0.4,0,0.6
		S165.7,171.8,165.7,172z M160.1,170.9h4.3v-0.2c0-0.8-0.2-1.5-0.5-2c-0.4-0.5-0.9-0.8-1.6-0.8c-0.7,0-1.2,0.3-1.6,0.8
		C160.3,169.3,160.1,170,160.1,170.9z"/>
	<path d="M171.5,174.9c0-0.4,0.2-0.8,0.6-1.1c1.2,0.8,2.5,1.3,3.6,1.3c0.9,0,1.5-0.2,2-0.5c0.5-0.4,0.7-0.9,0.7-1.5
		c0-0.9-0.6-1.7-1.9-2.3l-2.1-0.9c-1.6-0.7-2.5-1.7-2.5-3.1c0-0.5,0.1-0.9,0.3-1.3c0.2-0.4,0.5-0.8,0.8-1.1s0.8-0.5,1.2-0.7
		c0.5-0.2,1-0.3,1.6-0.3c1.2,0,2.4,0.3,3.6,0.9c0,0.5-0.2,0.9-0.6,1.2c-0.6-0.3-1.1-0.5-1.6-0.7s-1-0.2-1.4-0.2s-0.7,0.1-1,0.2
		c-0.3,0.1-0.6,0.3-0.8,0.4c-0.2,0.2-0.4,0.4-0.5,0.6c-0.1,0.2-0.2,0.5-0.2,0.7c0,0.5,0.2,0.9,0.5,1.2s0.7,0.6,1.3,0.8l2.1,0.9
		c1.8,0.8,2.7,1.9,2.7,3.3c0,1.1-0.4,1.9-1.1,2.5c-0.7,0.6-1.8,1-3.3,1C174.2,176.2,172.8,175.8,171.5,174.9z"/>
	<path d="M184,168.3v7.7c-0.2,0-0.4,0.1-0.7,0.1s-0.5,0-0.7-0.1v-7c0-0.3-0.1-0.6-0.2-0.7c-0.1-0.1-0.3-0.2-0.6-0.2h-0.2
		c0-0.1-0.1-0.3-0.1-0.5s0-0.4,0.1-0.5c0.2,0,0.4,0,0.6-0.1c0.1,0,0.3,0,0.3,0h0.1c0.4,0,0.7,0.1,0.9,0.4
		C183.9,167.6,184,167.9,184,168.3z M182.2,164c0.2-0.1,0.5-0.2,0.8-0.2c0.4,0,0.6,0.1,0.7,0.2c0.1,0.1,0.2,0.3,0.2,0.7
		s-0.1,0.6-0.2,0.7s-0.4,0.2-0.7,0.2s-0.5,0-0.7-0.1s-0.3-0.3-0.3-0.7C182.1,164.4,182.2,164.2,182.2,164z"/>
	<path d="M194,169.8v4.5c0,0.7,0.1,1.2,0.2,1.5c-0.2,0.2-0.5,0.3-0.9,0.3c-0.5,0-0.7-0.3-0.7-0.9v-5c0-0.7-0.1-1.3-0.3-1.6
		s-0.5-0.5-1-0.5s-1,0.1-1.5,0.4c-0.5,0.3-1,0.6-1.3,1v6.5c-0.2,0-0.4,0.1-0.7,0.1s-0.5,0-0.7-0.1v-8.9l0.1-0.1h0.5
		c0.3,0,0.5,0.1,0.6,0.2c0.1,0.2,0.1,0.4,0.1,0.7v0.3c0.4-0.4,0.9-0.7,1.5-0.9s1.1-0.4,1.7-0.4c0.8,0,1.4,0.3,1.8,0.8
		S194,168.9,194,169.8z"/>
	<path d="M203.9,169.8v4.5c0,0.7,0.1,1.2,0.2,1.5c-0.2,0.2-0.5,0.3-0.9,0.3c-0.5,0-0.7-0.3-0.7-0.9v-5c0-0.7-0.1-1.3-0.3-1.6
		s-0.5-0.5-1-0.5s-1,0.1-1.5,0.4c-0.5,0.3-1,0.6-1.3,1v6.5c-0.2,0-0.4,0.1-0.7,0.1s-0.5,0-0.7-0.1v-8.9l0.1-0.1h0.5
		c0.3,0,0.5,0.1,0.6,0.2c0.1,0.2,0.1,0.4,0.1,0.7v0.3c0.4-0.4,0.9-0.7,1.5-0.9s1.1-0.4,1.7-0.4c0.8,0,1.4,0.3,1.8,0.8
		S203.9,168.9,203.9,169.8z"/>
	<path d="M213.4,172h-5.6c0.1,2.1,0.8,3.1,2.3,3.1c0.8,0,1.7-0.3,2.6-0.8c0.3,0.2,0.4,0.6,0.5,0.9c-1,0.7-2.1,1-3.3,1
		c-0.6,0-1.2-0.1-1.6-0.4c-0.4-0.2-0.8-0.6-1.1-1s-0.5-0.9-0.6-1.5s-0.2-1.2-0.2-1.9s0.1-1.3,0.2-1.9c0.2-0.6,0.4-1.1,0.7-1.5
		s0.7-0.7,1.1-1c0.4-0.2,0.9-0.3,1.5-0.3s1.1,0.1,1.5,0.3s0.8,0.5,1.1,0.8s0.5,0.8,0.7,1.2c0.2,0.5,0.2,1,0.2,1.5c0,0.2,0,0.4,0,0.6
		C213.5,171.6,213.5,171.8,213.4,172z M207.8,170.9h4.3v-0.2c0-0.8-0.2-1.5-0.5-2s-0.9-0.8-1.6-0.8c-0.7,0-1.2,0.3-1.6,0.8
		C208.1,169.3,207.8,170,207.8,170.9z"/>
	<path d="M129.6,188.8c0.7,0,1.5,0.2,2.3,0.7v-4.9l0.1-0.1h0.5c0.3,0,0.5,0.1,0.6,0.2s0.1,0.4,0.1,0.7v10c0,1,0.2,1.6,0.5,1.9
		c-0.1,0.3-0.3,0.6-0.6,0.7c-0.6-0.2-0.9-0.6-1.1-1.2c-0.8,0.9-1.6,1.3-2.7,1.3c-1.1,0-1.8-0.4-2.4-1.2c-0.5-0.8-0.8-2-0.8-3.4
		c0-0.7,0.1-1.4,0.3-2c0.2-0.6,0.4-1.1,0.8-1.5c0.3-0.4,0.7-0.7,1.1-0.9C128.7,188.9,129.1,188.8,129.6,188.8z M129.5,196.9
		c0.4,0,0.8-0.1,1.3-0.4s0.8-0.6,1.1-1v-4.8c-0.8-0.5-1.5-0.8-2.1-0.8s-1.1,0.3-1.6,0.9c-0.4,0.6-0.6,1.5-0.6,2.7s0.2,2.1,0.6,2.6
		C128.5,196.7,129,196.9,129.5,196.9z"/>
	<path d="M142.8,193.8h-5.6c0.1,2.1,0.8,3.1,2.3,3.1c0.8,0,1.7-0.3,2.6-0.8c0.3,0.2,0.4,0.6,0.5,0.9c-1,0.7-2.1,1-3.3,1
		c-0.6,0-1.2-0.1-1.6-0.4s-0.8-0.6-1.1-1s-0.5-0.9-0.6-1.5s-0.2-1.2-0.2-1.9s0.1-1.3,0.2-1.9c0.2-0.6,0.4-1.1,0.7-1.5s0.7-0.7,1.1-1
		s0.9-0.3,1.5-0.3s1.1,0.1,1.5,0.3s0.8,0.5,1.1,0.8s0.5,0.8,0.7,1.2c0.2,0.5,0.2,1,0.2,1.5c0,0.2,0,0.4,0,0.6
		C142.9,193.4,142.8,193.6,142.8,193.8z M137.2,192.8h4.3v-0.2c0-0.8-0.2-1.5-0.5-2c-0.4-0.5-0.9-0.8-1.6-0.8
		c-0.7,0-1.2,0.3-1.6,0.8S137.2,191.8,137.2,192.8z"/>
	<path d="M144.6,197.2c0-0.4,0.2-0.7,0.5-1c0.5,0.3,1,0.5,1.5,0.7s0.8,0.2,1.2,0.2c0.3,0,0.6,0,0.8-0.1s0.4-0.2,0.6-0.3
		c0.2-0.1,0.3-0.3,0.4-0.4c0.1-0.2,0.1-0.3,0.1-0.5c0-0.4-0.1-0.7-0.3-0.9s-0.6-0.5-1-0.6l-1-0.4c-0.8-0.3-1.4-0.7-1.8-1.1
		c-0.4-0.4-0.6-0.9-0.6-1.5c0-0.4,0.1-0.7,0.2-1c0.2-0.3,0.4-0.6,0.7-0.8s0.6-0.4,1-0.5s0.8-0.2,1.2-0.2c0.9,0,1.8,0.2,2.7,0.6
		c0,0.4-0.1,0.8-0.4,1.1c-0.5-0.2-0.9-0.4-1.3-0.4c-0.4-0.1-0.7-0.1-1-0.1c-0.6,0-1,0.1-1.3,0.4s-0.4,0.5-0.4,0.9s0.1,0.6,0.3,0.8
		s0.6,0.4,1,0.6l1.1,0.4c1.5,0.6,2.3,1.5,2.3,2.6c0,0.8-0.3,1.4-0.9,1.9c-0.6,0.4-1.5,0.7-2.5,0.7
		C146.6,198.1,145.6,197.8,144.6,197.2z"/>
	<path d="M157.4,197.8l1-12.4c0.2,0,0.5-0.1,0.9-0.1s0.7,0,0.9,0.1l2.1,6.4c0.1,0.3,0.3,0.8,0.4,1.5c0.2,0.7,0.3,1.1,0.3,1.2h0.1
		c0.2-0.8,0.4-1.7,0.7-2.7l2.1-6.4c0.3,0,0.6-0.1,0.9-0.1s0.7,0,0.9,0.1l1,12.4c-0.2,0.1-0.4,0.1-0.7,0.1c-0.2,0-0.5,0-0.7-0.1
		l-0.5-7.5c0-0.5-0.1-1.7-0.1-3.4h-0.1l-2.9,9c-0.3,0-0.5,0.1-0.7,0.1s-0.4,0-0.7-0.1l-2.9-9h-0.1c0,0.3,0,0.9-0.1,1.7
		c0,0.8-0.1,1.4-0.1,1.7l-0.5,7.5c-0.2,0-0.5,0.1-0.7,0.1S157.6,197.9,157.4,197.8z"/>
	<path d="M178.3,193.8h-5.6c0.1,2.1,0.8,3.1,2.3,3.1c0.8,0,1.7-0.3,2.6-0.8c0.3,0.2,0.4,0.6,0.5,0.9c-1,0.7-2.1,1-3.3,1
		c-0.6,0-1.2-0.1-1.6-0.4s-0.8-0.6-1.1-1s-0.5-0.9-0.6-1.5s-0.2-1.2-0.2-1.9s0.1-1.3,0.2-1.9c0.2-0.6,0.4-1.1,0.7-1.5s0.7-0.7,1.1-1
		s0.9-0.3,1.5-0.3s1.1,0.1,1.5,0.3s0.8,0.5,1.1,0.8s0.5,0.8,0.7,1.2c0.2,0.5,0.2,1,0.2,1.5c0,0.2,0,0.4,0,0.6
		C178.3,193.4,178.3,193.6,178.3,193.8z M172.7,192.8h4.3v-0.2c0-0.8-0.2-1.5-0.5-2c-0.4-0.5-0.9-0.8-1.6-0.8
		c-0.7,0-1.2,0.3-1.6,0.8S172.7,191.8,172.7,192.8z"/>
	<path d="M187.9,191.6v4.5c0,0.7,0.1,1.2,0.2,1.5c-0.2,0.2-0.5,0.3-0.9,0.3c-0.5,0-0.7-0.3-0.7-0.9v-5c0-0.7-0.1-1.3-0.3-1.6
		s-0.5-0.5-1-0.5s-1,0.1-1.5,0.4c-0.5,0.3-1,0.6-1.3,1v6.5c-0.2,0-0.4,0.1-0.7,0.1s-0.5,0-0.7-0.1V189l0.1-0.1h0.5
		c0.3,0,0.5,0.1,0.6,0.2c0.1,0.2,0.1,0.4,0.1,0.7v0.3c0.4-0.4,0.9-0.7,1.5-0.9s1.1-0.4,1.7-0.4c0.8,0,1.4,0.3,1.8,0.8
		S187.9,190.8,187.9,191.6z"/>
	<path d="M190,197.2c0-0.4,0.2-0.7,0.5-1c0.5,0.3,1,0.5,1.5,0.7c0.4,0.1,0.8,0.2,1.2,0.2c0.3,0,0.6,0,0.8-0.1s0.4-0.2,0.6-0.3
		c0.2-0.1,0.3-0.3,0.4-0.4c0.1-0.2,0.1-0.3,0.1-0.5c0-0.4-0.1-0.7-0.3-0.9s-0.6-0.5-1-0.6l-1-0.4c-0.8-0.3-1.4-0.7-1.8-1.1
		s-0.6-0.9-0.6-1.5c0-0.4,0.1-0.7,0.2-1c0.2-0.3,0.4-0.6,0.7-0.8s0.6-0.4,1-0.5s0.8-0.2,1.2-0.2c0.9,0,1.8,0.2,2.7,0.6
		c0,0.4-0.1,0.8-0.4,1.1c-0.5-0.2-0.9-0.4-1.3-0.4c-0.4-0.1-0.7-0.1-1-0.1c-0.6,0-1,0.1-1.3,0.4c-0.3,0.3-0.4,0.5-0.4,0.9
		s0.1,0.6,0.3,0.8s0.6,0.4,1,0.6l1.1,0.4c1.5,0.6,2.3,1.5,2.3,2.6c0,0.8-0.3,1.4-0.9,1.9c-0.6,0.4-1.5,0.7-2.5,0.7
		C192,198.1,191,197.8,190,197.2z"/>
	<path d="M203.7,192.1v-0.2c0-0.3,0-0.5-0.1-0.8s-0.2-0.5-0.3-0.7s-0.3-0.3-0.6-0.5c-0.2-0.1-0.5-0.2-0.9-0.2
		c-0.7,0-1.2,0.3-1.6,0.9c-0.4,0.6-0.6,1.5-0.6,2.7s0.2,2,0.6,2.6c0.4,0.6,0.9,0.9,1.6,0.9c0.7,0,1.5-0.3,2.5-1
		c0.3,0.2,0.5,0.5,0.6,0.9c-0.9,0.9-2,1.3-3.1,1.3c-0.6,0-1.1-0.1-1.5-0.3s-0.8-0.5-1.1-0.9s-0.5-0.9-0.7-1.4s-0.2-1.1-0.2-1.7
		c0-0.8,0.1-1.6,0.3-2.2c0.2-0.6,0.4-1.1,0.8-1.5c0.3-0.4,0.7-0.7,1.2-0.9c0.4-0.2,0.9-0.3,1.4-0.3s1,0.1,1.4,0.2
		c0.4,0.2,0.7,0.4,1,0.6s0.5,0.5,0.6,0.8s0.2,0.6,0.2,0.9c0,0.6-0.2,0.9-0.7,0.9C204.1,192.1,203.9,192.1,203.7,192.1z"/>
	<path d="M214.2,191.6v4.5c0,0.7,0.1,1.2,0.2,1.5c-0.2,0.2-0.5,0.3-0.9,0.3c-0.5,0-0.7-0.3-0.7-0.9v-5c0-0.7-0.1-1.3-0.3-1.6
		s-0.5-0.5-1-0.5s-1,0.1-1.5,0.4s-1,0.6-1.3,1v6.4c-0.2,0-0.4,0.1-0.7,0.1s-0.5,0-0.7-0.1v-13.3l0.1-0.1h0.5c0.3,0,0.5,0.1,0.6,0.2
		c0.1,0.1,0.1,0.4,0.1,0.7v4.7c0.4-0.4,0.9-0.7,1.5-0.9s1.1-0.4,1.7-0.4c0.8,0,1.4,0.3,1.8,0.8S214.2,190.8,214.2,191.6z"/>
	<path d="M223.7,193.8H218c0.1,2.1,0.8,3.1,2.3,3.1c0.8,0,1.7-0.3,2.6-0.8c0.3,0.2,0.4,0.6,0.5,0.9c-1,0.7-2.1,1-3.3,1
		c-0.6,0-1.2-0.1-1.6-0.4c-0.4-0.2-0.8-0.6-1.1-1s-0.5-0.9-0.6-1.5s-0.2-1.2-0.2-1.9s0.1-1.3,0.2-1.9c0.2-0.6,0.4-1.1,0.7-1.5
		s0.7-0.7,1.1-1c0.4-0.2,0.9-0.3,1.5-0.3s1.1,0.1,1.5,0.3s0.8,0.5,1.1,0.8s0.5,0.8,0.7,1.2c0.2,0.5,0.2,1,0.2,1.5c0,0.2,0,0.4,0,0.6
		C223.7,193.4,223.7,193.6,223.7,193.8z M218,192.8h4.3v-0.2c0-0.8-0.2-1.5-0.5-2s-0.9-0.8-1.6-0.8c-0.7,0-1.2,0.3-1.6,0.8
		C218.3,191.1,218.1,191.8,218,192.8z"/>
	<path d="M233.3,191.6v4.5c0,0.7,0.1,1.2,0.2,1.5c-0.2,0.2-0.5,0.3-0.9,0.3c-0.5,0-0.7-0.3-0.7-0.9v-5c0-0.7-0.1-1.3-0.3-1.6
		s-0.5-0.5-1-0.5s-1,0.1-1.5,0.4c-0.5,0.3-1,0.6-1.3,1v6.5c-0.2,0-0.4,0.1-0.7,0.1s-0.5,0-0.7-0.1V189l0.1-0.1h0.5
		c0.3,0,0.5,0.1,0.6,0.2c0.1,0.2,0.1,0.4,0.1,0.7v0.3c0.4-0.4,0.9-0.7,1.5-0.9s1.1-0.4,1.7-0.4c0.8,0,1.4,0.3,1.8,0.8
		S233.3,190.8,233.3,191.6z"/>
</g>
</svg>
