<?xml version="1.0" encoding="utf-8"?>
<!-- Generator: Adobe Illustrator 22.0.0, SVG Export Plug-In . SVG Version: 6.00 Build 0)  -->
<svg version="1.1" id="Layer_1" xmlns="http://www.w3.org/2000/svg" xmlns:xlink="http://www.w3.org/1999/xlink" x="0px" y="0px"
	 viewBox="0 0 360 360" style="enable-background:new 0 0 360 360;" xml:space="preserve">
<style type="text/css">
	.st0{fill:#EFEBEA;}
	.st1{fill:none;stroke:#009632;stroke-width:1.5;stroke-miterlimit:10;}
	.st2{fill:url(#SVGID_1_);}
	.st3{fill:url(#SVGID_2_);}
	.st4{opacity:0.1;fill:#009632;enable-background:new    ;}
	.st5{fill:#FFFFFF;}
</style>
<path class="st0" d="M226.9,327.4c-8.2-3.7-9-27.4-8.7-41.8c6.9-4.1,11.7-8.8,14.3-12.8c4-6.2,7-23.6,8.7-39.4
	c1.5,0.2,3.5,0,6.5-1.5c7.3-3.7,9.8-25,4.8-34.4c-0.5-0.8-1-1.7-1.5-2.1c2.8-21.5,5.3-57.1-5.3-73c-15.7-23.9-50.4-24.9-62.2-25.9
	c-15.7-1.4-43.6-1.2-50.6,16.5c-32.9,3.2-28.8,54.6-24.3,82.3c-0.5,0.5-0.8,1.2-1.3,2c-5,9.7-2.6,30.8,4.8,34.4
	c3.3,1.7,5.6,1.8,7.2,1.5c1.5,16,4.5,33.4,8.7,39.5c2.6,4,7.3,8.7,14,12.7c0.5,14.3-0.3,38.3-8.5,42.1c-8.3,3.7-17.1,9.1-29.1,15.1
	c1.3,0.9,2.5,1.8,3.8,2.6c22,9.6,46.3,14.9,71.8,14.9c25.7,0,50.1-5.4,72.2-15.1c1.2-0.8,2.4-1.6,3.5-2.4
	C243.9,336.5,235.1,331,226.9,327.4z"/>
<path class="st1" d="M183.2,224.6c0,9.7-6.3,9.7-6.3,19.1c0,9.7,6.3,9.7,6.3,19.1c0,9.7-6.3,9.7-6.3,19.1c0,9.7,6.3,9.7,6.3,19.1
	c0,9.7-6.3,9.7-6.3,19.3c0,9.7,6.3,9.7,6.3,19.1c0,9.7-6.3,11.1-6.3,20.7"/>
<path class="st1" d="M176.8,224.6c0,9.7,6.3,9.7,6.3,19.1c0,9.7-6.3,9.7-6.3,19.1c0,9.7,6.3,9.7,6.3,19.1c0,9.7-6.3,9.7-6.3,19.1
	c0,9.7,6.3,9.7,6.3,19.3c0,9.7-6.3,9.7-6.3,19.1c0,9.7,6.3,11.1,6.3,20.7"/>
<g>
	<g>
		
			<linearGradient id="SVGID_1_" gradientUnits="userSpaceOnUse" x1="-1798.7158" y1="707.4842" x2="-1798.7158" y2="606.4842" gradientTransform="matrix(-1 0 0 -1 -1592.0377 836.7842)">
			<stop  offset="0" style="stop-color:#009632;stop-opacity:0.2"/>
			<stop  offset="1" style="stop-color:#009632"/>
		</linearGradient>
		<path class="st2" d="M181.7,129.3c2.3,0,4.6,1.3,7,1.7c2.3,0.3,5-0.3,7.2,0.3c2.3,0.7,4.1,2.6,6.2,3.7c2.1,1,4.8,1,6.9,2.3
			c2,1.3,3.2,3.7,5,5.3c1.8,1.5,4.3,2.3,5.9,4.1c1.5,1.8,2,4.5,3.3,6.5s3.5,3.5,4.5,5.6s0.7,4.8,1.3,7.2c0.7,2.3,2.3,4.3,2.6,6.6
			s-0.7,4.8-0.7,7.2s1,4.8,0.7,7.2s-2,4.5-2.6,6.6c-0.7,2.3-0.3,5-1.3,7.2c-1,2.1-3.2,3.7-4.5,5.6c-1.3,2-1.7,4.6-3.3,6.5
			c-1.5,1.8-4.1,2.6-5.9,4.1c-1.8,1.5-3,4-5,5.3s-4.6,1.3-6.9,2.3c-2.2,1-4,3-6.2,3.7c-2.3,0.7-4.8,0-7.2,0.3s-4.6,1.7-7,1.7"/>
	</g>
	<g>
		
			<linearGradient id="SVGID_2_" gradientUnits="userSpaceOnUse" x1="-1745.3596" y1="707.5842" x2="-1745.3596" y2="606.5842" gradientTransform="matrix(-1 0 0 -1 -1592.0377 836.7842)">
			<stop  offset="0" style="stop-color:#009632;stop-opacity:0.2"/>
			<stop  offset="1" style="stop-color:#009632"/>
		</linearGradient>
		<path class="st3" d="M178.3,230.2c-2.3,0-4.6-1.3-7-1.7s-5,0.3-7.2-0.3c-2.3-0.7-4.1-2.6-6.2-3.7c-2.1-1-4.8-1-6.9-2.3
			c-2-1.3-3.2-3.7-5-5.3c-1.8-1.5-4.3-2.3-5.9-4.1c-1.5-1.8-2-4.5-3.3-6.5s-3.5-3.5-4.5-5.6s-0.7-4.8-1.3-7.2
			c-0.7-2.3-2.3-4.3-2.6-6.6s0.7-4.8,0.7-7.2s-1-4.8-0.7-7.2c0.3-2.3,2-4.5,2.6-6.6c0.7-2.3,0.3-5,1.3-7.2c1-2.1,3.2-3.7,4.5-5.6
			c1.3-2,1.7-4.6,3.3-6.5c1.5-1.8,4.1-2.6,5.9-4.1c1.8-1.5,3-4,5-5.3s4.6-1.3,6.9-2.3c2.1-1,4-3,6.2-3.7c2.3-0.7,4.8,0,7.2-0.3
			s4.6-1.7,7-1.7"/>
	</g>
</g>
<circle class="st4" cx="180" cy="179.7" r="64.2"/>
<g>
	<path class="st5" d="M147.5,202.4c0.9-0.1,1.7-0.4,2.3-0.9c0.7-0.5,1.2-1.2,1.7-1.9s0.9-1.4,1.5-2.1c0.6-0.7,1.3-1.3,2.2-1.7
		s1.9-0.4,2.8-0.1c1,0.2,1.8,0.8,2.5,1.4c1.3,1.3,2.1,2.9,3.3,3.7c1.1,0.9,2.7,0.8,3.9,0.1s2-2.3,3.1-3.7c0.6-0.7,1.4-1.4,2.4-1.8
		c1-0.4,2.1-0.4,3.1-0.2s2,0.8,2.7,1.5s1.2,1.4,1.7,2.1c0.5,0.7,1,1.3,1.5,1.8c0.5,0.4,1.1,0.7,1.8,0.7s1.4,0,1.9-0.4
		c0.6-0.3,1.1-0.9,1.6-1.5s1-1.3,1.6-2s1.3-1.4,2.3-1.8c1-0.4,2-0.5,3-0.3s2,0.7,2.6,1.4c1.4,1.3,2.1,3,3.2,4c0.5,0.5,1.2,0.9,1.9,1
		c0.7,0.2,1.5,0,2.2-0.2c1.5-0.6,2.5-2,3.7-3.2c0.6-0.6,1.2-1.2,2-1.7c0.8-0.4,1.7-0.6,2.5-0.6c-1.8,0.1-3.1,1.3-4.1,2.6
		c-1.1,1.3-2,2.9-3.7,3.7c-0.9,0.4-1.8,0.6-2.8,0.5s-1.9-0.6-2.6-1.2c-1.4-1.3-2.2-2.9-3.4-3.8c-0.6-0.5-1.2-0.8-1.9-0.9
		c-0.7-0.1-1.4,0-2,0.3c-1.2,0.6-2.1,2-3.1,3.4c-0.5,0.7-1.2,1.5-2.1,2c-0.9,0.6-2,0.7-3,0.6c-1-0.1-2.1-0.5-2.9-1.2
		c-0.8-0.7-1.3-1.4-1.9-2.1c-1-1.4-1.9-2.7-3.2-2.9c-0.6-0.1-1.4-0.1-2,0.1c-0.6,0.2-1.1,0.7-1.6,1.3s-1,1.3-1.6,2s-1.2,1.4-2.1,2
		c-0.9,0.5-1.9,0.8-2.9,0.7c-1,0-2.1-0.5-2.8-1.1c-1.5-1.3-2.2-2.9-3.3-4.1c-0.5-0.6-1.1-1-1.8-1.2s-1.5-0.3-2.2,0
		c-1.5,0.4-2.5,1.9-3.6,3.2c-0.6,0.7-1.2,1.3-1.9,1.8C149.2,202.3,148.3,202.5,147.5,202.4z"/>
</g>
<g>
	<path class="st5" d="M147.5,161.2c0.9-0.1,1.7-0.4,2.3-0.9c0.7-0.5,1.2-1.2,1.7-1.9s0.9-1.4,1.5-2.1c0.6-0.7,1.3-1.3,2.2-1.7
		s1.9-0.4,2.8-0.1c1,0.2,1.8,0.8,2.5,1.4c1.3,1.3,2.1,2.9,3.3,3.7c1.1,0.9,2.7,0.8,3.9,0.1s2-2.3,3.1-3.7c0.6-0.7,1.4-1.4,2.4-1.8
		c1-0.4,2.1-0.4,3.1-0.2s2,0.8,2.7,1.5s1.2,1.4,1.7,2.1c0.5,0.7,1,1.3,1.5,1.8c0.5,0.4,1.1,0.7,1.8,0.7s1.4,0,1.9-0.4
		c0.6-0.3,1.1-0.9,1.6-1.5s1-1.3,1.6-2s1.3-1.4,2.3-1.8c1-0.4,2-0.5,3-0.3s2,0.7,2.6,1.4c1.4,1.3,2.1,3,3.2,4c0.5,0.5,1.2,0.9,1.9,1
		c0.7,0.2,1.5,0,2.2-0.2c1.5-0.6,2.5-2,3.7-3.2c0.6-0.6,1.2-1.2,2-1.7c0.8-0.4,1.7-0.6,2.5-0.6c-1.8,0.1-3.1,1.3-4.1,2.6
		c-1.1,1.3-2,2.9-3.7,3.7c-0.9,0.4-1.8,0.6-2.8,0.5s-1.9-0.6-2.6-1.2c-1.4-1.3-2.2-2.9-3.4-3.8c-0.6-0.5-1.2-0.8-1.9-0.9
		c-0.7-0.1-1.4,0-2,0.3c-1.2,0.6-2.1,2-3.1,3.4c-0.5,0.7-1.2,1.5-2.1,2c-0.9,0.6-2,0.7-3,0.6c-1-0.1-2.1-0.5-2.9-1.2
		c-0.8-0.7-1.3-1.4-1.9-2.1c-1-1.4-1.9-2.7-3.2-2.9c-0.6-0.1-1.4-0.1-2,0.1c-0.6,0.2-1.1,0.7-1.6,1.3s-1,1.3-1.6,2s-1.2,1.4-2.1,2
		c-0.9,0.5-1.9,0.8-2.9,0.7c-1,0-2.1-0.5-2.8-1.1c-1.5-1.3-2.2-2.9-3.3-4.1c-0.5-0.6-1.1-1-1.8-1.2s-1.5-0.3-2.2,0
		c-1.5,0.4-2.5,1.9-3.6,3.2c-0.6,0.7-1.2,1.3-1.9,1.8C149.2,161,148.3,161.2,147.5,161.2z"/>
</g>
<g>
	<path class="st5" d="M139.7,181.8c1-0.1,2-0.3,2.8-0.8s1.5-1.2,2.2-1.9c0.6-0.7,1.3-1.5,2-2.2s1.7-1.3,2.7-1.6s2.1-0.3,3.2-0.1
		c1.1,0.2,2.1,0.7,2.9,1.3c1.7,1.3,2.8,3.1,4.3,3.9c1.5,0.8,3.5,0.8,4.9,0.1c1.5-0.7,2.6-2.4,4.1-3.9c0.8-0.7,1.8-1.4,2.9-1.7
		c1.1-0.3,2.3-0.3,3.4-0.2c1.1,0.2,2.2,0.7,3.1,1.4c0.9,0.7,1.6,1.5,2.2,2.2c1.3,1.5,2.6,2.5,4.3,2.5c0.8,0,1.7,0,2.5-0.4
		c0.8-0.3,1.4-0.9,2.1-1.5c0.7-0.7,1.3-1.4,2.1-2.2c0.8-0.7,1.7-1.4,2.8-1.7s2.2-0.4,3.3-0.2s2.2,0.6,3.1,1.3
		c1.8,1.3,2.7,3.1,4.2,4.2c1.4,1.1,3.4,1.3,5.2,0.7c1.8-0.5,3.2-2,4.7-3.3c0.8-0.6,1.6-1.3,2.5-1.7s2-0.5,2.9-0.5
		c-1,0.1-2,0.3-2.8,0.8c-0.9,0.4-1.6,1.1-2.3,1.8c-1.4,1.3-2.7,3-4.7,3.8c-1,0.4-2.1,0.6-3.1,0.5c-1.1-0.1-2.2-0.4-3.1-1
		c-1.8-1.2-2.9-3-4.4-4c-0.7-0.5-1.5-0.8-2.4-0.9c-0.9-0.1-1.8,0-2.6,0.2c-1.6,0.5-2.7,2-4.1,3.6c-0.7,0.8-1.6,1.5-2.7,2
		c-1.1,0.5-2.2,0.6-3.3,0.6s-2.3-0.4-3.3-1s-1.7-1.4-2.4-2.1c-1.3-1.5-2.5-2.8-4.2-3c-0.8-0.1-1.7-0.2-2.5,0.1
		c-0.8,0.2-1.5,0.7-2.2,1.3c-1.3,1.2-2.5,3-4.6,4.1c-1,0.5-2.2,0.6-3.3,0.6s-2.2-0.4-3.2-0.9c-1.9-1.2-3-3-4.3-4.2
		c-0.7-0.6-1.5-1-2.3-1.2c-0.9-0.2-1.8-0.2-2.7,0s-1.7,0.6-2.4,1.2c-0.7,0.6-1.4,1.3-2.1,2c-0.7,0.7-1.5,1.4-2.4,1.8
		C141.7,181.7,140.7,181.8,139.7,181.8z"/>
</g>
</svg>
