<?xml version="1.0" encoding="utf-8"?>
<!-- Generator: Adobe Illustrator 22.0.0, SVG Export Plug-In . SVG Version: 6.00 Build 0)  -->
<svg version="1.1" id="Layer_1" xmlns="http://www.w3.org/2000/svg" xmlns:xlink="http://www.w3.org/1999/xlink" x="0px" y="0px"
	 viewBox="0 0 366 270" style="enable-background:new 0 0 366 270;" xml:space="preserve">
<style type="text/css">
	
		.st0{opacity:0.7;fill:none;stroke:url(#SVGID_1_);stroke-width:4;stroke-linecap:round;stroke-miterlimit:10;enable-background:new    ;}
	.st1{opacity:0.2;}
	.st2{fill:#009632;}
	.st3{opacity:0.6;}
	.st4{opacity:0.8;}
	.st5{enable-background:new    ;}
	.st6{fill:#575757;}
	.st7{fill:url(#SVGID_2_);}
</style>
<linearGradient id="SVGID_1_" gradientUnits="userSpaceOnUse" x1="25.9463" y1="168.0914" x2="306.687" y2="168.0914" gradientTransform="matrix(1 0 0 -1 0 272.8)">
	<stop  offset="0" style="stop-color:#009632;stop-opacity:0.2"/>
	<stop  offset="0.999" style="stop-color:#009632"/>
</linearGradient>
<path class="st0" d="M27.9,134.7c104.6,61.1,243.8-17.4,276.7-82.1"/>
<g class="st1">
	<path class="st2" d="M194.2,140.5c-0.9-3,0.4-7-1.1-9.6c-1.6-2.7-5.7-3.3-7.9-5.5c-2.2-2.1-3.1-6.2-5.8-7.7s-6.6,0-9.6-0.8
		c-3-0.7-5.7-3.9-8.9-3.8c-3,0.1-5.7,3.3-8.7,4.2s-7-0.4-9.6,1.1c-2.7,1.6-3.3,5.7-5.5,7.9c-2.1,2.2-6.2,3.1-7.7,5.8
		c-1.5,2.7,0,6.6-0.8,9.6c-0.7,3-3.9,5.7-3.8,8.9c0.1,3,3.3,5.7,4.2,8.7c0.9,3-0.4,7,1.1,9.6c1.6,2.7,5.7,3.3,7.9,5.5
		c2.2,2.1,3.1,6.2,5.8,7.7s6.6,0,9.6,0.8c3,0.7,5.7,3.9,8.9,3.8c3-0.1,5.7-3.3,8.7-4.2s7,0.4,9.6-1.1c2.7-1.6,3.3-5.7,5.5-7.9
		c2.1-2.2,6.2-3.1,7.7-5.8s0-6.6,0.8-9.6c0.7-3,3.9-5.7,3.8-8.9C198.3,146.2,195,143.5,194.2,140.5z"/>
</g>
<g class="st3">
	<path class="st2" d="M192.7,149.9c0-2.9,2.2-6.1,1.5-8.7c-0.7-2.8-4.2-4.4-5.6-6.8c-1.4-2.5-1.1-6.3-3.1-8.3c-2-2-5.8-1.7-8.3-3.1
		c-2.4-1.4-4.1-4.9-6.8-5.6c-2.7-0.7-5.8,1.5-8.7,1.5s-6.1-2.2-8.7-1.5c-2.8,0.7-4.4,4.2-6.8,5.6c-2.5,1.4-6.3,1.1-8.3,3.1
		c-2,2-1.7,5.8-3.1,8.3c-1.4,2.4-4.9,4.1-5.6,6.8s1.5,5.8,1.5,8.7s-2.2,6.1-1.5,8.7c0.7,2.8,4.2,4.4,5.6,6.8
		c1.4,2.5,1.1,6.3,3.1,8.3s5.8,1.7,8.3,3.1c2.4,1.4,4.1,4.9,6.8,5.6c2.7,0.7,5.8-1.5,8.7-1.5s6.1,2.2,8.7,1.5
		c2.8-0.7,4.4-4.2,6.8-5.6c2.5-1.4,6.3-1.1,8.3-3.1s1.7-5.8,3.1-8.3c1.4-2.4,4.9-4.1,5.6-6.8C194.9,155.9,192.7,152.8,192.7,149.9z"
		/>
</g>
<g class="st1">
	<path class="st2" d="M51.6,127.9c-0.6-2.2,0.3-5.1-0.8-7c-1.2-1.9-4.2-2.4-5.8-4c-1.6-1.6-2.2-4.5-4.2-5.6s-4.8,0-7-0.6
		c-2.2-0.5-4.2-2.8-6.4-2.8s-4.1,2.4-6.3,3s-5.1-0.3-7,0.8c-1.9,1.2-2.4,4.2-4,5.8c-1.5,1.7-4.5,2.3-5.5,4.3c-1.1,2,0,4.8-0.6,7
		c-0.5,2.2-2.8,4.2-2.8,6.4s2.4,4.1,3,6.3s-0.3,5.1,0.8,7c1.2,1.9,4.2,2.4,5.8,4s2.2,4.5,4.2,5.6s4.8,0,7,0.6
		c2.2,0.5,4.2,2.8,6.4,2.8s4.1-2.4,6.3-3s5.1,0.3,7-0.8c1.9-1.2,2.4-4.2,4-5.8s4.5-2.2,5.6-4.2s0-4.8,0.6-7c0.5-2.2,2.8-4.2,2.8-6.4
		C54.6,132,52.3,130.1,51.6,127.9z"/>
</g>
<g class="st1">
	<path class="st2" d="M50.6,134.7c0-2.1,1.6-4.4,1.1-6.4s-3.1-3.2-4.1-5s-0.8-4.6-2.3-6c-1.5-1.5-4.2-1.2-6-2.3c-1.8-1-3-3.6-5-4.1
		c-1.9-0.5-4.2,1.1-6.4,1.1c-2.1,0-4.4-1.6-6.4-1.1s-3.2,3.1-5,4.1c-1.8,1-4.6,0.8-6,2.3c-1.5,1.5-1.2,4.2-2.3,6c-1,1.8-3.6,3-4.1,5
		c-0.5,1.9,1.1,4.2,1.1,6.4c0,2.1-1.6,4.4-1.1,6.4s3.1,3.2,4.1,5s0.8,4.6,2.3,6c1.5,1.5,4.2,1.2,6,2.3c1.8,1,3,3.6,5,4.1
		c1.9,0.5,4.2-1.1,6.4-1.1c2.1,0,4.4,1.6,6.4,1.1s3.2-3.1,5-4.1s4.6-0.8,6-2.3c1.5-1.5,1.2-4.2,2.3-6c1-1.8,3.6-3,4.1-5
		C52.2,139.1,50.6,136.8,50.6,134.7z"/>
</g>
<g class="st1">
	<path class="st2" d="M346.2,40.6c-1.1-3.9,0.6-8.9-1.4-12.2c-2.1-3.4-7.3-4.3-10.1-7c-2.8-2.7-3.9-7.9-7.3-9.8s-8.4,0-12.2-1
		c-3.8-0.9-7.3-4.9-11.3-4.9c-3.8,0.1-7.2,4.2-11.1,5.3c-3.9,1.1-8.9-0.6-12.2,1.4c-3.4,2.1-4.3,7.3-7,10.1s-7.9,3.9-9.8,7.3
		c-1.9,3.4,0,8.4-1,12.2c-0.9,3.8-4.9,7.3-4.9,11.3c0.1,3.8,4.2,7.2,5.3,11.1s-0.6,8.9,1.4,12.2c2.1,3.4,7.3,4.3,10.1,7
		c2.8,2.7,3.9,7.9,7.3,9.8s8.4,0,12.2,1c3.8,0.9,7.3,4.9,11.3,4.9c3.8-0.1,7.2-4.2,11.1-5.3c3.9-1.1,8.9,0.6,12.2-1.4
		c3.4-2.1,4.3-7.3,7-10.1c2.7-2.8,7.9-3.9,9.8-7.3s0-8.4,1-12.2c0.9-3.8,4.9-7.3,4.9-11.3C351.4,47.9,347.3,44.5,346.2,40.6z"/>
</g>
<g class="st4">
	<path class="st2" d="M344.4,52.6c0-3.7,2.8-7.7,1.9-11.1c-0.9-3.5-5.4-5.6-7.2-8.7c-1.8-3.1-1.4-8-4-10.5c-2.5-2.5-7.4-2.2-10.5-4
		s-5.2-6.2-8.7-7.2c-3.4-0.9-7.4,1.9-11.1,1.9s-7.7-2.8-11.1-1.9c-3.5,0.9-5.6,5.4-8.7,7.2s-8,1.4-10.5,4c-2.5,2.5-2.2,7.4-4,10.5
		c-1.8,3.1-6.2,5.2-7.2,8.7c-0.9,3.4,1.9,7.4,1.9,11.1s-2.8,7.7-1.9,11.1c0.9,3.5,5.4,5.6,7.2,8.7c1.8,3.1,1.4,8,4,10.5
		c2.5,2.5,7.4,2.2,10.5,4s5.2,6.2,8.7,7.2c3.4,0.9,7.4-1.9,11.1-1.9s7.7,2.8,11.1,1.9c3.5-0.9,5.6-5.4,8.7-7.2c3.1-1.8,8-1.4,10.5-4
		c2.5-2.5,2.2-7.4,4-10.5s6.2-5.2,7.2-8.7C347.2,60.3,344.4,56.3,344.4,52.6z"/>
</g>
<g>
	<g class="st5">
		<path class="st6" d="M17.7,230.7l-0.8,0h-1.6l-0.8,0l-0.7,2.1c-0.1,0-0.2,0-0.4,0c-0.2,0-0.3,0-0.5-0.1l0,0l2.7-8.1
			c0.1,0,0.3,0,0.5,0c0.2,0,0.4,0,0.5,0l2.7,8.1c-0.1,0.1-0.3,0.1-0.5,0.1s-0.3,0-0.4-0.1c-0.1-0.1-0.1-0.2-0.2-0.4L17.7,230.7z
			 M14.7,229.9l0.7,0h1.4c0,0,0.1,0,0.3,0s0.3,0,0.4,0l-0.8-2.3c-0.3-0.9-0.5-1.6-0.6-2h-0.1c-0.2,0.6-0.3,1.1-0.4,1.4L14.7,229.9z"
			/>
		<path class="st6" d="M24.3,230.7l0.5,1.1c0.2,0.5,0.4,0.8,0.6,0.9c-0.1,0.2-0.3,0.3-0.5,0.3s-0.4,0-0.5-0.1
			c-0.1-0.1-0.2-0.3-0.3-0.5l-0.6-1.2c-0.2-0.4-0.3-0.6-0.5-0.7s-0.4-0.2-0.6-0.2c-0.3,0-0.5,0-0.7,0v2.6c-0.1,0-0.3,0-0.4,0
			c-0.2,0-0.3,0-0.4,0v-8.7l0.1-0.1h0.3c0.2,0,0.3,0,0.4,0.1s0.1,0.2,0.1,0.5v4.8l0.5,0c0.1,0,0.2-0.1,0.3-0.2l1.3-1.9
			c0.1-0.2,0.2-0.3,0.3-0.3c0.1-0.1,0.2-0.1,0.3-0.1s0.3,0,0.5,0l0.1,0.1l-1.5,2.2c-0.1,0.2-0.2,0.3-0.3,0.3
			c0.3,0.1,0.5,0.2,0.7,0.3S24.1,230.4,24.3,230.7z"/>
		<path class="st6" d="M29.3,227c0,0.1,0,0.2,0,0.3c0,0.1,0,0.2,0,0.3l-1.5,0v4c0,0.3,0.2,0.5,0.5,0.5h0.9c0.1,0.1,0.1,0.3,0.1,0.4
			c0,0.1,0,0.2,0,0.3c-0.4,0-0.7,0.1-1.1,0.1c-0.8,0-1.2-0.3-1.2-1v-4.3l-0.9,0c0-0.1,0-0.2,0-0.3c0-0.1,0-0.2,0-0.3l0.9,0v-1.3
			c0-0.2,0-0.4,0.1-0.5c0.1-0.1,0.2-0.1,0.4-0.1h0.3l0.1,0.1v1.8L29.3,227z"/>
		<path class="st6" d="M31.8,227.8v5.1c-0.1,0-0.3,0-0.4,0c-0.2,0-0.3,0-0.4,0v-4.6c0-0.2,0-0.4-0.1-0.5c-0.1-0.1-0.2-0.1-0.4-0.1
			h-0.1c0-0.1,0-0.2,0-0.3s0-0.2,0-0.3c0.2,0,0.3,0,0.4,0c0.1,0,0.2,0,0.2,0H31c0.2,0,0.4,0.1,0.6,0.2
			C31.8,227.3,31.8,227.5,31.8,227.8z M30.7,224.9c0.1-0.1,0.3-0.1,0.6-0.1c0.2,0,0.4,0,0.5,0.1s0.1,0.2,0.1,0.5s0,0.4-0.1,0.5
			c-0.1,0.1-0.3,0.1-0.5,0.1c-0.2,0-0.3,0-0.5-0.1c-0.1-0.1-0.2-0.2-0.2-0.5C30.6,225.2,30.6,225,30.7,224.9z"/>
		<path class="st6" d="M35.5,232.1l1.6-5.1c0.1,0,0.2,0,0.4,0s0.3,0,0.5,0.1l0,0c-0.7,2.3-1.4,4.2-2,5.8c-0.2,0-0.4,0.1-0.6,0.1
			c-0.2,0-0.4,0-0.5-0.1c-0.1-0.1-0.2-0.2-0.3-0.5l-1.8-5.3c0.2-0.1,0.4-0.2,0.5-0.2c0.2,0,0.4,0.1,0.4,0.3l1,2.9
			c0.2,0.8,0.4,1.4,0.6,1.9C35.4,232.1,35.4,232.1,35.5,232.1z"/>
		<path class="st6" d="M40.1,227.8v5.1c-0.1,0-0.3,0-0.4,0c-0.2,0-0.3,0-0.4,0v-4.6c0-0.2,0-0.4-0.1-0.5c-0.1-0.1-0.2-0.1-0.4-0.1
			h-0.1c0-0.1,0-0.2,0-0.3s0-0.2,0-0.3c0.2,0,0.3,0,0.4,0c0.1,0,0.2,0,0.2,0h0.1c0.2,0,0.4,0.1,0.6,0.2
			C40.1,227.3,40.1,227.5,40.1,227.8z M39,224.9c0.1-0.1,0.3-0.1,0.6-0.1c0.2,0,0.4,0,0.5,0.1s0.1,0.2,0.1,0.5s0,0.4-0.1,0.5
			c-0.1,0.1-0.3,0.1-0.5,0.1c-0.2,0-0.3,0-0.5-0.1c-0.1-0.1-0.2-0.2-0.2-0.5C38.9,225.2,38.9,225,39,224.9z"/>
		<path class="st6" d="M46.4,230.2h-3.7c0,1.4,0.6,2,1.5,2c0.5,0,1.1-0.2,1.7-0.5c0.2,0.2,0.3,0.4,0.3,0.6c-0.7,0.4-1.4,0.7-2.2,0.7
			c-0.4,0-0.8-0.1-1.1-0.2s-0.5-0.4-0.7-0.6c-0.2-0.3-0.3-0.6-0.4-1s-0.1-0.8-0.1-1.2c0-0.5,0.1-0.9,0.2-1.2s0.3-0.7,0.5-1
			c0.2-0.3,0.5-0.5,0.8-0.6c0.3-0.2,0.6-0.2,1-0.2c0.4,0,0.7,0.1,1,0.2s0.5,0.3,0.7,0.5c0.2,0.2,0.3,0.5,0.5,0.8
			c0.1,0.3,0.2,0.7,0.2,1c0,0.1,0,0.3,0,0.4C46.5,229.9,46.5,230.1,46.4,230.2z M42.7,229.5h2.9v-0.2c0-0.6-0.1-1-0.3-1.3
			c-0.2-0.3-0.6-0.5-1-0.5c-0.5,0-0.8,0.2-1.1,0.5C42.9,228.4,42.8,228.9,42.7,229.5z"/>
		<path class="st6" d="M47.9,227.4c0.1-0.2,0.2-0.4,0.4-0.5c0.4,0.2,0.7,0.5,0.9,1.1c0.3-0.7,0.9-1.1,1.6-1.1c0.2,0,0.4,0,0.6,0
			c0,0.3-0.1,0.6-0.2,0.8c-0.1,0-0.2,0-0.4,0c-0.6,0-1.1,0.4-1.5,1.1v4c-0.1,0-0.3,0-0.4,0s-0.3,0-0.4,0v-4.2
			C48.4,228.1,48.2,227.7,47.9,227.4z"/>
		<path class="st6" d="M52.4,231.1v-3c0-0.4,0-0.8-0.1-1c0.1-0.1,0.3-0.2,0.6-0.2c0.3,0,0.5,0.2,0.5,0.6v3.3c0,0.5,0.1,0.9,0.2,1.1
			s0.4,0.3,0.7,0.3s0.7-0.1,1-0.3c0.3-0.2,0.6-0.4,0.9-0.7V227c0,0,0.1,0,0.2,0c0.1,0,0.2,0,0.3,0c0.1,0,0.2,0,0.2,0
			c0.1,0,0.1,0,0.2,0v4.2c0,0.6,0.1,1.1,0.3,1.3c-0.1,0.2-0.2,0.4-0.4,0.5c-0.4-0.1-0.6-0.4-0.8-0.9c-0.3,0.3-0.6,0.5-1,0.7
			c-0.4,0.2-0.8,0.3-1.1,0.3c-0.5,0-0.9-0.2-1.2-0.5C52.5,232.1,52.4,231.7,52.4,231.1z"/>
		<path class="st6" d="M63.5,228.7v3c0,0.5,0,0.8,0.1,1c-0.1,0.1-0.3,0.2-0.6,0.2c-0.3,0-0.5-0.2-0.5-0.6V229c0-0.5-0.1-0.8-0.2-1
			c-0.1-0.2-0.3-0.3-0.7-0.3c-0.3,0-0.7,0.1-1,0.3c-0.3,0.2-0.6,0.4-0.9,0.7v4.3c-0.1,0-0.3,0-0.4,0c-0.2,0-0.3,0-0.4,0V227l0.1-0.1
			h0.3c0.2,0,0.3,0,0.4,0.1c0.1,0.1,0.1,0.3,0.1,0.5v0.2c0.3-0.3,0.6-0.5,1-0.6c0.4-0.2,0.7-0.2,1.1-0.2c0.5,0,0.9,0.2,1.2,0.5
			C63.4,227.7,63.5,228.2,63.5,228.7z"/>
		<path class="st6" d="M69.1,227.5c0.1-0.3,0.3-0.5,0.6-0.6c0.2,0.1,0.3,0.3,0.4,0.5c-0.2,0.2-0.3,0.6-0.3,1.3v3.8
			c0,0.6,0,1-0.1,1.4c-0.1,0.4-0.2,0.7-0.4,1s-0.4,0.4-0.7,0.5c-0.3,0.1-0.6,0.2-1,0.2c-0.8,0-1.4-0.1-2.1-0.4
			c0-0.3,0.1-0.5,0.3-0.7c0.5,0.3,1.1,0.4,1.6,0.4c0.3,0,0.6,0,0.8-0.1s0.4-0.2,0.5-0.4s0.2-0.4,0.3-0.6c0-0.2,0.1-0.5,0.1-0.8v-0.7
			c-0.5,0.5-1.1,0.8-1.8,0.8s-1.1-0.3-1.5-0.8c-0.4-0.5-0.5-1.3-0.5-2.3c0-0.5,0.1-0.9,0.2-1.3c0.1-0.4,0.3-0.7,0.5-1
			c0.2-0.3,0.4-0.5,0.7-0.6s0.6-0.2,0.9-0.2C68,226.8,68.6,227,69.1,227.5z M68.9,231.3v-3.1c-0.2-0.2-0.5-0.4-0.7-0.5
			c-0.2-0.1-0.5-0.2-0.7-0.2c-0.4,0-0.8,0.2-1.1,0.6c-0.3,0.4-0.4,1-0.4,1.8c0,0.8,0.1,1.3,0.4,1.7s0.5,0.6,0.9,0.6s0.6-0.1,0.9-0.2
			C68.5,231.8,68.7,231.6,68.9,231.3z"/>
		<path class="st6" d="M74.4,231.1v-3c0-0.4,0-0.8-0.1-1c0.1-0.1,0.3-0.2,0.6-0.2c0.3,0,0.5,0.2,0.5,0.6v3.3c0,0.5,0.1,0.9,0.2,1.1
			s0.4,0.3,0.7,0.3s0.7-0.1,1-0.3c0.3-0.2,0.6-0.4,0.9-0.7V227c0,0,0.1,0,0.2,0c0.1,0,0.2,0,0.3,0c0.1,0,0.2,0,0.2,0
			c0.1,0,0.1,0,0.2,0v4.2c0,0.6,0.1,1.1,0.3,1.3c-0.1,0.2-0.2,0.4-0.4,0.5c-0.4-0.1-0.6-0.4-0.8-0.9c-0.3,0.3-0.6,0.5-1,0.7
			c-0.4,0.2-0.8,0.3-1.1,0.3c-0.5,0-0.9-0.2-1.2-0.5C74.6,232.1,74.4,231.7,74.4,231.1z"/>
		<path class="st6" d="M85.6,228.7v3c0,0.5,0,0.8,0.1,1c-0.1,0.1-0.3,0.2-0.6,0.2c-0.3,0-0.5-0.2-0.5-0.6V229c0-0.5-0.1-0.8-0.2-1
			c-0.1-0.2-0.3-0.3-0.7-0.3c-0.3,0-0.7,0.1-1,0.3c-0.3,0.2-0.6,0.4-0.9,0.7v4.3c-0.1,0-0.3,0-0.4,0c-0.2,0-0.3,0-0.4,0V227l0.1-0.1
			h0.3c0.2,0,0.3,0,0.4,0.1c0.1,0.1,0.1,0.3,0.1,0.5v0.2c0.3-0.3,0.6-0.5,1-0.6c0.4-0.2,0.7-0.2,1.1-0.2c0.5,0,0.9,0.2,1.2,0.5
			C85.4,227.7,85.6,228.2,85.6,228.7z"/>
		<path class="st6" d="M89.4,226.9c0.5,0,1,0.2,1.5,0.5v-3.3L91,224h0.3c0.2,0,0.3,0,0.4,0.1s0.1,0.2,0.1,0.5v6.6
			c0,0.6,0.1,1.1,0.3,1.3c-0.1,0.2-0.2,0.4-0.4,0.5c-0.4-0.1-0.6-0.4-0.7-0.8c-0.5,0.6-1.1,0.9-1.8,0.9c-0.7,0-1.2-0.3-1.6-0.8
			c-0.3-0.5-0.5-1.3-0.5-2.3c0-0.5,0.1-0.9,0.2-1.3c0.1-0.4,0.3-0.7,0.5-1s0.4-0.5,0.7-0.6S89.1,226.9,89.4,226.9z M89.3,232.2
			c0.3,0,0.5-0.1,0.8-0.2s0.5-0.4,0.7-0.7v-3.1c-0.5-0.4-1-0.5-1.4-0.5c-0.4,0-0.7,0.2-1,0.6c-0.3,0.4-0.4,1-0.4,1.8
			s0.1,1.4,0.4,1.7C88.7,232.1,89,232.2,89.3,232.2z"/>
		<path class="st6" d="M99,232l2.1-7.3c0.1,0,0.2,0,0.4,0s0.3,0,0.4,0l0,0.1l-2.4,8.1c-0.2,0-0.5,0-0.7,0c-0.2,0-0.3,0-0.4-0.1
			c-0.1-0.1-0.2-0.2-0.2-0.4l-2.3-7.7c0.2-0.1,0.4-0.1,0.6-0.1c0.3,0,0.4,0.1,0.5,0.4l1.4,4.8c0.1,0.4,0.3,1.1,0.6,2
			C98.9,231.9,98.9,232,99,232z"/>
		<path class="st6" d="M106.8,230.2h-3.7c0,1.4,0.6,2,1.5,2c0.5,0,1.1-0.2,1.7-0.5c0.2,0.2,0.3,0.4,0.3,0.6
			c-0.7,0.4-1.4,0.7-2.2,0.7c-0.4,0-0.8-0.1-1.1-0.2s-0.5-0.4-0.7-0.6c-0.2-0.3-0.3-0.6-0.4-1s-0.1-0.8-0.1-1.2
			c0-0.5,0.1-0.9,0.2-1.2s0.3-0.7,0.5-1c0.2-0.3,0.5-0.5,0.8-0.6c0.3-0.2,0.6-0.2,1-0.2c0.4,0,0.7,0.1,1,0.2s0.5,0.3,0.7,0.5
			c0.2,0.2,0.3,0.5,0.5,0.8c0.1,0.3,0.2,0.7,0.2,1c0,0.1,0,0.3,0,0.4C106.8,229.9,106.8,230.1,106.8,230.2z M103.1,229.5h2.9v-0.2
			c0-0.6-0.1-1-0.3-1.3c-0.2-0.3-0.6-0.5-1-0.5c-0.5,0-0.8,0.2-1.1,0.5C103.3,228.4,103.1,228.9,103.1,229.5z"/>
		<path class="st6" d="M108.3,227.4c0.1-0.2,0.2-0.4,0.4-0.5c0.4,0.2,0.7,0.5,0.9,1.1c0.3-0.7,0.9-1.1,1.6-1.1c0.2,0,0.4,0,0.6,0
			c0,0.3-0.1,0.6-0.2,0.8c-0.1,0-0.2,0-0.4,0c-0.6,0-1.1,0.4-1.5,1.1v4c-0.1,0-0.3,0-0.4,0s-0.3,0-0.4,0v-4.2
			C108.7,228.1,108.6,227.7,108.3,227.4z"/>
		<path class="st6" d="M117.1,232.5c-0.1,0.2-0.2,0.4-0.4,0.5c-0.4-0.1-0.6-0.4-0.7-0.8c-0.6,0.6-1.2,0.9-1.8,0.9
			c-0.3,0-0.6,0-0.8-0.1c-0.2-0.1-0.4-0.2-0.6-0.4s-0.3-0.3-0.3-0.6c-0.1-0.2-0.1-0.4-0.1-0.7c0-0.3,0.1-0.6,0.2-0.8
			c0.1-0.2,0.3-0.4,0.4-0.6s0.4-0.3,0.7-0.4c0.3-0.1,0.5-0.1,0.8-0.1c0.6,0,1.1,0,1.5,0.1v-0.6c0-0.8-0.4-1.2-1.1-1.2
			c-0.6,0-1.2,0.2-2,0.5c-0.2-0.2-0.3-0.4-0.3-0.7c0.9-0.4,1.6-0.6,2.4-0.6c1.2,0,1.9,0.7,1.9,2v2.5c0,0.3,0,0.5,0.1,0.7
			C116.9,232.2,117,232.4,117.1,232.5z M115.9,231.3v-1.2c-0.2,0-0.4-0.1-0.6-0.1s-0.4,0-0.7,0c-0.5,0-0.8,0.1-1,0.3
			s-0.4,0.5-0.4,0.8c0,0.3,0.1,0.6,0.3,0.8c0.2,0.2,0.4,0.3,0.7,0.3c0.3,0,0.6-0.1,0.9-0.2C115.4,231.8,115.7,231.6,115.9,231.3z"/>
		<path class="st6" d="M123.3,228.7v3c0,0.5,0,0.8,0.1,1c-0.1,0.1-0.3,0.2-0.6,0.2c-0.3,0-0.5-0.2-0.5-0.6V229c0-0.5-0.1-0.8-0.2-1
			c-0.1-0.2-0.3-0.3-0.7-0.3c-0.3,0-0.7,0.1-1,0.3c-0.3,0.2-0.6,0.4-0.9,0.7v4.3c-0.1,0-0.3,0-0.4,0c-0.2,0-0.3,0-0.4,0V227l0.1-0.1
			h0.3c0.2,0,0.3,0,0.4,0.1c0.1,0.1,0.1,0.3,0.1,0.5v0.2c0.3-0.3,0.6-0.5,1-0.6c0.4-0.2,0.7-0.2,1.1-0.2c0.5,0,0.9,0.2,1.2,0.5
			C123.2,227.7,123.3,228.2,123.3,228.7z"/>
		<path class="st6" d="M128.9,230.7l0.5,1.1c0.2,0.5,0.4,0.8,0.6,0.9c-0.1,0.2-0.3,0.3-0.5,0.3s-0.4,0-0.5-0.1
			c-0.1-0.1-0.2-0.3-0.3-0.5l-0.6-1.2c-0.2-0.4-0.3-0.6-0.5-0.7s-0.4-0.2-0.6-0.2c-0.3,0-0.5,0-0.7,0v2.6c-0.1,0-0.3,0-0.4,0
			c-0.2,0-0.3,0-0.4,0v-8.7l0.1-0.1h0.3c0.2,0,0.3,0,0.4,0.1s0.1,0.2,0.1,0.5v4.8l0.5,0c0.1,0,0.2-0.1,0.3-0.2l1.3-1.9
			c0.1-0.2,0.2-0.3,0.3-0.3c0.1-0.1,0.2-0.1,0.3-0.1s0.3,0,0.5,0l0.1,0.1l-1.5,2.2c-0.1,0.2-0.2,0.3-0.3,0.3
			c0.3,0.1,0.5,0.2,0.7,0.3S128.7,230.4,128.9,230.7z"/>
		<path class="st6" d="M135.2,230.2h-3.7c0,1.4,0.6,2,1.5,2c0.5,0,1.1-0.2,1.7-0.5c0.2,0.2,0.3,0.4,0.3,0.6
			c-0.7,0.4-1.4,0.7-2.2,0.7c-0.4,0-0.8-0.1-1.1-0.2s-0.5-0.4-0.7-0.6c-0.2-0.3-0.3-0.6-0.4-1s-0.1-0.8-0.1-1.2
			c0-0.5,0.1-0.9,0.2-1.2s0.3-0.7,0.5-1c0.2-0.3,0.5-0.5,0.8-0.6c0.3-0.2,0.6-0.2,1-0.2c0.4,0,0.7,0.1,1,0.2s0.5,0.3,0.7,0.5
			c0.2,0.2,0.3,0.5,0.5,0.8c0.1,0.3,0.2,0.7,0.2,1c0,0.1,0,0.3,0,0.4C135.2,229.9,135.2,230.1,135.2,230.2z M131.5,229.5h2.9v-0.2
			c0-0.6-0.1-1-0.3-1.3c-0.2-0.3-0.6-0.5-1-0.5c-0.5,0-0.8,0.2-1.1,0.5C131.7,228.4,131.5,228.9,131.5,229.5z"/>
		<path class="st6" d="M136.7,227.4c0.1-0.2,0.2-0.4,0.4-0.5c0.4,0.2,0.7,0.5,0.9,1.1c0.3-0.7,0.9-1.1,1.6-1.1c0.2,0,0.4,0,0.6,0
			c0,0.3-0.1,0.6-0.2,0.8c-0.1,0-0.2,0-0.4,0c-0.6,0-1.1,0.4-1.5,1.1v4c-0.1,0-0.3,0-0.4,0s-0.3,0-0.4,0v-4.2
			C137.1,228.1,137,227.7,136.7,227.4z"/>
		<path class="st6" d="M141.2,231.1v-3c0-0.4,0-0.8-0.1-1c0.1-0.1,0.3-0.2,0.6-0.2c0.3,0,0.5,0.2,0.5,0.6v3.3c0,0.5,0.1,0.9,0.2,1.1
			s0.4,0.3,0.7,0.3s0.7-0.1,1-0.3c0.3-0.2,0.6-0.4,0.9-0.7V227c0,0,0.1,0,0.2,0c0.1,0,0.2,0,0.3,0c0.1,0,0.2,0,0.2,0
			c0.1,0,0.1,0,0.2,0v4.2c0,0.6,0.1,1.1,0.3,1.3c-0.1,0.2-0.2,0.4-0.4,0.5c-0.4-0.1-0.6-0.4-0.8-0.9c-0.3,0.3-0.6,0.5-1,0.7
			c-0.4,0.2-0.8,0.3-1.1,0.3c-0.5,0-0.9-0.2-1.2-0.5C141.3,232.1,141.2,231.7,141.2,231.1z"/>
		<path class="st6" d="M152.3,228.7v3c0,0.5,0,0.8,0.1,1c-0.1,0.1-0.3,0.2-0.6,0.2c-0.3,0-0.5-0.2-0.5-0.6V229c0-0.5-0.1-0.8-0.2-1
			c-0.1-0.2-0.3-0.3-0.7-0.3c-0.3,0-0.7,0.1-1,0.3c-0.3,0.2-0.6,0.4-0.9,0.7v4.3c-0.1,0-0.3,0-0.4,0c-0.2,0-0.3,0-0.4,0V227l0.1-0.1
			h0.3c0.2,0,0.3,0,0.4,0.1c0.1,0.1,0.1,0.3,0.1,0.5v0.2c0.3-0.3,0.6-0.5,1-0.6c0.4-0.2,0.7-0.2,1.1-0.2c0.5,0,0.9,0.2,1.2,0.5
			C152.2,227.7,152.3,228.2,152.3,228.7z"/>
		<path class="st6" d="M157.8,227.5c0.1-0.3,0.3-0.5,0.6-0.6c0.2,0.1,0.3,0.3,0.4,0.5c-0.2,0.2-0.3,0.6-0.3,1.3v3.8
			c0,0.6,0,1-0.1,1.4c-0.1,0.4-0.2,0.7-0.4,1s-0.4,0.4-0.7,0.5c-0.3,0.1-0.6,0.2-1,0.2c-0.8,0-1.4-0.1-2.1-0.4
			c0-0.3,0.1-0.5,0.3-0.7c0.5,0.3,1.1,0.4,1.6,0.4c0.3,0,0.6,0,0.8-0.1s0.4-0.2,0.5-0.4s0.2-0.4,0.3-0.6c0-0.2,0.1-0.5,0.1-0.8v-0.7
			c-0.5,0.5-1.1,0.8-1.8,0.8s-1.1-0.3-1.5-0.8c-0.4-0.5-0.5-1.3-0.5-2.3c0-0.5,0.1-0.9,0.2-1.3c0.1-0.4,0.3-0.7,0.5-1
			c0.2-0.3,0.4-0.5,0.7-0.6s0.6-0.2,0.9-0.2C156.8,226.8,157.3,227,157.8,227.5z M157.7,231.3v-3.1c-0.2-0.2-0.5-0.4-0.7-0.5
			c-0.2-0.1-0.5-0.2-0.7-0.2c-0.4,0-0.8,0.2-1.1,0.6c-0.3,0.4-0.4,1-0.4,1.8c0,0.8,0.1,1.3,0.4,1.7s0.5,0.6,0.9,0.6s0.6-0.1,0.9-0.2
			C157.2,231.8,157.5,231.6,157.7,231.3z"/>
	</g>
</g>
<g>
</g>
<g>
	<g class="st5">
		<path class="st6" d="M257.4,218.3l1.6-5.1c0.1,0,0.2,0,0.4,0c0.1,0,0.3,0,0.5,0.1l0,0c-0.7,2.3-1.4,4.2-2,5.8
			c-0.2,0-0.4,0.1-0.6,0.1c-0.2,0-0.4,0-0.5-0.1c-0.1-0.1-0.2-0.2-0.3-0.5l-1.8-5.3c0.2-0.1,0.4-0.2,0.5-0.2c0.2,0,0.4,0.1,0.4,0.3
			l1,2.9c0.2,0.8,0.4,1.4,0.6,1.9C257.3,218.3,257.3,218.3,257.4,218.3z"/>
		<path class="st6" d="M262,214v5.1c-0.1,0-0.3,0-0.4,0s-0.3,0-0.4,0v-4.6c0-0.2,0-0.4-0.1-0.5s-0.2-0.1-0.4-0.1h-0.1
			c0-0.1,0-0.2,0-0.3s0-0.2,0-0.3c0.2,0,0.3,0,0.4,0s0.2,0,0.2,0h0.1c0.2,0,0.4,0.1,0.6,0.2C261.9,213.5,262,213.7,262,214z
			 M260.8,211.1c0.1-0.1,0.3-0.1,0.6-0.1c0.2,0,0.4,0,0.5,0.1s0.1,0.2,0.1,0.5s0,0.4-0.1,0.5s-0.3,0.1-0.5,0.1c-0.2,0-0.3,0-0.5-0.1
			c-0.1-0.1-0.2-0.2-0.2-0.5C260.8,211.4,260.8,211.2,260.8,211.1z"/>
		<path class="st6" d="M266.6,213.2c0,0.1,0,0.2,0,0.3c0,0.1,0,0.2,0,0.3l-1.5,0v4c0,0.3,0.2,0.5,0.5,0.5h0.9
			c0.1,0.1,0.1,0.3,0.1,0.4c0,0.1,0,0.2,0,0.3c-0.4,0-0.7,0.1-1.1,0.1c-0.8,0-1.2-0.3-1.2-1v-4.3l-0.9,0c0-0.1,0-0.2,0-0.3
			c0-0.1,0-0.2,0-0.3l0.9,0v-1.3c0-0.2,0-0.4,0.1-0.5c0.1-0.1,0.2-0.1,0.4-0.1h0.3l0.1,0.1v1.8L266.6,213.2z"/>
		<path class="st6" d="M272.4,218.7c-0.1,0.2-0.2,0.4-0.4,0.5c-0.4-0.1-0.6-0.4-0.7-0.8c-0.6,0.6-1.2,0.9-1.8,0.9
			c-0.3,0-0.6,0-0.8-0.1s-0.4-0.2-0.6-0.4c-0.1-0.2-0.3-0.3-0.3-0.6c-0.1-0.2-0.1-0.4-0.1-0.7c0-0.3,0.1-0.6,0.2-0.8
			c0.1-0.2,0.3-0.4,0.4-0.6c0.2-0.2,0.4-0.3,0.7-0.4c0.3-0.1,0.5-0.1,0.8-0.1c0.6,0,1.1,0,1.5,0.1V215c0-0.8-0.4-1.2-1.1-1.2
			c-0.6,0-1.2,0.2-2,0.5c-0.2-0.2-0.3-0.4-0.3-0.7c0.9-0.4,1.6-0.6,2.4-0.6c1.2,0,1.9,0.7,1.9,2v2.5c0,0.3,0,0.5,0.1,0.7
			C272.2,218.4,272.3,218.6,272.4,218.7z M271.2,217.5v-1.2c-0.2,0-0.4-0.1-0.6-0.1s-0.4,0-0.7,0c-0.5,0-0.8,0.1-1,0.3
			c-0.2,0.2-0.4,0.5-0.4,0.8c0,0.3,0.1,0.6,0.3,0.8c0.2,0.2,0.4,0.3,0.7,0.3c0.3,0,0.6-0.1,0.9-0.2C270.7,218,271,217.8,271.2,217.5
			z"/>
		<path class="st6" d="M275.4,218.4h0.5c0,0.1,0.1,0.2,0.1,0.2c0,0.1,0,0.2,0,0.2c0,0,0,0.1,0,0.1c0,0,0,0.1,0,0.1
			c-0.1,0-0.3,0-0.4,0.1c-0.1,0-0.2,0-0.4,0c-0.3,0-0.6-0.1-0.8-0.2c-0.2-0.1-0.3-0.4-0.3-0.8v-7.8l0.1-0.1h0.3c0.2,0,0.3,0,0.4,0.1
			c0.1,0.1,0.1,0.2,0.1,0.5v7C275,218.2,275.1,218.4,275.4,218.4z"/>
		<path class="st6" d="M278.5,214v5.1c-0.1,0-0.3,0-0.4,0c-0.2,0-0.3,0-0.4,0v-4.6c0-0.2,0-0.4-0.1-0.5c-0.1-0.1-0.2-0.1-0.4-0.1
			H277c0-0.1,0-0.2,0-0.3s0-0.2,0-0.3c0.2,0,0.3,0,0.4,0c0.1,0,0.2,0,0.2,0h0.1c0.2,0,0.4,0.1,0.6,0.2
			C278.4,213.5,278.5,213.7,278.5,214z M277.3,211.1c0.1-0.1,0.3-0.1,0.6-0.1c0.2,0,0.4,0,0.5,0.1s0.1,0.2,0.1,0.5s0,0.4-0.1,0.5
			c-0.1,0.1-0.3,0.1-0.5,0.1c-0.2,0-0.3,0-0.5-0.1c-0.1-0.1-0.2-0.2-0.2-0.5C277.3,211.4,277.3,211.2,277.3,211.1z"/>
		<path class="st6" d="M280,218.6c0-0.2,0.1-0.5,0.3-0.6c0.4,0.2,0.7,0.4,1,0.4s0.5,0.1,0.8,0.1c0.2,0,0.4,0,0.5-0.1
			s0.3-0.1,0.4-0.2s0.2-0.2,0.2-0.3c0.1-0.1,0.1-0.2,0.1-0.3c0-0.2-0.1-0.4-0.2-0.6s-0.4-0.3-0.7-0.4l-0.7-0.3
			c-0.5-0.2-0.9-0.4-1.2-0.7c-0.3-0.3-0.4-0.6-0.4-1c0-0.2,0.1-0.5,0.2-0.7c0.1-0.2,0.2-0.4,0.4-0.5c0.2-0.1,0.4-0.3,0.6-0.3
			s0.5-0.1,0.8-0.1c0.6,0,1.2,0.1,1.8,0.4c0,0.3-0.1,0.5-0.3,0.7c-0.3-0.1-0.6-0.2-0.8-0.3c-0.3-0.1-0.5-0.1-0.7-0.1
			c-0.4,0-0.6,0.1-0.8,0.3c-0.2,0.2-0.3,0.4-0.3,0.6c0,0.2,0.1,0.4,0.2,0.5c0.1,0.1,0.4,0.3,0.7,0.4l0.7,0.3c1,0.4,1.5,1,1.5,1.7
			c0,0.5-0.2,1-0.6,1.2s-1,0.4-1.7,0.4C281.3,219.2,280.6,219,280,218.6z"/>
		<path class="st6" d="M286.8,214v5.1c-0.1,0-0.3,0-0.4,0c-0.2,0-0.3,0-0.4,0v-4.6c0-0.2,0-0.4-0.1-0.5c-0.1-0.1-0.2-0.1-0.4-0.1
			h-0.1c0-0.1,0-0.2,0-0.3s0-0.2,0-0.3c0.2,0,0.3,0,0.4,0c0.1,0,0.2,0,0.2,0h0.1c0.2,0,0.4,0.1,0.6,0.2
			C286.7,213.5,286.8,213.7,286.8,214z M285.6,211.1c0.1-0.1,0.3-0.1,0.6-0.1c0.2,0,0.4,0,0.5,0.1s0.1,0.2,0.1,0.5s0,0.4-0.1,0.5
			c-0.1,0.1-0.3,0.1-0.5,0.1c-0.2,0-0.3,0-0.5-0.1c-0.1-0.1-0.2-0.2-0.2-0.5C285.5,211.4,285.6,211.2,285.6,211.1z"/>
		<path class="st6" d="M293.1,216.4h-3.7c0,1.4,0.6,2,1.5,2c0.5,0,1.1-0.2,1.7-0.5c0.2,0.2,0.3,0.4,0.3,0.6
			c-0.7,0.4-1.4,0.7-2.2,0.7c-0.4,0-0.8-0.1-1.1-0.2s-0.5-0.4-0.7-0.6c-0.2-0.3-0.3-0.6-0.4-1s-0.1-0.8-0.1-1.2
			c0-0.5,0.1-0.9,0.2-1.2c0.1-0.4,0.3-0.7,0.5-1c0.2-0.3,0.5-0.5,0.8-0.6c0.3-0.2,0.6-0.2,1-0.2c0.4,0,0.7,0.1,1,0.2
			s0.5,0.3,0.7,0.5c0.2,0.2,0.3,0.5,0.5,0.8c0.1,0.3,0.2,0.7,0.2,1c0,0.1,0,0.3,0,0.4C293.1,216.1,293.1,216.3,293.1,216.4z
			 M289.4,215.7h2.9v-0.2c0-0.6-0.1-1-0.3-1.3s-0.6-0.5-1-0.5c-0.5,0-0.8,0.2-1.1,0.5C289.6,214.6,289.4,215.1,289.4,215.7z"/>
		<path class="st6" d="M294.6,213.6c0.1-0.2,0.2-0.4,0.4-0.5c0.4,0.2,0.7,0.5,0.9,1.1c0.3-0.7,0.9-1.1,1.6-1.1c0.2,0,0.4,0,0.6,0
			c0,0.3-0.1,0.6-0.2,0.8c-0.1,0-0.2,0-0.4,0c-0.6,0-1.1,0.4-1.5,1.1v4c-0.1,0-0.3,0-0.4,0s-0.3,0-0.4,0v-4.2
			C295,214.3,294.9,213.9,294.6,213.6z"/>
		<path class="st6" d="M303.1,216.4h-3.7c0,1.4,0.6,2,1.5,2c0.5,0,1.1-0.2,1.7-0.5c0.2,0.2,0.3,0.4,0.3,0.6
			c-0.7,0.4-1.4,0.7-2.2,0.7c-0.4,0-0.8-0.1-1.1-0.2s-0.5-0.4-0.7-0.6c-0.2-0.3-0.3-0.6-0.4-1s-0.1-0.8-0.1-1.2
			c0-0.5,0.1-0.9,0.2-1.2c0.1-0.4,0.3-0.7,0.5-1c0.2-0.3,0.5-0.5,0.8-0.6c0.3-0.2,0.6-0.2,1-0.2c0.4,0,0.7,0.1,1,0.2
			s0.5,0.3,0.7,0.5c0.2,0.2,0.3,0.5,0.5,0.8c0.1,0.3,0.2,0.7,0.2,1c0,0.1,0,0.3,0,0.4C303.1,216.1,303.1,216.3,303.1,216.4z
			 M299.4,215.7h2.9v-0.2c0-0.6-0.1-1-0.3-1.3s-0.6-0.5-1-0.5c-0.5,0-0.8,0.2-1.1,0.5C299.6,214.6,299.4,215.1,299.4,215.7z"/>
		<path class="st6" d="M309.4,214.9v3c0,0.5,0,0.8,0.1,1c-0.1,0.1-0.3,0.2-0.6,0.2c-0.3,0-0.5-0.2-0.5-0.6v-3.3c0-0.5-0.1-0.8-0.2-1
			c-0.1-0.2-0.3-0.3-0.7-0.3c-0.3,0-0.7,0.1-1,0.3s-0.6,0.4-0.9,0.7v4.3c-0.1,0-0.3,0-0.4,0c-0.2,0-0.3,0-0.4,0v-5.9l0.1-0.1h0.3
			c0.2,0,0.3,0,0.4,0.1c0.1,0.1,0.1,0.3,0.1,0.5v0.2c0.3-0.3,0.6-0.5,1-0.6c0.4-0.2,0.7-0.2,1.1-0.2c0.5,0,0.9,0.2,1.2,0.5
			S309.4,214.4,309.4,214.9z"/>
		<path class="st6" d="M313.3,213.1c0.5,0,1,0.2,1.5,0.5v-3.3l0.1-0.1h0.3c0.2,0,0.3,0,0.4,0.1c0.1,0.1,0.1,0.2,0.1,0.5v6.6
			c0,0.6,0.1,1.1,0.3,1.3c-0.1,0.2-0.2,0.4-0.4,0.5c-0.4-0.1-0.6-0.4-0.7-0.8c-0.5,0.6-1.1,0.9-1.8,0.9c-0.7,0-1.2-0.3-1.6-0.8
			c-0.3-0.5-0.5-1.3-0.5-2.3c0-0.5,0.1-0.9,0.2-1.3s0.3-0.7,0.5-1s0.4-0.5,0.7-0.6C312.7,213.1,313,213.1,313.3,213.1z M313.2,218.4
			c0.3,0,0.5-0.1,0.8-0.2c0.3-0.2,0.5-0.4,0.7-0.7v-3.1c-0.5-0.4-1-0.5-1.4-0.5c-0.4,0-0.7,0.2-1,0.6c-0.3,0.4-0.4,1-0.4,1.8
			s0.1,1.4,0.4,1.7C312.5,218.3,312.8,218.4,313.2,218.4z"/>
		<path class="st6" d="M322,216.4h-3.7c0,1.4,0.6,2,1.5,2c0.5,0,1.1-0.2,1.7-0.5c0.2,0.2,0.3,0.4,0.3,0.6c-0.7,0.4-1.4,0.7-2.2,0.7
			c-0.4,0-0.8-0.1-1.1-0.2s-0.5-0.4-0.7-0.6c-0.2-0.3-0.3-0.6-0.4-1s-0.1-0.8-0.1-1.2c0-0.5,0.1-0.9,0.2-1.2c0.1-0.4,0.3-0.7,0.5-1
			c0.2-0.3,0.5-0.5,0.8-0.6c0.3-0.2,0.6-0.2,1-0.2c0.4,0,0.7,0.1,1,0.2s0.5,0.3,0.7,0.5c0.2,0.2,0.3,0.5,0.5,0.8
			c0.1,0.3,0.2,0.7,0.2,1c0,0.1,0,0.3,0,0.4C322,216.1,322,216.3,322,216.4z M318.3,215.7h2.9v-0.2c0-0.6-0.1-1-0.3-1.3
			s-0.6-0.5-1-0.5c-0.5,0-0.8,0.2-1.1,0.5C318.4,214.6,318.3,215.1,318.3,215.7z"/>
	</g>
	<g class="st5">
		<path class="st6" d="M258.9,228.7h1.8c0.3,0,0.4,0.1,0.6,0.2c0.1,0.1,0.2,0.3,0.2,0.5v3.1c-0.9,0.4-1.8,0.5-2.9,0.5
			c-0.6,0-1.1-0.1-1.5-0.4c-0.4-0.2-0.8-0.6-1-1c-0.5-0.8-0.7-1.8-0.7-2.9c0-0.8,0.1-1.4,0.3-2c0.2-0.6,0.5-1,0.8-1.3
			c0.6-0.6,1.4-1,2.3-1c0.5,0,1,0.1,1.5,0.2c0.5,0.2,0.9,0.4,1.2,0.7c-0.1,0.3-0.2,0.5-0.5,0.7c-0.6-0.5-1.4-0.8-2.3-0.8
			c-0.7,0-1.3,0.3-1.7,0.8c-0.4,0.6-0.7,1.4-0.7,2.7c0,2.2,0.8,3.4,2.5,3.4c0.6,0,1.2-0.1,1.8-0.3v-1.6c0-0.4,0-0.6,0-0.7h-1.3
			c-0.3,0-0.4-0.1-0.4-0.4C258.8,229,258.8,228.9,258.9,228.7z"/>
		<path class="st6" d="M267.5,230.2h-3.7c0,1.4,0.6,2,1.5,2c0.5,0,1.1-0.2,1.7-0.5c0.2,0.2,0.3,0.4,0.3,0.6
			c-0.7,0.4-1.4,0.7-2.2,0.7c-0.4,0-0.8-0.1-1.1-0.2s-0.5-0.4-0.7-0.6c-0.2-0.3-0.3-0.6-0.4-1c-0.1-0.4-0.1-0.8-0.1-1.2
			c0-0.5,0.1-0.9,0.2-1.2c0.1-0.4,0.3-0.7,0.5-1c0.2-0.3,0.5-0.5,0.8-0.6s0.6-0.2,1-0.2c0.4,0,0.7,0.1,1,0.2
			c0.3,0.1,0.5,0.3,0.7,0.5c0.2,0.2,0.3,0.5,0.5,0.8c0.1,0.3,0.2,0.7,0.2,1c0,0.1,0,0.3,0,0.4C267.6,229.9,267.5,230.1,267.5,230.2z
			 M263.8,229.5h2.9v-0.2c0-0.6-0.1-1-0.3-1.3s-0.6-0.5-1-0.5c-0.5,0-0.8,0.2-1.1,0.5C264,228.4,263.8,228.9,263.8,229.5z"/>
		<path class="st6" d="M269.8,232.3l-1.3-5.3c0.2-0.1,0.4-0.1,0.6-0.1c0.2,0,0.4,0.1,0.4,0.4l0.6,2.8c0.1,0.5,0.3,1.2,0.4,2.1
			c0,0.1,0,0.1,0.1,0.1l1.2-5.2c0.1,0,0.3,0,0.5,0c0.2,0,0.4,0,0.5,0l1.1,5.1c0,0.1,0,0.1,0.1,0.1c0.2-0.7,0.3-1.4,0.5-2.2l0.7-3.1
			c0.1,0,0.2,0,0.4,0s0.3,0,0.4,0.1l0,0l-1.5,5.8c-0.2,0-0.4,0-0.6,0s-0.4,0-0.5-0.1c-0.1-0.1-0.2-0.2-0.2-0.5l-0.4-1.9
			c0-0.1-0.1-0.5-0.2-1.2c-0.1-0.6-0.2-1.1-0.3-1.5h0c0,0.2-0.2,1.1-0.6,2.6l-0.6,2.4c-0.2,0-0.4,0-0.6,0c-0.2,0-0.4,0-0.5-0.1
			C269.9,232.7,269.8,232.6,269.8,232.3z"/>
		<path class="st6" d="M281.1,232.4c-0.4,0.4-1,0.6-1.7,0.6c-0.4,0-0.8-0.1-1.1-0.2c-0.3-0.2-0.6-0.4-0.8-0.6s-0.4-0.6-0.5-1
			c-0.1-0.4-0.2-0.8-0.2-1.3c0-0.5,0.1-0.9,0.2-1.3c0.1-0.4,0.3-0.7,0.5-1c0.2-0.3,0.5-0.5,0.8-0.6c0.3-0.2,0.7-0.2,1.1-0.2
			c0.4,0,0.8,0.1,1.1,0.2c0.3,0.2,0.6,0.4,0.8,0.6c0.2,0.3,0.4,0.6,0.5,1c0.1,0.4,0.2,0.8,0.2,1.3C282,231,281.7,231.8,281.1,232.4z
			 M279.5,232.3c0.5,0,0.9-0.2,1.2-0.7c0.3-0.4,0.4-1,0.4-1.7c0-0.3,0-0.6-0.1-0.9c-0.1-0.3-0.2-0.5-0.3-0.8
			c-0.1-0.2-0.3-0.4-0.5-0.5c-0.2-0.1-0.4-0.2-0.7-0.2c-0.3,0-0.5,0.1-0.7,0.2c-0.2,0.1-0.4,0.3-0.5,0.5c-0.1,0.2-0.2,0.5-0.3,0.8
			c-0.1,0.3-0.1,0.6-0.1,0.9c0,0.3,0,0.6,0.1,0.9c0.1,0.3,0.2,0.5,0.3,0.8c0.1,0.2,0.3,0.4,0.5,0.5
			C278.9,232.2,279.2,232.3,279.5,232.3z"/>
		<path class="st6" d="M288.1,228.8v3c0,0.5,0,0.8,0.1,1c-0.1,0.1-0.3,0.2-0.6,0.2c-0.3,0-0.5-0.2-0.5-0.6V229c0-0.5-0.1-0.8-0.2-1
			c-0.1-0.2-0.4-0.3-0.7-0.3c-0.3,0-0.7,0.1-1,0.3s-0.6,0.4-0.9,0.7v4.2c-0.1,0-0.3,0-0.4,0c-0.2,0-0.3,0-0.4,0v-8.7l0.1-0.1h0.3
			c0.2,0,0.3,0,0.4,0.1c0.1,0.1,0.1,0.2,0.1,0.5v3.1c0.3-0.3,0.6-0.5,1-0.6c0.4-0.2,0.7-0.2,1.1-0.2c0.5,0,0.9,0.2,1.2,0.5
			S288.1,228.2,288.1,228.8z"/>
		<path class="st6" d="M294.7,228.7v3c0,0.5,0,0.8,0.1,1c-0.1,0.1-0.3,0.2-0.6,0.2c-0.3,0-0.5-0.2-0.5-0.6V229c0-0.5-0.1-0.8-0.2-1
			c-0.1-0.2-0.3-0.3-0.7-0.3c-0.3,0-0.7,0.1-1,0.3s-0.6,0.4-0.9,0.7v4.3c-0.1,0-0.3,0-0.4,0c-0.2,0-0.3,0-0.4,0V227l0.1-0.1h0.3
			c0.2,0,0.3,0,0.4,0.1c0.1,0.1,0.1,0.3,0.1,0.5v0.2c0.3-0.3,0.6-0.5,1-0.6c0.4-0.2,0.7-0.2,1.1-0.2c0.5,0,0.9,0.2,1.2,0.5
			S294.7,228.2,294.7,228.7z"/>
		<path class="st6" d="M301.2,228.8v3c0,0.5,0,0.8,0.1,1c-0.1,0.1-0.3,0.2-0.6,0.2c-0.3,0-0.5-0.2-0.5-0.6V229c0-0.5-0.1-0.8-0.2-1
			c-0.1-0.2-0.4-0.3-0.7-0.3c-0.3,0-0.7,0.1-1,0.3s-0.6,0.4-0.9,0.7v4.2c-0.1,0-0.3,0-0.4,0c-0.2,0-0.3,0-0.4,0v-8.7l0.1-0.1h0.3
			c0.2,0,0.3,0,0.4,0.1c0.1,0.1,0.1,0.2,0.1,0.5v3.1c0.3-0.3,0.6-0.5,1-0.6s0.7-0.2,1.1-0.2c0.5,0,0.9,0.2,1.2,0.5
			S301.2,228.2,301.2,228.8z"/>
		<path class="st6" d="M307.5,230.2h-3.7c0,1.4,0.6,2,1.5,2c0.5,0,1.1-0.2,1.7-0.5c0.2,0.2,0.3,0.4,0.3,0.6
			c-0.7,0.4-1.4,0.7-2.2,0.7c-0.4,0-0.8-0.1-1.1-0.2s-0.5-0.4-0.7-0.6c-0.2-0.3-0.3-0.6-0.4-1c-0.1-0.4-0.1-0.8-0.1-1.2
			c0-0.5,0.1-0.9,0.2-1.2c0.1-0.4,0.3-0.7,0.5-1c0.2-0.3,0.5-0.5,0.8-0.6s0.6-0.2,1-0.2c0.4,0,0.7,0.1,1,0.2
			c0.3,0.1,0.5,0.3,0.7,0.5s0.3,0.5,0.5,0.8c0.1,0.3,0.2,0.7,0.2,1c0,0.1,0,0.3,0,0.4C307.5,229.9,307.5,230.1,307.5,230.2z
			 M303.7,229.5h2.9v-0.2c0-0.6-0.1-1-0.3-1.3c-0.2-0.3-0.6-0.5-1-0.5c-0.5,0-0.8,0.2-1.1,0.5S303.8,228.9,303.7,229.5z"/>
		<path class="st6" d="M310.3,227.8v5.1c-0.1,0-0.3,0-0.4,0c-0.2,0-0.3,0-0.4,0v-4.6c0-0.2,0-0.4-0.1-0.5c-0.1-0.1-0.2-0.1-0.4-0.1
			h-0.1c0-0.1,0-0.2,0-0.3c0-0.1,0-0.2,0-0.3c0.2,0,0.3,0,0.4,0c0.1,0,0.2,0,0.2,0h0.1c0.2,0,0.4,0.1,0.6,0.2
			C310.2,227.3,310.3,227.5,310.3,227.8z M309.1,224.9c0.1-0.1,0.3-0.1,0.6-0.1c0.2,0,0.4,0,0.5,0.1s0.1,0.2,0.1,0.5s0,0.4-0.1,0.5
			c-0.1,0.1-0.3,0.1-0.5,0.1c-0.2,0-0.3,0-0.5-0.1c-0.1-0.1-0.2-0.2-0.2-0.5C309,225.2,309,225,309.1,224.9z"/>
		<path class="st6" d="M314.9,227c0,0.1,0,0.2,0,0.3s0,0.2,0,0.3l-1.5,0v4c0,0.3,0.2,0.5,0.5,0.5h0.9c0.1,0.1,0.1,0.3,0.1,0.4
			c0,0.1,0,0.2,0,0.3c-0.4,0-0.7,0.1-1.1,0.1c-0.8,0-1.2-0.3-1.2-1v-4.3l-0.9,0c0-0.1,0-0.2,0-0.3s0-0.2,0-0.3l0.9,0v-1.3
			c0-0.2,0-0.4,0.1-0.5c0.1-0.1,0.2-0.1,0.4-0.1h0.3l0.1,0.1v1.8L314.9,227z"/>
		<path class="st6" d="M320.4,230.2h-3.7c0,1.4,0.6,2,1.5,2c0.5,0,1.1-0.2,1.7-0.5c0.2,0.2,0.3,0.4,0.3,0.6
			c-0.7,0.4-1.4,0.7-2.2,0.7c-0.4,0-0.8-0.1-1.1-0.2s-0.5-0.4-0.7-0.6c-0.2-0.3-0.3-0.6-0.4-1c-0.1-0.4-0.1-0.8-0.1-1.2
			c0-0.5,0.1-0.9,0.2-1.2c0.1-0.4,0.3-0.7,0.5-1c0.2-0.3,0.5-0.5,0.8-0.6s0.6-0.2,1-0.2c0.4,0,0.7,0.1,1,0.2
			c0.3,0.1,0.5,0.3,0.7,0.5c0.2,0.2,0.3,0.5,0.5,0.8c0.1,0.3,0.2,0.7,0.2,1c0,0.1,0,0.3,0,0.4C320.5,229.9,320.4,230.1,320.4,230.2z
			 M316.7,229.5h2.9v-0.2c0-0.6-0.1-1-0.3-1.3s-0.6-0.5-1-0.5c-0.5,0-0.8,0.2-1.1,0.5C316.9,228.4,316.7,228.9,316.7,229.5z"/>
		<path class="st6" d="M326.7,228.7v3c0,0.5,0,0.8,0.1,1c-0.1,0.1-0.3,0.2-0.6,0.2c-0.3,0-0.5-0.2-0.5-0.6V229c0-0.5-0.1-0.8-0.2-1
			c-0.1-0.2-0.3-0.3-0.7-0.3c-0.3,0-0.7,0.1-1,0.3c-0.3,0.2-0.6,0.4-0.9,0.7v4.3c-0.1,0-0.3,0-0.4,0s-0.3,0-0.4,0V227l0.1-0.1h0.3
			c0.2,0,0.3,0,0.4,0.1c0.1,0.1,0.1,0.3,0.1,0.5v0.2c0.3-0.3,0.6-0.5,1-0.6s0.7-0.2,1.1-0.2c0.5,0,0.9,0.2,1.2,0.5
			C326.6,227.7,326.7,228.2,326.7,228.7z"/>
	</g>
</g>
<g class="st5">
	<path class="st2" d="M15.6,263.5l0-0.8v-3.4c0,0,0-0.5,0-1.5c-0.4,0.6-1,1.1-1.8,1.4c-0.2-0.1-0.3-0.3-0.4-0.6
		c0.5-0.3,1-0.7,1.4-1.1c0.4-0.4,0.7-0.8,0.8-1.1c0.1,0,0.3,0,0.4,0c0.2,0,0.3,0,0.4,0v6.3l0,0.8l0.6,0h0.9c0,0.1,0,0.3,0,0.4
		c0,0.1,0,0.2,0,0.4h-4.2c0-0.1,0-0.3,0-0.4c0-0.1,0-0.3,0-0.4H15L15.6,263.5z"/>
	<path class="st2" d="M24.5,263.5c0,0.3,0,0.5-0.1,0.6c-0.1,0.1-0.2,0.2-0.5,0.2h-3.8c-0.3-0.2-0.4-0.4-0.4-0.6
		c0-0.4,0.1-0.7,0.4-1.1c0.3-0.4,0.7-0.8,1.2-1.3l1.1-1c0.4-0.3,0.6-0.6,0.8-0.9c0.2-0.3,0.3-0.6,0.3-1c0-0.4-0.1-0.7-0.4-1
		s-0.6-0.4-0.9-0.4c-0.4,0-0.7,0.1-1,0.3c-0.3,0.2-0.5,0.5-0.7,0.9c-0.3,0-0.6-0.2-0.7-0.3c0.1-0.2,0.2-0.4,0.4-0.6
		c0.2-0.2,0.3-0.4,0.5-0.5c0.2-0.1,0.4-0.3,0.7-0.3c0.3-0.1,0.5-0.1,0.8-0.1c0.3,0,0.6,0.1,0.8,0.2c0.3,0.1,0.5,0.3,0.7,0.5
		c0.2,0.2,0.3,0.4,0.5,0.7c0.1,0.3,0.2,0.5,0.2,0.8s0,0.6-0.1,0.8c-0.1,0.2-0.2,0.4-0.3,0.6c-0.1,0.2-0.3,0.4-0.5,0.6
		s-0.4,0.4-0.6,0.6l-1,0.8c-0.8,0.7-1.2,1.2-1.3,1.6c0.2,0,0.5,0,0.7,0s0.5,0,0.7,0H24.5z"/>
	<path class="st2" d="M30,263.8l-1.5-7.7c0.2-0.1,0.3-0.1,0.5-0.1c0.2,0,0.3,0,0.4,0.1s0.1,0.2,0.2,0.4l0.9,4.6l0.4,2.3
		c0,0.1,0,0.1,0,0.1c0,0,0,0,0.1,0l1.5-7.3c0.2,0,0.4,0,0.6,0c0.2,0,0.4,0,0.6,0l1.4,7.1c0,0.1,0,0.1,0.1,0.1
		c0.1-0.4,0.2-1.2,0.5-2.4l1.1-5c0.1,0,0.3,0,0.4,0s0.3,0,0.4,0l0,0.1l-1.8,8.1c-0.2,0-0.4,0.1-0.7,0.1s-0.4,0-0.5-0.1
		c-0.1-0.1-0.2-0.2-0.2-0.4l-0.7-3.6c-0.3-1.4-0.4-2.4-0.6-3.1h-0.1c-0.2,1.3-0.4,2.3-0.6,3.1l-0.8,4c-0.2,0-0.5,0-0.8,0
		C30.2,264.3,30,264.1,30,263.8z"/>
	<path class="st2" d="M42,263.8c-0.4,0.4-1,0.6-1.7,0.6c-0.4,0-0.8-0.1-1.1-0.2s-0.6-0.4-0.8-0.6c-0.2-0.3-0.4-0.6-0.5-1
		c-0.1-0.4-0.2-0.8-0.2-1.3c0-0.5,0.1-0.9,0.2-1.3s0.3-0.7,0.5-1c0.2-0.3,0.5-0.5,0.8-0.6c0.3-0.2,0.7-0.2,1.1-0.2s0.8,0.1,1.1,0.2
		c0.3,0.2,0.6,0.4,0.8,0.6c0.2,0.3,0.4,0.6,0.5,1c0.1,0.4,0.2,0.8,0.2,1.3C42.8,262.4,42.5,263.2,42,263.8z M40.3,263.7
		c0.5,0,0.9-0.2,1.2-0.7s0.4-1,0.4-1.7c0-0.3,0-0.6-0.1-0.9c-0.1-0.3-0.2-0.5-0.3-0.8c-0.1-0.2-0.3-0.4-0.5-0.5
		c-0.2-0.1-0.4-0.2-0.7-0.2c-0.3,0-0.5,0.1-0.7,0.2c-0.2,0.1-0.4,0.3-0.5,0.5c-0.1,0.2-0.2,0.5-0.3,0.8c-0.1,0.3-0.1,0.6-0.1,0.9
		s0,0.6,0.1,0.9c0.1,0.3,0.2,0.5,0.3,0.8c0.1,0.2,0.3,0.4,0.5,0.5C39.8,263.7,40,263.7,40.3,263.7z"/>
	<path class="st2" d="M47.7,260.5v-0.1c0-0.2,0-0.3-0.1-0.5c0-0.2-0.1-0.3-0.2-0.4c-0.1-0.1-0.2-0.2-0.4-0.3s-0.3-0.1-0.6-0.1
		c-0.5,0-0.8,0.2-1.1,0.6c-0.3,0.4-0.4,1-0.4,1.8c0,0.8,0.1,1.3,0.4,1.7s0.6,0.6,1.1,0.6c0.5,0,1-0.2,1.6-0.7
		c0.2,0.1,0.4,0.3,0.4,0.6c-0.6,0.6-1.3,0.9-2.1,0.9c-0.4,0-0.7-0.1-1-0.2s-0.5-0.4-0.7-0.6c-0.2-0.3-0.4-0.6-0.5-0.9
		s-0.1-0.7-0.1-1.1c0-0.6,0.1-1,0.2-1.4s0.3-0.8,0.5-1c0.2-0.3,0.5-0.5,0.8-0.6c0.3-0.1,0.6-0.2,0.9-0.2c0.3,0,0.6,0.1,0.9,0.2
		c0.3,0.1,0.5,0.2,0.6,0.4s0.3,0.4,0.4,0.6c0.1,0.2,0.1,0.4,0.1,0.6c0,0.4-0.2,0.6-0.5,0.6C48,260.5,47.8,260.5,47.7,260.5z"/>
	<path class="st2" d="M54.6,260.2v3c0,0.5,0,0.8,0.1,1c-0.1,0.1-0.3,0.2-0.6,0.2c-0.3,0-0.5-0.2-0.5-0.6v-3.3c0-0.5-0.1-0.8-0.2-1
		c-0.1-0.2-0.4-0.3-0.7-0.3s-0.7,0.1-1,0.3s-0.6,0.4-0.9,0.7v4.2c-0.1,0-0.3,0-0.4,0c-0.2,0-0.3,0-0.4,0v-8.7l0.1-0.1h0.3
		c0.2,0,0.3,0,0.4,0.1s0.1,0.2,0.1,0.5v3.1c0.3-0.3,0.6-0.5,1-0.6c0.4-0.2,0.7-0.2,1.1-0.2c0.5,0,0.9,0.2,1.2,0.5
		C54.5,259.1,54.6,259.6,54.6,260.2z"/>
	<path class="st2" d="M60.9,261.6h-3.7c0,1.4,0.6,2,1.5,2c0.5,0,1.1-0.2,1.7-0.5c0.2,0.2,0.3,0.4,0.3,0.6c-0.7,0.4-1.4,0.7-2.2,0.7
		c-0.4,0-0.8-0.1-1.1-0.2s-0.5-0.4-0.7-0.6c-0.2-0.3-0.3-0.6-0.4-1c-0.1-0.4-0.1-0.8-0.1-1.2c0-0.5,0.1-0.9,0.2-1.2
		c0.1-0.4,0.3-0.7,0.5-1s0.5-0.5,0.8-0.6c0.3-0.2,0.6-0.2,1-0.2c0.4,0,0.7,0.1,1,0.2c0.3,0.1,0.5,0.3,0.7,0.5
		c0.2,0.2,0.3,0.5,0.5,0.8c0.1,0.3,0.2,0.7,0.2,1c0,0.1,0,0.3,0,0.4C60.9,261.3,60.9,261.5,60.9,261.6z M57.1,260.9H60v-0.2
		c0-0.6-0.1-1-0.3-1.3c-0.2-0.3-0.6-0.5-1-0.5c-0.5,0-0.8,0.2-1.1,0.5C57.3,259.8,57.2,260.3,57.1,260.9z"/>
	<path class="st2" d="M67.2,260.2v3c0,0.5,0,0.8,0.1,1c-0.1,0.1-0.3,0.2-0.6,0.2c-0.3,0-0.5-0.2-0.5-0.6v-3.3c0-0.5-0.1-0.8-0.2-1
		c-0.1-0.2-0.3-0.3-0.7-0.3c-0.3,0-0.7,0.1-1,0.3c-0.3,0.2-0.6,0.4-0.9,0.7v4.3c-0.1,0-0.3,0-0.4,0c-0.2,0-0.3,0-0.4,0v-5.9l0.1-0.1
		h0.3c0.2,0,0.3,0.1,0.4,0.2c0.1,0.1,0.1,0.3,0.1,0.5v0.2c0.3-0.3,0.6-0.5,1-0.6c0.4-0.2,0.7-0.2,1.1-0.2c0.5,0,0.9,0.2,1.2,0.5
		C67.1,259.1,67.2,259.6,67.2,260.2z"/>
	<path class="st2" d="M71.9,264v-8.4l0.1-0.1h0.3c0.2,0,0.3,0,0.4,0.1s0.1,0.2,0.1,0.5v3c0.5-0.5,1.1-0.7,1.7-0.7s1.1,0.3,1.5,0.8
		c0.4,0.5,0.5,1.3,0.5,2.3c0,0.5-0.1,0.9-0.2,1.3c-0.1,0.4-0.3,0.7-0.5,0.9c-0.2,0.3-0.5,0.4-0.8,0.6c-0.3,0.1-0.6,0.2-1,0.2
		C73.3,264.4,72.6,264.2,71.9,264z M72.7,259.9v3.6c0.4,0.1,0.8,0.2,1.2,0.2c0.5,0,0.8-0.2,1.2-0.6s0.5-1,0.5-1.8c0-0.4,0-0.7-0.1-1
		c-0.1-0.3-0.2-0.5-0.3-0.7c-0.1-0.2-0.2-0.3-0.4-0.4c-0.1-0.1-0.3-0.1-0.5-0.1c-0.3,0-0.6,0.1-0.9,0.2
		C73.2,259.4,72.9,259.7,72.7,259.9z"/>
	<path class="st2" d="M82.4,261.6h-3.7c0,1.4,0.6,2,1.5,2c0.5,0,1.1-0.2,1.7-0.5c0.2,0.2,0.3,0.4,0.3,0.6c-0.7,0.4-1.4,0.7-2.2,0.7
		c-0.4,0-0.8-0.1-1.1-0.2s-0.5-0.4-0.7-0.6c-0.2-0.3-0.3-0.6-0.4-1c-0.1-0.4-0.1-0.8-0.1-1.2c0-0.5,0.1-0.9,0.2-1.2
		c0.1-0.4,0.3-0.7,0.5-1s0.5-0.5,0.8-0.6c0.3-0.2,0.6-0.2,1-0.2c0.4,0,0.7,0.1,1,0.2c0.3,0.1,0.5,0.3,0.7,0.5
		c0.2,0.2,0.3,0.5,0.5,0.8c0.1,0.3,0.2,0.7,0.2,1c0,0.1,0,0.3,0,0.4C82.4,261.3,82.4,261.5,82.4,261.6z M78.6,260.9h2.9v-0.2
		c0-0.6-0.1-1-0.3-1.3c-0.2-0.3-0.6-0.5-1-0.5c-0.5,0-0.8,0.2-1.1,0.5C78.8,259.8,78.7,260.3,78.6,260.9z"/>
	<path class="st2" d="M87.7,258.9c0.1-0.3,0.3-0.5,0.6-0.6c0.2,0.1,0.3,0.3,0.4,0.5c-0.2,0.2-0.3,0.6-0.3,1.3v3.8c0,0.6,0,1-0.1,1.4
		s-0.2,0.7-0.4,1s-0.4,0.4-0.7,0.5c-0.3,0.1-0.6,0.2-1,0.2c-0.8,0-1.4-0.1-2.1-0.4c0-0.3,0.1-0.5,0.3-0.7c0.5,0.3,1.1,0.4,1.6,0.4
		c0.3,0,0.6,0,0.8-0.1s0.4-0.2,0.5-0.4s0.2-0.4,0.3-0.6c0-0.2,0.1-0.5,0.1-0.8v-0.7c-0.5,0.5-1.1,0.8-1.8,0.8s-1.1-0.3-1.5-0.8
		c-0.4-0.5-0.5-1.3-0.5-2.3c0-0.5,0.1-0.9,0.2-1.3s0.3-0.7,0.5-1c0.2-0.3,0.4-0.5,0.7-0.6c0.3-0.1,0.6-0.2,0.9-0.2
		C86.6,258.2,87.2,258.4,87.7,258.9z M87.5,262.7v-3.1c-0.2-0.2-0.5-0.4-0.7-0.5c-0.2-0.1-0.5-0.2-0.7-0.2c-0.4,0-0.8,0.2-1.1,0.6
		c-0.3,0.4-0.4,1-0.4,1.8c0,0.8,0.1,1.3,0.4,1.7c0.2,0.4,0.5,0.6,0.9,0.6s0.6-0.1,0.9-0.2C87.1,263.2,87.3,263,87.5,262.7z"/>
	<path class="st2" d="M91.8,263.6h0.5c0,0.1,0.1,0.2,0.1,0.2c0,0.1,0,0.2,0,0.2c0,0,0,0.1,0,0.1c0,0,0,0.1,0,0.1
		c-0.1,0-0.3,0-0.4,0.1c-0.1,0-0.2,0-0.4,0c-0.3,0-0.6-0.1-0.8-0.2c-0.2-0.1-0.3-0.4-0.3-0.8v-7.8l0.1-0.1h0.3c0.2,0,0.3,0,0.4,0.1
		s0.1,0.2,0.1,0.5v7C91.3,263.4,91.5,263.6,91.8,263.6z"/>
	<path class="st2" d="M98,261.6h-3.7c0,1.4,0.6,2,1.5,2c0.5,0,1.1-0.2,1.7-0.5c0.2,0.2,0.3,0.4,0.3,0.6c-0.7,0.4-1.4,0.7-2.2,0.7
		c-0.4,0-0.8-0.1-1.1-0.2s-0.5-0.4-0.7-0.6c-0.2-0.3-0.3-0.6-0.4-1c-0.1-0.4-0.1-0.8-0.1-1.2c0-0.5,0.1-0.9,0.2-1.2
		c0.1-0.4,0.3-0.7,0.5-1s0.5-0.5,0.8-0.6c0.3-0.2,0.6-0.2,1-0.2c0.4,0,0.7,0.1,1,0.2c0.3,0.1,0.5,0.3,0.7,0.5
		c0.2,0.2,0.3,0.5,0.5,0.8c0.1,0.3,0.2,0.7,0.2,1c0,0.1,0,0.3,0,0.4C98,261.3,98,261.5,98,261.6z M94.2,260.9h2.9v-0.2
		c0-0.6-0.1-1-0.3-1.3c-0.2-0.3-0.6-0.5-1-0.5c-0.5,0-0.8,0.2-1.1,0.5C94.4,259.8,94.3,260.3,94.2,260.9z"/>
	<path class="st2" d="M100.8,259.2v5.1c-0.1,0-0.3,0-0.4,0c-0.2,0-0.3,0-0.4,0v-4.6c0-0.2,0-0.4-0.1-0.5c-0.1-0.1-0.2-0.1-0.4-0.1
		h-0.1c0-0.1,0-0.2,0-0.3c0-0.1,0-0.2,0-0.3c0.2,0,0.3,0,0.4,0c0.1,0,0.2,0,0.2,0h0.1c0.2,0,0.4,0.1,0.6,0.2
		C100.7,258.7,100.8,258.9,100.8,259.2z M99.6,256.3c0.1-0.1,0.3-0.1,0.6-0.1c0.2,0,0.4,0,0.5,0.1s0.1,0.2,0.1,0.5s0,0.4-0.1,0.5
		c-0.1,0.1-0.3,0.1-0.5,0.1c-0.2,0-0.3,0-0.5-0.1c-0.1-0.1-0.2-0.2-0.2-0.5C99.5,256.6,99.5,256.4,99.6,256.3z"/>
	<path class="st2" d="M105.4,258.4c0,0.1,0,0.2,0,0.3c0,0.1,0,0.2,0,0.3l-1.5,0v4c0,0.3,0.2,0.5,0.5,0.5h0.9
		c0.1,0.1,0.1,0.3,0.1,0.4s0,0.2,0,0.3c-0.4,0-0.7,0.1-1.1,0.1c-0.8,0-1.2-0.3-1.2-1V259l-0.9,0c0-0.1,0-0.2,0-0.3
		c0-0.1,0-0.2,0-0.3l0.9,0v-1.3c0-0.2,0-0.4,0.1-0.5c0.1-0.1,0.2-0.1,0.4-0.1h0.3l0.1,0.1v1.8L105.4,258.4z"/>
	<path class="st2" d="M110.9,261.6h-3.7c0,1.4,0.6,2,1.5,2c0.5,0,1.1-0.2,1.7-0.5c0.2,0.2,0.3,0.4,0.3,0.6c-0.7,0.4-1.4,0.7-2.2,0.7
		c-0.4,0-0.8-0.1-1.1-0.2s-0.5-0.4-0.7-0.6c-0.2-0.3-0.3-0.6-0.4-1c-0.1-0.4-0.1-0.8-0.1-1.2c0-0.5,0.1-0.9,0.2-1.2
		c0.1-0.4,0.3-0.7,0.5-1s0.5-0.5,0.8-0.6c0.3-0.2,0.6-0.2,1-0.2c0.4,0,0.7,0.1,1,0.2c0.3,0.1,0.5,0.3,0.7,0.5
		c0.2,0.2,0.3,0.5,0.5,0.8c0.1,0.3,0.2,0.7,0.2,1c0,0.1,0,0.3,0,0.4C111,261.3,111,261.5,110.9,261.6z M107.2,260.9h2.9v-0.2
		c0-0.6-0.1-1-0.3-1.3c-0.2-0.3-0.6-0.5-1-0.5c-0.5,0-0.8,0.2-1.1,0.5C107.4,259.8,107.3,260.3,107.2,260.9z"/>
	<path class="st2" d="M115.4,258.4c0,0.1,0,0.2,0,0.3c0,0.1,0,0.2,0,0.3l-1.5,0v4c0,0.3,0.2,0.5,0.5,0.5h0.9
		c0.1,0.1,0.1,0.3,0.1,0.4s0,0.2,0,0.3c-0.4,0-0.7,0.1-1.1,0.1c-0.8,0-1.2-0.3-1.2-1V259l-0.9,0c0-0.1,0-0.2,0-0.3
		c0-0.1,0-0.2,0-0.3l0.9,0v-1.3c0-0.2,0-0.4,0.1-0.5c0.1-0.1,0.2-0.1,0.4-0.1h0.3l0.1,0.1v1.8L115.4,258.4z"/>
</g>
<g class="st5">
	<path class="st2" d="M256.3,263.8l-1.3-5.3c0.2-0.1,0.4-0.1,0.6-0.1c0.2,0,0.4,0.1,0.4,0.4l0.6,2.8c0.1,0.5,0.3,1.2,0.4,2.1
		c0,0.1,0,0.1,0.1,0.1l1.2-5.2c0.1,0,0.3,0,0.5,0s0.4,0,0.5,0l1.1,5.1c0,0.1,0,0.1,0.1,0.1c0.2-0.7,0.3-1.4,0.5-2.2l0.7-3.1
		c0.1,0,0.2,0,0.4,0c0.2,0,0.3,0,0.4,0.1l0,0l-1.5,5.8c-0.2,0-0.4,0-0.6,0s-0.4,0-0.5-0.1c-0.1-0.1-0.2-0.2-0.2-0.5l-0.4-1.9
		c0-0.1-0.1-0.5-0.2-1.2s-0.2-1.1-0.3-1.5h0c0,0.2-0.2,1.1-0.6,2.6l-0.6,2.4c-0.2,0-0.4,0-0.6,0s-0.4,0-0.5-0.1
		C256.5,264.1,256.4,264,256.3,263.8z"/>
	<path class="st2" d="M265.3,259.2v5.1c-0.1,0-0.3,0-0.4,0c-0.2,0-0.3,0-0.4,0v-4.6c0-0.2,0-0.4-0.1-0.5c-0.1-0.1-0.2-0.1-0.4-0.1
		h-0.1c0-0.1,0-0.2,0-0.3s0-0.2,0-0.3c0.2,0,0.3,0,0.4,0c0.1,0,0.2,0,0.2,0h0.1c0.2,0,0.4,0.1,0.6,0.2
		C265.2,258.7,265.3,258.9,265.3,259.2z M264.1,256.3c0.1-0.1,0.3-0.1,0.6-0.1c0.2,0,0.4,0,0.5,0.1s0.1,0.2,0.1,0.5s0,0.4-0.1,0.5
		c-0.1,0.1-0.3,0.1-0.5,0.1c-0.2,0-0.3,0-0.5-0.1c-0.1-0.1-0.2-0.2-0.2-0.5C264,256.6,264,256.4,264.1,256.3z"/>
	<path class="st2" d="M267,258.8c0.1-0.2,0.2-0.4,0.4-0.5c0.4,0.2,0.7,0.5,0.9,1.1c0.3-0.7,0.9-1.1,1.6-1.1c0.2,0,0.4,0,0.6,0
		c0,0.3-0.1,0.6-0.2,0.8c-0.1,0-0.2,0-0.4,0c-0.6,0-1.1,0.4-1.5,1.1v4c-0.1,0-0.3,0-0.4,0s-0.3,0-0.4,0V260
		C267.5,259.5,267.3,259.1,267,258.8z"/>
	<path class="st2" d="M275.1,262.1l0.5,1.1c0.2,0.5,0.4,0.8,0.6,0.9c-0.1,0.2-0.3,0.3-0.5,0.3c-0.2,0-0.4,0-0.5-0.1
		c-0.1-0.1-0.2-0.3-0.3-0.5l-0.6-1.2c-0.2-0.4-0.3-0.6-0.5-0.7s-0.4-0.2-0.6-0.2s-0.5,0-0.7,0v2.6c-0.1,0-0.3,0-0.4,0
		c-0.2,0-0.3,0-0.4,0v-8.7l0.1-0.1h0.3c0.2,0,0.3,0,0.4,0.1c0.1,0.1,0.1,0.2,0.1,0.5v4.8l0.5,0c0.1,0,0.2-0.1,0.3-0.2l1.3-1.9
		c0.1-0.2,0.2-0.3,0.3-0.3c0.1-0.1,0.2-0.1,0.3-0.1s0.3,0,0.5,0l0.1,0.1l-1.5,2.2c-0.1,0.2-0.2,0.3-0.3,0.3c0.3,0.1,0.5,0.2,0.7,0.3
		C274.8,261.5,275,261.8,275.1,262.1z"/>
	<path class="st2" d="M281.4,261.6h-3.7c0,1.4,0.6,2,1.5,2c0.5,0,1.1-0.2,1.7-0.5c0.2,0.2,0.3,0.4,0.3,0.6c-0.7,0.4-1.4,0.7-2.2,0.7
		c-0.4,0-0.8-0.1-1.1-0.2s-0.5-0.4-0.7-0.6c-0.2-0.3-0.3-0.6-0.4-1s-0.1-0.8-0.1-1.2c0-0.5,0.1-0.9,0.2-1.2c0.1-0.4,0.3-0.7,0.5-1
		c0.2-0.3,0.5-0.5,0.8-0.6c0.3-0.2,0.6-0.2,1-0.2c0.4,0,0.7,0.1,1,0.2s0.5,0.3,0.7,0.5c0.2,0.2,0.3,0.5,0.5,0.8
		c0.1,0.3,0.2,0.7,0.2,1c0,0.1,0,0.3,0,0.4S281.5,261.5,281.4,261.6z M277.7,260.9h2.9v-0.2c0-0.6-0.1-1-0.3-1.3
		c-0.2-0.3-0.6-0.5-1-0.5c-0.5,0-0.8,0.2-1.1,0.5C277.9,259.8,277.8,260.3,277.7,260.9z"/>
	<path class="st2" d="M287.8,260.2v3c0,0.5,0,0.8,0.1,1c-0.1,0.1-0.3,0.2-0.6,0.2c-0.3,0-0.5-0.2-0.5-0.6v-3.3c0-0.5-0.1-0.8-0.2-1
		s-0.3-0.3-0.7-0.3c-0.3,0-0.7,0.1-1,0.3c-0.3,0.2-0.6,0.4-0.9,0.7v4.3c-0.1,0-0.3,0-0.4,0s-0.3,0-0.4,0v-5.9l0.1-0.1h0.3
		c0.2,0,0.3,0,0.4,0.1c0.1,0.1,0.1,0.3,0.1,0.5v0.2c0.3-0.3,0.6-0.5,1-0.6s0.7-0.2,1.1-0.2c0.5,0,0.9,0.2,1.2,0.5
		C287.6,259.1,287.8,259.6,287.8,260.2z"/>
	<path class="st2" d="M293.4,259.2v5.1c-0.1,0-0.3,0-0.4,0c-0.2,0-0.3,0-0.4,0v-4.6c0-0.2,0-0.4-0.1-0.5c-0.1-0.1-0.2-0.1-0.4-0.1
		h-0.1c0-0.1,0-0.2,0-0.3s0-0.2,0-0.3c0.2,0,0.3,0,0.4,0c0.1,0,0.2,0,0.2,0h0.1c0.2,0,0.4,0.1,0.6,0.2
		C293.3,258.7,293.4,258.9,293.4,259.2z M292.2,256.3c0.1-0.1,0.3-0.1,0.6-0.1c0.2,0,0.4,0,0.5,0.1s0.1,0.2,0.1,0.5s0,0.4-0.1,0.5
		c-0.1,0.1-0.3,0.1-0.5,0.1c-0.2,0-0.3,0-0.5-0.1c-0.1-0.1-0.2-0.2-0.2-0.5C292.2,256.6,292.2,256.4,292.2,256.3z"/>
	<path class="st2" d="M298.8,260.4c0-0.5-0.1-0.8-0.2-1s-0.3-0.3-0.6-0.3c-0.3,0-0.6,0.1-0.8,0.3s-0.5,0.4-0.8,0.7v4.2
		c-0.1,0-0.3,0-0.4,0c-0.2,0-0.3,0-0.4,0v-5.8l0.1-0.1h0.3c0.2,0,0.3,0,0.4,0.1c0.1,0.1,0.1,0.3,0.1,0.5v0.2
		c0.5-0.6,1.1-0.9,1.8-0.9s1.1,0.3,1.4,0.9c0.7-0.6,1.3-0.9,1.9-0.9c0.5,0,0.9,0.2,1.1,0.5c0.2,0.3,0.4,0.8,0.4,1.3v3
		c0,0.5,0,0.8,0.1,1c-0.1,0.1-0.3,0.2-0.6,0.2c-0.3,0-0.5-0.2-0.5-0.6v-3.3c0-0.5-0.1-0.8-0.2-1s-0.3-0.3-0.6-0.3
		c-0.3,0-0.6,0.1-0.8,0.2c-0.3,0.2-0.5,0.4-0.8,0.7v4.3c-0.1,0-0.3,0-0.4,0s-0.3,0-0.4,0V260.4z"/>
	<path class="st2" d="M311.8,262.1l-0.8,0h-1.6l-0.8,0l-0.7,2.1c-0.1,0-0.2,0-0.4,0s-0.3,0-0.5-0.1l0,0l2.7-8.1c0.1,0,0.3,0,0.5,0
		s0.4,0,0.5,0l2.7,8.1c-0.1,0.1-0.3,0.1-0.5,0.1c-0.2,0-0.3,0-0.4-0.1c-0.1-0.1-0.1-0.2-0.2-0.4L311.8,262.1z M308.7,261.4l0.7,0
		h1.4c0,0,0.1,0,0.3,0c0.2,0,0.3,0,0.4,0l-0.8-2.3c-0.3-0.9-0.5-1.6-0.6-2h-0.1c-0.2,0.6-0.3,1.1-0.4,1.4L308.7,261.4z"/>
	<path class="st2" d="M316.1,263.6h0.5c0,0.1,0.1,0.2,0.1,0.2c0,0.1,0,0.2,0,0.2c0,0,0,0.1,0,0.1c0,0,0,0.1,0,0.1
		c-0.1,0-0.3,0-0.4,0.1c-0.1,0-0.2,0-0.4,0c-0.3,0-0.6-0.1-0.8-0.2c-0.2-0.1-0.3-0.4-0.3-0.8v-7.8l0.1-0.1h0.3c0.2,0,0.3,0,0.4,0.1
		c0.1,0.1,0.1,0.2,0.1,0.5v7C315.6,263.4,315.8,263.6,316.1,263.6z"/>
	<path class="st2" d="M320.6,258.4c0,0.1,0,0.2,0,0.3c0,0.1,0,0.2,0,0.3l-1.5,0v4c0,0.3,0.2,0.5,0.5,0.5h0.9
		c0.1,0.1,0.1,0.3,0.1,0.4c0,0.1,0,0.2,0,0.3c-0.4,0-0.7,0.1-1.1,0.1c-0.8,0-1.2-0.3-1.2-1V259l-0.9,0c0-0.1,0-0.2,0-0.3
		c0-0.1,0-0.2,0-0.3l0.9,0v-1.3c0-0.2,0-0.4,0.1-0.5c0.1-0.1,0.2-0.1,0.4-0.1h0.3l0.1,0.1v1.8L320.6,258.4z"/>
	<path class="st2" d="M324.6,258.4c0,0.1,0,0.2,0,0.3c0,0.1,0,0.2,0,0.3l-1.5,0v4c0,0.3,0.2,0.5,0.5,0.5h0.9
		c0.1,0.1,0.1,0.3,0.1,0.4c0,0.1,0,0.2,0,0.3c-0.4,0-0.7,0.1-1.1,0.1c-0.8,0-1.2-0.3-1.2-1V259l-0.9,0c0-0.1,0-0.2,0-0.3
		c0-0.1,0-0.2,0-0.3l0.9,0v-1.3c0-0.2,0-0.4,0.1-0.5c0.1-0.1,0.2-0.1,0.4-0.1h0.3l0.1,0.1v1.8L324.6,258.4z"/>
	<path class="st2" d="M330.4,263.9c-0.1,0.2-0.2,0.4-0.4,0.5c-0.4-0.1-0.6-0.4-0.7-0.8c-0.6,0.6-1.2,0.9-1.8,0.9
		c-0.3,0-0.6,0-0.8-0.1c-0.2-0.1-0.4-0.2-0.6-0.4c-0.1-0.2-0.3-0.3-0.3-0.6s-0.1-0.4-0.1-0.7c0-0.3,0.1-0.6,0.2-0.8
		c0.1-0.2,0.3-0.4,0.4-0.6c0.2-0.2,0.4-0.3,0.7-0.4s0.5-0.1,0.8-0.1c0.6,0,1.1,0,1.5,0.1v-0.6c0-0.8-0.4-1.2-1.1-1.2
		c-0.6,0-1.2,0.2-2,0.5c-0.2-0.2-0.3-0.4-0.3-0.7c0.9-0.4,1.6-0.6,2.4-0.6c1.2,0,1.9,0.7,1.9,2v2.5c0,0.3,0,0.5,0.1,0.7
		C330.2,263.6,330.3,263.8,330.4,263.9z M329.2,262.7v-1.2c-0.2,0-0.4-0.1-0.6-0.1s-0.4,0-0.7,0c-0.5,0-0.8,0.1-1,0.3
		c-0.2,0.2-0.4,0.5-0.4,0.8c0,0.3,0.1,0.6,0.3,0.8c0.2,0.2,0.4,0.3,0.7,0.3c0.3,0,0.6-0.1,0.9-0.2
		C328.7,263.2,328.9,263,329.2,262.7z"/>
	<path class="st2" d="M335.5,258.9c0.1-0.3,0.3-0.5,0.6-0.6c0.2,0.1,0.3,0.3,0.4,0.5c-0.2,0.2-0.3,0.6-0.3,1.3v3.8
		c0,0.6,0,1-0.1,1.4c-0.1,0.4-0.2,0.7-0.4,1c-0.2,0.2-0.4,0.4-0.7,0.5c-0.3,0.1-0.6,0.2-1,0.2c-0.8,0-1.4-0.1-2.1-0.4
		c0-0.3,0.1-0.5,0.3-0.7c0.5,0.3,1.1,0.4,1.6,0.4c0.3,0,0.6,0,0.8-0.1s0.4-0.2,0.5-0.4s0.2-0.4,0.3-0.6c0-0.2,0.1-0.5,0.1-0.8v-0.7
		c-0.5,0.5-1.1,0.8-1.8,0.8c-0.6,0-1.1-0.3-1.5-0.8s-0.5-1.3-0.5-2.3c0-0.5,0.1-0.9,0.2-1.3c0.1-0.4,0.3-0.7,0.5-1
		c0.2-0.3,0.4-0.5,0.7-0.6c0.3-0.1,0.6-0.2,0.9-0.2C334.4,258.2,335,258.4,335.5,258.9z M335.3,262.7v-3.1c-0.2-0.2-0.5-0.4-0.7-0.5
		s-0.5-0.2-0.7-0.2c-0.4,0-0.8,0.2-1.1,0.6c-0.3,0.4-0.4,1-0.4,1.8c0,0.8,0.1,1.3,0.4,1.7c0.2,0.4,0.5,0.6,0.9,0.6
		c0.3,0,0.6-0.1,0.9-0.2C334.9,263.2,335.1,263,335.3,262.7z"/>
</g>
<linearGradient id="SVGID_2_" gradientUnits="userSpaceOnUse" x1="1.6463" y1="244.5767" x2="364.7537" y2="244.5767">
	<stop  offset="0" style="stop-color:#009632;stop-opacity:0.4"/>
	<stop  offset="1" style="stop-color:#009632"/>
</linearGradient>
<path class="st7" d="M355.9,235.7l-0.7,0.7l5.8,5.8H244.2v-9.3h-1v9.3v0c0,0-238.7,0-240.6,0v-9.3h-1v9.2v5v9.2h1v-9.1h240.6v9.1h1
	v-9.1h116.5l-5.6,5.6l0.7,0.7l8.9-8.9L355.9,235.7z"/>
</svg>
