<?xml version="1.0" encoding="utf-8"?>
<!-- Generator: Adobe Illustrator 22.0.0, SVG Export Plug-In . SVG Version: 6.00 Build 0)  -->
<svg version="1.1" id="Layer_1" xmlns="http://www.w3.org/2000/svg" xmlns:xlink="http://www.w3.org/1999/xlink" x="0px" y="0px"
	 viewBox="0 0 500 800" style="enable-background:new 0 0 500 800;" xml:space="preserve">
<style type="text/css">
	.st0{opacity:0.2;fill:none;stroke:#62A5FF;stroke-width:222.5295;stroke-miterlimit:10;}
	.st1{fill:#62A5FF;}
	.st2{opacity:0.2;fill:none;stroke:#62A5FF;stroke-width:111.2647;stroke-miterlimit:10;}
</style>
<path class="st0" d="M260.9,215.8c-9.6-8.4-32.5-21.8-36.3,13C211.2,319,114.3,382,114.3,470.9c0,74.9,60.7,135.7,135.7,135.7
	c74.9,0,135.7-60.7,135.7-135.7C385.7,402.9,358.4,300.5,260.9,215.8z"/>
<g>
	<g id="Guides_For_Artboard_35_">
	</g>
	<g id="Artwork_34_">
	</g>
	<g id="Layer_2_34_">
		<g>
			<path class="st1" d="M260.9,215.8c-9.6-8.4-32.5-21.8-36.3,13C211.2,319,114.3,382,114.3,470.9c0,74.9,60.7,135.7,135.7,135.7
				c74.9,0,135.7-60.7,135.7-135.7C385.7,402.9,358.4,300.5,260.9,215.8z"/>
		</g>
	</g>
</g>
<path class="st2" d="M260.9,215.8c-9.6-8.4-32.5-21.8-36.3,13C211.2,319,114.3,382,114.3,470.9c0,74.9,60.7,135.7,135.7,135.7
	c74.9,0,135.7-60.7,135.7-135.7C385.7,402.9,358.4,300.5,260.9,215.8z"/>
</svg>
